P3
72 72
255
0
0
0
0
0
0
0
0
0
0
0
0
0
0
0
0
0
0
0
0
0
0
0
0
0
0
0
0
0
0
0
0
0
0
0
0
0
0
0
0
0
0
0
0
0
0
0
0
0
0
0
0
0
0
0
0
0
0
0
0
0
0
0
0
0
0
0
0
0
0
0
0
0
0
0
0
0
0
0
0
0
0
0
0
0
0
0
0
0
0
0
0
0
0
0
0
0
0
0
0
0
0
0
0
0
0
0
0
0
0
0
0
0
0
0
0
0
0
0
0
0
0
0
0
0
0
0
0
0
0
0
0
0
0
0
0
0
0
0
0
0
0
0
0
0
0
0
0
0
0
0
0
0
0
0
0
0
0
0
0
0
0
0
0
0
0
0
0
0
0
0
0
0
0
0
0
0
0
0
0
0
0
0
0
0
0
0
0
0
0
0
0
0
0
0
0
0
0
0
0
0
0
0
0
0
0
0
0
0
0
0
0
0
0
0
0
0
0
0
0
0
0
0
0
0
0
0
0
0
0
0
0
0
0
0
0
0
0
0
0
0
0
0
0
0
0
0
0
0
0
0
0
0
0
0
0
0
0
0
0
0
0
0
0
0
0
0
0
0
0
84
48
24
84
48
24
84
48
24
158
90
46
158
90
46
158
90
46
161
148
16
161
148
16
161
148
16
0
0
0
0
0
0
0
0
0
0
0
0
0
0
0
0
0
0
0
0
0
0
0
0
0
0
0
0
0
0
0
0
0
0
0
0
0
0
0
0
0
0
0
0
0
0
0
0
0
0
0
0
0
0
0
0
0
0
0
0
0
0
0
0
0
0
0
0
0
0
0
0
0
0
0
0
0
0
0
0
0
0
0
0
0
0
0
0
0
0
0
0
0
0
0
0
0
0
0
0
0
0
0
0
0
0
0
0
0
0
0
0
0
0
0
0
0
0
0
0
0
0
0
0
0
0
0
0
0
0
0
0
0
0
0
0
0
0
0
0
0
0
0
0
0
0
0
0
0
0
0
0
0
0
0
0
0
0
0
0
0
0
0
0
0
0
0
0
0
0
0
0
0
0
0
0
0
0
0
0
0
0
0
0
0
0
0
0
0
133
76
38
133
76
38
133
76
38
164
93
47
164
93
47
164
93
47
159
146
16
159
146
16
159
146
16
0
0
0
0
0
0
0
0
0
0
0
0
0
0
0
0
0
0
0
0
0
0
0
0
0
0
0
0
0
0
0
0
0
0
0
0
0
0
0
0
0
0
0
0
0
0
0
0
0
0
0
0
0
0
0
0
0
0
0
0
0
0
0
0
0
0
0
0
0
0
0
0
0
0
0
0
0
0
0
0
0
0
0
0
0
0
0
0
0
0
0
0
0
0
0
0
0
0
0
0
0
0
0
0
0
0
0
0
0
0
0
0
0
0
0
0
0
0
0
0
0
0
0
0
0
0
0
0
0
0
0
0
0
0
0
0
0
0
0
0
0
0
0
0
0
0
0
0
0
0
0
0
0
0
0
0
0
0
0
0
0
0
0
0
0
0
0
0
0
0
0
0
0
0
0
0
0
0
0
0
0
0
0
0
0
0
0
0
0
147
84
42
147
84
42
147
84
42
147
84
42
147
84
42
147
84
42
161
148
16
161
148
16
161
148
16
151
153
2
151
153
2
151
153
2
0
0
0
0
0
0
0
0
0
0
0
0
0
0
0
0
0
0
0
0
0
0
0
0
0
0
0
0
0
0
0
0
0
0
0
0
0
0
0
0
0
0
0
0
0
0
0
0
0
0
0
0
0
0
0
0
0
0
0
0
0
0
0
0
0
0
0
0
0
0
0
0
0
0
0
0
0
0
0
0
0
0
0
0
0
0
0
0
0
0
0
0
0
0
0
0
0
0
0
0
0
0
0
0
0
0
0
0
0
0
0
0
0
0
0
0
0
0
0
0
0
0
0
0
0
0
0
0
0
0
0
0
0
0
0
0
0
0
0
0
0
0
0
0
0
0
0
0
0
0
0
0
0
0
0
0
0
0
0
0
0
0
0
0
0
0
0
0
0
0
0
0
0
0
0
0
0
0
0
0
130
74
38
130
74
38
130
74
38
84
48
24
84
48
24
84
48
24
82
83
1
82
83
1
82
83
1
0
0
0
0
0
0
0
0
0
0
0
0
0
0
0
0
0
0
0
0
0
0
0
0
0
0
0
0
0
0
0
0
0
0
0
0
0
0
0
0
0
0
0
0
0
0
0
0
0
0
0
0
0
0
0
0
0
0
0
0
0
0
0
0
0
0
0
0
0
0
0
0
0
0
0
0
0
0
0
0
0
0
0
0
0
0
0
0
0
0
0
0
0
0
0
0
0
0
0
0
0
0
0
0
0
0
0
0
0
0
0
0
0
0
0
0
0
0
0
0
0
0
0
0
0
0
0
0
0
0
0
0
0
0
0
0
0
0
0
0
0
0
0
0
0
0
0
0
0
0
0
0
0
0
0
0
0
0
0
0
0
0
0
0
0
0
0
0
0
0
0
0
0
0
0
0
0
0
0
0
0
0
0
0
0
0
0
0
0
0
0
0
0
0
0
0
0
0
0
0
0
0
0
0
0
0
0
0
0
0
0
0
0
0
0
0
0
0
0
0
0
0
0
0
0
0
0
0
0
0
0
0
0
0
0
0
0
0
0
0
0
0
0
0
0
0
0
0
0
0
0
0
0
0
0
0
0
0
0
0
0
0
0
0
0
0
0
0
0
0
0
0
0
0
0
0
0
0
0
0
0
0
0
0
0
0
0
0
0
0
0
0
0
0
0
0
0
0
0
0
0
0
0
0
0
0
0
0
0
0
0
0
0
0
0
0
0
0
0
0
0
0
0
0
0
0
0
0
0
0
0
0
0
0
0
0
0
0
0
0
0
0
0
0
0
0
0
0
0
0
0
0
0
0
0
0
0
0
0
0
0
0
0
0
0
0
0
0
0
0
0
0
0
0
0
0
0
0
0
0
0
0
0
0
0
0
0
0
0
0
0
0
0
0
0
0
0
0
0
0
0
0
0
0
0
0
0
0
0
0
0
0
0
0
0
0
0
0
0
0
0
0
0
0
0
0
0
0
0
0
0
0
0
0
0
0
0
0
0
0
0
0
0
0
0
0
0
0
0
0
0
0
0
0
0
0
0
0
0
0
0
0
0
0
0
0
0
0
0
0
0
0
0
0
0
0
0
0
0
0
0
0
0
0
0
0
0
0
0
0
0
0
0
0
0
0
0
0
0
0
0
0
0
0
0
0
0
0
0
0
0
0
0
0
0
0
0
0
0
0
0
0
0
0
0
0
0
0
0
0
0
0
0
0
0
0
0
0
0
0
0
0
0
0
0
0
0
0
0
0
0
0
0
0
0
0
0
0
0
0
0
0
0
0
0
0
0
0
0
0
0
0
0
0
0
0
0
0
0
0
0
0
0
0
0
0
0
0
0
0
0
0
0
0
0
0
0
0
0
0
0
0
0
0
0
0
0
0
0
0
0
0
0
0
0
0
0
0
0
0
0
0
0
0
0
0
0
0
0
0
0
0
0
0
0
0
0
0
0
0
0
0
0
0
0
0
0
0
0
0
0
0
0
0
0
0
0
0
0
0
0
0
0
0
0
0
0
0
0
0
0
0
0
0
0
0
0
0
0
0
0
0
0
0
0
0
0
0
0
0
0
0
0
0
0
0
0
0
0
0
0
0
0
0
0
0
0
0
0
0
0
0
0
0
0
0
0
0
0
0
0
0
0
0
0
0
0
0
0
0
0
0
0
0
0
0
0
0
0
0
0
0
0
0
0
0
0
0
0
0
0
0
0
0
0
0
0
0
0
0
0
0
0
0
0
0
0
0
0
0
0
0
0
0
0
0
0
0
0
0
0
0
0
0
0
0
0
0
0
0
0
0
0
0
0
0
0
0
0
0
0
0
0
0
0
0
0
0
0
0
0
0
0
0
0
0
0
0
0
0
0
0
0
0
0
0
0
0
0
0
0
0
0
0
0
0
0
0
0
0
0
0
0
0
0
0
0
0
0
0
0
0
0
0
0
0
0
0
0
0
0
0
0
0
0
0
0
0
0
0
0
0
0
0
0
0
0
0
0
0
0
0
0
0
0
0
0
0
0
0
0
0
0
0
0
0
0
0
0
0
0
0
0
0
0
0
0
0
0
0
0
0
0
0
0
0
0
0
0
0
0
0
0
0
0
0
0
0
0
0
0
0
0
0
0
0
0
0
0
0
0
0
0
0
0
0
0
0
0
0
0
0
0
0
0
0
0
0
0
0
0
0
0
0
0
0
0
0
0
0
0
0
0
0
0
0
0
0
0
0
0
0
0
0
0
0
0
0
0
0
0
0
0
0
0
0
0
0
0
0
0
0
0
0
0
0
0
0
0
0
0
0
0
0
0
0
0
0
0
0
0
0
0
0
0
0
0
0
0
0
0
0
0
0
0
0
0
0
0
0
0
0
0
0
0
0
0
0
0
0
0
0
0
0
0
0
0
0
0
0
0
0
0
0
0
0
0
0
0
0
0
0
0
0
0
0
0
0
0
0
0
0
0
0
0
0
0
0
0
0
0
0
0
0
0
0
0
0
0
0
0
0
0
0
0
0
0
0
0
0
0
0
0
0
0
0
0
0
0
0
0
0
0
0
0
0
0
0
0
0
0
0
0
0
0
0
0
0
0
0
0
0
0
0
0
0
0
0
0
0
0
0
0
0
0
0
0
0
0
0
0
0
0
0
0
0
0
0
0
0
0
0
0
0
0
0
0
0
0
0
0
0
0
0
0
0
0
0
0
0
0
0
0
0
0
0
0
0
0
0
0
0
0
0
0
0
0
0
0
0
0
0
0
0
0
0
0
0
0
0
0
0
0
0
0
0
0
0
0
0
0
0
0
0
0
0
0
0
0
0
0
0
0
0
0
0
0
0
0
0
0
0
0
0
0
0
0
0
0
0
0
0
0
0
0
0
0
0
0
0
0
0
0
0
0
0
0
0
0
0
0
0
0
0
0
0
0
0
0
0
0
0
0
0
0
0
0
0
0
0
0
0
0
0
0
0
0
0
0
0
0
0
0
0
0
0
0
0
0
0
0
0
0
0
0
0
0
0
0
0
0
0
0
0
0
0
0
0
0
0
0
0
0
0
0
0
0
0
0
0
0
0
0
0
0
0
0
0
0
0
0
0
0
0
0
0
0
0
0
0
0
0
0
0
0
0
0
0
0
0
0
0
0
0
0
0
0
0
0
0
0
0
0
0
0
0
0
0
0
0
0
0
0
0
0
0
0
0
0
0
0
0
0
0
0
0
0
0
0
0
0
0
0
0
0
0
0
0
0
0
0
0
0
0
0
0
0
0
0
0
0
0
0
0
0
0
0
0
0
0
0
0
0
0
0
0
0
0
0
0
0
0
0
0
0
0
0
0
0
0
0
0
0
0
0
0
0
0
0
0
0
0
0
0
0
0
0
0
0
0
0
0
0
0
0
0
0
0
0
0
0
0
0
0
0
0
0
0
0
0
0
0
0
0
0
0
0
0
0
0
0
0
0
0
0
0
0
0
0
0
0
0
0
0
0
0
0
0
0
0
0
0
0
0
0
0
0
0
0
0
0
0
0
0
0
0
0
0
0
0
0
0
0
0
0
0
0
0
0
0
0
0
0
0
0
0
0
0
0
0
0
0
0
0
0
0
0
0
0
0
0
0
0
0
0
0
0
0
0
0
0
0
0
0
0
0
0
0
0
0
0
0
0
0
0
0
0
0
0
0
0
0
0
0
0
0
0
0
0
0
0
0
0
0
0
0
0
0
0
0
0
0
0
0
0
0
0
0
0
0
0
0
0
0
0
0
0
0
0
0
0
0
0
0
0
0
0
0
0
0
0
0
0
0
0
0
0
0
0
0
0
0
0
0
0
0
0
0
0
0
0
0
0
0
0
0
0
0
0
0
0
0
0
0
0
0
0
0
0
0
0
0
0
0
0
0
0
0
0
0
0
0
0
0
0
0
0
0
0
0
0
0
0
0
0
0
0
0
0
0
0
0
0
0
0
0
0
0
0
0
0
0
0
0
0
0
0
0
0
0
0
0
0
0
0
0
0
0
0
0
0
0
0
0
0
0
0
0
0
0
0
0
0
0
0
0
0
0
0
0
0
0
0
0
0
0
0
0
0
0
0
0
0
0
0
0
0
0
0
0
0
0
0
0
0
0
0
0
0
0
0
0
0
0
0
0
0
0
0
0
0
0
0
0
0
0
0
0
0
0
0
0
0
0
0
0
0
0
0
0
0
0
0
0
0
0
0
0
0
0
0
0
0
0
0
0
0
0
0
0
0
0
0
0
0
0
0
0
0
0
0
0
0
0
0
0
0
0
0
0
0
0
0
0
0
0
0
0
0
0
0
0
0
0
0
0
0
0
0
0
0
0
0
0
0
0
0
0
0
0
0
0
0
0
0
0
0
0
0
0
0
0
0
0
0
0
0
0
0
0
0
0
0
0
0
0
0
0
0
0
0
0
0
0
0
0
0
0
0
0
0
0
0
0
0
0
0
0
0
0
0
0
0
0
0
0
0
0
0
0
0
0
0
0
0
0
0
0
0
0
0
0
0
0
0
0
0
0
0
0
0
0
0
0
0
0
0
0
0
0
0
0
0
0
0
0
0
0
0
0
0
0
0
0
0
0
0
0
0
0
0
0
0
0
0
0
0
0
0
0
0
0
0
0
0
0
0
0
0
0
0
0
0
0
0
0
0
0
0
0
0
0
0
0
0
0
0
0
0
0
0
0
0
0
0
0
0
0
0
0
0
0
0
0
0
0
0
0
0
0
0
0
0
0
0
0
0
0
0
0
0
0
0
0
0
0
0
0
0
0
0
0
0
0
0
0
0
0
0
0
0
0
0
0
0
0
0
0
0
0
0
0
0
0
0
0
0
0
0
0
0
0
0
0
0
0
0
0
0
0
0
0
0
0
0
0
0
0
0
0
0
0
0
0
0
0
0
0
0
0
0
0
0
0
0
0
0
0
0
0
0
0
0
0
0
0
0
0
0
0
0
0
0
0
0
0
0
0
0
0
0
0
0
0
0
0
0
0
0
0
0
0
0
0
0
0
0
0
0
0
0
0
0
0
0
0
0
0
0
0
0
0
0
0
0
0
0
0
0
0
0
0
0
0
0
0
0
0
0
0
0
0
0
0
0
0
0
0
0
0
0
0
0
0
0
0
0
0
0
0
0
0
0
0
0
0
0
0
0
0
0
0
0
0
0
0
0
0
0
0
0
0
0
0
0
0
0
0
0
0
0
0
0
0
0
0
0
0
0
0
0
0
0
0
0
0
0
0
0
0
0
0
0
0
0
0
0
0
0
0
0
0
0
0
0
0
0
0
0
0
0
0
0
0
0
0
0
0
0
0
0
0
0
0
0
0
0
0
0
0
0
0
0
0
0
0
0
0
0
0
0
0
0
0
0
0
0
0
0
0
0
0
0
0
0
0
0
0
0
0
0
0
0
0
0
0
0
0
0
0
0
0
0
0
0
0
0
0
0
0
0
0
0
0
0
0
0
0
0
0
0
0
0
0
0
0
0
0
0
0
0
0
0
0
0
0
0
0
0
0
0
0
0
0
0
0
0
0
0
0
0
0
0
0
0
0
0
0
0
0
0
0
0
0
0
0
0
0
0
0
0
0
0
0
0
0
0
0
0
0
0
0
0
0
0
0
0
0
0
0
0
0
0
0
0
0
0
0
0
0
0
0
0
0
0
0
0
0
0
0
0
0
0
0
0
0
0
0
0
0
0
0
0
0
0
0
0
0
0
0
0
0
0
0
0
0
0
0
0
0
0
0
0
0
0
0
0
0
0
0
0
0
0
0
0
0
0
0
0
0
0
0
0
0
0
0
0
0
0
0
0
0
0
0
0
0
0
0
0
0
0
0
0
0
0
0
0
0
0
0
0
0
0
0
0
0
0
0
0
0
0
0
0
0
0
0
0
0
0
0
0
0
0
0
0
0
0
0
0
0
0
0
0
0
0
0
0
0
0
0
0
0
0
0
0
0
0
0
0
0
0
0
0
0
0
0
0
0
0
0
0
0
0
0
0
0
0
0
0
0
0
0
0
0
0
0
0
0
0
0
0
0
0
0
0
0
0
0
0
0
0
0
0
0
0
0
0
0
0
0
0
0
0
0
0
0
0
0
0
0
0
0
0
0
0
0
0
0
0
0
0
0
0
0
0
0
0
0
0
0
0
0
0
0
0
0
0
0
0
0
0
0
0
0
0
0
0
0
0
0
0
0
0
0
0
0
0
0
0
0
0
0
0
0
0
0
0
0
0
0
0
0
0
0
0
0
0
0
0
0
0
0
0
0
0
0
0
0
0
0
0
0
0
0
0
0
0
0
0
0
0
0
0
0
0
0
0
0
0
0
0
0
0
0
0
0
0
0
0
0
0
0
0
0
0
0
0
0
0
0
0
0
0
0
0
0
0
0
0
0
0
0
0
0
0
0
0
0
0
0
0
0
0
0
0
0
0
0
0
0
0
0
0
0
0
0
0
0
0
0
0
0
0
0
0
0
0
0
0
0
0
0
0
0
0
0
0
0
0
0
0
0
0
0
0
0
0
0
0
0
0
0
0
0
0
0
0
0
0
0
0
0
0
0
0
0
0
0
0
0
0
0
0
0
0
0
0
0
0
0
0
0
0
0
0
0
0
0
0
0
0
0
0
0
0
0
0
0
0
0
0
0
0
0
0
0
0
0
0
0
0
0
0
0
0
0
0
0
0
0
0
0
0
0
0
0
0
0
0
0
0
0
0
0
0
0
0
0
0
0
0
0
0
0
0
0
0
0
0
0
0
0
0
0
0
0
0
0
0
0
0
0
0
0
0
0
0
0
0
0
0
0
0
0
0
0
0
0
0
0
0
0
0
0
0
0
0
0
0
0
0
0
0
0
0
0
0
0
0
0
0
0
0
0
0
0
0
0
0
0
0
0
0
0
0
0
0
0
0
0
0
0
0
0
0
0
0
0
0
0
0
0
0
0
0
0
0
0
0
0
0
0
0
0
0
0
0
0
0
0
0
0
0
0
0
0
0
0
0
0
0
0
0
0
0
0
0
0
0
0
0
0
0
0
0
0
0
0
0
0
0
0
0
0
0
0
0
0
0
0
0
0
0
0
0
0
0
0
0
0
0
0
0
0
0
0
0
0
0
0
0
0
0
0
0
0
0
0
0
0
0
0
0
0
0
0
0
0
0
0
0
0
0
0
0
0
0
0
0
0
0
0
0
0
0
0
0
0
0
0
0
0
0
0
0
0
0
0
0
0
0
0
0
0
0
0
0
0
0
0
0
0
0
0
0
0
0
0
0
0
0
0
0
0
0
0
0
0
0
0
0
0
0
0
0
0
0
0
0
0
0
0
0
0
0
0
0
0
0
0
0
0
0
0
0
0
0
0
0
0
0
0
0
0
0
0
0
0
0
0
0
0
0
0
0
0
0
0
0
0
0
0
0
0
0
0
0
0
0
0
0
0
0
0
0
0
0
0
0
0
0
0
0
0
0
0
0
0
0
0
0
0
0
0
0
0
0
0
0
0
0
0
0
0
0
0
0
0
0
0
0
0
0
0
0
0
0
0
0
0
0
0
0
0
0
0
0
0
0
0
0
0
0
0
0
0
0
0
0
0
0
0
0
0
0
0
0
0
0
0
0
0
0
0
0
0
0
0
0
0
0
0
0
0
0
0
0
0
0
0
0
0
0
0
0
0
0
0
0
0
0
0
82
12
12
82
12
12
82
12
12
0
0
0
0
0
0
0
0
0
0
0
0
0
0
0
0
0
0
79
45
23
79
45
23
79
45
23
0
0
0
0
0
0
0
0
0
0
0
0
0
0
0
0
0
0
0
0
0
0
0
0
0
0
0
82
83
1
82
83
1
82
83
1
0
0
0
0
0
0
0
0
0
0
0
0
0
0
0
0
0
0
17
84
28
17
84
28
17
84
28
0
0
0
0
0
0
0
0
0
0
0
0
0
0
0
0
0
0
0
0
0
0
0
0
0
0
0
14
29
48
14
29
48
14
29
48
0
0
0
0
0
0
0
0
0
0
0
0
0
0
0
0
0
0
38
5
49
38
5
49
38
5
49
0
0
0
0
0
0
0
0
0
0
0
0
0
0
0
0
0
0
0
0
0
0
0
0
0
0
0
0
0
0
0
0
0
0
0
0
0
0
0
0
0
0
0
0
0
82
12
12
82
12
12
82
12
12
158
23
23
158
23
23
158
23
23
0
0
0
0
0
0
0
0
0
30
17
8
30
17
8
30
17
8
160
91
46
160
91
46
160
91
46
0
0
0
0
0
0
0
0
0
0
0
0
0
0
0
0
0
0
0
0
0
0
0
0
0
0
0
162
164
2
162
164
2
162
164
2
0
0
0
0
0
0
0
0
0
0
0
0
0
0
0
0
0
0
33
162
54
33
162
54
33
162
54
17
83
28
17
83
28
17
83
28
0
0
0
0
0
0
0
0
0
0
0
0
0
0
0
0
0
0
35
69
114
35
69
114
35
69
114
17
35
58
17
35
58
17
35
58
0
0
0
0
0
0
0
0
0
123
15
159
123
15
159
123
15
159
122
16
157
122
16
157
122
16
157
0
0
0
0
0
0
0
0
0
0
0
0
0
0
0
0
0
0
0
0
0
0
0
0
0
0
0
0
0
0
0
0
0
0
0
0
136
20
20
136
20
20
136
20
20
108
16
16
108
16
16
108
16
16
0
0
0
0
0
0
0
0
0
132
75
38
132
75
38
132
75
38
79
45
23
79
45
23
79
45
23
0
0
0
0
0
0
0
0
0
0
0
0
0
0
0
0
0
0
82
84
1
82
84
1
82
84
1
82
83
1
82
83
1
82
83
1
71
72
1
71
72
1
71
72
1
0
0
0
0
0
0
0
0
0
17
84
28
17
84
28
17
84
28
34
168
57
34
168
57
34
168
57
0
0
0
0
0
0
0
0
0
0
0
0
0
0
0
0
0
0
32
64
106
32
64
106
32
64
106
18
36
60
18
36
60
18
36
60
0
0
0
0
0
0
0
0
0
97
12
126
97
12
126
97
12
126
60
8
78
60
8
78
60
8
78
0
0
0
0
0
0
0
0
0
0
0
0
0
0
0
0
0
0
0
0
0
0
0
0
0
0
0
0
0
0
0
0
0
0
0
0
69
10
10
69
10
10
69
10
10
96
14
14
96
14
14
96
14
14
0
0
0
0
0
0
0
0
0
49
28
14
49
28
14
49
28
14
111
63
32
111
63
32
111
63
32
0
0
0
0
0
0
0
0
0
0
0
0
0
0
0
0
0
0
30
31
0
30
31
0
30
31
0
109
111
1
109
111
1
109
111
1
26
27
0
26
27
0
26
27
0
0
0
0
0
0
0
0
0
0
23
110
37
23
110
37
23
110
37
12
57
19
12
57
19
12
57
19
0
0
0
0
0
0
0
0
0
0
0
0
0
0
0
0
0
0
14
27
45
14
27
45
14
27
45
24
48
79
24
48
79
24
48
79
0
0
0
0
0
0
0
0
0
66
8
85
66
8
85
66
8
85
83
11
107
83
11
107
83
11
107
0
0
0
0
0
0
0
0
0
0
0
0
0
0
0
0
0
0
0
0
0
0
0
0
0
0
0
0
0
0
0
0
0
0
0
0
51
7
7
51
7
7
51
7
7
102
15
15
102
15
15
102
15
15
0
0
0
0
0
0
0
0
0
19
11
5
19
11
5
19
11
5
102
58
30
102
58
30
102
58
30
0
0
0
0
0
0
0
0
0
0
0
0
0
0
0
0
0
0
0
0
0
0
0
0
0
0
0
104
105
2
104
105
2
104
105
2
0
0
0
0
0
0
0
0
0
0
0
0
0
0
0
0
0
0
21
105
35
21
105
35
21
105
35
10
52
17
10
52
17
10
52
17
0
0
0
0
0
0
0
0
0
0
0
0
0
0
0
0
0
0
22
44
73
22
44
73
22
44
73
11
22
36
11
22
36
11
22
36
0
0
0
0
0
0
0
0
0
77
10
100
77
10
100
77
10
100
77
10
100
77
10
100
77
10
100
0
0
0
0
0
0
0
0
0
0
0
0
0
0
0
0
0
0
0
0
0
0
0
0
0
0
0
0
0
0
0
0
0
0
0
0
104
15
15
104
15
15
104
15
15
74
11
11
74
11
11
74
11
11
0
0
0
0
0
0
0
0
0
125
71
36
125
71
36
125
71
36
84
48
24
84
48
24
84
48
24
0
0
0
0
0
0
0
0
0
0
0
0
0
0
0
0
0
0
85
85
1
85
85
1
85
85
1
85
85
1
85
85
1
85
85
1
71
72
1
71
72
1
71
72
1
0
0
0
0
0
0
0
0
0
17
84
28
17
84
28
17
84
28
17
84
28
17
84
28
17
84
28
0
0
0
0
0
0
0
0
0
0
0
0
0
0
0
0
0
0
6
13
22
6
13
22
6
13
22
36
72
121
36
72
121
36
72
121
0
0
0
0
0
0
0
0
0
39
5
51
39
5
51
39
5
51
64
8
82
64
8
82
64
8
82
0
0
0
0
0
0
0
0
0
0
0
0
0
0
0
0
0
0
0
0
0
0
0
0
0
0
0
0
0
0
0
0
0
0
0
0
0
0
0
0
0
0
0
0
0
0
0
0
0
0
0
0
0
0
0
0
0
0
0
0
0
0
0
0
0
0
0
0
0
0
0
0
0
0
0
0
0
0
0
0
0
0
0
0
0
0
0
0
0
0
0
0
0
0
0
0
0
0
0
0
0
0
0
0
0
0
0
0
0
0
0
0
0
0
0
0
0
0
0
0
0
0
0
0
0
0
0
0
0
0
0
0
0
0
0
0
0
0
0
0
0
0
0
0
0
0
0
0
0
0
0
0
0
0
0
0
0
0
0
0
0
0
0
0
0
0
0
0
0
0
0
0
0
0
0
0
0
0
0
0
0
0
0
0
0
0
0
0
0
0
0
0
0
0
0
0
0
0
0
0
0
0
0
0
0
0
0
0
0
0
0
0
0
0
0
0
0
0
0
0
0
0
0
0
0
0
0
0
0
0
0
0
0
0
0
0
0
0
0
0
0
0
0
0
0
0
0
0
0
0
0
0
68
10
10
68
10
10
68
10
10
30
4
4
30
4
4
30
4
4
0
0
0
0
0
0
0
0
0
30
17
8
30
17
8
30
17
8
0
0
0
0
0
0
0
0
0
0
0
0
0
0
0
0
0
0
0
0
0
0
0
0
0
0
0
85
85
1
85
85
1
85
85
1
0
0
0
0
0
0
0
0
0
0
0
0
0
0
0
0
0
0
0
0
0
0
0
0
0
0
0
0
0
0
0
0
0
0
0
0
17
84
28
17
84
28
17
84
28
0
0
0
0
0
0
0
0
0
0
0
0
0
0
0
0
0
0
0
0
0
0
0
0
0
0
0
0
0
0
0
0
0
0
0
0
0
0
0
0
0
0
0
0
0
64
8
82
64
8
82
64
8
82
0
0
0
0
0
0
0
0
0
0
0
0
0
0
0
0
0
0
0
0
0
0
0
0
0
0
0
0
0
0
0
0
0
0
0
0
0
0
0
0
0
0
0
0
0
68
10
10
68
10
10
68
10
10
68
10
10
68
10
10
68
10
10
0
0
0
0
0
0
0
0
0
0
0
0
0
0
0
0
0
0
0
0
0
0
0
0
0
0
0
0
0
0
0
0
0
0
0
0
0
0
0
0
0
0
0
0
0
0
0
0
0
0
0
0
0
0
82
84
1
82
84
1
82
84
1
0
0
0
0
0
0
0
0
0
0
0
0
0
0
0
0
0
0
17
83
28
17
83
28
17
83
28
17
83
28
17
83
28
17
83
28
0
0
0
0
0
0
0
0
0
0
0
0
0
0
0
0
0
0
17
35
58
17
35
58
17
35
58
17
35
58
17
35
58
17
35
58
0
0
0
0
0
0
0
0
0
38
5
49
38
5
49
38
5
49
61
8
79
61
8
79
61
8
79
0
0
0
0
0
0
0
0
0
0
0
0
0
0
0
0
0
0
0
0
0
0
0
0
0
0
0
0
0
0
0
0
0
0
0
0
105
15
15
105
15
15
105
15
15
108
16
16
108
16
16
108
16
16
0
0
0
0
0
0
0
0
0
132
75
38
132
75
38
132
75
38
158
90
46
158
90
46
158
90
46
84
48
24
84
48
24
84
48
24
0
0
0
0
0
0
0
0
0
167
169
2
167
169
2
167
169
2
80
81
1
80
81
1
80
81
1
71
72
1
71
72
1
71
72
1
0
0
0
0
0
0
0
0
0
17
84
28
17
84
28
17
84
28
16
81
27
16
81
27
16
81
27
0
0
0
0
0
0
0
0
0
14
29
48
14
29
48
14
29
48
17
34
56
17
34
56
17
34
56
18
36
60
18
36
60
18
36
60
0
0
0
0
0
0
0
0
0
97
12
126
97
12
126
97
12
126
61
8
79
61
8
79
61
8
79
0
0
0
0
0
0
0
0
0
0
0
0
0
0
0
0
0
0
0
0
0
0
0
0
0
0
0
0
0
0
0
0
0
0
0
0
147
21
21
147
21
21
147
21
21
158
23
23
158
23
23
158
23
23
85
12
12
85
12
12
85
12
12
79
45
23
79
45
23
79
45
23
158
90
46
158
90
46
158
90
46
84
48
24
84
48
24
84
48
24
0
0
0
0
0
0
0
0
0
80
81
1
80
81
1
80
81
1
162
164
2
162
164
2
162
164
2
30
31
0
30
31
0
30
31
0
17
84
28
17
84
28
17
84
28
34
164
55
34
164
55
34
164
55
34
167
56
34
167
56
34
167
56
0
0
0
0
0
0
0
0
0
6
13
21
6
13
21
6
13
21
35
69
114
35
69
114
35
69
114
17
35
58
17
35
58
17
35
58
0
0
0
0
0
0
0
0
0
122
16
157
122
16
157
122
16
157
120
15
155
120
15
155
120
15
155
64
8
82
64
8
82
64
8
82
0
0
0
0
0
0
0
0
0
0
0
0
0
0
0
0
0
0
0
0
0
0
0
0
0
0
0
68
10
10
68
10
10
68
10
10
26
4
4
26
4
4
26
4
4
82
12
12
82
12
12
82
12
12
81
46
23
81
46
23
81
46
23
0
0
0
0
0
0
0
0
0
81
46
23
81
46
23
81
46
23
0
0
0
0
0
0
0
0
0
82
84
1
82
84
1
82
84
1
0
0
0
0
0
0
0
0
0
30
31
0
30
31
0
30
31
0
17
83
28
17
83
28
17
83
28
0
0
0
0
0
0
0
0
0
17
83
28
17
83
28
17
83
28
0
0
0
0
0
0
0
0
0
6
13
21
6
13
21
6
13
21
0
0
0
0
0
0
0
0
0
0
0
0
0
0
0
0
0
0
0
0
0
0
0
0
0
0
0
61
8
79
61
8
79
61
8
79
0
0
0
0
0
0
0
0
0
61
8
79
61
8
79
61
8
79
0
0
0
0
0
0
0
0
0
0
0
0
0
0
0
0
0
0
0
0
0
0
0
0
0
0
0
94
14
14
94
14
14
94
14
14
129
19
19
129
19
19
129
19
19
30
4
4
30
4
4
30
4
4
31
17
9
31
17
9
31
17
9
111
63
32
111
63
32
111
63
32
30
17
8
30
17
8
30
17
8
0
0
0
0
0
0
0
0
0
26
27
0
26
27
0
26
27
0
68
69
1
68
69
1
68
69
1
11
11
0
11
11
0
11
11
0
6
30
10
6
30
10
6
30
10
29
141
48
29
141
48
29
141
48
20
100
34
20
100
34
20
100
34
0
0
0
0
0
0
0
0
0
2
5
8
2
5
8
2
5
8
21
42
70
21
42
70
21
42
70
14
29
48
14
29
48
14
29
48
0
0
0
0
0
0
0
0
0
73
9
95
73
9
95
73
9
95
102
13
132
102
13
132
102
13
132
22
3
29
22
3
29
22
3
29
0
0
0
0
0
0
0
0
0
0
0
0
0
0
0
0
0
0
0
0
0
0
0
0
0
0
0
0
0
0
0
0
0
0
0
0
0
0
0
0
0
0
0
0
0
0
0
0
0
0
0
0
0
0
0
0
0
0
0
0
0
0
0
0
0
0
0
0
0
0
0
0
0
0
0
0
0
0
0
0
0
0
0
0
0
0
0
0
0
0
0
0
0
0
0
0
0
0
0
0
0
0
0
0
0
0
0
0
0
0
0
0
0
0
0
0
0
0
0
0
0
0
0
0
0
0
0
0
0
0
0
0
0
0
0
0
0
0
0
0
0
0
0
0
0
0
0
0
0
0
0
0
0
0
0
0
0
0
0
0
0
0
0
0
0
0
0
0
0
0
0
0
0
0
0
0
0
0
0
0
0
0
0
0
0
0
0
0
0
0
0
0
0
0
0
0
0
0
0
0
0
0
0
0
0
0
0
0
0
0
0
0
0
0
0
0
0
0
0
0
0
0
0
0
0
0
0
0
0
0
0
0
0
0
0
0
0
0
0
0
0
0
0
74
11
11
74
11
11
74
11
11
30
4
4
30
4
4
30
4
4
0
0
0
0
0
0
0
0
0
30
17
8
30
17
8
30
17
8
0
0
0
0
0
0
0
0
0
0
0
0
0
0
0
0
0
0
0
0
0
0
0
0
0
0
0
85
85
1
85
85
1
85
85
1
0
0
0
0
0
0
0
0
0
0
0
0
0
0
0
0
0
0
0
0
0
0
0
0
0
0
0
0
0
0
0
0
0
0
0
0
17
84
28
17
84
28
17
84
28
0
0
0
0
0
0
0
0
0
0
0
0
0
0
0
0
0
0
0
0
0
0
0
0
0
0
0
0
0
0
0
0
0
0
0
0
0
0
0
0
0
0
0
0
0
64
8
82
64
8
82
64
8
82
0
0
0
0
0
0
0
0
0
0
0
0
0
0
0
0
0
0
0
0
0
0
0
0
0
0
0
0
0
0
0
0
0
0
0
0
0
0
0
0
0
0
0
0
0
68
10
10
68
10
10
68
10
10
68
10
10
68
10
10
68
10
10
0
0
0
0
0
0
0
0
0
0
0
0
0
0
0
0
0
0
0
0
0
0
0
0
0
0
0
0
0
0
0
0
0
0
0
0
0
0
0
0
0
0
0
0
0
0
0
0
0
0
0
0
0
0
85
85
1
85
85
1
85
85
1
0
0
0
0
0
0
0
0
0
0
0
0
0
0
0
0
0
0
17
84
28
17
84
28
17
84
28
17
84
28
17
84
28
17
84
28
0
0
0
0
0
0
0
0
0
0
0
0
0
0
0
0
0
0
18
36
60
18
36
60
18
36
60
18
36
60
18
36
60
18
36
60
0
0
0
0
0
0
0
0
0
38
5
49
38
5
49
38
5
49
61
8
79
61
8
79
61
8
79
0
0
0
0
0
0
0
0
0
0
0
0
0
0
0
0
0
0
0
0
0
0
0
0
0
0
0
0
0
0
0
0
0
0
0
0
136
20
20
136
20
20
136
20
20
147
21
21
147
21
21
147
21
21
0
0
0
0
0
0
0
0
0
63
35
18
63
35
18
63
35
18
158
90
46
158
90
46
158
90
46
27
15
8
27
15
8
27
15
8
0
0
0
0
0
0
0
0
0
112
114
2
112
114
2
112
114
2
148
150
2
148
150
2
148
150
2
26
27
0
26
27
0
26
27
0
0
0
0
0
0
0
0
0
0
31
150
51
31
150
51
31
150
51
31
153
52
31
153
52
31
153
52
0
0
0
0
0
0
0
0
0
6
13
21
6
13
21
6
13
21
32
63
105
32
63
105
32
63
105
21
42
70
21
42
70
21
42
70
0
0
0
0
0
0
0
0
0
116
15
150
116
15
150
116
15
150
110
14
142
110
14
142
110
14
142
0
0
0
0
0
0
0
0
0
0
0
0
0
0
0
0
0
0
0
0
0
0
0
0
0
0
0
0
0
0
0
0
0
0
0
0
158
23
23
158
23
23
158
23
23
158
23
23
158
23
23
158
23
23
82
12
12
82
12
12
82
12
12
81
46
23
81
46
23
81
46
23
158
90
46
158
90
46
158
90
46
81
46
23
81
46
23
81
46
23
0
0
0
0
0
0
0
0
0
80
81
1
80
81
1
80
81
1
160
162
2
160
162
2
160
162
2
30
31
0
30
31
0
30
31
0
17
83
28
17
83
28
17
83
28
33
162
54
33
162
54
33
162
54
34
164
55
34
164
55
34
164
55
0
0
0
0
0
0
0
0
0
6
13
21
6
13
21
6
13
21
34
68
113
34
68
113
34
68
113
17
34
56
17
34
56
17
34
56
0
0
0
0
0
0
0
0
0
118
15
153
118
15
153
118
15
153
118
15
153
118
15
153
118
15
153
61
8
79
61
8
79
61
8
79
0
0
0
0
0
0
0
0
0
0
0
0
0
0
0
0
0
0
0
0
0
0
0
0
0
0
0
150
22
22
150
22
22
150
22
22
161
23
23
161
23
23
161
23
23
82
12
12
82
12
12
82
12
12
81
46
23
81
46
23
81
46
23
162
92
47
162
92
47
162
92
47
81
46
23
81
46
23
81
46
23
0
0
0
0
0
0
0
0
0
80
81
1
80
81
1
80
81
1
164
166
2
164
166
2
164
166
2
30
31
0
30
31
0
30
31
0
17
83
28
17
83
28
17
83
28
34
167
56
34
167
56
34
167
56
34
167
56
34
167
56
34
167
56
0
0
0
0
0
0
0
0
0
6
13
21
6
13
21
6
13
21
35
70
116
35
70
116
35
70
116
17
35
58
17
35
58
17
35
58
0
0
0
0
0
0
0
0
0
122
16
157
122
16
157
122
16
157
121
16
156
121
16
156
121
16
156
61
8
79
61
8
79
61
8
79
0
0
0
0
0
0
0
0
0
0
0
0
0
0
0
0
0
0
0
0
0
0
0
0
0
0
0
82
12
12
82
12
12
82
12
12
150
22
22
150
22
22
150
22
22
0
0
0
0
0
0
0
0
0
0
0
0
0
0
0
0
0
0
136
77
39
136
77
39
136
77
39
0
0
0
0
0
0
0
0
0
0
0
0
0
0
0
0
0
0
0
0
0
0
0
0
0
0
0
82
84
1
82
84
1
82
84
1
0
0
0
0
0
0
0
0
0
0
0
0
0
0
0
0
0
0
34
168
57
34
168
57
34
168
57
17
83
28
17
83
28
17
83
28
0
0
0
0
0
0
0
0
0
0
0
0
0
0
0
0
0
0
24
48
80
24
48
80
24
48
80
18
36
60
18
36
60
18
36
60
0
0
0
0
0
0
0
0
0
61
8
79
61
8
79
61
8
79
125
16
162
125
16
162
125
16
162
0
0
0
0
0
0
0
0
0
0
0
0
0
0
0
0
0
0
0
0
0
0
0
0
0
0
0
0
0
0
0
0
0
0
0
0
0
0
0
0
0
0
0
0
0
0
0
0
0
0
0
0
0
0
0
0
0
0
0
0
0
0
0
0
0
0
0
0
0
0
0
0
0
0
0
0
0
0
0
0
0
0
0
0
0
0
0
0
0
0
0
0
0
0
0
0
0
0
0
0
0
0
0
0
0
0
0
0
0
0
0
0
0
0
0
0
0
0
0
0
0
0
0
0
0
0
0
0
0
0
0
0
0
0
0
0
0
0
0
0
0
0
0
0
0
0
0
0
0
0
0
0
0
0
0
0
0
0
0
0
0
0
0
0
0
0
0
0
0
0
0
0
0
0
0
0
0
0
0
0
0
0
0
0
0
0
0
0
0
0
0
0
0
0
0
0
0
0
0
0
0
0
0
0
0
0
0
0
0
0
0
0
0
0
0
0
0
0
0
0
0
0
0
0
0
0
0
0
0
0
0
0
0
0
0
0
0
0
0
0
0
0
0
0
0
0
0
0
0
0
0
0
102
15
15
102
15
15
102
15
15
102
15
15
102
15
15
102
15
15
0
0
0
0
0
0
0
0
0
19
11
5
19
11
5
19
11
5
102
58
30
102
58
30
102
58
30
51
29
15
51
29
15
51
29
15
0
0
0
0
0
0
0
0
0
104
105
2
104
105
2
104
105
2
104
105
2
104
105
2
104
105
2
0
0
0
0
0
0
0
0
0
0
0
0
0
0
0
0
0
0
21
105
35
21
105
35
21
105
35
21
105
35
21
105
35
21
105
35
0
0
0
0
0
0
0
0
0
9
19
31
9
19
31
9
19
31
22
44
73
22
44
73
22
44
73
11
22
36
11
22
36
11
22
36
0
0
0
0
0
0
0
0
0
77
10
100
77
10
100
77
10
100
76
10
99
76
10
99
76
10
99
0
0
0
0
0
0
0
0
0
0
0
0
0
0
0
0
0
0
0
0
0
0
0
0
0
0
0
0
0
0
0
0
0
0
0
0
158
23
23
158
23
23
158
23
23
158
23
23
158
23
23
158
23
23
0
0
0
0
0
0
0
0
0
132
75
38
132
75
38
132
75
38
158
90
46
158
90
46
158
90
46
160
91
46
160
91
46
160
91
46
0
0
0
0
0
0
0
0
0
160
162
2
160
162
2
160
162
2
160
162
2
160
162
2
160
162
2
71
72
1
71
72
1
71
72
1
0
0
0
0
0
0
0
0
0
33
162
54
33
162
54
33
162
54
33
162
54
33
162
54
33
162
54
0
0
0
0
0
0
0
0
0
17
34
56
17
34
56
17
34
56
34
68
113
34
68
113
34
68
113
35
70
117
35
70
117
35
70
117
0
0
0
0
0
0
0
0
0
118
15
153
118
15
153
118
15
153
118
15
153
118
15
153
118
15
153
64
8
82
64
8
82
64
8
82
0
0
0
0
0
0
0
0
0
0
0
0
0
0
0
0
0
0
82
12
12
82
12
12
82
12
12
52
8
8
52
8
8
52
8
8
26
4
4
26
4
4
26
4
4
82
12
12
82
12
12
82
12
12
158
90
46
158
90
46
158
90
46
128
73
37
128
73
37
128
73
37
160
91
46
160
91
46
160
91
46
0
0
0
0
0
0
0
0
0
82
83
1
82
83
1
82
83
1
82
83
1
82
83
1
82
83
1
80
81
1
80
81
1
80
81
1
16
81
27
16
81
27
16
81
27
0
0
0
0
0
0
0
0
0
0
0
0
0
0
0
0
0
0
17
84
28
17
84
28
17
84
28
35
69
114
35
69
114
35
69
114
17
34
56
17
34
56
17
34
56
17
34
56
17
34
56
17
34
56
0
0
0
0
0
0
0
0
0
59
7
76
59
7
76
59
7
76
61
8
79
61
8
79
61
8
79
97
12
126
97
12
126
97
12
126
0
0
0
0
0
0
0
0
0
0
0
0
0
0
0
0
0
0
51
7
7
51
7
7
51
7
7
148
22
22
148
22
22
148
22
22
153
22
22
153
22
22
153
22
22
51
7
7
51
7
7
51
7
7
102
58
30
102
58
30
102
58
30
119
68
34
119
68
34
119
68
34
102
58
30
102
58
30
102
58
30
0
0
0
0
0
0
0
0
0
132
134
2
132
134
2
132
134
2
132
134
2
132
134
2
132
134
2
52
52
1
52
52
1
52
52
1
10
52
17
10
52
17
10
52
17
34
164
55
34
164
55
34
164
55
34
167
56
34
167
56
34
167
56
10
52
17
10
52
17
10
52
17
22
44
73
22
44
73
22
44
73
29
57
94
29
57
94
29
57
94
29
57
94
29
57
94
29
57
94
0
0
0
0
0
0
0
0
0
97
12
126
97
12
126
97
12
126
97
12
126
97
12
126
97
12
126
61
8
78
61
8
78
61
8
78
0
0
0
0
0
0
0
0
0
0
0
0
0
0
0
0
0
0
0
0
0
0
0
0
0
0
0
112
16
16
112
16
16
112
16
16
82
12
12
82
12
12
82
12
12
0
0
0
0
0
0
0
0
0
27
15
8
27
15
8
27
15
8
136
77
39
136
77
39
136
77
39
84
48
24
84
48
24
84
48
24
0
0
0
0
0
0
0
0
0
170
170
2
170
170
2
170
170
2
170
170
2
170
170
2
170
170
2
0
0
0
0
0
0
0
0
0
0
0
0
0
0
0
0
0
0
17
84
28
17
84
28
17
84
28
17
84
28
17
84
28
17
84
28
0
0
0
0
0
0
0
0
0
14
29
48
14
29
48
14
29
48
17
35
58
17
35
58
17
35
58
17
35
58
17
35
58
17
35
58
0
0
0
0
0
0
0
0
0
103
13
133
103
13
133
103
13
133
64
8
82
64
8
82
64
8
82
0
0
0
0
0
0
0
0
0
0
0
0
0
0
0
0
0
0
0
0
0
0
0
0
0
0
0
85
12
12
85
12
12
85
12
12
0
0
0
0
0
0
0
0
0
0
0
0
0
0
0
0
0
0
85
12
12
85
12
12
85
12
12
149
85
43
149
85
43
149
85
43
0
0
0
0
0
0
0
0
0
84
48
24
84
48
24
84
48
24
0
0
0
0
0
0
0
0
0
0
0
0
0
0
0
0
0
0
0
0
0
0
0
0
0
0
0
82
84
1
82
84
1
82
84
1
17
83
28
17
83
28
17
83
28
0
0
0
0
0
0
0
0
0
0
0
0
0
0
0
0
0
0
17
84
28
17
84
28
17
84
28
25
49
83
25
49
83
25
49
83
0
0
0
0
0
0
0
0
0
17
35
58
17
35
58
17
35
58
0
0
0
0
0
0
0
0
0
0
0
0
0
0
0
0
0
0
0
0
0
0
0
0
0
0
0
100
13
130
100
13
130
100
13
130
0
0
0
0
0
0
0
0
0
0
0
0
0
0
0
0
0
0
0
0
0
0
0
0
0
0
0
0
0
0
0
0
0
0
0
0
0
0
0
0
0
0
0
0
0
0
0
0
0
0
0
0
0
0
0
0
0
0
0
0
0
0
0
0
0
0
0
0
0
0
0
0
0
0
0
0
0
0
0
0
0
0
0
0
0
0
0
0
0
0
0
0
0
0
0
0
0
0
0
0
0
0
0
0
0
0
0
0
0
0
0
0
0
0
0
0
0
0
0
0
0
0
0
0
0
0
0
0
0
0
0
0
0
0
0
0
0
0
0
0
0
0
0
0
0
0
0
0
0
0
0
0
0
0
0
0
0
0
0
0
0
0
0
0
0
0
0
0
0
0
0
0
0
0
0
0
0
0
0
0
0
0
0
0
0
0
0
0
0
0
0
0
0
0
0
0
0
0
0
0
0
0
0
0
0
0
0
0
0
0
0
0
0
0
0
0
0
0
0
0
0
0
0
0
0
0
0
0
0
0
0
0
0
0
0
0
0
0
0
0
0
0
0
164
24
24
164
24
24
164
24
24
164
24
24
164
24
24
164
24
24
0
0
0
0
0
0
0
0
0
30
17
8
30
17
8
30
17
8
162
92
47
162
92
47
162
92
47
84
48
24
84
48
24
84
48
24
0
0
0
0
0
0
0
0
0
167
169
2
167
169
2
167
169
2
165
168
2
165
168
2
165
168
2
0
0
0
0
0
0
0
0
0
0
0
0
0
0
0
0
0
0
34
167
56
34
167
56
34
167
56
34
167
56
34
167
56
34
167
56
0
0
0
0
0
0
0
0
0
14
29
48
14
29
48
14
29
48
35
70
116
35
70
116
35
70
116
17
35
58
17
35
58
17
35
58
0
0
0
0
0
0
0
0
0
125
16
162
125
16
162
125
16
162
122
16
158
122
16
158
122
16
158
0
0
0
0
0
0
0
0
0
0
0
0
0
0
0
0
0
0
0
0
0
0
0
0
0
0
0
68
10
10
68
10
10
68
10
10
86
12
12
86
12
12
86
12
12
73
10
10
73
10
10
73
10
10
68
10
10
68
10
10
68
10
10
153
87
44
153
87
44
153
87
44
137
78
39
137
78
39
137
78
39
160
91
46
160
91
46
160
91
46
0
0
0
0
0
0
0
0
0
110
112
2
110
112
2
110
112
2
110
112
2
110
112
2
110
112
2
80
81
1
80
81
1
80
81
1
14
69
23
14
69
23
14
69
23
12
57
19
12
57
19
12
57
19
11
53
18
11
53
18
11
53
18
15
72
24
15
72
24
15
72
24
32
63
105
32
63
105
32
63
105
21
42
70
21
42
70
21
42
70
21
42
70
21
42
70
21
42
70
0
0
0
0
0
0
0
0
0
82
10
105
82
10
105
82
10
105
83
11
107
83
11
107
83
11
107
92
12
119
92
12
119
92
12
119
0
0
0
0
0
0
0
0
0
0
0
0
0
0
0
0
0
0
82
12
12
82
12
12
82
12
12
164
24
24
164
24
24
164
24
24
164
24
24
164
24
24
164
24
24
82
12
12
82
12
12
82
12
12
162
92
47
162
92
47
162
92
47
162
92
47
162
92
47
162
92
47
162
92
47
162
92
47
162
92
47
0
0
0
0
0
0
0
0
0
164
166
2
164
166
2
164
166
2
164
166
2
164
166
2
164
166
2
82
83
1
82
83
1
82
83
1
16
81
27
16
81
27
16
81
27
34
167
56
34
167
56
34
167
56
34
167
56
34
167
56
34
167
56
17
84
28
17
84
28
17
84
28
35
70
116
35
70
116
35
70
116
35
70
116
35
70
116
35
70
116
35
70
116
35
70
116
35
70
116
0
0
0
0
0
0
0
0
0
121
16
156
121
16
156
121
16
156
121
16
156
121
16
156
121
16
156
100
13
129
100
13
129
100
13
129
0
0
0
0
0
0
0
0
0
0
0
0
0
0
0
0
0
0
0
0
0
0
0
0
0
0
0
136
20
20
136
20
20
136
20
20
153
22
22
153
22
22
153
22
22
0
0
0
0
0
0
0
0
0
0
0
0
0
0
0
0
0
0
51
29
15
51
29
15
51
29
15
0
0
0
0
0
0
0
0
0
0
0
0
0
0
0
0
0
0
80
81
1
80
81
1
80
81
1
80
81
1
80
81
1
80
81
1
0
0
0
0
0
0
0
0
0
0
0
0
0
0
0
0
0
0
34
168
57
34
168
57
34
168
57
34
168
57
34
168
57
34
168
57
0
0
0
0
0
0
0
0
0
0
0
0
0
0
0
0
0
0
18
36
60
18
36
60
18
36
60
17
35
58
17
35
58
17
35
58
0
0
0
0
0
0
0
0
0
60
8
78
60
8
78
60
8
78
64
8
82
64
8
82
64
8
82
0
0
0
0
0
0
0
0
0
0
0
0
0
0
0
0
0
0
0
0
0
0
0
0
0
0
0
68
10
10
68
10
10
68
10
10
41
6
6
41
6
6
41
6
6
30
4
4
30
4
4
30
4
4
68
10
10
68
10
10
68
10
10
126
72
36
126
72
36
126
72
36
49
28
14
49
28
14
49
28
14
98
56
28
98
56
28
98
56
28
0
0
0
0
0
0
0
0
0
60
62
1
60
62
1
60
62
1
60
62
1
60
62
1
60
62
1
68
69
1
68
69
1
68
69
1
14
69
23
14
69
23
14
69
23
6
30
10
6
30
10
6
30
10
6
30
10
6
30
10
6
30
10
15
72
24
15
72
24
15
72
24
24
48
80
24
48
80
24
48
80
6
13
21
6
13
21
6
13
21
21
42
70
21
42
70
21
42
70
0
0
0
0
0
0
0
0
0
34
4
44
34
4
44
34
4
44
22
3
29
22
3
29
22
3
29
84
11
108
84
11
108
84
11
108
0
0
0
0
0
0
0
0
0
0
0
0
0
0
0
0
0
0
0
0
0
0
0
0
0
0
0
0
0
0
0
0
0
0
0
0
0
0
0
0
0
0
0
0
0
0
0
0
0
0
0
0
0
0
0
0
0
0
0
0
0
0
0
0
0
0
0
0
0
0
0
0
0
0
0
0
0
0
0
0
0
0
0
0
0
0
0
0
0
0
0
0
0
0
0
0
0
0
0
0
0
0
0
0
0
0
0
0
0
0
0
0
0
0
0
0
0
0
0
0
0
0
0
0
0
0
0
0
0
0
0
0
0
0
0
0
0
0
0
0
0
0
0
0
0
0
0
0
0
0
0
0
0
0
0
0
0
0
0
0
0
0
0
0
0
0
0
0
0
0
0
0
0
0
0
0
0
0
0
0
0
0
0
0
0
0
0
0
0
0
0
0
0
0
0
0
0
0
0
0
0
0
0
0
0
0
0
0
0
0
0
0
0
0
0
0
0
0
0
0
0
0
0
0
0
0
0
0
0
0
0
0
0
0
0
0
0
0
0
0
0
0
0
0
0
0
0
0
0
0
0
0
0
0
0
0
0
0
0
0
0
0
0
0
0
0
0
0
0
0
0
0
0
0
0
0
0
0
0
0
0
0
0
0
0
0
0
0
0
0
0
0
0
0
0
0
0
0
0
0
0
0
0
0
0
0
0
0
0
0
0
0
0
0
0
0
0
0
0
0
0
0
0
0
0
0
0
0
0
0
0
0
0
0
0
0
0
0
0
0
0
0
0
0
0
0
0
0
0
0
0
0
0
0
0
0
0
0
0
0
0
0
0
0
0
0
0
0
0
0
0
0
0
0
0
0
0
0
0
0
0
0
0
0
0
0
0
0
0
0
0
0
0
0
0
0
0
0
0
0
0
0
0
0
0
0
0
0
0
0
0
0
0
0
0
0
0
0
0
0
0
0
0
0
0
0
0
0
0
0
0
0
0
0
0
0
0
0
0
0
0
0
0
0
0
0
0
0
0
0
0
0
0
0
0
0
0
0
0
0
0
0
0
0
0
0
0
0
0
0
0
0
0
0
0
0
0
0
0
0
0
0
0
0
0
0
0
0
0
0
0
0
0
0
0
0
0
0
0
0
0
0
0
0
0
0
0
0
0
0
0
0
0
0
0
0
0
0
0
0
0
0
0
0
0
0
0
0
0
0
0
0
0
0
0
0
0
0
0
0
0
0
0
0
0
0
0
0
0
0
0
0
0
0
0
0
0
0
0
0
0
0
0
0
0
0
0
0
0
0
0
0
0
0
0
0
0
0
0
0
0
0
0
0
0
0
0
0
0
0
0
0
0
0
0
0
0
0
0
0
0
0
0
0
0
0
0
0
0
0
0
0
0
0
0
0
0
0
0
0
0
0
0
0
0
0
0
0
0
0
0
0
0
0
0
0
0
0
0
0
0
0
0
0
0
0
0
0
0
0
0
0
0
0
0
0
0
0
0
0
0
0
0
0
0
0
0
0
0
0
0
0
0
0
0
0
0
0
0
0
0
0
0
0
0
0
0
0
0
0
0
0
0
0
0
0
0
0
0
0
0
0
0
0
0
0
0
0
0
0
0
0
0
0
0
0
0
0
0
0
0
0
0
0
0
0
0
0
0
0
0
0
0
0
0
0
0
0
0
0
0
0
0
0
0
0
0
0
0
0
0
0
0
0
0
0
0
0
0
0
0
0
0
0
0
0
0
0
0
0
0
0
0
0
0
0
0
0
0
0
0
0
0
0
0
0
0
0
0
0
0
0
0
0
0
0
0
0
0
0
0
0
0
0
0
0
0
0
0
0
0
0
0
0
0
0
0
0
0
0
0
0
0
0
0
0
0
0
0
0
0
0
0
0
0
0
0
0
0
0
0
0
0
0
0
0
0
0
0
0
0
0
0
0
0
0
0
0
0
0
0
0
0
0
0
0
0
0
0
0
0
0
0
0
0
0
0
0
0
0
0
0
0
0
0
0
0
0
0
0
0
0
0
0
0
0
0
0
0
0
0
0
0
0
0
0
0
0
0
0
0
0
0
0
0
0
0
0
0
0
0
0
0
0
0
0
0
0
0
0
0
0
0
0
0
0
0
0
0
0
0
0
0
0
0
0
0
0
0
0
0
0
0
0
0
0
0
0
0
0
0
0
0
0
0
0
0
0
0
0
0
0
0
0
0
0
0
0
0
0
0
0
0
0
0
0
0
0
0
0
0
0
0
0
0
0
0
0
0
0
0
0
0
0
0
0
0
0
0
0
0
0
0
0
0
0
0
0
0
0
0
0
0
0
0
0
0
0
0
0
0
0
0
0
0
0
0
0
0
0
0
0
0
0
0
0
0
0
0
0
0
0
0
0
0
0
0
0
0
0
0
0
0
0
0
0
0
0
0
0
0
0
0
0
0
0
0
0
0
0
0
0
0
0
0
0
0
0
0
0
0
0
0
0
0
0
0
0
0
0
0
0
0
0
0
0
0
0
0
0
0
0
0
0
0
0
0
0
0
0
0
0
0
0
0
0
0
0
0
0
0
0
0
0
0
0
0
0
0
0
0
0
0
0
0
0
0
0
0
0
0
0
0
0
0
0
0
0
0
0
0
0
0
0
0
0
0
0
0
0
0
0
0
0
0
0
0
0
0
0
0
0
0
0
0
0
0
0
8
53
115
8
53
115
8
53
115
19
83
165
19
83
165
19
83
165
0
0
0
0
0
0
0
0
0
0
0
0
0
0
0
0
0
0
0
0
0
0
0
0
0
0
0
0
0
0
0
0
0
0
0
0
0
0
0
0
0
0
0
0
0
0
0
0
0
0
0
0
0
0
0
0
0
0
0
0
0
0
0
0
0
0
0
0
0
0
0
0
0
0
0
0
0
0
0
0
0
0
0
0
0
0
0
0
0
0
0
0
0
0
0
0
0
0
0
0
0
0
0
0
0
0
0
0
0
0
0
0
0
0
0
0
0
0
0
0
0
0
0
0
0
0
0
0
0
0
0
0
0
0
0
0
0
0
0
0
0
0
0
0
0
0
0
0
0
0
0
0
0
0
0
0
0
0
0
0
0
0
0
0
0
0
0
0
0
0
0
0
0
0
0
0
0
0
0
0
0
0
0
0
0
0
0
0
0
0
0
0
0
0
0
0
0
0
70
154
32
70
154
32
70
154
32
23
89
158
23
89
158
23
89
158
0
0
0
0
0
0
0
0
0
0
0
0
0
0
0
0
0
0
0
0
0
0
0
0
0
0
0
0
0
0
0
0
0
0
0
0
0
0
0
0
0
0
0
0
0
0
0
0
0
0
0
0
0
0
0
0
0
0
0
0
0
0
0
0
0
0
0
0
0
0
0
0
0
0
0
0
0
0
0
0
0
0
0
0
0
0
0
0
0
0
0
0
0
0
0
0
0
0
0
0
0
0
0
0
0
0
0
0
0
0
0
0
0
0
0
0
0
0
0
0
0
0
0
0
0
0
0
0
0
0
0
0
0
0
0
0
0
0
0
0
0
0
0
0
0
0
0
0
0
0
0
0
0
0
0
0
0
0
0
0
0
0
0
0
0
0
0
0
0
0
0
0
0
0
0
0
0
0
0
0
0
0
0
0
0
0
0
0
0
37
81
0
37
81
0
37
81
0
20
87
158
20
87
158
20
87
158
20
84
164
20
84
164
20
84
164
10
42
82
10
42
82
10
42
82
0
0
0
0
0
0
0
0
0
0
0
0
0
0
0
0
0
0
0
0
0
0
0
0
0
0
0
0
0
0
0
0
0
0
0
0
0
0
0
0
0
0
0
0
0
0
0
0
0
0
0
0
0
0
0
0
0
0
0
0
0
0
0
0
0
0
0
0
0
0
0
0
0
0
0
0
0
0
0
0
0
0
0
0
0
0
0
0
0
0
0
0
0
0
0
0
0
0
0
0
0
0
0
0
0
0
0
0
0
0
0
0
0
0
0
0
0
0
0
0
0
0
0
0
0
0
0
0
0
0
0
0
0
0
0
0
0
0
0
0
0
0
0
0
0
0
0
0
0
0
0
0
0
0
0
0
0
0
0
0
0
0
0
0
0
0
0
0
0
0
0
0
0
0
0
0
0
0
0
0
60
132
12
60
132
12
60
132
12
33
101
142
33
101
142
33
101
142
50
127
84
50
127
84
50
127
84
62
143
55
62
143
55
62
143
55
0
0
0
0
0
0
0
0
0
0
0
0
0
0
0
0
0
0
0
0
0
0
0
0
0
0
0
0
0
0
0
0
0
0
0
0
0
0
0
0
0
0
0
0
0
0
0
0
0
0
0
0
0
0
0
0
0
0
0
0
0
0
0
0
0
0
0
0
0
0
0
0
0
0
0
0
0
0
0
0
0
0
0
0
0
0
0
0
0
0
0
0
0
0
0
0
0
0
0
0
0
0
0
0
0
0
0
0
0
0
0
0
0
0
0
0
0
0
0
0
0
0
0
0
0
0
0
0
0
0
0
0
0
0
0
0
0
0
0
0
0
0
0
0
0
0
0
0
0
0
0
0
0
0
0
0
0
0
0
0
0
0
0
0
0
0
0
0
0
0
0
0
0
0
0
0
0
0
0
0
74
161
7
74
161
7
74
161
7
20
84
164
20
84
164
20
84
164
54
131
78
54
131
78
54
131
78
73
160
15
73
160
15
73
160
15
0
0
0
0
0
0
0
0
0
0
0
0
0
0
0
0
0
0
0
0
0
0
0
0
0
0
0
0
0
0
0
0
0
0
0
0
0
0
0
0
0
0
0
0
0
0
0
0
0
0
0
0
0
0
0
0
0
0
0
0
0
0
0
0
0
0
0
0
0
0
0
0
0
0
0
0
0
0
0
0
0
0
0
0
0
0
0
0
0
0
0
0
0
0
0
0
0
0
0
0
0
0
0
0
0
0
0
0
0
0
0
0
0
0
0
0
0
0
0
0
0
0
0
0
0
0
0
0
0
0
0
0
0
0
0
0
0
0
0
0
0
0
0
0
0
0
0
0
0
0
0
0
0
0
0
0
0
0
0
0
0
0
0
0
0
0
0
0
0
0
0
0
0
0
0
0
0
0
0
0
75
163
0
75
163
0
75
163
0
20
84
164
20
84
164
20
84
164
54
131
78
54
131
78
54
131
78
73
160
15
73
160
15
73
160
15
0
0
0
0
0
0
0
0
0
0
0
0
0
0
0
0
0
0
0
0
0
0
0
0
0
0
0
0
0
0
0
0
0
0
0
0
0
0
0
0
0
0
0
0
0
0
0
0
0
0
0
0
0
0
0
0
0
0
0
0
0
0
0
0
0
0
0
0
0
0
0
0
0
0
0
0
0
0
0
0
0
0
0
0
0
0
0
0
0
0
0
0
0
0
0
0
0
0
0
0
0
0
0
0
0
0
0
0
0
0
0
0
0
0
0
0
0
0
0
0
0
0
0
0
0
0
0
0
0
0
0
0
0
0
0
0
0
0
0
0
0
0
0
0
0
0
0
0
0
0
0
0
0
0
0
0
0
0
0
0
0
0
0
0
0
0
0
0
0
0
0
0
0
0
0
0
0
0
0
0
46
123
83
46
123
83
46
123
83
20
84
164
20
84
164
20
84
164
55
133
71
55
133
71
55
133
71
73
160
15
73
160
15
73
160
15
0
0
0
0
0
0
0
0
0
0
0
0
0
0
0
0
0
0
0
0
0
0
0
0
0
0
0
0
0
0
0
0
0
0
0
0
0
0
0
0
0
0
0
0
0
0
0
0
0
0
0
0
0
0
0
0
0
0
0
0
0
0
0
0
0
0
0
0
0
0
0
0
0
0
0
0
0
0
0
0
0
0
0
0
0
0
0
0
0
0
0
0
0
0
0
0
0
0
0
0
0
0
0
0
0
0
0
0
0
0
0
0
0
0
0
0
0
0
0
0
0
0
0
0
0
0
0
0
0
0
0
0
0
0
0
0
0
0
0
0
0
0
0
0
0
0
0
0
0
0
0
0
0
0
0
0
0
0
0
0
0
0
0
0
0
0
0
0
0
0
0
0
0
0
0
0
0
0
0
0
47
124
82
47
124
82
47
124
82
19
83
165
19
83
165
19
83
165
20
84
164
20
84
164
20
84
164
74
161
7
74
161
7
74
161
7
0
0
0
0
0
0
0
0
0
0
0
0
0
0
0
0
0
0
0
0
0
0
0
0
0
0
0
0
0
0
0
0
0
0
0
0
0
0
0
0
0
0
0
0
0
0
0
0
0
0
0
0
0
0
0
0
0
0
0
0
0
0
0
0
0
0
0
0
0
0
0
0
0
0
0
0
0
0
0
0
0
0
0
0
0
0
0
0
0
0
0
0
0
0
0
0
0
0
0
0
0
0
0
0
0
0
0
0
0
0
0
0
0
0
0
0
0
0
0
0
0
0
0
0
0
0
0
0
0
0
0
0
0
0
0
0
0
0
0
0
0
0
0
0
0
0
0
0
0
0
0
0
0
0
0
0
0
0
0
0
0
0
0
0
0
0
0
0
0
0
0
0
0
0
0
0
0
0
0
0
10
42
82
10
42
82
10
42
82
39
112
117
39
112
117
39
112
117
42
115
114
42
115
114
42
115
114
75
163
0
75
163
0
75
163
0
0
0
0
0
0
0
0
0
0
0
0
0
0
0
0
0
0
0
0
0
0
0
0
0
0
0
0
0
0
0
0
0
0
0
0
0
0
0
0
0
0
0
0
0
0
0
0
0
0
0
0
0
0
0
0
0
0
0
0
0
0
0
0
0
0
0
0
0
0
0
0
0
0
0
0
0
0
0
0
0
0
0
0
0
0
0
0
0
0
0
0
0
0
0
0
0
0
0
0
0
0
0
0
0
0
0
0
0
0
0
0
0
0
0
0
0
0
0
0
0
0
0
0
0
0
0
0
0
0
0
0
0
0
0
0
0
0
0
0
0
0
0
0
0
0
0
0
0
0
0
0
0
0
0
0
0
0
0
0
0
0
0
0
0
0
0
0
0
0
0
0
0
0
0
0
0
0
0
0
0
6
28
55
6
28
55
6
28
55
54
131
78
54
131
78
54
131
78
44
119
104
44
119
104
44
119
104
23
52
5
23
52
5
23
52
5
0
0
0
0
0
0
0
0
0
0
0
0
0
0
0
0
0
0
0
0
0
0
0
0
0
0
0
0
0
0
0
0
0
0
0
0
0
0
0
0
0
0
0
0
0
0
0
0
0
0
0
0
0
0
0
0
0
0
0
0
0
0
0
0
0
0
0
0
0
0
0
0
0
0
0
0
0
0
0
0
0
0
0
0
0
0
0
0
0
0
0
0
0
0
0
0
0
0
0
0
0
0
0
0
0
0
0
0
0
0
0
0
0
0
0
0
0
0
0
0
0
0
0
0
0
0
0
0
0
0
0
0
0
0
0
0
0
0
0
0
0
0
0
0
0
0
0
0
0
0
0
0
0
0
0
0
0
0
0
0
0
0
0
0
0
0
0
0
0
0
0
0
0
0
0
0
0
0
0
0
0
0
0
0
0
0
0
0
0
54
131
78
54
131
78
54
131
78
74
161
7
74
161
7
74
161
7
0
0
0
0
0
0
0
0
0
0
0
0
0
0
0
0
0
0
0
0
0
0
0
0
0
0
0
0
0
0
0
0
0
0
0
0
0
0
0
0
0
0
0
0
0
0
0
0
0
0
0
0
0
0
0
0
0
0
0
0
0
0
0
0
0
0
0
0
0
0
0
0
0
0
0
0
0
0
0
0
0
0
0
0
0
0
0
0
0
0
0
0
0
0
0
0
0
0
0
0
0
0
0
0
0
0
0
0
0
0
0
0
0
0
0
0
0
0
0
0
0
0
0
0
0
0
0
0
0
0
0
0
0
0
0
0
0
0
0
0
0
0
0
0
0
0
0
0
0
0
0
0
0
0
0
0
0
0
0
0
0
0
0
0
0
0
0
0
0
0
0
0
0
0
0
0
0
0
0
0
0
0
0
0
0
0
0
0
0
0
0
0
0
0
0
0
0
0
16
41
7
16
41
7
16
41
7
28
60
6
28
60
6
28
60
6
0
0
0
0
0
0
0
0
0
0
0
0
0
0
0
0
0
0
0
0
0
0
0
0
0
0
0
0
0
0
0
0
0
0
0
0
0
0
0
0
0
0
0
0
0
0
0
0
0
0
0
0
0
0
0
0
0
0
0
0
0
0
0
0
0
0
0
0
0
0
0
0
0
0
0
0
0
0
0
0
0
0
0
0
0
0
0
0
0
0
0
0
0
0
0
0
0
0
0
0
0
0
0
0
0
0
0
0
0
0
0
0
0
0
0
0
0
0
0
0
0
0
0
0
0
0
0
0
0
0
0
0
0
0
0
0
0
0
0
0
0
0
0
0
0
0
0
0
0
0
0
0
0
0
0
0
0
0
0
0
0
0
0
0
0
0
0
0
0
0
0
0
0
0
0
0
0
0
0
0
0
0
0
0
0
0
0
0
0
0
0
0
0
0
0
0
0
0
0
0
0
0
0
0
0
0
0
0
0
0
0
0
0
0
0
0
0
0
0
0
0
0
0
0
0
0
0
0
0
0
0
0
0
0
0
0
0
0
0
0
0
0
0
0
0
0
0
0
0
0
0
0
0
0
0
0
0
0
0
0
0
0
0
0
0
0
0
0
0
0
0
0
0
0
0
0
0
0
0
0
0
0
0
0
0
0
0
0
0
0
0
0
0
0
0
0
0
0
0
0
0
0
0
0
0
0
0
0
0
0
0
0
0
0
0
0
0
0
0
0
0
0
0
0
0
0
0
0
0
0
0
0
0
0
0
0
0
0
0
0
0
0
0
0
0
0
0
0
0
0
0
0
0
0
0
0
0
0
0
0
0
0
0
0
0
0
0
0
0
0
0
0
0
0
0
0
0
0
0
0
0
0
0
0
0
0
0
0
0
0
0
0
0
0
0
0
0
0
0
0
0
0
0
0
0
0
0
0
0
0
0
0
0
0
0
0
0
0
0
0
0
0
0
0
0
0
0
0
0
0
0
0
0
0
0
0
0
0
0
0
0
0
0
0
0
0
0
0
0
0
0
0
0
0
0
0
0
0
0
0
0
0
0
0
0
0
0
0
0
0
0
0
0
0
0
0
0
0
0
0
0
0
0
0
0
0
0
0
0
0
0
0
0
0
0
0
0
0
0
0
0
0
0
0
0
0
0
0
0
0
0
0
0
0
0
0
0
0
0
0
0
0
0
0
0
0
0
0
0
0
0
