P3
72 72
255
0
0
0
0
0
0
0
0
0
0
0
0
0
0
0
0
0
0
0
0
0
0
0
0
0
0
0
0
0
0
0
0
0
0
0
0
0
0
0
0
0
0
0
0
0
0
0
0
0
0
0
0
0
0
0
0
0
0
0
0
0
0
0
0
0
0
0
0
0
0
0
0
0
0
0
0
0
0
0
0
0
0
0
0
0
0
0
0
0
0
0
0
0
0
0
0
0
0
0
0
0
0
0
0
0
0
0
0
0
0
0
0
0
0
0
0
0
0
0
0
0
0
0
0
0
0
0
0
0
0
0
0
0
0
0
0
0
0
0
0
0
0
0
0
0
0
0
0
0
0
0
0
0
0
0
0
0
0
0
0
0
0
0
0
0
0
0
0
0
0
0
0
0
0
0
0
0
0
0
0
0
0
0
0
0
0
0
0
0
0
0
0
0
0
0
0
0
0
0
0
0
0
0
0
0
0
0
0
0
0
0
0
0
0
0
0
0
0
0
0
0
0
0
0
0
0
0
0
0
0
0
0
0
0
0
0
0
0
0
0
0
0
0
0
0
0
0
0
0
0
0
0
0
0
0
0
0
0
0
0
0
0
0
0
0
0
0
0
0
0
0
0
0
0
0
0
0
0
0
0
0
0
0
0
0
0
0
0
0
0
0
0
0
0
0
0
0
0
0
0
0
0
0
0
0
0
0
0
0
0
0
0
0
0
0
0
0
0
0
0
0
0
0
0
0
0
0
0
0
0
0
0
0
0
0
0
0
0
0
0
0
0
0
0
0
0
0
0
0
0
0
91
93
2
246
250
4
239
194
44
238
136
69
238
136
69
238
136
69
244
139
71
254
145
73
0
0
0
0
0
0
0
0
0
0
0
0
0
0
0
0
0
0
0
0
0
0
0
0
0
0
0
0
0
0
0
0
0
0
0
0
0
0
0
0
0
0
0
0
0
0
0
0
0
0
0
0
0
0
0
0
0
0
0
0
0
0
0
0
0
0
0
0
0
0
0
0
0
0
0
0
0
0
0
0
0
0
0
0
0
0
0
0
0
0
0
0
0
0
0
0
0
0
0
0
0
0
0
0
0
0
0
0
0
0
0
0
0
0
0
0
0
0
0
0
0
0
0
0
0
0
0
0
0
0
0
0
0
0
0
0
0
0
0
0
0
0
0
0
0
0
0
0
0
0
0
0
0
0
0
0
0
0
0
0
0
0
0
0
0
0
0
0
0
0
0
0
0
0
0
0
0
0
0
0
0
0
0
0
0
0
0
0
0
0
0
0
246
250
4
240
244
4
239
194
44
244
139
71
238
136
69
254
145
73
238
136
69
254
145
73
147
84
43
0
0
0
0
0
0
0
0
0
0
0
0
0
0
0
0
0
0
0
0
0
0
0
0
0
0
0
0
0
0
0
0
0
0
0
0
0
0
0
0
0
0
0
0
0
0
0
0
0
0
0
0
0
0
0
0
0
0
0
0
0
0
0
0
0
0
0
0
0
0
0
0
0
0
0
0
0
0
0
0
0
0
0
0
0
0
0
0
0
0
0
0
0
0
0
0
0
0
0
0
0
0
0
0
0
0
0
0
0
0
0
0
0
0
0
0
0
0
0
0
0
0
0
0
0
0
0
0
0
0
0
0
0
0
0
0
0
0
0
0
0
0
0
0
0
0
0
0
0
0
0
0
0
0
0
0
0
0
0
0
0
0
0
0
0
0
0
0
0
0
0
0
0
0
0
0
0
0
0
0
0
0
0
214
217
4
240
244
4
240
244
4
246
250
4
239
194
44
205
117
59
238
136
69
205
117
59
238
136
69
205
117
59
238
136
69
205
117
59
0
0
0
0
0
0
0
0
0
0
0
0
0
0
0
0
0
0
0
0
0
0
0
0
0
0
0
0
0
0
0
0
0
0
0
0
0
0
0
0
0
0
0
0
0
0
0
0
0
0
0
0
0
0
0
0
0
0
0
0
0
0
0
0
0
0
0
0
0
0
0
0
0
0
0
0
0
0
0
0
0
0
0
0
0
0
0
0
0
0
0
0
0
0
0
0
0
0
0
0
0
0
0
0
0
0
0
0
0
0
0
0
0
0
0
0
0
0
0
0
0
0
0
0
0
0
0
0
0
0
0
0
0
0
0
0
0
0
0
0
0
0
0
0
0
0
0
0
0
0
0
0
0
0
0
0
0
0
0
0
0
0
0
0
0
0
0
0
0
0
0
0
0
0
0
0
0
0
0
0
0
0
0
0
0
0
240
244
4
246
250
4
0
0
0
83
47
24
254
145
73
0
0
0
254
145
73
238
136
69
154
88
45
0
0
0
0
0
0
0
0
0
0
0
0
0
0
0
0
0
0
0
0
0
0
0
0
0
0
0
0
0
0
0
0
0
0
0
0
0
0
0
0
0
0
0
0
0
0
0
0
0
0
0
0
0
0
0
0
0
0
0
0
0
0
0
0
0
0
0
0
0
0
0
0
0
0
0
0
0
0
0
0
0
0
0
0
0
0
0
0
0
0
0
0
0
0
0
0
0
0
0
0
0
0
0
0
0
0
0
0
0
0
0
0
0
0
0
0
0
0
0
0
0
0
0
0
0
0
0
0
0
0
0
0
0
0
0
0
0
0
0
0
0
0
0
0
0
0
0
0
0
0
0
0
0
0
0
0
0
0
0
0
0
0
0
0
0
0
0
0
0
0
0
0
0
0
0
0
0
0
0
0
0
0
0
0
0
0
0
0
0
0
0
0
0
0
0
0
0
0
0
0
0
0
0
0
0
0
0
0
0
0
0
0
0
0
0
0
0
0
0
0
0
0
0
0
0
0
0
0
0
0
0
0
0
0
0
0
0
0
0
0
0
0
0
0
0
0
0
0
0
0
0
0
0
0
0
0
0
0
0
0
0
0
0
0
0
0
0
0
0
0
0
0
0
0
0
0
0
0
0
0
0
0
0
0
0
0
0
0
0
0
0
0
0
0
0
0
0
0
0
0
0
0
0
0
0
0
0
0
0
0
0
0
0
0
0
0
0
0
0
0
0
0
0
0
0
0
0
0
0
0
0
0
0
0
0
0
0
0
0
0
0
0
0
0
0
0
0
0
0
0
0
0
0
0
0
0
0
0
0
0
0
0
0
0
0
0
0
0
0
0
0
0
0
0
0
0
0
0
0
0
0
0
0
0
0
0
0
0
0
0
0
0
0
0
0
0
0
0
0
0
0
0
0
0
0
0
0
0
0
0
0
0
0
0
0
0
0
0
0
0
0
0
0
0
0
0
0
0
0
0
0
0
0
0
0
0
0
0
0
0
0
0
0
0
0
0
0
0
0
0
0
0
0
0
0
0
0
0
0
0
0
0
0
0
0
0
0
0
0
0
0
0
0
0
0
0
0
0
0
0
0
0
0
0
0
0
0
0
0
0
0
0
0
0
0
0
0
0
0
0
0
0
0
0
0
0
0
0
0
0
0
0
0
0
0
0
0
0
0
0
0
0
0
0
0
0
0
0
0
0
0
0
0
0
0
0
0
0
0
0
0
0
0
0
0
0
0
0
0
0
0
0
0
0
0
0
0
0
0
0
0
0
0
0
0
0
0
0
0
0
0
0
0
0
0
0
0
0
0
0
0
0
0
0
0
0
0
0
0
0
0
0
0
0
0
0
0
0
0
0
0
0
0
0
0
0
0
0
0
0
0
0
0
0
0
0
0
0
0
0
0
0
0
0
0
0
0
0
0
0
0
0
0
0
0
0
0
0
0
0
0
0
0
0
0
0
0
0
0
0
0
0
0
0
0
0
0
0
0
0
0
0
0
0
0
0
0
0
0
0
0
0
0
0
0
0
0
0
0
0
0
0
0
0
0
0
0
0
0
0
0
0
0
0
0
0
0
0
0
0
0
0
0
0
0
0
0
0
0
0
0
0
0
0
0
0
0
0
0
0
0
0
0
0
0
0
0
0
0
0
0
0
0
0
0
0
0
0
0
0
0
0
0
0
0
0
0
0
0
0
0
0
0
0
0
0
0
0
0
0
0
0
0
0
0
0
0
0
0
0
0
0
0
0
0
0
0
0
0
0
0
0
0
0
0
0
0
0
0
0
0
0
0
0
0
0
0
0
0
0
0
0
0
0
0
0
0
0
0
0
0
0
0
0
0
0
0
0
0
0
0
0
0
0
0
0
0
0
0
0
0
0
0
0
0
0
0
0
0
0
0
0
0
0
0
0
0
0
0
0
0
0
0
0
0
0
0
0
0
0
0
0
0
0
0
0
0
0
0
0
0
0
0
0
0
0
0
0
0
0
0
0
0
0
0
0
0
0
0
0
0
0
0
0
0
0
0
0
0
0
0
0
0
0
0
0
0
0
0
0
0
0
0
0
0
0
0
0
0
0
0
0
0
0
0
0
0
0
0
0
0
0
0
0
0
0
0
0
0
0
0
0
0
0
0
0
0
0
0
0
0
0
0
0
0
0
0
0
0
0
0
0
0
0
0
0
0
0
0
0
0
0
0
0
0
0
0
0
0
0
0
0
0
0
0
0
0
0
0
0
0
0
0
0
0
0
0
0
0
0
0
0
0
0
0
0
0
0
0
0
0
0
0
0
0
0
0
0
0
0
0
0
0
0
0
0
0
0
0
0
0
0
0
0
0
0
0
0
0
0
0
0
0
0
0
0
0
0
0
0
0
0
0
0
0
0
0
0
0
0
0
0
0
0
0
0
0
0
0
0
0
0
0
0
0
0
0
0
0
0
0
0
0
0
0
0
0
0
0
0
0
0
0
0
0
0
0
0
0
0
0
0
0
0
0
0
0
0
0
0
0
0
0
0
0
0
0
0
0
0
0
0
0
0
0
0
0
0
0
0
0
0
0
0
0
0
0
0
0
0
0
0
0
0
0
0
0
0
0
0
0
0
0
0
0
0
0
0
0
0
0
0
0
0
0
0
0
0
0
0
0
0
0
0
0
0
0
0
0
0
0
0
0
0
0
0
0
0
0
0
0
0
0
0
0
0
0
0
0
0
0
0
0
0
0
0
0
0
0
0
0
0
0
0
0
0
0
0
0
0
0
0
0
0
0
0
0
0
0
0
0
0
0
0
0
0
0
0
0
0
0
0
0
0
0
0
0
0
0
0
0
0
0
0
0
0
0
0
0
0
0
0
0
0
0
0
0
0
0
0
0
0
0
0
0
0
0
0
0
0
0
0
0
0
0
0
0
0
0
0
0
0
0
0
0
0
0
0
0
0
0
0
0
0
0
0
0
0
0
0
0
0
0
0
0
0
0
0
0
0
0
0
0
0
0
0
0
0
0
0
0
0
0
0
0
0
0
0
0
0
0
0
0
0
0
0
0
0
0
0
0
0
0
0
0
0
0
0
0
0
0
0
0
0
0
0
0
0
0
0
0
0
0
0
0
0
0
0
0
0
0
0
0
0
0
0
0
0
0
0
0
0
0
0
0
0
0
0
0
0
0
0
0
0
0
0
0
0
0
0
0
0
0
0
0
0
0
0
0
0
0
0
0
0
0
0
0
0
0
0
0
0
0
0
0
0
0
0
0
0
0
0
0
0
0
0
0
0
0
0
0
0
0
0
0
0
0
0
0
0
0
0
0
0
0
0
0
0
0
0
0
0
0
0
0
0
0
0
0
0
0
0
0
0
0
0
0
0
0
0
0
0
0
0
0
0
0
0
0
0
0
0
0
0
0
0
0
0
0
0
0
0
0
0
0
0
0
0
0
0
0
0
0
0
0
0
0
0
0
0
0
0
0
0
0
0
0
0
0
0
0
0
0
0
0
0
0
0
0
0
0
0
0
0
0
0
0
0
0
0
0
0
0
0
0
0
0
0
0
0
0
0
0
0
0
0
0
0
0
0
0
0
0
0
0
0
0
0
0
0
0
0
0
0
0
0
0
0
0
0
0
0
0
0
0
0
0
0
0
0
0
0
0
0
0
0
0
0
0
0
0
0
0
0
0
0
0
0
0
0
0
0
0
0
0
0
0
0
0
0
0
0
0
0
0
0
0
0
0
0
0
0
0
0
0
0
0
0
0
0
0
0
0
0
0
0
0
0
0
0
0
0
0
0
0
0
0
0
0
0
0
0
0
0
0
0
0
0
0
0
0
0
0
0
0
0
0
0
0
0
0
0
0
0
0
0
0
0
0
0
0
0
0
0
0
0
0
0
0
0
0
0
0
0
0
0
0
0
0
0
0
0
0
0
0
0
0
0
0
0
0
0
0
0
0
0
0
0
0
0
0
0
0
0
0
0
0
0
0
0
0
0
0
0
0
0
0
0
0
0
0
0
0
0
0
0
0
0
0
0
0
0
0
0
0
0
0
0
0
0
0
0
0
0
0
0
0
0
0
0
0
0
0
0
0
0
0
0
0
0
0
0
0
0
0
0
0
0
0
0
0
0
0
0
0
0
0
0
0
0
0
0
0
0
0
0
0
0
0
0
0
0
0
0
0
0
0
0
0
0
0
0
0
0
0
0
0
0
0
0
0
0
0
0
0
0
0
0
0
0
0
0
0
0
0
0
0
0
0
0
0
0
0
0
0
0
0
0
0
0
0
0
0
0
0
0
0
0
0
0
0
0
0
0
0
0
0
0
0
0
0
0
0
0
0
0
0
0
0
0
0
0
0
0
0
0
0
0
0
0
0
0
0
0
0
0
0
0
0
0
0
0
0
0
0
0
0
0
0
0
0
0
0
0
0
0
0
0
0
0
0
0
0
0
0
0
0
0
0
0
0
0
0
0
0
0
0
0
0
0
0
0
0
0
0
0
0
0
0
0
0
0
0
0
0
0
0
0
0
0
0
0
0
0
0
0
0
0
0
0
0
0
0
0
0
0
0
0
0
0
0
0
0
0
0
0
0
0
0
0
0
0
0
0
0
0
0
0
0
0
0
0
0
0
0
0
0
0
0
0
0
0
0
0
0
0
0
0
0
0
0
0
0
0
0
0
0
0
0
0
0
0
0
0
0
0
0
0
0
0
0
0
0
0
0
0
0
0
0
0
0
0
0
0
0
0
0
0
0
0
0
0
0
0
0
0
0
0
0
0
0
0
0
0
0
0
0
0
0
0
0
0
0
0
0
0
0
0
0
0
0
0
0
0
0
0
0
0
0
0
0
0
0
0
0
0
0
0
0
0
0
0
0
0
0
0
0
0
0
0
0
0
0
0
0
0
0
0
0
0
0
0
0
0
0
0
0
0
0
0
0
0
0
0
0
0
0
0
0
0
0
0
0
0
0
0
0
0
0
0
0
0
0
0
0
0
0
0
0
0
0
0
0
0
0
0
0
0
0
0
0
0
0
0
0
0
0
0
0
0
0
0
0
0
0
0
0
0
0
0
0
0
0
0
0
0
0
0
0
0
0
0
0
0
0
0
0
0
0
0
0
0
0
0
0
0
0
0
0
0
0
0
0
0
0
0
0
0
0
0
0
0
0
0
0
0
0
0
0
0
0
0
0
0
0
0
0
0
0
0
0
0
0
0
0
0
0
0
0
0
0
0
0
0
0
0
0
0
0
0
0
0
0
0
0
0
0
0
0
0
0
0
0
0
0
0
0
0
0
0
0
0
0
0
0
0
0
0
0
0
0
0
0
0
0
0
0
0
0
0
0
0
0
0
0
0
0
0
0
0
0
0
0
0
0
0
0
0
0
0
0
0
0
0
0
0
0
0
0
0
0
0
0
0
0
0
0
0
0
0
0
0
0
0
0
0
0
0
0
0
0
0
0
0
0
0
0
0
0
0
0
0
0
0
0
0
0
0
0
0
0
0
0
0
0
0
0
0
0
0
0
0
0
0
0
0
0
0
0
0
0
0
0
0
0
0
0
0
0
0
0
0
0
0
0
0
0
0
0
0
0
0
0
0
0
0
0
0
0
0
0
0
0
0
0
0
0
0
0
0
0
0
0
0
0
0
0
0
0
0
0
0
0
0
0
0
0
0
0
0
0
0
0
0
0
0
0
0
0
0
0
0
0
0
0
0
0
0
0
0
0
0
0
0
0
0
0
0
0
0
0
0
0
0
0
0
0
0
0
0
0
0
0
0
0
0
0
0
0
0
0
0
0
0
0
0
0
0
0
0
0
0
0
0
0
0
0
0
0
0
0
0
0
0
0
0
0
0
0
0
0
0
0
0
0
0
0
0
0
0
0
0
0
0
0
0
0
0
0
0
0
0
0
0
0
0
0
0
0
0
0
0
0
0
0
0
0
0
0
0
0
0
0
0
0
0
0
0
0
0
0
0
0
0
0
0
0
0
0
0
0
0
0
0
0
0
0
0
0
0
0
0
0
0
0
0
0
0
0
0
0
0
0
0
0
0
0
0
0
0
0
0
0
0
0
0
0
0
0
0
0
0
0
0
0
0
0
0
0
0
0
0
0
0
0
0
0
0
0
0
0
0
0
0
0
0
0
0
0
0
0
0
0
0
0
0
0
0
0
0
0
0
0
0
0
0
0
0
0
0
0
0
0
0
0
0
0
0
0
0
0
0
0
0
0
0
0
0
0
0
0
0
0
0
0
0
0
0
0
0
0
0
0
0
0
0
0
0
0
0
0
0
0
0
0
0
0
0
0
0
0
0
0
0
0
0
0
0
0
0
0
0
0
0
0
0
0
0
0
0
0
0
0
0
0
0
0
0
0
0
0
0
0
0
0
0
0
0
0
0
0
0
0
0
0
0
0
0
0
0
0
0
0
0
0
0
0
0
0
0
0
0
0
0
0
0
0
0
0
0
0
0
0
0
0
0
0
0
0
0
0
0
0
0
0
0
0
0
0
0
0
0
0
0
0
0
0
0
0
0
0
0
0
0
0
0
0
0
0
0
0
0
0
0
0
0
0
0
0
0
0
0
0
0
0
0
0
0
0
0
0
0
0
0
0
0
0
0
0
0
0
0
0
0
0
0
0
0
0
0
0
0
0
0
0
0
0
0
0
0
0
0
0
0
0
0
0
0
0
0
0
0
0
0
0
0
0
0
0
0
0
0
0
0
0
0
0
0
0
0
0
0
0
0
0
0
0
0
0
0
0
0
0
0
0
0
0
0
0
0
0
0
0
0
0
0
0
0
0
0
0
0
0
0
0
0
0
0
0
0
0
0
0
0
0
0
0
0
0
0
0
0
0
0
0
0
0
0
0
0
0
0
0
0
0
0
0
0
0
0
0
0
0
0
0
0
0
0
0
0
0
0
0
0
0
0
0
0
0
0
0
0
0
0
0
0
0
0
0
0
0
0
0
0
0
0
0
0
0
0
0
0
0
0
0
0
0
0
0
0
0
0
0
0
0
0
0
0
0
0
0
0
0
0
0
0
0
0
0
0
0
0
0
0
0
0
0
0
0
0
0
0
0
0
0
0
0
0
0
0
0
0
0
0
0
0
0
0
0
0
0
0
0
0
0
0
0
0
0
0
0
0
0
0
0
0
0
0
0
0
0
0
0
0
0
0
0
0
0
0
0
0
0
0
0
0
0
0
0
0
0
0
0
0
0
0
0
0
0
0
0
0
0
0
0
0
0
0
0
0
0
0
0
0
0
0
0
0
0
0
0
0
0
0
0
0
0
0
0
0
0
0
0
0
0
0
0
0
0
0
0
0
0
0
0
0
0
0
0
0
0
0
0
0
0
0
0
0
0
0
0
0
0
0
0
0
0
0
0
0
0
0
0
0
0
0
0
0
0
0
0
0
0
0
0
0
0
0
0
0
0
0
0
0
0
0
0
0
0
0
0
0
0
0
0
0
0
0
0
0
0
0
0
0
0
0
0
0
0
0
0
178
23
230
115
15
149
0
0
0
0
0
0
0
0
0
0
0
0
0
0
0
0
0
0
0
0
0
44
88
145
44
88
145
0
0
0
0
0
0
0
0
0
0
0
0
0
0
0
0
0
0
0
0
0
0
0
0
0
0
0
0
0
0
31
152
51
52
254
86
0
0
0
0
0
0
0
0
0
0
0
0
0
0
0
0
0
0
0
0
0
0
0
0
0
0
0
246
250
4
0
0
0
0
0
0
0
0
0
0
0
0
0
0
0
0
0
0
0
0
0
0
0
0
0
0
0
0
0
0
0
0
0
238
136
69
0
0
0
0
0
0
0
0
0
0
0
0
0
0
0
0
0
0
0
0
0
0
0
0
246
36
36
0
0
0
0
0
0
0
0
0
0
0
0
0
0
0
0
0
0
0
0
0
0
0
0
0
0
0
0
0
0
0
0
0
0
0
0
0
0
0
0
0
0
0
0
0
0
0
0
184
24
238
182
24
235
178
23
230
178
23
230
192
24
248
0
0
0
0
0
0
0
0
0
0
0
0
0
0
0
53
105
174
52
103
170
52
103
170
53
105
174
0
0
0
0
0
0
0
0
0
0
0
0
0
0
0
0
0
0
0
0
0
0
0
0
52
251
85
50
243
82
50
243
82
50
243
82
0
0
0
0
0
0
0
0
0
0
0
0
0
0
0
0
0
0
246
250
4
246
250
4
240
244
4
246
250
4
0
0
0
0
0
0
0
0
0
0
0
0
0
0
0
0
0
0
0
0
0
0
0
0
254
145
73
244
139
71
238
136
69
244
139
71
90
52
26
0
0
0
0
0
0
0
0
0
0
0
0
0
0
0
238
35
35
238
35
35
238
35
35
246
36
36
0
0
0
0
0
0
0
0
0
0
0
0
0
0
0
0
0
0
0
0
0
0
0
0
0
0
0
0
0
0
0
0
0
0
0
0
0
0
0
0
0
0
182
24
235
0
0
0
178
23
230
115
15
149
178
23
230
68
9
87
0
0
0
0
0
0
0
0
0
55
109
182
0
0
0
44
88
145
44
88
145
53
105
174
55
109
182
0
0
0
0
0
0
0
0
0
0
0
0
0
0
0
0
0
0
52
254
86
52
251
85
31
152
51
52
254
86
0
0
0
52
254
86
0
0
0
0
0
0
0
0
0
0
0
0
214
217
4
204
208
3
0
0
0
246
250
4
0
0
0
248
252
4
0
0
0
0
0
0
0
0
0
0
0
0
0
0
0
0
0
0
0
0
0
238
136
69
0
0
0
238
136
69
0
0
0
244
139
71
154
88
45
0
0
0
0
0
0
0
0
0
246
36
36
79
12
12
246
36
36
0
0
0
205
30
30
205
30
30
0
0
0
0
0
0
0
0
0
0
0
0
0
0
0
0
0
0
0
0
0
0
0
0
0
0
0
0
0
0
0
0
0
0
0
0
0
0
0
68
9
87
182
24
235
68
9
87
130
17
168
68
9
87
25
3
33
0
0
0
0
0
0
0
0
0
20
39
65
53
105
174
29
57
95
29
57
95
13
25
42
20
39
65
0
0
0
0
0
0
0
0
0
0
0
0
0
0
0
0
0
0
19
92
31
17
80
27
37
178
60
17
80
27
52
251
85
19
92
31
0
0
0
0
0
0
0
0
0
0
0
0
79
81
1
134
136
2
248
252
4
79
81
1
246
250
4
91
93
2
0
0
0
0
0
0
0
0
0
0
0
0
0
0
0
0
0
0
0
0
0
90
52
26
244
139
71
90
52
26
244
139
71
90
52
26
59
33
17
0
0
0
0
0
0
0
0
0
90
13
13
205
30
30
83
12
12
246
36
36
130
19
19
79
12
12
0
0
0
0
0
0
0
0
0
0
0
0
0
0
0
0
0
0
0
0
0
0
0
0
0
0
0
0
0
0
0
0
0
0
0
0
0
0
0
118
15
153
115
15
149
115
15
149
115
15
149
118
15
153
0
0
0
0
0
0
0
0
0
0
0
0
0
0
0
34
67
110
34
67
110
34
67
110
34
67
110
0
0
0
0
0
0
0
0
0
0
0
0
0
0
0
0
0
0
0
0
0
0
0
0
32
158
53
32
158
53
32
158
53
32
158
53
0
0
0
0
0
0
0
0
0
0
0
0
0
0
0
0
0
0
156
158
3
156
158
3
156
158
3
156
158
3
0
0
0
0
0
0
0
0
0
0
0
0
0
0
0
0
0
0
0
0
0
0
0
0
154
88
45
154
88
45
154
88
45
154
88
45
59
33
17
0
0
0
0
0
0
0
0
0
0
0
0
0
0
0
154
23
23
154
23
23
154
23
23
154
23
23
0
0
0
0
0
0
0
0
0
0
0
0
0
0
0
0
0
0
0
0
0
0
0
0
0
0
0
0
0
0
0
0
0
0
0
0
0
0
0
0
0
0
0
0
0
192
24
248
0
0
0
118
15
153
0
0
0
68
9
87
0
0
0
0
0
0
0
0
0
55
109
182
55
109
182
20
40
67
20
40
67
0
0
0
55
109
182
0
0
0
0
0
0
0
0
0
0
0
0
0
0
0
0
0
0
52
254
86
0
0
0
32
158
53
0
0
0
52
254
86
52
254
86
0
0
0
0
0
0
0
0
0
0
0
0
214
217
4
91
93
2
255
255
3
0
0
0
255
255
3
255
255
3
0
0
0
0
0
0
0
0
0
0
0
0
0
0
0
0
0
0
0
0
0
0
0
0
254
145
73
0
0
0
254
145
73
222
127
64
154
88
45
0
0
0
0
0
0
0
0
0
255
37
37
222
33
33
0
0
0
255
37
37
90
13
13
222
33
33
0
0
0
0
0
0
0
0
0
0
0
0
0
0
0
0
0
0
0
0
0
0
0
0
0
0
0
0
0
0
0
0
0
0
0
0
0
0
0
0
0
0
0
0
0
0
0
0
0
0
0
0
0
0
0
0
0
0
0
0
0
0
0
0
0
0
0
0
0
0
0
0
0
0
0
0
0
0
0
0
0
0
0
0
0
0
0
0
0
0
0
0
0
0
0
0
0
0
0
0
0
0
0
0
0
0
0
0
0
0
0
0
0
0
0
0
0
0
0
0
0
0
0
0
0
0
0
0
0
0
0
0
0
0
0
0
0
0
0
0
0
0
0
0
0
0
0
0
0
0
0
0
0
0
0
0
0
0
0
0
0
0
0
0
0
0
0
0
0
0
0
0
0
0
0
0
0
0
0
0
0
0
0
0
0
0
0
0
0
0
0
0
0
0
0
0
0
0
0
0
0
0
0
0
0
0
0
0
0
0
0
0
0
0
0
0
0
0
0
0
0
0
0
0
0
0
0
0
0
0
0
0
0
0
0
0
0
0
0
0
0
0
0
0
0
0
0
0
0
0
0
0
0
0
0
0
0
0
0
0
0
0
0
0
0
0
0
192
24
248
0
0
0
0
0
0
0
0
0
0
0
0
0
0
0
0
0
0
0
0
0
0
0
0
0
0
0
55
109
182
0
0
0
0
0
0
0
0
0
0
0
0
0
0
0
0
0
0
52
254
86
0
0
0
0
0
0
0
0
0
0
0
0
0
0
0
0
0
0
0
0
0
0
0
0
0
0
0
0
0
0
214
217
4
0
0
0
0
0
0
0
0
0
255
255
3
0
0
0
0
0
0
0
0
0
0
0
0
0
0
0
0
0
0
0
0
0
0
0
0
0
0
0
0
0
0
0
0
0
90
52
26
0
0
0
0
0
0
0
0
0
0
0
0
0
0
0
90
13
13
0
0
0
0
0
0
0
0
0
205
30
30
0
0
0
0
0
0
0
0
0
0
0
0
0
0
0
0
0
0
0
0
0
0
0
0
0
0
0
0
0
0
0
0
0
0
0
0
0
0
0
184
24
238
0
0
0
0
0
0
115
15
149
0
0
0
0
0
0
0
0
0
0
0
0
0
0
0
0
0
0
53
105
174
13
25
42
0
0
0
53
105
174
0
0
0
0
0
0
0
0
0
0
0
0
0
0
0
0
0
0
0
0
0
0
0
0
52
251
85
0
0
0
0
0
0
52
251
85
0
0
0
0
0
0
0
0
0
0
0
0
0
0
0
0
0
0
79
81
1
248
252
4
0
0
0
0
0
0
0
0
0
0
0
0
0
0
0
0
0
0
0
0
0
0
0
0
0
0
0
0
0
0
244
139
71
0
0
0
0
0
0
244
139
71
0
0
0
0
0
0
0
0
0
0
0
0
0
0
0
0
0
0
205
30
30
0
0
0
0
0
0
205
30
30
0
0
0
0
0
0
0
0
0
0
0
0
0
0
0
0
0
0
0
0
0
0
0
0
0
0
0
0
0
0
0
0
0
0
0
0
0
0
0
184
24
238
0
0
0
184
24
238
178
23
230
115
15
149
178
23
230
68
9
87
0
0
0
0
0
0
0
0
0
55
109
182
0
0
0
44
88
145
52
103
170
0
0
0
53
105
174
44
88
145
0
0
0
0
0
0
0
0
0
0
0
0
32
158
53
50
243
82
0
0
0
50
243
82
52
254
86
0
0
0
52
254
86
0
0
0
0
0
0
0
0
0
0
0
0
214
217
4
204
208
3
0
0
0
240
244
4
246
250
4
248
252
4
255
255
3
0
0
0
0
0
0
0
0
0
0
0
0
0
0
0
254
145
73
0
0
0
238
136
69
238
136
69
0
0
0
244
139
71
154
88
45
0
0
0
0
0
0
0
0
0
246
36
36
79
12
12
246
36
36
238
35
35
79
12
12
238
35
35
255
37
37
0
0
0
0
0
0
0
0
0
0
0
0
0
0
0
0
0
0
0
0
0
0
0
0
0
0
0
0
0
0
192
24
248
0
0
0
182
24
235
178
23
230
178
23
230
182
24
235
184
24
238
153
20
198
0
0
0
0
0
0
55
109
182
0
0
0
53
105
174
52
103
170
52
103
170
53
105
174
53
105
174
20
39
65
0
0
0
0
0
0
0
0
0
0
0
0
32
158
53
52
251
85
52
251
85
50
243
82
50
243
82
52
251
85
0
0
0
52
254
86
0
0
0
0
0
0
0
0
0
91
93
2
240
244
4
246
250
4
240
244
4
240
244
4
240
244
4
0
0
0
214
217
4
0
0
0
0
0
0
0
0
0
254
145
73
0
0
0
244
139
71
238
136
69
238
136
69
244
139
71
83
47
24
154
88
45
0
0
0
0
0
0
255
37
37
0
0
0
238
35
35
238
35
35
238
35
35
238
35
35
205
30
30
0
0
0
0
0
0
0
0
0
0
0
0
0
0
0
0
0
0
0
0
0
0
0
0
0
0
0
0
0
0
0
0
0
184
24
238
0
0
0
0
0
0
0
0
0
0
0
0
0
0
0
184
24
238
153
20
198
0
0
0
0
0
0
53
105
174
0
0
0
0
0
0
0
0
0
0
0
0
0
0
0
53
105
174
20
39
65
0
0
0
0
0
0
0
0
0
0
0
0
32
158
53
52
251
85
0
0
0
0
0
0
0
0
0
0
0
0
0
0
0
52
251
85
0
0
0
0
0
0
0
0
0
91
93
2
204
208
3
0
0
0
0
0
0
0
0
0
248
252
4
0
0
0
204
208
3
0
0
0
0
0
0
0
0
0
244
139
71
0
0
0
0
0
0
0
0
0
0
0
0
0
0
0
90
52
26
154
88
45
0
0
0
0
0
0
246
36
36
0
0
0
79
12
12
0
0
0
0
0
0
0
0
0
205
30
30
0
0
0
0
0
0
0
0
0
0
0
0
0
0
0
0
0
0
0
0
0
0
0
0
0
0
0
0
0
0
0
0
0
68
9
87
0
0
0
153
20
198
153
20
198
130
17
168
153
20
198
68
9
87
59
8
76
0
0
0
0
0
0
20
40
67
0
0
0
44
88
145
44
88
145
20
39
65
44
88
145
20
39
65
7
15
24
0
0
0
0
0
0
0
0
0
0
0
0
12
60
20
19
92
31
43
209
71
28
136
46
43
209
71
45
216
73
0
0
0
19
92
31
0
0
0
0
0
0
0
0
0
34
34
0
134
136
2
204
208
3
0
0
0
214
217
4
79
81
1
0
0
0
79
81
1
0
0
0
0
0
0
0
0
0
90
52
26
0
0
0
205
117
59
205
117
59
130
74
38
205
117
59
34
19
10
59
33
17
0
0
0
0
0
0
90
13
13
0
0
0
184
27
27
205
30
30
222
33
33
205
30
30
79
12
12
0
0
0
0
0
0
0
0
0
0
0
0
0
0
0
0
0
0
0
0
0
0
0
0
0
0
0
0
0
0
0
0
0
0
0
0
0
0
0
0
0
0
0
0
0
0
0
0
0
0
0
0
0
0
0
0
0
0
0
0
0
0
0
0
0
0
0
0
0
0
0
0
0
0
0
0
0
0
0
0
0
0
0
0
0
0
0
0
0
0
0
0
0
0
0
0
0
0
0
0
0
0
0
0
0
0
0
0
0
0
0
0
0
0
0
0
0
0
0
0
0
0
0
0
0
0
0
0
0
0
0
0
0
0
0
0
0
0
0
0
0
0
0
0
0
0
0
0
0
0
0
0
0
0
0
0
0
0
0
0
0
0
0
0
0
0
0
0
0
0
0
0
0
0
0
0
0
0
0
0
0
0
0
0
0
0
0
0
0
0
0
0
0
0
0
0
0
0
0
0
0
0
0
0
0
0
0
0
0
0
0
0
0
0
0
0
0
0
0
0
0
0
0
0
0
0
0
0
0
0
0
0
0
0
0
0
0
0
0
0
0
0
0
0
0
0
0
0
0
0
0
0
0
0
0
0
0
0
0
0
0
0
0
0
0
0
0
192
24
248
0
0
0
0
0
0
0
0
0
0
0
0
0
0
0
0
0
0
0
0
0
0
0
0
0
0
0
55
109
182
0
0
0
0
0
0
0
0
0
0
0
0
0
0
0
0
0
0
52
254
86
0
0
0
0
0
0
0
0
0
0
0
0
0
0
0
0
0
0
0
0
0
0
0
0
0
0
0
0
0
0
214
217
4
0
0
0
0
0
0
0
0
0
255
255
3
0
0
0
0
0
0
0
0
0
0
0
0
0
0
0
0
0
0
0
0
0
0
0
0
0
0
0
0
0
0
0
0
0
90
52
26
0
0
0
0
0
0
0
0
0
0
0
0
0
0
0
90
13
13
0
0
0
0
0
0
0
0
0
222
33
33
0
0
0
0
0
0
0
0
0
0
0
0
0
0
0
0
0
0
0
0
0
0
0
0
0
0
0
0
0
0
0
0
0
0
0
0
0
0
0
184
24
238
0
0
0
0
0
0
115
15
149
0
0
0
0
0
0
0
0
0
0
0
0
0
0
0
0
0
0
55
109
182
20
39
65
0
0
0
55
109
182
0
0
0
0
0
0
0
0
0
0
0
0
0
0
0
0
0
0
0
0
0
0
0
0
52
254
86
0
0
0
0
0
0
52
254
86
0
0
0
0
0
0
0
0
0
0
0
0
0
0
0
0
0
0
79
81
1
255
255
3
0
0
0
0
0
0
0
0
0
0
0
0
0
0
0
0
0
0
0
0
0
0
0
0
0
0
0
0
0
0
254
145
73
0
0
0
0
0
0
254
145
73
0
0
0
0
0
0
0
0
0
0
0
0
0
0
0
0
0
0
205
30
30
0
0
0
0
0
0
205
30
30
0
0
0
0
0
0
0
0
0
0
0
0
0
0
0
0
0
0
0
0
0
0
0
0
0
0
0
0
0
0
0
0
0
0
0
0
0
0
0
59
8
76
153
20
198
178
23
230
178
23
230
166
21
214
184
24
238
25
3
33
0
0
0
0
0
0
0
0
0
20
39
65
44
88
145
52
103
170
52
103
170
44
88
145
53
105
174
20
39
65
0
0
0
0
0
0
0
0
0
0
0
0
12
60
20
52
251
85
43
209
71
50
243
82
50
243
82
43
209
71
19
92
31
0
0
0
0
0
0
0
0
0
0
0
0
79
81
1
240
244
4
204
208
3
240
244
4
240
244
4
246
250
4
91
93
2
0
0
0
0
0
0
0
0
0
0
0
0
0
0
0
83
47
24
205
117
59
238
136
69
238
136
69
205
117
59
130
74
38
59
33
17
0
0
0
0
0
0
0
0
0
79
12
12
205
30
30
238
35
35
238
35
35
205
30
30
205
30
30
90
13
13
0
0
0
0
0
0
0
0
0
0
0
0
0
0
0
0
0
0
0
0
0
0
0
0
0
0
0
0
0
0
184
24
238
184
24
238
178
23
230
178
23
230
178
23
230
178
23
230
178
23
230
178
23
230
0
0
0
0
0
0
53
105
174
0
0
0
52
103
170
52
103
170
52
103
170
52
103
170
53
105
174
20
39
65
0
0
0
0
0
0
0
0
0
0
0
0
32
158
53
52
251
85
50
243
82
50
243
82
50
243
82
50
243
82
0
0
0
52
251
85
0
0
0
0
0
0
0
0
0
91
93
2
240
244
4
240
244
4
240
244
4
240
244
4
240
244
4
0
0
0
204
208
3
0
0
0
0
0
0
0
0
0
244
139
71
0
0
0
238
136
69
238
136
69
238
136
69
238
136
69
90
52
26
154
88
45
0
0
0
0
0
0
246
36
36
246
36
36
238
35
35
238
35
35
238
35
35
238
35
35
238
35
35
246
36
36
0
0
0
0
0
0
0
0
0
0
0
0
0
0
0
0
0
0
0
0
0
0
0
0
0
0
0
0
0
0
184
24
238
0
0
0
182
24
235
182
24
235
182
24
235
182
24
235
184
24
238
153
20
198
0
0
0
0
0
0
53
105
174
0
0
0
53
105
174
53
105
174
53
105
174
53
105
174
53
105
174
20
39
65
0
0
0
0
0
0
0
0
0
0
0
0
32
158
53
52
251
85
52
251
85
52
251
85
52
251
85
52
251
85
0
0
0
52
251
85
0
0
0
0
0
0
0
0
0
91
93
2
240
244
4
246
250
4
246
250
4
246
250
4
240
244
4
0
0
0
204
208
3
0
0
0
0
0
0
0
0
0
244
139
71
0
0
0
244
139
71
244
139
71
244
139
71
244
139
71
90
52
26
154
88
45
0
0
0
0
0
0
246
36
36
0
0
0
238
35
35
246
36
36
246
36
36
246
36
36
205
30
30
0
0
0
0
0
0
0
0
0
0
0
0
0
0
0
0
0
0
0
0
0
0
0
0
0
0
0
0
0
0
0
0
0
0
0
0
0
0
0
192
24
248
184
24
238
153
20
198
184
24
238
0
0
0
0
0
0
0
0
0
0
0
0
0
0
0
0
0
0
55
109
182
53
105
174
20
40
67
53
105
174
0
0
0
0
0
0
0
0
0
0
0
0
0
0
0
0
0
0
0
0
0
0
0
0
52
251
85
32
158
53
52
251
85
52
254
86
0
0
0
0
0
0
0
0
0
0
0
0
0
0
0
0
0
0
79
81
1
248
252
4
0
0
0
255
255
3
0
0
0
0
0
0
0
0
0
0
0
0
0
0
0
0
0
0
0
0
0
0
0
0
254
145
73
254
145
73
154
88
45
244
139
71
0
0
0
0
0
0
0
0
0
0
0
0
0
0
0
0
0
0
205
30
30
246
36
36
255
37
37
246
36
36
0
0
0
0
0
0
0
0
0
0
0
0
0
0
0
0
0
0
0
0
0
0
0
0
0
0
0
0
0
0
0
0
0
0
0
0
0
0
0
0
0
0
0
0
0
0
0
0
0
0
0
0
0
0
0
0
0
0
0
0
0
0
0
0
0
0
0
0
0
0
0
0
0
0
0
0
0
0
0
0
0
0
0
0
0
0
0
0
0
0
0
0
0
0
0
0
0
0
0
0
0
0
0
0
0
0
0
0
0
0
0
0
0
0
0
0
0
0
0
0
0
0
0
0
0
0
0
0
0
0
0
0
0
0
0
0
0
0
0
0
0
0
0
0
0
0
0
0
0
0
0
0
0
0
0
0
0
0
0
0
0
0
0
0
0
0
0
0
0
0
0
0
0
0
0
0
0
0
0
0
0
0
0
0
0
0
0
0
0
0
0
0
0
0
0
0
0
0
0
0
0
0
0
0
0
0
0
0
0
0
0
0
0
0
0
0
0
0
0
0
0
0
0
0
0
0
0
0
0
0
0
0
0
0
0
0
0
0
0
0
0
0
0
0
0
0
0
0
0
0
0
0
0
0
0
115
15
149
115
15
149
115
15
149
115
15
149
115
15
149
118
15
153
0
0
0
0
0
0
0
0
0
0
0
0
0
0
0
34
67
110
34
67
110
34
67
110
34
67
110
34
67
110
29
57
95
0
0
0
0
0
0
0
0
0
0
0
0
21
102
34
32
158
53
32
158
53
32
158
53
32
158
53
32
158
53
0
0
0
0
0
0
0
0
0
0
0
0
0
0
0
0
0
0
156
158
3
156
158
3
156
158
3
156
158
3
156
158
3
156
158
3
0
0
0
0
0
0
0
0
0
0
0
0
0
0
0
154
88
45
154
88
45
154
88
45
154
88
45
154
88
45
59
33
17
0
0
0
0
0
0
0
0
0
0
0
0
0
0
0
154
23
23
154
23
23
154
23
23
154
23
23
154
23
23
154
23
23
0
0
0
0
0
0
0
0
0
0
0
0
0
0
0
0
0
0
0
0
0
0
0
0
0
0
0
0
0
0
192
24
248
178
23
230
178
23
230
178
23
230
178
23
230
178
23
230
178
23
230
68
9
87
0
0
0
0
0
0
0
0
0
55
109
182
52
103
170
52
103
170
52
103
170
52
103
170
52
103
170
52
103
170
0
0
0
0
0
0
0
0
0
0
0
0
52
251
85
50
243
82
50
243
82
50
243
82
50
243
82
50
243
82
52
254
86
0
0
0
0
0
0
0
0
0
0
0
0
214
217
4
240
244
4
240
244
4
240
244
4
240
244
4
240
244
4
240
244
4
214
217
4
0
0
0
0
0
0
0
0
0
244
139
71
238
136
69
238
136
69
238
136
69
238
136
69
238
136
69
244
139
71
154
88
45
0
0
0
0
0
0
0
0
0
246
36
36
238
35
35
238
35
35
238
35
35
238
35
35
238
35
35
238
35
35
0
0
0
0
0
0
0
0
0
0
0
0
0
0
0
0
0
0
0
0
0
0
0
0
0
0
0
115
15
149
178
23
230
184
24
238
0
0
0
184
24
238
59
8
76
0
0
0
178
23
230
178
23
230
0
0
0
0
0
0
53
105
174
52
103
170
0
0
0
0
0
0
52
103
170
0
0
0
0
0
0
52
103
170
53
105
174
0
0
0
0
0
0
52
254
86
50
243
82
0
0
0
0
0
0
50
243
82
0
0
0
0
0
0
50
243
82
50
243
82
0
0
0
0
0
0
0
0
0
240
244
4
204
208
3
0
0
0
246
250
4
246
250
4
0
0
0
246
250
4
240
244
4
0
0
0
0
0
0
90
52
26
238
136
69
244
139
71
0
0
0
238
136
69
147
84
43
0
0
0
238
136
69
238
136
69
0
0
0
0
0
0
246
36
36
238
35
35
79
12
12
0
0
0
238
35
35
79
12
12
79
12
12
238
35
35
246
36
36
0
0
0
0
0
0
0
0
0
0
0
0
0
0
0
0
0
0
0
0
0
0
0
0
68
9
87
115
15
149
115
15
149
178
23
230
115
15
149
166
21
214
178
23
230
115
15
149
115
15
149
0
0
0
0
0
0
34
67
110
34
67
110
53
105
174
52
103
170
34
67
110
53
105
174
53
105
174
34
67
110
34
67
110
0
0
0
0
0
0
32
158
53
32
158
53
52
251
85
52
251
85
32
158
53
50
243
82
52
251
85
32
158
53
32
158
53
0
0
0
0
0
0
0
0
0
156
158
3
176
178
3
240
244
4
156
158
3
156
158
3
240
244
4
156
158
3
156
158
3
0
0
0
0
0
0
59
33
17
154
88
45
154
88
45
238
136
69
154
88
45
205
117
59
238
136
69
154
88
45
154
88
45
0
0
0
0
0
0
154
23
23
154
23
23
222
33
33
238
35
35
154
23
23
222
33
33
222
33
33
154
23
23
154
23
23
0
0
0
0
0
0
0
0
0
0
0
0
0
0
0
0
0
0
0
0
0
0
0
0
0
0
0
0
0
0
184
24
238
0
0
0
192
24
248
68
9
87
118
15
153
192
24
248
0
0
0
0
0
0
0
0
0
0
0
0
0
0
0
53
105
174
20
40
67
53
105
174
0
0
0
55
109
182
44
88
145
0
0
0
0
0
0
0
0
0
0
0
0
32
158
53
52
254
86
0
0
0
52
254
86
0
0
0
52
254
86
0
0
0
0
0
0
0
0
0
0
0
0
0
0
0
0
0
0
248
252
4
255
255
3
255
255
3
255
255
3
255
255
3
255
255
3
0
0
0
0
0
0
0
0
0
0
0
0
0
0
0
254
145
73
0
0
0
254
145
73
154
88
45
254
145
73
83
47
24
0
0
0
0
0
0
0
0
0
0
0
0
0
0
0
246
36
36
0
0
0
246
36
36
90
13
13
246
36
36
255
37
37
0
0
0
0
0
0
0
0
0
0
0
0
0
0
0
0
0
0
0
0
0
0
0
0
0
0
0
118
15
153
184
24
238
0
0
0
0
0
0
0
0
0
0
0
0
0
0
0
0
0
0
184
24
238
0
0
0
0
0
0
53
105
174
53
105
174
0
0
0
0
0
0
0
0
0
0
0
0
0
0
0
20
40
67
55
109
182
0
0
0
0
0
0
52
254
86
32
158
53
0
0
0
0
0
0
0
0
0
0
0
0
0
0
0
52
254
86
52
251
85
0
0
0
0
0
0
0
0
0
248
252
4
0
0
0
0
0
0
0
0
0
0
0
0
0
0
0
0
0
0
248
252
4
0
0
0
0
0
0
90
52
26
254
145
73
0
0
0
0
0
0
0
0
0
0
0
0
0
0
0
205
117
59
244
139
71
0
0
0
0
0
0
255
37
37
255
37
37
0
0
0
0
0
0
0
0
0
0
0
0
0
0
0
0
0
0
255
37
37
0
0
0
0
0
0
0
0
0
0
0
0
0
0
0
0
0
0
0
0
0
0
0
0
0
0
0
0
0
0
0
0
0
0
0
0
0
0
0
0
0
0
0
0
0
0
0
0
0
0
0
0
0
0
0
0
0
0
0
0
0
0
0
0
0
0
0
0
0
0
0
0
0
0
0
0
0
0
0
0
0
0
0
0
0
0
0
0
0
0
0
0
0
0
0
0
0
0
0
0
0
0
0
0
0
0
0
0
0
0
0
0
0
0
0
0
0
0
0
0
0
0
0
0
0
0
0
0
0
0
0
0
0
0
0
0
0
0
0
0
0
0
0
0
0
0
0
0
0
0
0
0
0
0
0
0
0
0
0
0
0
0
0
0
0
0
0
0
0
0
0
0
0
0
0
0
0
0
0
0
0
0
0
0
0
0
0
0
0
0
0
0
0
0
0
0
0
0
0
0
0
0
0
0
0
0
0
0
0
0
0
0
0
0
0
0
0
0
0
0
0
0
0
0
0
0
0
0
0
0
0
0
0
0
0
0
0
0
0
0
0
0
0
0
0
0
184
24
238
184
24
238
184
24
238
184
24
238
184
24
238
192
24
248
0
0
0
0
0
0
0
0
0
0
0
0
0
0
0
53
105
174
53
105
174
53
105
174
53
105
174
53
105
174
44
88
145
0
0
0
0
0
0
0
0
0
0
0
0
32
158
53
52
251
85
52
251
85
52
251
85
52
251
85
52
251
85
0
0
0
0
0
0
0
0
0
0
0
0
0
0
0
0
0
0
248
252
4
248
252
4
248
252
4
248
252
4
248
252
4
255
255
3
0
0
0
0
0
0
0
0
0
0
0
0
0
0
0
254
145
73
244
139
71
244
139
71
244
139
71
244
139
71
90
52
26
0
0
0
0
0
0
0
0
0
0
0
0
0
0
0
246
36
36
246
36
36
246
36
36
246
36
36
246
36
36
255
37
37
0
0
0
0
0
0
0
0
0
0
0
0
0
0
0
0
0
0
0
0
0
0
0
0
0
0
0
99
13
128
178
23
230
182
24
235
68
9
87
182
24
235
99
13
128
68
9
87
178
23
230
153
20
198
0
0
0
0
0
0
44
88
145
52
103
170
13
25
42
20
39
65
52
103
170
13
25
42
20
39
65
52
103
170
44
88
145
0
0
0
0
0
0
45
216
73
50
243
82
17
80
27
17
80
27
50
243
82
19
92
31
17
80
27
50
243
82
43
209
71
0
0
0
0
0
0
0
0
0
240
244
4
214
217
4
91
93
2
240
244
4
240
244
4
91
93
2
240
244
4
240
244
4
0
0
0
0
0
0
83
47
24
238
136
69
244
139
71
90
52
26
238
136
69
174
99
50
90
52
26
238
136
69
222
127
64
0
0
0
0
0
0
205
30
30
238
35
35
130
19
19
90
13
13
238
35
35
130
19
19
130
19
19
238
35
35
205
30
30
0
0
0
0
0
0
0
0
0
0
0
0
0
0
0
0
0
0
0
0
0
0
0
0
118
15
153
182
24
235
182
24
235
182
24
235
182
24
235
182
24
235
182
24
235
182
24
235
182
24
235
0
0
0
0
0
0
53
105
174
53
105
174
53
105
174
53
105
174
53
105
174
53
105
174
53
105
174
53
105
174
53
105
174
0
0
0
0
0
0
52
254
86
50
243
82
52
251
85
52
251
85
50
243
82
52
251
85
52
251
85
50
243
82
50
243
82
0
0
0
0
0
0
0
0
0
246
250
4
246
250
4
246
250
4
246
250
4
246
250
4
246
250
4
246
250
4
246
250
4
0
0
0
0
0
0
90
52
26
244
139
71
244
139
71
244
139
71
244
139
71
244
139
71
244
139
71
244
139
71
244
139
71
0
0
0
0
0
0
246
36
36
238
35
35
246
36
36
246
36
36
238
35
35
246
36
36
246
36
36
238
35
35
246
36
36
0
0
0
0
0
0
0
0
0
0
0
0
0
0
0
0
0
0
0
0
0
0
0
0
0
0
0
0
0
0
0
0
0
192
24
248
0
0
0
153
20
198
182
24
235
0
0
0
0
0
0
0
0
0
0
0
0
0
0
0
0
0
0
53
105
174
53
105
174
0
0
0
55
109
182
53
105
174
0
0
0
0
0
0
0
0
0
0
0
0
0
0
0
0
0
0
52
251
85
52
254
86
0
0
0
52
254
86
52
251
85
0
0
0
0
0
0
0
0
0
0
0
0
0
0
0
0
0
0
79
81
1
240
244
4
0
0
0
0
0
0
240
244
4
0
0
0
0
0
0
0
0
0
0
0
0
0
0
0
0
0
0
0
0
0
254
145
73
0
0
0
154
88
45
238
136
69
0
0
0
0
0
0
0
0
0
0
0
0
0
0
0
0
0
0
205
30
30
255
37
37
0
0
0
205
30
30
205
30
30
0
0
0
0
0
0
0
0
0
0
0
0
0
0
0
0
0
0
0
0
0
0
0
0
0
0
0
0
0
0
99
13
128
153
20
198
68
9
87
0
0
0
68
9
87
25
3
33
44
5
57
59
8
76
153
20
198
0
0
0
0
0
0
44
88
145
44
88
145
20
39
65
7
15
24
20
39
65
0
0
0
20
39
65
29
57
95
44
88
145
0
0
0
0
0
0
45
216
73
32
158
53
19
92
31
0
0
0
19
92
31
0
0
0
19
92
31
43
209
71
43
209
71
0
0
0
0
0
0
0
0
0
204
208
3
91
93
2
91
93
2
91
93
2
91
93
2
91
93
2
91
93
2
204
208
3
0
0
0
0
0
0
83
47
24
205
117
59
90
52
26
0
0
0
90
52
26
59
33
17
90
52
26
174
99
50
205
117
59
0
0
0
0
0
0
205
30
30
205
30
30
90
13
13
0
0
0
90
13
13
34
5
5
90
13
13
79
12
12
205
30
30
0
0
0
0
0
0
0
0
0
0
0
0
0
0
0
0
0
0
0
0
0
0
0
0
0
0
0
0
0
0
0
0
0
0
0
0
0
0
0
0
0
0
0
0
0
0
0
0
0
0
0
0
0
0
0
0
0
0
0
0
0
0
0
0
0
0
0
0
0
0
0
0
0
0
0
0
0
0
0
0
0
0
0
0
0
0
0
0
0
0
0
0
0
0
0
0
0
0
0
0
0
0
0
0
0
0
0
0
0
0
0
0
0
0
0
0
0
0
0
0
0
0
0
0
0
0
0
0
0
0
0
0
0
0
0
0
0
0
0
0
0
0
0
0
0
0
0
0
0
0
0
0
0
0
0
0
0
0
0
0
0
0
0
0
0
0
0
0
0
0
0
0
0
0
0
0
0
0
0
0
0
0
0
0
0
0
0
0
0
0
0
0
0
0
0
0
0
0
0
0
0
0
0
0
0
0
0
0
0
0
0
0
0
0
0
0
0
0
0
0
0
0
0
0
0
0
0
0
0
0
0
0
0
0
0
0
0
0
0
0
0
0
0
0
0
0
0
0
0
0
0
0
0
0
0
0
0
0
0
0
0
0
0
0
0
0
0
0
0
0
0
0
0
0
0
0
0
0
0
0
0
0
0
0
0
0
0
0
0
0
0
0
0
0
0
0
0
0
0
0
0
0
0
0
0
0
0
0
0
0
0
0
0
0
0
0
0
0
0
0
0
0
0
0
0
0
0
0
0
0
0
0
0
0
0
0
0
0
0
0
0
0
0
0
0
0
0
0
0
0
0
0
0
0
0
0
0
0
0
0
0
0
0
0
0
0
0
0
0
0
0
0
0
0
0
0
0
0
0
0
0
0
0
0
0
0
0
0
0
0
0
0
0
0
0
0
0
0
0
0
0
0
0
0
0
0
0
0
0
0
0
0
0
0
0
0
0
0
0
0
0
0
0
0
0
0
0
0
0
0
0
0
0
0
0
0
0
0
0
0
0
0
0
0
0
0
0
0
0
0
0
0
0
0
0
0
0
0
0
0
0
0
0
0
0
0
0
0
0
0
0
0
0
0
0
0
0
0
0
0
0
0
0
0
0
0
0
0
0
0
0
0
0
0
0
0
0
0
0
0
0
0
0
0
0
0
0
0
0
0
0
0
0
0
0
0
0
0
0
0
0
0
0
0
0
0
0
0
0
0
0
0
0
0
0
0
0
0
0
0
0
0
0
0
0
0
0
0
0
0
0
0
0
0
0
0
0
0
0
0
0
0
0
0
0
0
0
0
0
0
0
0
0
0
0
0
0
0
0
0
0
0
0
0
0
0
0
0
0
0
0
0
0
0
0
0
0
0
0
0
0
0
0
0
0
0
0
0
0
0
0
0
0
0
0
0
0
0
0
0
0
0
0
0
0
0
0
0
0
0
0
0
0
0
0
0
0
0
0
0
0
0
0
0
0
0
0
0
0
0
0
0
0
0
0
0
0
0
0
0
0
0
0
0
0
0
0
0
0
0
0
0
0
0
0
0
0
0
0
0
0
0
0
0
0
0
0
0
0
0
0
0
0
0
0
0
0
0
0
0
0
0
0
0
0
0
0
0
0
0
0
0
0
0
0
0
0
0
0
0
0
0
0
0
0
0
0
0
0
0
0
0
0
0
0
0
0
0
0
0
0
0
0
0
0
0
0
0
0
0
0
0
0
0
0
0
0
0
0
0
0
0
0
0
0
0
0
0
0
0
0
0
0
0
0
0
0
0
0
0
0
0
0
0
0
0
0
0
0
0
0
0
0
0
0
0
0
0
0
0
0
0
0
0
0
0
0
0
0
0
0
0
0
0
0
0
0
0
0
0
0
0
0
0
0
0
0
0
0
0
0
0
0
0
0
0
0
0
0
0
0
0
0
0
0
0
0
0
0
0
0
0
0
0
0
0
0
0
0
0
0
0
0
0
0
0
0
0
0
0
0
0
0
0
0
0
0
0
0
0
0
0
0
0
0
0
0
0
0
0
0
0
0
0
0
0
0
0
0
0
0
0
0
0
0
0
0
0
0
0
0
0
0
0
0
0
0
0
0
0
0
0
0
0
0
0
0
0
0
0
0
0
0
0
0
0
0
0
0
0
0
0
0
0
0
0
0
0
0
0
0
0
0
0
0
0
0
0
0
0
0
0
0
0
0
0
0
0
0
0
0
0
0
0
0
0
0
0
0
0
0
0
0
0
0
0
0
0
0
0
0
0
0
0
0
0
0
0
0
0
0
0
0
0
0
0
0
0
0
0
0
0
0
0
0
0
0
0
0
0
0
0
0
0
0
0
0
0
0
0
0
0
0
0
0
0
0
0
0
0
0
0
0
0
0
0
0
0
0
0
0
0
0
0
0
0
0
0
0
0
0
0
0
0
0
0
0
0
0
0
0
0
0
0
0
0
0
0
0
0
0
0
0
0
0
0
0
0
0
0
0
0
0
0
0
0
0
0
0
0
0
0
0
0
0
0
0
0
0
0
0
0
0
0
0
0
0
0
0
0
0
0
0
0
0
0
0
0
0
0
0
0
0
0
0
0
0
0
0
0
0
0
0
0
0
0
0
0
0
0
0
0
0
0
0
0
0
0
0
0
0
0
0
0
0
0
0
0
0
0
0
0
0
0
0
0
0
0
0
0
0
0
0
0
0
0
0
0
0
0
0
0
0
0
30
127
246
27
124
249
25
122
252
25
122
252
0
37
95
0
0
0
0
0
0
0
0
0
0
0
0
0
0
0
0
0
0
0
0
0
0
0
0
0
0
0
0
0
0
0
0
0
0
0
0
0
0
0
0
0
0
0
0
0
0
0
0
0
0
0
0
0
0
0
0
0
0
0
0
0
0
0
0
0
0
0
0
0
0
0
0
0
0
0
0
0
0
0
0
0
0
0
0
0
0
0
0
0
0
0
0
0
0
0
0
0
0
0
0
0
0
0
0
0
0
0
0
0
0
0
0
0
0
0
0
0
0
0
0
0
0
0
0
0
0
0
0
0
0
0
0
0
0
0
0
0
0
0
0
0
0
0
0
0
0
0
0
0
0
0
0
0
0
0
0
0
0
0
0
0
0
0
0
0
0
0
0
0
0
0
0
0
0
0
0
0
0
0
0
0
0
0
0
0
0
0
0
0
0
0
0
0
0
0
0
0
0
110
240
23
22
119
254
49
150
220
113
245
0
113
245
0
97
219
98
36
79
8
0
0
0
0
0
0
0
0
0
0
0
0
0
0
0
0
0
0
0
0
0
0
0
0
0
0
0
0
0
0
0
0
0
0
0
0
0
0
0
0
0
0
0
0
0
0
0
0
0
0
0
0
0
0
0
0
0
0
0
0
0
0
0
0
0
0
0
0
0
0
0
0
0
0
0
0
0
0
0
0
0
0
0
0
0
0
0
0
0
0
0
0
0
0
0
0
0
0
0
0
0
0
0
0
0
0
0
0
0
0
0
0
0
0
0
0
0
0
0
0
0
0
0
0
0
0
0
0
0
0
0
0
0
0
0
0
0
0
0
0
0
0
0
0
0
0
0
0
0
0
0
0
0
0
0
0
0
0
0
0
0
0
0
0
0
0
0
0
0
0
0
0
0
0
0
0
0
0
0
0
0
0
0
0
0
0
0
0
0
0
0
0
30
127
246
22
119
254
30
127
246
30
127
246
22
119
254
11
111
255
49
150
220
49
150
220
113
245
0
0
0
0
0
0
0
0
0
0
0
0
0
0
0
0
0
0
0
0
0
0
0
0
0
0
0
0
0
0
0
0
0
0
0
0
0
0
0
0
0
0
0
0
0
0
0
0
0
0
0
0
0
0
0
0
0
0
0
0
0
0
0
0
0
0
0
0
0
0
0
0
0
0
0
0
0
0
0
0
0
0
0
0
0
0
0
0
0
0
0
0
0
0
0
0
0
0
0
0
0
0
0
0
0
0
0
0
0
0
0
0
0
0
0
0
0
0
0
0
0
0
0
0
0
0
0
0
0
0
0
0
0
0
0
0
0
0
0
0
0
0
0
0
0
0
0
0
0
0
0
0
0
0
0
0
0
0
0
0
0
0
0
0
0
0
0
0
0
0
0
0
0
0
0
0
0
0
0
0
0
0
0
0
42
91
9
113
245
0
75
186
167
110
240
23
110
240
23
42
141
230
30
127
246
30
127
246
69
177
182
110
240
23
110
240
23
71
156
15
0
0
0
0
0
0
0
0
0
0
0
0
0
0
0
0
0
0
0
0
0
0
0
0
0
0
0
0
0
0
0
0
0
0
0
0
0
0
0
0
0
0
0
0
0
0
0
0
0
0
0
0
0
0
0
0
0
0
0
0
0
0
0
0
0
0
0
0
0
0
0
0
0
0
0
0
0
0
0
0
0
0
0
0
0
0
0
0
0
0
0
0
0
0
0
0
0
0
0
0
0
0
0
0
0
0
0
0
0
0
0
0
0
0
0
0
0
0
0
0
0
0
0
0
0
0
0
0
0
0
0
0
0
0
0
0
0
0
0
0
0
0
0
0
0
0
0
0
0
0
0
0
0
0
0
0
0
0
0
0
0
0
0
0
0
0
0
0
0
0
0
0
0
0
0
0
0
0
0
0
71
156
15
110
240
23
110
240
23
110
240
23
110
240
23
53
155
213
30
127
246
30
127
246
30
127
246
100
225
83
110
240
23
113
245
0
0
0
0
0
0
0
0
0
0
0
0
0
0
0
0
0
0
0
0
0
0
0
0
0
0
0
0
0
0
0
0
0
0
0
0
0
0
0
0
0
0
0
0
0
0
0
0
0
0
0
0
0
0
0
0
0
0
0
0
0
0
0
0
0
0
0
0
0
0
0
0
0
0
0
0
0
0
0
0
0
0
0
0
0
0
0
0
0
0
0
0
0
0
0
0
0
0
0
0
0
0
0
0
0
0
0
0
0
0
0
0
0
0
0
0
0
0
0
0
0
0
0
0
0
0
0
0
0
0
0
0
0
0
0
0
0
0
0
0
0
0
0
0
0
0
0
0
0
0
0
0
0
0
0
0
0
0
0
0
0
0
0
0
0
0
0
0
0
0
0
0
0
0
0
0
0
0
0
0
0
71
156
15
110
240
23
110
240
23
113
245
0
110
240
23
53
155
213
30
127
246
30
127
246
30
127
246
110
240
23
113
245
0
113
245
0
0
0
0
0
0
0
0
0
0
0
0
0
0
0
0
0
0
0
0
0
0
0
0
0
0
0
0
0
0
0
0
0
0
0
0
0
0
0
0
0
0
0
0
0
0
0
0
0
0
0
0
0
0
0
0
0
0
0
0
0
0
0
0
0
0
0
0
0
0
0
0
0
0
0
0
0
0
0
0
0
0
0
0
0
0
0
0
0
0
0
0
0
0
0
0
0
0
0
0
0
0
0
0
0
0
0
0
0
0
0
0
0
0
0
0
0
0
0
0
0
0
0
0
0
0
0
0
0
0
0
0
0
0
0
0
0
0
0
0
0
0
0
0
0
0
0
0
0
0
0
0
0
0
0
0
0
0
0
0
0
0
0
0
0
0
0
0
0
0
0
0
0
0
0
0
0
0
0
0
0
71
156
15
110
240
23
110
240
23
22
119
254
113
245
0
53
155
213
30
127
246
30
127
246
30
127
246
97
219
98
27
124
249
113
245
0
0
0
0
0
0
0
0
0
0
0
0
0
0
0
0
0
0
0
0
0
0
0
0
0
0
0
0
0
0
0
0
0
0
0
0
0
0
0
0
0
0
0
0
0
0
0
0
0
0
0
0
0
0
0
0
0
0
0
0
0
0
0
0
0
0
0
0
0
0
0
0
0
0
0
0
0
0
0
0
0
0
0
0
0
0
0
0
0
0
0
0
0
0
0
0
0
0
0
0
0
0
0
0
0
0
0
0
0
0
0
0
0
0
0
0
0
0
0
0
0
0
0
0
0
0
0
0
0
0
0
0
0
0
0
0
0
0
0
0
0
0
0
0
0
0
0
0
0
0
0
0
0
0
0
0
0
0
0
0
0
0
0
0
0
0
0
0
0
0
0
0
0
0
0
0
0
0
0
0
0
71
156
15
110
240
23
113
245
0
30
127
246
30
127
246
30
127
246
30
127
246
30
127
246
27
124
249
113
245
0
113
245
0
30
127
246
0
0
0
0
0
0
0
0
0
0
0
0
0
0
0
0
0
0
0
0
0
0
0
0
0
0
0
0
0
0
0
0
0
0
0
0
0
0
0
0
0
0
0
0
0
0
0
0
0
0
0
0
0
0
0
0
0
0
0
0
0
0
0
0
0
0
0
0
0
0
0
0
0
0
0
0
0
0
0
0
0
0
0
0
0
0
0
0
0
0
0
0
0
0
0
0
0
0
0
0
0
0
0
0
0
0
0
0
0
0
0
0
0
0
0
0
0
0
0
0
0
0
0
0
0
0
0
0
0
0
0
0
0
0
0
0
0
0
0
0
0
0
0
0
0
0
0
0
0
0
0
0
0
0
0
0
0
0
0
0
0
0
0
0
0
0
0
0
0
0
0
0
0
0
0
0
0
0
0
0
0
0
0
113
245
0
113
245
0
30
127
246
30
127
246
97
219
98
113
245
0
22
119
254
97
219
98
30
127
246
30
127
246
0
0
0
0
0
0
0
0
0
0
0
0
0
0
0
0
0
0
0
0
0
0
0
0
0
0
0
0
0
0
0
0
0
0
0
0
0
0
0
0
0
0
0
0
0
0
0
0
0
0
0
0
0
0
0
0
0
0
0
0
0
0
0
0
0
0
0
0
0
0
0
0
0
0
0
0
0
0
0
0
0
0
0
0
0
0
0
0
0
0
0
0
0
0
0
0
0
0
0
0
0
0
0
0
0
0
0
0
0
0
0
0
0
0
0
0
0
0
0
0
0
0
0
0
0
0
0
0
0
0
0
0
0
0
0
0
0
0
0
0
0
0
0
0
0
0
0
0
0
0
0
0
0
0
0
0
0
0
0
0
0
0
0
0
0
0
0
0
0
0
0
0
0
0
0
0
0
0
0
0
0
0
0
0
0
0
0
0
0
71
156
15
30
127
246
30
127
246
103
230
68
110
240
23
110
240
23
53
155
213
30
127
246
20
86
167
0
0
0
0
0
0
0
0
0
0
0
0
0
0
0
0
0
0
0
0
0
0
0
0
0
0
0
0
0
0
0
0
0
0
0
0
0
0
0
0
0
0
0
0
0
0
0
0
0
0
0
0
0
0
0
0
0
0
0
0
0
0
0
0
0
0
0
0
0
0
0
0
0
0
0
0
0
0
0
0
0
0
0
0
0
0
0
0
0
0
0
0
0
0
0
0
0
0
0
0
0
0
0
0
0
0
0
0
0
0
0
0
0
0
0
0
0
0
0
0
0
0
0
0
0
0
0
0
0
0
0
0
0
0
0
0
0
0
0
0
0
0
0
0
0
0
0
0
0
0
0
0
0
0
0
0
0
0
0
0
0
0
0
0
0
0
0
0
0
0
0
0
0
0
0
0
0
0
0
0
0
0
0
0
0
0
0
0
0
0
0
0
27
124
249
113
245
0
110
240
23
110
240
23
110
240
23
53
155
213
0
0
0
0
0
0
0
0
0
0
0
0
0
0
0
0
0
0
0
0
0
0
0
0
0
0
0
0
0
0
0
0
0
0
0
0
0
0
0
0
0
0
0
0
0
0
0
0
0
0
0
0
0
0
0
0
0
0
0
0
0
0
0
0
0
0
0
0
0
0
0
0
0
0
0
0
0
0
0
0
0
0
0
0
0
0
0
0
0
0
0
0
0
0
0
0
0
0
0
0
0
0
0
0
0
0
0
0
0
0
0
0
0
0
0
0
0
0
0
0
0
0
0
0
0
0
0
0
0
0
0
0
0
0
0
0
0
0
0
0
0
0
0
0
0
0
0
0
0
0
0
0
0
0
0
0
0
0
0
0
0
0
0
0
0
0
0
0
0
0
0
0
0
0
0
0
0
0
0
0
0
0
0
0
0
0
0
0
0
0
0
0
0
0
0
0
0
0
0
0
0
42
91
9
42
91
9
42
91
9
42
91
9
7
34
12
0
0
0
0
0
0
0
0
0
0
0
0
0
0
0
0
0
0
0
0
0
0
0
0
0
0
0
0
0
0
0
0
0
0
0
0
0
0
0
0
0
0
0
0
0
0
0
0
0
0
0
0
0
0
0
0
0
0
0
0
0
0
0
0
0
0
0
0
0
0
0
0
0
0
0
0
0
0
0
0
0
0
0
0
0
0
0
0
0
0
0
0
0
0
0
0
0
0
0
0
0
0
0
0
0
0
0
0
0
0
0
0
0
0
0
0
0
0
0
0
0
0
0
0
0
0
0
0
0
0
0
0
0
0
0
0
0
0
0
0
0
0
0
0
0
0
0
0
0
0
0
0
0
0
0
0
0
0
0
0
0
0
0
0
0
0
0
0
0
0
0
0
0
0
0
0
0
0
0
0
0
0
0
0
0
0
0
0
0
0
0
0
0
0
0
0
0
0
0
0
0
0
0
0
0
0
0
0
0
0
0
0
0
0
0
0
0
0
0
0
0
0
0
0
0
0
0
0
0
0
0
0
0
0
0
0
0
0
0
0
0
0
0
0
0
0
0
0
0
0
0
0
0
0
0
0
0
0
0
0
0
0
0
0
0
0
0
0
0
0
0
0
0
0
0
0
0
0
0
0
0
0
0
0
0
0
0
0
0
0
0
0
0
0
0
0
0
0
0
0
0
0
0
0
0
0
0
0
0
0
0
0
0
0
0
0
0
0
0
0
0
0
0
0
0
0
0
0
0
0
0
0
0
0
0
0
0
0
0
0
0
0
0
0
0
0
0
0
0
0
0
0
0
0
0
0
0
0
0
0
0
0
0
0
0
0
0
0
0
0
0
0
0
0
0
0
0
0
0
0
0
0
0
0
0
0
0
0
0
0
0
0
0
0
0
0
0
0
0
0
0
0
0
0
0
0
0
0
0
0
0
0
0
0
0
0
0
0
0
0
0
0
0
0
0
0
0
0
0
0
0
0
0
0
0
0
0
0
0
0
0
0
0
0
0
0
0
0
0
0
0
0
0
0
0
0
0
0
0
0
0
0
0
0
0
0
0
0
0
0
0
0
0
0
0
0
0
0
0
0
0
0
0
0
0
0
0
0
0
0
0
0
0
0
0
0
0
0
0
0
0
0
0
0
0
0
0
0
0
0
0
0
0
0
0
0
0
0
0
0
0
0
0
0
0
0
0
0
0
0
0
