P3
72 72
255
0
0
0
0
0
0
0
0
0
0
0
0
0
0
0
0
0
0
0
0
0
0
0
0
0
0
0
0
0
0
0
0
0
0
0
0
0
0
0
0
0
0
0
0
0
0
0
0
0
0
0
0
0
0
0
0
0
0
0
0
0
0
0
0
0
0
0
0
0
0
0
0
0
0
0
0
0
0
0
0
0
0
0
0
0
0
0
0
0
0
0
0
0
0
0
0
0
0
0
0
0
0
0
0
0
0
0
0
0
0
0
0
0
0
0
0
0
0
0
0
0
0
0
0
0
0
0
0
0
0
0
0
0
0
0
0
0
0
0
0
0
0
0
0
0
0
0
0
0
0
0
0
0
0
0
0
0
0
0
0
0
0
0
0
0
0
0
0
0
0
0
0
0
0
0
0
0
0
0
0
0
0
0
0
0
0
0
0
0
0
0
0
0
0
0
0
0
0
0
0
0
0
0
0
0
0
0
0
0
0
0
0
0
0
0
0
0
0
0
0
0
0
0
0
0
0
0
0
0
0
0
0
0
0
0
0
0
0
0
0
0
0
0
0
0
0
0
0
0
0
0
0
0
0
0
0
0
0
0
0
0
0
0
0
0
0
0
0
0
0
0
0
0
157
157
157
151
151
151
147
147
147
147
147
147
147
147
147
159
159
159
166
166
166
62
62
62
0
0
0
0
0
0
0
0
0
0
0
0
0
0
0
0
0
0
0
0
0
0
0
0
0
0
0
0
0
0
0
0
0
0
0
0
0
0
0
0
0
0
0
0
0
0
0
0
0
0
0
0
0
0
0
0
0
0
0
0
0
0
0
0
0
0
0
0
0
0
0
0
0
0
0
0
0
0
0
0
0
0
0
0
0
0
0
0
0
0
0
0
0
0
0
0
0
0
0
0
0
0
0
0
0
0
0
0
0
0
0
0
0
0
0
0
0
0
0
0
0
0
0
0
0
0
0
0
0
0
0
0
0
0
0
0
0
0
0
0
0
0
0
0
0
0
0
0
0
0
0
0
0
0
0
0
0
0
0
0
0
0
0
0
0
0
0
0
0
0
0
0
0
0
0
0
0
0
0
0
0
0
0
0
0
0
0
0
0
91
91
91
157
157
157
147
147
147
157
157
157
147
147
147
151
151
151
159
159
159
162
162
162
166
166
166
0
0
0
0
0
0
0
0
0
0
0
0
0
0
0
0
0
0
0
0
0
0
0
0
0
0
0
0
0
0
0
0
0
0
0
0
0
0
0
0
0
0
0
0
0
0
0
0
0
0
0
0
0
0
0
0
0
0
0
0
0
0
0
0
0
0
0
0
0
0
0
0
0
0
0
0
0
0
0
0
0
0
0
0
0
0
0
0
0
0
0
0
0
0
0
0
0
0
0
0
0
0
0
0
0
0
0
0
0
0
0
0
0
0
0
0
0
0
0
0
0
0
0
0
0
0
0
0
0
0
0
0
0
0
0
0
0
0
0
0
0
0
0
0
0
0
0
0
0
0
0
0
0
0
0
0
0
0
0
0
0
0
0
0
0
0
0
0
0
0
0
0
0
0
0
0
0
0
0
0
0
0
0
0
0
0
127
127
127
147
147
147
127
127
127
147
147
147
127
127
127
147
147
147
127
127
127
159
159
159
166
166
166
162
162
162
162
162
162
145
145
145
0
0
0
0
0
0
0
0
0
0
0
0
0
0
0
0
0
0
0
0
0
0
0
0
0
0
0
0
0
0
0
0
0
0
0
0
0
0
0
0
0
0
0
0
0
0
0
0
0
0
0
0
0
0
0
0
0
0
0
0
0
0
0
0
0
0
0
0
0
0
0
0
0
0
0
0
0
0
0
0
0
0
0
0
0
0
0
0
0
0
0
0
0
0
0
0
0
0
0
0
0
0
0
0
0
0
0
0
0
0
0
0
0
0
0
0
0
0
0
0
0
0
0
0
0
0
0
0
0
0
0
0
0
0
0
0
0
0
0
0
0
0
0
0
0
0
0
0
0
0
0
0
0
0
0
0
0
0
0
0
0
0
0
0
0
0
0
0
0
0
0
0
0
0
0
0
0
0
0
0
0
0
0
95
95
95
147
147
147
157
157
157
0
0
0
157
157
157
51
51
51
0
0
0
166
166
166
162
162
162
0
0
0
0
0
0
0
0
0
0
0
0
0
0
0
0
0
0
0
0
0
0
0
0
0
0
0
0
0
0
0
0
0
0
0
0
0
0
0
0
0
0
0
0
0
0
0
0
0
0
0
0
0
0
0
0
0
0
0
0
0
0
0
0
0
0
0
0
0
0
0
0
0
0
0
0
0
0
0
0
0
0
0
0
0
0
0
0
0
0
0
0
0
0
0
0
0
0
0
0
0
0
0
0
0
0
0
0
0
0
0
0
0
0
0
0
0
0
0
0
0
0
0
0
0
0
0
0
0
0
0
0
0
0
0
0
0
0
0
0
0
0
0
0
0
0
0
0
0
0
0
0
0
0
0
0
0
0
0
0
0
0
0
0
0
0
0
0
0
0
0
0
0
0
0
0
0
0
0
0
0
0
0
0
0
0
0
0
0
0
0
0
0
0
0
0
0
0
0
0
0
0
0
0
0
0
0
0
0
0
0
0
0
0
0
0
0
0
0
0
0
0
0
0
0
0
0
0
0
0
0
0
0
0
0
0
0
0
0
0
0
0
0
0
0
0
0
0
0
0
0
0
0
0
0
0
0
0
0
0
0
0
0
0
0
0
0
0
0
0
0
0
0
0
0
0
0
0
0
0
0
0
0
0
0
0
0
0
0
0
0
0
0
0
0
0
0
0
0
0
0
0
0
0
0
0
0
0
0
0
0
0
0
0
0
0
0
0
0
0
0
0
0
0
0
0
0
0
0
0
0
0
0
0
0
0
0
0
0
0
0
0
0
0
0
0
0
0
0
0
0
0
0
0
0
0
0
0
0
0
0
0
0
0
0
0
0
0
0
0
0
0
0
0
0
0
0
0
0
0
0
0
0
0
0
0
0
0
0
0
0
0
0
0
0
0
0
0
0
0
0
0
0
0
0
0
0
0
0
0
0
0
0
0
0
0
0
0
0
0
0
0
0
0
0
0
0
0
0
0
0
0
0
0
0
0
0
0
0
0
0
0
0
0
0
0
0
0
0
0
0
0
0
0
0
0
0
0
0
0
0
0
0
0
0
0
0
0
0
0
0
0
0
0
0
0
0
0
0
0
0
0
0
0
0
0
0
0
0
0
0
0
0
0
0
0
0
0
0
0
0
0
0
0
0
0
0
0
0
0
0
0
0
0
0
0
0
0
0
0
0
0
0
0
0
0
0
0
0
0
0
0
0
0
0
0
0
0
0
0
0
0
0
0
0
0
0
0
0
0
0
0
0
0
0
0
0
0
0
0
0
0
0
0
0
0
0
0
0
0
0
0
0
0
0
0
0
0
0
0
0
0
0
0
0
0
0
0
0
0
0
0
0
0
0
0
0
0
0
0
0
0
0
0
0
0
0
0
0
0
0
0
0
0
0
0
0
0
0
0
0
0
0
0
0
0
0
0
0
0
0
0
0
0
0
0
0
0
0
0
0
0
0
0
0
0
0
0
0
0
0
0
0
0
0
0
0
0
0
0
0
0
0
0
0
0
0
0
0
0
0
0
0
0
0
0
0
0
0
0
0
0
0
0
0
0
0
0
0
0
0
0
0
0
0
0
0
0
0
0
0
0
0
0
0
0
0
0
0
0
0
0
0
0
0
0
0
0
0
0
0
0
0
0
0
0
0
0
0
0
0
0
0
0
0
0
0
0
0
0
0
0
0
0
0
0
0
0
0
0
0
0
0
0
0
0
0
0
0
0
0
0
0
0
0
0
0
0
0
0
0
0
0
0
0
0
0
0
0
0
0
0
0
0
0
0
0
0
0
0
0
0
0
0
0
0
0
0
0
0
0
0
0
0
0
0
0
0
0
0
0
0
0
0
0
0
0
0
0
0
0
0
0
0
0
0
0
0
0
0
0
0
0
0
0
0
0
0
0
0
0
0
0
0
0
0
0
0
0
0
0
0
0
0
0
0
0
0
0
0
0
0
0
0
0
0
0
0
0
0
0
0
0
0
0
0
0
0
0
0
0
0
0
0
0
0
0
0
0
0
0
0
0
0
0
0
0
0
0
0
0
0
0
0
0
0
0
0
0
0
0
0
0
0
0
0
0
0
0
0
0
0
0
0
0
0
0
0
0
0
0
0
0
0
0
0
0
0
0
0
0
0
0
0
0
0
0
0
0
0
0
0
0
0
0
0
0
0
0
0
0
0
0
0
0
0
0
0
0
0
0
0
0
0
0
0
0
0
0
0
0
0
0
0
0
0
0
0
0
0
0
0
0
0
0
0
0
0
0
0
0
0
0
0
0
0
0
0
0
0
0
0
0
0
0
0
0
0
0
0
0
0
0
0
0
0
0
0
0
0
0
0
0
0
0
0
0
0
0
0
0
0
0
0
0
0
0
0
0
0
0
0
0
0
0
0
0
0
0
0
0
0
0
0
0
0
0
0
0
0
0
0
0
0
0
0
0
0
0
0
0
0
0
0
0
0
0
0
0
0
0
0
0
0
0
0
0
0
0
0
0
0
0
0
0
0
0
0
0
0
0
0
0
0
0
0
0
0
0
0
0
0
0
0
0
0
0
0
0
0
0
0
0
0
0
0
0
0
0
0
0
0
0
0
0
0
0
0
0
0
0
0
0
0
0
0
0
0
0
0
0
0
0
0
0
0
0
0
0
0
0
0
0
0
0
0
0
0
0
0
0
0
0
0
0
0
0
0
0
0
0
0
0
0
0
0
0
0
0
0
0
0
0
0
0
0
0
0
0
0
0
0
0
0
0
0
0
0
0
0
0
0
0
0
0
0
0
0
0
0
0
0
0
0
0
0
0
0
0
0
0
0
0
0
0
0
0
0
0
0
0
0
0
0
0
0
0
0
0
0
0
0
0
0
0
0
0
0
0
0
0
0
0
0
0
0
0
0
0
0
0
0
0
0
0
0
0
0
0
0
0
0
0
0
0
0
0
0
0
0
0
0
0
0
0
0
0
0
0
0
0
0
0
0
0
0
0
0
0
0
0
0
0
0
0
0
0
0
0
0
0
0
0
0
0
0
0
0
0
0
0
0
0
0
0
0
0
0
0
0
0
0
0
0
0
0
0
0
0
0
0
0
0
0
0
0
0
0
0
0
0
0
0
0
0
0
0
0
0
0
0
0
0
0
0
0
0
0
0
0
0
0
0
0
0
0
0
0
0
0
0
0
0
0
0
0
0
0
0
0
0
0
0
0
0
0
0
0
0
0
0
0
0
0
0
0
0
0
0
0
0
0
0
0
0
0
0
0
0
0
0
0
0
0
0
0
0
0
0
0
0
0
0
0
0
0
0
0
0
0
0
0
0
0
0
0
0
0
0
0
0
0
0
0
0
0
0
0
0
0
0
0
0
0
0
0
0
0
0
0
0
0
0
0
0
0
0
0
0
0
0
0
0
0
0
0
0
0
0
0
0
0
0
0
0
0
0
0
0
0
0
0
0
0
0
0
0
0
0
0
0
0
0
0
0
0
0
0
0
0
0
0
0
0
0
0
0
0
0
0
0
0
0
0
0
0
0
0
0
0
0
0
0
0
0
0
0
0
0
0
0
0
0
0
0
0
0
0
0
0
0
0
0
0
0
0
0
0
0
0
0
0
0
0
0
0
0
0
0
0
0
0
0
0
0
0
0
0
0
0
0
0
0
0
0
0
0
0
0
0
0
0
0
0
0
0
0
0
0
0
0
0
0
0
0
0
0
0
0
0
0
0
0
0
0
0
0
0
0
0
0
0
0
0
0
0
0
0
0
0
0
0
0
0
0
0
0
0
0
0
0
0
0
0
0
0
0
0
0
0
0
0
0
0
0
0
0
0
0
0
0
0
0
0
0
0
0
0
0
0
0
0
0
0
0
0
0
0
0
0
0
0
0
0
0
0
0
0
0
0
0
0
0
0
0
0
0
0
0
0
0
0
0
0
0
0
0
0
0
0
0
0
0
0
0
0
0
0
0
0
0
0
0
0
0
0
0
0
0
0
0
0
0
0
0
0
0
0
0
0
0
0
0
0
0
0
0
0
0
0
0
0
0
0
0
0
0
0
0
0
0
0
0
0
0
0
0
0
0
0
0
0
0
0
0
0
0
0
0
0
0
0
0
0
0
0
0
0
0
0
0
0
0
0
0
0
0
0
0
0
0
0
0
0
0
0
0
0
0
0
0
0
0
0
0
0
0
0
0
0
0
0
0
0
0
0
0
0
0
0
0
0
0
0
0
0
0
0
0
0
0
0
0
0
0
0
0
0
0
0
0
0
0
0
0
0
0
0
0
0
0
0
0
0
0
0
0
0
0
0
0
0
0
0
0
0
0
0
0
0
0
0
0
0
0
0
0
0
0
0
0
0
0
0
0
0
0
0
0
0
0
0
0
0
0
0
0
0
0
0
0
0
0
0
0
0
0
0
0
0
0
0
0
0
0
0
0
0
0
0
0
0
0
0
0
0
0
0
0
0
0
0
0
0
0
0
0
0
0
0
0
0
0
0
0
0
0
0
0
0
0
0
0
0
0
0
0
0
0
0
0
0
0
0
0
0
0
0
0
0
0
0
0
0
0
0
0
0
0
0
0
0
0
0
0
0
0
0
0
0
0
0
0
0
0
0
0
0
0
0
0
0
0
0
0
0
0
0
0
0
0
0
0
0
0
0
0
0
0
0
0
0
0
0
0
0
0
0
0
0
0
0
0
0
0
0
0
0
0
0
0
0
0
0
0
0
0
0
0
0
0
0
0
0
0
0
0
0
0
0
0
0
0
0
0
0
0
0
0
0
0
0
0
0
0
0
0
0
0
0
0
0
0
0
0
0
0
0
0
0
0
0
0
0
0
0
0
0
0
0
0
0
0
0
0
0
0
0
0
0
0
0
0
0
0
0
0
0
0
0
0
0
0
0
0
0
0
0
0
0
0
0
0
0
0
0
0
0
0
0
0
0
0
0
0
0
0
0
0
0
0
0
0
0
0
0
0
0
0
0
0
0
0
0
0
0
0
0
0
0
0
0
0
0
0
0
0
0
0
0
0
0
0
0
0
0
0
0
0
0
0
0
0
0
0
0
0
0
0
0
0
0
0
0
0
0
0
0
0
0
0
0
0
0
0
0
0
0
0
0
0
0
0
0
0
0
0
0
0
0
0
0
0
0
0
0
0
0
0
0
0
0
0
0
0
0
0
0
0
0
0
0
0
0
0
0
0
0
0
0
0
0
0
0
0
0
0
0
0
0
0
0
0
0
0
0
0
0
0
0
0
0
0
0
0
0
0
0
0
0
0
0
0
0
0
0
0
0
0
0
0
0
0
0
0
0
0
0
0
0
0
0
0
0
0
0
0
0
0
0
0
0
0
0
0
0
0
0
0
0
0
0
0
0
0
0
0
0
0
0
0
0
0
0
0
0
0
0
0
0
0
0
0
0
0
0
0
0
0
0
0
0
0
0
0
0
0
0
0
0
0
0
0
0
0
0
0
0
0
0
0
0
0
0
0
0
0
0
0
0
0
0
0
0
0
0
0
0
0
0
0
0
0
0
0
0
0
0
0
0
0
0
0
0
0
0
0
0
0
0
0
0
0
0
0
0
0
0
0
0
0
0
0
0
0
0
0
0
0
0
0
0
0
0
0
0
0
0
0
0
0
0
0
0
0
0
0
0
0
0
0
0
0
0
0
0
0
0
0
0
0
0
0
0
0
0
0
0
0
0
0
0
0
0
0
0
0
0
0
0
0
0
0
0
0
0
0
0
0
0
0
0
0
0
0
0
0
0
0
0
0
0
0
0
0
0
0
0
0
0
0
0
0
0
0
0
0
0
0
0
0
0
0
0
0
0
0
0
0
0
0
0
0
0
0
0
0
0
0
0
0
0
0
0
0
0
0
0
0
0
0
0
0
0
0
0
0
0
0
0
0
0
0
0
0
0
0
0
0
0
0
0
0
0
0
0
0
0
0
0
0
0
0
0
0
0
0
0
0
0
0
0
0
0
0
0
0
0
0
0
0
0
0
0
0
0
0
0
0
0
0
0
0
0
0
0
0
0
0
0
0
0
0
0
0
0
0
0
0
0
0
0
0
0
0
0
0
0
0
0
0
0
0
0
0
0
0
0
0
0
0
0
0
0
0
0
0
0
0
0
0
0
0
0
0
0
0
0
0
0
0
0
0
0
0
0
0
0
0
0
0
0
0
0
0
0
0
0
0
0
0
0
0
0
0
0
0
0
0
0
0
0
0
0
0
0
0
0
0
0
0
0
0
0
0
0
0
0
0
0
0
0
0
0
0
0
0
0
0
0
0
0
0
0
0
0
0
0
0
0
0
0
0
0
0
0
0
0
0
0
0
0
0
0
0
0
0
0
0
0
0
0
0
0
0
0
0
0
0
0
0
0
0
0
0
0
0
0
0
0
0
0
0
0
0
0
0
0
0
0
0
0
0
0
0
0
0
0
0
0
0
0
0
0
0
0
0
0
0
0
0
0
0
0
0
0
0
0
0
0
0
0
0
0
0
0
0
0
0
0
0
0
0
0
0
0
0
0
0
0
0
0
0
0
0
0
0
0
0
0
0
0
0
0
0
0
0
0
0
0
0
0
0
0
0
0
0
0
0
0
0
0
0
0
0
0
0
0
0
0
0
0
0
0
0
0
0
0
0
0
0
0
0
0
0
0
0
0
0
0
0
0
0
0
0
0
0
0
0
0
0
0
0
0
0
0
0
0
0
0
0
0
0
0
0
0
0
0
0
0
0
0
0
0
0
0
0
0
0
0
0
0
0
0
0
0
0
0
0
0
0
0
0
0
0
0
0
0
0
0
0
0
0
0
0
0
0
0
0
0
0
0
0
0
0
0
0
0
0
0
0
0
0
0
0
0
0
0
0
0
0
0
0
0
0
0
0
0
0
0
0
0
0
0
0
0
0
0
0
0
0
0
0
0
0
0
0
0
0
0
0
0
0
0
0
0
0
0
0
0
0
0
0
0
0
0
0
0
0
0
0
0
0
0
0
0
0
0
0
0
0
0
0
0
0
0
0
0
0
0
0
0
0
0
0
0
0
0
0
0
0
0
0
0
0
0
0
0
0
0
0
0
0
0
0
0
0
0
0
0
0
0
0
0
0
0
0
0
0
0
0
0
0
0
0
0
0
0
0
0
0
0
0
0
0
0
0
0
0
0
0
0
0
0
0
0
0
0
0
0
0
0
0
0
0
0
0
0
0
0
0
0
0
0
0
0
0
0
0
0
0
0
0
0
0
0
0
0
0
0
0
0
0
0
0
0
0
0
0
0
0
0
0
0
0
0
0
0
0
0
0
0
0
0
0
0
0
0
0
0
0
0
0
0
0
0
0
0
0
0
0
0
0
0
0
0
0
0
0
0
0
0
0
0
0
0
0
0
0
0
0
0
0
0
0
0
0
0
0
0
0
0
0
0
0
0
0
0
0
0
0
0
0
0
0
0
0
0
0
0
0
0
0
0
0
0
0
0
0
0
0
0
0
0
0
0
0
0
0
0
0
0
0
0
0
0
0
0
0
0
0
0
0
0
0
0
0
0
0
0
0
0
0
0
0
0
0
0
0
0
0
0
0
0
0
0
0
0
0
0
0
0
0
0
0
0
0
0
0
0
0
0
0
0
0
0
0
0
0
0
0
0
0
0
0
0
0
0
0
0
0
0
0
0
0
0
0
0
0
0
0
0
106
106
106
0
0
0
0
0
0
0
0
0
0
0
0
0
0
0
0
0
0
0
0
0
0
0
0
147
147
147
0
0
0
0
0
0
0
0
0
0
0
0
0
0
0
0
0
0
0
0
0
0
0
0
0
0
0
0
0
0
0
0
0
166
166
166
0
0
0
0
0
0
0
0
0
0
0
0
0
0
0
0
0
0
0
0
0
0
0
0
0
0
0
130
130
130
78
78
78
0
0
0
0
0
0
0
0
0
0
0
0
0
0
0
0
0
0
0
0
0
0
0
0
0
0
0
0
0
0
92
92
92
92
92
92
0
0
0
0
0
0
0
0
0
0
0
0
0
0
0
0
0
0
0
0
0
93
93
93
143
143
143
0
0
0
0
0
0
0
0
0
0
0
0
0
0
0
0
0
0
0
0
0
0
0
0
0
0
0
0
0
0
0
0
0
0
0
0
0
0
0
0
0
0
0
0
0
0
0
0
106
106
106
102
102
102
102
102
102
102
102
102
0
0
0
0
0
0
0
0
0
0
0
0
0
0
0
56
56
56
151
151
151
147
147
147
151
151
151
157
157
157
0
0
0
0
0
0
0
0
0
0
0
0
0
0
0
0
0
0
0
0
0
0
0
0
166
166
166
162
162
162
166
166
166
166
166
166
0
0
0
0
0
0
0
0
0
0
0
0
0
0
0
0
0
0
125
125
125
125
125
125
125
125
125
129
129
129
0
0
0
0
0
0
0
0
0
0
0
0
0
0
0
0
0
0
0
0
0
0
0
0
110
110
110
108
108
108
108
108
108
110
110
110
0
0
0
0
0
0
0
0
0
0
0
0
0
0
0
154
154
154
143
143
143
143
143
143
147
147
147
148
148
148
0
0
0
0
0
0
0
0
0
0
0
0
0
0
0
0
0
0
0
0
0
0
0
0
0
0
0
0
0
0
0
0
0
0
0
0
0
0
0
88
88
88
88
88
88
0
0
0
106
106
106
34
34
34
106
106
106
0
0
0
0
0
0
0
0
0
95
95
95
151
151
151
0
0
0
147
147
147
0
0
0
147
147
147
0
0
0
0
0
0
0
0
0
0
0
0
0
0
0
0
0
0
0
0
0
168
168
168
0
0
0
166
166
166
0
0
0
138
138
138
145
145
145
0
0
0
0
0
0
0
0
0
0
0
0
130
130
130
0
0
0
130
130
130
78
78
78
129
129
129
130
130
130
0
0
0
0
0
0
0
0
0
0
0
0
0
0
0
0
0
0
115
115
115
110
110
110
92
92
92
92
92
92
0
0
0
115
115
115
0
0
0
0
0
0
0
0
0
54
54
54
143
143
143
93
93
93
143
143
143
0
0
0
147
147
147
0
0
0
0
0
0
0
0
0
0
0
0
0
0
0
0
0
0
0
0
0
0
0
0
0
0
0
0
0
0
0
0
0
0
0
0
0
0
0
34
34
34
56
56
56
106
106
106
35
35
35
88
88
88
38
38
38
0
0
0
0
0
0
0
0
0
36
36
36
56
56
56
151
151
151
56
56
56
151
151
151
56
56
56
0
0
0
0
0
0
0
0
0
0
0
0
0
0
0
0
0
0
0
0
0
62
62
62
166
166
166
53
53
53
168
168
168
90
90
90
53
53
53
0
0
0
0
0
0
0
0
0
0
0
0
47
47
47
129
129
129
41
41
41
91
91
91
41
41
41
47
47
47
0
0
0
0
0
0
0
0
0
0
0
0
0
0
0
0
0
0
41
41
41
26
26
26
60
60
60
60
60
60
110
110
110
41
41
41
0
0
0
0
0
0
0
0
0
20
20
20
54
54
54
105
105
105
54
54
54
147
147
147
54
54
54
0
0
0
0
0
0
0
0
0
0
0
0
0
0
0
0
0
0
0
0
0
0
0
0
0
0
0
0
0
0
0
0
0
0
0
0
0
0
0
0
0
0
66
66
66
66
66
66
66
66
66
66
66
66
0
0
0
0
0
0
0
0
0
0
0
0
0
0
0
36
36
36
95
95
95
95
95
95
95
95
95
95
95
95
0
0
0
0
0
0
0
0
0
0
0
0
0
0
0
0
0
0
0
0
0
0
0
0
105
105
105
105
105
105
105
105
105
105
105
105
0
0
0
0
0
0
0
0
0
0
0
0
0
0
0
0
0
0
81
81
81
81
81
81
81
81
81
81
81
81
0
0
0
0
0
0
0
0
0
0
0
0
0
0
0
0
0
0
0
0
0
0
0
0
70
70
70
70
70
70
70
70
70
70
70
70
0
0
0
0
0
0
0
0
0
0
0
0
0
0
0
95
95
95
93
93
93
93
93
93
93
93
93
95
95
95
0
0
0
0
0
0
0
0
0
0
0
0
0
0
0
0
0
0
0
0
0
0
0
0
0
0
0
0
0
0
0
0
0
0
0
0
0
0
0
96
96
96
38
38
38
109
109
109
0
0
0
96
96
96
109
109
109
0
0
0
0
0
0
0
0
0
95
95
95
137
137
137
157
157
157
0
0
0
157
157
157
0
0
0
0
0
0
0
0
0
0
0
0
0
0
0
0
0
0
0
0
0
0
0
0
171
171
171
171
171
171
0
0
0
171
171
171
62
62
62
145
145
145
0
0
0
0
0
0
0
0
0
0
0
0
130
130
130
130
130
130
0
0
0
81
81
81
0
0
0
130
130
130
0
0
0
0
0
0
0
0
0
0
0
0
0
0
0
0
0
0
115
115
115
0
0
0
42
42
42
42
42
42
115
115
115
115
115
115
0
0
0
0
0
0
0
0
0
54
54
54
0
0
0
95
95
95
0
0
0
154
154
154
0
0
0
0
0
0
0
0
0
0
0
0
0
0
0
0
0
0
0
0
0
0
0
0
0
0
0
0
0
0
0
0
0
0
0
0
0
0
0
0
0
0
0
0
0
0
0
0
0
0
0
0
0
0
0
0
0
0
0
0
0
0
0
0
0
0
0
0
0
0
0
0
0
0
0
0
0
0
0
0
0
0
0
0
0
0
0
0
0
0
0
0
0
0
0
0
0
0
0
0
0
0
0
0
0
0
0
0
0
0
0
0
0
0
0
0
0
0
0
0
0
0
0
0
0
0
0
0
0
0
0
0
0
0
0
0
0
0
0
0
0
0
0
0
0
0
0
0
0
0
0
0
0
0
0
0
0
0
0
0
0
0
0
0
0
0
0
0
0
0
0
0
0
0
0
0
0
0
0
0
0
0
0
0
0
0
0
0
0
0
0
0
0
0
0
0
0
0
0
0
0
0
0
0
0
0
0
0
0
0
0
0
0
0
0
0
0
0
0
0
0
0
0
0
0
0
0
0
0
0
0
0
0
0
0
0
0
0
0
0
0
0
0
0
0
0
0
0
0
0
0
0
0
0
0
0
0
0
88
88
88
0
0
0
0
0
0
0
0
0
38
38
38
0
0
0
0
0
0
0
0
0
0
0
0
0
0
0
56
56
56
0
0
0
0
0
0
0
0
0
0
0
0
0
0
0
0
0
0
0
0
0
0
0
0
0
0
0
0
0
0
0
0
0
171
171
171
0
0
0
0
0
0
0
0
0
145
145
145
0
0
0
0
0
0
0
0
0
0
0
0
0
0
0
0
0
0
0
0
0
0
0
0
0
0
0
0
0
0
130
130
130
0
0
0
0
0
0
0
0
0
0
0
0
0
0
0
0
0
0
115
115
115
0
0
0
0
0
0
0
0
0
0
0
0
0
0
0
0
0
0
0
0
0
0
0
0
0
0
0
154
154
154
0
0
0
0
0
0
0
0
0
0
0
0
0
0
0
0
0
0
0
0
0
0
0
0
0
0
0
0
0
0
0
0
0
0
0
0
0
0
0
0
0
0
0
0
0
0
0
0
0
0
0
0
0
0
88
88
88
0
0
0
0
0
0
88
88
88
0
0
0
0
0
0
0
0
0
0
0
0
0
0
0
0
0
0
151
151
151
0
0
0
0
0
0
151
151
151
0
0
0
0
0
0
0
0
0
0
0
0
0
0
0
0
0
0
0
0
0
0
0
0
0
0
0
0
0
0
168
168
168
53
53
53
0
0
0
0
0
0
0
0
0
0
0
0
0
0
0
0
0
0
129
129
129
0
0
0
0
0
0
129
129
129
0
0
0
0
0
0
0
0
0
0
0
0
0
0
0
0
0
0
0
0
0
0
0
0
110
110
110
0
0
0
26
26
26
110
110
110
0
0
0
0
0
0
0
0
0
0
0
0
0
0
0
0
0
0
93
93
93
0
0
0
0
0
0
148
148
148
0
0
0
0
0
0
0
0
0
0
0
0
0
0
0
0
0
0
0
0
0
0
0
0
0
0
0
0
0
0
0
0
0
0
0
0
109
109
109
102
102
102
34
34
34
102
102
102
106
106
106
34
34
34
106
106
106
0
0
0
0
0
0
0
0
0
95
95
95
151
151
151
0
0
0
147
147
147
147
147
147
0
0
0
157
157
157
0
0
0
0
0
0
0
0
0
0
0
0
0
0
0
171
171
171
168
168
168
166
166
166
162
162
162
0
0
0
138
138
138
145
145
145
0
0
0
0
0
0
0
0
0
0
0
0
130
130
130
0
0
0
130
130
130
125
125
125
0
0
0
125
125
125
81
81
81
0
0
0
0
0
0
0
0
0
0
0
0
92
92
92
110
110
110
0
0
0
108
108
108
92
92
92
0
0
0
115
115
115
0
0
0
0
0
0
0
0
0
54
54
54
143
143
143
93
93
93
143
143
143
148
148
148
0
0
0
148
148
148
0
0
0
0
0
0
0
0
0
0
0
0
0
0
0
0
0
0
0
0
0
0
0
0
0
0
0
0
0
0
0
0
0
0
0
0
88
88
88
102
102
102
102
102
102
102
102
102
102
102
102
0
0
0
109
109
109
0
0
0
0
0
0
95
95
95
51
51
51
151
151
151
147
147
147
147
147
147
151
151
151
0
0
0
157
157
157
0
0
0
0
0
0
0
0
0
145
145
145
0
0
0
162
162
162
162
162
162
162
162
162
166
166
166
162
162
162
62
62
62
0
0
0
0
0
0
0
0
0
130
130
130
0
0
0
129
129
129
125
125
125
125
125
125
129
129
129
129
129
129
81
81
81
0
0
0
0
0
0
0
0
0
0
0
0
41
41
41
110
110
110
110
110
110
108
108
108
108
108
108
110
110
110
0
0
0
115
115
115
0
0
0
0
0
0
123
123
123
148
148
148
147
147
147
143
143
143
143
143
143
147
147
147
0
0
0
154
154
154
0
0
0
0
0
0
0
0
0
0
0
0
0
0
0
0
0
0
0
0
0
0
0
0
0
0
0
0
0
0
0
0
0
88
88
88
0
0
0
0
0
0
0
0
0
34
34
34
0
0
0
106
106
106
0
0
0
0
0
0
95
95
95
56
56
56
0
0
0
0
0
0
0
0
0
0
0
0
0
0
0
151
151
151
0
0
0
0
0
0
0
0
0
138
138
138
0
0
0
168
168
168
0
0
0
0
0
0
0
0
0
138
138
138
62
62
62
0
0
0
0
0
0
0
0
0
129
129
129
0
0
0
0
0
0
0
0
0
0
0
0
0
0
0
129
129
129
81
81
81
0
0
0
0
0
0
0
0
0
0
0
0
41
41
41
110
110
110
0
0
0
0
0
0
0
0
0
0
0
0
0
0
0
110
110
110
0
0
0
0
0
0
123
123
123
148
148
148
0
0
0
0
0
0
0
0
0
0
0
0
0
0
0
148
148
148
0
0
0
0
0
0
0
0
0
0
0
0
0
0
0
0
0
0
0
0
0
0
0
0
0
0
0
0
0
0
0
0
0
34
34
34
88
88
88
96
96
96
88
88
88
79
79
79
0
0
0
38
38
38
0
0
0
0
0
0
36
36
36
21
21
21
127
127
127
80
80
80
127
127
127
127
127
127
0
0
0
56
56
56
0
0
0
0
0
0
0
0
0
53
53
53
0
0
0
53
53
53
145
145
145
0
0
0
138
138
138
90
90
90
22
22
22
0
0
0
0
0
0
0
0
0
47
47
47
0
0
0
111
111
111
107
107
107
70
70
70
107
107
107
47
47
47
30
30
30
0
0
0
0
0
0
0
0
0
0
0
0
15
15
15
41
41
41
92
92
92
41
41
41
92
92
92
92
92
92
0
0
0
42
42
42
0
0
0
0
0
0
47
47
47
54
54
54
123
123
123
105
105
105
123
123
123
123
123
123
0
0
0
54
54
54
0
0
0
0
0
0
0
0
0
0
0
0
0
0
0
0
0
0
0
0
0
0
0
0
0
0
0
0
0
0
0
0
0
0
0
0
0
0
0
0
0
0
0
0
0
0
0
0
0
0
0
0
0
0
0
0
0
0
0
0
0
0
0
0
0
0
0
0
0
0
0
0
0
0
0
0
0
0
0
0
0
0
0
0
0
0
0
0
0
0
0
0
0
0
0
0
0
0
0
0
0
0
0
0
0
0
0
0
0
0
0
0
0
0
0
0
0
0
0
0
0
0
0
0
0
0
0
0
0
0
0
0
0
0
0
0
0
0
0
0
0
0
0
0
0
0
0
0
0
0
0
0
0
0
0
0
0
0
0
0
0
0
0
0
0
0
0
0
0
0
0
0
0
0
0
0
0
0
0
0
0
0
0
0
0
0
0
0
0
0
0
0
0
0
0
0
0
0
0
0
0
0
0
0
0
0
0
0
0
0
0
0
0
0
0
0
0
0
0
0
0
0
0
0
0
0
0
0
0
0
0
0
0
0
0
0
0
0
0
0
0
0
0
0
0
0
0
0
0
96
96
96
0
0
0
0
0
0
0
0
0
38
38
38
0
0
0
0
0
0
0
0
0
0
0
0
0
0
0
56
56
56
0
0
0
0
0
0
0
0
0
0
0
0
0
0
0
0
0
0
0
0
0
0
0
0
0
0
0
0
0
0
0
0
0
171
171
171
0
0
0
0
0
0
0
0
0
145
145
145
0
0
0
0
0
0
0
0
0
0
0
0
0
0
0
0
0
0
0
0
0
0
0
0
0
0
0
0
0
0
130
130
130
0
0
0
0
0
0
0
0
0
0
0
0
0
0
0
0
0
0
115
115
115
0
0
0
0
0
0
0
0
0
0
0
0
0
0
0
0
0
0
0
0
0
0
0
0
0
0
0
154
154
154
0
0
0
0
0
0
0
0
0
0
0
0
0
0
0
0
0
0
0
0
0
0
0
0
0
0
0
0
0
0
0
0
0
0
0
0
0
0
0
0
0
0
0
0
0
0
0
0
0
0
0
0
0
0
88
88
88
0
0
0
0
0
0
88
88
88
0
0
0
0
0
0
0
0
0
0
0
0
0
0
0
0
0
0
157
157
157
0
0
0
0
0
0
157
157
157
0
0
0
0
0
0
0
0
0
0
0
0
0
0
0
0
0
0
0
0
0
0
0
0
0
0
0
0
0
0
171
171
171
53
53
53
0
0
0
0
0
0
0
0
0
0
0
0
0
0
0
0
0
0
130
130
130
0
0
0
0
0
0
130
130
130
0
0
0
0
0
0
0
0
0
0
0
0
0
0
0
0
0
0
0
0
0
0
0
0
115
115
115
0
0
0
41
41
41
115
115
115
0
0
0
0
0
0
0
0
0
0
0
0
0
0
0
0
0
0
93
93
93
0
0
0
0
0
0
148
148
148
0
0
0
0
0
0
0
0
0
0
0
0
0
0
0
0
0
0
0
0
0
0
0
0
0
0
0
0
0
0
0
0
0
0
0
0
38
38
38
88
88
88
88
88
88
102
102
102
102
102
102
88
88
88
34
34
34
0
0
0
0
0
0
0
0
0
36
36
36
80
80
80
127
127
127
147
147
147
147
147
147
127
127
127
51
51
51
0
0
0
0
0
0
0
0
0
0
0
0
0
0
0
62
62
62
166
166
166
162
162
162
162
162
162
138
138
138
162
162
162
53
53
53
0
0
0
0
0
0
0
0
0
0
0
0
47
47
47
107
107
107
125
125
125
125
125
125
107
107
107
129
129
129
30
30
30
0
0
0
0
0
0
0
0
0
0
0
0
41
41
41
110
110
110
92
92
92
108
108
108
108
108
108
92
92
92
41
41
41
0
0
0
0
0
0
0
0
0
20
20
20
148
148
148
133
133
133
143
143
143
143
143
143
123
123
123
47
47
47
0
0
0
0
0
0
0
0
0
0
0
0
0
0
0
0
0
0
0
0
0
0
0
0
0
0
0
0
0
0
0
0
0
106
106
106
102
102
102
102
102
102
102
102
102
102
102
102
102
102
102
106
106
106
106
106
106
0
0
0
0
0
0
95
95
95
56
56
56
147
147
147
147
147
147
147
147
147
147
147
147
0
0
0
151
151
151
0
0
0
0
0
0
0
0
0
138
138
138
0
0
0
162
162
162
162
162
162
162
162
162
162
162
162
162
162
162
62
62
62
0
0
0
0
0
0
0
0
0
129
129
129
0
0
0
125
125
125
125
125
125
125
125
125
125
125
125
129
129
129
81
81
81
0
0
0
0
0
0
0
0
0
0
0
0
41
41
41
110
110
110
108
108
108
108
108
108
108
108
108
108
108
108
0
0
0
110
110
110
0
0
0
0
0
0
143
143
143
143
143
143
143
143
143
143
143
143
143
143
143
143
143
143
148
148
148
148
148
148
0
0
0
0
0
0
0
0
0
0
0
0
0
0
0
0
0
0
0
0
0
0
0
0
0
0
0
0
0
0
0
0
0
88
88
88
106
106
106
106
106
106
106
106
106
102
102
102
0
0
0
106
106
106
0
0
0
0
0
0
95
95
95
56
56
56
151
151
151
151
151
151
151
151
151
151
151
151
0
0
0
151
151
151
0
0
0
0
0
0
0
0
0
138
138
138
0
0
0
162
162
162
166
166
166
166
166
166
166
166
166
162
162
162
62
62
62
0
0
0
0
0
0
0
0
0
129
129
129
0
0
0
129
129
129
129
129
129
129
129
129
129
129
129
129
129
129
81
81
81
0
0
0
0
0
0
0
0
0
0
0
0
41
41
41
110
110
110
110
110
110
110
110
110
110
110
110
110
110
110
0
0
0
110
110
110
0
0
0
0
0
0
123
123
123
148
148
148
147
147
147
147
147
147
147
147
147
147
147
147
0
0
0
148
148
148
0
0
0
0
0
0
0
0
0
0
0
0
0
0
0
0
0
0
0
0
0
0
0
0
0
0
0
0
0
0
0
0
0
0
0
0
106
106
106
109
109
109
106
106
106
88
88
88
0
0
0
0
0
0
0
0
0
0
0
0
0
0
0
0
0
0
151
151
151
95
95
95
157
157
157
157
157
157
0
0
0
0
0
0
0
0
0
0
0
0
0
0
0
0
0
0
0
0
0
0
0
0
171
171
171
0
0
0
168
168
168
53
53
53
0
0
0
0
0
0
0
0
0
0
0
0
0
0
0
0
0
0
130
130
130
129
129
129
81
81
81
129
129
129
0
0
0
0
0
0
0
0
0
0
0
0
0
0
0
0
0
0
0
0
0
0
0
0
110
110
110
42
42
42
110
110
110
115
115
115
0
0
0
0
0
0
0
0
0
0
0
0
0
0
0
0
0
0
148
148
148
123
123
123
148
148
148
154
154
154
0
0
0
0
0
0
0
0
0
0
0
0
0
0
0
0
0
0
0
0
0
0
0
0
0
0
0
0
0
0
0
0
0
0
0
0
0
0
0
0
0
0
0
0
0
0
0
0
0
0
0
0
0
0
0
0
0
0
0
0
0
0
0
0
0
0
0
0
0
0
0
0
0
0
0
0
0
0
0
0
0
0
0
0
0
0
0
0
0
0
0
0
0
0
0
0
0
0
0
0
0
0
0
0
0
0
0
0
0
0
0
0
0
0
0
0
0
0
0
0
0
0
0
0
0
0
0
0
0
0
0
0
0
0
0
0
0
0
0
0
0
0
0
0
0
0
0
0
0
0
0
0
0
0
0
0
0
0
0
0
0
0
0
0
0
0
0
0
0
0
0
0
0
0
0
0
0
0
0
0
0
0
0
0
0
0
0
0
0
0
0
0
0
0
0
0
0
0
0
0
0
0
0
0
0
0
0
0
0
0
0
0
0
0
0
0
0
0
0
0
0
0
0
0
0
0
0
0
0
0
0
0
0
0
0
0
0
0
0
0
0
0
0
0
0
0
0
0
0
0
0
0
66
66
66
66
66
66
66
66
66
66
66
66
66
66
66
66
66
66
0
0
0
0
0
0
0
0
0
0
0
0
0
0
0
36
36
36
95
95
95
95
95
95
95
95
95
95
95
95
95
95
95
0
0
0
0
0
0
0
0
0
0
0
0
0
0
0
105
105
105
105
105
105
105
105
105
105
105
105
105
105
105
105
105
105
0
0
0
0
0
0
0
0
0
0
0
0
0
0
0
0
0
0
81
81
81
81
81
81
81
81
81
81
81
81
81
81
81
52
52
52
0
0
0
0
0
0
0
0
0
0
0
0
60
60
60
70
70
70
70
70
70
70
70
70
70
70
70
70
70
70
0
0
0
0
0
0
0
0
0
0
0
0
0
0
0
95
95
95
93
93
93
93
93
93
93
93
93
93
93
93
93
93
93
0
0
0
0
0
0
0
0
0
0
0
0
0
0
0
0
0
0
0
0
0
0
0
0
0
0
0
0
0
0
0
0
0
102
102
102
102
102
102
102
102
102
102
102
102
102
102
102
102
102
102
106
106
106
0
0
0
0
0
0
0
0
0
95
95
95
151
151
151
147
147
147
147
147
147
147
147
147
147
147
147
147
147
147
151
151
151
0
0
0
0
0
0
0
0
0
145
145
145
162
162
162
162
162
162
162
162
162
162
162
162
162
162
162
162
162
162
145
145
145
0
0
0
0
0
0
0
0
0
0
0
0
130
130
130
125
125
125
125
125
125
125
125
125
125
125
125
125
125
125
129
129
129
0
0
0
0
0
0
0
0
0
0
0
0
108
108
108
108
108
108
108
108
108
108
108
108
108
108
108
108
108
108
115
115
115
0
0
0
0
0
0
0
0
0
54
54
54
143
143
143
143
143
143
143
143
143
143
143
143
143
143
143
143
143
143
154
154
154
0
0
0
0
0
0
0
0
0
0
0
0
0
0
0
0
0
0
0
0
0
0
0
0
0
0
0
106
106
106
102
102
102
34
34
34
34
34
34
102
102
102
0
0
0
34
34
34
102
102
102
106
106
106
0
0
0
0
0
0
147
147
147
147
147
147
0
0
0
91
91
91
147
147
147
0
0
0
151
151
151
147
147
147
56
56
56
0
0
0
0
0
0
162
162
162
166
166
166
0
0
0
166
166
166
166
166
166
0
0
0
138
138
138
162
162
162
0
0
0
0
0
0
0
0
0
125
125
125
125
125
125
0
0
0
0
0
0
125
125
125
0
0
0
0
0
0
125
125
125
130
130
130
0
0
0
0
0
0
110
110
110
108
108
108
0
0
0
0
0
0
108
108
108
0
0
0
0
0
0
108
108
108
110
110
110
0
0
0
0
0
0
143
143
143
143
143
143
0
0
0
47
47
47
148
148
148
0
0
0
148
148
148
143
143
143
93
93
93
0
0
0
0
0
0
0
0
0
0
0
0
0
0
0
0
0
0
0
0
0
0
0
0
66
66
66
66
66
66
96
96
96
96
96
96
66
66
66
102
102
102
96
96
96
66
66
66
66
66
66
0
0
0
0
0
0
95
95
95
95
95
95
147
147
147
127
127
127
95
95
95
147
147
147
95
95
95
95
95
95
36
36
36
0
0
0
0
0
0
105
105
105
105
105
105
162
162
162
105
105
105
105
105
105
162
162
162
119
119
119
105
105
105
0
0
0
0
0
0
0
0
0
81
81
81
81
81
81
129
129
129
125
125
125
81
81
81
129
129
129
129
129
129
81
81
81
81
81
81
0
0
0
0
0
0
70
70
70
70
70
70
110
110
110
110
110
110
70
70
70
108
108
108
110
110
110
70
70
70
70
70
70
0
0
0
0
0
0
93
93
93
93
93
93
143
143
143
133
133
133
93
93
93
143
143
143
93
93
93
93
93
93
54
54
54
0
0
0
0
0
0
0
0
0
0
0
0
0
0
0
0
0
0
0
0
0
0
0
0
0
0
0
109
109
109
106
106
106
38
38
38
106
106
106
0
0
0
106
106
106
0
0
0
0
0
0
0
0
0
0
0
0
0
0
0
51
51
51
157
157
157
95
95
95
157
157
157
0
0
0
157
157
157
0
0
0
0
0
0
0
0
0
0
0
0
0
0
0
171
171
171
171
171
171
171
171
171
171
171
171
171
171
171
168
168
168
0
0
0
0
0
0
0
0
0
0
0
0
0
0
0
0
0
0
130
130
130
0
0
0
130
130
130
0
0
0
130
130
130
81
81
81
0
0
0
0
0
0
0
0
0
0
0
0
92
92
92
115
115
115
0
0
0
110
110
110
42
42
42
110
110
110
0
0
0
0
0
0
0
0
0
0
0
0
0
0
0
154
154
154
95
95
95
54
54
54
154
154
154
0
0
0
148
148
148
0
0
0
0
0
0
0
0
0
0
0
0
0
0
0
0
0
0
0
0
0
0
0
0
0
0
0
0
0
0
109
109
109
0
0
0
0
0
0
0
0
0
0
0
0
0
0
0
0
0
0
109
109
109
109
109
109
0
0
0
0
0
0
151
151
151
127
127
127
0
0
0
0
0
0
0
0
0
0
0
0
0
0
0
157
157
157
56
56
56
0
0
0
0
0
0
168
168
168
0
0
0
0
0
0
0
0
0
0
0
0
0
0
0
0
0
0
168
168
168
0
0
0
0
0
0
0
0
0
129
129
129
130
130
130
0
0
0
0
0
0
0
0
0
0
0
0
0
0
0
81
81
81
130
130
130
0
0
0
0
0
0
115
115
115
42
42
42
0
0
0
0
0
0
0
0
0
0
0
0
0
0
0
110
110
110
110
110
110
0
0
0
0
0
0
148
148
148
0
0
0
0
0
0
0
0
0
0
0
0
0
0
0
0
0
0
148
148
148
95
95
95
0
0
0
0
0
0
0
0
0
0
0
0
0
0
0
0
0
0
0
0
0
0
0
0
0
0
0
0
0
0
0
0
0
0
0
0
0
0
0
0
0
0
0
0
0
0
0
0
0
0
0
0
0
0
0
0
0
0
0
0
0
0
0
0
0
0
0
0
0
0
0
0
0
0
0
0
0
0
0
0
0
0
0
0
0
0
0
0
0
0
0
0
0
0
0
0
0
0
0
0
0
0
0
0
0
0
0
0
0
0
0
0
0
0
0
0
0
0
0
0
0
0
0
0
0
0
0
0
0
0
0
0
0
0
0
0
0
0
0
0
0
0
0
0
0
0
0
0
0
0
0
0
0
0
0
0
0
0
0
0
0
0
0
0
0
0
0
0
0
0
0
0
0
0
0
0
0
0
0
0
0
0
0
0
0
0
0
0
0
0
0
0
0
0
0
0
0
0
0
0
0
0
0
0
0
0
0
0
0
0
0
0
0
0
0
0
0
0
0
0
0
0
0
0
0
0
0
0
0
0
0
0
0
0
0
0
0
0
0
0
0
0
0
109
109
109
106
106
106
106
106
106
106
106
106
106
106
106
106
106
106
0
0
0
0
0
0
0
0
0
0
0
0
0
0
0
56
56
56
151
151
151
151
151
151
151
151
151
151
151
151
157
157
157
0
0
0
0
0
0
0
0
0
0
0
0
0
0
0
171
171
171
168
168
168
168
168
168
168
168
168
168
168
168
168
168
168
0
0
0
0
0
0
0
0
0
0
0
0
0
0
0
0
0
0
129
129
129
129
129
129
129
129
129
129
129
129
129
129
129
81
81
81
0
0
0
0
0
0
0
0
0
0
0
0
92
92
92
110
110
110
110
110
110
110
110
110
110
110
110
110
110
110
0
0
0
0
0
0
0
0
0
0
0
0
0
0
0
154
154
154
148
148
148
148
148
148
148
148
148
148
148
148
148
148
148
0
0
0
0
0
0
0
0
0
0
0
0
0
0
0
0
0
0
0
0
0
0
0
0
0
0
0
0
0
0
88
88
88
102
102
102
56
56
56
56
56
56
102
102
102
38
38
38
56
56
56
102
102
102
88
88
88
0
0
0
0
0
0
137
137
137
147
147
147
56
56
56
107
107
107
147
147
147
56
56
56
151
151
151
147
147
147
51
51
51
0
0
0
0
0
0
162
162
162
162
162
162
62
62
62
162
162
162
162
162
162
62
62
62
145
145
145
162
162
162
0
0
0
0
0
0
0
0
0
107
107
107
125
125
125
41
41
41
47
47
47
125
125
125
41
41
41
41
41
41
125
125
125
111
111
111
0
0
0
0
0
0
92
92
92
108
108
108
41
41
41
26
26
26
108
108
108
41
41
41
26
26
26
108
108
108
92
92
92
0
0
0
0
0
0
123
123
123
143
143
143
54
54
54
80
80
80
147
147
147
54
54
54
147
147
147
143
143
143
80
80
80
0
0
0
0
0
0
0
0
0
0
0
0
0
0
0
0
0
0
0
0
0
0
0
0
106
106
106
102
102
102
106
106
106
106
106
106
102
102
102
106
106
106
106
106
106
102
102
102
106
106
106
0
0
0
0
0
0
151
151
151
151
151
151
151
151
151
151
151
151
151
151
151
151
151
151
151
151
151
151
151
151
56
56
56
0
0
0
0
0
0
166
166
166
166
166
166
166
166
166
166
166
166
166
166
166
166
166
166
166
166
166
166
166
166
0
0
0
0
0
0
0
0
0
125
125
125
125
125
125
129
129
129
129
129
129
125
125
125
129
129
129
129
129
129
125
125
125
130
130
130
0
0
0
0
0
0
110
110
110
110
110
110
110
110
110
110
110
110
110
110
110
110
110
110
110
110
110
110
110
110
110
110
110
0
0
0
0
0
0
147
147
147
147
147
147
147
147
147
147
147
147
147
147
147
147
147
147
147
147
147
147
147
147
95
95
95
0
0
0
0
0
0
0
0
0
0
0
0
0
0
0
0
0
0
0
0
0
0
0
0
0
0
0
0
0
0
88
88
88
88
88
88
0
0
0
109
109
109
88
88
88
0
0
0
0
0
0
0
0
0
0
0
0
0
0
0
0
0
0
147
147
147
95
95
95
0
0
0
157
157
157
0
0
0
0
0
0
0
0
0
0
0
0
0
0
0
0
0
0
0
0
0
162
162
162
0
0
0
0
0
0
162
162
162
53
53
53
0
0
0
0
0
0
0
0
0
0
0
0
0
0
0
0
0
0
129
129
129
130
130
130
0
0
0
130
130
130
129
129
129
0
0
0
0
0
0
0
0
0
0
0
0
0
0
0
0
0
0
110
110
110
115
115
115
0
0
0
110
110
110
110
110
110
0
0
0
0
0
0
0
0
0
0
0
0
0
0
0
0
0
0
147
147
147
123
123
123
0
0
0
154
154
154
0
0
0
0
0
0
0
0
0
0
0
0
0
0
0
0
0
0
0
0
0
0
0
0
0
0
0
0
0
0
0
0
0
88
88
88
34
34
34
38
38
38
14
14
14
38
38
38
0
0
0
38
38
38
88
88
88
88
88
88
0
0
0
0
0
0
127
127
127
107
107
107
56
56
56
36
36
36
56
56
56
0
0
0
56
56
56
127
127
127
51
51
51
0
0
0
0
0
0
138
138
138
62
62
62
62
62
62
62
62
62
62
62
62
62
62
62
62
62
62
138
138
138
0
0
0
0
0
0
0
0
0
107
107
107
107
107
107
47
47
47
0
0
0
47
47
47
0
0
0
47
47
47
81
81
81
111
111
111
0
0
0
0
0
0
92
92
92
60
60
60
41
41
41
0
0
0
41
41
41
15
15
15
41
41
41
92
92
92
92
92
92
0
0
0
0
0
0
123
123
123
47
47
47
35
35
35
20
20
20
54
54
54
0
0
0
54
54
54
123
123
123
80
80
80
0
0
0
0
0
0
0
0
0
0
0
0
0
0
0
0
0
0
0
0
0
0
0
0
0
0
0
0
0
0
0
0
0
0
0
0
0
0
0
0
0
0
0
0
0
0
0
0
0
0
0
0
0
0
0
0
0
0
0
0
0
0
0
0
0
0
0
0
0
0
0
0
0
0
0
0
0
0
0
0
0
0
0
0
0
0
0
0
0
0
0
0
0
0
0
0
0
0
0
0
0
0
0
0
0
0
0
0
0
0
0
0
0
0
0
0
0
0
0
0
0
0
0
0
0
0
0
0
0
0
0
0
0
0
0
0
0
0
0
0
0
0
0
0
0
0
0
0
0
0
0
0
0
0
0
0
0
0
0
0
0
0
0
0
0
0
0
0
0
0
0
0
0
0
0
0
0
0
0
0
0
0
0
0
0
0
0
0
0
0
0
0
0
0
0
0
0
0
0
0
0
0
0
0
0
0
0
0
0
0
0
0
0
0
0
0
0
0
0
0
0
0
0
0
0
0
0
0
0
0
0
0
0
0
0
0
0
0
0
0
0
0
0
0
0
0
0
0
0
0
0
0
0
0
0
0
0
0
0
0
0
0
0
0
0
0
0
0
0
0
0
0
0
0
0
0
0
0
0
0
0
0
0
0
0
0
0
0
0
0
0
0
0
0
0
0
0
0
0
0
0
0
0
0
0
0
0
0
0
0
0
0
0
0
0
0
0
0
0
0
0
0
0
0
0
0
0
0
0
0
0
0
0
0
0
0
0
0
0
0
0
0
0
0
0
0
0
0
0
0
0
0
0
0
0
0
0
0
0
0
0
0
0
0
0
0
0
0
0
0
0
0
0
0
0
0
0
0
0
0
0
0
0
0
0
0
0
0
0
0
0
0
0
0
0
0
0
0
0
0
0
0
0
0
0
0
0
0
0
0
0
0
0
0
0
0
0
0
0
0
0
0
0
0
0
0
0
0
0
0
0
0
0
0
0
0
0
0
0
0
0
0
0
0
0
0
0
0
0
0
0
0
0
0
0
0
0
0
0
0
0
0
0
0
0
0
0
0
0
0
0
0
0
0
0
0
0
0
0
0
0
0
0
0
0
0
0
0
0
0
0
0
0
0
0
0
0
0
0
0
0
0
0
0
0
0
0
0
0
0
0
0
0
0
0
0
0
0
0
0
0
0
0
0
0
0
0
0
0
0
0
0
0
0
0
0
0
0
0
0
0
0
0
0
0
0
0
0
0
0
0
0
0
0
0
0
0
0
0
0
0
0
0
0
0
0
0
0
0
0
0
0
0
0
0
0
0
0
0
0
0
0
0
0
0
0
0
0
0
0
0
0
0
0
0
0
0
0
0
0
0
0
0
0
0
0
0
0
0
0
0
0
0
0
0
0
0
0
0
0
0
0
0
0
0
0
0
0
0
0
0
0
0
0
0
0
0
0
0
0
0
0
0
0
0
0
0
0
0
0
0
0
0
0
0
0
0
0
0
0
0
0
0
0
0
0
0
0
0
0
0
0
0
0
0
0
0
0
0
0
0
0
0
0
0
0
0
0
0
0
0
0
0
0
0
0
0
0
0
0
0
0
0
0
0
0
0
0
0
0
0
0
0
0
0
0
0
0
0
0
0
0
0
0
0
0
0
0
0
0
0
0
0
0
0
0
0
0
0
0
0
0
0
0
0
0
0
0
0
0
0
0
0
0
0
0
0
0
0
0
0
0
0
0
0
0
0
0
0
0
0
0
0
0
0
0
0
0
0
0
0
0
0
0
0
0
0
0
0
0
0
0
0
0
0
0
0
0
0
0
0
0
0
0
0
0
0
0
0
0
0
0
0
0
0
0
0
0
0
0
0
0
0
0
0
0
0
0
0
0
0
0
0
0
0
0
0
0
0
0
0
0
0
0
0
0
0
0
0
0
0
0
0
0
0
0
0
0
0
0
0
0
0
0
0
0
0
0
0
0
0
0
0
0
0
0
0
0
0
0
0
0
0
0
0
0
0
0
0
0
0
0
0
0
0
0
0
0
0
0
0
0
0
0
0
0
0
0
0
0
0
0
0
0
0
0
0
0
0
0
0
0
0
0
0
0
0
0
0
0
0
0
0
0
0
0
0
0
0
0
0
0
0
0
0
0
0
0
0
0
0
0
0
0
0
0
0
0
0
0
0
0
0
0
0
0
0
0
0
0
0
0
0
0
0
0
0
0
0
0
0
0
0
0
0
0
0
0
0
0
0
0
0
0
0
0
0
0
0
0
0
0
0
0
0
0
0
0
0
0
0
0
0
0
0
0
0
0
0
0
0
0
0
0
0
0
0
0
0
0
0
0
0
0
0
0
0
0
0
0
0
0
0
0
0
0
0
0
0
0
0
0
0
0
0
0
0
0
0
0
0
0
0
0
0
0
0
0
0
0
0
0
0
0
0
0
0
0
0
0
0
0
0
0
0
0
0
0
0
0
0
0
0
0
0
0
0
0
0
0
0
0
0
0
0
0
0
0
0
0
0
0
0
0
0
0
0
0
0
0
0
0
0
0
0
0
0
0
0
0
0
0
0
0
0
0
0
0
0
0
0
0
0
0
0
0
0
0
0
0
0
0
0
0
0
0
0
0
0
0
0
0
0
0
0
0
0
0
0
0
0
0
0
0
0
0
0
0
0
0
0
0
0
0
0
0
0
0
0
0
0
44
44
44
133
133
133
133
133
133
133
133
133
134
134
134
0
0
0
0
0
0
0
0
0
0
0
0
0
0
0
0
0
0
0
0
0
0
0
0
0
0
0
0
0
0
0
0
0
0
0
0
0
0
0
0
0
0
0
0
0
0
0
0
0
0
0
0
0
0
0
0
0
0
0
0
0
0
0
0
0
0
0
0
0
0
0
0
0
0
0
0
0
0
0
0
0
0
0
0
0
0
0
0
0
0
0
0
0
0
0
0
0
0
0
0
0
0
0
0
0
0
0
0
0
0
0
0
0
0
0
0
0
0
0
0
0
0
0
0
0
0
0
0
0
0
0
0
0
0
0
0
0
0
0
0
0
0
0
0
0
0
0
0
0
0
0
0
0
0
0
0
0
0
0
0
0
0
0
0
0
0
0
0
0
0
0
0
0
0
0
0
0
0
0
0
0
0
0
0
0
0
0
0
0
0
0
0
0
0
0
0
0
0
41
41
41
138
138
138
119
119
119
119
119
119
139
139
139
131
131
131
124
124
124
0
0
0
0
0
0
0
0
0
0
0
0
0
0
0
0
0
0
0
0
0
0
0
0
0
0
0
0
0
0
0
0
0
0
0
0
0
0
0
0
0
0
0
0
0
0
0
0
0
0
0
0
0
0
0
0
0
0
0
0
0
0
0
0
0
0
0
0
0
0
0
0
0
0
0
0
0
0
0
0
0
0
0
0
0
0
0
0
0
0
0
0
0
0
0
0
0
0
0
0
0
0
0
0
0
0
0
0
0
0
0
0
0
0
0
0
0
0
0
0
0
0
0
0
0
0
0
0
0
0
0
0
0
0
0
0
0
0
0
0
0
0
0
0
0
0
0
0
0
0
0
0
0
0
0
0
0
0
0
0
0
0
0
0
0
0
0
0
0
0
0
0
0
0
0
0
0
0
0
0
0
0
0
0
0
0
0
0
0
0
0
0
119
119
119
139
139
139
139
139
139
125
125
125
131
131
131
134
134
134
134
134
134
131
131
131
134
134
134
0
0
0
0
0
0
0
0
0
0
0
0
0
0
0
0
0
0
0
0
0
0
0
0
0
0
0
0
0
0
0
0
0
0
0
0
0
0
0
0
0
0
0
0
0
0
0
0
0
0
0
0
0
0
0
0
0
0
0
0
0
0
0
0
0
0
0
0
0
0
0
0
0
0
0
0
0
0
0
0
0
0
0
0
0
0
0
0
0
0
0
0
0
0
0
0
0
0
0
0
0
0
0
0
0
0
0
0
0
0
0
0
0
0
0
0
0
0
0
0
0
0
0
0
0
0
0
0
0
0
0
0
0
0
0
0
0
0
0
0
0
0
0
0
0
0
0
0
0
0
0
0
0
0
0
0
0
0
0
0
0
0
0
0
0
0
0
0
0
0
0
0
0
0
0
0
0
0
0
0
0
0
0
0
0
0
80
80
80
124
124
124
124
124
124
142
142
142
134
134
134
134
134
134
137
137
137
124
124
124
124
124
124
142
142
142
119
119
119
47
47
47
0
0
0
0
0
0
0
0
0
0
0
0
0
0
0
0
0
0
0
0
0
0
0
0
0
0
0
0
0
0
0
0
0
0
0
0
0
0
0
0
0
0
0
0
0
0
0
0
0
0
0
0
0
0
0
0
0
0
0
0
0
0
0
0
0
0
0
0
0
0
0
0
0
0
0
0
0
0
0
0
0
0
0
0
0
0
0
0
0
0
0
0
0
0
0
0
0
0
0
0
0
0
0
0
0
0
0
0
0
0
0
0
0
0
0
0
0
0
0
0
0
0
0
0
0
0
0
0
0
0
0
0
0
0
0
0
0
0
0
0
0
0
0
0
0
0
0
0
0
0
0
0
0
0
0
0
0
0
0
0
0
0
0
0
0
0
0
0
0
0
0
0
0
0
0
0
0
0
0
0
119
119
119
124
124
124
136
136
136
134
134
134
134
134
134
134
134
134
140
140
140
124
124
124
124
124
124
124
124
124
124
124
124
80
80
80
0
0
0
0
0
0
0
0
0
0
0
0
0
0
0
0
0
0
0
0
0
0
0
0
0
0
0
0
0
0
0
0
0
0
0
0
0
0
0
0
0
0
0
0
0
0
0
0
0
0
0
0
0
0
0
0
0
0
0
0
0
0
0
0
0
0
0
0
0
0
0
0
0
0
0
0
0
0
0
0
0
0
0
0
0
0
0
0
0
0
0
0
0
0
0
0
0
0
0
0
0
0
0
0
0
0
0
0
0
0
0
0
0
0
0
0
0
0
0
0
0
0
0
0
0
0
0
0
0
0
0
0
0
0
0
0
0
0
0
0
0
0
0
0
0
0
0
0
0
0
0
0
0
0
0
0
0
0
0
0
0
0
0
0
0
0
0
0
0
0
0
0
0
0
0
0
0
0
0
0
119
119
119
119
119
119
124
124
124
134
134
134
134
134
134
134
134
134
140
140
140
124
124
124
119
119
119
124
124
124
124
124
124
80
80
80
0
0
0
0
0
0
0
0
0
0
0
0
0
0
0
0
0
0
0
0
0
0
0
0
0
0
0
0
0
0
0
0
0
0
0
0
0
0
0
0
0
0
0
0
0
0
0
0
0
0
0
0
0
0
0
0
0
0
0
0
0
0
0
0
0
0
0
0
0
0
0
0
0
0
0
0
0
0
0
0
0
0
0
0
0
0
0
0
0
0
0
0
0
0
0
0
0
0
0
0
0
0
0
0
0
0
0
0
0
0
0
0
0
0
0
0
0
0
0
0
0
0
0
0
0
0
0
0
0
0
0
0
0
0
0
0
0
0
0
0
0
0
0
0
0
0
0
0
0
0
0
0
0
0
0
0
0
0
0
0
0
0
0
0
0
0
0
0
0
0
0
0
0
0
0
0
0
0
0
0
119
119
119
133
133
133
138
138
138
134
134
134
134
134
134
134
134
134
140
140
140
119
119
119
131
131
131
124
124
124
124
124
124
80
80
80
0
0
0
0
0
0
0
0
0
0
0
0
0
0
0
0
0
0
0
0
0
0
0
0
0
0
0
0
0
0
0
0
0
0
0
0
0
0
0
0
0
0
0
0
0
0
0
0
0
0
0
0
0
0
0
0
0
0
0
0
0
0
0
0
0
0
0
0
0
0
0
0
0
0
0
0
0
0
0
0
0
0
0
0
0
0
0
0
0
0
0
0
0
0
0
0
0
0
0
0
0
0
0
0
0
0
0
0
0
0
0
0
0
0
0
0
0
0
0
0
0
0
0
0
0
0
0
0
0
0
0
0
0
0
0
0
0
0
0
0
0
0
0
0
0
0
0
0
0
0
0
0
0
0
0
0
0
0
0
0
0
0
0
0
0
0
0
0
0
0
0
0
0
0
0
0
0
0
0
0
134
134
134
119
119
119
119
119
119
133
133
133
134
134
134
134
134
134
134
134
134
134
134
134
134
134
134
119
119
119
124
124
124
80
80
80
0
0
0
0
0
0
0
0
0
0
0
0
0
0
0
0
0
0
0
0
0
0
0
0
0
0
0
0
0
0
0
0
0
0
0
0
0
0
0
0
0
0
0
0
0
0
0
0
0
0
0
0
0
0
0
0
0
0
0
0
0
0
0
0
0
0
0
0
0
0
0
0
0
0
0
0
0
0
0
0
0
0
0
0
0
0
0
0
0
0
0
0
0
0
0
0
0
0
0
0
0
0
0
0
0
0
0
0
0
0
0
0
0
0
0
0
0
0
0
0
0
0
0
0
0
0
0
0
0
0
0
0
0
0
0
0
0
0
0
0
0
0
0
0
0
0
0
0
0
0
0
0
0
0
0
0
0
0
0
0
0
0
0
0
0
0
0
0
0
0
0
0
0
0
0
0
0
0
0
0
0
0
0
134
134
134
134
134
134
138
138
138
131
131
131
119
119
119
138
138
138
134
134
134
134
134
134
119
119
119
119
119
119
0
0
0
0
0
0
0
0
0
0
0
0
0
0
0
0
0
0
0
0
0
0
0
0
0
0
0
0
0
0
0
0
0
0
0
0
0
0
0
0
0
0
0
0
0
0
0
0
0
0
0
0
0
0
0
0
0
0
0
0
0
0
0
0
0
0
0
0
0
0
0
0
0
0
0
0
0
0
0
0
0
0
0
0
0
0
0
0
0
0
0
0
0
0
0
0
0
0
0
0
0
0
0
0
0
0
0
0
0
0
0
0
0
0
0
0
0
0
0
0
0
0
0
0
0
0
0
0
0
0
0
0
0
0
0
0
0
0
0
0
0
0
0
0
0
0
0
0
0
0
0
0
0
0
0
0
0
0
0
0
0
0
0
0
0
0
0
0
0
0
0
0
0
0
0
0
0
0
0
0
0
0
0
0
0
0
91
91
91
134
134
134
140
140
140
124
124
124
124
124
124
133
133
133
134
134
134
134
134
134
80
80
80
0
0
0
0
0
0
0
0
0
0
0
0
0
0
0
0
0
0
0
0
0
0
0
0
0
0
0
0
0
0
0
0
0
0
0
0
0
0
0
0
0
0
0
0
0
0
0
0
0
0
0
0
0
0
0
0
0
0
0
0
0
0
0
0
0
0
0
0
0
0
0
0
0
0
0
0
0
0
0
0
0
0
0
0
0
0
0
0
0
0
0
0
0
0
0
0
0
0
0
0
0
0
0
0
0
0
0
0
0
0
0
0
0
0
0
0
0
0
0
0
0
0
0
0
0
0
0
0
0
0
0
0
0
0
0
0
0
0
0
0
0
0
0
0
0
0
0
0
0
0
0
0
0
0
0
0
0
0
0
0
0
0
0
0
0
0
0
0
0
0
0
0
0
0
0
0
0
0
0
0
0
0
0
0
0
0
0
0
0
0
0
0
0
0
0
140
140
140
124
124
124
124
124
124
124
124
124
119
119
119
133
133
133
0
0
0
0
0
0
0
0
0
0
0
0
0
0
0
0
0
0
0
0
0
0
0
0
0
0
0
0
0
0
0
0
0
0
0
0
0
0
0
0
0
0
0
0
0
0
0
0
0
0
0
0
0
0
0
0
0
0
0
0
0
0
0
0
0
0
0
0
0
0
0
0
0
0
0
0
0
0
0
0
0
0
0
0
0
0
0
0
0
0
0
0
0
0
0
0
0
0
0
0
0
0
0
0
0
0
0
0
0
0
0
0
0
0
0
0
0
0
0
0
0
0
0
0
0
0
0
0
0
0
0
0
0
0
0
0
0
0
0
0
0
0
0
0
0
0
0
0
0
0
0
0
0
0
0
0
0
0
0
0
0
0
0
0
0
0
0
0
0
0
0
0
0
0
0
0
0
0
0
0
0
0
0
0
0
0
0
0
0
0
0
0
0
0
0
0
0
0
17
17
17
47
47
47
47
47
47
47
47
47
47
47
47
0
0
0
0
0
0
0
0
0
0
0
0
0
0
0
0
0
0
0
0
0
0
0
0
0
0
0
0
0
0
0
0
0
0
0
0
0
0
0
0
0
0
0
0
0
0
0
0
0
0
0
0
0
0
0
0
0
0
0
0
0
0
0
0
0
0
0
0
0
0
0
0
0
0
0
0
0
0
0
0
0
0
0
0
0
0
0
0
0
0
0
0
0
0
0
0
0
0
0
0
0
0
0
0
0
0
0
0
0
0
0
0
0
0
0
0
0
0
0
0
0
0
0
0
0
0
0
0
0
0
0
0
0
0
0
0
0
0
0
0
0
0
0
0
0
0
0
0
0
0
0
0
0
0
0
0
0
0
0
0
0
0
0
0
0
0
0
0
0
0
0
0
0
0
0
0
0
0
0
0
0
0
0
0
0
0
0
0
0
0
0
0
0
0
0
0
0
0
0
0
0
0
0
0
0
0
0
0
0
0
0
0
0
0
0
0
0
0
0
0
0
0
0
0
0
0
0
0
0
0
0
0
0
0
0
0
0
0
0
0
0
0
0
0
0
0
0
0
0
0
0
0
0
0
0
0
0
0
0
0
0
0
0
0
0
0
0
0
0
0
0
0
0
0
0
0
0
0
0
0
0
0
0
0
0
0
0
0
0
0
0
0
0
0
0
0
0
0
0
0
0
0
0
0
0
0
0
0
0
0
0
0
0
0
0
0
0
0
0
0
0
0
0
0
0
0
0
0
0
0
0
0
0
0
0
0
0
0
0
0
0
0
0
0
0
0
0
0
0
0
0
0
0
0
0
0
0
0
0
0
0
0
0
0
0
0
0
0
0
0
0
0
0
0
0
0
0
0
0
0
0
0
0
0
0
0
0
0
0
0
0
0
0
0
0
0
0
0
0
0
0
0
0
0
0
0
0
0
0
0
0
0
0
0
0
0
0
0
0
0
0
0
0
0
0
0
0
0
0
0
0
0
0
0
0
0
0
0
0
0
0
0
0
0
0
0
0
0
0
0
0
0
0
0
0
0
0
0
0
0
0
0
0
0
0
0
0
0
0
0
0
0
0
0
0
0
0
0
0
0
0
0
0
0
0
0
0
0
0
0
0
0
0
0
0
0
0
0
0
0
0
0
0
0
0
0
0
0
0
0
0
0
0
0
0
0
0
0
0
0
0
0
0
0
0
0
0
0
0
0
0
0
0
0
