P3
72 72
255
0
0
0
0
0
0
0
0
0
0
0
0
0
0
0
0
0
0
0
0
0
0
0
0
0
0
0
0
0
0
0
0
0
0
0
0
0
0
0
0
0
0
0
0
0
0
0
0
0
0
0
0
0
0
0
0
0
0
0
0
0
0
0
0
0
0
0
0
0
0
0
0
0
0
0
0
0
0
0
0
0
0
0
0
0
0
0
0
0
0
0
0
0
0
0
0
0
0
0
0
0
0
0
0
0
0
0
0
0
0
0
0
0
0
0
0
0
0
0
0
0
0
0
0
0
0
0
0
0
0
0
0
0
0
0
0
0
0
0
0
0
0
0
0
0
0
0
0
0
0
0
0
0
0
0
0
0
0
0
0
0
0
0
0
0
0
0
0
0
0
0
0
0
0
0
0
0
0
0
0
0
0
0
0
0
0
0
0
0
0
0
0
0
0
0
0
0
0
0
0
0
0
0
0
0
0
0
0
0
0
0
0
0
0
0
0
0
0
0
0
0
0
0
0
0
0
0
0
0
0
0
0
0
0
0
0
0
0
0
0
0
0
0
0
0
0
0
0
0
0
0
0
0
0
0
0
0
0
0
0
0
0
0
0
0
0
0
0
0
0
0
0
0
0
145
73
0
139
71
0
136
69
0
136
69
0
136
69
0
194
44
0
250
4
0
93
2
0
0
0
0
0
0
0
0
0
0
0
0
0
0
0
0
0
0
0
0
0
0
0
0
0
0
0
0
0
0
0
0
0
0
0
0
0
0
0
0
0
0
0
0
0
0
0
0
0
0
0
0
0
0
0
0
0
0
0
0
0
0
0
0
0
0
0
0
0
0
0
0
0
0
0
0
0
0
0
0
0
0
0
0
0
0
0
0
0
0
0
0
0
0
0
0
0
0
0
0
0
0
0
0
0
0
0
0
0
0
0
0
0
0
0
0
0
0
0
0
0
0
0
0
0
0
0
0
0
0
0
0
0
0
0
0
0
0
0
0
0
0
0
0
0
0
0
0
0
0
0
0
0
0
0
0
0
0
0
0
0
0
0
0
0
0
0
0
0
0
0
0
0
0
0
0
0
0
0
0
0
0
0
0
0
0
0
0
0
0
84
43
0
145
73
0
136
69
0
145
73
0
136
69
0
139
71
0
194
44
0
244
4
0
250
4
0
0
0
0
0
0
0
0
0
0
0
0
0
0
0
0
0
0
0
0
0
0
0
0
0
0
0
0
0
0
0
0
0
0
0
0
0
0
0
0
0
0
0
0
0
0
0
0
0
0
0
0
0
0
0
0
0
0
0
0
0
0
0
0
0
0
0
0
0
0
0
0
0
0
0
0
0
0
0
0
0
0
0
0
0
0
0
0
0
0
0
0
0
0
0
0
0
0
0
0
0
0
0
0
0
0
0
0
0
0
0
0
0
0
0
0
0
0
0
0
0
0
0
0
0
0
0
0
0
0
0
0
0
0
0
0
0
0
0
0
0
0
0
0
0
0
0
0
0
0
0
0
0
0
0
0
0
0
0
0
0
0
0
0
0
0
0
0
0
0
0
0
0
0
0
0
0
0
0
0
0
0
0
0
0
0
0
117
59
0
136
69
0
117
59
0
136
69
0
117
59
0
136
69
0
117
59
0
194
44
0
250
4
0
244
4
0
244
4
0
217
4
0
0
0
0
0
0
0
0
0
0
0
0
0
0
0
0
0
0
0
0
0
0
0
0
0
0
0
0
0
0
0
0
0
0
0
0
0
0
0
0
0
0
0
0
0
0
0
0
0
0
0
0
0
0
0
0
0
0
0
0
0
0
0
0
0
0
0
0
0
0
0
0
0
0
0
0
0
0
0
0
0
0
0
0
0
0
0
0
0
0
0
0
0
0
0
0
0
0
0
0
0
0
0
0
0
0
0
0
0
0
0
0
0
0
0
0
0
0
0
0
0
0
0
0
0
0
0
0
0
0
0
0
0
0
0
0
0
0
0
0
0
0
0
0
0
0
0
0
0
0
0
0
0
0
0
0
0
0
0
0
0
0
0
0
0
0
0
0
0
0
0
0
0
0
0
0
0
0
0
0
0
0
0
0
88
45
0
136
69
0
145
73
0
0
0
0
145
73
0
47
24
0
0
0
0
250
4
0
244
4
0
0
0
0
0
0
0
0
0
0
0
0
0
0
0
0
0
0
0
0
0
0
0
0
0
0
0
0
0
0
0
0
0
0
0
0
0
0
0
0
0
0
0
0
0
0
0
0
0
0
0
0
0
0
0
0
0
0
0
0
0
0
0
0
0
0
0
0
0
0
0
0
0
0
0
0
0
0
0
0
0
0
0
0
0
0
0
0
0
0
0
0
0
0
0
0
0
0
0
0
0
0
0
0
0
0
0
0
0
0
0
0
0
0
0
0
0
0
0
0
0
0
0
0
0
0
0
0
0
0
0
0
0
0
0
0
0
0
0
0
0
0
0
0
0
0
0
0
0
0
0
0
0
0
0
0
0
0
0
0
0
0
0
0
0
0
0
0
0
0
0
0
0
0
0
0
0
0
0
0
0
0
0
0
0
0
0
0
0
0
0
0
0
0
0
0
0
0
0
0
0
0
0
0
0
0
0
0
0
0
0
0
0
0
0
0
0
0
0
0
0
0
0
0
0
0
0
0
0
0
0
0
0
0
0
0
0
0
0
0
0
0
0
0
0
0
0
0
0
0
0
0
0
0
0
0
0
0
0
0
0
0
0
0
0
0
0
0
0
0
0
0
0
0
0
0
0
0
0
0
0
0
0
0
0
0
0
0
0
0
0
0
0
0
0
0
0
0
0
0
0
0
0
0
0
0
0
0
0
0
0
0
0
0
0
0
0
0
0
0
0
0
0
0
0
0
0
0
0
0
0
0
0
0
0
0
0
0
0
0
0
0
0
0
0
0
0
0
0
0
0
0
0
0
0
0
0
0
0
0
0
0
0
0
0
0
0
0
0
0
0
0
0
0
0
0
0
0
0
0
0
0
0
0
0
0
0
0
0
0
0
0
0
0
0
0
0
0
0
0
0
0
0
0
0
0
0
0
0
0
0
0
0
0
0
0
0
0
0
0
0
0
0
0
0
0
0
0
0
0
0
0
0
0
0
0
0
0
0
0
0
0
0
0
0
0
0
0
0
0
0
0
0
0
0
0
0
0
0
0
0
0
0
0
0
0
0
0
0
0
0
0
0
0
0
0
0
0
0
0
0
0
0
0
0
0
0
0
0
0
0
0
0
0
0
0
0
0
0
0
0
0
0
0
0
0
0
0
0
0
0
0
0
0
0
0
0
0
0
0
0
0
0
0
0
0
0
0
0
0
0
0
0
0
0
0
0
0
0
0
0
0
0
0
0
0
0
0
0
0
0
0
0
0
0
0
0
0
0
0
0
0
0
0
0
0
0
0
0
0
0
0
0
0
0
0
0
0
0
0
0
0
0
0
0
0
0
0
0
0
0
0
0
0
0
0
0
0
0
0
0
0
0
0
0
0
0
0
0
0
0
0
0
0
0
0
0
0
0
0
0
0
0
0
0
0
0
0
0
0
0
0
0
0
0
0
0
0
0
0
0
0
0
0
0
0
0
0
0
0
0
0
0
0
0
0
0
0
0
0
0
0
0
0
0
0
0
0
0
0
0
0
0
0
0
0
0
0
0
0
0
0
0
0
0
0
0
0
0
0
0
0
0
0
0
0
0
0
0
0
0
0
0
0
0
0
0
0
0
0
0
0
0
0
0
0
0
0
0
0
0
0
0
0
0
0
0
0
0
0
0
0
0
0
0
0
0
0
0
0
0
0
0
0
0
0
0
0
0
0
0
0
0
0
0
0
0
0
0
0
0
0
0
0
0
0
0
0
0
0
0
0
0
0
0
0
0
0
0
0
0
0
0
0
0
0
0
0
0
0
0
0
0
0
0
0
0
0
0
0
0
0
0
0
0
0
0
0
0
0
0
0
0
0
0
0
0
0
0
0
0
0
0
0
0
0
0
0
0
0
0
0
0
0
0
0
0
0
0
0
0
0
0
0
0
0
0
0
0
0
0
0
0
0
0
0
0
0
0
0
0
0
0
0
0
0
0
0
0
0
0
0
0
0
0
0
0
0
0
0
0
0
0
0
0
0
0
0
0
0
0
0
0
0
0
0
0
0
0
0
0
0
0
0
0
0
0
0
0
0
0
0
0
0
0
0
0
0
0
0
0
0
0
0
0
0
0
0
0
0
0
0
0
0
0
0
0
0
0
0
0
0
0
0
0
0
0
0
0
0
0
0
0
0
0
0
0
0
0
0
0
0
0
0
0
0
0
0
0
0
0
0
0
0
0
0
0
0
0
0
0
0
0
0
0
0
0
0
0
0
0
0
0
0
0
0
0
0
0
0
0
0
0
0
0
0
0
0
0
0
0
0
0
0
0
0
0
0
0
0
0
0
0
0
0
0
0
0
0
0
0
0
0
0
0
0
0
0
0
0
0
0
0
0
0
0
0
0
0
0
0
0
0
0
0
0
0
0
0
0
0
0
0
0
0
0
0
0
0
0
0
0
0
0
0
0
0
0
0
0
0
0
0
0
0
0
0
0
0
0
0
0
0
0
0
0
0
0
0
0
0
0
0
0
0
0
0
0
0
0
0
0
0
0
0
0
0
0
0
0
0
0
0
0
0
0
0
0
0
0
0
0
0
0
0
0
0
0
0
0
0
0
0
0
0
0
0
0
0
0
0
0
0
0
0
0
0
0
0
0
0
0
0
0
0
0
0
0
0
0
0
0
0
0
0
0
0
0
0
0
0
0
0
0
0
0
0
0
0
0
0
0
0
0
0
0
0
0
0
0
0
0
0
0
0
0
0
0
0
0
0
0
0
0
0
0
0
0
0
0
0
0
0
0
0
0
0
0
0
0
0
0
0
0
0
0
0
0
0
0
0
0
0
0
0
0
0
0
0
0
0
0
0
0
0
0
0
0
0
0
0
0
0
0
0
0
0
0
0
0
0
0
0
0
0
0
0
0
0
0
0
0
0
0
0
0
0
0
0
0
0
0
0
0
0
0
0
0
0
0
0
0
0
0
0
0
0
0
0
0
0
0
0
0
0
0
0
0
0
0
0
0
0
0
0
0
0
0
0
0
0
0
0
0
0
0
0
0
0
0
0
0
0
0
0
0
0
0
0
0
0
0
0
0
0
0
0
0
0
0
0
0
0
0
0
0
0
0
0
0
0
0
0
0
0
0
0
0
0
0
0
0
0
0
0
0
0
0
0
0
0
0
0
0
0
0
0
0
0
0
0
0
0
0
0
0
0
0
0
0
0
0
0
0
0
0
0
0
0
0
0
0
0
0
0
0
0
0
0
0
0
0
0
0
0
0
0
0
0
0
0
0
0
0
0
0
0
0
0
0
0
0
0
0
0
0
0
0
0
0
0
0
0
0
0
0
0
0
0
0
0
0
0
0
0
0
0
0
0
0
0
0
0
0
0
0
0
0
0
0
0
0
0
0
0
0
0
0
0
0
0
0
0
0
0
0
0
0
0
0
0
0
0
0
0
0
0
0
0
0
0
0
0
0
0
0
0
0
0
0
0
0
0
0
0
0
0
0
0
0
0
0
0
0
0
0
0
0
0
0
0
0
0
0
0
0
0
0
0
0
0
0
0
0
0
0
0
0
0
0
0
0
0
0
0
0
0
0
0
0
0
0
0
0
0
0
0
0
0
0
0
0
0
0
0
0
0
0
0
0
0
0
0
0
0
0
0
0
0
0
0
0
0
0
0
0
0
0
0
0
0
0
0
0
0
0
0
0
0
0
0
0
0
0
0
0
0
0
0
0
0
0
0
0
0
0
0
0
0
0
0
0
0
0
0
0
0
0
0
0
0
0
0
0
0
0
0
0
0
0
0
0
0
0
0
0
0
0
0
0
0
0
0
0
0
0
0
0
0
0
0
0
0
0
0
0
0
0
0
0
0
0
0
0
0
0
0
0
0
0
0
0
0
0
0
0
0
0
0
0
0
0
0
0
0
0
0
0
0
0
0
0
0
0
0
0
0
0
0
0
0
0
0
0
0
0
0
0
0
0
0
0
0
0
0
0
0
0
0
0
0
0
0
0
0
0
0
0
0
0
0
0
0
0
0
0
0
0
0
0
0
0
0
0
0
0
0
0
0
0
0
0
0
0
0
0
0
0
0
0
0
0
0
0
0
0
0
0
0
0
0
0
0
0
0
0
0
0
0
0
0
0
0
0
0
0
0
0
0
0
0
0
0
0
0
0
0
0
0
0
0
0
0
0
0
0
0
0
0
0
0
0
0
0
0
0
0
0
0
0
0
0
0
0
0
0
0
0
0
0
0
0
0
0
0
0
0
0
0
0
0
0
0
0
0
0
0
0
0
0
0
0
0
0
0
0
0
0
0
0
0
0
0
0
0
0
0
0
0
0
0
0
0
0
0
0
0
0
0
0
0
0
0
0
0
0
0
0
0
0
0
0
0
0
0
0
0
0
0
0
0
0
0
0
0
0
0
0
0
0
0
0
0
0
0
0
0
0
0
0
0
0
0
0
0
0
0
0
0
0
0
0
0
0
0
0
0
0
0
0
0
0
0
0
0
0
0
0
0
0
0
0
0
0
0
0
0
0
0
0
0
0
0
0
0
0
0
0
0
0
0
0
0
0
0
0
0
0
0
0
0
0
0
0
0
0
0
0
0
0
0
0
0
0
0
0
0
0
0
0
0
0
0
0
0
0
0
0
0
0
0
0
0
0
0
0
0
0
0
0
0
0
0
0
0
0
0
0
0
0
0
0
0
0
0
0
0
0
0
0
0
0
0
0
0
0
0
0
0
0
0
0
0
0
0
0
0
0
0
0
0
0
0
0
0
0
0
0
0
0
0
0
0
0
0
0
0
0
0
0
0
0
0
0
0
0
0
0
0
0
0
0
0
0
0
0
0
0
0
0
0
0
0
0
0
0
0
0
0
0
0
0
0
0
0
0
0
0
0
0
0
0
0
0
0
0
0
0
0
0
0
0
0
0
0
0
0
0
0
0
0
0
0
0
0
0
0
0
0
0
0
0
0
0
0
0
0
0
0
0
0
0
0
0
0
0
0
0
0
0
0
0
0
0
0
0
0
0
0
0
0
0
0
0
0
0
0
0
0
0
0
0
0
0
0
0
0
0
0
0
0
0
0
0
0
0
0
0
0
0
0
0
0
0
0
0
0
0
0
0
0
0
0
0
0
0
0
0
0
0
0
0
0
0
0
0
0
0
0
0
0
0
0
0
0
0
0
0
0
0
0
0
0
0
0
0
0
0
0
0
0
0
0
0
0
0
0
0
0
0
0
0
0
0
0
0
0
0
0
0
0
0
0
0
0
0
0
0
0
0
0
0
0
0
0
0
0
0
0
0
0
0
0
0
0
0
0
0
0
0
0
0
0
0
0
0
0
0
0
0
0
0
0
0
0
0
0
0
0
0
0
0
0
0
0
0
0
0
0
0
0
0
0
0
0
0
0
0
0
0
0
0
0
0
0
0
0
0
0
0
0
0
0
0
0
0
0
0
0
0
0
0
0
0
0
0
0
0
0
0
0
0
0
0
0
0
0
0
0
0
0
0
0
0
0
0
0
0
0
0
0
0
0
0
0
0
0
0
0
0
0
0
0
0
0
0
0
0
0
0
0
0
0
0
0
0
0
0
0
0
0
0
0
0
0
0
0
0
0
0
0
0
0
0
0
0
0
0
0
0
0
0
0
0
0
0
0
0
0
0
0
0
0
0
0
0
0
0
0
0
0
0
0
0
0
0
0
0
0
0
0
0
0
0
0
0
0
0
0
0
0
0
0
0
0
0
0
0
0
0
0
0
0
0
0
0
0
0
0
0
0
0
0
0
0
0
0
0
0
0
0
0
0
0
0
0
0
0
0
0
0
0
0
0
0
0
0
0
0
0
0
0
0
0
0
0
0
0
0
0
0
0
0
0
0
0
0
0
0
0
0
0
0
0
0
0
0
0
0
0
0
0
0
0
0
0
0
0
0
0
0
0
0
0
0
0
0
0
0
0
0
0
0
0
0
0
0
0
0
0
0
0
0
0
0
0
0
0
0
0
0
0
0
0
0
0
0
0
0
0
0
0
0
0
0
0
0
0
0
0
0
0
0
0
0
0
0
0
0
0
0
0
0
0
0
0
0
0
0
0
0
0
0
0
0
0
0
0
0
0
0
0
0
0
0
0
0
0
0
0
0
0
0
0
0
0
0
0
0
0
0
0
0
0
0
0
0
0
0
0
0
0
0
0
0
0
0
0
0
0
0
0
0
0
0
0
0
0
0
0
0
0
0
0
0
0
0
0
0
0
0
0
0
0
0
0
0
0
0
0
0
0
0
0
0
0
0
0
0
0
0
0
0
0
0
0
0
0
0
0
0
0
0
0
0
0
0
0
0
0
0
0
0
0
0
0
0
0
0
0
0
0
0
0
0
0
0
0
0
0
0
0
0
0
0
0
0
0
0
0
0
0
0
0
0
0
0
0
0
0
0
0
0
0
0
0
0
0
0
0
0
0
0
0
0
0
0
0
0
0
0
0
0
0
0
0
0
0
0
0
0
0
0
0
0
0
0
0
0
0
0
0
0
0
0
0
0
0
0
0
0
0
0
0
0
0
0
0
0
0
0
0
0
0
0
0
0
0
0
0
0
0
0
0
0
0
0
0
0
0
0
0
0
0
0
0
0
0
0
0
0
0
0
0
0
0
0
0
0
0
0
0
0
0
0
0
0
0
0
0
0
0
0
0
0
0
0
0
0
0
0
0
0
0
0
0
0
0
0
0
0
0
0
0
0
0
0
0
0
0
0
0
0
0
0
0
0
0
0
0
0
0
0
0
0
0
0
0
0
0
0
0
0
0
0
0
0
0
0
0
0
0
0
0
0
0
0
0
0
0
0
0
0
0
0
0
0
0
0
0
0
0
0
0
0
0
0
0
0
0
0
0
0
0
0
0
0
0
0
0
0
0
0
0
0
0
0
0
0
0
0
0
0
0
0
0
0
0
0
0
0
0
0
0
0
0
0
0
0
0
0
0
0
0
0
0
0
0
0
0
0
0
0
0
0
0
0
0
0
0
0
0
0
0
0
0
0
0
0
0
0
0
0
0
0
0
0
0
0
0
0
0
0
0
0
0
0
0
0
0
0
0
0
0
0
0
0
0
0
0
0
0
0
0
0
0
0
0
0
0
0
0
0
0
0
0
0
0
0
0
0
0
0
0
0
0
0
0
0
0
0
0
0
0
0
0
0
0
0
0
0
0
0
0
0
0
0
0
0
0
0
0
0
0
0
0
0
0
0
0
0
0
0
0
0
0
0
0
0
0
0
0
0
0
0
0
0
0
0
0
0
0
0
0
0
0
0
0
0
0
0
0
0
0
0
0
0
0
0
0
0
0
0
0
0
0
0
0
0
0
0
0
0
0
0
0
0
0
0
0
0
0
0
0
0
0
0
0
0
0
0
0
0
0
0
0
0
0
0
0
0
0
0
0
0
0
0
0
0
0
0
0
0
0
0
0
0
0
0
0
0
0
0
0
0
0
0
0
0
0
0
0
0
0
0
0
0
0
0
0
0
0
0
0
0
0
0
0
0
0
0
0
0
0
0
0
0
0
0
0
0
0
0
0
0
0
0
0
0
0
0
0
0
0
0
0
0
0
0
0
0
0
0
0
0
0
0
0
0
0
0
0
0
0
0
0
0
0
0
0
0
0
0
0
0
0
0
0
0
0
0
0
0
0
0
0
0
0
0
0
0
0
0
36
36
0
0
0
0
0
0
0
0
0
0
0
0
0
0
0
0
0
0
0
0
0
0
0
0
0
136
69
0
0
0
0
0
0
0
0
0
0
0
0
0
0
0
0
0
0
0
0
0
0
0
0
0
0
0
0
0
0
0
0
0
0
250
4
0
0
0
0
0
0
0
0
0
0
0
0
0
0
0
0
0
0
0
0
0
0
0
0
0
0
0
0
254
86
0
152
51
0
0
0
0
0
0
0
0
0
0
0
0
0
0
0
0
0
0
0
0
0
0
0
0
0
0
0
0
0
0
0
88
145
0
88
145
0
0
0
0
0
0
0
0
0
0
0
0
0
0
0
0
0
0
0
0
0
0
15
149
0
23
230
0
0
0
0
0
0
0
0
0
0
0
0
0
0
0
0
0
0
0
0
0
0
0
0
0
0
0
0
0
0
0
0
0
0
0
0
0
0
0
0
0
0
0
0
0
0
0
0
0
36
36
0
35
35
0
35
35
0
35
35
0
0
0
0
0
0
0
0
0
0
0
0
0
0
0
0
52
26
0
139
71
0
136
69
0
139
71
0
145
73
0
0
0
0
0
0
0
0
0
0
0
0
0
0
0
0
0
0
0
0
0
0
0
0
0
250
4
0
244
4
0
250
4
0
250
4
0
0
0
0
0
0
0
0
0
0
0
0
0
0
0
0
0
0
0
243
82
0
243
82
0
243
82
0
251
85
0
0
0
0
0
0
0
0
0
0
0
0
0
0
0
0
0
0
0
0
0
0
0
0
0
105
174
0
103
170
0
103
170
0
105
174
0
0
0
0
0
0
0
0
0
0
0
0
0
0
0
0
24
248
0
23
230
0
23
230
0
24
235
0
24
238
0
0
0
0
0
0
0
0
0
0
0
0
0
0
0
0
0
0
0
0
0
0
0
0
0
0
0
0
0
0
0
0
0
0
0
0
0
0
0
0
30
30
0
30
30
0
0
0
0
36
36
0
12
12
0
36
36
0
0
0
0
0
0
0
0
0
0
88
45
0
139
71
0
0
0
0
136
69
0
0
0
0
136
69
0
0
0
0
0
0
0
0
0
0
0
0
0
0
0
0
0
0
0
0
0
0
252
4
0
0
0
0
250
4
0
0
0
0
208
3
0
217
4
0
0
0
0
0
0
0
0
0
0
0
0
0
254
86
0
0
0
0
254
86
0
152
51
0
251
85
0
254
86
0
0
0
0
0
0
0
0
0
0
0
0
0
0
0
0
0
0
0
109
182
0
105
174
0
88
145
0
88
145
0
0
0
0
109
182
0
0
0
0
0
0
0
0
0
0
9
87
0
23
230
0
15
149
0
23
230
0
0
0
0
24
235
0
0
0
0
0
0
0
0
0
0
0
0
0
0
0
0
0
0
0
0
0
0
0
0
0
0
0
0
0
0
0
0
0
0
0
0
0
0
0
0
12
12
0
19
19
0
36
36
0
12
12
0
30
30
0
13
13
0
0
0
0
0
0
0
0
0
0
33
17
0
52
26
0
139
71
0
52
26
0
139
71
0
52
26
0
0
0
0
0
0
0
0
0
0
0
0
0
0
0
0
0
0
0
0
0
0
93
2
0
250
4
0
81
1
0
252
4
0
136
2
0
81
1
0
0
0
0
0
0
0
0
0
0
0
0
0
92
31
0
251
85
0
80
27
0
178
60
0
80
27
0
92
31
0
0
0
0
0
0
0
0
0
0
0
0
0
0
0
0
0
0
0
39
65
0
25
42
0
57
95
0
57
95
0
105
174
0
39
65
0
0
0
0
0
0
0
0
0
0
3
33
0
9
87
0
17
168
0
9
87
0
24
235
0
9
87
0
0
0
0
0
0
0
0
0
0
0
0
0
0
0
0
0
0
0
0
0
0
0
0
0
0
0
0
0
0
0
0
0
0
0
0
0
0
0
0
0
0
0
23
23
0
23
23
0
23
23
0
23
23
0
0
0
0
0
0
0
0
0
0
0
0
0
0
0
0
33
17
0
88
45
0
88
45
0
88
45
0
88
45
0
0
0
0
0
0
0
0
0
0
0
0
0
0
0
0
0
0
0
0
0
0
0
0
0
158
3
0
158
3
0
158
3
0
158
3
0
0
0
0
0
0
0
0
0
0
0
0
0
0
0
0
0
0
0
158
53
0
158
53
0
158
53
0
158
53
0
0
0
0
0
0
0
0
0
0
0
0
0
0
0
0
0
0
0
0
0
0
0
0
0
67
110
0
67
110
0
67
110
0
67
110
0
0
0
0
0
0
0
0
0
0
0
0
0
0
0
0
15
153
0
15
149
0
15
149
0
15
149
0
15
153
0
0
0
0
0
0
0
0
0
0
0
0
0
0
0
0
0
0
0
0
0
0
0
0
0
0
0
0
0
0
0
0
0
0
0
0
0
0
0
0
33
33
0
13
13
0
37
37
0
0
0
0
33
33
0
37
37
0
0
0
0
0
0
0
0
0
0
88
45
0
127
64
0
145
73
0
0
0
0
145
73
0
0
0
0
0
0
0
0
0
0
0
0
0
0
0
0
0
0
0
0
0
0
0
0
0
255
3
0
255
3
0
0
0
0
255
3
0
93
2
0
217
4
0
0
0
0
0
0
0
0
0
0
0
0
0
254
86
0
254
86
0
0
0
0
158
53
0
0
0
0
254
86
0
0
0
0
0
0
0
0
0
0
0
0
0
0
0
0
0
0
0
109
182
0
0
0
0
40
67
0
40
67
0
109
182
0
109
182
0
0
0
0
0
0
0
0
0
0
9
87
0
0
0
0
15
153
0
0
0
0
24
248
0
0
0
0
0
0
0
0
0
0
0
0
0
0
0
0
0
0
0
0
0
0
0
0
0
0
0
0
0
0
0
0
0
0
0
0
0
0
0
0
0
0
0
0
0
0
0
0
0
0
0
0
0
0
0
0
0
0
0
0
0
0
0
0
0
0
0
0
0
0
0
0
0
0
0
0
0
0
0
0
0
0
0
0
0
0
0
0
0
0
0
0
0
0
0
0
0
0
0
0
0
0
0
0
0
0
0
0
0
0
0
0
0
0
0
0
0
0
0
0
0
0
0
0
0
0
0
0
0
0
0
0
0
0
0
0
0
0
0
0
0
0
0
0
0
0
0
0
0
0
0
0
0
0
0
0
0
0
0
0
0
0
0
0
0
0
0
0
0
0
0
0
0
0
0
0
0
0
0
0
0
0
0
0
0
0
0
0
0
0
0
0
0
0
0
0
0
0
0
0
0
0
0
0
0
0
0
0
0
0
0
0
0
0
0
0
0
0
0
0
0
0
0
0
0
0
0
0
0
0
0
0
0
0
0
0
0
0
0
0
0
0
0
0
0
0
0
0
0
0
0
0
0
0
0
0
0
0
0
30
30
0
0
0
0
0
0
0
0
0
0
13
13
0
0
0
0
0
0
0
0
0
0
0
0
0
0
0
0
52
26
0
0
0
0
0
0
0
0
0
0
0
0
0
0
0
0
0
0
0
0
0
0
0
0
0
0
0
0
0
0
0
0
0
0
255
3
0
0
0
0
0
0
0
0
0
0
217
4
0
0
0
0
0
0
0
0
0
0
0
0
0
0
0
0
0
0
0
0
0
0
0
0
0
0
0
0
0
0
0
254
86
0
0
0
0
0
0
0
0
0
0
0
0
0
0
0
0
0
0
0
109
182
0
0
0
0
0
0
0
0
0
0
0
0
0
0
0
0
0
0
0
0
0
0
0
0
0
0
0
0
24
248
0
0
0
0
0
0
0
0
0
0
0
0
0
0
0
0
0
0
0
0
0
0
0
0
0
0
0
0
0
0
0
0
0
0
0
0
0
0
0
0
0
0
0
0
0
0
0
0
0
0
0
0
0
0
0
30
30
0
0
0
0
0
0
0
30
30
0
0
0
0
0
0
0
0
0
0
0
0
0
0
0
0
0
0
0
139
71
0
0
0
0
0
0
0
139
71
0
0
0
0
0
0
0
0
0
0
0
0
0
0
0
0
0
0
0
0
0
0
0
0
0
0
0
0
0
0
0
252
4
0
81
1
0
0
0
0
0
0
0
0
0
0
0
0
0
0
0
0
0
0
0
251
85
0
0
0
0
0
0
0
251
85
0
0
0
0
0
0
0
0
0
0
0
0
0
0
0
0
0
0
0
0
0
0
0
0
0
105
174
0
0
0
0
25
42
0
105
174
0
0
0
0
0
0
0
0
0
0
0
0
0
0
0
0
0
0
0
15
149
0
0
0
0
0
0
0
24
238
0
0
0
0
0
0
0
0
0
0
0
0
0
0
0
0
0
0
0
0
0
0
0
0
0
0
0
0
0
0
0
0
0
0
0
0
0
37
37
0
35
35
0
12
12
0
35
35
0
36
36
0
12
12
0
36
36
0
0
0
0
0
0
0
0
0
0
88
45
0
139
71
0
0
0
0
136
69
0
136
69
0
0
0
0
145
73
0
0
0
0
0
0
0
0
0
0
0
0
0
0
0
0
255
3
0
252
4
0
250
4
0
244
4
0
0
0
0
208
3
0
217
4
0
0
0
0
0
0
0
0
0
0
0
0
0
254
86
0
0
0
0
254
86
0
243
82
0
0
0
0
243
82
0
158
53
0
0
0
0
0
0
0
0
0
0
0
0
0
88
145
0
105
174
0
0
0
0
103
170
0
88
145
0
0
0
0
109
182
0
0
0
0
0
0
0
0
0
0
9
87
0
23
230
0
15
149
0
23
230
0
24
238
0
0
0
0
24
238
0
0
0
0
0
0
0
0
0
0
0
0
0
0
0
0
0
0
0
0
0
0
0
0
0
0
0
0
0
0
0
0
0
0
0
0
0
30
30
0
35
35
0
35
35
0
35
35
0
35
35
0
0
0
0
37
37
0
0
0
0
0
0
0
88
45
0
47
24
0
139
71
0
136
69
0
136
69
0
139
71
0
0
0
0
145
73
0
0
0
0
0
0
0
0
0
0
217
4
0
0
0
0
244
4
0
244
4
0
244
4
0
250
4
0
244
4
0
93
2
0
0
0
0
0
0
0
0
0
0
254
86
0
0
0
0
251
85
0
243
82
0
243
82
0
251
85
0
251
85
0
158
53
0
0
0
0
0
0
0
0
0
0
0
0
0
39
65
0
105
174
0
105
174
0
103
170
0
103
170
0
105
174
0
0
0
0
109
182
0
0
0
0
0
0
0
20
198
0
24
238
0
24
235
0
23
230
0
23
230
0
24
235
0
0
0
0
24
248
0
0
0
0
0
0
0
0
0
0
0
0
0
0
0
0
0
0
0
0
0
0
0
0
0
0
0
0
0
0
0
0
0
0
30
30
0
0
0
0
0
0
0
0
0
0
12
12
0
0
0
0
36
36
0
0
0
0
0
0
0
88
45
0
52
26
0
0
0
0
0
0
0
0
0
0
0
0
0
0
0
0
139
71
0
0
0
0
0
0
0
0
0
0
208
3
0
0
0
0
252
4
0
0
0
0
0
0
0
0
0
0
208
3
0
93
2
0
0
0
0
0
0
0
0
0
0
251
85
0
0
0
0
0
0
0
0
0
0
0
0
0
0
0
0
251
85
0
158
53
0
0
0
0
0
0
0
0
0
0
0
0
0
39
65
0
105
174
0
0
0
0
0
0
0
0
0
0
0
0
0
0
0
0
105
174
0
0
0
0
0
0
0
20
198
0
24
238
0
0
0
0
0
0
0
0
0
0
0
0
0
0
0
0
24
238
0
0
0
0
0
0
0
0
0
0
0
0
0
0
0
0
0
0
0
0
0
0
0
0
0
0
0
0
0
0
0
0
0
0
12
12
0
30
30
0
33
33
0
30
30
0
27
27
0
0
0
0
13
13
0
0
0
0
0
0
0
33
17
0
19
10
0
117
59
0
74
38
0
117
59
0
117
59
0
0
0
0
52
26
0
0
0
0
0
0
0
0
0
0
81
1
0
0
0
0
81
1
0
217
4
0
0
0
0
208
3
0
136
2
0
34
0
0
0
0
0
0
0
0
0
0
0
92
31
0
0
0
0
216
73
0
209
71
0
136
46
0
209
71
0
92
31
0
60
20
0
0
0
0
0
0
0
0
0
0
0
0
0
15
24
0
39
65
0
88
145
0
39
65
0
88
145
0
88
145
0
0
0
0
40
67
0
0
0
0
0
0
0
8
76
0
9
87
0
20
198
0
17
168
0
20
198
0
20
198
0
0
0
0
9
87
0
0
0
0
0
0
0
0
0
0
0
0
0
0
0
0
0
0
0
0
0
0
0
0
0
0
0
0
0
0
0
0
0
0
0
0
0
0
0
0
0
0
0
0
0
0
0
0
0
0
0
0
0
0
0
0
0
0
0
0
0
0
0
0
0
0
0
0
0
0
0
0
0
0
0
0
0
0
0
0
0
0
0
0
0
0
0
0
0
0
0
0
0
0
0
0
0
0
0
0
0
0
0
0
0
0
0
0
0
0
0
0
0
0
0
0
0
0
0
0
0
0
0
0
0
0
0
0
0
0
0
0
0
0
0
0
0
0
0
0
0
0
0
0
0
0
0
0
0
0
0
0
0
0
0
0
0
0
0
0
0
0
0
0
0
0
0
0
0
0
0
0
0
0
0
0
0
0
0
0
0
0
0
0
0
0
0
0
0
0
0
0
0
0
0
0
0
0
0
0
0
0
0
0
0
0
0
0
0
0
0
0
0
0
0
0
0
0
0
0
0
0
0
0
0
0
0
0
0
0
0
0
0
0
0
0
0
0
0
0
0
0
0
0
0
0
0
0
0
0
33
33
0
0
0
0
0
0
0
0
0
0
13
13
0
0
0
0
0
0
0
0
0
0
0
0
0
0
0
0
52
26
0
0
0
0
0
0
0
0
0
0
0
0
0
0
0
0
0
0
0
0
0
0
0
0
0
0
0
0
0
0
0
0
0
0
255
3
0
0
0
0
0
0
0
0
0
0
217
4
0
0
0
0
0
0
0
0
0
0
0
0
0
0
0
0
0
0
0
0
0
0
0
0
0
0
0
0
0
0
0
254
86
0
0
0
0
0
0
0
0
0
0
0
0
0
0
0
0
0
0
0
109
182
0
0
0
0
0
0
0
0
0
0
0
0
0
0
0
0
0
0
0
0
0
0
0
0
0
0
0
0
24
248
0
0
0
0
0
0
0
0
0
0
0
0
0
0
0
0
0
0
0
0
0
0
0
0
0
0
0
0
0
0
0
0
0
0
0
0
0
0
0
0
0
0
0
0
0
0
0
0
0
0
0
0
0
0
0
30
30
0
0
0
0
0
0
0
30
30
0
0
0
0
0
0
0
0
0
0
0
0
0
0
0
0
0
0
0
145
73
0
0
0
0
0
0
0
145
73
0
0
0
0
0
0
0
0
0
0
0
0
0
0
0
0
0
0
0
0
0
0
0
0
0
0
0
0
0
0
0
255
3
0
81
1
0
0
0
0
0
0
0
0
0
0
0
0
0
0
0
0
0
0
0
254
86
0
0
0
0
0
0
0
254
86
0
0
0
0
0
0
0
0
0
0
0
0
0
0
0
0
0
0
0
0
0
0
0
0
0
109
182
0
0
0
0
39
65
0
109
182
0
0
0
0
0
0
0
0
0
0
0
0
0
0
0
0
0
0
0
15
149
0
0
0
0
0
0
0
24
238
0
0
0
0
0
0
0
0
0
0
0
0
0
0
0
0
0
0
0
0
0
0
0
0
0
0
0
0
0
0
0
0
0
0
0
0
0
13
13
0
30
30
0
30
30
0
35
35
0
35
35
0
30
30
0
12
12
0
0
0
0
0
0
0
0
0
0
33
17
0
74
38
0
117
59
0
136
69
0
136
69
0
117
59
0
47
24
0
0
0
0
0
0
0
0
0
0
0
0
0
0
0
0
93
2
0
250
4
0
244
4
0
244
4
0
208
3
0
244
4
0
81
1
0
0
0
0
0
0
0
0
0
0
0
0
0
92
31
0
209
71
0
243
82
0
243
82
0
209
71
0
251
85
0
60
20
0
0
0
0
0
0
0
0
0
0
0
0
0
39
65
0
105
174
0
88
145
0
103
170
0
103
170
0
88
145
0
39
65
0
0
0
0
0
0
0
0
0
0
3
33
0
24
238
0
21
214
0
23
230
0
23
230
0
20
198
0
8
76
0
0
0
0
0
0
0
0
0
0
0
0
0
0
0
0
0
0
0
0
0
0
0
0
0
0
0
0
0
0
0
0
0
0
36
36
0
35
35
0
35
35
0
35
35
0
35
35
0
35
35
0
36
36
0
36
36
0
0
0
0
0
0
0
88
45
0
52
26
0
136
69
0
136
69
0
136
69
0
136
69
0
0
0
0
139
71
0
0
0
0
0
0
0
0
0
0
208
3
0
0
0
0
244
4
0
244
4
0
244
4
0
244
4
0
244
4
0
93
2
0
0
0
0
0
0
0
0
0
0
251
85
0
0
0
0
243
82
0
243
82
0
243
82
0
243
82
0
251
85
0
158
53
0
0
0
0
0
0
0
0
0
0
0
0
0
39
65
0
105
174
0
103
170
0
103
170
0
103
170
0
103
170
0
0
0
0
105
174
0
0
0
0
0
0
0
23
230
0
23
230
0
23
230
0
23
230
0
23
230
0
23
230
0
24
238
0
24
238
0
0
0
0
0
0
0
0
0
0
0
0
0
0
0
0
0
0
0
0
0
0
0
0
0
0
0
0
0
0
0
0
0
0
30
30
0
36
36
0
36
36
0
36
36
0
35
35
0
0
0
0
36
36
0
0
0
0
0
0
0
88
45
0
52
26
0
139
71
0
139
71
0
139
71
0
139
71
0
0
0
0
139
71
0
0
0
0
0
0
0
0
0
0
208
3
0
0
0
0
244
4
0
250
4
0
250
4
0
250
4
0
244
4
0
93
2
0
0
0
0
0
0
0
0
0
0
251
85
0
0
0
0
251
85
0
251
85
0
251
85
0
251
85
0
251
85
0
158
53
0
0
0
0
0
0
0
0
0
0
0
0
0
39
65
0
105
174
0
105
174
0
105
174
0
105
174
0
105
174
0
0
0
0
105
174
0
0
0
0
0
0
0
20
198
0
24
238
0
24
235
0
24
235
0
24
235
0
24
235
0
0
0
0
24
238
0
0
0
0
0
0
0
0
0
0
0
0
0
0
0
0
0
0
0
0
0
0
0
0
0
0
0
0
0
0
0
0
0
0
0
0
0
36
36
0
37
37
0
36
36
0
30
30
0
0
0
0
0
0
0
0
0
0
0
0
0
0
0
0
0
0
0
139
71
0
88
45
0
145
73
0
145
73
0
0
0
0
0
0
0
0
0
0
0
0
0
0
0
0
0
0
0
0
0
0
0
0
0
255
3
0
0
0
0
252
4
0
81
1
0
0
0
0
0
0
0
0
0
0
0
0
0
0
0
0
0
0
0
254
86
0
251
85
0
158
53
0
251
85
0
0
0
0
0
0
0
0
0
0
0
0
0
0
0
0
0
0
0
0
0
0
0
0
0
105
174
0
40
67
0
105
174
0
109
182
0
0
0
0
0
0
0
0
0
0
0
0
0
0
0
0
0
0
0
24
238
0
20
198
0
24
238
0
24
248
0
0
0
0
0
0
0
0
0
0
0
0
0
0
0
0
0
0
0
0
0
0
0
0
0
0
0
0
0
0
0
0
0
0
0
0
0
0
0
0
0
0
0
0
0
0
0
0
0
0
0
0
0
0
0
0
0
0
0
0
0
0
0
0
0
0
0
0
0
0
0
0
0
0
0
0
0
0
0
0
0
0
0
0
0
0
0
0
0
0
0
0
0
0
0
0
0
0
0
0
0
0
0
0
0
0
0
0
0
0
0
0
0
0
0
0
0
0
0
0
0
0
0
0
0
0
0
0
0
0
0
0
0
0
0
0
0
0
0
0
0
0
0
0
0
0
0
0
0
0
0
0
0
0
0
0
0
0
0
0
0
0
0
0
0
0
0
0
0
0
0
0
0
0
0
0
0
0
0
0
0
0
0
0
0
0
0
0
0
0
0
0
0
0
0
0
0
0
0
0
0
0
0
0
0
0
0
0
0
0
0
0
0
0
0
0
0
0
0
0
0
0
0
0
0
0
0
0
0
0
0
0
0
0
0
0
0
0
0
0
0
0
0
0
0
0
0
0
0
0
0
0
0
23
23
0
23
23
0
23
23
0
23
23
0
23
23
0
23
23
0
0
0
0
0
0
0
0
0
0
0
0
0
0
0
0
33
17
0
88
45
0
88
45
0
88
45
0
88
45
0
88
45
0
0
0
0
0
0
0
0
0
0
0
0
0
0
0
0
158
3
0
158
3
0
158
3
0
158
3
0
158
3
0
158
3
0
0
0
0
0
0
0
0
0
0
0
0
0
0
0
0
0
0
0
158
53
0
158
53
0
158
53
0
158
53
0
158
53
0
102
34
0
0
0
0
0
0
0
0
0
0
0
0
0
57
95
0
67
110
0
67
110
0
67
110
0
67
110
0
67
110
0
0
0
0
0
0
0
0
0
0
0
0
0
0
0
0
15
153
0
15
149
0
15
149
0
15
149
0
15
149
0
15
149
0
0
0
0
0
0
0
0
0
0
0
0
0
0
0
0
0
0
0
0
0
0
0
0
0
0
0
0
0
0
0
0
0
0
35
35
0
35
35
0
35
35
0
35
35
0
35
35
0
35
35
0
36
36
0
0
0
0
0
0
0
0
0
0
88
45
0
139
71
0
136
69
0
136
69
0
136
69
0
136
69
0
136
69
0
139
71
0
0
0
0
0
0
0
0
0
0
217
4
0
244
4
0
244
4
0
244
4
0
244
4
0
244
4
0
244
4
0
217
4
0
0
0
0
0
0
0
0
0
0
0
0
0
254
86
0
243
82
0
243
82
0
243
82
0
243
82
0
243
82
0
251
85
0
0
0
0
0
0
0
0
0
0
0
0
0
103
170
0
103
170
0
103
170
0
103
170
0
103
170
0
103
170
0
109
182
0
0
0
0
0
0
0
0
0
0
9
87
0
23
230
0
23
230
0
23
230
0
23
230
0
23
230
0
23
230
0
24
248
0
0
0
0
0
0
0
0
0
0
0
0
0
0
0
0
0
0
0
0
0
0
0
0
0
0
0
0
36
36
0
35
35
0
12
12
0
12
12
0
35
35
0
0
0
0
12
12
0
35
35
0
36
36
0
0
0
0
0
0
0
136
69
0
136
69
0
0
0
0
84
43
0
136
69
0
0
0
0
139
71
0
136
69
0
52
26
0
0
0
0
0
0
0
244
4
0
250
4
0
0
0
0
250
4
0
250
4
0
0
0
0
208
3
0
244
4
0
0
0
0
0
0
0
0
0
0
243
82
0
243
82
0
0
0
0
0
0
0
243
82
0
0
0
0
0
0
0
243
82
0
254
86
0
0
0
0
0
0
0
105
174
0
103
170
0
0
0
0
0
0
0
103
170
0
0
0
0
0
0
0
103
170
0
105
174
0
0
0
0
0
0
0
23
230
0
23
230
0
0
0
0
8
76
0
24
238
0
0
0
0
24
238
0
23
230
0
15
149
0
0
0
0
0
0
0
0
0
0
0
0
0
0
0
0
0
0
0
0
0
0
0
0
0
23
23
0
23
23
0
33
33
0
33
33
0
23
23
0
35
35
0
33
33
0
23
23
0
23
23
0
0
0
0
0
0
0
88
45
0
88
45
0
136
69
0
117
59
0
88
45
0
136
69
0
88
45
0
88
45
0
33
17
0
0
0
0
0
0
0
158
3
0
158
3
0
244
4
0
158
3
0
158
3
0
244
4
0
178
3
0
158
3
0
0
0
0
0
0
0
0
0
0
158
53
0
158
53
0
251
85
0
243
82
0
158
53
0
251
85
0
251
85
0
158
53
0
158
53
0
0
0
0
0
0
0
67
110
0
67
110
0
105
174
0
105
174
0
67
110
0
103
170
0
105
174
0
67
110
0
67
110
0
0
0
0
0
0
0
15
149
0
15
149
0
23
230
0
21
214
0
15
149
0
23
230
0
15
149
0
15
149
0
9
87
0
0
0
0
0
0
0
0
0
0
0
0
0
0
0
0
0
0
0
0
0
0
0
0
0
0
0
0
37
37
0
36
36
0
13
13
0
36
36
0
0
0
0
36
36
0
0
0
0
0
0
0
0
0
0
0
0
0
0
0
0
47
24
0
145
73
0
88
45
0
145
73
0
0
0
0
145
73
0
0
0
0
0
0
0
0
0
0
0
0
0
0
0
0
255
3
0
255
3
0
255
3
0
255
3
0
255
3
0
252
4
0
0
0
0
0
0
0
0
0
0
0
0
0
0
0
0
0
0
0
254
86
0
0
0
0
254
86
0
0
0
0
254
86
0
158
53
0
0
0
0
0
0
0
0
0
0
0
0
0
88
145
0
109
182
0
0
0
0
105
174
0
40
67
0
105
174
0
0
0
0
0
0
0
0
0
0
0
0
0
0
0
0
24
248
0
15
153
0
9
87
0
24
248
0
0
0
0
24
238
0
0
0
0
0
0
0
0
0
0
0
0
0
0
0
0
0
0
0
0
0
0
0
0
0
0
0
0
0
0
0
37
37
0
0
0
0
0
0
0
0
0
0
0
0
0
0
0
0
0
0
0
37
37
0
37
37
0
0
0
0
0
0
0
139
71
0
117
59
0
0
0
0
0
0
0
0
0
0
0
0
0
0
0
0
145
73
0
52
26
0
0
0
0
0
0
0
252
4
0
0
0
0
0
0
0
0
0
0
0
0
0
0
0
0
0
0
0
252
4
0
0
0
0
0
0
0
0
0
0
251
85
0
254
86
0
0
0
0
0
0
0
0
0
0
0
0
0
0
0
0
158
53
0
254
86
0
0
0
0
0
0
0
109
182
0
40
67
0
0
0
0
0
0
0
0
0
0
0
0
0
0
0
0
105
174
0
105
174
0
0
0
0
0
0
0
24
238
0
0
0
0
0
0
0
0
0
0
0
0
0
0
0
0
0
0
0
24
238
0
15
153
0
0
0
0
0
0
0
0
0
0
0
0
0
0
0
0
0
0
0
0
0
0
0
0
0
0
0
0
0
0
0
0
0
0
0
0
0
0
0
0
0
0
0
0
0
0
0
0
0
0
0
0
0
0
0
0
0
0
0
0
0
0
0
0
0
0
0
0
0
0
0
0
0
0
0
0
0
0
0
0
0
0
0
0
0
0
0
0
0
0
0
0
0
0
0
0
0
0
0
0
0
0
0
0
0
0
0
0
0
0
0
0
0
0
0
0
0
0
0
0
0
0
0
0
0
0
0
0
0
0
0
0
0
0
0
0
0
0
0
0
0
0
0
0
0
0
0
0
0
0
0
0
0
0
0
0
0
0
0
0
0
0
0
0
0
0
0
0
0
0
0
0
0
0
0
0
0
0
0
0
0
0
0
0
0
0
0
0
0
0
0
0
0
0
0
0
0
0
0
0
0
0
0
0
0
0
0
0
0
0
0
0
0
0
0
0
0
0
0
0
0
0
0
0
0
0
0
0
0
0
0
0
0
0
0
0
0
0
0
0
0
0
0
0
37
37
0
36
36
0
36
36
0
36
36
0
36
36
0
36
36
0
0
0
0
0
0
0
0
0
0
0
0
0
0
0
0
52
26
0
139
71
0
139
71
0
139
71
0
139
71
0
145
73
0
0
0
0
0
0
0
0
0
0
0
0
0
0
0
0
255
3
0
252
4
0
252
4
0
252
4
0
252
4
0
252
4
0
0
0
0
0
0
0
0
0
0
0
0
0
0
0
0
0
0
0
251
85
0
251
85
0
251
85
0
251
85
0
251
85
0
158
53
0
0
0
0
0
0
0
0
0
0
0
0
0
88
145
0
105
174
0
105
174
0
105
174
0
105
174
0
105
174
0
0
0
0
0
0
0
0
0
0
0
0
0
0
0
0
24
248
0
24
238
0
24
238
0
24
238
0
24
238
0
24
238
0
0
0
0
0
0
0
0
0
0
0
0
0
0
0
0
0
0
0
0
0
0
0
0
0
0
0
0
0
0
0
30
30
0
35
35
0
19
19
0
19
19
0
35
35
0
13
13
0
19
19
0
35
35
0
30
30
0
0
0
0
0
0
0
127
64
0
136
69
0
52
26
0
99
50
0
136
69
0
52
26
0
139
71
0
136
69
0
47
24
0
0
0
0
0
0
0
244
4
0
244
4
0
93
2
0
244
4
0
244
4
0
93
2
0
217
4
0
244
4
0
0
0
0
0
0
0
0
0
0
209
71
0
243
82
0
80
27
0
92
31
0
243
82
0
80
27
0
80
27
0
243
82
0
216
73
0
0
0
0
0
0
0
88
145
0
103
170
0
39
65
0
25
42
0
103
170
0
39
65
0
25
42
0
103
170
0
88
145
0
0
0
0
0
0
0
20
198
0
23
230
0
9
87
0
13
128
0
24
235
0
9
87
0
24
235
0
23
230
0
13
128
0
0
0
0
0
0
0
0
0
0
0
0
0
0
0
0
0
0
0
0
0
0
0
0
0
36
36
0
35
35
0
36
36
0
36
36
0
35
35
0
36
36
0
36
36
0
35
35
0
36
36
0
0
0
0
0
0
0
139
71
0
139
71
0
139
71
0
139
71
0
139
71
0
139
71
0
139
71
0
139
71
0
52
26
0
0
0
0
0
0
0
250
4
0
250
4
0
250
4
0
250
4
0
250
4
0
250
4
0
250
4
0
250
4
0
0
0
0
0
0
0
0
0
0
243
82
0
243
82
0
251
85
0
251
85
0
243
82
0
251
85
0
251
85
0
243
82
0
254
86
0
0
0
0
0
0
0
105
174
0
105
174
0
105
174
0
105
174
0
105
174
0
105
174
0
105
174
0
105
174
0
105
174
0
0
0
0
0
0
0
24
235
0
24
235
0
24
235
0
24
235
0
24
235
0
24
235
0
24
235
0
24
235
0
15
153
0
0
0
0
0
0
0
0
0
0
0
0
0
0
0
0
0
0
0
0
0
0
0
0
0
0
0
0
0
0
0
30
30
0
30
30
0
0
0
0
37
37
0
30
30
0
0
0
0
0
0
0
0
0
0
0
0
0
0
0
0
0
0
0
136
69
0
88
45
0
0
0
0
145
73
0
0
0
0
0
0
0
0
0
0
0
0
0
0
0
0
0
0
0
0
0
0
244
4
0
0
0
0
0
0
0
244
4
0
81
1
0
0
0
0
0
0
0
0
0
0
0
0
0
0
0
0
0
0
0
251
85
0
254
86
0
0
0
0
254
86
0
251
85
0
0
0
0
0
0
0
0
0
0
0
0
0
0
0
0
0
0
0
105
174
0
109
182
0
0
0
0
105
174
0
105
174
0
0
0
0
0
0
0
0
0
0
0
0
0
0
0
0
0
0
0
24
235
0
20
198
0
0
0
0
24
248
0
0
0
0
0
0
0
0
0
0
0
0
0
0
0
0
0
0
0
0
0
0
0
0
0
0
0
0
0
0
0
0
0
0
30
30
0
12
12
0
13
13
0
5
5
0
13
13
0
0
0
0
13
13
0
30
30
0
30
30
0
0
0
0
0
0
0
117
59
0
99
50
0
52
26
0
33
17
0
52
26
0
0
0
0
52
26
0
117
59
0
47
24
0
0
0
0
0
0
0
208
3
0
93
2
0
93
2
0
93
2
0
93
2
0
93
2
0
93
2
0
208
3
0
0
0
0
0
0
0
0
0
0
209
71
0
209
71
0
92
31
0
0
0
0
92
31
0
0
0
0
92
31
0
158
53
0
216
73
0
0
0
0
0
0
0
88
145
0
57
95
0
39
65
0
0
0
0
39
65
0
15
24
0
39
65
0
88
145
0
88
145
0
0
0
0
0
0
0
20
198
0
8
76
0
5
57
0
3
33
0
9
87
0
0
0
0
9
87
0
20
198
0
13
128
0
0
0
0
0
0
0
0
0
0
0
0
0
0
0
0
0
0
0
0
0
0
0
0
0
0
0
0
0
0
0
0
0
0
0
0
0
0
0
0
0
0
0
0
0
0
0
0
0
0
0
0
0
0
0
0
0
0
0
0
0
0
0
0
0
0
0
0
0
0
0
0
0
0
0
0
0
0
0
0
0
0
0
0
0
0
0
0
0
0
0
0
0
0
0
0
0
0
0
0
0
0
0
0
0
0
0
0
0
0
0
0
0
0
0
0
0
0
0
0
0
0
0
0
0
0
0
0
0
0
0
0
0
0
0
0
0
0
0
0
0
0
0
0
0
0
0
0
0
0
0
0
0
0
0
0
0
0
0
0
0
0
0
0
0
0
0
0
0
0
0
0
0
0
0
0
0
0
0
0
0
0
0
0
0
0
0
0
0
0
0
0
0
0
0
0
0
0
0
0
0
0
0
0
0
0
0
0
0
0
0
0
0
0
0
0
0
0
0
0
0
0
0
0
0
0
0
0
0
0
0
0
0
0
0
0
0
0
0
0
0
0
0
0
0
0
0
0
0
0
0
0
0
0
0
0
0
0
0
0
0
0
0
0
0
0
0
0
0
0
0
0
0
0
0
0
0
0
0
0
0
0
0
0
0
0
0
0
0
0
0
0
0
0
0
0
0
0
0
0
0
0
0
0
0
0
0
0
0
0
0
0
0
0
0
0
0
0
0
0
0
0
0
0
0
0
0
0
0
0
0
0
0
0
0
0
0
0
0
0
0
0
0
0
0
0
0
0
0
0
0
0
0
0
0
0
0
0
0
0
0
0
0
0
0
0
0
0
0
0
0
0
0
0
0
0
0
0
0
0
0
0
0
0
0
0
0
0
0
0
0
0
0
0
0
0
0
0
0
0
0
0
0
0
0
0
0
0
0
0
0
0
0
0
0
0
0
0
0
0
0
0
0
0
0
0
0
0
0
0
0
0
0
0
0
0
0
0
0
0
0
0
0
0
0
0
0
0
0
0
0
0
0
0
0
0
0
0
0
0
0
0
0
0
0
0
0
0
0
0
0
0
0
0
0
0
0
0
0
0
0
0
0
0
0
0
0
0
0
0
0
0
0
0
0
0
0
0
0
0
0
0
0
0
0
0
0
0
0
0
0
0
0
0
0
0
0
0
0
0
0
0
0
0
0
0
0
0
0
0
0
0
0
0
0
0
0
0
0
0
0
0
0
0
0
0
0
0
0
0
0
0
0
0
0
0
0
0
0
0
0
0
0
0
0
0
0
0
0
0
0
0
0
0
0
0
0
0
0
0
0
0
0
0
0
0
0
0
0
0
0
0
0
0
0
0
0
0
0
0
0
0
0
0
0
0
0
0
0
0
0
0
0
0
0
0
0
0
0
0
0
0
0
0
0
0
0
0
0
0
0
0
0
0
0
0
0
0
0
0
0
0
0
0
0
0
0
0
0
0
0
0
0
0
0
0
0
0
0
0
0
0
0
0
0
0
0
0
0
0
0
0
0
0
0
0
0
0
0
0
0
0
0
0
0
0
0
0
0
0
0
0
0
0
0
0
0
0
0
0
0
0
0
0
0
0
0
0
0
0
0
0
0
0
0
0
0
0
0
0
0
0
0
0
0
0
0
0
0
0
0
0
0
0
0
0
0
0
0
0
0
0
0
0
0
0
0
0
0
0
0
0
0
0
0
0
0
0
0
0
0
0
0
0
0
0
0
0
0
0
0
0
0
0
0
0
0
0
0
0
0
0
0
0
0
0
0
0
0
0
0
0
0
0
0
0
0
0
0
0
0
0
0
0
0
0
0
0
0
0
0
0
0
0
0
0
0
0
0
0
0
0
0
0
0
0
0
0
0
0
0
0
0
0
0
0
0
0
0
0
0
0
0
0
0
0
0
0
0
0
0
0
0
0
0
0
0
0
0
0
0
0
0
0
0
0
0
0
0
0
0
0
0
0
0
0
0
0
0
0
0
0
0
0
0
0
0
0
0
0
0
0
0
0
0
0
0
0
0
0
0
0
0
0
0
0
0
0
0
0
0
0
0
0
0
0
0
0
0
0
0
0
0
0
0
0
0
0
0
0
0
0
0
0
0
0
0
0
0
0
0
0
0
0
0
0
0
0
0
0
0
0
0
0
0
0
0
0
0
0
0
0
0
0
0
0
0
0
0
0
0
0
0
0
0
0
0
0
0
0
0
0
0
0
0
0
0
0
0
0
0
0
0
0
0
0
0
0
0
0
0
0
0
0
0
0
0
0
0
0
0
0
0
0
0
0
0
0
0
0
0
0
0
0
0
0
0
0
0
0
0
0
0
0
0
0
0
0
0
0
0
0
0
0
0
0
0
0
0
0
0
0
0
0
0
0
0
0
0
0
0
0
0
0
0
0
0
0
0
0
0
0
0
0
0
0
0
0
0
0
0
0
0
0
0
0
0
0
0
0
0
0
0
0
0
0
0
0
0
0
0
0
0
0
0
0
0
0
0
0
0
0
0
0
0
0
0
0
0
0
0
0
0
0
0
0
0
0
0
0
0
0
0
0
0
0
0
0
0
0
0
0
0
0
0
0
0
0
0
0
0
0
0
0
0
0
0
0
0
0
0
0
0
0
0
0
0
0
0
0
0
0
0
0
0
0
0
0
0
0
0
0
0
0
0
0
0
0
0
0
0
0
37
95
0
122
252
0
122
252
0
124
249
0
127
246
0
0
0
0
0
0
0
0
0
0
0
0
0
0
0
0
0
0
0
0
0
0
0
0
0
0
0
0
0
0
0
0
0
0
0
0
0
0
0
0
0
0
0
0
0
0
0
0
0
0
0
0
0
0
0
0
0
0
0
0
0
0
0
0
0
0
0
0
0
0
0
0
0
0
0
0
0
0
0
0
0
0
0
0
0
0
0
0
0
0
0
0
0
0
0
0
0
0
0
0
0
0
0
0
0
0
0
0
0
0
0
0
0
0
0
0
0
0
0
0
0
0
0
0
0
0
0
0
0
0
0
0
0
0
0
0
0
0
0
0
0
0
0
0
0
0
0
0
0
0
0
0
0
0
0
0
0
0
0
0
0
0
0
0
0
0
0
0
0
0
0
0
0
0
0
0
0
0
0
0
0
0
0
0
0
0
0
0
0
0
0
0
0
0
0
0
0
0
0
79
8
0
219
98
0
245
0
0
245
0
0
150
220
0
119
254
0
240
23
0
0
0
0
0
0
0
0
0
0
0
0
0
0
0
0
0
0
0
0
0
0
0
0
0
0
0
0
0
0
0
0
0
0
0
0
0
0
0
0
0
0
0
0
0
0
0
0
0
0
0
0
0
0
0
0
0
0
0
0
0
0
0
0
0
0
0
0
0
0
0
0
0
0
0
0
0
0
0
0
0
0
0
0
0
0
0
0
0
0
0
0
0
0
0
0
0
0
0
0
0
0
0
0
0
0
0
0
0
0
0
0
0
0
0
0
0
0
0
0
0
0
0
0
0
0
0
0
0
0
0
0
0
0
0
0
0
0
0
0
0
0
0
0
0
0
0
0
0
0
0
0
0
0
0
0
0
0
0
0
0
0
0
0
0
0
0
0
0
0
0
0
0
0
0
0
0
0
0
0
0
0
0
0
0
0
0
0
0
0
0
0
0
245
0
0
150
220
0
150
220
0
111
255
0
119
254
0
127
246
0
127
246
0
119
254
0
127
246
0
0
0
0
0
0
0
0
0
0
0
0
0
0
0
0
0
0
0
0
0
0
0
0
0
0
0
0
0
0
0
0
0
0
0
0
0
0
0
0
0
0
0
0
0
0
0
0
0
0
0
0
0
0
0
0
0
0
0
0
0
0
0
0
0
0
0
0
0
0
0
0
0
0
0
0
0
0
0
0
0
0
0
0
0
0
0
0
0
0
0
0
0
0
0
0
0
0
0
0
0
0
0
0
0
0
0
0
0
0
0
0
0
0
0
0
0
0
0
0
0
0
0
0
0
0
0
0
0
0
0
0
0
0
0
0
0
0
0
0
0
0
0
0
0
0
0
0
0
0
0
0
0
0
0
0
0
0
0
0
0
0
0
0
0
0
0
0
0
0
0
0
0
0
0
0
0
0
0
0
0
0
0
0
0
0
0
156
15
0
240
23
0
240
23
0
177
182
0
127
246
0
127
246
0
141
230
0
240
23
0
240
23
0
186
167
0
245
0
0
91
9
0
0
0
0
0
0
0
0
0
0
0
0
0
0
0
0
0
0
0
0
0
0
0
0
0
0
0
0
0
0
0
0
0
0
0
0
0
0
0
0
0
0
0
0
0
0
0
0
0
0
0
0
0
0
0
0
0
0
0
0
0
0
0
0
0
0
0
0
0
0
0
0
0
0
0
0
0
0
0
0
0
0
0
0
0
0
0
0
0
0
0
0
0
0
0
0
0
0
0
0
0
0
0
0
0
0
0
0
0
0
0
0
0
0
0
0
0
0
0
0
0
0
0
0
0
0
0
0
0
0
0
0
0
0
0
0
0
0
0
0
0
0
0
0
0
0
0
0
0
0
0
0
0
0
0
0
0
0
0
0
0
0
0
0
0
0
0
0
0
0
0
0
0
0
0
0
0
0
0
0
0
245
0
0
240
23
0
225
83
0
127
246
0
127
246
0
127
246
0
155
213
0
240
23
0
240
23
0
240
23
0
240
23
0
156
15
0
0
0
0
0
0
0
0
0
0
0
0
0
0
0
0
0
0
0
0
0
0
0
0
0
0
0
0
0
0
0
0
0
0
0
0
0
0
0
0
0
0
0
0
0
0
0
0
0
0
0
0
0
0
0
0
0
0
0
0
0
0
0
0
0
0
0
0
0
0
0
0
0
0
0
0
0
0
0
0
0
0
0
0
0
0
0
0
0
0
0
0
0
0
0
0
0
0
0
0
0
0
0
0
0
0
0
0
0
0
0
0
0
0
0
0
0
0
0
0
0
0
0
0
0
0
0
0
0
0
0
0
0
0
0
0
0
0
0
0
0
0
0
0
0
0
0
0
0
0
0
0
0
0
0
0
0
0
0
0
0
0
0
0
0
0
0
0
0
0
0
0
0
0
0
0
0
0
0
0
0
245
0
0
245
0
0
240
23
0
127
246
0
127
246
0
127
246
0
155
213
0
240
23
0
245
0
0
240
23
0
240
23
0
156
15
0
0
0
0
0
0
0
0
0
0
0
0
0
0
0
0
0
0
0
0
0
0
0
0
0
0
0
0
0
0
0
0
0
0
0
0
0
0
0
0
0
0
0
0
0
0
0
0
0
0
0
0
0
0
0
0
0
0
0
0
0
0
0
0
0
0
0
0
0
0
0
0
0
0
0
0
0
0
0
0
0
0
0
0
0
0
0
0
0
0
0
0
0
0
0
0
0
0
0
0
0
0
0
0
0
0
0
0
0
0
0
0
0
0
0
0
0
0
0
0
0
0
0
0
0
0
0
0
0
0
0
0
0
0
0
0
0
0
0
0
0
0
0
0
0
0
0
0
0
0
0
0
0
0
0
0
0
0
0
0
0
0
0
0
0
0
0
0
0
0
0
0
0
0
0
0
0
0
0
0
0
245
0
0
124
249
0
219
98
0
127
246
0
127
246
0
127
246
0
155
213
0
245
0
0
119
254
0
240
23
0
240
23
0
156
15
0
0
0
0
0
0
0
0
0
0
0
0
0
0
0
0
0
0
0
0
0
0
0
0
0
0
0
0
0
0
0
0
0
0
0
0
0
0
0
0
0
0
0
0
0
0
0
0
0
0
0
0
0
0
0
0
0
0
0
0
0
0
0
0
0
0
0
0
0
0
0
0
0
0
0
0
0
0
0
0
0
0
0
0
0
0
0
0
0
0
0
0
0
0
0
0
0
0
0
0
0
0
0
0
0
0
0
0
0
0
0
0
0
0
0
0
0
0
0
0
0
0
0
0
0
0
0
0
0
0
0
0
0
0
0
0
0
0
0
0
0
0
0
0
0
0
0
0
0
0
0
0
0
0
0
0
0
0
0
0
0
0
0
0
0
0
0
0
0
0
0
0
0
0
0
0
0
0
0
0
0
127
246
0
245
0
0
245
0
0
124
249
0
127
246
0
127
246
0
127
246
0
127
246
0
127
246
0
245
0
0
240
23
0
156
15
0
0
0
0
0
0
0
0
0
0
0
0
0
0
0
0
0
0
0
0
0
0
0
0
0
0
0
0
0
0
0
0
0
0
0
0
0
0
0
0
0
0
0
0
0
0
0
0
0
0
0
0
0
0
0
0
0
0
0
0
0
0
0
0
0
0
0
0
0
0
0
0
0
0
0
0
0
0
0
0
0
0
0
0
0
0
0
0
0
0
0
0
0
0
0
0
0
0
0
0
0
0
0
0
0
0
0
0
0
0
0
0
0
0
0
0
0
0
0
0
0
0
0
0
0
0
0
0
0
0
0
0
0
0
0
0
0
0
0
0
0
0
0
0
0
0
0
0
0
0
0
0
0
0
0
0
0
0
0
0
0
0
0
0
0
0
0
0
0
0
0
0
0
0
0
0
0
0
0
0
0
0
0
0
127
246
0
127
246
0
219
98
0
119
254
0
245
0
0
219
98
0
127
246
0
127
246
0
245
0
0
245
0
0
0
0
0
0
0
0
0
0
0
0
0
0
0
0
0
0
0
0
0
0
0
0
0
0
0
0
0
0
0
0
0
0
0
0
0
0
0
0
0
0
0
0
0
0
0
0
0
0
0
0
0
0
0
0
0
0
0
0
0
0
0
0
0
0
0
0
0
0
0
0
0
0
0
0
0
0
0
0
0
0
0
0
0
0
0
0
0
0
0
0
0
0
0
0
0
0
0
0
0
0
0
0
0
0
0
0
0
0
0
0
0
0
0
0
0
0
0
0
0
0
0
0
0
0
0
0
0
0
0
0
0
0
0
0
0
0
0
0
0
0
0
0
0
0
0
0
0
0
0
0
0
0
0
0
0
0
0
0
0
0
0
0
0
0
0
0
0
0
0
0
0
0
0
0
0
0
0
0
0
0
0
0
0
0
0
0
86
167
0
127
246
0
155
213
0
240
23
0
240
23
0
230
68
0
127
246
0
127
246
0
156
15
0
0
0
0
0
0
0
0
0
0
0
0
0
0
0
0
0
0
0
0
0
0
0
0
0
0
0
0
0
0
0
0
0
0
0
0
0
0
0
0
0
0
0
0
0
0
0
0
0
0
0
0
0
0
0
0
0
0
0
0
0
0
0
0
0
0
0
0
0
0
0
0
0
0
0
0
0
0
0
0
0
0
0
0
0
0
0
0
0
0
0
0
0
0
0
0
0
0
0
0
0
0
0
0
0
0
0
0
0
0
0
0
0
0
0
0
0
0
0
0
0
0
0
0
0
0
0
0
0
0
0
0
0
0
0
0
0
0
0
0
0
0
0
0
0
0
0
0
0
0
0
0
0
0
0
0
0
0
0
0
0
0
0
0
0
0
0
0
0
0
0
0
0
0
0
0
0
0
0
0
0
0
0
0
0
0
0
0
0
0
0
0
0
0
0
0
155
213
0
240
23
0
240
23
0
240
23
0
245
0
0
124
249
0
0
0
0
0
0
0
0
0
0
0
0
0
0
0
0
0
0
0
0
0
0
0
0
0
0
0
0
0
0
0
0
0
0
0
0
0
0
0
0
0
0
0
0
0
0
0
0
0
0
0
0
0
0
0
0
0
0
0
0
0
0
0
0
0
0
0
0
0
0
0
0
0
0
0
0
0
0
0
0
0
0
0
0
0
0
0
0
0
0
0
0
0
0
0
0
0
0
0
0
0
0
0
0
0
0
0
0
0
0
0
0
0
0
0
0
0
0
0
0
0
0
0
0
0
0
0
0
0
0
0
0
0
0
0
0
0
0
0
0
0
0
0
0
0
0
0
0
0
0
0
0
0
0
0
0
0
0
0
0
0
0
0
0
0
0
0
0
0
0
0
0
0
0
0
0
0
0
0
0
0
0
0
0
0
0
0
0
0
0
0
0
0
0
0
0
0
0
0
34
12
0
91
9
0
91
9
0
91
9
0
91
9
0
0
0
0
0
0
0
0
0
0
0
0
0
0
0
0
0
0
0
0
0
0
0
0
0
0
0
0
0
0
0
0
0
0
0
0
0
0
0
0
0
0
0
0
0
0
0
0
0
0
0
0
0
0
0
0
0
0
0
0
0
0
0
0
0
0
0
0
0
0
0
0
0
0
0
0
0
0
0
0
0
0
0
0
0
0
0
0
0
0
0
0
0
0
0
0
0
0
0
0
0
0
0
0
0
0
0
0
0
0
0
0
0
0
0
0
0
0
0
0
0
0
0
0
0
0
0
0
0
0
0
0
0
0
0
0
0
0
0
0
0
0
0
0
0
0
0
0
0
0
0
0
0
0
0
0
0
0
0
0
0
0
0
0
0
0
0
0
0
0
0
0
0
0
0
0
0
0
0
0
0
0
0
0
0
0
0
0
0
0
0
0
0
0
0
0
0
0
0
0
0
0
0
0
0
0
0
0
0
0
0
0
0
0
0
0
0
0
0
0
0
0
0
0
0
0
0
0
0
0
0
0
0
0
0
0
0
0
0
0
0
0
0
0
0
0
0
0
0
0
0
0
0
0
0
0
0
0
0
0
0
0
0
0
0
0
0
0
0
0
0
0
0
0
0
0
0
0
0
0
0
0
0
0
0
0
0
0
0
0
0
0
0
0
0
0
0
0
0
0
0
0
0
0
0
0
0
0
0
0
0
0
0
0
0
0
0
0
0
0
0
0
0
0
0
0
0
0
0
0
0
0
0
0
0
0
0
0
0
0
0
0
0
0
0
0
0
0
0
0
0
0
0
0
0
0
0
0
0
0
0
0
0
0
0
0
0
0
0
0
0
0
0
0
0
0
0
0
0
0
0
0
0
0
0
0
0
0
0
0
0
0
0
0
0
0
0
0
0
0
0
0
0
0
0
0
0
0
0
0
0
0
0
0
0
0
0
0
0
0
0
0
0
0
0
0
0
0
0
0
0
0
0
0
0
0
0
0
0
0
0
0
0
0
0
0
0
0
0
0
0
0
0
0
0
0
0
0
0
0
0
0
0
0
0
0
0
0
0
0
0
0
0
0
0
0
0
0
0
0
0
0
0
0
0
0
0
0
0
0
0
0
0
0
0
0
0
0
0
0
0
0
0
0
0
0
0
0
0
0
0
0
0
0
0
0
0
0
0
0
0
0
0
0
0
0
0
0
0
0
0
0
0
0
