P3
72 72
255
0
0
0
0
0
0
0
0
0
0
0
0
0
0
0
0
0
0
0
0
0
0
0
0
0
0
0
0
0
0
0
0
0
0
0
0
0
0
0
0
0
0
0
0
0
0
0
0
0
0
0
0
0
0
0
0
0
0
0
0
0
0
0
0
0
0
0
0
0
0
0
0
0
0
0
0
0
0
0
0
0
0
0
0
0
0
0
0
0
0
0
0
0
0
0
0
0
0
0
0
0
0
0
0
0
0
0
0
0
0
0
0
0
0
0
0
0
0
0
0
0
0
0
0
0
0
0
0
0
0
0
0
0
0
0
0
0
0
0
0
0
0
0
0
0
0
0
0
0
0
0
0
0
0
0
0
0
0
0
0
0
0
0
0
0
0
0
0
0
0
0
0
0
0
0
0
0
0
0
0
0
0
0
0
0
0
0
0
0
0
0
0
0
0
0
0
0
0
0
0
0
0
0
0
0
0
0
0
0
0
0
0
0
0
0
0
0
0
0
0
0
0
0
0
0
0
0
0
0
0
0
0
0
0
0
0
0
0
0
0
0
0
0
0
0
0
0
0
0
0
0
0
0
0
0
0
0
0
0
0
0
0
0
0
0
0
0
0
0
0
0
0
0
254
145
0
244
139
0
238
136
0
238
136
0
238
136
0
239
194
0
246
250
0
91
93
0
0
0
0
0
0
0
0
0
0
0
0
0
0
0
0
0
0
0
0
0
0
0
0
0
0
0
0
0
0
0
0
0
0
0
0
0
0
0
0
0
0
0
0
0
0
0
0
0
0
0
0
0
0
0
0
0
0
0
0
0
0
0
0
0
0
0
0
0
0
0
0
0
0
0
0
0
0
0
0
0
0
0
0
0
0
0
0
0
0
0
0
0
0
0
0
0
0
0
0
0
0
0
0
0
0
0
0
0
0
0
0
0
0
0
0
0
0
0
0
0
0
0
0
0
0
0
0
0
0
0
0
0
0
0
0
0
0
0
0
0
0
0
0
0
0
0
0
0
0
0
0
0
0
0
0
0
0
0
0
0
0
0
0
0
0
0
0
0
0
0
0
0
0
0
0
0
0
0
0
0
0
0
0
0
0
0
0
0
0
147
84
0
254
145
0
238
136
0
254
145
0
238
136
0
244
139
0
239
194
0
240
244
0
246
250
0
0
0
0
0
0
0
0
0
0
0
0
0
0
0
0
0
0
0
0
0
0
0
0
0
0
0
0
0
0
0
0
0
0
0
0
0
0
0
0
0
0
0
0
0
0
0
0
0
0
0
0
0
0
0
0
0
0
0
0
0
0
0
0
0
0
0
0
0
0
0
0
0
0
0
0
0
0
0
0
0
0
0
0
0
0
0
0
0
0
0
0
0
0
0
0
0
0
0
0
0
0
0
0
0
0
0
0
0
0
0
0
0
0
0
0
0
0
0
0
0
0
0
0
0
0
0
0
0
0
0
0
0
0
0
0
0
0
0
0
0
0
0
0
0
0
0
0
0
0
0
0
0
0
0
0
0
0
0
0
0
0
0
0
0
0
0
0
0
0
0
0
0
0
0
0
0
0
0
0
0
0
0
0
0
0
0
205
117
0
238
136
0
205
117
0
238
136
0
205
117
0
238
136
0
205
117
0
239
194
0
246
250
0
240
244
0
240
244
0
214
217
0
0
0
0
0
0
0
0
0
0
0
0
0
0
0
0
0
0
0
0
0
0
0
0
0
0
0
0
0
0
0
0
0
0
0
0
0
0
0
0
0
0
0
0
0
0
0
0
0
0
0
0
0
0
0
0
0
0
0
0
0
0
0
0
0
0
0
0
0
0
0
0
0
0
0
0
0
0
0
0
0
0
0
0
0
0
0
0
0
0
0
0
0
0
0
0
0
0
0
0
0
0
0
0
0
0
0
0
0
0
0
0
0
0
0
0
0
0
0
0
0
0
0
0
0
0
0
0
0
0
0
0
0
0
0
0
0
0
0
0
0
0
0
0
0
0
0
0
0
0
0
0
0
0
0
0
0
0
0
0
0
0
0
0
0
0
0
0
0
0
0
0
0
0
0
0
0
0
0
0
0
0
0
0
154
88
0
238
136
0
254
145
0
0
0
0
254
145
0
83
47
0
0
0
0
246
250
0
240
244
0
0
0
0
0
0
0
0
0
0
0
0
0
0
0
0
0
0
0
0
0
0
0
0
0
0
0
0
0
0
0
0
0
0
0
0
0
0
0
0
0
0
0
0
0
0
0
0
0
0
0
0
0
0
0
0
0
0
0
0
0
0
0
0
0
0
0
0
0
0
0
0
0
0
0
0
0
0
0
0
0
0
0
0
0
0
0
0
0
0
0
0
0
0
0
0
0
0
0
0
0
0
0
0
0
0
0
0
0
0
0
0
0
0
0
0
0
0
0
0
0
0
0
0
0
0
0
0
0
0
0
0
0
0
0
0
0
0
0
0
0
0
0
0
0
0
0
0
0
0
0
0
0
0
0
0
0
0
0
0
0
0
0
0
0
0
0
0
0
0
0
0
0
0
0
0
0
0
0
0
0
0
0
0
0
0
0
0
0
0
0
0
0
0
0
0
0
0
0
0
0
0
0
0
0
0
0
0
0
0
0
0
0
0
0
0
0
0
0
0
0
0
0
0
0
0
0
0
0
0
0
0
0
0
0
0
0
0
0
0
0
0
0
0
0
0
0
0
0
0
0
0
0
0
0
0
0
0
0
0
0
0
0
0
0
0
0
0
0
0
0
0
0
0
0
0
0
0
0
0
0
0
0
0
0
0
0
0
0
0
0
0
0
0
0
0
0
0
0
0
0
0
0
0
0
0
0
0
0
0
0
0
0
0
0
0
0
0
0
0
0
0
0
0
0
0
0
0
0
0
0
0
0
0
0
0
0
0
0
0
0
0
0
0
0
0
0
0
0
0
0
0
0
0
0
0
0
0
0
0
0
0
0
0
0
0
0
0
0
0
0
0
0
0
0
0
0
0
0
0
0
0
0
0
0
0
0
0
0
0
0
0
0
0
0
0
0
0
0
0
0
0
0
0
0
0
0
0
0
0
0
0
0
0
0
0
0
0
0
0
0
0
0
0
0
0
0
0
0
0
0
0
0
0
0
0
0
0
0
0
0
0
0
0
0
0
0
0
0
0
0
0
0
0
0
0
0
0
0
0
0
0
0
0
0
0
0
0
0
0
0
0
0
0
0
0
0
0
0
0
0
0
0
0
0
0
0
0
0
0
0
0
0
0
0
0
0
0
0
0
0
0
0
0
0
0
0
0
0
0
0
0
0
0
0
0
0
0
0
0
0
0
0
0
0
0
0
0
0
0
0
0
0
0
0
0
0
0
0
0
0
0
0
0
0
0
0
0
0
0
0
0
0
0
0
0
0
0
0
0
0
0
0
0
0
0
0
0
0
0
0
0
0
0
0
0
0
0
0
0
0
0
0
0
0
0
0
0
0
0
0
0
0
0
0
0
0
0
0
0
0
0
0
0
0
0
0
0
0
0
0
0
0
0
0
0
0
0
0
0
0
0
0
0
0
0
0
0
0
0
0
0
0
0
0
0
0
0
0
0
0
0
0
0
0
0
0
0
0
0
0
0
0
0
0
0
0
0
0
0
0
0
0
0
0
0
0
0
0
0
0
0
0
0
0
0
0
0
0
0
0
0
0
0
0
0
0
0
0
0
0
0
0
0
0
0
0
0
0
0
0
0
0
0
0
0
0
0
0
0
0
0
0
0
0
0
0
0
0
0
0
0
0
0
0
0
0
0
0
0
0
0
0
0
0
0
0
0
0
0
0
0
0
0
0
0
0
0
0
0
0
0
0
0
0
0
0
0
0
0
0
0
0
0
0
0
0
0
0
0
0
0
0
0
0
0
0
0
0
0
0
0
0
0
0
0
0
0
0
0
0
0
0
0
0
0
0
0
0
0
0
0
0
0
0
0
0
0
0
0
0
0
0
0
0
0
0
0
0
0
0
0
0
0
0
0
0
0
0
0
0
0
0
0
0
0
0
0
0
0
0
0
0
0
0
0
0
0
0
0
0
0
0
0
0
0
0
0
0
0
0
0
0
0
0
0
0
0
0
0
0
0
0
0
0
0
0
0
0
0
0
0
0
0
0
0
0
0
0
0
0
0
0
0
0
0
0
0
0
0
0
0
0
0
0
0
0
0
0
0
0
0
0
0
0
0
0
0
0
0
0
0
0
0
0
0
0
0
0
0
0
0
0
0
0
0
0
0
0
0
0
0
0
0
0
0
0
0
0
0
0
0
0
0
0
0
0
0
0
0
0
0
0
0
0
0
0
0
0
0
0
0
0
0
0
0
0
0
0
0
0
0
0
0
0
0
0
0
0
0
0
0
0
0
0
0
0
0
0
0
0
0
0
0
0
0
0
0
0
0
0
0
0
0
0
0
0
0
0
0
0
0
0
0
0
0
0
0
0
0
0
0
0
0
0
0
0
0
0
0
0
0
0
0
0
0
0
0
0
0
0
0
0
0
0
0
0
0
0
0
0
0
0
0
0
0
0
0
0
0
0
0
0
0
0
0
0
0
0
0
0
0
0
0
0
0
0
0
0
0
0
0
0
0
0
0
0
0
0
0
0
0
0
0
0
0
0
0
0
0
0
0
0
0
0
0
0
0
0
0
0
0
0
0
0
0
0
0
0
0
0
0
0
0
0
0
0
0
0
0
0
0
0
0
0
0
0
0
0
0
0
0
0
0
0
0
0
0
0
0
0
0
0
0
0
0
0
0
0
0
0
0
0
0
0
0
0
0
0
0
0
0
0
0
0
0
0
0
0
0
0
0
0
0
0
0
0
0
0
0
0
0
0
0
0
0
0
0
0
0
0
0
0
0
0
0
0
0
0
0
0
0
0
0
0
0
0
0
0
0
0
0
0
0
0
0
0
0
0
0
0
0
0
0
0
0
0
0
0
0
0
0
0
0
0
0
0
0
0
0
0
0
0
0
0
0
0
0
0
0
0
0
0
0
0
0
0
0
0
0
0
0
0
0
0
0
0
0
0
0
0
0
0
0
0
0
0
0
0
0
0
0
0
0
0
0
0
0
0
0
0
0
0
0
0
0
0
0
0
0
0
0
0
0
0
0
0
0
0
0
0
0
0
0
0
0
0
0
0
0
0
0
0
0
0
0
0
0
0
0
0
0
0
0
0
0
0
0
0
0
0
0
0
0
0
0
0
0
0
0
0
0
0
0
0
0
0
0
0
0
0
0
0
0
0
0
0
0
0
0
0
0
0
0
0
0
0
0
0
0
0
0
0
0
0
0
0
0
0
0
0
0
0
0
0
0
0
0
0
0
0
0
0
0
0
0
0
0
0
0
0
0
0
0
0
0
0
0
0
0
0
0
0
0
0
0
0
0
0
0
0
0
0
0
0
0
0
0
0
0
0
0
0
0
0
0
0
0
0
0
0
0
0
0
0
0
0
0
0
0
0
0
0
0
0
0
0
0
0
0
0
0
0
0
0
0
0
0
0
0
0
0
0
0
0
0
0
0
0
0
0
0
0
0
0
0
0
0
0
0
0
0
0
0
0
0
0
0
0
0
0
0
0
0
0
0
0
0
0
0
0
0
0
0
0
0
0
0
0
0
0
0
0
0
0
0
0
0
0
0
0
0
0
0
0
0
0
0
0
0
0
0
0
0
0
0
0
0
0
0
0
0
0
0
0
0
0
0
0
0
0
0
0
0
0
0
0
0
0
0
0
0
0
0
0
0
0
0
0
0
0
0
0
0
0
0
0
0
0
0
0
0
0
0
0
0
0
0
0
0
0
0
0
0
0
0
0
0
0
0
0
0
0
0
0
0
0
0
0
0
0
0
0
0
0
0
0
0
0
0
0
0
0
0
0
0
0
0
0
0
0
0
0
0
0
0
0
0
0
0
0
0
0
0
0
0
0
0
0
0
0
0
0
0
0
0
0
0
0
0
0
0
0
0
0
0
0
0
0
0
0
0
0
0
0
0
0
0
0
0
0
0
0
0
0
0
0
0
0
0
0
0
0
0
0
0
0
0
0
0
0
0
0
0
0
0
0
0
0
0
0
0
0
0
0
0
0
0
0
0
0
0
0
0
0
0
0
0
0
0
0
0
0
0
0
0
0
0
0
0
0
0
0
0
0
0
0
0
0
0
0
0
0
0
0
0
0
0
0
0
0
0
0
0
0
0
0
0
0
0
0
0
0
0
0
0
0
0
0
0
0
0
0
0
0
0
0
0
0
0
0
0
0
0
0
0
0
0
0
0
0
0
0
0
0
0
0
0
0
0
0
0
0
0
0
0
0
0
0
0
0
0
0
0
0
0
0
0
0
0
0
0
0
0
0
0
0
0
0
0
0
0
0
0
0
0
0
0
0
0
0
0
0
0
0
0
0
0
0
0
0
0
0
0
0
0
0
0
0
0
0
0
0
0
0
0
0
0
0
0
0
0
0
0
0
0
0
0
0
0
0
0
0
0
0
0
0
0
0
0
0
0
0
0
0
0
0
0
0
0
0
0
0
0
0
0
0
0
0
0
0
0
0
0
0
0
0
0
0
0
0
0
0
0
0
0
0
0
0
0
0
0
0
0
0
0
0
0
0
0
0
0
0
0
0
0
0
0
0
0
0
0
0
0
0
0
0
0
0
0
0
0
0
0
0
0
0
0
0
0
0
0
0
0
0
0
0
0
0
0
0
0
0
0
0
0
0
0
0
0
0
0
0
0
0
0
0
0
0
0
0
0
0
0
0
0
0
0
0
0
0
0
0
0
0
0
0
0
0
0
0
0
0
0
0
0
0
0
0
0
0
0
0
0
0
0
0
0
0
0
0
0
0
0
0
0
0
0
0
0
0
0
0
0
0
0
0
0
0
0
0
0
0
0
0
0
0
0
0
0
0
0
0
0
0
0
0
0
0
0
0
0
0
0
0
0
0
0
0
0
0
0
0
0
0
0
0
0
0
0
0
0
0
0
0
0
0
0
0
0
0
0
0
0
0
0
0
0
0
0
0
0
0
0
0
0
0
0
0
0
0
0
0
0
0
0
0
0
0
0
0
0
0
0
0
0
0
0
0
0
0
0
0
0
0
0
0
0
0
0
0
0
0
0
0
0
0
0
0
0
0
0
0
0
0
0
0
0
0
0
0
0
0
0
0
0
0
0
0
0
0
0
0
0
0
0
0
0
0
0
0
0
0
0
0
0
0
0
0
0
0
0
0
0
0
0
0
0
0
0
0
0
0
0
0
0
0
0
0
0
0
0
0
0
0
0
0
0
0
0
0
0
0
0
0
0
0
0
0
0
0
0
0
0
0
0
0
0
0
0
0
0
0
0
0
0
0
0
0
0
0
0
0
0
0
0
0
0
0
0
0
0
0
0
0
0
0
0
0
0
0
0
0
0
0
0
0
0
0
0
0
0
0
0
0
0
0
0
0
0
0
0
0
0
0
0
0
0
0
0
0
0
0
0
0
0
0
0
0
0
0
0
0
0
0
0
0
0
0
0
0
0
0
0
0
0
0
0
0
0
0
0
0
0
0
0
0
0
0
0
0
0
0
0
0
0
0
0
0
0
0
0
0
0
0
0
0
0
0
0
0
0
0
0
0
0
0
0
0
0
0
0
0
0
0
0
0
0
0
0
0
0
0
0
0
0
0
0
0
0
0
0
0
0
0
0
0
0
0
0
0
0
0
0
0
0
0
0
0
0
0
0
0
0
0
0
0
0
0
0
0
0
0
0
0
0
0
0
0
0
0
0
0
0
0
0
0
0
0
0
0
0
0
0
0
0
0
0
0
0
0
0
0
0
0
0
0
0
0
0
0
0
0
0
0
0
0
0
0
0
0
0
0
0
0
0
0
0
0
0
0
0
0
0
0
0
0
0
0
0
0
0
0
0
0
0
0
0
0
0
0
0
0
0
0
0
0
0
0
0
0
0
0
0
0
0
0
0
0
0
0
0
0
0
0
0
0
0
0
0
0
0
0
0
0
0
0
0
0
0
0
0
0
0
0
0
0
0
0
0
0
0
0
0
0
0
0
0
0
0
0
0
0
0
0
0
0
0
0
0
0
0
0
0
0
0
0
0
0
0
0
0
0
0
0
0
0
0
0
0
0
0
0
0
0
0
0
0
0
0
0
0
0
0
0
0
0
0
0
0
0
0
0
0
0
0
0
0
0
0
0
0
0
0
0
0
0
0
0
0
0
0
0
0
0
0
0
0
0
0
0
0
0
0
0
0
0
0
0
0
0
0
0
0
0
0
0
0
0
0
0
0
0
0
0
0
0
0
0
0
0
0
0
0
0
0
0
0
0
0
0
0
0
0
0
0
0
0
0
0
0
0
0
0
0
0
0
0
0
0
0
0
0
0
0
0
0
0
0
0
0
0
0
0
0
0
0
0
0
0
0
0
0
0
0
0
0
0
0
0
0
0
0
0
0
0
0
0
0
0
0
0
0
0
0
0
0
0
0
0
0
0
0
0
0
0
0
0
0
0
0
0
0
0
0
0
0
0
0
0
0
0
0
0
0
0
0
0
0
0
0
0
0
0
0
0
0
0
0
0
0
0
0
0
0
0
0
0
0
0
0
0
0
0
0
0
0
0
0
0
0
0
0
0
0
0
0
0
0
0
0
0
0
0
0
0
0
0
0
0
0
0
0
0
0
0
0
0
0
0
0
0
0
0
0
0
0
0
0
0
0
0
0
0
0
0
0
0
0
0
0
0
0
0
0
0
0
0
0
0
0
0
0
0
0
0
0
0
0
0
0
0
0
0
0
0
0
0
0
0
0
0
0
0
0
0
0
0
0
0
0
0
0
0
0
0
0
0
0
0
0
0
0
0
0
0
0
0
0
0
0
0
0
0
0
0
0
0
0
0
0
0
0
0
0
0
0
0
0
0
0
0
0
0
0
0
0
0
0
0
0
0
0
0
0
0
0
0
0
0
0
0
0
0
0
0
0
0
0
0
0
0
0
0
0
0
0
0
0
0
0
0
0
0
0
0
0
0
0
0
0
0
0
0
0
0
0
0
0
0
0
0
0
0
0
0
0
0
0
0
0
0
0
0
0
0
0
0
0
0
0
0
0
0
0
0
0
0
0
0
0
0
0
0
0
0
0
0
0
0
0
0
0
0
0
0
0
0
0
0
0
0
0
0
0
0
0
0
0
0
0
0
0
0
0
0
0
0
0
0
0
0
0
0
0
0
0
0
0
0
0
0
0
0
0
0
0
0
0
0
0
0
0
0
0
0
0
0
0
0
0
0
0
0
0
0
0
0
0
0
0
0
0
0
0
0
0
0
0
0
0
0
0
0
0
0
0
0
0
0
0
0
0
0
0
0
0
0
0
0
0
0
0
0
0
0
0
0
0
0
0
0
0
0
0
0
0
0
0
0
0
0
0
0
0
0
0
0
0
0
0
0
0
0
0
0
0
0
0
0
0
0
0
0
0
0
0
0
0
0
0
0
0
0
0
0
0
0
0
0
0
0
0
0
0
0
0
0
0
0
0
0
0
0
0
0
0
0
0
0
0
0
0
0
0
0
0
0
0
0
0
0
0
0
0
0
0
0
0
0
0
0
0
0
0
0
0
0
0
0
0
0
0
0
0
0
0
0
0
0
0
0
0
0
0
0
0
0
0
0
0
0
0
0
0
0
0
0
0
0
0
0
0
0
0
0
0
0
0
0
0
0
0
0
0
0
0
0
0
0
0
0
0
0
0
0
0
0
0
0
0
0
0
0
0
0
0
0
0
0
0
0
0
0
0
0
0
0
0
0
0
0
0
246
36
0
0
0
0
0
0
0
0
0
0
0
0
0
0
0
0
0
0
0
0
0
0
0
0
0
238
136
0
0
0
0
0
0
0
0
0
0
0
0
0
0
0
0
0
0
0
0
0
0
0
0
0
0
0
0
0
0
0
0
0
0
246
250
0
0
0
0
0
0
0
0
0
0
0
0
0
0
0
0
0
0
0
0
0
0
0
0
0
0
0
0
52
254
0
31
152
0
0
0
0
0
0
0
0
0
0
0
0
0
0
0
0
0
0
0
0
0
0
0
0
0
0
0
0
0
0
0
44
88
0
44
88
0
0
0
0
0
0
0
0
0
0
0
0
0
0
0
0
0
0
0
0
0
0
115
15
0
178
23
0
0
0
0
0
0
0
0
0
0
0
0
0
0
0
0
0
0
0
0
0
0
0
0
0
0
0
0
0
0
0
0
0
0
0
0
0
0
0
0
0
0
0
0
0
0
0
0
0
246
36
0
238
35
0
238
35
0
238
35
0
0
0
0
0
0
0
0
0
0
0
0
0
0
0
0
90
52
0
244
139
0
238
136
0
244
139
0
254
145
0
0
0
0
0
0
0
0
0
0
0
0
0
0
0
0
0
0
0
0
0
0
0
0
0
246
250
0
240
244
0
246
250
0
246
250
0
0
0
0
0
0
0
0
0
0
0
0
0
0
0
0
0
0
0
50
243
0
50
243
0
50
243
0
52
251
0
0
0
0
0
0
0
0
0
0
0
0
0
0
0
0
0
0
0
0
0
0
0
0
0
53
105
0
52
103
0
52
103
0
53
105
0
0
0
0
0
0
0
0
0
0
0
0
0
0
0
0
192
24
0
178
23
0
178
23
0
182
24
0
184
24
0
0
0
0
0
0
0
0
0
0
0
0
0
0
0
0
0
0
0
0
0
0
0
0
0
0
0
0
0
0
0
0
0
0
0
0
0
0
0
0
205
30
0
205
30
0
0
0
0
246
36
0
79
12
0
246
36
0
0
0
0
0
0
0
0
0
0
154
88
0
244
139
0
0
0
0
238
136
0
0
0
0
238
136
0
0
0
0
0
0
0
0
0
0
0
0
0
0
0
0
0
0
0
0
0
0
248
252
0
0
0
0
246
250
0
0
0
0
204
208
0
214
217
0
0
0
0
0
0
0
0
0
0
0
0
0
52
254
0
0
0
0
52
254
0
31
152
0
52
251
0
52
254
0
0
0
0
0
0
0
0
0
0
0
0
0
0
0
0
0
0
0
55
109
0
53
105
0
44
88
0
44
88
0
0
0
0
55
109
0
0
0
0
0
0
0
0
0
0
68
9
0
178
23
0
115
15
0
178
23
0
0
0
0
182
24
0
0
0
0
0
0
0
0
0
0
0
0
0
0
0
0
0
0
0
0
0
0
0
0
0
0
0
0
0
0
0
0
0
0
0
0
0
0
0
0
79
12
0
130
19
0
246
36
0
83
12
0
205
30
0
90
13
0
0
0
0
0
0
0
0
0
0
59
33
0
90
52
0
244
139
0
90
52
0
244
139
0
90
52
0
0
0
0
0
0
0
0
0
0
0
0
0
0
0
0
0
0
0
0
0
0
91
93
0
246
250
0
79
81
0
248
252
0
134
136
0
79
81
0
0
0
0
0
0
0
0
0
0
0
0
0
19
92
0
52
251
0
17
80
0
37
178
0
17
80
0
19
92
0
0
0
0
0
0
0
0
0
0
0
0
0
0
0
0
0
0
0
20
39
0
13
25
0
29
57
0
29
57
0
53
105
0
20
39
0
0
0
0
0
0
0
0
0
0
25
3
0
68
9
0
130
17
0
68
9
0
182
24
0
68
9
0
0
0
0
0
0
0
0
0
0
0
0
0
0
0
0
0
0
0
0
0
0
0
0
0
0
0
0
0
0
0
0
0
0
0
0
0
0
0
0
0
0
0
154
23
0
154
23
0
154
23
0
154
23
0
0
0
0
0
0
0
0
0
0
0
0
0
0
0
0
59
33
0
154
88
0
154
88
0
154
88
0
154
88
0
0
0
0
0
0
0
0
0
0
0
0
0
0
0
0
0
0
0
0
0
0
0
0
0
156
158
0
156
158
0
156
158
0
156
158
0
0
0
0
0
0
0
0
0
0
0
0
0
0
0
0
0
0
0
32
158
0
32
158
0
32
158
0
32
158
0
0
0
0
0
0
0
0
0
0
0
0
0
0
0
0
0
0
0
0
0
0
0
0
0
34
67
0
34
67
0
34
67
0
34
67
0
0
0
0
0
0
0
0
0
0
0
0
0
0
0
0
118
15
0
115
15
0
115
15
0
115
15
0
118
15
0
0
0
0
0
0
0
0
0
0
0
0
0
0
0
0
0
0
0
0
0
0
0
0
0
0
0
0
0
0
0
0
0
0
0
0
0
0
0
0
222
33
0
90
13
0
255
37
0
0
0
0
222
33
0
255
37
0
0
0
0
0
0
0
0
0
0
154
88
0
222
127
0
254
145
0
0
0
0
254
145
0
0
0
0
0
0
0
0
0
0
0
0
0
0
0
0
0
0
0
0
0
0
0
0
0
255
255
0
255
255
0
0
0
0
255
255
0
91
93
0
214
217
0
0
0
0
0
0
0
0
0
0
0
0
0
52
254
0
52
254
0
0
0
0
32
158
0
0
0
0
52
254
0
0
0
0
0
0
0
0
0
0
0
0
0
0
0
0
0
0
0
55
109
0
0
0
0
20
40
0
20
40
0
55
109
0
55
109
0
0
0
0
0
0
0
0
0
0
68
9
0
0
0
0
118
15
0
0
0
0
192
24
0
0
0
0
0
0
0
0
0
0
0
0
0
0
0
0
0
0
0
0
0
0
0
0
0
0
0
0
0
0
0
0
0
0
0
0
0
0
0
0
0
0
0
0
0
0
0
0
0
0
0
0
0
0
0
0
0
0
0
0
0
0
0
0
0
0
0
0
0
0
0
0
0
0
0
0
0
0
0
0
0
0
0
0
0
0
0
0
0
0
0
0
0
0
0
0
0
0
0
0
0
0
0
0
0
0
0
0
0
0
0
0
0
0
0
0
0
0
0
0
0
0
0
0
0
0
0
0
0
0
0
0
0
0
0
0
0
0
0
0
0
0
0
0
0
0
0
0
0
0
0
0
0
0
0
0
0
0
0
0
0
0
0
0
0
0
0
0
0
0
0
0
0
0
0
0
0
0
0
0
0
0
0
0
0
0
0
0
0
0
0
0
0
0
0
0
0
0
0
0
0
0
0
0
0
0
0
0
0
0
0
0
0
0
0
0
0
0
0
0
0
0
0
0
0
0
0
0
0
0
0
0
0
0
0
0
0
0
0
0
0
0
0
0
0
0
0
0
0
0
0
0
0
0
0
0
0
0
0
205
30
0
0
0
0
0
0
0
0
0
0
90
13
0
0
0
0
0
0
0
0
0
0
0
0
0
0
0
0
90
52
0
0
0
0
0
0
0
0
0
0
0
0
0
0
0
0
0
0
0
0
0
0
0
0
0
0
0
0
0
0
0
0
0
0
255
255
0
0
0
0
0
0
0
0
0
0
214
217
0
0
0
0
0
0
0
0
0
0
0
0
0
0
0
0
0
0
0
0
0
0
0
0
0
0
0
0
0
0
0
52
254
0
0
0
0
0
0
0
0
0
0
0
0
0
0
0
0
0
0
0
55
109
0
0
0
0
0
0
0
0
0
0
0
0
0
0
0
0
0
0
0
0
0
0
0
0
0
0
0
0
192
24
0
0
0
0
0
0
0
0
0
0
0
0
0
0
0
0
0
0
0
0
0
0
0
0
0
0
0
0
0
0
0
0
0
0
0
0
0
0
0
0
0
0
0
0
0
0
0
0
0
0
0
0
0
0
0
205
30
0
0
0
0
0
0
0
205
30
0
0
0
0
0
0
0
0
0
0
0
0
0
0
0
0
0
0
0
244
139
0
0
0
0
0
0
0
244
139
0
0
0
0
0
0
0
0
0
0
0
0
0
0
0
0
0
0
0
0
0
0
0
0
0
0
0
0
0
0
0
248
252
0
79
81
0
0
0
0
0
0
0
0
0
0
0
0
0
0
0
0
0
0
0
52
251
0
0
0
0
0
0
0
52
251
0
0
0
0
0
0
0
0
0
0
0
0
0
0
0
0
0
0
0
0
0
0
0
0
0
53
105
0
0
0
0
13
25
0
53
105
0
0
0
0
0
0
0
0
0
0
0
0
0
0
0
0
0
0
0
115
15
0
0
0
0
0
0
0
184
24
0
0
0
0
0
0
0
0
0
0
0
0
0
0
0
0
0
0
0
0
0
0
0
0
0
0
0
0
0
0
0
0
0
0
0
0
0
255
37
0
238
35
0
79
12
0
238
35
0
246
36
0
79
12
0
246
36
0
0
0
0
0
0
0
0
0
0
154
88
0
244
139
0
0
0
0
238
136
0
238
136
0
0
0
0
254
145
0
0
0
0
0
0
0
0
0
0
0
0
0
0
0
0
255
255
0
248
252
0
246
250
0
240
244
0
0
0
0
204
208
0
214
217
0
0
0
0
0
0
0
0
0
0
0
0
0
52
254
0
0
0
0
52
254
0
50
243
0
0
0
0
50
243
0
32
158
0
0
0
0
0
0
0
0
0
0
0
0
0
44
88
0
53
105
0
0
0
0
52
103
0
44
88
0
0
0
0
55
109
0
0
0
0
0
0
0
0
0
0
68
9
0
178
23
0
115
15
0
178
23
0
184
24
0
0
0
0
184
24
0
0
0
0
0
0
0
0
0
0
0
0
0
0
0
0
0
0
0
0
0
0
0
0
0
0
0
0
0
0
0
0
0
0
0
0
0
205
30
0
238
35
0
238
35
0
238
35
0
238
35
0
0
0
0
255
37
0
0
0
0
0
0
0
154
88
0
83
47
0
244
139
0
238
136
0
238
136
0
244
139
0
0
0
0
254
145
0
0
0
0
0
0
0
0
0
0
214
217
0
0
0
0
240
244
0
240
244
0
240
244
0
246
250
0
240
244
0
91
93
0
0
0
0
0
0
0
0
0
0
52
254
0
0
0
0
52
251
0
50
243
0
50
243
0
52
251
0
52
251
0
32
158
0
0
0
0
0
0
0
0
0
0
0
0
0
20
39
0
53
105
0
53
105
0
52
103
0
52
103
0
53
105
0
0
0
0
55
109
0
0
0
0
0
0
0
153
20
0
184
24
0
182
24
0
178
23
0
178
23
0
182
24
0
0
0
0
192
24
0
0
0
0
0
0
0
0
0
0
0
0
0
0
0
0
0
0
0
0
0
0
0
0
0
0
0
0
0
0
0
0
0
0
205
30
0
0
0
0
0
0
0
0
0
0
79
12
0
0
0
0
246
36
0
0
0
0
0
0
0
154
88
0
90
52
0
0
0
0
0
0
0
0
0
0
0
0
0
0
0
0
244
139
0
0
0
0
0
0
0
0
0
0
204
208
0
0
0
0
248
252
0
0
0
0
0
0
0
0
0
0
204
208
0
91
93
0
0
0
0
0
0
0
0
0
0
52
251
0
0
0
0
0
0
0
0
0
0
0
0
0
0
0
0
52
251
0
32
158
0
0
0
0
0
0
0
0
0
0
0
0
0
20
39
0
53
105
0
0
0
0
0
0
0
0
0
0
0
0
0
0
0
0
53
105
0
0
0
0
0
0
0
153
20
0
184
24
0
0
0
0
0
0
0
0
0
0
0
0
0
0
0
0
184
24
0
0
0
0
0
0
0
0
0
0
0
0
0
0
0
0
0
0
0
0
0
0
0
0
0
0
0
0
0
0
0
0
0
0
79
12
0
205
30
0
222
33
0
205
30
0
184
27
0
0
0
0
90
13
0
0
0
0
0
0
0
59
33
0
34
19
0
205
117
0
130
74
0
205
117
0
205
117
0
0
0
0
90
52
0
0
0
0
0
0
0
0
0
0
79
81
0
0
0
0
79
81
0
214
217
0
0
0
0
204
208
0
134
136
0
34
34
0
0
0
0
0
0
0
0
0
0
19
92
0
0
0
0
45
216
0
43
209
0
28
136
0
43
209
0
19
92
0
12
60
0
0
0
0
0
0
0
0
0
0
0
0
0
7
15
0
20
39
0
44
88
0
20
39
0
44
88
0
44
88
0
0
0
0
20
40
0
0
0
0
0
0
0
59
8
0
68
9
0
153
20
0
130
17
0
153
20
0
153
20
0
0
0
0
68
9
0
0
0
0
0
0
0
0
0
0
0
0
0
0
0
0
0
0
0
0
0
0
0
0
0
0
0
0
0
0
0
0
0
0
0
0
0
0
0
0
0
0
0
0
0
0
0
0
0
0
0
0
0
0
0
0
0
0
0
0
0
0
0
0
0
0
0
0
0
0
0
0
0
0
0
0
0
0
0
0
0
0
0
0
0
0
0
0
0
0
0
0
0
0
0
0
0
0
0
0
0
0
0
0
0
0
0
0
0
0
0
0
0
0
0
0
0
0
0
0
0
0
0
0
0
0
0
0
0
0
0
0
0
0
0
0
0
0
0
0
0
0
0
0
0
0
0
0
0
0
0
0
0
0
0
0
0
0
0
0
0
0
0
0
0
0
0
0
0
0
0
0
0
0
0
0
0
0
0
0
0
0
0
0
0
0
0
0
0
0
0
0
0
0
0
0
0
0
0
0
0
0
0
0
0
0
0
0
0
0
0
0
0
0
0
0
0
0
0
0
0
0
0
0
0
0
0
0
0
0
0
0
0
0
0
0
0
0
0
0
0
0
0
0
0
0
0
0
0
0
222
33
0
0
0
0
0
0
0
0
0
0
90
13
0
0
0
0
0
0
0
0
0
0
0
0
0
0
0
0
90
52
0
0
0
0
0
0
0
0
0
0
0
0
0
0
0
0
0
0
0
0
0
0
0
0
0
0
0
0
0
0
0
0
0
0
255
255
0
0
0
0
0
0
0
0
0
0
214
217
0
0
0
0
0
0
0
0
0
0
0
0
0
0
0
0
0
0
0
0
0
0
0
0
0
0
0
0
0
0
0
52
254
0
0
0
0
0
0
0
0
0
0
0
0
0
0
0
0
0
0
0
55
109
0
0
0
0
0
0
0
0
0
0
0
0
0
0
0
0
0
0
0
0
0
0
0
0
0
0
0
0
192
24
0
0
0
0
0
0
0
0
0
0
0
0
0
0
0
0
0
0
0
0
0
0
0
0
0
0
0
0
0
0
0
0
0
0
0
0
0
0
0
0
0
0
0
0
0
0
0
0
0
0
0
0
0
0
0
205
30
0
0
0
0
0
0
0
205
30
0
0
0
0
0
0
0
0
0
0
0
0
0
0
0
0
0
0
0
254
145
0
0
0
0
0
0
0
254
145
0
0
0
0
0
0
0
0
0
0
0
0
0
0
0
0
0
0
0
0
0
0
0
0
0
0
0
0
0
0
0
255
255
0
79
81
0
0
0
0
0
0
0
0
0
0
0
0
0
0
0
0
0
0
0
52
254
0
0
0
0
0
0
0
52
254
0
0
0
0
0
0
0
0
0
0
0
0
0
0
0
0
0
0
0
0
0
0
0
0
0
55
109
0
0
0
0
20
39
0
55
109
0
0
0
0
0
0
0
0
0
0
0
0
0
0
0
0
0
0
0
115
15
0
0
0
0
0
0
0
184
24
0
0
0
0
0
0
0
0
0
0
0
0
0
0
0
0
0
0
0
0
0
0
0
0
0
0
0
0
0
0
0
0
0
0
0
0
0
90
13
0
205
30
0
205
30
0
238
35
0
238
35
0
205
30
0
79
12
0
0
0
0
0
0
0
0
0
0
59
33
0
130
74
0
205
117
0
238
136
0
238
136
0
205
117
0
83
47
0
0
0
0
0
0
0
0
0
0
0
0
0
0
0
0
91
93
0
246
250
0
240
244
0
240
244
0
204
208
0
240
244
0
79
81
0
0
0
0
0
0
0
0
0
0
0
0
0
19
92
0
43
209
0
50
243
0
50
243
0
43
209
0
52
251
0
12
60
0
0
0
0
0
0
0
0
0
0
0
0
0
20
39
0
53
105
0
44
88
0
52
103
0
52
103
0
44
88
0
20
39
0
0
0
0
0
0
0
0
0
0
25
3
0
184
24
0
166
21
0
178
23
0
178
23
0
153
20
0
59
8
0
0
0
0
0
0
0
0
0
0
0
0
0
0
0
0
0
0
0
0
0
0
0
0
0
0
0
0
0
0
0
0
0
0
246
36
0
238
35
0
238
35
0
238
35
0
238
35
0
238
35
0
246
36
0
246
36
0
0
0
0
0
0
0
154
88
0
90
52
0
238
136
0
238
136
0
238
136
0
238
136
0
0
0
0
244
139
0
0
0
0
0
0
0
0
0
0
204
208
0
0
0
0
240
244
0
240
244
0
240
244
0
240
244
0
240
244
0
91
93
0
0
0
0
0
0
0
0
0
0
52
251
0
0
0
0
50
243
0
50
243
0
50
243
0
50
243
0
52
251
0
32
158
0
0
0
0
0
0
0
0
0
0
0
0
0
20
39
0
53
105
0
52
103
0
52
103
0
52
103
0
52
103
0
0
0
0
53
105
0
0
0
0
0
0
0
178
23
0
178
23
0
178
23
0
178
23
0
178
23
0
178
23
0
184
24
0
184
24
0
0
0
0
0
0
0
0
0
0
0
0
0
0
0
0
0
0
0
0
0
0
0
0
0
0
0
0
0
0
0
0
0
0
205
30
0
246
36
0
246
36
0
246
36
0
238
35
0
0
0
0
246
36
0
0
0
0
0
0
0
154
88
0
90
52
0
244
139
0
244
139
0
244
139
0
244
139
0
0
0
0
244
139
0
0
0
0
0
0
0
0
0
0
204
208
0
0
0
0
240
244
0
246
250
0
246
250
0
246
250
0
240
244
0
91
93
0
0
0
0
0
0
0
0
0
0
52
251
0
0
0
0
52
251
0
52
251
0
52
251
0
52
251
0
52
251
0
32
158
0
0
0
0
0
0
0
0
0
0
0
0
0
20
39
0
53
105
0
53
105
0
53
105
0
53
105
0
53
105
0
0
0
0
53
105
0
0
0
0
0
0
0
153
20
0
184
24
0
182
24
0
182
24
0
182
24
0
182
24
0
0
0
0
184
24
0
0
0
0
0
0
0
0
0
0
0
0
0
0
0
0
0
0
0
0
0
0
0
0
0
0
0
0
0
0
0
0
0
0
0
0
0
246
36
0
255
37
0
246
36
0
205
30
0
0
0
0
0
0
0
0
0
0
0
0
0
0
0
0
0
0
0
244
139
0
154
88
0
254
145
0
254
145
0
0
0
0
0
0
0
0
0
0
0
0
0
0
0
0
0
0
0
0
0
0
0
0
0
255
255
0
0
0
0
248
252
0
79
81
0
0
0
0
0
0
0
0
0
0
0
0
0
0
0
0
0
0
0
52
254
0
52
251
0
32
158
0
52
251
0
0
0
0
0
0
0
0
0
0
0
0
0
0
0
0
0
0
0
0
0
0
0
0
0
53
105
0
20
40
0
53
105
0
55
109
0
0
0
0
0
0
0
0
0
0
0
0
0
0
0
0
0
0
0
184
24
0
153
20
0
184
24
0
192
24
0
0
0
0
0
0
0
0
0
0
0
0
0
0
0
0
0
0
0
0
0
0
0
0
0
0
0
0
0
0
0
0
0
0
0
0
0
0
0
0
0
0
0
0
0
0
0
0
0
0
0
0
0
0
0
0
0
0
0
0
0
0
0
0
0
0
0
0
0
0
0
0
0
0
0
0
0
0
0
0
0
0
0
0
0
0
0
0
0
0
0
0
0
0
0
0
0
0
0
0
0
0
0
0
0
0
0
0
0
0
0
0
0
0
0
0
0
0
0
0
0
0
0
0
0
0
0
0
0
0
0
0
0
0
0
0
0
0
0
0
0
0
0
0
0
0
0
0
0
0
0
0
0
0
0
0
0
0
0
0
0
0
0
0
0
0
0
0
0
0
0
0
0
0
0
0
0
0
0
0
0
0
0
0
0
0
0
0
0
0
0
0
0
0
0
0
0
0
0
0
0
0
0
0
0
0
0
0
0
0
0
0
0
0
0
0
0
0
0
0
0
0
0
0
0
0
0
0
0
0
0
0
0
0
0
0
0
0
0
0
0
0
0
0
0
0
0
0
0
0
0
0
0
154
23
0
154
23
0
154
23
0
154
23
0
154
23
0
154
23
0
0
0
0
0
0
0
0
0
0
0
0
0
0
0
0
59
33
0
154
88
0
154
88
0
154
88
0
154
88
0
154
88
0
0
0
0
0
0
0
0
0
0
0
0
0
0
0
0
156
158
0
156
158
0
156
158
0
156
158
0
156
158
0
156
158
0
0
0
0
0
0
0
0
0
0
0
0
0
0
0
0
0
0
0
32
158
0
32
158
0
32
158
0
32
158
0
32
158
0
21
102
0
0
0
0
0
0
0
0
0
0
0
0
0
29
57
0
34
67
0
34
67
0
34
67
0
34
67
0
34
67
0
0
0
0
0
0
0
0
0
0
0
0
0
0
0
0
118
15
0
115
15
0
115
15
0
115
15
0
115
15
0
115
15
0
0
0
0
0
0
0
0
0
0
0
0
0
0
0
0
0
0
0
0
0
0
0
0
0
0
0
0
0
0
0
0
0
0
238
35
0
238
35
0
238
35
0
238
35
0
238
35
0
238
35
0
246
36
0
0
0
0
0
0
0
0
0
0
154
88
0
244
139
0
238
136
0
238
136
0
238
136
0
238
136
0
238
136
0
244
139
0
0
0
0
0
0
0
0
0
0
214
217
0
240
244
0
240
244
0
240
244
0
240
244
0
240
244
0
240
244
0
214
217
0
0
0
0
0
0
0
0
0
0
0
0
0
52
254
0
50
243
0
50
243
0
50
243
0
50
243
0
50
243
0
52
251
0
0
0
0
0
0
0
0
0
0
0
0
0
52
103
0
52
103
0
52
103
0
52
103
0
52
103
0
52
103
0
55
109
0
0
0
0
0
0
0
0
0
0
68
9
0
178
23
0
178
23
0
178
23
0
178
23
0
178
23
0
178
23
0
192
24
0
0
0
0
0
0
0
0
0
0
0
0
0
0
0
0
0
0
0
0
0
0
0
0
0
0
0
0
246
36
0
238
35
0
79
12
0
79
12
0
238
35
0
0
0
0
79
12
0
238
35
0
246
36
0
0
0
0
0
0
0
238
136
0
238
136
0
0
0
0
147
84
0
238
136
0
0
0
0
244
139
0
238
136
0
90
52
0
0
0
0
0
0
0
240
244
0
246
250
0
0
0
0
246
250
0
246
250
0
0
0
0
204
208
0
240
244
0
0
0
0
0
0
0
0
0
0
50
243
0
50
243
0
0
0
0
0
0
0
50
243
0
0
0
0
0
0
0
50
243
0
52
254
0
0
0
0
0
0
0
53
105
0
52
103
0
0
0
0
0
0
0
52
103
0
0
0
0
0
0
0
52
103
0
53
105
0
0
0
0
0
0
0
178
23
0
178
23
0
0
0
0
59
8
0
184
24
0
0
0
0
184
24
0
178
23
0
115
15
0
0
0
0
0
0
0
0
0
0
0
0
0
0
0
0
0
0
0
0
0
0
0
0
0
154
23
0
154
23
0
222
33
0
222
33
0
154
23
0
238
35
0
222
33
0
154
23
0
154
23
0
0
0
0
0
0
0
154
88
0
154
88
0
238
136
0
205
117
0
154
88
0
238
136
0
154
88
0
154
88
0
59
33
0
0
0
0
0
0
0
156
158
0
156
158
0
240
244
0
156
158
0
156
158
0
240
244
0
176
178
0
156
158
0
0
0
0
0
0
0
0
0
0
32
158
0
32
158
0
52
251
0
50
243
0
32
158
0
52
251
0
52
251
0
32
158
0
32
158
0
0
0
0
0
0
0
34
67
0
34
67
0
53
105
0
53
105
0
34
67
0
52
103
0
53
105
0
34
67
0
34
67
0
0
0
0
0
0
0
115
15
0
115
15
0
178
23
0
166
21
0
115
15
0
178
23
0
115
15
0
115
15
0
68
9
0
0
0
0
0
0
0
0
0
0
0
0
0
0
0
0
0
0
0
0
0
0
0
0
0
0
0
0
255
37
0
246
36
0
90
13
0
246
36
0
0
0
0
246
36
0
0
0
0
0
0
0
0
0
0
0
0
0
0
0
0
83
47
0
254
145
0
154
88
0
254
145
0
0
0
0
254
145
0
0
0
0
0
0
0
0
0
0
0
0
0
0
0
0
255
255
0
255
255
0
255
255
0
255
255
0
255
255
0
248
252
0
0
0
0
0
0
0
0
0
0
0
0
0
0
0
0
0
0
0
52
254
0
0
0
0
52
254
0
0
0
0
52
254
0
32
158
0
0
0
0
0
0
0
0
0
0
0
0
0
44
88
0
55
109
0
0
0
0
53
105
0
20
40
0
53
105
0
0
0
0
0
0
0
0
0
0
0
0
0
0
0
0
192
24
0
118
15
0
68
9
0
192
24
0
0
0
0
184
24
0
0
0
0
0
0
0
0
0
0
0
0
0
0
0
0
0
0
0
0
0
0
0
0
0
0
0
0
0
0
0
255
37
0
0
0
0
0
0
0
0
0
0
0
0
0
0
0
0
0
0
0
255
37
0
255
37
0
0
0
0
0
0
0
244
139
0
205
117
0
0
0
0
0
0
0
0
0
0
0
0
0
0
0
0
254
145
0
90
52
0
0
0
0
0
0
0
248
252
0
0
0
0
0
0
0
0
0
0
0
0
0
0
0
0
0
0
0
248
252
0
0
0
0
0
0
0
0
0
0
52
251
0
52
254
0
0
0
0
0
0
0
0
0
0
0
0
0
0
0
0
32
158
0
52
254
0
0
0
0
0
0
0
55
109
0
20
40
0
0
0
0
0
0
0
0
0
0
0
0
0
0
0
0
53
105
0
53
105
0
0
0
0
0
0
0
184
24
0
0
0
0
0
0
0
0
0
0
0
0
0
0
0
0
0
0
0
184
24
0
118
15
0
0
0
0
0
0
0
0
0
0
0
0
0
0
0
0
0
0
0
0
0
0
0
0
0
0
0
0
0
0
0
0
0
0
0
0
0
0
0
0
0
0
0
0
0
0
0
0
0
0
0
0
0
0
0
0
0
0
0
0
0
0
0
0
0
0
0
0
0
0
0
0
0
0
0
0
0
0
0
0
0
0
0
0
0
0
0
0
0
0
0
0
0
0
0
0
0
0
0
0
0
0
0
0
0
0
0
0
0
0
0
0
0
0
0
0
0
0
0
0
0
0
0
0
0
0
0
0
0
0
0
0
0
0
0
0
0
0
0
0
0
0
0
0
0
0
0
0
0
0
0
0
0
0
0
0
0
0
0
0
0
0
0
0
0
0
0
0
0
0
0
0
0
0
0
0
0
0
0
0
0
0
0
0
0
0
0
0
0
0
0
0
0
0
0
0
0
0
0
0
0
0
0
0
0
0
0
0
0
0
0
0
0
0
0
0
0
0
0
0
0
0
0
0
0
0
0
0
0
0
0
0
0
0
0
0
0
0
0
0
0
0
0
0
255
37
0
246
36
0
246
36
0
246
36
0
246
36
0
246
36
0
0
0
0
0
0
0
0
0
0
0
0
0
0
0
0
90
52
0
244
139
0
244
139
0
244
139
0
244
139
0
254
145
0
0
0
0
0
0
0
0
0
0
0
0
0
0
0
0
255
255
0
248
252
0
248
252
0
248
252
0
248
252
0
248
252
0
0
0
0
0
0
0
0
0
0
0
0
0
0
0
0
0
0
0
52
251
0
52
251
0
52
251
0
52
251
0
52
251
0
32
158
0
0
0
0
0
0
0
0
0
0
0
0
0
44
88
0
53
105
0
53
105
0
53
105
0
53
105
0
53
105
0
0
0
0
0
0
0
0
0
0
0
0
0
0
0
0
192
24
0
184
24
0
184
24
0
184
24
0
184
24
0
184
24
0
0
0
0
0
0
0
0
0
0
0
0
0
0
0
0
0
0
0
0
0
0
0
0
0
0
0
0
0
0
0
205
30
0
238
35
0
130
19
0
130
19
0
238
35
0
90
13
0
130
19
0
238
35
0
205
30
0
0
0
0
0
0
0
222
127
0
238
136
0
90
52
0
174
99
0
238
136
0
90
52
0
244
139
0
238
136
0
83
47
0
0
0
0
0
0
0
240
244
0
240
244
0
91
93
0
240
244
0
240
244
0
91
93
0
214
217
0
240
244
0
0
0
0
0
0
0
0
0
0
43
209
0
50
243
0
17
80
0
19
92
0
50
243
0
17
80
0
17
80
0
50
243
0
45
216
0
0
0
0
0
0
0
44
88
0
52
103
0
20
39
0
13
25
0
52
103
0
20
39
0
13
25
0
52
103
0
44
88
0
0
0
0
0
0
0
153
20
0
178
23
0
68
9
0
99
13
0
182
24
0
68
9
0
182
24
0
178
23
0
99
13
0
0
0
0
0
0
0
0
0
0
0
0
0
0
0
0
0
0
0
0
0
0
0
0
0
246
36
0
238
35
0
246
36
0
246
36
0
238
35
0
246
36
0
246
36
0
238
35
0
246
36
0
0
0
0
0
0
0
244
139
0
244
139
0
244
139
0
244
139
0
244
139
0
244
139
0
244
139
0
244
139
0
90
52
0
0
0
0
0
0
0
246
250
0
246
250
0
246
250
0
246
250
0
246
250
0
246
250
0
246
250
0
246
250
0
0
0
0
0
0
0
0
0
0
50
243
0
50
243
0
52
251
0
52
251
0
50
243
0
52
251
0
52
251
0
50
243
0
52
254
0
0
0
0
0
0
0
53
105
0
53
105
0
53
105
0
53
105
0
53
105
0
53
105
0
53
105
0
53
105
0
53
105
0
0
0
0
0
0
0
182
24
0
182
24
0
182
24
0
182
24
0
182
24
0
182
24
0
182
24
0
182
24
0
118
15
0
0
0
0
0
0
0
0
0
0
0
0
0
0
0
0
0
0
0
0
0
0
0
0
0
0
0
0
0
0
0
205
30
0
205
30
0
0
0
0
255
37
0
205
30
0
0
0
0
0
0
0
0
0
0
0
0
0
0
0
0
0
0
0
238
136
0
154
88
0
0
0
0
254
145
0
0
0
0
0
0
0
0
0
0
0
0
0
0
0
0
0
0
0
0
0
0
240
244
0
0
0
0
0
0
0
240
244
0
79
81
0
0
0
0
0
0
0
0
0
0
0
0
0
0
0
0
0
0
0
52
251
0
52
254
0
0
0
0
52
254
0
52
251
0
0
0
0
0
0
0
0
0
0
0
0
0
0
0
0
0
0
0
53
105
0
55
109
0
0
0
0
53
105
0
53
105
0
0
0
0
0
0
0
0
0
0
0
0
0
0
0
0
0
0
0
182
24
0
153
20
0
0
0
0
192
24
0
0
0
0
0
0
0
0
0
0
0
0
0
0
0
0
0
0
0
0
0
0
0
0
0
0
0
0
0
0
0
0
0
0
205
30
0
79
12
0
90
13
0
34
5
0
90
13
0
0
0
0
90
13
0
205
30
0
205
30
0
0
0
0
0
0
0
205
117
0
174
99
0
90
52
0
59
33
0
90
52
0
0
0
0
90
52
0
205
117
0
83
47
0
0
0
0
0
0
0
204
208
0
91
93
0
91
93
0
91
93
0
91
93
0
91
93
0
91
93
0
204
208
0
0
0
0
0
0
0
0
0
0
43
209
0
43
209
0
19
92
0
0
0
0
19
92
0
0
0
0
19
92
0
32
158
0
45
216
0
0
0
0
0
0
0
44
88
0
29
57
0
20
39
0
0
0
0
20
39
0
7
15
0
20
39
0
44
88
0
44
88
0
0
0
0
0
0
0
153
20
0
59
8
0
44
5
0
25
3
0
68
9
0
0
0
0
68
9
0
153
20
0
99
13
0
0
0
0
0
0
0
0
0
0
0
0
0
0
0
0
0
0
0
0
0
0
0
0
0
0
0
0
0
0
0
0
0
0
0
0
0
0
0
0
0
0
0
0
0
0
0
0
0
0
0
0
0
0
0
0
0
0
0
0
0
0
0
0
0
0
0
0
0
0
0
0
0
0
0
0
0
0
0
0
0
0
0
0
0
0
0
0
0
0
0
0
0
0
0
0
0
0
0
0
0
0
0
0
0
0
0
0
0
0
0
0
0
0
0
0
0
0
0
0
0
0
0
0
0
0
0
0
0
0
0
0
0
0
0
0
0
0
0
0
0
0
0
0
0
0
0
0
0
0
0
0
0
0
0
0
0
0
0
0
0
0
0
0
0
0
0
0
0
0
0
0
0
0
0
0
0
0
0
0
0
0
0
0
0
0
0
0
0
0
0
0
0
0
0
0
0
0
0
0
0
0
0
0
0
0
0
0
0
0
0
0
0
0
0
0
0
0
0
0
0
0
0
0
0
0
0
0
0
0
0
0
0
0
0
0
0
0
0
0
0
0
0
0
0
0
0
0
0
0
0
0
0
0
0
0
0
0
0
0
0
0
0
0
0
0
0
0
0
0
0
0
0
0
0
0
0
0
0
0
0
0
0
0
0
0
0
0
0
0
0
0
0
0
0
0
0
0
0
0
0
0
0
0
0
0
0
0
0
0
0
0
0
0
0
0
0
0
0
0
0
0
0
0
0
0
0
0
0
0
0
0
0
0
0
0
0
0
0
0
0
0
0
0
0
0
0
0
0
0
0
0
0
0
0
0
0
0
0
0
0
0
0
0
0
0
0
0
0
0
0
0
0
0
0
0
0
0
0
0
0
0
0
0
0
0
0
0
0
0
0
0
0
0
0
0
0
0
0
0
0
0
0
0
0
0
0
0
0
0
0
0
0
0
0
0
0
0
0
0
0
0
0
0
0
0
0
0
0
0
0
0
0
0
0
0
0
0
0
0
0
0
0
0
0
0
0
0
0
0
0
0
0
0
0
0
0
0
0
0
0
0
0
0
0
0
0
0
0
0
0
0
0
0
0
0
0
0
0
0
0
0
0
0
0
0
0
0
0
0
0
0
0
0
0
0
0
0
0
0
0
0
0
0
0
0
0
0
0
0
0
0
0
0
0
0
0
0
0
0
0
0
0
0
0
0
0
0
0
0
0
0
0
0
0
0
0
0
0
0
0
0
0
0
0
0
0
0
0
0
0
0
0
0
0
0
0
0
0
0
0
0
0
0
0
0
0
0
0
0
0
0
0
0
0
0
0
0
0
0
0
0
0
0
0
0
0
0
0
0
0
0
0
0
0
0
0
0
0
0
0
0
0
0
0
0
0
0
0
0
0
0
0
0
0
0
0
0
0
0
0
0
0
0
0
0
0
0
0
0
0
0
0
0
0
0
0
0
0
0
0
0
0
0
0
0
0
0
0
0
0
0
0
0
0
0
0
0
0
0
0
0
0
0
0
0
0
0
0
0
0
0
0
0
0
0
0
0
0
0
0
0
0
0
0
0
0
0
0
0
0
0
0
0
0
0
0
0
0
0
0
0
0
0
0
0
0
0
0
0
0
0
0
0
0
0
0
0
0
0
0
0
0
0
0
0
0
0
0
0
0
0
0
0
0
0
0
0
0
0
0
0
0
0
0
0
0
0
0
0
0
0
0
0
0
0
0
0
0
0
0
0
0
0
0
0
0
0
0
0
0
0
0
0
0
0
0
0
0
0
0
0
0
0
0
0
0
0
0
0
0
0
0
0
0
0
0
0
0
0
0
0
0
0
0
0
0
0
0
0
0
0
0
0
0
0
0
0
0
0
0
0
0
0
0
0
0
0
0
0
0
0
0
0
0
0
0
0
0
0
0
0
0
0
0
0
0
0
0
0
0
0
0
0
0
0
0
0
0
0
0
0
0
0
0
0
0
0
0
0
0
0
0
0
0
0
0
0
0
0
0
0
0
0
0
0
0
0
0
0
0
0
0
0
0
0
0
0
0
0
0
0
0
0
0
0
0
0
0
0
0
0
0
0
0
0
0
0
0
0
0
0
0
0
0
0
0
0
0
0
0
0
0
0
0
0
0
0
0
0
0
0
0
0
0
0
0
0
0
0
0
0
0
0
0
0
0
0
0
0
0
0
0
0
0
0
0
0
0
0
0
0
0
0
0
0
0
0
0
0
0
0
0
0
0
0
0
0
0
0
0
0
0
0
0
0
0
0
0
0
0
0
0
0
0
0
0
0
0
0
0
0
0
0
0
0
0
0
0
0
0
0
0
0
0
0
0
0
0
0
0
0
0
0
0
0
0
0
0
0
0
0
0
0
0
0
0
0
0
0
0
0
0
0
0
0
0
0
0
0
0
0
0
0
0
0
0
0
0
0
0
0
0
0
0
0
0
0
0
0
0
0
0
0
0
0
0
0
0
0
0
0
0
0
0
0
0
0
0
0
0
0
0
0
0
0
0
0
0
0
0
0
0
0
0
0
0
0
0
0
0
0
0
0
0
0
0
0
0
0
0
0
0
0
0
0
0
0
0
0
0
0
0
0
0
0
0
0
0
0
0
0
0
0
0
0
0
0
0
0
0
0
0
0
0
0
0
0
0
0
0
0
0
0
0
0
0
0
0
0
0
0
0
0
0
0
0
0
0
0
0
0
0
37
0
25
122
0
25
122
0
27
124
0
30
127
0
0
0
0
0
0
0
0
0
0
0
0
0
0
0
0
0
0
0
0
0
0
0
0
0
0
0
0
0
0
0
0
0
0
0
0
0
0
0
0
0
0
0
0
0
0
0
0
0
0
0
0
0
0
0
0
0
0
0
0
0
0
0
0
0
0
0
0
0
0
0
0
0
0
0
0
0
0
0
0
0
0
0
0
0
0
0
0
0
0
0
0
0
0
0
0
0
0
0
0
0
0
0
0
0
0
0
0
0
0
0
0
0
0
0
0
0
0
0
0
0
0
0
0
0
0
0
0
0
0
0
0
0
0
0
0
0
0
0
0
0
0
0
0
0
0
0
0
0
0
0
0
0
0
0
0
0
0
0
0
0
0
0
0
0
0
0
0
0
0
0
0
0
0
0
0
0
0
0
0
0
0
0
0
0
0
0
0
0
0
0
0
0
0
0
0
0
0
0
36
79
0
97
219
0
113
245
0
113
245
0
49
150
0
22
119
0
110
240
0
0
0
0
0
0
0
0
0
0
0
0
0
0
0
0
0
0
0
0
0
0
0
0
0
0
0
0
0
0
0
0
0
0
0
0
0
0
0
0
0
0
0
0
0
0
0
0
0
0
0
0
0
0
0
0
0
0
0
0
0
0
0
0
0
0
0
0
0
0
0
0
0
0
0
0
0
0
0
0
0
0
0
0
0
0
0
0
0
0
0
0
0
0
0
0
0
0
0
0
0
0
0
0
0
0
0
0
0
0
0
0
0
0
0
0
0
0
0
0
0
0
0
0
0
0
0
0
0
0
0
0
0
0
0
0
0
0
0
0
0
0
0
0
0
0
0
0
0
0
0
0
0
0
0
0
0
0
0
0
0
0
0
0
0
0
0
0
0
0
0
0
0
0
0
0
0
0
0
0
0
0
0
0
0
0
0
0
0
0
0
0
0
113
245
0
49
150
0
49
150
0
11
111
0
22
119
0
30
127
0
30
127
0
22
119
0
30
127
0
0
0
0
0
0
0
0
0
0
0
0
0
0
0
0
0
0
0
0
0
0
0
0
0
0
0
0
0
0
0
0
0
0
0
0
0
0
0
0
0
0
0
0
0
0
0
0
0
0
0
0
0
0
0
0
0
0
0
0
0
0
0
0
0
0
0
0
0
0
0
0
0
0
0
0
0
0
0
0
0
0
0
0
0
0
0
0
0
0
0
0
0
0
0
0
0
0
0
0
0
0
0
0
0
0
0
0
0
0
0
0
0
0
0
0
0
0
0
0
0
0
0
0
0
0
0
0
0
0
0
0
0
0
0
0
0
0
0
0
0
0
0
0
0
0
0
0
0
0
0
0
0
0
0
0
0
0
0
0
0
0
0
0
0
0
0
0
0
0
0
0
0
0
0
0
0
0
0
0
0
0
0
0
0
0
0
71
156
0
110
240
0
110
240
0
69
177
0
30
127
0
30
127
0
42
141
0
110
240
0
110
240
0
75
186
0
113
245
0
42
91
0
0
0
0
0
0
0
0
0
0
0
0
0
0
0
0
0
0
0
0
0
0
0
0
0
0
0
0
0
0
0
0
0
0
0
0
0
0
0
0
0
0
0
0
0
0
0
0
0
0
0
0
0
0
0
0
0
0
0
0
0
0
0
0
0
0
0
0
0
0
0
0
0
0
0
0
0
0
0
0
0
0
0
0
0
0
0
0
0
0
0
0
0
0
0
0
0
0
0
0
0
0
0
0
0
0
0
0
0
0
0
0
0
0
0
0
0
0
0
0
0
0
0
0
0
0
0
0
0
0
0
0
0
0
0
0
0
0
0
0
0
0
0
0
0
0
0
0
0
0
0
0
0
0
0
0
0
0
0
0
0
0
0
0
0
0
0
0
0
0
0
0
0
0
0
0
0
0
0
0
0
113
245
0
110
240
0
100
225
0
30
127
0
30
127
0
30
127
0
53
155
0
110
240
0
110
240
0
110
240
0
110
240
0
71
156
0
0
0
0
0
0
0
0
0
0
0
0
0
0
0
0
0
0
0
0
0
0
0
0
0
0
0
0
0
0
0
0
0
0
0
0
0
0
0
0
0
0
0
0
0
0
0
0
0
0
0
0
0
0
0
0
0
0
0
0
0
0
0
0
0
0
0
0
0
0
0
0
0
0
0
0
0
0
0
0
0
0
0
0
0
0
0
0
0
0
0
0
0
0
0
0
0
0
0
0
0
0
0
0
0
0
0
0
0
0
0
0
0
0
0
0
0
0
0
0
0
0
0
0
0
0
0
0
0
0
0
0
0
0
0
0
0
0
0
0
0
0
0
0
0
0
0
0
0
0
0
0
0
0
0
0
0
0
0
0
0
0
0
0
0
0
0
0
0
0
0
0
0
0
0
0
0
0
0
0
0
113
245
0
113
245
0
110
240
0
30
127
0
30
127
0
30
127
0
53
155
0
110
240
0
113
245
0
110
240
0
110
240
0
71
156
0
0
0
0
0
0
0
0
0
0
0
0
0
0
0
0
0
0
0
0
0
0
0
0
0
0
0
0
0
0
0
0
0
0
0
0
0
0
0
0
0
0
0
0
0
0
0
0
0
0
0
0
0
0
0
0
0
0
0
0
0
0
0
0
0
0
0
0
0
0
0
0
0
0
0
0
0
0
0
0
0
0
0
0
0
0
0
0
0
0
0
0
0
0
0
0
0
0
0
0
0
0
0
0
0
0
0
0
0
0
0
0
0
0
0
0
0
0
0
0
0
0
0
0
0
0
0
0
0
0
0
0
0
0
0
0
0
0
0
0
0
0
0
0
0
0
0
0
0
0
0
0
0
0
0
0
0
0
0
0
0
0
0
0
0
0
0
0
0
0
0
0
0
0
0
0
0
0
0
0
0
113
245
0
27
124
0
97
219
0
30
127
0
30
127
0
30
127
0
53
155
0
113
245
0
22
119
0
110
240
0
110
240
0
71
156
0
0
0
0
0
0
0
0
0
0
0
0
0
0
0
0
0
0
0
0
0
0
0
0
0
0
0
0
0
0
0
0
0
0
0
0
0
0
0
0
0
0
0
0
0
0
0
0
0
0
0
0
0
0
0
0
0
0
0
0
0
0
0
0
0
0
0
0
0
0
0
0
0
0
0
0
0
0
0
0
0
0
0
0
0
0
0
0
0
0
0
0
0
0
0
0
0
0
0
0
0
0
0
0
0
0
0
0
0
0
0
0
0
0
0
0
0
0
0
0
0
0
0
0
0
0
0
0
0
0
0
0
0
0
0
0
0
0
0
0
0
0
0
0
0
0
0
0
0
0
0
0
0
0
0
0
0
0
0
0
0
0
0
0
0
0
0
0
0
0
0
0
0
0
0
0
0
0
0
0
0
30
127
0
113
245
0
113
245
0
27
124
0
30
127
0
30
127
0
30
127
0
30
127
0
30
127
0
113
245
0
110
240
0
71
156
0
0
0
0
0
0
0
0
0
0
0
0
0
0
0
0
0
0
0
0
0
0
0
0
0
0
0
0
0
0
0
0
0
0
0
0
0
0
0
0
0
0
0
0
0
0
0
0
0
0
0
0
0
0
0
0
0
0
0
0
0
0
0
0
0
0
0
0
0
0
0
0
0
0
0
0
0
0
0
0
0
0
0
0
0
0
0
0
0
0
0
0
0
0
0
0
0
0
0
0
0
0
0
0
0
0
0
0
0
0
0
0
0
0
0
0
0
0
0
0
0
0
0
0
0
0
0
0
0
0
0
0
0
0
0
0
0
0
0
0
0
0
0
0
0
0
0
0
0
0
0
0
0
0
0
0
0
0
0
0
0
0
0
0
0
0
0
0
0
0
0
0
0
0
0
0
0
0
0
0
0
0
0
0
30
127
0
30
127
0
97
219
0
22
119
0
113
245
0
97
219
0
30
127
0
30
127
0
113
245
0
113
245
0
0
0
0
0
0
0
0
0
0
0
0
0
0
0
0
0
0
0
0
0
0
0
0
0
0
0
0
0
0
0
0
0
0
0
0
0
0
0
0
0
0
0
0
0
0
0
0
0
0
0
0
0
0
0
0
0
0
0
0
0
0
0
0
0
0
0
0
0
0
0
0
0
0
0
0
0
0
0
0
0
0
0
0
0
0
0
0
0
0
0
0
0
0
0
0
0
0
0
0
0
0
0
0
0
0
0
0
0
0
0
0
0
0
0
0
0
0
0
0
0
0
0
0
0
0
0
0
0
0
0
0
0
0
0
0
0
0
0
0
0
0
0
0
0
0
0
0
0
0
0
0
0
0
0
0
0
0
0
0
0
0
0
0
0
0
0
0
0
0
0
0
0
0
0
0
0
0
0
0
0
0
0
0
0
0
0
20
86
0
30
127
0
53
155
0
110
240
0
110
240
0
103
230
0
30
127
0
30
127
0
71
156
0
0
0
0
0
0
0
0
0
0
0
0
0
0
0
0
0
0
0
0
0
0
0
0
0
0
0
0
0
0
0
0
0
0
0
0
0
0
0
0
0
0
0
0
0
0
0
0
0
0
0
0
0
0
0
0
0
0
0
0
0
0
0
0
0
0
0
0
0
0
0
0
0
0
0
0
0
0
0
0
0
0
0
0
0
0
0
0
0
0
0
0
0
0
0
0
0
0
0
0
0
0
0
0
0
0
0
0
0
0
0
0
0
0
0
0
0
0
0
0
0
0
0
0
0
0
0
0
0
0
0
0
0
0
0
0
0
0
0
0
0
0
0
0
0
0
0
0
0
0
0
0
0
0
0
0
0
0
0
0
0
0
0
0
0
0
0
0
0
0
0
0
0
0
0
0
0
0
0
0
0
0
0
0
0
0
0
0
0
0
0
0
0
0
0
0
53
155
0
110
240
0
110
240
0
110
240
0
113
245
0
27
124
0
0
0
0
0
0
0
0
0
0
0
0
0
0
0
0
0
0
0
0
0
0
0
0
0
0
0
0
0
0
0
0
0
0
0
0
0
0
0
0
0
0
0
0
0
0
0
0
0
0
0
0
0
0
0
0
0
0
0
0
0
0
0
0
0
0
0
0
0
0
0
0
0
0
0
0
0
0
0
0
0
0
0
0
0
0
0
0
0
0
0
0
0
0
0
0
0
0
0
0
0
0
0
0
0
0
0
0
0
0
0
0
0
0
0
0
0
0
0
0
0
0
0
0
0
0
0
0
0
0
0
0
0
0
0
0
0
0
0
0
0
0
0
0
0
0
0
0
0
0
0
0
0
0
0
0
0
0
0
0
0
0
0
0
0
0
0
0
0
0
0
0
0
0
0
0
0
0
0
0
0
0
0
0
0
0
0
0
0
0
0
0
0
0
0
0
0
0
0
7
34
0
42
91
0
42
91
0
42
91
0
42
91
0
0
0
0
0
0
0
0
0
0
0
0
0
0
0
0
0
0
0
0
0
0
0
0
0
0
0
0
0
0
0
0
0
0
0
0
0
0
0
0
0
0
0
0
0
0
0
0
0
0
0
0
0
0
0
0
0
0
0
0
0
0
0
0
0
0
0
0
0
0
0
0
0
0
0
0
0
0
0
0
0
0
0
0
0
0
0
0
0
0
0
0
0
0
0
0
0
0
0
0
0
0
0
0
0
0
0
0
0
0
0
0
0
0
0
0
0
0
0
0
0
0
0
0
0
0
0
0
0
0
0
0
0
0
0
0
0
0
0
0
0
0
0
0
0
0
0
0
0
0
0
0
0
0
0
0
0
0
0
0
0
0
0
0
0
0
0
0
0
0
0
0
0
0
0
0
0
0
0
0
0
0
0
0
0
0
0
0
0
0
0
0
0
0
0
0
0
0
0
0
0
0
0
0
0
0
0
0
0
0
0
0
0
0
0
0
0
0
0
0
0
0
0
0
0
0
0
0
0
0
0
0
0
0
0
0
0
0
0
0
0
0
0
0
0
0
0
0
0
0
0
0
0
0
0
0
0
0
0
0
0
0
0
0
0
0
0
0
0
0
0
0
0
0
0
0
0
0
0
0
0
0
0
0
0
0
0
0
0
0
0
0
0
0
0
0
0
0
0
0
0
0
0
0
0
0
0
0
0
0
0
0
0
0
0
0
0
0
0
0
0
0
0
0
0
0
0
0
0
0
0
0
0
0
0
0
0
0
0
0
0
0
0
0
0
0
0
0
0
0
0
0
0
0
0
0
0
0
0
0
0
0
0
0
0
0
0
0
0
0
0
0
0
0
0
0
0
0
0
0
0
0
0
0
0
0
0
0
0
0
0
0
0
0
0
0
0
0
0
0
0
0
0
0
0
0
0
0
0
0
0
0
0
0
0
0
0
0
0
0
0
0
0
0
0
0
0
0
0
0
0
0
0
0
0
0
0
0
0
0
0
0
0
0
0
0
0
0
0
0
0
0
0
0
0
0
0
0
0
0
0
0
0
0
0
0
0
0
0
0
0
0
0
0
0
0
0
0
0
0
0
0
0
0
0
0
0
0
0
0
0
0
0
0
0
0
0
0
0
0
0
0
0
0
0
0
0
0
0
0
0
0
0
0
0
0
0
0
0
0
0
0
0
0
0
0
0
0
0
0
0
0
0
0
0
