P3
72 72
255
0
0
0
0
0
0
0
0
0
0
0
0
0
0
0
0
0
0
0
0
0
0
0
0
0
0
0
0
0
0
0
0
0
0
0
0
0
0
0
0
0
0
0
0
0
0
0
0
0
0
0
0
0
0
0
0
0
0
0
0
0
0
0
0
0
0
0
0
0
0
0
0
0
0
0
0
0
0
0
0
0
0
0
0
0
0
0
0
0
0
0
0
0
0
0
0
0
0
0
0
0
0
0
0
0
0
0
0
0
0
0
0
0
0
0
0
0
0
0
0
0
0
0
0
0
0
0
0
0
0
0
0
0
0
0
0
0
0
0
0
0
0
0
0
0
0
0
0
0
0
0
0
0
0
0
0
0
0
0
0
0
0
0
0
0
0
0
0
0
0
0
0
0
0
0
0
0
0
0
0
0
0
0
0
0
0
0
0
0
0
0
0
0
0
0
0
0
0
0
0
0
0
0
0
0
0
0
0
0
0
0
0
0
0
0
0
0
0
0
0
0
0
0
0
0
0
0
0
0
0
0
0
0
0
0
0
0
0
0
0
0
0
0
0
0
0
0
0
0
0
0
0
0
0
0
0
0
0
0
0
0
0
0
0
0
0
0
0
0
0
0
0
0
254
0
73
244
0
71
238
0
69
238
0
69
238
0
69
239
0
44
246
0
4
91
0
2
0
0
0
0
0
0
0
0
0
0
0
0
0
0
0
0
0
0
0
0
0
0
0
0
0
0
0
0
0
0
0
0
0
0
0
0
0
0
0
0
0
0
0
0
0
0
0
0
0
0
0
0
0
0
0
0
0
0
0
0
0
0
0
0
0
0
0
0
0
0
0
0
0
0
0
0
0
0
0
0
0
0
0
0
0
0
0
0
0
0
0
0
0
0
0
0
0
0
0
0
0
0
0
0
0
0
0
0
0
0
0
0
0
0
0
0
0
0
0
0
0
0
0
0
0
0
0
0
0
0
0
0
0
0
0
0
0
0
0
0
0
0
0
0
0
0
0
0
0
0
0
0
0
0
0
0
0
0
0
0
0
0
0
0
0
0
0
0
0
0
0
0
0
0
0
0
0
0
0
0
0
0
0
0
0
0
0
0
0
147
0
43
254
0
73
238
0
69
254
0
73
238
0
69
244
0
71
239
0
44
240
0
4
246
0
4
0
0
0
0
0
0
0
0
0
0
0
0
0
0
0
0
0
0
0
0
0
0
0
0
0
0
0
0
0
0
0
0
0
0
0
0
0
0
0
0
0
0
0
0
0
0
0
0
0
0
0
0
0
0
0
0
0
0
0
0
0
0
0
0
0
0
0
0
0
0
0
0
0
0
0
0
0
0
0
0
0
0
0
0
0
0
0
0
0
0
0
0
0
0
0
0
0
0
0
0
0
0
0
0
0
0
0
0
0
0
0
0
0
0
0
0
0
0
0
0
0
0
0
0
0
0
0
0
0
0
0
0
0
0
0
0
0
0
0
0
0
0
0
0
0
0
0
0
0
0
0
0
0
0
0
0
0
0
0
0
0
0
0
0
0
0
0
0
0
0
0
0
0
0
0
0
0
0
0
0
0
0
0
0
0
0
205
0
59
238
0
69
205
0
59
238
0
69
205
0
59
238
0
69
205
0
59
239
0
44
246
0
4
240
0
4
240
0
4
214
0
4
0
0
0
0
0
0
0
0
0
0
0
0
0
0
0
0
0
0
0
0
0
0
0
0
0
0
0
0
0
0
0
0
0
0
0
0
0
0
0
0
0
0
0
0
0
0
0
0
0
0
0
0
0
0
0
0
0
0
0
0
0
0
0
0
0
0
0
0
0
0
0
0
0
0
0
0
0
0
0
0
0
0
0
0
0
0
0
0
0
0
0
0
0
0
0
0
0
0
0
0
0
0
0
0
0
0
0
0
0
0
0
0
0
0
0
0
0
0
0
0
0
0
0
0
0
0
0
0
0
0
0
0
0
0
0
0
0
0
0
0
0
0
0
0
0
0
0
0
0
0
0
0
0
0
0
0
0
0
0
0
0
0
0
0
0
0
0
0
0
0
0
0
0
0
0
0
0
0
0
0
0
0
0
154
0
45
238
0
69
254
0
73
0
0
0
254
0
73
83
0
24
0
0
0
246
0
4
240
0
4
0
0
0
0
0
0
0
0
0
0
0
0
0
0
0
0
0
0
0
0
0
0
0
0
0
0
0
0
0
0
0
0
0
0
0
0
0
0
0
0
0
0
0
0
0
0
0
0
0
0
0
0
0
0
0
0
0
0
0
0
0
0
0
0
0
0
0
0
0
0
0
0
0
0
0
0
0
0
0
0
0
0
0
0
0
0
0
0
0
0
0
0
0
0
0
0
0
0
0
0
0
0
0
0
0
0
0
0
0
0
0
0
0
0
0
0
0
0
0
0
0
0
0
0
0
0
0
0
0
0
0
0
0
0
0
0
0
0
0
0
0
0
0
0
0
0
0
0
0
0
0
0
0
0
0
0
0
0
0
0
0
0
0
0
0
0
0
0
0
0
0
0
0
0
0
0
0
0
0
0
0
0
0
0
0
0
0
0
0
0
0
0
0
0
0
0
0
0
0
0
0
0
0
0
0
0
0
0
0
0
0
0
0
0
0
0
0
0
0
0
0
0
0
0
0
0
0
0
0
0
0
0
0
0
0
0
0
0
0
0
0
0
0
0
0
0
0
0
0
0
0
0
0
0
0
0
0
0
0
0
0
0
0
0
0
0
0
0
0
0
0
0
0
0
0
0
0
0
0
0
0
0
0
0
0
0
0
0
0
0
0
0
0
0
0
0
0
0
0
0
0
0
0
0
0
0
0
0
0
0
0
0
0
0
0
0
0
0
0
0
0
0
0
0
0
0
0
0
0
0
0
0
0
0
0
0
0
0
0
0
0
0
0
0
0
0
0
0
0
0
0
0
0
0
0
0
0
0
0
0
0
0
0
0
0
0
0
0
0
0
0
0
0
0
0
0
0
0
0
0
0
0
0
0
0
0
0
0
0
0
0
0
0
0
0
0
0
0
0
0
0
0
0
0
0
0
0
0
0
0
0
0
0
0
0
0
0
0
0
0
0
0
0
0
0
0
0
0
0
0
0
0
0
0
0
0
0
0
0
0
0
0
0
0
0
0
0
0
0
0
0
0
0
0
0
0
0
0
0
0
0
0
0
0
0
0
0
0
0
0
0
0
0
0
0
0
0
0
0
0
0
0
0
0
0
0
0
0
0
0
0
0
0
0
0
0
0
0
0
0
0
0
0
0
0
0
0
0
0
0
0
0
0
0
0
0
0
0
0
0
0
0
0
0
0
0
0
0
0
0
0
0
0
0
0
0
0
0
0
0
0
0
0
0
0
0
0
0
0
0
0
0
0
0
0
0
0
0
0
0
0
0
0
0
0
0
0
0
0
0
0
0
0
0
0
0
0
0
0
0
0
0
0
0
0
0
0
0
0
0
0
0
0
0
0
0
0
0
0
0
0
0
0
0
0
0
0
0
0
0
0
0
0
0
0
0
0
0
0
0
0
0
0
0
0
0
0
0
0
0
0
0
0
0
0
0
0
0
0
0
0
0
0
0
0
0
0
0
0
0
0
0
0
0
0
0
0
0
0
0
0
0
0
0
0
0
0
0
0
0
0
0
0
0
0
0
0
0
0
0
0
0
0
0
0
0
0
0
0
0
0
0
0
0
0
0
0
0
0
0
0
0
0
0
0
0
0
0
0
0
0
0
0
0
0
0
0
0
0
0
0
0
0
0
0
0
0
0
0
0
0
0
0
0
0
0
0
0
0
0
0
0
0
0
0
0
0
0
0
0
0
0
0
0
0
0
0
0
0
0
0
0
0
0
0
0
0
0
0
0
0
0
0
0
0
0
0
0
0
0
0
0
0
0
0
0
0
0
0
0
0
0
0
0
0
0
0
0
0
0
0
0
0
0
0
0
0
0
0
0
0
0
0
0
0
0
0
0
0
0
0
0
0
0
0
0
0
0
0
0
0
0
0
0
0
0
0
0
0
0
0
0
0
0
0
0
0
0
0
0
0
0
0
0
0
0
0
0
0
0
0
0
0
0
0
0
0
0
0
0
0
0
0
0
0
0
0
0
0
0
0
0
0
0
0
0
0
0
0
0
0
0
0
0
0
0
0
0
0
0
0
0
0
0
0
0
0
0
0
0
0
0
0
0
0
0
0
0
0
0
0
0
0
0
0
0
0
0
0
0
0
0
0
0
0
0
0
0
0
0
0
0
0
0
0
0
0
0
0
0
0
0
0
0
0
0
0
0
0
0
0
0
0
0
0
0
0
0
0
0
0
0
0
0
0
0
0
0
0
0
0
0
0
0
0
0
0
0
0
0
0
0
0
0
0
0
0
0
0
0
0
0
0
0
0
0
0
0
0
0
0
0
0
0
0
0
0
0
0
0
0
0
0
0
0
0
0
0
0
0
0
0
0
0
0
0
0
0
0
0
0
0
0
0
0
0
0
0
0
0
0
0
0
0
0
0
0
0
0
0
0
0
0
0
0
0
0
0
0
0
0
0
0
0
0
0
0
0
0
0
0
0
0
0
0
0
0
0
0
0
0
0
0
0
0
0
0
0
0
0
0
0
0
0
0
0
0
0
0
0
0
0
0
0
0
0
0
0
0
0
0
0
0
0
0
0
0
0
0
0
0
0
0
0
0
0
0
0
0
0
0
0
0
0
0
0
0
0
0
0
0
0
0
0
0
0
0
0
0
0
0
0
0
0
0
0
0
0
0
0
0
0
0
0
0
0
0
0
0
0
0
0
0
0
0
0
0
0
0
0
0
0
0
0
0
0
0
0
0
0
0
0
0
0
0
0
0
0
0
0
0
0
0
0
0
0
0
0
0
0
0
0
0
0
0
0
0
0
0
0
0
0
0
0
0
0
0
0
0
0
0
0
0
0
0
0
0
0
0
0
0
0
0
0
0
0
0
0
0
0
0
0
0
0
0
0
0
0
0
0
0
0
0
0
0
0
0
0
0
0
0
0
0
0
0
0
0
0
0
0
0
0
0
0
0
0
0
0
0
0
0
0
0
0
0
0
0
0
0
0
0
0
0
0
0
0
0
0
0
0
0
0
0
0
0
0
0
0
0
0
0
0
0
0
0
0
0
0
0
0
0
0
0
0
0
0
0
0
0
0
0
0
0
0
0
0
0
0
0
0
0
0
0
0
0
0
0
0
0
0
0
0
0
0
0
0
0
0
0
0
0
0
0
0
0
0
0
0
0
0
0
0
0
0
0
0
0
0
0
0
0
0
0
0
0
0
0
0
0
0
0
0
0
0
0
0
0
0
0
0
0
0
0
0
0
0
0
0
0
0
0
0
0
0
0
0
0
0
0
0
0
0
0
0
0
0
0
0
0
0
0
0
0
0
0
0
0
0
0
0
0
0
0
0
0
0
0
0
0
0
0
0
0
0
0
0
0
0
0
0
0
0
0
0
0
0
0
0
0
0
0
0
0
0
0
0
0
0
0
0
0
0
0
0
0
0
0
0
0
0
0
0
0
0
0
0
0
0
0
0
0
0
0
0
0
0
0
0
0
0
0
0
0
0
0
0
0
0
0
0
0
0
0
0
0
0
0
0
0
0
0
0
0
0
0
0
0
0
0
0
0
0
0
0
0
0
0
0
0
0
0
0
0
0
0
0
0
0
0
0
0
0
0
0
0
0
0
0
0
0
0
0
0
0
0
0
0
0
0
0
0
0
0
0
0
0
0
0
0
0
0
0
0
0
0
0
0
0
0
0
0
0
0
0
0
0
0
0
0
0
0
0
0
0
0
0
0
0
0
0
0
0
0
0
0
0
0
0
0
0
0
0
0
0
0
0
0
0
0
0
0
0
0
0
0
0
0
0
0
0
0
0
0
0
0
0
0
0
0
0
0
0
0
0
0
0
0
0
0
0
0
0
0
0
0
0
0
0
0
0
0
0
0
0
0
0
0
0
0
0
0
0
0
0
0
0
0
0
0
0
0
0
0
0
0
0
0
0
0
0
0
0
0
0
0
0
0
0
0
0
0
0
0
0
0
0
0
0
0
0
0
0
0
0
0
0
0
0
0
0
0
0
0
0
0
0
0
0
0
0
0
0
0
0
0
0
0
0
0
0
0
0
0
0
0
0
0
0
0
0
0
0
0
0
0
0
0
0
0
0
0
0
0
0
0
0
0
0
0
0
0
0
0
0
0
0
0
0
0
0
0
0
0
0
0
0
0
0
0
0
0
0
0
0
0
0
0
0
0
0
0
0
0
0
0
0
0
0
0
0
0
0
0
0
0
0
0
0
0
0
0
0
0
0
0
0
0
0
0
0
0
0
0
0
0
0
0
0
0
0
0
0
0
0
0
0
0
0
0
0
0
0
0
0
0
0
0
0
0
0
0
0
0
0
0
0
0
0
0
0
0
0
0
0
0
0
0
0
0
0
0
0
0
0
0
0
0
0
0
0
0
0
0
0
0
0
0
0
0
0
0
0
0
0
0
0
0
0
0
0
0
0
0
0
0
0
0
0
0
0
0
0
0
0
0
0
0
0
0
0
0
0
0
0
0
0
0
0
0
0
0
0
0
0
0
0
0
0
0
0
0
0
0
0
0
0
0
0
0
0
0
0
0
0
0
0
0
0
0
0
0
0
0
0
0
0
0
0
0
0
0
0
0
0
0
0
0
0
0
0
0
0
0
0
0
0
0
0
0
0
0
0
0
0
0
0
0
0
0
0
0
0
0
0
0
0
0
0
0
0
0
0
0
0
0
0
0
0
0
0
0
0
0
0
0
0
0
0
0
0
0
0
0
0
0
0
0
0
0
0
0
0
0
0
0
0
0
0
0
0
0
0
0
0
0
0
0
0
0
0
0
0
0
0
0
0
0
0
0
0
0
0
0
0
0
0
0
0
0
0
0
0
0
0
0
0
0
0
0
0
0
0
0
0
0
0
0
0
0
0
0
0
0
0
0
0
0
0
0
0
0
0
0
0
0
0
0
0
0
0
0
0
0
0
0
0
0
0
0
0
0
0
0
0
0
0
0
0
0
0
0
0
0
0
0
0
0
0
0
0
0
0
0
0
0
0
0
0
0
0
0
0
0
0
0
0
0
0
0
0
0
0
0
0
0
0
0
0
0
0
0
0
0
0
0
0
0
0
0
0
0
0
0
0
0
0
0
0
0
0
0
0
0
0
0
0
0
0
0
0
0
0
0
0
0
0
0
0
0
0
0
0
0
0
0
0
0
0
0
0
0
0
0
0
0
0
0
0
0
0
0
0
0
0
0
0
0
0
0
0
0
0
0
0
0
0
0
0
0
0
0
0
0
0
0
0
0
0
0
0
0
0
0
0
0
0
0
0
0
0
0
0
0
0
0
0
0
0
0
0
0
0
0
0
0
0
0
0
0
0
0
0
0
0
0
0
0
0
0
0
0
0
0
0
0
0
0
0
0
0
0
0
0
0
0
0
0
0
0
0
0
0
0
0
0
0
0
0
0
0
0
0
0
0
0
0
0
0
0
0
0
0
0
0
0
0
0
0
0
0
0
0
0
0
0
0
0
0
0
0
0
0
0
0
0
0
0
0
0
0
0
0
0
0
0
0
0
0
0
0
0
0
0
0
0
0
0
0
0
0
0
0
0
0
0
0
0
0
0
0
0
0
0
0
0
0
0
0
0
0
0
0
0
0
0
0
0
0
0
0
0
0
0
0
0
0
0
0
0
0
0
0
0
0
0
0
0
0
0
0
0
0
0
0
0
0
0
0
0
0
0
0
0
0
0
0
0
0
0
0
0
0
0
0
0
0
0
0
0
0
0
0
0
0
0
0
0
0
0
0
0
0
0
0
0
0
0
0
0
0
0
0
0
0
0
0
0
0
0
0
0
0
0
0
0
0
0
0
0
0
0
0
0
0
0
0
0
0
0
0
0
0
0
0
0
0
0
0
0
0
0
0
0
0
0
0
0
0
0
0
0
0
0
0
0
0
0
0
0
0
0
0
0
0
0
0
0
0
0
0
0
0
0
0
0
0
0
0
0
0
0
0
0
0
0
0
0
0
0
0
0
0
0
0
0
0
0
0
0
0
0
0
0
0
0
0
0
0
0
0
0
0
0
0
0
0
0
0
0
0
0
0
0
0
0
0
0
0
0
0
0
0
0
0
0
0
0
0
0
0
0
0
0
0
0
0
0
0
0
0
0
0
0
0
0
0
0
0
0
0
0
0
0
0
0
0
0
0
0
0
0
0
0
0
0
0
0
0
0
0
0
0
0
0
0
0
0
0
0
0
0
0
0
0
0
0
0
0
0
0
0
0
0
0
0
0
0
0
0
0
0
0
0
0
0
0
0
0
0
0
0
0
0
0
0
0
0
0
0
0
0
0
0
0
0
0
0
0
0
0
0
0
0
0
0
0
0
0
0
0
0
0
0
0
0
0
0
0
0
0
0
0
0
0
0
0
0
0
0
0
0
0
0
0
0
0
0
0
0
0
0
0
0
0
0
0
0
0
0
0
0
0
0
0
0
0
0
0
0
0
0
0
0
0
0
0
0
0
0
0
0
0
0
0
0
0
0
0
0
0
0
0
0
0
0
0
0
0
0
0
0
0
0
0
0
0
0
0
0
0
0
0
0
0
0
0
0
0
0
0
0
0
0
0
0
0
0
0
0
0
0
0
0
0
0
0
0
0
0
0
0
0
0
0
0
0
0
0
0
0
0
0
0
0
0
0
0
0
0
0
0
0
0
0
0
0
0
0
0
0
0
0
0
0
0
0
0
0
0
0
0
0
0
0
0
0
0
0
0
0
0
0
0
0
0
0
0
0
0
0
0
0
0
0
0
0
0
0
0
0
0
0
0
0
0
0
0
0
0
0
0
0
0
0
0
0
0
0
0
0
0
0
0
0
0
0
0
0
0
0
0
0
0
0
0
0
0
0
0
0
0
0
0
0
0
0
0
0
0
0
0
0
0
0
0
0
0
0
0
0
0
0
0
0
0
0
0
0
0
0
0
0
0
0
0
0
0
0
0
0
0
0
0
0
0
0
0
0
0
0
0
0
0
0
0
0
0
0
0
0
0
0
0
0
0
0
0
0
0
0
0
0
0
0
0
0
0
0
0
0
0
0
0
0
0
0
0
0
0
0
0
0
0
0
0
0
0
0
0
0
0
0
0
0
0
0
0
0
0
0
0
0
0
0
0
0
0
0
0
0
0
0
0
0
0
0
0
0
0
0
0
0
0
0
0
0
0
0
0
0
0
0
0
0
0
0
0
0
0
0
0
0
0
0
0
0
0
0
0
0
0
0
0
0
0
0
0
0
0
0
0
0
0
0
0
0
0
0
0
0
0
0
0
0
0
0
0
0
0
0
0
0
0
0
0
0
0
0
0
0
0
0
0
0
0
0
0
0
0
0
0
0
0
0
0
0
0
0
0
0
0
0
0
0
0
0
0
0
0
0
0
0
0
0
0
0
0
0
0
0
0
0
0
0
0
0
0
0
0
0
0
0
0
0
0
0
0
0
0
0
0
0
0
0
0
0
0
0
0
0
0
0
0
0
0
0
0
0
0
0
0
0
0
0
0
0
0
0
0
0
0
0
0
0
0
0
0
0
0
0
0
0
0
0
0
0
0
0
0
0
0
0
0
0
0
0
0
0
0
0
0
0
0
0
0
0
0
0
0
0
0
0
0
0
0
0
0
0
0
0
0
0
0
0
0
0
0
0
0
0
0
0
0
0
0
0
0
0
0
0
0
0
0
0
0
0
0
0
0
0
0
0
246
0
36
0
0
0
0
0
0
0
0
0
0
0
0
0
0
0
0
0
0
0
0
0
0
0
0
238
0
69
0
0
0
0
0
0
0
0
0
0
0
0
0
0
0
0
0
0
0
0
0
0
0
0
0
0
0
0
0
0
0
0
0
246
0
4
0
0
0
0
0
0
0
0
0
0
0
0
0
0
0
0
0
0
0
0
0
0
0
0
0
0
0
52
0
86
31
0
51
0
0
0
0
0
0
0
0
0
0
0
0
0
0
0
0
0
0
0
0
0
0
0
0
0
0
0
0
0
0
44
0
145
44
0
145
0
0
0
0
0
0
0
0
0
0
0
0
0
0
0
0
0
0
0
0
0
115
0
149
178
0
230
0
0
0
0
0
0
0
0
0
0
0
0
0
0
0
0
0
0
0
0
0
0
0
0
0
0
0
0
0
0
0
0
0
0
0
0
0
0
0
0
0
0
0
0
0
0
0
0
246
0
36
238
0
35
238
0
35
238
0
35
0
0
0
0
0
0
0
0
0
0
0
0
0
0
0
90
0
26
244
0
71
238
0
69
244
0
71
254
0
73
0
0
0
0
0
0
0
0
0
0
0
0
0
0
0
0
0
0
0
0
0
0
0
0
246
0
4
240
0
4
246
0
4
246
0
4
0
0
0
0
0
0
0
0
0
0
0
0
0
0
0
0
0
0
50
0
82
50
0
82
50
0
82
52
0
85
0
0
0
0
0
0
0
0
0
0
0
0
0
0
0
0
0
0
0
0
0
0
0
0
53
0
174
52
0
170
52
0
170
53
0
174
0
0
0
0
0
0
0
0
0
0
0
0
0
0
0
192
0
248
178
0
230
178
0
230
182
0
235
184
0
238
0
0
0
0
0
0
0
0
0
0
0
0
0
0
0
0
0
0
0
0
0
0
0
0
0
0
0
0
0
0
0
0
0
0
0
0
0
0
0
205
0
30
205
0
30
0
0
0
246
0
36
79
0
12
246
0
36
0
0
0
0
0
0
0
0
0
154
0
45
244
0
71
0
0
0
238
0
69
0
0
0
238
0
69
0
0
0
0
0
0
0
0
0
0
0
0
0
0
0
0
0
0
0
0
0
248
0
4
0
0
0
246
0
4
0
0
0
204
0
3
214
0
4
0
0
0
0
0
0
0
0
0
0
0
0
52
0
86
0
0
0
52
0
86
31
0
51
52
0
85
52
0
86
0
0
0
0
0
0
0
0
0
0
0
0
0
0
0
0
0
0
55
0
182
53
0
174
44
0
145
44
0
145
0
0
0
55
0
182
0
0
0
0
0
0
0
0
0
68
0
87
178
0
230
115
0
149
178
0
230
0
0
0
182
0
235
0
0
0
0
0
0
0
0
0
0
0
0
0
0
0
0
0
0
0
0
0
0
0
0
0
0
0
0
0
0
0
0
0
0
0
0
0
0
0
79
0
12
130
0
19
246
0
36
83
0
12
205
0
30
90
0
13
0
0
0
0
0
0
0
0
0
59
0
17
90
0
26
244
0
71
90
0
26
244
0
71
90
0
26
0
0
0
0
0
0
0
0
0
0
0
0
0
0
0
0
0
0
0
0
0
91
0
2
246
0
4
79
0
1
248
0
4
134
0
2
79
0
1
0
0
0
0
0
0
0
0
0
0
0
0
19
0
31
52
0
85
17
0
27
37
0
60
17
0
27
19
0
31
0
0
0
0
0
0
0
0
0
0
0
0
0
0
0
0
0
0
20
0
65
13
0
42
29
0
95
29
0
95
53
0
174
20
0
65
0
0
0
0
0
0
0
0
0
25
0
33
68
0
87
130
0
168
68
0
87
182
0
235
68
0
87
0
0
0
0
0
0
0
0
0
0
0
0
0
0
0
0
0
0
0
0
0
0
0
0
0
0
0
0
0
0
0
0
0
0
0
0
0
0
0
0
0
0
154
0
23
154
0
23
154
0
23
154
0
23
0
0
0
0
0
0
0
0
0
0
0
0
0
0
0
59
0
17
154
0
45
154
0
45
154
0
45
154
0
45
0
0
0
0
0
0
0
0
0
0
0
0
0
0
0
0
0
0
0
0
0
0
0
0
156
0
3
156
0
3
156
0
3
156
0
3
0
0
0
0
0
0
0
0
0
0
0
0
0
0
0
0
0
0
32
0
53
32
0
53
32
0
53
32
0
53
0
0
0
0
0
0
0
0
0
0
0
0
0
0
0
0
0
0
0
0
0
0
0
0
34
0
110
34
0
110
34
0
110
34
0
110
0
0
0
0
0
0
0
0
0
0
0
0
0
0
0
118
0
153
115
0
149
115
0
149
115
0
149
118
0
153
0
0
0
0
0
0
0
0
0
0
0
0
0
0
0
0
0
0
0
0
0
0
0
0
0
0
0
0
0
0
0
0
0
0
0
0
0
0
0
222
0
33
90
0
13
255
0
37
0
0
0
222
0
33
255
0
37
0
0
0
0
0
0
0
0
0
154
0
45
222
0
64
254
0
73
0
0
0
254
0
73
0
0
0
0
0
0
0
0
0
0
0
0
0
0
0
0
0
0
0
0
0
0
0
0
255
0
3
255
0
3
0
0
0
255
0
3
91
0
2
214
0
4
0
0
0
0
0
0
0
0
0
0
0
0
52
0
86
52
0
86
0
0
0
32
0
53
0
0
0
52
0
86
0
0
0
0
0
0
0
0
0
0
0
0
0
0
0
0
0
0
55
0
182
0
0
0
20
0
67
20
0
67
55
0
182
55
0
182
0
0
0
0
0
0
0
0
0
68
0
87
0
0
0
118
0
153
0
0
0
192
0
248
0
0
0
0
0
0
0
0
0
0
0
0
0
0
0
0
0
0
0
0
0
0
0
0
0
0
0
0
0
0
0
0
0
0
0
0
0
0
0
0
0
0
0
0
0
0
0
0
0
0
0
0
0
0
0
0
0
0
0
0
0
0
0
0
0
0
0
0
0
0
0
0
0
0
0
0
0
0
0
0
0
0
0
0
0
0
0
0
0
0
0
0
0
0
0
0
0
0
0
0
0
0
0
0
0
0
0
0
0
0
0
0
0
0
0
0
0
0
0
0
0
0
0
0
0
0
0
0
0
0
0
0
0
0
0
0
0
0
0
0
0
0
0
0
0
0
0
0
0
0
0
0
0
0
0
0
0
0
0
0
0
0
0
0
0
0
0
0
0
0
0
0
0
0
0
0
0
0
0
0
0
0
0
0
0
0
0
0
0
0
0
0
0
0
0
0
0
0
0
0
0
0
0
0
0
0
0
0
0
0
0
0
0
0
0
0
0
0
0
0
0
0
0
0
0
0
0
0
0
0
0
0
0
0
0
0
0
0
0
0
0
0
0
0
0
0
0
0
0
0
0
0
0
0
0
0
0
0
205
0
30
0
0
0
0
0
0
0
0
0
90
0
13
0
0
0
0
0
0
0
0
0
0
0
0
0
0
0
90
0
26
0
0
0
0
0
0
0
0
0
0
0
0
0
0
0
0
0
0
0
0
0
0
0
0
0
0
0
0
0
0
0
0
0
255
0
3
0
0
0
0
0
0
0
0
0
214
0
4
0
0
0
0
0
0
0
0
0
0
0
0
0
0
0
0
0
0
0
0
0
0
0
0
0
0
0
0
0
0
52
0
86
0
0
0
0
0
0
0
0
0
0
0
0
0
0
0
0
0
0
55
0
182
0
0
0
0
0
0
0
0
0
0
0
0
0
0
0
0
0
0
0
0
0
0
0
0
0
0
0
192
0
248
0
0
0
0
0
0
0
0
0
0
0
0
0
0
0
0
0
0
0
0
0
0
0
0
0
0
0
0
0
0
0
0
0
0
0
0
0
0
0
0
0
0
0
0
0
0
0
0
0
0
0
0
0
0
205
0
30
0
0
0
0
0
0
205
0
30
0
0
0
0
0
0
0
0
0
0
0
0
0
0
0
0
0
0
244
0
71
0
0
0
0
0
0
244
0
71
0
0
0
0
0
0
0
0
0
0
0
0
0
0
0
0
0
0
0
0
0
0
0
0
0
0
0
0
0
0
248
0
4
79
0
1
0
0
0
0
0
0
0
0
0
0
0
0
0
0
0
0
0
0
52
0
85
0
0
0
0
0
0
52
0
85
0
0
0
0
0
0
0
0
0
0
0
0
0
0
0
0
0
0
0
0
0
0
0
0
53
0
174
0
0
0
13
0
42
53
0
174
0
0
0
0
0
0
0
0
0
0
0
0
0
0
0
0
0
0
115
0
149
0
0
0
0
0
0
184
0
238
0
0
0
0
0
0
0
0
0
0
0
0
0
0
0
0
0
0
0
0
0
0
0
0
0
0
0
0
0
0
0
0
0
0
0
0
255
0
37
238
0
35
79
0
12
238
0
35
246
0
36
79
0
12
246
0
36
0
0
0
0
0
0
0
0
0
154
0
45
244
0
71
0
0
0
238
0
69
238
0
69
0
0
0
254
0
73
0
0
0
0
0
0
0
0
0
0
0
0
0
0
0
255
0
3
248
0
4
246
0
4
240
0
4
0
0
0
204
0
3
214
0
4
0
0
0
0
0
0
0
0
0
0
0
0
52
0
86
0
0
0
52
0
86
50
0
82
0
0
0
50
0
82
32
0
53
0
0
0
0
0
0
0
0
0
0
0
0
44
0
145
53
0
174
0
0
0
52
0
170
44
0
145
0
0
0
55
0
182
0
0
0
0
0
0
0
0
0
68
0
87
178
0
230
115
0
149
178
0
230
184
0
238
0
0
0
184
0
238
0
0
0
0
0
0
0
0
0
0
0
0
0
0
0
0
0
0
0
0
0
0
0
0
0
0
0
0
0
0
0
0
0
0
0
0
205
0
30
238
0
35
238
0
35
238
0
35
238
0
35
0
0
0
255
0
37
0
0
0
0
0
0
154
0
45
83
0
24
244
0
71
238
0
69
238
0
69
244
0
71
0
0
0
254
0
73
0
0
0
0
0
0
0
0
0
214
0
4
0
0
0
240
0
4
240
0
4
240
0
4
246
0
4
240
0
4
91
0
2
0
0
0
0
0
0
0
0
0
52
0
86
0
0
0
52
0
85
50
0
82
50
0
82
52
0
85
52
0
85
32
0
53
0
0
0
0
0
0
0
0
0
0
0
0
20
0
65
53
0
174
53
0
174
52
0
170
52
0
170
53
0
174
0
0
0
55
0
182
0
0
0
0
0
0
153
0
198
184
0
238
182
0
235
178
0
230
178
0
230
182
0
235
0
0
0
192
0
248
0
0
0
0
0
0
0
0
0
0
0
0
0
0
0
0
0
0
0
0
0
0
0
0
0
0
0
0
0
0
0
0
0
205
0
30
0
0
0
0
0
0
0
0
0
79
0
12
0
0
0
246
0
36
0
0
0
0
0
0
154
0
45
90
0
26
0
0
0
0
0
0
0
0
0
0
0
0
0
0
0
244
0
71
0
0
0
0
0
0
0
0
0
204
0
3
0
0
0
248
0
4
0
0
0
0
0
0
0
0
0
204
0
3
91
0
2
0
0
0
0
0
0
0
0
0
52
0
85
0
0
0
0
0
0
0
0
0
0
0
0
0
0
0
52
0
85
32
0
53
0
0
0
0
0
0
0
0
0
0
0
0
20
0
65
53
0
174
0
0
0
0
0
0
0
0
0
0
0
0
0
0
0
53
0
174
0
0
0
0
0
0
153
0
198
184
0
238
0
0
0
0
0
0
0
0
0
0
0
0
0
0
0
184
0
238
0
0
0
0
0
0
0
0
0
0
0
0
0
0
0
0
0
0
0
0
0
0
0
0
0
0
0
0
0
0
0
0
0
79
0
12
205
0
30
222
0
33
205
0
30
184
0
27
0
0
0
90
0
13
0
0
0
0
0
0
59
0
17
34
0
10
205
0
59
130
0
38
205
0
59
205
0
59
0
0
0
90
0
26
0
0
0
0
0
0
0
0
0
79
0
1
0
0
0
79
0
1
214
0
4
0
0
0
204
0
3
134
0
2
34
0
0
0
0
0
0
0
0
0
0
0
19
0
31
0
0
0
45
0
73
43
0
71
28
0
46
43
0
71
19
0
31
12
0
20
0
0
0
0
0
0
0
0
0
0
0
0
7
0
24
20
0
65
44
0
145
20
0
65
44
0
145
44
0
145
0
0
0
20
0
67
0
0
0
0
0
0
59
0
76
68
0
87
153
0
198
130
0
168
153
0
198
153
0
198
0
0
0
68
0
87
0
0
0
0
0
0
0
0
0
0
0
0
0
0
0
0
0
0
0
0
0
0
0
0
0
0
0
0
0
0
0
0
0
0
0
0
0
0
0
0
0
0
0
0
0
0
0
0
0
0
0
0
0
0
0
0
0
0
0
0
0
0
0
0
0
0
0
0
0
0
0
0
0
0
0
0
0
0
0
0
0
0
0
0
0
0
0
0
0
0
0
0
0
0
0
0
0
0
0
0
0
0
0
0
0
0
0
0
0
0
0
0
0
0
0
0
0
0
0
0
0
0
0
0
0
0
0
0
0
0
0
0
0
0
0
0
0
0
0
0
0
0
0
0
0
0
0
0
0
0
0
0
0
0
0
0
0
0
0
0
0
0
0
0
0
0
0
0
0
0
0
0
0
0
0
0
0
0
0
0
0
0
0
0
0
0
0
0
0
0
0
0
0
0
0
0
0
0
0
0
0
0
0
0
0
0
0
0
0
0
0
0
0
0
0
0
0
0
0
0
0
0
0
0
0
0
0
0
0
0
0
0
0
0
0
0
0
0
0
0
0
0
0
0
0
0
0
0
0
222
0
33
0
0
0
0
0
0
0
0
0
90
0
13
0
0
0
0
0
0
0
0
0
0
0
0
0
0
0
90
0
26
0
0
0
0
0
0
0
0
0
0
0
0
0
0
0
0
0
0
0
0
0
0
0
0
0
0
0
0
0
0
0
0
0
255
0
3
0
0
0
0
0
0
0
0
0
214
0
4
0
0
0
0
0
0
0
0
0
0
0
0
0
0
0
0
0
0
0
0
0
0
0
0
0
0
0
0
0
0
52
0
86
0
0
0
0
0
0
0
0
0
0
0
0
0
0
0
0
0
0
55
0
182
0
0
0
0
0
0
0
0
0
0
0
0
0
0
0
0
0
0
0
0
0
0
0
0
0
0
0
192
0
248
0
0
0
0
0
0
0
0
0
0
0
0
0
0
0
0
0
0
0
0
0
0
0
0
0
0
0
0
0
0
0
0
0
0
0
0
0
0
0
0
0
0
0
0
0
0
0
0
0
0
0
0
0
0
205
0
30
0
0
0
0
0
0
205
0
30
0
0
0
0
0
0
0
0
0
0
0
0
0
0
0
0
0
0
254
0
73
0
0
0
0
0
0
254
0
73
0
0
0
0
0
0
0
0
0
0
0
0
0
0
0
0
0
0
0
0
0
0
0
0
0
0
0
0
0
0
255
0
3
79
0
1
0
0
0
0
0
0
0
0
0
0
0
0
0
0
0
0
0
0
52
0
86
0
0
0
0
0
0
52
0
86
0
0
0
0
0
0
0
0
0
0
0
0
0
0
0
0
0
0
0
0
0
0
0
0
55
0
182
0
0
0
20
0
65
55
0
182
0
0
0
0
0
0
0
0
0
0
0
0
0
0
0
0
0
0
115
0
149
0
0
0
0
0
0
184
0
238
0
0
0
0
0
0
0
0
0
0
0
0
0
0
0
0
0
0
0
0
0
0
0
0
0
0
0
0
0
0
0
0
0
0
0
0
90
0
13
205
0
30
205
0
30
238
0
35
238
0
35
205
0
30
79
0
12
0
0
0
0
0
0
0
0
0
59
0
17
130
0
38
205
0
59
238
0
69
238
0
69
205
0
59
83
0
24
0
0
0
0
0
0
0
0
0
0
0
0
0
0
0
91
0
2
246
0
4
240
0
4
240
0
4
204
0
3
240
0
4
79
0
1
0
0
0
0
0
0
0
0
0
0
0
0
19
0
31
43
0
71
50
0
82
50
0
82
43
0
71
52
0
85
12
0
20
0
0
0
0
0
0
0
0
0
0
0
0
20
0
65
53
0
174
44
0
145
52
0
170
52
0
170
44
0
145
20
0
65
0
0
0
0
0
0
0
0
0
25
0
33
184
0
238
166
0
214
178
0
230
178
0
230
153
0
198
59
0
76
0
0
0
0
0
0
0
0
0
0
0
0
0
0
0
0
0
0
0
0
0
0
0
0
0
0
0
0
0
0
0
0
0
246
0
36
238
0
35
238
0
35
238
0
35
238
0
35
238
0
35
246
0
36
246
0
36
0
0
0
0
0
0
154
0
45
90
0
26
238
0
69
238
0
69
238
0
69
238
0
69
0
0
0
244
0
71
0
0
0
0
0
0
0
0
0
204
0
3
0
0
0
240
0
4
240
0
4
240
0
4
240
0
4
240
0
4
91
0
2
0
0
0
0
0
0
0
0
0
52
0
85
0
0
0
50
0
82
50
0
82
50
0
82
50
0
82
52
0
85
32
0
53
0
0
0
0
0
0
0
0
0
0
0
0
20
0
65
53
0
174
52
0
170
52
0
170
52
0
170
52
0
170
0
0
0
53
0
174
0
0
0
0
0
0
178
0
230
178
0
230
178
0
230
178
0
230
178
0
230
178
0
230
184
0
238
184
0
238
0
0
0
0
0
0
0
0
0
0
0
0
0
0
0
0
0
0
0
0
0
0
0
0
0
0
0
0
0
0
0
0
0
205
0
30
246
0
36
246
0
36
246
0
36
238
0
35
0
0
0
246
0
36
0
0
0
0
0
0
154
0
45
90
0
26
244
0
71
244
0
71
244
0
71
244
0
71
0
0
0
244
0
71
0
0
0
0
0
0
0
0
0
204
0
3
0
0
0
240
0
4
246
0
4
246
0
4
246
0
4
240
0
4
91
0
2
0
0
0
0
0
0
0
0
0
52
0
85
0
0
0
52
0
85
52
0
85
52
0
85
52
0
85
52
0
85
32
0
53
0
0
0
0
0
0
0
0
0
0
0
0
20
0
65
53
0
174
53
0
174
53
0
174
53
0
174
53
0
174
0
0
0
53
0
174
0
0
0
0
0
0
153
0
198
184
0
238
182
0
235
182
0
235
182
0
235
182
0
235
0
0
0
184
0
238
0
0
0
0
0
0
0
0
0
0
0
0
0
0
0
0
0
0
0
0
0
0
0
0
0
0
0
0
0
0
0
0
0
0
0
0
246
0
36
255
0
37
246
0
36
205
0
30
0
0
0
0
0
0
0
0
0
0
0
0
0
0
0
0
0
0
244
0
71
154
0
45
254
0
73
254
0
73
0
0
0
0
0
0
0
0
0
0
0
0
0
0
0
0
0
0
0
0
0
0
0
0
255
0
3
0
0
0
248
0
4
79
0
1
0
0
0
0
0
0
0
0
0
0
0
0
0
0
0
0
0
0
52
0
86
52
0
85
32
0
53
52
0
85
0
0
0
0
0
0
0
0
0
0
0
0
0
0
0
0
0
0
0
0
0
0
0
0
53
0
174
20
0
67
53
0
174
55
0
182
0
0
0
0
0
0
0
0
0
0
0
0
0
0
0
0
0
0
184
0
238
153
0
198
184
0
238
192
0
248
0
0
0
0
0
0
0
0
0
0
0
0
0
0
0
0
0
0
0
0
0
0
0
0
0
0
0
0
0
0
0
0
0
0
0
0
0
0
0
0
0
0
0
0
0
0
0
0
0
0
0
0
0
0
0
0
0
0
0
0
0
0
0
0
0
0
0
0
0
0
0
0
0
0
0
0
0
0
0
0
0
0
0
0
0
0
0
0
0
0
0
0
0
0
0
0
0
0
0
0
0
0
0
0
0
0
0
0
0
0
0
0
0
0
0
0
0
0
0
0
0
0
0
0
0
0
0
0
0
0
0
0
0
0
0
0
0
0
0
0
0
0
0
0
0
0
0
0
0
0
0
0
0
0
0
0
0
0
0
0
0
0
0
0
0
0
0
0
0
0
0
0
0
0
0
0
0
0
0
0
0
0
0
0
0
0
0
0
0
0
0
0
0
0
0
0
0
0
0
0
0
0
0
0
0
0
0
0
0
0
0
0
0
0
0
0
0
0
0
0
0
0
0
0
0
0
0
0
0
0
0
0
0
0
0
0
0
0
0
0
0
0
0
0
0
0
0
0
0
0
0
0
154
0
23
154
0
23
154
0
23
154
0
23
154
0
23
154
0
23
0
0
0
0
0
0
0
0
0
0
0
0
0
0
0
59
0
17
154
0
45
154
0
45
154
0
45
154
0
45
154
0
45
0
0
0
0
0
0
0
0
0
0
0
0
0
0
0
156
0
3
156
0
3
156
0
3
156
0
3
156
0
3
156
0
3
0
0
0
0
0
0
0
0
0
0
0
0
0
0
0
0
0
0
32
0
53
32
0
53
32
0
53
32
0
53
32
0
53
21
0
34
0
0
0
0
0
0
0
0
0
0
0
0
29
0
95
34
0
110
34
0
110
34
0
110
34
0
110
34
0
110
0
0
0
0
0
0
0
0
0
0
0
0
0
0
0
118
0
153
115
0
149
115
0
149
115
0
149
115
0
149
115
0
149
0
0
0
0
0
0
0
0
0
0
0
0
0
0
0
0
0
0
0
0
0
0
0
0
0
0
0
0
0
0
0
0
0
238
0
35
238
0
35
238
0
35
238
0
35
238
0
35
238
0
35
246
0
36
0
0
0
0
0
0
0
0
0
154
0
45
244
0
71
238
0
69
238
0
69
238
0
69
238
0
69
238
0
69
244
0
71
0
0
0
0
0
0
0
0
0
214
0
4
240
0
4
240
0
4
240
0
4
240
0
4
240
0
4
240
0
4
214
0
4
0
0
0
0
0
0
0
0
0
0
0
0
52
0
86
50
0
82
50
0
82
50
0
82
50
0
82
50
0
82
52
0
85
0
0
0
0
0
0
0
0
0
0
0
0
52
0
170
52
0
170
52
0
170
52
0
170
52
0
170
52
0
170
55
0
182
0
0
0
0
0
0
0
0
0
68
0
87
178
0
230
178
0
230
178
0
230
178
0
230
178
0
230
178
0
230
192
0
248
0
0
0
0
0
0
0
0
0
0
0
0
0
0
0
0
0
0
0
0
0
0
0
0
0
0
0
246
0
36
238
0
35
79
0
12
79
0
12
238
0
35
0
0
0
79
0
12
238
0
35
246
0
36
0
0
0
0
0
0
238
0
69
238
0
69
0
0
0
147
0
43
238
0
69
0
0
0
244
0
71
238
0
69
90
0
26
0
0
0
0
0
0
240
0
4
246
0
4
0
0
0
246
0
4
246
0
4
0
0
0
204
0
3
240
0
4
0
0
0
0
0
0
0
0
0
50
0
82
50
0
82
0
0
0
0
0
0
50
0
82
0
0
0
0
0
0
50
0
82
52
0
86
0
0
0
0
0
0
53
0
174
52
0
170
0
0
0
0
0
0
52
0
170
0
0
0
0
0
0
52
0
170
53
0
174
0
0
0
0
0
0
178
0
230
178
0
230
0
0
0
59
0
76
184
0
238
0
0
0
184
0
238
178
0
230
115
0
149
0
0
0
0
0
0
0
0
0
0
0
0
0
0
0
0
0
0
0
0
0
0
0
0
154
0
23
154
0
23
222
0
33
222
0
33
154
0
23
238
0
35
222
0
33
154
0
23
154
0
23
0
0
0
0
0
0
154
0
45
154
0
45
238
0
69
205
0
59
154
0
45
238
0
69
154
0
45
154
0
45
59
0
17
0
0
0
0
0
0
156
0
3
156
0
3
240
0
4
156
0
3
156
0
3
240
0
4
176
0
3
156
0
3
0
0
0
0
0
0
0
0
0
32
0
53
32
0
53
52
0
85
50
0
82
32
0
53
52
0
85
52
0
85
32
0
53
32
0
53
0
0
0
0
0
0
34
0
110
34
0
110
53
0
174
53
0
174
34
0
110
52
0
170
53
0
174
34
0
110
34
0
110
0
0
0
0
0
0
115
0
149
115
0
149
178
0
230
166
0
214
115
0
149
178
0
230
115
0
149
115
0
149
68
0
87
0
0
0
0
0
0
0
0
0
0
0
0
0
0
0
0
0
0
0
0
0
0
0
0
0
0
0
255
0
37
246
0
36
90
0
13
246
0
36
0
0
0
246
0
36
0
0
0
0
0
0
0
0
0
0
0
0
0
0
0
83
0
24
254
0
73
154
0
45
254
0
73
0
0
0
254
0
73
0
0
0
0
0
0
0
0
0
0
0
0
0
0
0
255
0
3
255
0
3
255
0
3
255
0
3
255
0
3
248
0
4
0
0
0
0
0
0
0
0
0
0
0
0
0
0
0
0
0
0
52
0
86
0
0
0
52
0
86
0
0
0
52
0
86
32
0
53
0
0
0
0
0
0
0
0
0
0
0
0
44
0
145
55
0
182
0
0
0
53
0
174
20
0
67
53
0
174
0
0
0
0
0
0
0
0
0
0
0
0
0
0
0
192
0
248
118
0
153
68
0
87
192
0
248
0
0
0
184
0
238
0
0
0
0
0
0
0
0
0
0
0
0
0
0
0
0
0
0
0
0
0
0
0
0
0
0
0
0
0
0
255
0
37
0
0
0
0
0
0
0
0
0
0
0
0
0
0
0
0
0
0
255
0
37
255
0
37
0
0
0
0
0
0
244
0
71
205
0
59
0
0
0
0
0
0
0
0
0
0
0
0
0
0
0
254
0
73
90
0
26
0
0
0
0
0
0
248
0
4
0
0
0
0
0
0
0
0
0
0
0
0
0
0
0
0
0
0
248
0
4
0
0
0
0
0
0
0
0
0
52
0
85
52
0
86
0
0
0
0
0
0
0
0
0
0
0
0
0
0
0
32
0
53
52
0
86
0
0
0
0
0
0
55
0
182
20
0
67
0
0
0
0
0
0
0
0
0
0
0
0
0
0
0
53
0
174
53
0
174
0
0
0
0
0
0
184
0
238
0
0
0
0
0
0
0
0
0
0
0
0
0
0
0
0
0
0
184
0
238
118
0
153
0
0
0
0
0
0
0
0
0
0
0
0
0
0
0
0
0
0
0
0
0
0
0
0
0
0
0
0
0
0
0
0
0
0
0
0
0
0
0
0
0
0
0
0
0
0
0
0
0
0
0
0
0
0
0
0
0
0
0
0
0
0
0
0
0
0
0
0
0
0
0
0
0
0
0
0
0
0
0
0
0
0
0
0
0
0
0
0
0
0
0
0
0
0
0
0
0
0
0
0
0
0
0
0
0
0
0
0
0
0
0
0
0
0
0
0
0
0
0
0
0
0
0
0
0
0
0
0
0
0
0
0
0
0
0
0
0
0
0
0
0
0
0
0
0
0
0
0
0
0
0
0
0
0
0
0
0
0
0
0
0
0
0
0
0
0
0
0
0
0
0
0
0
0
0
0
0
0
0
0
0
0
0
0
0
0
0
0
0
0
0
0
0
0
0
0
0
0
0
0
0
0
0
0
0
0
0
0
0
0
0
0
0
0
0
0
0
0
0
0
0
0
0
0
0
0
0
0
0
0
0
0
0
0
0
0
0
0
0
0
0
0
0
255
0
37
246
0
36
246
0
36
246
0
36
246
0
36
246
0
36
0
0
0
0
0
0
0
0
0
0
0
0
0
0
0
90
0
26
244
0
71
244
0
71
244
0
71
244
0
71
254
0
73
0
0
0
0
0
0
0
0
0
0
0
0
0
0
0
255
0
3
248
0
4
248
0
4
248
0
4
248
0
4
248
0
4
0
0
0
0
0
0
0
0
0
0
0
0
0
0
0
0
0
0
52
0
85
52
0
85
52
0
85
52
0
85
52
0
85
32
0
53
0
0
0
0
0
0
0
0
0
0
0
0
44
0
145
53
0
174
53
0
174
53
0
174
53
0
174
53
0
174
0
0
0
0
0
0
0
0
0
0
0
0
0
0
0
192
0
248
184
0
238
184
0
238
184
0
238
184
0
238
184
0
238
0
0
0
0
0
0
0
0
0
0
0
0
0
0
0
0
0
0
0
0
0
0
0
0
0
0
0
0
0
0
205
0
30
238
0
35
130
0
19
130
0
19
238
0
35
90
0
13
130
0
19
238
0
35
205
0
30
0
0
0
0
0
0
222
0
64
238
0
69
90
0
26
174
0
50
238
0
69
90
0
26
244
0
71
238
0
69
83
0
24
0
0
0
0
0
0
240
0
4
240
0
4
91
0
2
240
0
4
240
0
4
91
0
2
214
0
4
240
0
4
0
0
0
0
0
0
0
0
0
43
0
71
50
0
82
17
0
27
19
0
31
50
0
82
17
0
27
17
0
27
50
0
82
45
0
73
0
0
0
0
0
0
44
0
145
52
0
170
20
0
65
13
0
42
52
0
170
20
0
65
13
0
42
52
0
170
44
0
145
0
0
0
0
0
0
153
0
198
178
0
230
68
0
87
99
0
128
182
0
235
68
0
87
182
0
235
178
0
230
99
0
128
0
0
0
0
0
0
0
0
0
0
0
0
0
0
0
0
0
0
0
0
0
0
0
0
246
0
36
238
0
35
246
0
36
246
0
36
238
0
35
246
0
36
246
0
36
238
0
35
246
0
36
0
0
0
0
0
0
244
0
71
244
0
71
244
0
71
244
0
71
244
0
71
244
0
71
244
0
71
244
0
71
90
0
26
0
0
0
0
0
0
246
0
4
246
0
4
246
0
4
246
0
4
246
0
4
246
0
4
246
0
4
246
0
4
0
0
0
0
0
0
0
0
0
50
0
82
50
0
82
52
0
85
52
0
85
50
0
82
52
0
85
52
0
85
50
0
82
52
0
86
0
0
0
0
0
0
53
0
174
53
0
174
53
0
174
53
0
174
53
0
174
53
0
174
53
0
174
53
0
174
53
0
174
0
0
0
0
0
0
182
0
235
182
0
235
182
0
235
182
0
235
182
0
235
182
0
235
182
0
235
182
0
235
118
0
153
0
0
0
0
0
0
0
0
0
0
0
0
0
0
0
0
0
0
0
0
0
0
0
0
0
0
0
0
0
0
205
0
30
205
0
30
0
0
0
255
0
37
205
0
30
0
0
0
0
0
0
0
0
0
0
0
0
0
0
0
0
0
0
238
0
69
154
0
45
0
0
0
254
0
73
0
0
0
0
0
0
0
0
0
0
0
0
0
0
0
0
0
0
0
0
0
240
0
4
0
0
0
0
0
0
240
0
4
79
0
1
0
0
0
0
0
0
0
0
0
0
0
0
0
0
0
0
0
0
52
0
85
52
0
86
0
0
0
52
0
86
52
0
85
0
0
0
0
0
0
0
0
0
0
0
0
0
0
0
0
0
0
53
0
174
55
0
182
0
0
0
53
0
174
53
0
174
0
0
0
0
0
0
0
0
0
0
0
0
0
0
0
0
0
0
182
0
235
153
0
198
0
0
0
192
0
248
0
0
0
0
0
0
0
0
0
0
0
0
0
0
0
0
0
0
0
0
0
0
0
0
0
0
0
0
0
0
0
0
0
205
0
30
79
0
12
90
0
13
34
0
5
90
0
13
0
0
0
90
0
13
205
0
30
205
0
30
0
0
0
0
0
0
205
0
59
174
0
50
90
0
26
59
0
17
90
0
26
0
0
0
90
0
26
205
0
59
83
0
24
0
0
0
0
0
0
204
0
3
91
0
2
91
0
2
91
0
2
91
0
2
91
0
2
91
0
2
204
0
3
0
0
0
0
0
0
0
0
0
43
0
71
43
0
71
19
0
31
0
0
0
19
0
31
0
0
0
19
0
31
32
0
53
45
0
73
0
0
0
0
0
0
44
0
145
29
0
95
20
0
65
0
0
0
20
0
65
7
0
24
20
0
65
44
0
145
44
0
145
0
0
0
0
0
0
153
0
198
59
0
76
44
0
57
25
0
33
68
0
87
0
0
0
68
0
87
153
0
198
99
0
128
0
0
0
0
0
0
0
0
0
0
0
0
0
0
0
0
0
0
0
0
0
0
0
0
0
0
0
0
0
0
0
0
0
0
0
0
0
0
0
0
0
0
0
0
0
0
0
0
0
0
0
0
0
0
0
0
0
0
0
0
0
0
0
0
0
0
0
0
0
0
0
0
0
0
0
0
0
0
0
0
0
0
0
0
0
0
0
0
0
0
0
0
0
0
0
0
0
0
0
0
0
0
0
0
0
0
0
0
0
0
0
0
0
0
0
0
0
0
0
0
0
0
0
0
0
0
0
0
0
0
0
0
0
0
0
0
0
0
0
0
0
0
0
0
0
0
0
0
0
0
0
0
0
0
0
0
0
0
0
0
0
0
0
0
0
0
0
0
0
0
0
0
0
0
0
0
0
0
0
0
0
0
0
0
0
0
0
0
0
0
0
0
0
0
0
0
0
0
0
0
0
0
0
0
0
0
0
0
0
0
0
0
0
0
0
0
0
0
0
0
0
0
0
0
0
0
0
0
0
0
0
0
0
0
0
0
0
0
0
0
0
0
0
0
0
0
0
0
0
0
0
0
0
0
0
0
0
0
0
0
0
0
0
0
0
0
0
0
0
0
0
0
0
0
0
0
0
0
0
0
0
0
0
0
0
0
0
0
0
0
0
0
0
0
0
0
0
0
0
0
0
0
0
0
0
0
0
0
0
0
0
0
0
0
0
0
0
0
0
0
0
0
0
0
0
0
0
0
0
0
0
0
0
0
0
0
0
0
0
0
0
0
0
0
0
0
0
0
0
0
0
0
0
0
0
0
0
0
0
0
0
0
0
0
0
0
0
0
0
0
0
0
0
0
0
0
0
0
0
0
0
0
0
0
0
0
0
0
0
0
0
0
0
0
0
0
0
0
0
0
0
0
0
0
0
0
0
0
0
0
0
0
0
0
0
0
0
0
0
0
0
0
0
0
0
0
0
0
0
0
0
0
0
0
0
0
0
0
0
0
0
0
0
0
0
0
0
0
0
0
0
0
0
0
0
0
0
0
0
0
0
0
0
0
0
0
0
0
0
0
0
0
0
0
0
0
0
0
0
0
0
0
0
0
0
0
0
0
0
0
0
0
0
0
0
0
0
0
0
0
0
0
0
0
0
0
0
0
0
0
0
0
0
0
0
0
0
0
0
0
0
0
0
0
0
0
0
0
0
0
0
0
0
0
0
0
0
0
0
0
0
0
0
0
0
0
0
0
0
0
0
0
0
0
0
0
0
0
0
0
0
0
0
0
0
0
0
0
0
0
0
0
0
0
0
0
0
0
0
0
0
0
0
0
0
0
0
0
0
0
0
0
0
0
0
0
0
0
0
0
0
0
0
0
0
0
0
0
0
0
0
0
0
0
0
0
0
0
0
0
0
0
0
0
0
0
0
0
0
0
0
0
0
0
0
0
0
0
0
0
0
0
0
0
0
0
0
0
0
0
0
0
0
0
0
0
0
0
0
0
0
0
0
0
0
0
0
0
0
0
0
0
0
0
0
0
0
0
0
0
0
0
0
0
0
0
0
0
0
0
0
0
0
0
0
0
0
0
0
0
0
0
0
0
0
0
0
0
0
0
0
0
0
0
0
0
0
0
0
0
0
0
0
0
0
0
0
0
0
0
0
0
0
0
0
0
0
0
0
0
0
0
0
0
0
0
0
0
0
0
0
0
0
0
0
0
0
0
0
0
0
0
0
0
0
0
0
0
0
0
0
0
0
0
0
0
0
0
0
0
0
0
0
0
0
0
0
0
0
0
0
0
0
0
0
0
0
0
0
0
0
0
0
0
0
0
0
0
0
0
0
0
0
0
0
0
0
0
0
0
0
0
0
0
0
0
0
0
0
0
0
0
0
0
0
0
0
0
0
0
0
0
0
0
0
0
0
0
0
0
0
0
0
0
0
0
0
0
0
0
0
0
0
0
0
0
0
0
0
0
0
0
0
0
0
0
0
0
0
0
0
0
0
0
0
0
0
0
0
0
0
0
0
0
0
0
0
0
0
0
0
0
0
0
0
0
0
0
0
0
0
0
0
0
0
0
0
0
0
0
0
0
0
0
0
0
0
0
0
0
0
0
0
0
0
0
0
0
0
0
0
0
0
0
0
0
0
0
0
0
0
0
0
0
0
0
0
0
0
0
0
0
0
0
0
0
0
0
0
0
0
0
0
0
0
0
0
0
0
0
0
0
0
0
0
0
0
0
0
0
0
0
0
0
0
0
0
0
0
0
0
0
0
0
0
0
0
0
0
0
0
0
0
0
0
0
0
0
0
0
0
0
0
0
0
0
0
0
0
0
0
0
0
0
0
0
0
0
0
0
0
0
0
0
0
0
0
0
0
0
0
0
0
0
0
0
0
0
0
0
0
0
0
0
0
0
0
0
0
0
0
0
0
0
0
0
0
0
0
0
0
0
0
0
0
0
0
0
0
0
0
0
0
0
0
0
0
0
0
0
0
0
0
0
0
0
0
0
0
0
0
0
0
0
0
0
0
0
0
0
0
0
0
0
0
0
0
0
0
0
0
0
0
0
0
0
0
0
0
0
0
0
0
0
0
0
0
0
0
0
0
0
0
0
0
0
0
0
0
0
0
0
0
0
0
0
0
0
0
0
0
0
0
0
0
0
0
0
0
0
0
0
0
0
0
0
0
0
0
0
0
0
0
95
25
0
252
25
0
252
27
0
249
30
0
246
0
0
0
0
0
0
0
0
0
0
0
0
0
0
0
0
0
0
0
0
0
0
0
0
0
0
0
0
0
0
0
0
0
0
0
0
0
0
0
0
0
0
0
0
0
0
0
0
0
0
0
0
0
0
0
0
0
0
0
0
0
0
0
0
0
0
0
0
0
0
0
0
0
0
0
0
0
0
0
0
0
0
0
0
0
0
0
0
0
0
0
0
0
0
0
0
0
0
0
0
0
0
0
0
0
0
0
0
0
0
0
0
0
0
0
0
0
0
0
0
0
0
0
0
0
0
0
0
0
0
0
0
0
0
0
0
0
0
0
0
0
0
0
0
0
0
0
0
0
0
0
0
0
0
0
0
0
0
0
0
0
0
0
0
0
0
0
0
0
0
0
0
0
0
0
0
0
0
0
0
0
0
0
0
0
0
0
0
0
0
0
0
0
0
0
0
0
0
36
0
8
97
0
98
113
0
0
113
0
0
49
0
220
22
0
254
110
0
23
0
0
0
0
0
0
0
0
0
0
0
0
0
0
0
0
0
0
0
0
0
0
0
0
0
0
0
0
0
0
0
0
0
0
0
0
0
0
0
0
0
0
0
0
0
0
0
0
0
0
0
0
0
0
0
0
0
0
0
0
0
0
0
0
0
0
0
0
0
0
0
0
0
0
0
0
0
0
0
0
0
0
0
0
0
0
0
0
0
0
0
0
0
0
0
0
0
0
0
0
0
0
0
0
0
0
0
0
0
0
0
0
0
0
0
0
0
0
0
0
0
0
0
0
0
0
0
0
0
0
0
0
0
0
0
0
0
0
0
0
0
0
0
0
0
0
0
0
0
0
0
0
0
0
0
0
0
0
0
0
0
0
0
0
0
0
0
0
0
0
0
0
0
0
0
0
0
0
0
0
0
0
0
0
0
0
0
0
0
0
0
0
113
0
0
49
0
220
49
0
220
11
0
255
22
0
254
30
0
246
30
0
246
22
0
254
30
0
246
0
0
0
0
0
0
0
0
0
0
0
0
0
0
0
0
0
0
0
0
0
0
0
0
0
0
0
0
0
0
0
0
0
0
0
0
0
0
0
0
0
0
0
0
0
0
0
0
0
0
0
0
0
0
0
0
0
0
0
0
0
0
0
0
0
0
0
0
0
0
0
0
0
0
0
0
0
0
0
0
0
0
0
0
0
0
0
0
0
0
0
0
0
0
0
0
0
0
0
0
0
0
0
0
0
0
0
0
0
0
0
0
0
0
0
0
0
0
0
0
0
0
0
0
0
0
0
0
0
0
0
0
0
0
0
0
0
0
0
0
0
0
0
0
0
0
0
0
0
0
0
0
0
0
0
0
0
0
0
0
0
0
0
0
0
0
0
0
0
0
0
0
0
0
0
0
0
0
0
0
0
0
0
0
0
0
71
0
15
110
0
23
110
0
23
69
0
182
30
0
246
30
0
246
42
0
230
110
0
23
110
0
23
75
0
167
113
0
0
42
0
9
0
0
0
0
0
0
0
0
0
0
0
0
0
0
0
0
0
0
0
0
0
0
0
0
0
0
0
0
0
0
0
0
0
0
0
0
0
0
0
0
0
0
0
0
0
0
0
0
0
0
0
0
0
0
0
0
0
0
0
0
0
0
0
0
0
0
0
0
0
0
0
0
0
0
0
0
0
0
0
0
0
0
0
0
0
0
0
0
0
0
0
0
0
0
0
0
0
0
0
0
0
0
0
0
0
0
0
0
0
0
0
0
0
0
0
0
0
0
0
0
0
0
0
0
0
0
0
0
0
0
0
0
0
0
0
0
0
0
0
0
0
0
0
0
0
0
0
0
0
0
0
0
0
0
0
0
0
0
0
0
0
0
0
0
0
0
0
0
0
0
0
0
0
0
0
0
0
0
0
0
113
0
0
110
0
23
100
0
83
30
0
246
30
0
246
30
0
246
53
0
213
110
0
23
110
0
23
110
0
23
110
0
23
71
0
15
0
0
0
0
0
0
0
0
0
0
0
0
0
0
0
0
0
0
0
0
0
0
0
0
0
0
0
0
0
0
0
0
0
0
0
0
0
0
0
0
0
0
0
0
0
0
0
0
0
0
0
0
0
0
0
0
0
0
0
0
0
0
0
0
0
0
0
0
0
0
0
0
0
0
0
0
0
0
0
0
0
0
0
0
0
0
0
0
0
0
0
0
0
0
0
0
0
0
0
0
0
0
0
0
0
0
0
0
0
0
0
0
0
0
0
0
0
0
0
0
0
0
0
0
0
0
0
0
0
0
0
0
0
0
0
0
0
0
0
0
0
0
0
0
0
0
0
0
0
0
0
0
0
0
0
0
0
0
0
0
0
0
0
0
0
0
0
0
0
0
0
0
0
0
0
0
0
0
0
0
113
0
0
113
0
0
110
0
23
30
0
246
30
0
246
30
0
246
53
0
213
110
0
23
113
0
0
110
0
23
110
0
23
71
0
15
0
0
0
0
0
0
0
0
0
0
0
0
0
0
0
0
0
0
0
0
0
0
0
0
0
0
0
0
0
0
0
0
0
0
0
0
0
0
0
0
0
0
0
0
0
0
0
0
0
0
0
0
0
0
0
0
0
0
0
0
0
0
0
0
0
0
0
0
0
0
0
0
0
0
0
0
0
0
0
0
0
0
0
0
0
0
0
0
0
0
0
0
0
0
0
0
0
0
0
0
0
0
0
0
0
0
0
0
0
0
0
0
0
0
0
0
0
0
0
0
0
0
0
0
0
0
0
0
0
0
0
0
0
0
0
0
0
0
0
0
0
0
0
0
0
0
0
0
0
0
0
0
0
0
0
0
0
0
0
0
0
0
0
0
0
0
0
0
0
0
0
0
0
0
0
0
0
0
0
0
113
0
0
27
0
249
97
0
98
30
0
246
30
0
246
30
0
246
53
0
213
113
0
0
22
0
254
110
0
23
110
0
23
71
0
15
0
0
0
0
0
0
0
0
0
0
0
0
0
0
0
0
0
0
0
0
0
0
0
0
0
0
0
0
0
0
0
0
0
0
0
0
0
0
0
0
0
0
0
0
0
0
0
0
0
0
0
0
0
0
0
0
0
0
0
0
0
0
0
0
0
0
0
0
0
0
0
0
0
0
0
0
0
0
0
0
0
0
0
0
0
0
0
0
0
0
0
0
0
0
0
0
0
0
0
0
0
0
0
0
0
0
0
0
0
0
0
0
0
0
0
0
0
0
0
0
0
0
0
0
0
0
0
0
0
0
0
0
0
0
0
0
0
0
0
0
0
0
0
0
0
0
0
0
0
0
0
0
0
0
0
0
0
0
0
0
0
0
0
0
0
0
0
0
0
0
0
0
0
0
0
0
0
0
0
0
30
0
246
113
0
0
113
0
0
27
0
249
30
0
246
30
0
246
30
0
246
30
0
246
30
0
246
113
0
0
110
0
23
71
0
15
0
0
0
0
0
0
0
0
0
0
0
0
0
0
0
0
0
0
0
0
0
0
0
0
0
0
0
0
0
0
0
0
0
0
0
0
0
0
0
0
0
0
0
0
0
0
0
0
0
0
0
0
0
0
0
0
0
0
0
0
0
0
0
0
0
0
0
0
0
0
0
0
0
0
0
0
0
0
0
0
0
0
0
0
0
0
0
0
0
0
0
0
0
0
0
0
0
0
0
0
0
0
0
0
0
0
0
0
0
0
0
0
0
0
0
0
0
0
0
0
0
0
0
0
0
0
0
0
0
0
0
0
0
0
0
0
0
0
0
0
0
0
0
0
0
0
0
0
0
0
0
0
0
0
0
0
0
0
0
0
0
0
0
0
0
0
0
0
0
0
0
0
0
0
0
0
0
0
0
0
0
0
0
30
0
246
30
0
246
97
0
98
22
0
254
113
0
0
97
0
98
30
0
246
30
0
246
113
0
0
113
0
0
0
0
0
0
0
0
0
0
0
0
0
0
0
0
0
0
0
0
0
0
0
0
0
0
0
0
0
0
0
0
0
0
0
0
0
0
0
0
0
0
0
0
0
0
0
0
0
0
0
0
0
0
0
0
0
0
0
0
0
0
0
0
0
0
0
0
0
0
0
0
0
0
0
0
0
0
0
0
0
0
0
0
0
0
0
0
0
0
0
0
0
0
0
0
0
0
0
0
0
0
0
0
0
0
0
0
0
0
0
0
0
0
0
0
0
0
0
0
0
0
0
0
0
0
0
0
0
0
0
0
0
0
0
0
0
0
0
0
0
0
0
0
0
0
0
0
0
0
0
0
0
0
0
0
0
0
0
0
0
0
0
0
0
0
0
0
0
0
0
0
0
0
0
0
0
0
0
0
0
0
0
0
0
0
0
0
20
0
167
30
0
246
53
0
213
110
0
23
110
0
23
103
0
68
30
0
246
30
0
246
71
0
15
0
0
0
0
0
0
0
0
0
0
0
0
0
0
0
0
0
0
0
0
0
0
0
0
0
0
0
0
0
0
0
0
0
0
0
0
0
0
0
0
0
0
0
0
0
0
0
0
0
0
0
0
0
0
0
0
0
0
0
0
0
0
0
0
0
0
0
0
0
0
0
0
0
0
0
0
0
0
0
0
0
0
0
0
0
0
0
0
0
0
0
0
0
0
0
0
0
0
0
0
0
0
0
0
0
0
0
0
0
0
0
0
0
0
0
0
0
0
0
0
0
0
0
0
0
0
0
0
0
0
0
0
0
0
0
0
0
0
0
0
0
0
0
0
0
0
0
0
0
0
0
0
0
0
0
0
0
0
0
0
0
0
0
0
0
0
0
0
0
0
0
0
0
0
0
0
0
0
0
0
0
0
0
0
0
0
0
0
0
0
0
0
0
0
0
53
0
213
110
0
23
110
0
23
110
0
23
113
0
0
27
0
249
0
0
0
0
0
0
0
0
0
0
0
0
0
0
0
0
0
0
0
0
0
0
0
0
0
0
0
0
0
0
0
0
0
0
0
0
0
0
0
0
0
0
0
0
0
0
0
0
0
0
0
0
0
0
0
0
0
0
0
0
0
0
0
0
0
0
0
0
0
0
0
0
0
0
0
0
0
0
0
0
0
0
0
0
0
0
0
0
0
0
0
0
0
0
0
0
0
0
0
0
0
0
0
0
0
0
0
0
0
0
0
0
0
0
0
0
0
0
0
0
0
0
0
0
0
0
0
0
0
0
0
0
0
0
0
0
0
0
0
0
0
0
0
0
0
0
0
0
0
0
0
0
0
0
0
0
0
0
0
0
0
0
0
0
0
0
0
0
0
0
0
0
0
0
0
0
0
0
0
0
0
0
0
0
0
0
0
0
0
0
0
0
0
0
0
0
0
0
7
0
12
42
0
9
42
0
9
42
0
9
42
0
9
0
0
0
0
0
0
0
0
0
0
0
0
0
0
0
0
0
0
0
0
0
0
0
0
0
0
0
0
0
0
0
0
0
0
0
0
0
0
0
0
0
0
0
0
0
0
0
0
0
0
0
0
0
0
0
0
0
0
0
0
0
0
0
0
0
0
0
0
0
0
0
0
0
0
0
0
0
0
0
0
0
0
0
0
0
0
0
0
0
0
0
0
0
0
0
0
0
0
0
0
0
0
0
0
0
0
0
0
0
0
0
0
0
0
0
0
0
0
0
0
0
0
0
0
0
0
0
0
0
0
0
0
0
0
0
0
0
0
0
0
0
0
0
0
0
0
0
0
0
0
0
0
0
0
0
0
0
0
0
0
0
0
0
0
0
0
0
0
0
0
0
0
0
0
0
0
0
0
0
0
0
0
0
0
0
0
0
0
0
0
0
0
0
0
0
0
0
0
0
0
0
0
0
0
0
0
0
0
0
0
0
0
0
0
0
0
0
0
0
0
0
0
0
0
0
0
0
0
0
0
0
0
0
0
0
0
0
0
0
0
0
0
0
0
0
0
0
0
0
0
0
0
0
0
0
0
0
0
0
0
0
0
0
0
0
0
0
0
0
0
0
0
0
0
0
0
0
0
0
0
0
0
0
0
0
0
0
0
0
0
0
0
0
0
0
0
0
0
0
0
0
0
0
0
0
0
0
0
0
0
0
0
0
0
0
0
0
0
0
0
0
0
0
0
0
0
0
0
0
0
0
0
0
0
0
0
0
0
0
0
0
0
0
0
0
0
0
0
0
0
0
0
0
0
0
0
0
0
0
0
0
0
0
0
0
0
0
0
0
0
0
0
0
0
0
0
0
0
0
0
0
0
0
0
0
0
0
0
0
0
0
0
0
0
0
0
0
0
0
0
0
0
0
0
0
0
0
0
0
0
0
0
0
0
0
0
0
0
0
0
0
0
0
0
0
0
0
0
0
0
0
0
0
0
0
0
0
0
0
0
0
0
0
0
0
0
0
0
0
0
0
0
0
0
0
0
0
0
0
0
0
0
0
0
0
0
0
0
0
0
0
0
0
0
0
0
0
0
0
0
0
0
0
0
0
0
0
0
0
0
0
0
0
0
0
0
0
0
0
0
0
0
0
0
0
0
0
0
0
0
0
0
0
0
0
0
0
0
0
0
0
0
0
0
0
0
0
0
0
0
0
0
0
0
