P3
72 72
255
255
255
0
255
255
0
255
255
0
255
255
0
255
255
0
255
255
0
255
255
0
255
255
0
255
255
0
255
255
0
255
255
0
255
255
0
255
255
0
255
255
0
255
255
0
255
255
0
255
255
0
255
255
0
255
255
0
255
255
0
255
255
0
255
255
0
255
255
0
255
255
0
255
255
0
234
244
0
131
219
0
134
224
0
142
226
0
142
225
0
143
222
0
142
236
0
141
242
0
142
238
0
137
241
0
136
235
0
207
234
0
222
241
0
211
239
0
212
241
0
205
235
0
218
232
0
228
241
0
225
239
0
225
240
0
216
233
0
241
243
0
255
255
0
255
255
0
255
255
0
255
255
0
255
255
0
255
255
0
255
255
0
255
255
0
255
255
0
255
255
0
255
255
0
255
255
0
255
255
0
255
255
0
255
255
0
255
255
0
255
255
0
255
255
0
255
255
0
255
255
0
255
255
0
255
255
0
255
255
0
255
255
0
255
255
0
255
255
0
255
255
0
255
255
0
255
255
0
255
255
0
255
255
0
255
255
0
255
255
0
255
255
0
255
255
0
255
255
0
255
255
0
255
255
0
255
255
0
255
255
0
255
255
0
255
255
0
255
255
0
255
255
0
255
255
0
255
255
0
255
255
0
255
255
0
255
255
0
255
255
0
211
236
0
0
209
0
0
218
0
0
218
0
0
217
0
0
211
0
0
243
0
0
254
0
0
250
0
0
253
0
0
243
0
169
242
0
210
253
0
173
251
0
179
253
0
170
244
0
201
240
0
225
252
0
217
251
0
219
252
0
204
243
0
232
240
0
255
255
0
255
255
0
255
255
0
255
255
0
255
255
0
255
255
0
255
255
0
255
255
0
255
255
0
255
255
0
255
255
0
255
255
0
255
255
0
255
255
0
255
255
0
255
255
0
255
255
0
255
255
0
255
255
0
255
255
0
255
255
0
255
255
0
255
255
0
255
255
0
255
255
0
255
255
0
255
255
0
255
255
0
255
255
0
255
255
0
255
255
0
255
255
0
255
255
0
255
255
0
255
255
0
255
255
0
255
255
0
255
255
0
255
255
0
255
255
0
255
255
0
255
255
0
255
255
0
255
255
0
255
255
0
255
255
0
255
255
0
255
255
0
255
255
0
255
255
0
218
239
0
0
215
0
0
226
0
0
225
0
0
224
0
0
217
0
0
246
0
0
255
0
0
255
0
0
255
0
1
247
0
180
245
0
219
255
0
187
255
0
192
255
0
182
249
0
208
244
0
229
255
0
222
255
0
224
255
0
211
247
0
234
242
0
255
255
0
255
255
0
255
255
0
255
255
0
255
255
0
255
255
0
255
255
0
255
255
0
255
255
0
255
255
0
255
255
0
255
255
0
255
255
0
255
255
0
255
255
0
255
255
0
255
255
0
255
255
0
255
255
0
255
255
0
255
255
0
255
255
0
255
255
0
255
255
0
255
255
0
255
255
0
255
255
0
255
255
0
255
255
0
255
255
0
255
255
0
255
255
0
255
255
0
255
255
0
255
255
0
255
255
0
255
255
0
255
255
0
255
255
0
255
255
0
255
255
0
255
255
0
255
255
0
255
255
0
255
255
0
255
255
0
255
255
0
255
255
0
255
255
0
255
255
0
217
240
0
0
215
0
0
225
0
1
224
0
1
223
0
2
217
0
2
245
0
2
255
0
2
255
0
0
255
0
5
247
0
180
245
0
218
255
0
187
255
0
192
255
0
182
248
0
207
244
0
229
255
0
222
255
0
224
255
0
210
246
0
235
243
0
255
255
0
255
255
0
255
255
0
255
255
0
255
255
0
255
255
0
255
255
0
255
255
0
255
255
0
255
255
0
255
255
0
255
255
0
255
255
0
255
255
0
255
255
0
255
255
0
255
255
0
255
255
0
255
255
0
255
255
0
255
255
0
255
255
0
255
255
0
255
255
0
255
255
0
255
255
0
255
255
0
255
255
0
255
255
0
255
255
0
255
255
0
255
255
0
255
255
0
255
255
0
255
255
0
255
255
0
255
255
0
255
255
0
255
255
0
255
255
0
255
255
0
255
255
0
255
255
0
255
255
0
255
255
0
255
255
0
255
255
0
255
255
0
255
255
0
255
255
0
229
241
0
1
213
0
0
222
0
3
223
0
2
222
0
2
216
0
2
244
0
2
255
0
1
253
0
0
254
0
4
244
0
179
242
0
217
255
0
186
253
0
191
254
0
181
246
0
206
242
0
227
254
0
220
253
0
222
254
0
208
245
0
233
241
0
255
255
0
255
254
0
255
253
0
255
254
0
255
255
0
254
255
0
254
255
0
253
255
0
253
255
0
255
255
0
255
254
0
255
255
0
255
255
0
255
255
0
255
255
0
255
255
0
255
255
0
255
255
0
255
255
0
255
255
0
255
255
0
255
255
0
255
255
0
255
255
0
255
255
0
255
255
0
255
255
0
255
255
0
255
255
0
255
255
0
255
255
0
255
255
0
255
255
0
255
255
0
255
255
0
255
255
0
255
255
0
255
255
0
255
255
0
255
255
0
225
233
0
153
188
0
166
198
0
171
201
0
165
195
0
168
197
0
196
231
0
196
231
0
192
228
0
212
232
0
167
216
0
0
203
0
0
213
0
2
212
0
2
211
0
1
204
0
2
234
0
2
248
0
1
241
0
0
245
0
3
231
0
168
230
0
206
245
0
176
240
0
181
244
0
173
233
0
195
227
0
214
243
0
208
241
0
210
244
0
198
232
0
221
228
0
244
243
0
236
239
0
237
241
0
235
239
0
236
229
0
241
229
0
239
230
0
241
230
0
237
224
0
244
240
0
255
255
0
255
255
0
255
255
0
255
255
0
255
255
0
255
255
0
255
255
0
255
255
0
255
255
0
255
255
0
255
255
0
255
255
0
255
255
0
255
255
0
255
255
0
255
255
0
255
255
0
255
255
0
255
255
0
255
255
0
255
255
0
255
255
0
255
255
0
255
255
0
255
255
0
255
255
0
255
255
0
255
255
0
255
255
0
255
255
0
178
202
0
0
92
0
17
113
0
28
119
0
13
102
0
25
115
0
109
218
0
106
217
0
96
207
0
122
213
0
95
205
0
0
215
0
0
225
0
1
221
0
1
220
0
2
215
0
2
243
0
2
254
0
2
251
0
0
252
0
5
243
0
177
242
0
216
252
0
185
251
0
190
252
0
180
244
0
205
240
0
226
252
0
219
251
0
221
252
0
208
243
0
229
239
0
249
251
0
238
250
0
242
252
0
233
245
0
233
208
0
251
210
0
250
215
0
251
215
0
248
205
0
238
227
0
253
255
0
255
255
0
255
255
0
255
255
0
255
255
0
255
255
0
255
255
0
255
255
0
255
255
0
255
255
0
255
255
0
255
255
0
255
255
0
255
255
0
255
255
0
255
255
0
255
255
0
255
255
0
255
255
0
255
255
0
255
255
0
255
255
0
255
255
0
255
255
0
255
255
0
255
255
0
255
255
0
255
255
0
255
255
0
255
255
0
188
210
0
31
120
0
55
138
0
63
143
0
52
129
0
60
137
0
132
227
0
131
228
0
122
220
0
145
224
0
115
212
0
0
217
0
0
227
0
1
225
0
1
223
0
2
217
0
2
245
0
2
255
0
2
255
0
0
255
0
5
247
0
180
246
0
219
255
0
187
255
0
191
255
0
182
249
0
208
244
0
230
255
0
223
255
0
225
255
0
210
247
0
232
242
0
255
255
0
245
255
0
248
255
0
239
251
0
240
218
0
255
221
0
255
225
0
255
225
0
255
217
0
242
232
0
252
255
0
255
255
0
255
255
0
255
255
0
255
255
0
255
255
0
255
255
0
255
255
0
255
255
0
255
255
0
255
255
0
255
255
0
255
255
0
255
255
0
255
255
0
255
255
0
255
255
0
255
255
0
255
255
0
255
255
0
255
255
0
255
255
0
255
255
0
255
255
0
255
255
0
255
255
0
255
255
0
255
255
0
255
255
0
255
255
0
188
210
0
36
122
0
59
140
0
67
144
0
57
132
0
64
139
0
133
224
0
134
227
0
124
219
0
147
224
0
116
211
0
0
215
0
0
226
0
1
223
0
1
222
0
2
216
0
2
244
0
2
255
0
2
255
0
0
255
0
5
246
0
179
244
0
216
255
0
186
255
0
190
255
0
181
248
0
207
242
0
228
255
0
221
255
0
223
255
0
209
245
0
231
240
0
253
255
0
243
255
0
246
255
0
238
251
0
239
217
0
255
220
0
255
224
0
255
223
0
253
215
0
242
232
0
253
255
0
255
255
0
255
255
0
255
255
0
255
255
0
255
255
0
255
255
0
255
255
0
255
255
0
255
255
0
255
255
0
255
255
0
255
255
0
255
255
0
255
255
0
255
255
0
255
255
0
255
255
0
255
255
0
255
255
0
255
255
0
255
255
0
255
255
0
255
255
0
255
255
0
255
255
0
255
255
0
255
255
0
255
255
0
255
255
0
214
238
0
32
120
0
58
139
0
68
146
0
56
132
0
63
140
0
134
228
0
134
231
0
125
223
0
149
228
0
118
215
0
0
219
0
0
229
0
1
226
0
1
225
0
2
219
0
2
246
0
2
255
0
2
254
0
0
255
0
5
248
0
182
247
0
221
255
0
190
255
0
194
255
0
183
248
0
210
246
0
231
255
0
224
255
0
227
255
0
214
248
0
233
244
0
254
255
0
247
255
0
250
255
0
243
252
0
242
221
0
255
223
0
255
228
0
255
228
0
253
218
0
246
242
0
255
255
0
255
255
0
255
255
0
255
255
0
255
255
0
255
255
0
255
255
0
255
255
0
255
255
0
255
255
0
255
255
0
255
255
0
255
255
0
255
255
0
255
255
0
255
255
0
255
255
0
255
255
0
255
255
0
255
255
0
255
255
0
255
255
0
255
255
0
255
255
0
255
255
0
216
217
0
153
154
0
164
164
0
165
165
0
175
167
0
130
149
0
43
128
0
56
134
0
61
137
0
50
123
0
58
130
0
127
215
0
126
216
0
117
208
0
140
213
0
110
200
0
0
205
0
0
216
0
1
213
0
1
212
0
2
205
0
2
234
0
2
247
0
1
241
0
0
244
0
4
232
0
171
231
0
207
245
0
177
241
0
183
244
0
173
235
0
196
231
0
216
242
0
210
241
0
212
243
0
199
233
0
219
229
0
241
243
0
232
241
0
236
244
0
228
239
0
228
206
0
244
209
0
241
213
0
243
213
0
240
212
0
228
207
0
238
217
0
241
218
0
242
217
0
235
209
0
242
236
0
255
255
0
255
255
0
255
255
0
255
255
0
255
255
0
255
255
0
255
255
0
255
255
0
255
255
0
255
255
0
255
255
0
255
255
0
255
255
0
255
255
0
255
255
0
255
255
0
255
255
0
255
255
0
255
255
0
255
255
0
146
145
0
0
0
0
0
0
0
0
0
0
0
0
0
0
19
0
71
158
0
66
146
0
63
139
0
53
128
0
62
135
0
131
222
0
130
224
0
121
215
0
144
219
0
114
206
0
0
210
0
0
220
0
1
217
0
1
217
0
2
212
0
2
241
0
2
252
0
1
248
0
0
250
0
4
240
0
175
238
0
213
250
0
182
247
0
188
249
0
179
241
0
204
237
0
223
249
0
216
247
0
218
249
0
206
241
0
225
237
0
248
249
0
239
247
0
243
250
0
236
245
0
236
214
0
250
216
0
247
220
0
248
221
0
245
229
0
235
176
0
244
158
0
247
171
0
248
169
0
239
149
0
235
211
0
254
255
0
255
255
0
255
255
0
255
255
0
255
255
0
255
255
0
255
255
0
255
255
0
255
255
0
255
255
0
255
255
0
255
255
0
255
255
0
255
255
0
255
255
0
255
255
0
255
255
0
255
255
0
255
255
0
255
255
0
161
160
0
0
0
0
0
0
0
0
0
0
0
0
0
15
36
0
75
161
0
69
150
0
67
144
0
58
133
0
65
140
0
135
228
0
135
231
0
125
222
0
149
227
0
118
215
0
0
220
0
0
228
0
1
225
0
1
225
0
2
219
0
2
247
0
2
255
0
2
255
0
0
255
0
5
249
0
182
247
0
221
255
0
189
255
0
194
255
0
184
249
0
210
245
0
231
255
0
224
255
0
226
255
0
213
249
0
234
244
0
255
255
0
246
255
0
250
255
0
242
252
0
243
221
0
255
223
0
255
227
0
255
228
0
254
236
0
246
190
0
255
176
0
255
187
0
255
185
0
252
169
0
240
218
0
254
255
0
255
255
0
255
255
0
255
255
0
255
255
0
255
255
0
255
255
0
255
255
0
255
255
0
255
255
0
255
255
0
255
255
0
255
255
0
255
255
0
255
255
0
255
255
0
255
255
0
255
255
0
255
255
0
255
255
0
162
160
0
0
0
0
0
0
0
6
1
0
0
0
0
19
39
0
71
157
0
67
148
0
65
142
0
56
132
0
63
139
0
135
224
0
137
228
0
126
220
0
150
224
0
119
213
0
0
217
0
0
226
0
1
224
0
1
223
0
1
217
0
1
244
0
2
255
0
2
255
0
0
255
0
5
245
0
180
245
0
217
255
0
186
255
0
190
255
0
181
248
0
207
242
0
228
255
0
221
255
0
223
255
0
209
245
0
231
240
0
254
255
0
243
255
0
246
255
0
238
250
0
240
218
0
255
220
0
255
225
0
255
225
0
253
232
0
243
190
0
254
178
0
255
189
0
255
187
0
249
171
0
240
217
0
255
255
0
255
255
0
255
255
0
255
255
0
255
255
0
255
255
0
255
255
0
255
255
0
255
255
0
255
255
0
255
255
0
255
255
0
255
255
0
255
255
0
255
255
0
255
255
0
255
255
0
255
255
0
255
255
0
255
255
0
161
180
0
0
0
0
0
0
0
7
1
0
0
0
0
19
38
0
73
158
0
67
149
0
65
142
0
58
131
0
62
138
0
111
222
0
108
223
0
101
214
0
125
219
0
91
206
0
0
213
0
0
223
0
0
220
0
0
219
0
0
213
0
1
246
0
4
255
0
3
255
0
0
255
0
5
247
0
180
245
0
219
255
0
187
254
0
192
255
0
183
247
0
209
244
0
230
255
0
223
254
0
225
255
0
211
246
0
232
243
0
254
255
0
245
254
0
248
255
0
241
251
0
241
214
0
255
214
0
254
221
0
255
221
0
252
230
0
243
177
0
253
161
0
255
176
0
255
172
0
248
153
0
240
227
0
255
255
0
255
255
0
255
255
0
255
255
0
255
255
0
255
255
0
255
255
0
255
255
0
255
255
0
255
255
0
255
255
0
255
255
0
255
255
0
255
255
0
255
255
0
242
226
0
230
177
0
235
184
0
233
184
0
255
196
0
150
121
0
0
0
0
0
0
0
6
1
0
0
0
0
17
37
0
67
150
0
61
139
0
61
135
0
45
122
0
59
130
0
146
219
0
145
222
0
134
212
0
151
217
0
128
204
0
60
210
0
60
220
0
60
217
0
70
217
0
56
210
0
5
233
0
1
246
0
1
241
0
0
245
0
4
231
0
169
230
0
207
245
0
176
239
0
182
244
0
172
235
0
196
230
0
215
244
0
208
240
0
211
244
0
199
232
0
218
229
0
240
244
0
232
240
0
234
245
0
229
238
0
226
209
0
243
213
0
240
216
0
242
217
0
239
222
0
227
186
0
239
177
0
242
185
0
243
184
0
235
179
0
225
195
0
242
207
0
241
211
0
241
211
0
238
202
0
244
234
0
255
255
0
255
255
0
255
255
0
255
255
0
255
255
0
255
255
0
255
255
0
255
255
0
255
255
0
255
255
0
223
144
0
203
0
0
217
0
0
212
0
0
255
0
0
145
0
0
0
0
0
1
1
0
6
1
0
0
0
0
19
38
0
72
157
0
66
146
0
68
142
0
35
125
0
70
138
0
255
246
0
255
255
0
255
250
0
255
251
0
255
244
0
255
247
0
255
251
0
255
250
0
255
251
0
227
243
0
17
241
0
0
249
0
2
248
0
0
250
0
5
241
0
178
240
0
215
250
0
184
248
0
189
250
0
179
242
0
205
239
0
225
250
0
218
248
0
220
250
0
207
242
0
228
238
0
249
250
0
240
248
0
244
250
0
237
243
0
236
241
0
250
251
0
249
250
0
249
250
0
246
248
0
239
247
0
249
254
0
249
253
0
249
254
0
246
255
0
235
145
0
248
56
0
249
88
0
249
85
0
242
51
0
238
179
0
255
255
0
255
255
0
255
255
0
255
255
0
255
255
0
255
255
0
255
255
0
255
255
0
255
255
0
255
255
0
230
155
0
213
0
0
226
0
0
221
0
0
255
0
0
151
0
0
0
0
0
1
1
0
6
1
0
0
0
0
19
39
0
72
159
0
67
149
0
68
143
0
39
129
0
68
140
0
251
249
0
255
255
0
255
255
0
255
255
0
250
245
0
255
250
0
255
255
0
255
255
0
255
255
0
225
248
0
13
246
0
0
255
0
2
255
0
0
255
0
5
248
0
181
246
0
219
255
0
188
255
0
192
255
0
183
249
0
209
245
0
230
255
0
223
255
0
225
255
0
211
248
0
234
243
0
255
255
0
245
255
0
249
255
0
242
249
0
242
244
0
255
255
0
255
255
0
255
255
0
254
255
0
245
247
0
255
255
0
255
255
0
255
255
0
253
255
0
241
156
0
255
72
0
255
105
0
255
102
0
251
71
0
243
187
0
255
255
0
255
255
0
255
255
0
255
255
0
255
255
0
255
255
0
255
255
0
255
255
0
255
255
0
255
255
0
230
161
0
212
0
0
224
0
0
220
0
0
255
0
0
151
0
0
0
0
0
1
1
0
6
1
0
0
0
0
20
39
0
77
160
0
72
151
0
72
145
0
45
131
0
71
141
0
245
246
0
255
255
0
255
255
0
255
255
0
240
240
0
244
245
0
255
255
0
255
255
0
255
255
0
217
245
0
12
243
0
0
255
0
2
255
0
0
255
0
3
244
0
177
243
0
217
255
0
186
255
0
189
255
0
181
247
0
206
242
0
227
255
0
220
255
0
222
255
0
208
245
0
231
240
0
252
255
0
242
255
0
246
255
0
239
247
0
238
239
0
255
255
0
255
255
0
255
255
0
252
252
0
241
241
0
254
254
0
255
255
0
255
255
0
250
255
0
237
162
0
253
87
0
255
116
0
255
115
0
249
85
0
242
191
0
255
255
0
255
255
0
255
255
0
255
255
0
255
255
0
255
255
0
255
255
0
255
255
0
255
255
0
255
255
0
231
160
0
217
0
0
229
0
0
225
0
0
255
0
0
152
0
0
0
0
0
1
1
0
6
1
0
0
0
0
10
34
0
38
141
0
31
128
0
34
124
0
0
103
0
40
122
0
250
250
0
255
255
0
255
255
0
255
255
0
245
245
0
249
249
0
255
255
0
255
255
0
255
255
0
211
248
0
0
248
0
0
255
0
0
255
0
0
255
0
0
249
0
181
247
0
226
255
0
189
255
0
194
255
0
184
249
0
211
246
0
232
255
0
225
255
0
227
255
0
214
249
0
233
245
0
254
255
0
245
255
0
248
255
0
241
250
0
243
245
0
255
255
0
255
255
0
255
255
0
253
253
0
247
247
0
255
255
0
255
255
0
255
255
0
254
255
0
243
147
0
254
50
0
255
86
0
255
82
0
252
49
0
244
181
0
255
255
0
255
255
0
255
255
0
255
255
0
255
255
0
255
255
0
255
255
0
255
255
0
255
255
0
255
255
0
227
160
0
201
0
0
215
0
0
210
0
0
252
0
0
144
1
0
0
0
0
1
1
0
6
1
0
0
0
0
23
40
0
96
171
0
88
159
0
88
152
0
61
137
0
90
144
0
239
238
0
249
248
0
242
242
0
244
244
0
231
231
0
235
235
0
244
244
0
241
242
0
252
244
0
209
234
0
51
232
0
47
243
0
53
242
0
51
245
0
49
234
0
171
234
0
204
245
0
179
241
0
183
245
0
174
236
0
199
232
0
217
245
0
211
242
0
213
244
0
201
234
0
222
230
0
244
242
0
235
241
0
238
243
0
230
235
0
229
231
0
244
243
0
242
242
0
243
243
0
241
241
0
231
231
0
240
240
0
242
242
0
244
244
0
238
250
0
227
160
0
242
99
0
242
125
0
243
122
0
235
94
0
237
194
0
255
255
0
255
255
0
255
255
0
255
255
0
255
255
0
255
255
0
255
255
0
255
255
0
255
255
0
255
255
0
228
160
0
202
0
0
216
0
0
211
2
0
252
2
0
145
2
0
0
1
0
1
1
0
5
0
0
0
0
0
69
65
0
255
255
0
255
255
0
255
255
0
255
255
0
248
243
0
242
240
0
247
247
0
245
245
0
246
246
0
232
232
0
237
237
0
247
247
0
245
245
0
248
247
0
245
236
0
248
234
0
251
247
0
255
245
0
255
248
0
245
235
0
184
235
0
177
248
0
186
244
0
186
248
0
176
238
0
199
233
0
218
247
0
212
244
0
213
247
0
201
236
0
227
233
0
250
246
0
246
244
0
248
246
0
239
238
0
232
233
0
246
246
0
245
245
0
246
246
0
243
243
0
233
233
0
244
244
0
246
246
0
247
247
0
237
241
0
227
240
0
246
255
0
246
255
0
247
255
0
238
252
0
238
245
0
255
255
0
255
255
0
255
255
0
255
255
0
255
255
0
255
255
0
255
255
0
255
255
0
255
255
0
255
255
0
231
160
0
216
0
0
229
0
0
224
1
0
255
1
0
151
0
0
0
0
0
1
1
0
5
0
0
0
0
0
69
67
0
255
255
0
255
255
0
255
255
0
255
255
0
252
250
0
250
250
0
255
255
0
255
255
0
255
255
0
244
244
0
249
249
0
255
255
0
255
255
0
255
255
0
250
247
0
255
247
0
255
255
0
255
255
0
255
255
0
255
248
0
191
246
0
186
255
0
194
255
0
194
255
0
184
249
0
209
245
0
231
255
0
224
255
0
225
255
0
212
249
0
236
245
0
255
255
0
255
255
0
255
255
0
250
250
0
244
245
0
255
255
0
255
255
0
255
255
0
254
254
0
246
246
0
255
255
0
255
255
0
255
255
0
250
249
0
243
247
0
255
255
0
255
255
0
255
255
0
252
255
0
243
246
0
255
255
0
255
255
0
255
255
0
255
255
0
255
255
0
255
255
0
255
255
0
255
255
0
255
255
0
255
255
0
230
160
0
212
0
0
225
0
0
220
0
0
255
0
0
151
0
0
0
0
0
1
1
0
5
1
0
0
0
0
67
66
0
255
255
0
255
255
0
255
255
0
255
255
0
240
241
0
248
248
0
255
255
0
255
255
0
255
255
0
240
240
0
244
244
0
255
255
0
255
255
0
255
255
0
243
244
0
242
243
0
255
255
0
255
255
0
255
255
0
244
244
0
184
243
0
185
255
0
191
255
0
190
255
0
181
247
0
206
243
0
228
255
0
221
255
0
223
255
0
209
245
0
233
241
0
255
255
0
255
255
0
255
255
0
247
247
0
241
241
0
255
255
0
255
255
0
255
255
0
252
252
0
240
240
0
254
254
0
255
255
0
255
255
0
248
248
0
237
236
0
255
255
0
255
255
0
255
255
0
249
248
0
241
240
0
255
255
0
255
255
0
255
255
0
255
255
0
255
255
0
255
255
0
255
255
0
255
255
0
255
255
0
255
255
0
231
160
0
217
0
0
229
0
0
225
0
0
255
0
0
153
0
0
0
0
0
0
1
0
5
1
0
0
0
0
68
67
0
255
255
0
255
255
0
255
255
0
255
255
0
245
245
0
250
250
0
255
255
0
255
255
0
254
254
0
249
249
0
255
255
0
255
255
0
255
255
0
255
255
0
255
255
0
255
255
0
255
255
0
255
255
0
255
255
0
255
255
0
190
251
0
185
254
0
194
255
0
194
255
0
185
249
0
211
246
0
232
255
0
225
255
0
227
255
0
214
249
0
237
245
0
255
255
0
255
255
0
255
255
0
249
250
0
246
246
0
255
255
0
255
255
0
255
255
0
253
253
0
255
255
0
255
255
0
255
255
0
255
255
0
255
255
0
255
255
0
255
255
0
255
255
0
255
255
0
255
255
0
255
255
0
254
255
0
255
255
0
255
255
0
255
255
0
255
255
0
255
255
0
255
255
0
255
255
0
255
255
0
255
255
0
227
160
0
201
0
0
215
0
0
210
2
0
253
2
0
144
2
0
0
1
0
0
1
0
5
1
0
0
0
0
63
63
0
255
255
0
252
252
0
241
241
0
242
242
0
229
229
0
236
236
0
243
243
0
240
240
0
250
250
0
233
233
0
197
197
0
196
196
0
200
200
0
201
201
0
201
201
0
201
201
0
201
201
0
201
201
0
199
195
0
195
196
0
180
236
0
182
250
0
182
240
0
183
244
0
173
235
0
197
230
0
216
244
0
210
241
0
211
244
0
198
233
0
223
231
0
248
244
0
240
241
0
244
244
0
236
236
0
229
229
0
243
243
0
241
241
0
246
246
0
248
248
0
209
209
0
189
189
0
201
201
0
201
201
0
201
201
0
201
201
0
201
201
0
200
200
0
198
200
0
190
196
0
226
213
0
250
222
0
240
219
0
241
217
0
238
210
0
243
237
0
255
255
0
255
255
0
255
255
0
255
255
0
255
255
0
229
160
0
206
0
0
219
0
0
214
1
0
254
1
0
147
1
0
0
1
0
1
1
0
6
1
0
0
0
0
65
64
0
255
255
0
254
253
0
246
246
0
247
247
0
236
236
0
241
241
0
248
248
0
245
245
0
255
255
0
208
208
0
0
0
0
0
0
0
2
2
0
2
2
0
2
2
0
2
2
0
3
3
0
3
3
0
0
0
0
1
9
0
176
214
0
215
255
0
182
246
0
188
248
0
177
240
0
203
236
0
222
248
0
216
246
0
217
248
0
204
239
0
228
236
0
251
248
0
246
246
0
248
248
0
241
241
0
236
236
0
247
247
0
246
246
0
253
253
0
250
250
0
47
47
0
0
0
0
3
3
0
2
2
0
2
2
0
2
2
0
3
3
0
2
2
0
0
1
0
0
0
0
147
42
0
255
82
0
246
65
0
247
65
0
242
32
0
233
159
0
255
255
0
255
255
0
255
255
0
255
255
0
255
255
0
231
160
0
216
0
0
229
0
0
224
0
0
255
0
0
152
0
0
0
0
0
1
1
0
6
1
0
0
0
0
68
67
0
255
255
0
255
255
0
255
255
0
255
255
0
245
245
0
251
251
0
255
255
0
255
255
0
255
255
0
217
217
0
0
0
0
0
0
0
0
0
0
0
0
0
0
0
0
0
0
0
0
0
0
0
0
0
0
0
0
0
3
0
182
219
0
223
255
0
189
255
0
193
255
0
184
250
0
210
246
0
232
255
0
224
255
0
227
255
0
213
249
0
237
245
0
255
255
0
255
255
0
255
255
0
251
251
0
246
246
0
255
255
0
255
255
0
255
255
0
255
255
0
50
50
0
0
0
0
0
0
0
0
0
0
0
0
0
0
0
0
0
0
0
0
0
0
0
0
0
0
0
0
152
45
0
255
89
0
255
69
0
255
70
0
254
38
0
241
162
0
255
255
0
255
255
0
255
255
0
255
255
0
255
255
0
228
157
0
211
0
0
224
0
0
219
0
0
255
0
0
150
0
0
0
0
0
1
1
0
6
1
0
0
0
0
67
66
0
255
255
0
255
255
0
255
255
0
255
255
0
240
240
0
248
248
0
255
255
0
255
255
0
255
255
0
218
218
0
1
1
0
0
0
0
0
0
0
0
0
0
0
0
0
0
0
0
0
0
0
0
0
0
0
0
0
5
13
0
178
218
0
216
255
0
185
255
0
189
255
0
180
247
0
206
241
0
227
255
0
220
255
0
222
255
0
208
244
0
233
240
0
255
255
0
255
255
0
255
255
0
247
247
0
240
240
0
255
255
0
255
255
0
255
255
0
255
255
0
65
65
0
0
0
0
0
0
0
0
0
0
0
0
0
0
0
0
0
0
0
0
0
0
0
0
0
0
0
0
161
62
0
255
103
0
255
86
0
255
86
0
252
57
0
239
170
0
255
255
0
255
255
0
255
255
0
255
255
0
255
255
0
242
174
0
214
0
0
229
0
0
224
0
0
255
0
0
153
0
0
0
0
0
1
1
0
5
1
0
0
0
0
68
67
0
255
255
0
255
255
0
255
255
0
255
255
0
245
245
0
251
251
0
255
255
0
255
255
0
255
255
0
220
220
0
0
0
0
0
0
0
0
0
0
0
0
0
0
0
0
0
0
0
0
0
0
0
0
0
0
0
0
5
14
0
182
220
0
221
255
0
189
255
0
194
255
0
184
250
0
209
246
0
232
255
0
225
255
0
227
255
0
213
249
0
237
245
0
255
255
0
255
255
0
255
255
0
250
250
0
246
246
0
255
255
0
255
255
0
255
255
0
255
255
0
66
66
0
0
0
0
0
0
0
0
0
0
0
0
0
0
0
0
0
0
0
0
0
0
0
0
0
0
0
0
161
61
0
255
103
0
255
84
0
255
86
0
254
56
0
243
169
0
241
237
0
229
214
0
234
224
0
234
224
0
231
234
0
219
146
0
212
0
0
219
0
0
215
0
0
254
0
0
146
1
0
0
0
0
0
1
0
4
1
0
0
0
0
65
64
0
255
255
0
253
253
0
245
245
0
246
246
0
235
235
0
240
240
0
247
247
0
244
244
0
255
255
0
214
214
0
1
1
0
0
0
0
0
0
0
0
0
0
0
0
0
0
0
0
0
0
0
0
0
0
0
0
0
5
11
0
174
216
0
212
255
0
181
244
0
186
247
0
176
239
0
202
235
0
222
247
0
215
245
0
218
247
0
203
238
0
227
236
0
250
247
0
245
245
0
247
247
0
240
240
0
236
236
0
247
247
0
245
245
0
253
253
0
255
255
0
62
62
0
0
0
0
0
0
0
0
0
0
0
0
0
0
0
0
0
0
0
0
0
0
0
0
0
0
0
0
158
58
0
255
98
0
246
80
0
247
81
0
242
51
0
238
168
0
172
139
0
93
10
0
115
22
0
117
24
0
93
31
0
137
13
0
230
0
0
216
1
0
210
2
0
253
2
0
145
1
0
0
1
0
0
1
0
6
0
0
0
0
0
63
63
0
255
255
0
253
253
0
244
244
0
245
245
0
231
231
0
238
238
0
246
246
0
242
242
0
255
255
0
212
212
0
0
0
0
0
0
0
0
0
0
0
0
0
0
0
0
0
0
0
0
0
0
0
0
0
0
0
0
5
10
0
172
214
0
209
255
0
179
241
0
183
246
0
175
237
0
199
232
0
217
246
0
211
244
0
212
246
0
200
235
0
225
232
0
250
246
0
244
244
0
246
246
0
237
237
0
230
230
0
245
245
0
244
244
0
253
253
0
255
255
0
61
61
0
0
0
0
0
0
0
0
0
0
0
0
0
0
0
0
0
0
0
0
0
0
0
0
0
0
0
0
159
57
0
255
95
0
244
80
0
246
80
0
240
50
0
231
168
0
175
133
0
92
0
0
115
0
0
117
0
0
92
0
0
144
0
0
246
0
0
228
1
0
223
1
0
255
1
0
152
1
0
0
1
0
1
1
0
5
0
0
0
0
0
67
66
0
255
255
0
255
255
0
255
255
0
255
255
0
245
245
0
250
250
0
255
255
0
255
255
0
255
255
0
219
219
0
1
1
0
0
0
0
0
0
0
0
0
0
0
0
0
0
0
0
0
0
0
0
0
0
0
0
0
5
12
0
181
218
0
221
255
0
190
255
0
195
255
0
184
250
0
209
246
0
231
255
0
224
255
0
225
255
0
212
248
0
237
244
0
255
255
0
255
255
0
255
255
0
250
250
0
244
244
0
255
255
0
255
255
0
255
255
0
255
255
0
65
65
0
0
0
0
0
0
0
0
0
0
0
0
0
0
0
0
0
0
0
0
0
0
0
0
0
0
0
0
161
61
0
255
102
0
255
85
0
255
86
0
254
55
0
240
169
0
184
144
0
103
0
0
125
11
0
127
15
0
106
17
0
148
10
0
238
0
0
225
0
0
220
0
0
255
0
0
150
0
0
0
0
0
1
1
0
5
1
0
0
0
0
66
66
0
255
255
0
255
255
0
255
255
0
255
255
0
239
239
0
247
248
0
255
255
0
255
255
0
255
255
0
218
219
0
1
1
0
0
0
0
0
0
0
0
0
0
0
0
0
0
0
0
0
0
0
0
0
0
0
0
0
5
13
0
178
218
0
217
255
0
186
255
0
190
255
0
181
247
0
206
242
0
228
255
0
221
255
0
222
255
0
209
245
0
234
241
0
255
255
0
255
255
0
255
255
0
247
248
0
241
241
0
255
255
0
255
255
0
255
255
0
255
255
0
65
65
0
0
0
0
0
0
0
0
0
0
0
0
0
0
0
0
0
0
0
0
0
0
0
0
0
0
0
0
160
60
0
255
100
0
255
83
0
255
84
0
253
54
0
241
168
0
184
143
0
104
0
0
125
11
0
127
14
0
105
17
0
148
9
0
242
0
0
229
0
0
224
0
0
255
0
0
152
0
0
0
0
0
1
1
0
5
1
0
0
0
0
72
68
0
255
255
0
255
255
0
255
255
0
255
255
0
255
254
0
255
253
0
255
255
0
255
255
0
255
255
0
225
218
0
0
0
0
0
0
0
0
0
0
0
0
0
0
0
0
0
0
0
0
0
0
0
0
0
0
0
0
6
0
0
182
218
0
221
255
0
189
255
0
194
255
0
184
249
0
210
245
0
232
255
0
224
255
0
226
255
0
213
249
0
237
245
0
255
255
0
255
255
0
255
255
0
250
250
0
246
246
0
255
255
0
255
255
0
255
255
0
255
255
0
46
46
0
0
0
0
0
0
0
0
0
0
0
0
0
0
0
0
0
0
0
0
0
0
0
0
0
0
0
0
154
59
0
255
104
0
255
84
0
255
85
0
254
56
0
241
170
0
180
143
0
99
0
0
121
9
0
123
11
0
101
15
0
139
8
0
229
0
0
216
2
0
210
2
0
252
2
0
145
1
0
0
1
0
1
1
0
5
1
0
0
0
0
65
63
0
245
247
0
244
245
0
241
241
0
241
241
0
235
234
0
240
238
0
242
243
0
240
241
0
250
254
0
201
203
0
11
10
0
9
8
0
9
10
0
14
9
0
11
7
0
2
6
0
0
9
0
1
10
0
0
5
0
6
15
0
172
212
0
210
254
0
178
240
0
183
244
0
172
236
0
198
232
0
218
244
0
211
241
0
213
244
0
200
235
0
223
232
0
246
244
0
240
242
0
243
245
0
237
237
0
231
231
0
243
243
0
241
241
0
250
250
0
249
249
0
58
58
0
2
2
0
11
11
0
10
11
0
8
12
0
6
2
0
11
1
0
10
2
0
11
2
0
3
0
0
153
56
0
254
96
0
243
80
0
243
80
0
240
51
0
234
169
0
180
143
0
98
0
0
122
9
0
124
12
0
100
15
0
140
9
0
232
0
0
218
1
0
212
1
0
253
1
0
144
2
0
0
2
0
1
1
0
6
1
0
0
0
0
17
37
0
74
157
0
67
144
0
65
138
0
54
126
0
60
132
0
129
219
0
129
219
0
124
210
0
114
218
0
128
208
0
222
220
0
225
224
0
224
225
0
232
224
0
197
220
0
17
218
0
0
224
0
2
225
0
0
220
0
6
216
0
174
240
0
209
250
0
179
240
0
184
244
0
174
237
0
200
233
0
219
244
0
211
242
0
214
244
0
202
235
0
221
232
0
244
244
0
234
241
0
238
244
0
232
237
0
231
231
0
244
243
0
242
242
0
246
246
0
247
247
0
228
228
0
219
219
0
226
226
0
225
226
0
221
227
0
218
136
0
224
83
0
225
105
0
226
104
0
216
104
0
231
83
0
250
77
0
242
82
0
244
80
0
240
50
0
234
168
0
184
143
0
103
0
0
126
11
0
128
15
0
105
16
0
149
9
0
243
0
0
229
0
0
224
0
0
255
0
0
152
0
0
0
0
0
1
1
0
6
1
0
0
0
0
13
36
0
50
148
0
45
137
0
45
132
0
32
119
0
42
129
0
121
227
0
119
228
0
117
219
0
95
215
0
121
218
0
255
255
0
255
255
0
255
255
0
255
255
0
237
255
0
16
255
0
0
255
0
2
255
0
0
255
0
6
255
0
183
251
0
221
255
0
189
255
0
193
255
0
184
250
0
210
246
0
231
255
0
224
255
0
226
255
0
213
248
0
234
244
0
255
255
0
246
255
0
249
255
0
244
250
0
245
245
0
255
255
0
255
255
0
255
255
0
250
250
0
255
255
0
255
255
0
255
255
0
255
255
0
255
255
0
255
164
0
255
96
0
255
125
0
255
125
0
255
127
0
255
92
0
255
78
0
255
87
0
255
86
0
254
55
0
241
169
0
183
143
0
102
0
0
124
10
0
126
14
0
105
16
0
146
9
0
238
0
0
225
0
0
219
0
0
255
0
0
150
0
0
0
0
0
1
1
0
6
1
0
0
0
0
20
40
0
75
159
0
71
150
0
68
144
0
60
133
0
66
140
0
135
225
0
134
227
0
130
219
0
116
218
0
127
212
0
247
247
0
255
255
0
255
255
0
255
255
0
214
243
0
10
241
0
0
255
0
2
255
0
0
255
0
5
244
0
179
244
0
217
255
0
186
255
0
189
255
0
181
247
0
207
242
0
227
255
0
220
255
0
222
255
0
208
245
0
231
239
0
253
255
0
241
255
0
245
255
0
241
247
0
241
240
0
255
255
0
255
255
0
255
255
0
248
247
0
241
241
0
255
255
0
255
255
0
255
255
0
249
255
0
238
142
0
255
82
0
255
109
0
255
108
0
249
109
0
241
86
0
255
79
0
255
85
0
255
84
0
253
54
0
240
169
0
184
143
0
104
0
0
126
10
0
128
13
0
106
15
0
148
9
0
243
0
0
229
1
0
224
1
0
255
1
0
152
1
0
0
1
0
1
1
0
6
1
0
0
0
0
19
39
0
72
160
0
67
150
0
65
143
0
56
132
0
64
140
0
135
228
0
135
230
0
131
223
0
111
221
0
131
215
0
255
252
0
255
255
0
255
255
0
255
255
0
233
250
0
13
246
0
0
255
0
1
255
0
0
255
0
5
248
0
182
246
0
220
255
0
189
255
0
194
255
0
184
250
0
208
246
0
230
255
0
223
255
0
225
255
0
213
248
0
234
244
0
255
255
0
248
255
0
251
255
0
244
248
0
244
246
0
255
255
0
255
255
0
255
255
0
250
252
0
245
250
0
255
255
0
255
255
0
255
255
0
251
255
0
242
149
0
255
85
0
255
113
0
255
112
0
251
115
0
245
88
0
255
81
0
255
86
0
255
85
0
253
55
0
240
170
0
181
143
0
97
0
0
120
10
0
122
11
0
99
15
0
140
9
0
229
0
0
215
1
0
210
1
0
253
1
0
145
2
0
0
1
0
1
1
0
6
1
0
0
0
0
17
37
0
68
151
0
61
141
0
60
135
0
51
124
0
60
131
0
128
216
0
125
218
0
122
210
0
107
209
0
126
204
0
226
237
0
229
246
0
226
244
0
236
246
0
202
235
0
17
234
0
0
245
0
1
243
0
0
246
0
3
233
0
170
233
0
209
247
0
179
242
0
184
246
0
174
237
0
198
232
0
217
245
0
211
244
0
213
246
0
200
235
0
220
232
0
243
245
0
235
242
0
238
246
0
231
237
0
230
231
0
246
245
0
243
244
0
246
245
0
236
239
0
230
233
0
246
243
0
243
242
0
246
245
0
238
251
0
228
137
0
244
80
0
245
107
0
246
106
0
239
108
0
230
84
0
244
76
0
244
81
0
246
80
0
240
49
0
233
167
0
181
143
0
97
0
0
121
11
0
123
14
0
101
16
0
143
10
0
234
0
0
220
0
0
214
0
0
254
0
0
146
0
0
0
0
0
0
1
0
6
1
0
0
0
0
18
38
0
71
155
0
65
144
0
63
139
0
53
128
0
61
135
0
131
220
0
130
222
0
121
213
0
143
217
0
111
205
0
23
211
0
25
221
0
24
217
0
31
217
0
25
211
0
3
237
0
1
248
0
2
245
0
0
248
0
3
239
0
174
238
0
214
249
0
182
244
0
187
248
0
177
240
0
203
236
0
222
247
0
216
246
0
218
248
0
205
239
0
225
235
0
246
247
0
237
245
0
241
248
0
234
243
0
233
211
0
248
214
0
246
218
0
247
220
0
244
226
0
236
181
0
247
171
0
247
179
0
248
183
0
240
195
0
233
120
0
247
95
0
246
107
0
247
108
0
242
109
0
235
85
0
246
77
0
246
83
0
247
81
0
244
51
0
237
168
0
183
143
0
103
0
0
125
10
0
127
14
0
106
16
0
149
9
0
243
0
0
229
0
0
224
0
0
255
0
0
152
0
0
0
0
0
0
1
0
6
1
0
0
0
0
19
39
0
73
160
0
69
150
0
67
144
0
57
134
0
64
141
0
135
228
0
135
231
0
125
222
0
153
228
0
115
214
0
0
215
0
0
225
0
0
222
0
0
220
0
0
215
0
0
247
0
2
255
0
2
255
0
0
255
0
5
250
0
182
248
0
221
255
0
189
255
0
194
255
0
184
250
0
210
247
0
232
255
0
225
255
0
227
255
0
213
249
0
234
244
0
255
255
0
247
255
0
251
255
0
243
253
0
243
217
0
255
218
0
255
223
0
255
223
0
255
233
0
246
183
0
255
167
0
255
179
0
255
180
0
250
190
0
243
123
0
255
100
0
255
112
0
255
112
0
253
114
0
246
88
0
255
80
0
255
86
0
255
85
0
254
56
0
242
170
0
183
143
0
103
0
0
124
10
0
126
14
0
104
16
0
146
9
0
237
0
0
225
0
0
219
0
0
255
0
0
149
0
0
0
0
0
1
1
0
6
1
0
0
0
0
19
39
0
70
156
0
66
147
0
64
141
0
56
131
0
63
138
0
132
223
0
132
226
0
122
217
0
145
222
0
116
210
0
0
216
0
0
225
0
1
223
0
1
222
0
2
215
0
2
243
0
2
255
0
2
255
0
0
255
0
5
245
0
178
243
0
216
255
0
185
255
0
189
255
0
180
247
0
206
241
0
227
255
0
220
255
0
222
255
0
208
244
0
230
239
0
252
255
0
242
255
0
245
255
0
237
250
0
238
216
0
255
219
0
255
223
0
255
223
0
253
230
0
241
188
0
253
176
0
255
186
0
255
189
0
248
198
0
239
124
0
255
95
0
255
110
0
255
110
0
249
111
0
241
87
0
255
79
0
255
85
0
255
84
0
252
54
0
239
169
0
183
143
0
104
0
0
126
10
0
127
14
0
106
16
0
149
9
0
244
0
0
229
0
0
223
0
0
255
0
0
153
0
0
0
0
0
1
1
0
7
1
0
0
0
0
19
40
0
73
161
0
69
150
0
67
145
0
57
134
0
64
141
0
135
229
0
135
231
0
126
222
0
149
227
0
118
216
0
0
220
0
0
229
0
1
227
0
1
226
0
2
220
0
2
247
0
2
255
0
2
255
0
0
255
0
5
249
0
183
248
0
222
255
0
190
255
0
194
255
0
185
250
0
210
246
0
231
255
0
224
255
0
226
255
0
213
249
0
234
244
0
255
255
0
246
255
0
250
255
0
243
253
0
243
222
0
255
224
0
255
228
0
255
229
0
255
236
0
246
190
0
255
178
0
255
189
0
255
191
0
251
200
0
244
127
0
255
98
0
255
112
0
255
112
0
253
114
0
246
89
0
255
80
0
255
86
0
255
86
0
254
56
0
242
169
0
181
143
0
100
0
0
123
10
0
124
12
0
102
16
0
143
9
0
235
0
0
220
0
0
214
0
0
254
0
0
147
1
0
0
0
0
0
1
0
6
1
0
0
0
0
18
38
0
71
155
0
65
144
0
64
139
0
53
127
0
61
134
0
130
221
0
129
223
0
120
215
0
143
219
0
114
206
0
0
211
0
0
221
0
1
219
0
1
219
0
2
211
0
3
238
0
1
250
0
1
245
0
0
248
0
3
239
0
175
239
0
215
248
0
183
246
0
188
248
0
177
240
0
202
236
0
223
247
0
217
247
0
219
248
0
205
239
0
225
234
0
247
247
0
239
246
0
242
248
0
234
243
0
234
212
0
248
216
0
246
221
0
247
221
0
244
227
0
236
183
0
246
172
0
247
182
0
248
184
0
240
193
0
234
122
0
246
94
0
247
107
0
248
107
0
241
109
0
236
85
0
247
77
0
246
83
0
248
82
0
243
52
0
236
168
0
181
143
0
97
0
0
120
10
0
122
12
0
99
15
0
140
9
0
229
0
0
215
1
0
209
1
0
253
1
0
145
2
0
0
1
0
0
1
0
6
1
0
0
0
0
17
37
0
68
151
0
62
140
0
60
136
0
51
124
0
60
131
0
127
216
0
126
217
0
118
209
0
139
213
0
110
200
0
0
205
0
0
215
0
1
212
0
1
211
0
2
206
0
3
235
0
1
248
0
1
242
0
0
245
0
3
233
0
170
232
0
208
245
0
177
241
0
183
245
0
173
235
0
198
230
0
218
243
0
211
242
0
213
244
0
200
233
0
219
230
0
241
244
0
234
241
0
237
245
0
229
240
0
229
206
0
245
209
0
243
213
0
244
214
0
240
221
0
229
177
0
240
167
0
241
178
0
244
180
0
236
189
0
228
117
0
243
92
0
241
105
0
243
105
0
236
107
0
229
84
0
243
76
0
243
81
0
245
80
0
239
49
0
232
168
0
183
143
0
103
0
0
125
11
0
127
15
0
106
16
0
149
9
0
244
0
0
230
0
0
224
0
0
255
0
0
153
0
0
0
1
0
1
1
0
7
1
0
0
0
0
19
39
0
73
160
0
68
149
0
66
144
0
57
133
0
65
141
0
135
229
0
134
232
0
125
223
0
148
227
0
117
215
0
0
220
0
0
229
0
1
225
0
1
225
0
2
220
0
2
247
0
2
255
0
2
255
0
0
255
0
5
249
0
182
247
0
221
255
0
189
255
0
194
255
0
185
250
0
211
246
0
231
255
0
224
255
0
226
255
0
214
249
0
234
244
0
255
255
0
247
255
0
250
255
0
243
253
0
243
222
0
255
223
0
255
228
0
255
229
0
254
235
0
246
191
0
255
178
0
255
188
0
255
191
0
251
201
0
244
126
0
255
98
0
255
112
0
255
112
0
252
114
0
245
88
0
255
81
0
255
87
0
255
86
0
253
56
0
241
170
0
183
143
0
102
0
0
124
10
0
126
14
0
105
16
0
146
9
0
239
0
0
225
0
0
219
0
0
255
0
0
150
0
0
0
0
0
1
1
0
6
1
0
0
0
0
19
39
0
71
157
0
67
148
0
65
142
0
56
132
0
63
138
0
133
223
0
133
227
0
123
217
0
146
223
0
116
211
0
0
215
0
0
226
0
1
223
0
1
222
0
2
215
0
2
244
0
2
255
0
2
255
0
0
255
0
5
245
0
179
244
0
217
255
0
186
255
0
190
255
0
180
247
0
206
242
0
227
255
0
220
255
0
222
255
0
209
245
0
231
240
0
252
255
0
241
255
0
246
255
0
238
250
0
239
217
0
255
219
0
255
223
0
255
224
0
253
231
0
242
187
0
254
175
0
255
185
0
255
187
0
249
197
0
239
125
0
255
96
0
255
110
0
255
110
0
249
112
0
242
87
0
255
79
0
255
85
0
255
83
0
252
54
0
240
169
0
183
143
0
104
0
0
125
11
0
127
15
0
107
16
0
149
9
0
242
0
0
229
1
0
222
1
0
255
1
0
152
0
0
0
1
0
1
1
0
7
1
0
0
0
0
19
39
0
73
160
0
68
150
0
66
144
0
57
133
0
65
140
0
135
228
0
135
231
0
125
222
0
148
227
0
118
214
0
0
218
0
0
229
0
1
226
0
1
225
0
1
219
0
2
247
0
2
255
0
2
255
0
0
255
0
5
249
0
181
247
0
220
255
0
189
255
0
193
255
0
185
249
0
210
246
0
231
255
0
223
255
0
225
255
0
213
248
0
234
244
0
255
255
0
246
255
0
250
255
0
242
252
0
242
221
0
255
222
0
255
227
0
255
228
0
254
235
0
244
190
0
255
177
0
255
188
0
255
190
0
250
199
0
243
126
0
255
99
0
255
112
0
255
112
0
253
114
0
245
88
0
255
80
0
255
87
0
255
86
0
254
55
0
242
169
0
181
143
0
99
0
0
121
10
0
122
13
0
100
14
0
141
8
0
230
0
0
216
1
0
211
1
0
253
1
0
146
2
0
0
2
0
0
1
0
6
1
0
0
0
0
17
38
0
69
153
0
62
141
0
61
137
0
50
125
0
61
132
0
129
217
0
128
219
0
118
211
0
141
214
0
112
202
0
0
207
0
0
217
0
1
215
0
1
214
0
1
207
0
3
237
0
1
250
0
1
244
0
0
247
0
3
235
0
170
234
0
209
247
0
179
243
0
184
247
0
176
238
0
200
232
0
218
246
0
212
244
0
214
246
0
202
236
0
221
233
0
244
246
0
236
244
0
239
247
0
231
242
0
231
208
0
248
211
0
244
217
0
246
217
0
243
223
0
232
181
0
243
168
0
243
178
0
246
181
0
238
190
0
230
118
0
245
93
0
244
106
0
246
106
0
238
108
0
231
85
0
245
77
0
245
82
0
247
81
0
241
50
0
233
169
0
180
143
0
96
0
0
121
9
0
122
12
0
99
15
0
140
9
0
230
0
0
215
0
0
210
0
0
252
0
0
143
1
0
0
0
0
0
1
0
5
1
0
0
0
0
18
37
0
69
152
0
63
142
0
62
136
0
51
125
0
59
132
0
128
216
0
127
217
0
119
209
0
141
214
0
111
202
0
0
206
0
0
217
0
1
214
0
1
214
0
2
206
0
3
235
0
1
249
0
1
242
0
0
245
0
3
233
0
172
233
0
209
246
0
178
241
0
184
245
0
174
237
0
198
231
0
218
244
0
211
243
0
213
244
0
200
234
0
220
230
0
242
244
0
234
243
0
237
245
0
230
239
0
230
208
0
246
211
0
243
214
0
244
218
0
238
217
0
231
176
0
242
172
0
241
176
0
244
181
0
236
191
0
229
119
0
243
91
0
243
105
0
243
105
0
236
107
0
230
83
0
243
75
0
243
81
0
245
79
0
240
50
0
233
167
0
183
143
0
103
0
0
126
10
0
127
14
0
105
16
0
148
9
0
243
0
0
229
0
0
224
0
0
255
0
0
151
0
0
0
0
0
1
1
0
7
1
0
0
0
0
19
39
0
73
160
0
68
150
0
67
144
0
57
133
0
64
140
0
135
229
0
135
232
0
125
223
0
149
228
0
117
215
0
0
220
0
0
229
0
1
226
0
1
225
0
2
219
0
2
247
0
2
255
0
2
255
0
0
255
0
5
248
0
182
247
0
222
255
0
190
255
0
194
255
0
184
249
0
210
246
0
232
255
0
224
255
0
227
255
0
213
249
0
235
244
0
255
255
0
247
255
0
251
255
0
243
252
0
243
222
0
255
224
0
255
227
0
255
232
0
249
229
0
245
186
0
255
183
0
255
187
0
255
191
0
251
201
0
244
127
0
255
98
0
255
111
0
255
112
0
252
114
0
246
88
0
255
80
0
255
86
0
255
86
0
254
56
0
242
169
0
183
143
0
103
0
0
124
10
0
126
14
0
104
16
0
146
9
0
238
0
0
225
0
0
219
0
0
255
0
0
150
0
0
0
0
0
1
1
0
6
1
0
0
0
0
19
39
0
70
157
0
67
147
0
65
142
0
57
131
0
63
138
0
132
224
0
133
226
0
123
217
0
145
222
0
115
210
0
0
215
0
0
225
0
1
223
0
1
221
0
2
215
0
2
244
0
2
255
0
2
255
0
0
255
0
5
245
0
178
243
0
216
255
0
185
255
0
189
255
0
180
247
0
206
241
0
227
255
0
220
255
0
222
255
0
208
245
0
231
240
0
252
255
0
242
255
0
245
255
0
237
250
0
238
216
0
255
219
0
255
222
0
255
226
0
248
225
0
242
184
0
255
178
0
255
183
0
255
187
0
248
197
0
239
124
0
255
96
0
255
110
0
255
110
0
249
111
0
241
87
0
255
79
0
255
85
0
255
83
0
252
54
0
240
169
0
183
143
0
103
0
0
125
10
0
127
14
0
105
16
0
148
9
0
242
0
0
228
0
0
223
0
0
255
0
0
152
0
0
0
0
0
1
1
0
6
1
0
0
0
0
19
39
0
72
160
0
68
149
0
66
144
0
57
133
0
64
140
0
134
227
0
134
229
0
125
221
0
148
226
0
117
214
0
0
218
0
0
228
0
1
225
0
1
225
0
2
218
0
2
246
0
2
255
0
2
255
0
0
255
0
5
248
0
181
247
0
220
255
0
188
255
0
193
255
0
183
250
0
209
245
0
230
255
0
223
255
0
225
255
0
212
248
0
233
243
0
255
255
0
245
255
0
249
255
0
241
252
0
241
220
0
255
223
0
255
226
0
255
229
0
251
228
0
245
187
0
255
181
0
255
185
0
255
190
0
251
200
0
243
126
0
255
97
0
255
111
0
255
112
0
252
113
0
245
88
0
255
80
0
255
86
0
255
85
0
254
55
0
242
170
0
182
143
0
100
0
0
123
10
0
125
14
0
102
16
0
144
9
0
236
0
0
223
0
0
217
0
0
254
0
0
148
0
0
0
0
0
1
1
0
6
1
0
0
0
0
18
38
0
72
156
0
66
145
0
64
139
0
54
128
0
62
136
0
132
222
0
131
226
0
121
217
0
145
220
0
115
209
0
0
214
0
0
224
0
1
220
0
1
219
0
1
213
0
2
241
0
2
252
0
2
249
0
0
250
0
5
242
0
177
240
0
215
250
0
184
248
0
188
250
0
179
241
0
205
238
0
224
249
0
218
249
0
220
250
0
207
242
0
227
238
0
248
249
0
239
248
0
242
250
0
236
246
0
236
215
0
250
217
0
248
220
0
249
224
0
243
221
0
240
182
0
250
178
0
248
182
0
250
187
0
243
195
0
236
123
0
250
95
0
250
108
0
250
109
0
245
110
0
237
86
0
249
78
0
249
84
0
249
83
0
245
52
0
238
169
0
181
143
0
97
0
0
121
11
0
121
12
0
99
15
0
138
9
0
227
0
0
213
1
0
207
1
0
252
1
0
143
2
0
0
2
0
1
1
0
6
1
0
0
0
0
17
37
0
68
149
0
62
138
0
61
134
0
51
122
0
60
129
0
126
214
0
124
217
0
115
208
0
138
210
0
110
200
0
0
205
0
0
215
0
3
212
0
3
211
0
2
204
0
2
234
0
2
248
0
2
241
0
0
246
0
4
232
0
169
230
0
206
245
0
177
240
0
182
244
0
173
234
0
197
229
0
215
244
0
209
241
0
210
244
0
198
233
0
218
230
0
240
243
0
232
239
0
236
244
0
229
239
0
228
205
0
245
209
0
240
211
0
244
215
0
235
213
0
232
173
0
245
170
0
241
175
0
245
178
0
236
186
0
227
116
0
244
91
0
242
104
0
244
104
0
237
106
0
228
83
0
241
76
0
241
82
0
243
81
0
239
48
0
232
168
0
183
143
0
103
0
0
126
11
0
127
13
0
105
15
0
147
9
0
243
0
0
229
1
0
223
1
0
255
1
0
151
2
0
0
2
0
1
1
0
6
1
0
0
0
0
18
39
0
72
159
0
67
148
0
65
143
0
56
131
0
63
139
0
134
227
0
133
228
0
124
220
0
148
225
0
117
213
0
0
217
0
0
226
0
3
224
0
3
223
0
3
217
0
3
246
0
1
255
0
1
254
0
0
255
0
5
246
0
180
244
0
219
255
0
188
254
0
194
255
0
183
248
0
208
244
0
229
255
0
222
254
0
224
255
0
211
247
0
232
242
0
254
255
0
247
254
0
251
255
0
243
251
0
242
218
0
255
222
0
254
225
0
255
229
0
250
227
0
245
184
0
255
180
0
255
185
0
255
189
0
249
199
0
241
125
0
255
97
0
254
110
0
255
111
0
250
112
0
243
88
0
255
80
0
255
86
0
255
85
0
252
55
0
239
170
0
183
143
0
103
0
0
124
10
0
126
14
0
105
16
0
146
9
0
239
0
0
226
0
0
221
0
0
255
0
0
151
0
0
0
0
0
1
1
0
6
1
0
0
0
0
19
39
0
71
157
0
67
148
0
65
142
0
56
132
0
63
139
0
133
225
0
133
227
0
123
219
0
146
224
0
116
211
0
0
216
0
0
225
0
1
223
0
1
222
0
2
216
0
2
244
0
2
255
0
2
255
0
0
255
0
5
246
0
180
245
0
218
255
0
187
255
0
190
255
0
181
248
0
206
243
0
228
255
0
221
255
0
223
255
0
209
245
0
231
240
0
253
255
0
243
255
0
246
255
0
238
250
0
239
217
0
255
220
0
255
223
0
255
227
0
249
225
0
243
185
0
255
180
0
255
185
0
255
189
0
248
198
0
240
125
0
255
96
0
255
110
0
255
110
0
249
112
0
243
87
0
255
79
0
255
85
0
255
83
0
253
54
0
241
169
0
184
143
0
104
0
0
125
10
0
127
15
0
106
16
0
148
9
0
242
0
0
228
0
0
223
0
0
255
0
0
152
0
0
0
0
0
0
0
0
0
0
0
0
0
0
14
35
0
75
162
0
69
150
0
66
144
0
57
133
0
64
141
0
135
229
0
135
231
0
125
221
0
149
227
0
118
215
0
0
220
0
0
229
0
1
226
0
1
226
0
1
219
0
0
247
0
0
255
0
0
255
0
0
255
0
0
248
0
180
247
0
220
255
0
187
255
0
191
255
0
182
250
0
210
246
0
232
255
0
225
255
0
227
255
0
213
248
0
234
244
0
255
255
0
246
255
0
250
255
0
243
252
0
242
221
0
255
223
0
255
226
0
255
231
0
251
229
0
246
183
0
255
177
0
255
182
0
255
186
0
250
194
0
243
124
0
255
99
0
255
112
0
255
112
0
252
114
0
245
88
0
255
80
0
255
86
0
255
86
0
254
56
0
241
170
0
181
143
0
99
0
0
122
9
0
124
13
0
102
16
0
143
9
0
235
0
0
221
0
0
216
0
0
255
0
0
134
0
0
0
0
0
0
0
0
0
0
0
0
0
0
1
19
0
72
156
0
67
145
0
63
138
0
53
126
0
62
134
0
130
220
0
129
223
0
121
214
0
144
218
0
114
205
0
0
210
0
0
221
0
1
218
0
1
218
0
0
212
0
0
239
0
0
251
0
0
247
0
0
249
0
0
238
0
161
236
0
204
249
0
169
246
0
174
249
0
164
240
0
201
236
0
225
248
0
216
246
0
218
248
0
206
239
0
225
235
0
246
248
0
239
247
0
242
249
0
234
244
0
234
212
0
248
216
0
246
220
0
248
224
0
242
220
0
237
172
0
249
166
0
247
172
0
249
177
0
241
187
0
232
118
0
248
95
0
247
107
0
248
107
0
242
109
0
234
85
0
247
77
0
247
83
0
249
82
0
244
51
0
236
168
0
180
143
0
98
0
0
121
9
0
123
12
0
99
15
0
140
9
0
228
0
0
215
1
0
212
0
0
224
0
0
190
63
0
157
180
0
164
168
0
164
165
0
176
170
0
133
151
0
43
126
0
57
134
0
62
136
0
51
123
0
60
129
0
128
215
0
126
218
0
118
210
0
140
213
0
110
200
0
0
205
0
0
215
0
2
211
0
0
212
0
22
206
0
156
234
0
175
247
0
163
241
0
161
243
0
166
238
0
216
237
0
227
242
0
217
240
0
221
243
0
215
234
0
202
229
0
211
243
0
210
240
0
211
242
0
199
233
0
218
230
0
241
242
0
232
240
0
235
244
0
229
239
0
229
206
0
243
209
0
240
213
0
242
213
0
238
207
0
232
213
0
241
231
0
239
228
0
242
233
0
236
239
0
227
132
0
241
81
0
241
105
0
243
104
0
236
106
0
229
83
0
242
76
0
241
82
0
243
79
0
238
49
0
233
169
0
183
143
0
103
0
0
126
11
0
128
14
0
105
17
0
148
9
0
243
0
0
229
0
0
227
0
0
216
0
0
237
101
0
255
255
0
255
255
0
255
255
0
255
255
0
214
237
0
32
119
0
58
139
0
68
146
0
56
133
0
63
140
0
135
228
0
135
231
0
126
222
0
150
227
0
118
214
0
0
220
0
0
229
0
1
225
0
0
226
0
37
220
0
255
247
0
255
255
0
255
255
0
255
255
0
255
255
0
255
255
0
255
255
0
255
255
0
255
255
0
255
249
0
221
246
0
221
255
0
225
255
0
226
255
0
213
249
0
234
245
0
255
255
0
246
255
0
250
255
0
243
252
0
242
221
0
255
223
0
255
227
0
255
226
0
254
218
0
245
241
0
254
255
0
255
255
0
255
255
0
251
255
0
245
148
0
255
84
0
255
113
0
255
112
0
251
113
0
245
89
0
255
81
0
255
87
0
255
86
0
253
56
0
241
170
0
183
143
0
103
0
0
124
10
0
126
14
0
104
16
0
146
9
0
239
0
0
226
0
0
224
0
0
220
0
0
220
84
0
254
255
0
255
255
0
255
255
0
255
255
0
188
210
0
36
122
0
60
140
0
67
144
0
58
132
0
64
139
0
132
224
0
132
226
0
123
218
0
146
223
0
115
211
0
0
215
0
0
225
0
1
223
0
0
221
0
28
216
0
235
246
0
255
255
0
255
255
0
255
255
0
255
255
0
255
255
0
255
255
0
255
255
0
255
255
0
249
248
0
215
242
0
219
255
0
221
255
0
223
255
0
209
245
0
231
240
0
252
255
0
242
255
0
246
255
0
237
251
0
238
217
0
255
219
0
255
224
0
255
223
0
253
215
0
242
232
0
252
255
0
255
255
0
255
255
0
249
255
0
240
147
0
255
86
0
255
112
0
255
111
0
249
113
0
242
87
0
255
79
0
255
85
0
255
84
0
253
54
0
241
168
0
183
143
0
104
0
0
125
10
0
126
14
0
105
17
0
147
7
0
241
0
0
227
0
0
225
0
0
222
0
0
221
83
0
253
255
0
255
255
0
255
255
0
255
255
0
187
210
0
28
118
0
54
137
0
63
142
0
50
128
0
59
136
0
136
229
0
134
231
0
124
222
0
148
226
0
117
214
0
0
218
0
0
228
0
1
225
0
0
225
0
30
218
0
236
246
0
255
255
0
255
255
0
255
255
0
255
255
0
255
255
0
255
255
0
255
255
0
255
255
0
250
248
0
219
244
0
222
255
0
225
255
0
225
255
0
212
248
0
233
243
0
255
255
0
247
255
0
251
255
0
243
253
0
241
219
0
255
219
0
255
225
0
255
224
0
255
216
0
241
232
0
252
255
0
255
255
0
255
255
0
249
255
0
241
140
0
255
75
0
255
105
0
255
105
0
251
105
0
244
86
0
255
82
0
255
86
0
255
85
0
254
55
0
241
169
0
182
143
0
101
0
0
123
10
0
125
14
0
105
15
0
144
0
0
233
0
0
217
0
0
215
0
0
209
0
0
213
69
0
254
255
0
255
255
0
255
255
0
255
255
0
177
202
0
0
91
0
17
113
0
28
119
0
11
102
0
29
116
0
132
221
0
130
221
0
119
212
0
143
214
0
113
203
0
0
215
0
0
225
0
1
222
0
0
221
0
30
215
0
235
246
0
255
255
0
255
255
0
255
255
0
255
255
0
255
255
0
255
255
0
255
255
0
255
255
0
250
248
0
210
235
0
210
247
0
214
246
0
215
249
0
203
237
0
221
234
0
245
248
0
237
245
0
241
249
0
234
243
0
232
207
0
248
209
0
245
214
0
246
213
0
241
203
0
235
226
0
254
255
0
255
255
0
255
255
0
250
255
0
231
125
0
244
55
0
246
88
0
248
86
0
240
89
0
232
78
0
246
80
0
245
83
0
248
81
0
242
50
0
233
168
0
180
142
0
96
0
0
119
10
0
122
13
0
95
0
0
142
59
0
242
167
0
232
157
0
229
154
0
224
137
0
231
182
0
255
255
0
255
255
0
255
255
0
255
255
0
227
235
0
158
191
0
169
200
0
171
201
0
176
198
0
157
191
0
116
209
0
118
214
0
118
210
0
139
214
0
110
202
0
0
203
0
0
213
0
4
211
0
0
208
0
30
205
0
237
246
0
255
255
0
255
255
0
255
255
0
255
255
0
255
255
0
255
255
0
255
255
0
255
255
0
250
248
0
208
233
0
207
243
0
213
242
0
213
246
0
200
234
0
221
231
0
240
244
0
233
241
0
236
244
0
228
238
0
228
226
0
245
235
0
242
235
0
242
235
0
240
231
0
247
244
0
255
255
0
255
255
0
255
255
0
254
255
0
241
220
0
241
200
0
242
209
0
245
212
0
238
217
0
231
111
0
243
53
0
241
83
0
245
80
0
240
49
0
235
168
0
182
142
0
103
0
0
124
11
0
128
14
0
98
0
0
153
98
0
255
255
0
255
255
0
255
255
0
255
255
0
255
255
0
255
255
0
255
255
0
255
255
0
254
254
0
255
255
0
255
255
0
255
255
0
255
255
0
255
255
0
245
254
0
111
215
0
121
223
0
127
223
0
148
227
0
118
215
0
0
215
0
0
225
0
3
222
0
0
222
0
30
216
0
236
246
0
255
255
0
255
255
0
255
255
0
255
255
0
255
255
0
255
255
0
255
255
0
255
255
0
249
248
0
218
245
0
223
255
0
226
255
0
226
255
0
213
248
0
234
243
0
255
255
0
247
255
0
250
255
0
243
249
0
242
247
0
255
255
0
255
255
0
255
255
0
255
255
0
255
255
0
255
255
0
255
255
0
255
255
0
255
255
0
255
255
0
255
255
0
255
255
0
255
255
0
252
255
0
245
130
0
255
47
0
255
89
0
255
86
0
254
55
0
242
169
0
183
144
0
104
0
0
126
10
0
129
14
0
101
0
0
151
85
0
255
255
0
255
255
0
255
255
0
255
255
0
255
255
0
255
255
0
255
255
0
255
255
0
255
255
0
255
255
0
255
255
0
255
255
0
255
255
0
255
255
0
226
240
0
112
213
0
122
220
0
126
220
0
147
222
0
117
211
0
0
217
0
0
226
0
2
224
0
0
223
0
29
217
0
235
247
0
255
255
0
255
255
0
255
255
0
255
255
0
255
255
0
255
255
0
255
255
0
255
255
0
249
248
0
216
242
0
218
255
0
222
255
0
223
255
0
209
245
0
231
240
0
253
255
0
242
255
0
246
255
0
239
247
0
239
240
0
255
255
0
255
255
0
255
255
0
255
255
0
255
255
0
255
255
0
255
255
0
255
255
0
255
255
0
255
255
0
255
255
0
255
255
0
255
255
0
249
255
0
241
124
0
255
53
0
255
89
0
255
86
0
252
57
0
240
170
0
181
140
0
100
0
0
124
5
0
127
8
0
97
0
0
150
83
0
255
255
0
255
255
0
255
255
0
255
255
0
255
255
0
255
255
0
255
255
0
255
255
0
255
255
0
255
255
0
255
255
0
255
255
0
255
255
0
255
255
0
224
240
0
105
213
0
115
221
0
120
221
0
141
224
0
110
213
0
0
218
0
0
228
0
0
225
0
0
225
0
24
218
0
235
246
0
255
255
0
255
255
0
255
255
0
255
255
0
255
255
0
255
255
0
255
255
0
255
255
0
249
247
0
215
244
0
219
255
0
222
255
0
223
255
0
209
247
0
233
242
0
255
255
0
244
255
0
248
255
0
241
249
0
239
241
0
255
255
0
255
255
0
255
255
0
255
255
0
255
255
0
255
255
0
255
255
0
255
255
0
255
255
0
255
255
0
255
255
0
255
255
0
255
255
0
248
255
0
242
115
0
255
37
0
255
78
0
255
73
0
253
41
0
241
165
0
166
124
0
78
0
0
103
0
0
105
0
0
72
0
0
137
70
0
255
255
0
255
255
0
255
255
0
255
255
0
255
255
0
255
255
0
255
255
0
255
255
0
255
255
0
255
255
0
255
255
0
255
255
0
255
255
0
255
255
0
216
237
0
86
207
0
98
215
0
102
215
0
128
218
0
91
205
0
0
211
0
0
222
0
0
219
0
0
218
0
8
211
0
230
244
0
255
255
0
255
255
0
255
255
0
255
255
0
255
255
0
255
255
0
255
255
0
255
255
0
248
247
0
207
238
0
209
249
0
213
249
0
214
250
0
201
240
0
225
236
0
248
250
0
238
249
0
242
250
0
234
241
0
236
238
0
255
255
0
255
255
0
255
255
0
255
255
0
255
255
0
255
255
0
255
255
0
255
255
0
255
255
0
255
255
0
255
255
0
255
255
0
255
255
0
250
255
0
236
106
0
247
20
0
250
64
0
251
59
0
247
25
0
235
156
0
214
197
0
174
135
0
186
149
0
187
150
0
172
134
0
202
178
0
255
255
0
255
255
0
255
255
0
255
255
0
255
255
0
255
255
0
255
255
0
255
255
0
255
255
0
255
255
0
255
255
0
255
255
0
255
255
0
255
255
0
242
246
0
201
226
0
205
230
0
206
231
0
219
233
0
201
225
0
143
222
0
144
227
0
148
225
0
138
224
0
152
222
0
243
249
0
255
255
0
255
255
0
255
255
0
255
255
0
255
255
0
255
255
0
255
255
0
255
255
0
252
252
0
236
241
0
236
242
0
238
242
0
239
243
0
236
241
0
239
241
0
242
243
0
241
242
0
241
242
0
237
237
0
246
247
0
255
255
0
255
255
0
255
255
0
255
255
0
255
255
0
255
255
0
255
255
0
255
255
0
255
255
0
255
255
0
255
255
0
255
255
0
255
255
0
255
255
0
240
218
0
237
197
0
242
209
0
242
207
0
239
197
0
243
230
0
