P3
72 72
255
255
0
255
255
0
255
255
0
255
255
0
255
255
0
255
255
0
255
255
0
255
255
0
255
255
0
255
255
0
255
255
0
255
255
0
255
255
0
255
255
0
255
255
0
255
255
0
255
255
0
255
255
0
255
255
0
255
255
0
255
255
0
255
255
0
255
255
0
255
255
0
255
255
0
255
234
0
240
131
0
171
134
0
177
142
0
184
142
0
184
143
0
184
142
0
179
141
0
181
142
0
181
137
0
181
136
0
176
207
0
181
222
0
187
211
0
183
212
0
189
205
0
186
218
0
147
228
0
144
225
0
149
225
0
141
216
0
130
241
0
223
255
0
255
255
0
255
255
0
255
255
0
255
255
0
255
255
0
255
255
0
255
255
0
255
255
0
255
255
0
255
255
0
255
255
0
255
255
0
255
255
0
255
255
0
255
255
0
255
255
0
255
255
0
255
255
0
255
255
0
255
255
0
255
255
0
255
255
0
255
255
0
255
255
0
255
255
0
255
255
0
255
255
0
255
255
0
255
255
0
255
255
0
255
255
0
255
255
0
255
255
0
255
255
0
255
255
0
255
255
0
255
255
0
255
255
0
255
255
0
255
255
0
255
255
0
255
255
0
255
255
0
255
255
0
255
255
0
255
255
0
255
255
0
255
255
0
255
255
0
255
211
0
225
0
0
88
0
0
92
0
0
103
0
0
106
0
0
96
0
0
80
0
0
91
0
0
91
0
0
90
0
0
84
169
0
100
210
0
112
173
0
104
179
0
116
170
0
119
201
0
8
225
0
0
217
0
0
219
0
0
204
0
0
232
0
190
255
0
255
255
0
255
255
0
255
255
0
255
255
0
255
255
0
255
255
0
255
255
0
255
255
0
255
255
0
255
255
0
255
255
0
255
255
0
255
255
0
255
255
0
255
255
0
255
255
0
255
255
0
255
255
0
255
255
0
255
255
0
255
255
0
255
255
0
255
255
0
255
255
0
255
255
0
255
255
0
255
255
0
255
255
0
255
255
0
255
255
0
255
255
0
255
255
0
255
255
0
255
255
0
255
255
0
255
255
0
255
255
0
255
255
0
255
255
0
255
255
0
255
255
0
255
255
0
255
255
0
255
255
0
255
255
0
255
255
0
255
255
0
255
255
0
255
255
0
255
218
0
229
0
0
108
0
0
114
0
0
122
0
0
123
0
0
117
0
0
104
0
0
111
0
0
110
0
0
112
1
0
107
180
0
121
219
0
129
187
0
124
192
0
135
182
0
140
208
0
39
229
0
15
222
0
32
224
0
20
211
0
0
234
0
196
255
0
255
255
0
255
255
0
255
255
0
255
255
0
255
255
0
255
255
0
255
255
0
255
255
0
255
255
0
255
255
0
255
255
0
255
255
0
255
255
0
255
255
0
255
255
0
255
255
0
255
255
0
255
255
0
255
255
0
255
255
0
255
255
0
255
255
0
255
255
0
255
255
0
255
255
0
255
255
0
255
255
0
255
255
0
255
255
0
255
255
0
255
255
0
255
255
0
255
255
0
255
255
0
255
255
0
255
255
0
255
255
0
255
255
0
255
255
0
255
255
0
255
255
0
255
255
0
255
255
0
255
255
0
255
255
0
255
255
0
255
255
0
255
255
0
255
255
0
255
217
0
230
0
0
110
0
0
116
1
0
123
1
0
125
2
0
119
2
0
106
2
0
114
2
0
113
0
0
114
5
0
110
180
0
123
218
0
131
187
0
126
192
0
136
182
0
140
207
0
44
229
0
20
222
0
36
224
0
25
210
0
2
235
0
195
255
0
255
255
0
255
255
0
255
255
0
255
255
0
255
255
0
255
255
0
255
255
0
255
255
0
255
255
0
255
255
0
255
255
0
255
255
0
255
255
0
255
255
0
255
255
0
255
255
0
255
255
0
255
255
0
255
255
0
255
255
0
255
255
0
255
255
0
255
255
0
255
255
0
255
255
0
255
255
0
255
255
0
255
255
0
255
255
0
255
255
0
255
255
0
255
255
0
255
255
0
255
255
0
255
255
0
255
255
0
255
255
0
255
255
0
255
255
0
253
255
0
255
255
0
254
255
0
253
255
0
254
255
0
254
255
0
255
255
0
254
255
0
253
255
0
253
255
0
255
229
0
226
1
0
108
0
0
115
3
0
123
2
0
124
2
0
118
2
0
105
2
0
111
1
0
111
0
0
112
4
0
107
179
0
121
217
0
131
186
0
123
191
0
135
181
0
141
206
0
39
227
0
17
220
0
35
222
0
19
208
0
0
233
0
222
255
0
255
255
0
255
255
0
255
255
0
255
255
0
255
254
0
255
254
0
255
253
0
255
253
0
255
255
0
255
255
0
255
255
0
255
255
0
255
255
0
255
255
0
255
255
0
255
255
0
255
255
0
255
255
0
255
255
0
255
255
0
255
255
0
255
255
0
255
255
0
255
255
0
255
255
0
255
255
0
255
255
0
255
255
0
255
255
0
255
255
0
255
255
0
255
255
0
255
255
0
255
255
0
255
255
0
255
255
0
255
255
0
255
255
0
255
255
0
255
225
0
244
153
0
237
166
0
242
171
0
241
165
0
242
168
0
236
196
0
237
196
0
239
192
0
237
212
0
255
167
0
219
0
0
102
0
0
110
2
0
118
2
0
120
1
0
113
2
0
99
2
0
104
1
0
105
0
0
105
3
0
100
168
0
114
206
0
122
176
0
118
181
0
127
173
0
131
195
0
35
214
0
14
208
0
30
210
0
21
198
0
12
221
0
128
244
0
171
236
0
158
237
0
158
235
0
155
236
0
183
241
0
202
239
0
194
241
0
191
237
0
177
244
0
224
255
0
255
255
0
255
255
0
255
255
0
255
255
0
255
255
0
255
255
0
255
255
0
255
255
0
255
255
0
255
255
0
255
255
0
255
255
0
255
255
0
255
255
0
255
255
0
255
255
0
255
255
0
255
255
0
255
255
0
255
255
0
255
255
0
255
255
0
255
255
0
255
255
0
255
255
0
255
255
0
255
255
0
255
255
0
255
255
0
255
178
0
238
0
0
243
17
0
252
28
0
251
13
0
251
25
0
232
109
0
242
106
0
251
96
0
249
122
0
255
95
0
227
0
0
109
0
0
114
1
0
122
1
0
124
2
0
118
2
0
105
2
0
112
2
0
111
0
0
111
5
0
107
177
0
122
216
0
130
185
0
126
190
0
136
180
0
138
205
0
41
226
0
18
219
0
33
221
0
34
208
0
33
229
0
0
249
0
0
238
0
0
242
0
0
233
0
0
233
0
71
251
0
123
250
0
99
251
0
99
248
0
71
238
0
183
253
0
255
255
0
255
255
0
255
255
0
255
255
0
255
255
0
255
255
0
255
255
0
255
255
0
255
255
0
255
255
0
255
255
0
255
255
0
255
255
0
255
255
0
255
255
0
255
255
0
255
255
0
255
255
0
255
255
0
255
255
0
255
255
0
255
255
0
255
255
0
255
255
0
255
255
0
255
255
0
255
255
0
255
255
0
255
255
0
255
188
0
241
31
0
249
55
0
255
63
0
255
52
0
255
60
0
240
132
0
248
131
0
255
122
0
255
145
0
255
115
0
229
0
0
110
0
0
116
1
0
123
1
0
124
2
0
119
2
0
106
2
0
113
2
0
113
0
0
114
5
0
109
180
0
122
219
0
131
187
0
126
191
0
136
182
0
140
208
0
43
230
0
18
223
0
33
225
0
33
210
0
32
232
0
27
255
0
25
245
0
28
248
0
23
239
0
7
240
0
100
255
0
148
255
0
126
255
0
126
255
0
101
242
0
193
252
0
255
255
0
255
255
0
255
255
0
255
255
0
255
255
0
255
255
0
255
255
0
255
255
0
255
255
0
255
255
0
255
255
0
255
255
0
255
255
0
255
255
0
255
255
0
255
255
0
255
255
0
255
255
0
255
255
0
255
255
0
255
255
0
255
255
0
255
255
0
255
255
0
255
255
0
255
255
0
255
255
0
255
255
0
255
255
0
255
188
0
240
36
0
248
59
0
255
67
0
255
57
0
255
64
0
239
133
0
247
134
0
255
124
0
255
147
0
255
116
0
229
0
0
110
0
0
115
1
0
123
1
0
124
2
0
118
2
0
105
2
0
112
2
0
111
0
0
113
5
0
109
179
0
122
216
0
130
186
0
125
190
0
135
181
0
139
207
0
42
228
0
18
221
0
33
223
0
33
209
0
31
231
0
31
253
0
31
243
0
33
246
0
29
238
0
14
239
0
103
255
0
149
255
0
127
255
0
128
253
0
103
242
0
193
253
0
255
255
0
255
255
0
255
255
0
255
255
0
255
255
0
255
255
0
255
255
0
255
255
0
255
255
0
255
255
0
255
255
0
255
255
0
255
255
0
255
255
0
255
255
0
255
255
0
255
255
0
255
255
0
255
255
0
255
255
0
255
255
0
255
255
0
255
255
0
255
255
0
255
255
0
255
255
0
255
255
0
255
255
0
255
255
0
255
214
0
247
32
0
249
58
0
255
68
0
255
56
0
255
63
0
242
134
0
249
134
0
255
125
0
255
149
0
255
118
0
231
0
0
111
0
0
116
1
0
125
1
0
126
2
0
120
2
0
107
2
0
115
2
0
113
0
0
115
5
0
110
182
0
123
221
0
132
190
0
127
194
0
138
183
0
141
210
0
42
231
0
19
224
0
34
227
0
33
214
0
31
233
0
30
254
0
30
247
0
32
250
0
28
243
0
12
242
0
103
255
0
150
255
0
129
255
0
128
253
0
99
246
0
216
255
0
255
255
0
255
255
0
255
255
0
255
255
0
255
255
0
255
255
0
255
255
0
255
255
0
255
255
0
255
255
0
255
255
0
255
255
0
255
255
0
255
255
0
255
255
0
255
255
0
255
255
0
255
255
0
255
255
0
255
255
0
255
255
0
255
255
0
255
255
0
255
255
0
255
216
0
236
153
0
222
164
0
233
165
0
232
175
0
231
130
0
222
43
0
236
56
0
242
61
0
240
50
0
240
58
0
228
127
0
236
126
0
245
117
0
240
140
0
255
110
0
221
0
0
102
0
0
110
1
0
117
1
0
118
2
0
114
2
0
99
2
0
106
1
0
106
0
0
105
4
0
101
171
0
116
207
0
124
177
0
118
183
0
129
173
0
134
196
0
36
216
0
17
210
0
31
212
0
30
199
0
28
219
0
28
241
0
29
232
0
31
236
0
27
228
0
11
228
0
97
244
0
141
241
0
120
243
0
121
240
0
112
228
0
143
238
0
172
241
0
165
242
0
164
235
0
155
242
0
220
255
0
255
255
0
255
255
0
255
255
0
255
255
0
255
255
0
255
255
0
255
255
0
255
255
0
255
255
0
255
255
0
255
255
0
255
255
0
255
255
0
255
255
0
255
255
0
255
255
0
255
255
0
255
255
0
255
255
0
255
146
0
225
0
0
206
0
0
216
0
0
216
0
0
211
0
0
213
71
0
246
66
0
248
63
0
246
53
0
247
62
0
235
131
0
242
130
0
251
121
0
247
144
0
255
114
0
226
0
0
108
0
0
113
1
0
121
1
0
123
2
0
117
2
0
103
2
0
108
1
0
108
0
0
109
4
0
105
175
0
119
213
0
128
182
0
122
188
0
134
179
0
137
204
0
38
223
0
17
216
0
32
218
0
30
206
0
28
225
0
29
248
0
31
239
0
31
243
0
27
236
0
14
236
0
101
250
0
145
247
0
124
248
0
128
245
0
152
235
0
38
244
0
0
247
0
0
248
0
0
239
0
0
235
0
157
254
0
255
255
0
255
255
0
255
255
0
255
255
0
255
255
0
255
255
0
255
255
0
255
255
0
255
255
0
255
255
0
255
255
0
255
255
0
255
255
0
255
255
0
255
255
0
255
255
0
255
255
0
255
255
0
255
255
0
255
161
0
232
0
0
218
0
0
225
0
0
224
0
0
220
15
0
223
75
0
255
69
0
255
67
0
255
58
0
255
65
0
243
135
0
249
135
0
255
125
0
255
149
0
255
118
0
231
0
0
111
0
0
116
1
0
124
1
0
126
2
0
119
2
0
107
2
0
115
2
0
114
0
0
115
5
0
111
182
0
124
221
0
132
189
0
127
194
0
137
184
0
141
210
0
43
231
0
19
224
0
34
226
0
33
213
0
32
234
0
30
255
0
31
246
0
33
250
0
28
242
0
13
243
0
102
255
0
150
255
0
129
255
0
132
254
0
152
246
0
57
255
0
3
255
0
33
255
0
22
252
0
0
240
0
167
254
0
255
255
0
255
255
0
255
255
0
255
255
0
255
255
0
255
255
0
255
255
0
255
255
0
255
255
0
255
255
0
255
255
0
255
255
0
255
255
0
255
255
0
255
255
0
255
255
0
255
255
0
255
255
0
255
255
0
255
162
0
231
0
0
216
0
0
224
6
0
223
0
0
219
19
0
221
71
0
253
67
0
255
65
0
255
56
0
255
63
0
239
135
0
248
137
0
255
126
0
255
150
0
255
119
0
229
0
0
112
0
0
117
1
0
124
1
0
127
1
0
121
1
0
105
2
0
112
2
0
112
0
0
113
5
0
108
180
0
122
217
0
130
186
0
125
190
0
135
181
0
140
207
0
42
228
0
18
221
0
33
223
0
32
209
0
31
231
0
30
254
0
30
243
0
32
246
0
28
238
0
11
240
0
103
255
0
152
255
0
129
255
0
134
253
0
152
243
0
64
254
0
11
255
0
42
255
0
33
249
0
0
240
0
167
255
0
255
255
0
255
255
0
255
255
0
255
255
0
255
255
0
255
255
0
255
255
0
255
255
0
255
255
0
255
255
0
255
255
0
255
255
0
255
255
0
255
255
0
253
255
0
255
255
0
255
255
0
255
255
0
255
255
0
255
161
0
236
0
0
217
0
0
224
7
0
224
0
0
220
19
0
222
73
0
253
67
0
255
65
0
254
58
0
255
62
0
241
111
0
248
108
0
255
101
0
254
125
0
255
91
0
225
0
0
87
0
0
92
0
0
104
0
0
102
0
0
100
1
0
108
4
0
115
3
0
112
0
0
113
5
0
109
180
0
123
219
0
131
187
0
126
192
0
137
183
0
141
209
0
41
230
0
18
223
0
33
225
0
32
211
0
31
232
0
31
254
0
31
245
0
33
248
0
30
241
0
16
241
0
86
255
0
123
254
0
103
255
0
107
252
0
127
243
0
29
253
0
0
255
0
0
255
0
0
248
0
0
240
0
178
255
0
255
255
0
255
255
0
255
255
0
255
255
0
255
255
0
254
255
0
255
255
0
255
255
0
255
255
0
255
255
0
255
255
0
255
255
0
255
255
0
255
255
0
253
242
0
240
230
0
229
235
0
234
233
0
234
255
0
238
150
0
214
0
0
206
0
0
212
6
0
212
0
0
207
17
0
208
67
0
238
61
0
243
61
0
239
45
0
241
59
0
227
146
0
233
145
0
242
134
0
238
151
0
250
128
0
218
60
0
123
60
0
129
60
0
135
70
0
140
56
0
129
5
0
98
1
0
103
1
0
105
0
0
106
4
0
101
169
0
116
207
0
125
176
0
118
182
0
129
172
0
133
196
0
36
215
0
17
208
0
31
211
0
29
199
0
29
218
0
29
240
0
30
232
0
31
234
0
26
229
0
10
226
0
112
243
0
160
240
0
135
242
0
140
239
0
152
227
0
89
239
0
57
242
0
60
243
0
58
235
0
67
225
0
147
242
0
185
241
0
186
241
0
185
238
0
176
244
0
226
255
0
254
255
0
255
255
0
255
255
0
255
255
0
255
255
0
255
255
0
255
255
0
255
255
0
255
255
0
255
223
0
220
203
0
195
217
0
209
212
0
207
255
0
209
145
0
201
0
0
220
1
0
222
6
0
219
0
0
216
19
0
218
72
0
246
66
0
249
68
0
248
35
0
249
70
0
234
255
0
241
255
0
249
255
0
248
255
0
250
255
0
243
255
0
253
255
0
255
255
0
255
255
0
255
227
0
234
17
0
96
0
0
97
2
0
112
0
0
112
5
0
107
178
0
120
215
0
129
184
0
123
189
0
133
179
0
138
205
0
40
225
0
18
218
0
33
220
0
32
207
0
30
228
0
29
249
0
30
240
0
33
244
0
21
237
0
0
236
0
192
250
0
255
249
0
255
249
0
255
246
0
255
239
0
255
249
0
255
249
0
255
249
0
255
246
0
255
235
0
97
248
0
0
249
0
0
249
0
0
242
0
0
238
0
148
255
0
255
255
0
255
255
0
255
255
0
255
255
0
255
255
0
255
255
0
255
255
0
255
255
0
255
255
0
255
230
0
227
213
0
203
226
0
217
221
0
216
255
0
216
151
0
208
0
0
226
1
0
226
6
0
224
0
0
221
19
0
224
72
0
254
67
0
255
68
0
255
39
0
255
68
0
241
251
0
250
255
0
255
255
0
255
255
0
255
250
0
245
255
0
254
255
0
255
255
0
255
255
0
255
225
0
234
13
0
96
0
0
101
2
0
115
0
0
113
5
0
110
181
0
123
219
0
131
188
0
126
192
0
137
183
0
141
209
0
43
230
0
18
223
0
33
225
0
33
211
0
31
234
0
30
255
0
30
245
0
32
249
0
23
242
0
0
242
0
191
255
0
255
255
0
255
255
0
255
254
0
255
245
0
253
255
0
255
255
0
255
255
0
255
253
0
255
241
0
105
255
0
0
255
0
0
255
0
0
251
0
0
243
0
156
255
0
255
255
0
255
255
0
255
255
0
255
255
0
255
255
0
255
255
0
255
255
0
255
255
0
255
255
0
255
230
0
228
212
0
203
224
0
216
220
0
214
255
0
216
151
0
207
0
0
222
1
0
223
6
0
222
0
0
218
20
0
220
77
0
253
72
0
255
72
0
255
45
0
255
71
0
238
245
0
247
255
0
255
255
0
255
255
0
255
240
0
240
244
0
245
255
0
255
255
0
255
255
0
255
217
0
229
12
0
98
0
0
104
2
0
118
0
0
116
3
0
111
177
0
121
217
0
129
186
0
124
189
0
135
181
0
138
206
0
42
227
0
18
220
0
33
222
0
32
208
0
31
231
0
34
252
0
36
242
0
38
246
0
28
239
0
0
238
0
187
255
0
255
255
0
255
255
0
255
252
0
252
241
0
241
254
0
254
255
0
255
255
0
255
250
0
255
237
0
110
253
0
0
255
0
0
255
0
0
249
0
0
242
0
162
255
0
255
255
0
255
255
0
255
255
0
255
255
0
255
255
0
255
255
0
255
255
0
255
255
0
255
255
0
255
231
0
228
217
0
208
229
0
221
225
0
220
255
0
221
152
0
211
0
0
226
1
0
228
6
0
226
0
0
223
10
0
224
38
0
255
31
0
255
34
0
255
0
0
255
40
0
242
250
0
249
255
0
255
255
0
255
255
0
255
245
0
245
249
0
249
255
0
255
255
0
255
255
0
255
211
0
229
0
0
71
0
0
71
0
0
90
0
0
87
0
0
84
181
0
122
226
0
137
189
0
127
194
0
140
184
0
142
211
0
42
232
0
19
225
0
34
227
0
35
214
0
36
233
0
0
254
0
0
245
0
0
248
0
0
241
0
0
243
0
178
255
0
255
255
0
255
255
0
255
253
0
253
247
0
247
255
0
255
255
0
255
255
0
255
254
0
255
243
0
93
254
0
0
255
0
0
255
0
0
252
0
0
244
0
147
255
0
255
255
0
255
255
0
255
255
0
255
255
0
255
255
0
255
255
0
255
255
0
255
255
0
255
255
0
255
227
0
225
201
0
193
215
0
207
210
0
206
252
0
206
144
0
197
0
0
215
1
0
215
6
0
212
0
0
209
23
0
212
96
0
239
88
0
244
88
0
241
61
0
243
90
0
228
239
0
235
249
0
244
242
0
242
244
0
244
231
0
231
235
0
235
244
0
244
241
0
241
252
0
250
209
0
223
51
0
109
47
0
113
53
0
126
51
0
128
49
0
122
171
0
117
204
0
123
179
0
120
183
0
131
174
0
132
199
0
37
217
0
16
211
0
31
213
0
28
201
0
23
222
0
52
244
0
68
235
0
60
238
0
55
230
0
47
229
0
187
244
0
253
242
0
241
243
0
243
241
0
241
231
0
231
240
0
240
242
0
242
244
0
245
238
0
253
227
0
122
242
0
42
242
0
53
243
0
50
235
0
41
237
0
169
255
0
255
255
0
255
255
0
255
255
0
255
255
0
255
255
0
255
255
0
255
255
0
255
255
0
255
255
0
255
228
0
223
202
0
195
216
0
209
211
0
207
252
0
209
145
0
200
0
0
215
1
0
217
5
0
214
0
0
212
69
0
213
255
0
242
255
0
246
255
0
243
255
0
244
248
0
230
242
0
238
247
0
247
245
0
245
246
0
246
232
0
232
237
0
237
247
0
247
245
0
245
248
0
248
245
0
241
248
0
248
251
0
255
255
0
255
255
0
255
245
0
247
184
0
126
177
0
106
186
0
121
186
0
130
176
0
135
199
0
37
218
0
15
212
0
32
213
0
17
201
0
2
227
0
207
250
0
255
246
0
255
248
0
255
239
0
249
232
0
241
246
0
247
245
0
245
246
0
246
243
0
243
233
0
233
244
0
244
246
0
246
247
0
247
237
0
243
227
0
240
246
0
248
246
0
255
247
0
253
238
0
245
238
0
248
255
0
254
255
0
255
255
0
255
255
0
255
255
0
255
255
0
255
255
0
255
255
0
255
255
0
255
255
0
255
231
0
227
216
0
207
229
0
221
224
0
219
255
0
220
151
0
211
0
0
225
1
0
227
5
0
226
0
0
224
69
0
225
255
0
255
255
0
255
255
0
255
255
0
255
252
0
243
250
0
250
255
0
255
255
0
255
255
0
255
244
0
244
249
0
249
255
0
255
255
0
255
255
0
255
250
0
248
255
0
254
255
0
255
255
0
255
255
0
255
255
0
251
191
0
128
186
0
114
194
0
131
194
0
138
184
0
142
209
0
41
231
0
18
224
0
36
225
0
23
212
0
0
236
0
205
255
0
255
255
0
255
255
0
255
250
0
255
244
0
247
255
0
255
255
0
255
255
0
255
254
0
254
246
0
246
255
0
255
255
0
255
255
0
255
250
0
249
243
0
250
255
0
255
255
0
255
255
0
255
252
0
255
243
0
249
255
0
255
255
0
255
255
0
255
255
0
255
255
0
255
255
0
255
255
0
255
255
0
255
255
0
255
255
0
255
230
0
227
212
0
203
225
0
217
220
0
215
255
0
215
151
0
207
0
0
223
1
0
224
5
0
222
0
0
220
67
0
222
255
0
252
255
0
255
255
0
255
255
0
255
240
0
241
248
0
248
255
0
255
255
0
255
255
0
255
240
0
240
244
0
244
255
0
255
255
0
255
255
0
255
243
0
244
242
0
242
255
0
255
255
0
255
255
0
255
244
0
242
184
0
125
185
0
114
191
0
128
190
0
135
181
0
138
206
0
42
228
0
18
221
0
34
223
0
24
209
0
3
233
0
195
255
0
255
255
0
255
255
0
255
247
0
247
241
0
240
255
0
255
255
0
255
255
0
255
252
0
252
240
0
240
254
0
254
255
0
255
255
0
255
248
0
248
237
0
236
255
0
255
255
0
255
255
0
255
249
0
248
241
0
240
255
0
255
255
0
255
255
0
255
255
0
255
255
0
255
255
0
255
255
0
255
255
0
255
255
0
255
255
0
255
231
0
228
217
0
208
229
0
222
225
0
220
255
0
221
153
0
211
0
0
226
0
0
228
5
0
224
0
0
224
68
0
228
255
0
255
255
0
255
255
0
255
255
0
255
245
0
245
250
0
250
255
0
255
255
0
255
254
0
254
249
0
249
255
0
255
255
0
255
255
0
255
255
0
255
255
0
255
255
0
255
255
0
255
255
0
255
255
0
255
255
0
255
190
0
131
185
0
112
194
0
130
194
0
138
185
0
140
211
0
42
232
0
19
225
0
35
227
0
23
214
0
3
237
0
199
255
0
255
255
0
255
255
0
255
249
0
250
246
0
246
255
0
255
255
0
255
255
0
255
253
0
253
255
0
255
255
0
255
255
0
255
255
0
255
255
0
255
255
0
255
255
0
255
255
0
255
255
0
255
255
0
255
255
0
255
254
0
255
255
0
255
255
0
255
255
0
255
255
0
255
255
0
255
255
0
255
255
0
255
255
0
255
255
0
255
227
0
222
201
0
191
215
0
207
210
0
205
253
0
206
144
0
197
0
0
213
0
0
215
5
0
213
0
0
209
63
0
210
255
0
240
252
0
244
241
0
241
242
0
242
229
0
229
236
0
236
243
0
243
240
0
240
250
0
250
233
0
233
197
0
197
196
0
196
200
0
200
201
0
201
201
0
201
201
0
201
201
0
201
201
0
200
199
0
202
195
0
196
180
0
123
182
0
111
182
0
119
183
0
128
173
0
133
197
0
37
216
0
17
210
0
33
211
0
19
198
0
0
223
0
193
248
0
255
240
0
240
244
0
244
236
0
236
229
0
229
243
0
243
241
0
241
246
0
246
248
0
248
209
0
209
189
0
189
201
0
201
201
0
201
201
0
201
201
0
201
201
0
201
200
0
200
198
0
200
190
0
197
226
0
210
250
0
219
240
0
215
241
0
213
238
0
206
243
0
235
255
0
255
255
0
255
255
0
255
255
0
255
255
0
255
229
0
225
206
0
197
219
0
213
214
0
211
254
0
211
147
0
202
0
0
218
1
0
221
6
0
219
0
0
216
65
0
217
255
0
245
254
0
248
246
0
246
247
0
247
236
0
236
241
0
241
248
0
248
245
0
245
255
0
255
208
0
208
0
0
0
0
0
0
2
0
2
2
0
2
2
0
2
2
0
2
3
0
3
3
0
2
0
0
0
1
0
2
176
0
116
215
0
144
182
0
122
188
0
135
177
0
137
203
0
38
222
0
17
216
0
33
217
0
20
204
0
1
228
0
195
251
0
255
246
0
246
248
0
248
241
0
241
236
0
236
247
0
247
246
0
246
253
0
253
250
0
250
47
0
47
0
0
0
3
0
3
2
0
2
2
0
2
2
0
2
3
0
3
2
0
2
0
0
2
0
0
0
147
0
26
255
0
56
246
0
44
247
0
44
242
0
7
233
0
149
255
0
255
255
0
255
255
0
255
255
0
255
255
0
255
231
0
228
216
0
207
229
0
221
224
0
219
255
0
220
152
0
210
0
0
225
1
0
227
6
0
225
0
0
224
68
0
227
255
0
255
255
0
255
255
0
255
255
0
255
245
0
245
251
0
251
255
0
255
255
0
255
255
0
255
217
0
217
0
0
0
0
0
0
0
0
0
0
0
0
0
0
0
0
0
0
0
0
0
0
0
0
0
0
0
0
0
0
182
0
121
223
0
151
189
0
125
193
0
138
184
0
141
210
0
42
232
0
19
224
0
36
227
0
23
213
0
3
237
0
198
255
0
255
255
0
255
255
0
255
251
0
251
246
0
246
255
0
255
255
0
255
255
0
255
255
0
255
50
0
50
0
0
0
0
0
0
0
0
0
0
0
0
0
0
0
0
0
0
0
0
0
0
0
0
0
0
0
152
0
29
255
0
61
255
0
49
255
0
49
254
0
12
241
0
152
255
0
255
255
0
255
255
0
255
255
0
255
255
0
255
228
0
226
211
0
203
224
0
216
219
0
214
255
0
215
150
0
206
0
0
222
1
0
223
6
0
221
0
0
219
67
0
221
255
0
252
255
0
255
255
0
255
255
0
255
240
0
240
248
0
248
255
0
255
255
0
255
255
0
255
218
0
218
1
0
1
0
0
0
0
0
0
0
0
0
0
0
0
0
0
0
0
0
0
0
0
0
0
0
0
5
0
4
178
0
119
216
0
145
185
0
122
189
0
134
180
0
138
206
0
42
227
0
18
220
0
34
222
0
24
208
0
3
233
0
195
255
0
255
255
0
255
255
0
255
247
0
247
240
0
240
255
0
255
255
0
255
255
0
255
255
0
255
65
0
65
0
0
0
0
0
0
0
0
0
0
0
0
0
0
0
0
0
0
0
0
0
0
0
0
0
0
0
161
0
47
255
0
78
255
0
67
255
0
67
252
0
33
239
0
161
255
0
255
255
0
255
255
0
255
255
0
255
255
0
255
242
0
237
214
0
205
229
0
219
224
0
218
255
0
219
153
0
211
0
0
227
1
0
228
5
0
225
0
0
224
68
0
227
255
0
254
255
0
255
255
0
255
255
0
255
245
0
245
251
0
251
255
0
255
255
0
255
255
0
255
220
0
220
0
0
0
0
0
0
0
0
0
0
0
0
0
0
0
0
0
0
0
0
0
0
0
0
0
0
0
5
0
3
182
0
122
221
0
149
189
0
125
194
0
138
184
0
141
209
0
43
232
0
19
225
0
36
227
0
24
213
0
2
237
0
198
255
0
255
255
0
255
255
0
255
250
0
250
246
0
246
255
0
255
255
0
255
255
0
255
255
0
255
66
0
66
0
0
0
0
0
0
0
0
0
0
0
0
0
0
0
0
0
0
0
0
0
0
0
0
0
0
0
161
0
44
255
0
76
255
0
65
255
0
65
254
0
31
243
0
160
241
0
241
229
0
229
234
0
234
234
0
234
231
0
233
219
0
216
212
0
203
219
0
211
215
0
210
254
0
211
146
0
202
0
0
216
0
0
218
4
0
215
0
0
214
65
0
217
255
0
244
253
0
248
245
0
245
246
0
246
235
0
235
240
0
240
247
0
247
244
0
244
255
0
255
214
0
214
1
0
1
0
0
0
0
0
0
0
0
0
0
0
0
0
0
0
0
0
0
0
0
0
0
0
0
5
0
3
174
0
116
212
0
142
181
0
120
186
0
132
176
0
136
202
0
40
222
0
18
215
0
34
218
0
22
203
0
1
227
0
193
250
0
255
245
0
244
247
0
247
240
0
240
236
0
236
247
0
247
245
0
245
253
0
253
255
0
255
62
0
62
0
0
0
0
0
0
0
0
0
0
0
0
0
0
0
0
0
0
0
0
0
0
0
0
0
0
0
158
0
44
255
0
74
246
0
62
247
0
62
242
0
26
238
0
159
172
0
177
93
0
103
115
0
123
117
0
124
93
0
107
137
0
143
230
0
221
216
0
211
210
0
208
253
0
210
145
0
199
0
0
212
0
0
215
6
0
213
0
0
212
63
0
212
255
0
242
253
0
247
244
0
244
245
0
245
231
0
231
238
0
238
246
0
246
242
0
242
255
0
255
212
0
212
0
0
0
0
0
0
0
0
0
0
0
0
0
0
0
0
0
0
0
0
0
0
0
0
0
0
0
5
0
4
172
0
116
209
0
140
179
0
119
183
0
131
175
0
134
199
0
36
217
0
15
211
0
31
212
0
19
200
0
1
225
0
193
250
0
255
244
0
242
246
0
246
237
0
237
230
0
230
245
0
245
244
0
244
253
0
253
255
0
255
61
0
61
0
0
0
0
0
0
0
0
0
0
0
0
0
0
0
0
0
0
0
0
0
0
0
0
0
0
0
159
0
46
255
0
71
244
0
57
246
0
57
240
0
23
231
0
158
175
0
179
92
0
105
115
0
126
117
0
126
92
0
107
144
0
148
246
0
233
228
0
221
223
0
218
255
0
219
152
0
211
0
0
228
1
0
227
5
0
225
0
0
222
67
0
226
255
0
254
255
0
255
255
0
255
255
0
255
245
0
244
250
0
250
255
0
255
255
0
255
255
0
255
219
0
219
1
0
1
0
0
0
0
0
0
0
0
0
0
0
0
0
0
0
0
0
0
0
0
0
0
0
0
5
0
4
181
0
122
221
0
147
190
0
123
195
0
136
184
0
142
209
0
41
231
0
18
224
0
35
225
0
23
212
0
3
237
0
198
255
0
255
255
0
255
255
0
255
250
0
250
244
0
244
255
0
255
255
0
255
255
0
255
255
0
255
65
0
65
0
0
0
0
0
0
0
0
0
0
0
0
0
0
0
0
0
0
0
0
0
0
0
0
0
0
0
161
0
46
255
0
76
255
0
63
255
0
63
254
0
31
240
0
160
184
0
187
103
0
114
125
0
136
127
0
137
106
0
119
148
0
151
238
0
227
225
0
217
220
0
215
255
0
215
150
0
207
0
0
223
1
0
223
5
0
221
0
0
219
66
0
223
255
0
252
255
0
255
255
0
255
255
0
255
239
0
241
247
0
248
255
0
255
255
0
255
255
0
255
218
0
219
1
0
1
0
0
0
0
0
0
0
0
0
0
0
0
0
0
0
0
0
0
0
0
0
0
0
0
5
0
3
178
0
118
217
0
145
186
0
122
190
0
134
181
0
139
206
0
43
228
0
19
221
0
35
222
0
24
209
0
1
234
0
194
255
0
255
255
0
255
255
0
255
247
0
246
241
0
240
255
0
255
255
0
255
255
0
255
255
0
255
65
0
65
0
0
0
0
0
0
0
0
0
0
0
0
0
0
0
0
0
0
0
0
0
0
0
0
0
0
0
160
0
44
255
0
76
255
0
65
255
0
65
253
0
30
241
0
159
184
0
188
104
0
115
125
0
136
127
0
137
105
0
119
148
0
153
242
0
232
229
0
222
224
0
219
255
0
221
152
0
211
0
0
226
1
0
227
5
0
225
0
0
224
72
0
228
255
0
255
255
0
255
255
0
255
255
0
255
255
0
245
255
0
250
255
0
255
255
0
255
255
0
255
225
0
215
0
0
0
0
0
0
0
0
0
0
0
0
0
0
0
0
0
0
0
0
0
0
0
0
0
0
0
6
0
0
182
0
122
221
0
151
189
0
126
194
0
139
184
0
141
210
0
42
232
0
19
224
0
35
226
0
22
213
0
0
237
0
211
255
0
255
255
0
255
255
0
255
250
0
255
246
0
249
255
0
255
255
0
255
255
0
255
255
0
255
46
0
46
0
0
0
0
0
0
0
0
0
0
0
0
0
0
0
0
0
0
0
0
0
0
0
0
0
0
0
154
0
45
255
0
76
255
0
65
255
0
65
254
0
31
241
0
159
180
0
185
99
0
109
121
0
130
123
0
130
101
0
114
139
0
146
229
0
218
216
0
209
210
0
206
252
0
207
145
0
198
0
0
214
1
0
216
5
0
214
0
0
212
65
0
211
245
0
239
244
0
243
241
0
241
241
0
242
235
0
230
240
0
237
242
0
243
240
0
239
250
0
254
201
0
204
11
0
10
9
0
7
9
0
9
14
0
13
11
0
11
2
0
2
0
0
2
1
0
3
0
0
0
6
0
3
172
0
114
210
0
141
178
0
117
183
0
130
172
0
135
198
0
37
218
0
16
211
0
32
213
0
19
200
0
4
223
0
190
246
0
250
240
0
238
243
0
238
237
0
232
231
0
235
243
0
246
241
0
241
250
0
250
249
0
249
58
0
58
2
0
2
11
0
11
10
0
11
8
0
15
6
0
3
11
0
1
10
0
2
11
0
1
3
0
0
153
0
46
254
0
72
243
0
59
243
0
60
240
0
25
234
0
159
180
0
184
98
0
107
122
0
128
124
0
129
100
0
114
140
0
146
232
0
220
218
0
210
212
0
207
253
0
209
144
0
199
0
0
214
1
0
216
6
0
215
0
0
211
17
0
210
74
0
240
67
0
244
65
0
241
54
0
243
60
0
229
129
0
236
129
0
243
124
0
240
114
0
250
128
0
235
222
0
219
225
0
223
224
0
225
232
0
230
197
0
208
17
0
92
0
0
95
2
0
109
0
0
107
6
0
102
174
0
117
209
0
125
179
0
118
184
0
129
174
0
134
200
0
38
219
0
17
211
0
32
214
0
31
202
0
27
221
0
30
244
0
37
234
0
31
238
0
23
232
0
24
231
0
203
244
0
253
242
0
240
246
0
246
247
0
247
228
0
228
219
0
219
226
0
226
225
0
227
221
0
231
218
0
79
224
0
0
225
0
1
226
0
0
216
0
0
231
0
45
250
0
73
242
0
61
244
0
60
240
0
26
234
0
159
184
0
187
103
0
114
126
0
135
128
0
137
105
0
119
149
0
153
243
0
232
229
0
222
224
0
219
255
0
220
152
0
210
0
0
226
1
0
227
6
0
225
0
0
221
13
0
224
50
0
255
45
0
255
45
0
255
32
0
255
42
0
242
121
0
249
119
0
255
117
0
255
95
0
255
121
0
249
255
0
255
255
0
255
255
0
255
255
0
255
237
0
251
16
0
110
0
0
113
2
0
128
0
0
129
6
0
123
183
0
125
221
0
131
189
0
127
193
0
138
184
0
141
210
0
43
231
0
19
224
0
33
226
0
34
213
0
35
234
0
10
255
0
2
246
0
9
249
0
0
244
0
0
245
0
209
255
0
255
255
0
255
255
0
255
250
0
250
255
0
255
255
0
255
255
0
255
255
0
255
255
0
255
255
0
96
255
0
0
255
0
0
255
0
0
255
0
0
255
0
44
255
0
77
255
0
65
255
0
65
254
0
32
241
0
159
183
0
187
102
0
114
124
0
134
126
0
136
105
0
118
146
0
150
238
0
227
225
0
217
219
0
215
255
0
215
150
0
206
0
0
223
1
0
224
6
0
221
0
0
218
20
0
221
75
0
253
71
0
255
68
0
255
60
0
255
66
0
238
135
0
247
134
0
255
130
0
254
116
0
255
127
0
240
247
0
244
255
0
255
255
0
255
255
0
255
214
0
228
10
0
93
0
0
98
2
0
112
0
0
111
5
0
107
179
0
122
217
0
130
186
0
125
189
0
135
181
0
139
207
0
43
227
0
18
220
0
33
222
0
33
208
0
31
231
0
32
253
0
34
241
0
38
245
0
18
241
0
14
241
0
213
255
0
255
255
0
255
255
0
255
248
0
247
241
0
240
255
0
255
255
0
255
255
0
255
249
0
255
238
0
83
255
0
0
255
0
0
255
0
0
249
0
0
241
0
44
255
0
77
255
0
64
255
0
64
253
0
31
240
0
159
184
0
187
104
0
115
126
0
137
128
0
137
106
0
120
148
0
154
243
0
231
229
0
220
224
0
218
255
0
219
152
0
211
0
0
225
1
0
227
6
0
226
0
0
221
19
0
223
72
0
254
67
0
255
65
0
255
56
0
255
64
0
242
135
0
249
135
0
255
131
0
255
111
0
255
131
0
245
255
0
255
255
0
255
255
0
255
255
0
255
233
0
240
13
0
97
0
0
101
1
0
116
0
0
115
5
0
110
182
0
124
220
0
133
189
0
127
194
0
138
184
0
143
208
0
42
230
0
19
223
0
34
225
0
33
213
0
31
234
0
30
255
0
30
248
0
34
251
0
14
244
0
13
244
0
221
255
0
255
255
0
255
255
0
255
250
0
255
245
0
255
255
0
255
255
0
255
255
0
255
251
0
255
242
0
92
255
0
0
255
0
2
255
0
1
251
0
0
245
0
44
255
0
77
255
0
63
255
0
62
253
0
30
240
0
159
181
0
184
97
0
108
120
0
130
122
0
131
99
0
114
140
0
147
229
0
219
215
0
209
210
0
207
253
0
207
145
0
199
0
0
213
1
0
215
6
0
214
0
0
210
17
0
210
68
0
240
61
0
245
60
0
242
51
0
244
60
0
231
128
0
238
125
0
248
122
0
244
107
0
250
126
0
235
226
0
232
229
0
238
226
0
237
236
0
243
202
0
218
17
0
92
0
0
93
1
0
108
0
0
107
3
0
103
170
0
116
209
0
124
179
0
118
184
0
129
174
0
134
198
0
35
217
0
14
211
0
29
213
0
28
200
0
27
220
0
29
243
0
30
235
0
33
238
0
15
231
0
12
230
0
203
246
0
251
243
0
238
246
0
239
236
0
241
230
0
232
246
0
227
243
0
230
246
0
233
238
0
243
228
0
82
244
0
0
245
0
2
246
0
1
239
0
0
230
0
42
244
0
71
244
0
58
246
0
58
240
0
23
233
0
158
181
0
185
97
0
109
121
0
132
123
0
132
101
0
114
143
0
147
234
0
223
220
0
213
214
0
211
254
0
211
146
0
202
0
0
217
0
0
218
6
0
217
0
0
214
18
0
216
71
0
244
65
0
248
63
0
245
53
0
246
61
0
232
131
0
241
130
0
250
121
0
246
143
0
254
111
0
222
23
0
102
25
0
109
24
0
118
31
0
121
25
0
114
3
0
103
1
0
109
2
0
110
0
0
110
3
0
105
174
0
120
214
0
128
182
0
123
187
0
134
177
0
135
203
0
38
222
0
17
216
0
31
218
0
30
205
0
29
225
0
29
246
0
31
237
0
32
241
0
28
234
0
11
233
0
99
248
0
145
246
0
120
247
0
123
244
0
139
236
0
62
247
0
21
247
0
27
248
0
29
240
0
38
233
0
10
247
0
0
246
0
0
247
0
0
242
0
0
235
0
43
246
0
75
246
0
62
247
0
63
244
0
28
237
0
159
183
0
188
103
0
115
125
0
137
127
0
138
106
0
119
149
0
153
243
0
232
229
0
221
224
0
218
255
0
220
152
0
210
0
0
226
0
0
227
6
0
226
0
0
221
19
0
224
73
0
255
69
0
255
67
0
255
57
0
255
64
0
242
135
0
249
135
0
255
125
0
255
153
0
255
115
0
228
0
0
93
0
0
99
0
0
110
0
0
108
0
0
105
0
0
108
2
0
117
2
0
114
0
0
116
5
0
111
182
0
125
221
0
133
189
0
128
194
0
139
184
0
142
210
0
43
232
0
19
225
0
34
227
0
33
213
0
32
234
0
31
255
0
31
247
0
32
251
0
31
243
0
13
243
0
87
255
0
132
255
0
112
255
0
115
255
0
135
246
0
39
255
0
0
255
0
7
255
0
6
250
0
7
243
0
1
255
0
0
255
0
0
255
0
0
253
0
0
246
0
45
255
0
78
255
0
65
255
0
65
254
0
33
242
0
160
183
0
187
103
0
114
124
0
133
126
0
135
104
0
118
146
0
150
237
0
227
225
0
217
219
0
214
255
0
215
149
0
206
0
0
222
1
0
223
6
0
221
0
0
217
19
0
220
70
0
252
66
0
255
64
0
255
56
0
255
63
0
238
132
0
246
132
0
255
122
0
254
145
0
255
116
0
229
0
0
111
0
0
118
1
0
125
1
0
126
2
0
120
2
0
104
2
0
111
2
0
111
0
0
112
5
0
108
178
0
121
216
0
129
185
0
124
189
0
134
180
0
138
206
0
42
227
0
18
220
0
33
222
0
33
208
0
31
230
0
30
252
0
30
242
0
32
245
0
28
237
0
12
238
0
103
255
0
151
255
0
128
255
0
132
253
0
151
241
0
63
253
0
11
255
0
38
255
0
37
248
0
41
239
0
11
255
0
0
255
0
0
255
0
0
249
0
0
241
0
44
255
0
76
255
0
64
255
0
63
252
0
30
239
0
159
183
0
188
104
0
115
126
0
137
127
0
137
106
0
119
149
0
153
244
0
232
229
0
222
223
0
218
255
0
221
153
0
211
0
0
226
1
0
228
7
0
226
0
0
222
19
0
225
73
0
255
69
0
255
67
0
255
57
0
255
64
0
243
135
0
250
135
0
255
126
0
255
149
0
255
118
0
231
0
0
112
0
0
117
1
0
125
1
0
126
2
0
120
2
0
107
2
0
115
2
0
114
0
0
116
5
0
112
183
0
123
222
0
132
190
0
128
194
0
138
185
0
141
210
0
43
231
0
19
224
0
34
226
0
33
213
0
31
234
0
30
255
0
31
246
0
32
250
0
28
243
0
13
243
0
103
255
0
151
255
0
129
255
0
133
255
0
151
246
0
61
255
0
10
255
0
35
255
0
34
251
0
38
244
0
11
255
0
0
255
0
0
255
0
0
253
0
0
246
0
45
255
0
78
255
0
65
255
0
65
254
0
33
242
0
160
181
0
186
100
0
110
123
0
132
124
0
133
102
0
114
143
0
148
235
0
224
220
0
215
214
0
213
254
0
212
147
0
202
0
0
218
0
0
221
6
0
219
0
0
214
18
0
215
71
0
245
65
0
247
64
0
245
53
0
246
61
0
234
130
0
241
129
0
249
120
0
246
143
0
255
114
0
224
0
0
106
0
0
112
1
0
120
1
0
122
2
0
116
3
0
104
1
0
110
1
0
110
0
0
111
3
0
106
175
0
119
215
0
127
183
0
122
188
0
133
177
0
137
202
0
39
223
0
18
217
0
32
219
0
31
205
0
30
225
0
29
247
0
29
239
0
31
242
0
28
234
0
12
234
0
99
248
0
145
246
0
123
247
0
127
244
0
146
236
0
57
246
0
8
247
0
32
248
0
32
240
0
35
234
0
11
246
0
0
247
0
0
248
0
0
241
0
0
236
0
43
247
0
75
246
0
62
248
0
61
243
0
27
236
0
160
181
0
185
97
0
108
120
0
129
122
0
129
99
0
113
140
0
145
229
0
218
215
0
209
209
0
206
253
0
206
145
0
197
0
0
213
0
0
214
6
0
212
0
0
209
17
0
209
68
0
239
62
0
243
60
0
240
51
0
242
60
0
228
127
0
236
126
0
247
118
0
241
139
0
255
110
0
222
0
0
103
0
0
110
1
0
118
1
0
119
2
0
114
3
0
98
1
0
105
1
0
106
0
0
105
3
0
100
170
0
117
208
0
126
177
0
120
183
0
130
173
0
134
198
0
36
218
0
17
211
0
32
213
0
30
200
0
28
219
0
28
241
0
29
234
0
32
237
0
28
229
0
14
229
0
98
245
0
140
243
0
120
244
0
124
240
0
143
229
0
56
240
0
9
241
0
32
244
0
31
236
0
34
228
0
10
243
0
0
241
0
0
243
0
0
236
0
0
229
0
42
243
0
72
243
0
59
245
0
58
239
0
23
232
0
158
183
0
187
103
0
114
125
0
136
127
0
136
106
0
119
149
0
153
244
0
233
230
0
221
224
0
219
255
0
220
153
0
212
0
0
226
1
0
227
7
0
225
0
0
222
19
0
225
73
0
254
68
0
255
66
0
255
57
0
255
65
0
243
135
0
249
134
0
255
125
0
255
148
0
255
117
0
231
0
0
112
0
0
117
1
0
125
1
0
126
2
0
120
2
0
107
2
0
114
2
0
113
0
0
114
5
0
110
182
0
124
221
0
132
189
0
127
194
0
138
185
0
141
211
0
42
231
0
19
224
0
34
226
0
33
214
0
31
234
0
30
255
0
31
247
0
33
250
0
29
243
0
14
243
0
104
255
0
150
255
0
128
255
0
132
254
0
151
246
0
61
255
0
11
255
0
35
255
0
34
251
0
38
244
0
10
255
0
0
255
0
0
255
0
0
252
0
0
245
0
45
255
0
79
255
0
66
255
0
66
253
0
32
241
0
159
183
0
187
102
0
114
124
0
134
126
0
136
105
0
118
146
0
149
239
0
227
225
0
217
219
0
214
255
0
216
150
0
207
0
0
222
1
0
224
6
0
222
0
0
218
19
0
221
71
0
253
67
0
255
65
0
255
56
0
255
63
0
238
133
0
246
133
0
255
123
0
255
146
0
255
116
0
228
0
0
109
0
0
114
1
0
122
1
0
124
2
0
118
2
0
105
2
0
112
2
0
112
0
0
112
5
0
108
179
0
121
217
0
130
186
0
125
190
0
135
180
0
139
206
0
42
227
0
18
220
0
33
222
0
33
209
0
32
231
0
30
252
0
30
241
0
32
246
0
28
238
0
11
239
0
100
255
0
148
255
0
126
255
0
129
253
0
147
242
0
61
254
0
9
255
0
34
255
0
33
249
0
37
239
0
10
255
0
0
255
0
0
255
0
0
249
0
0
242
0
44
255
0
77
255
0
64
255
0
63
252
0
30
240
0
159
183
0
188
104
0
115
125
0
136
127
0
137
107
0
119
149
0
153
242
0
231
229
0
221
222
0
218
255
0
219
152
0
211
0
0
225
1
0
227
7
0
225
0
0
221
19
0
225
73
0
255
68
0
255
66
0
255
57
0
255
65
0
243
135
0
249
135
0
255
125
0
255
148
0
255
118
0
231
0
0
112
0
0
117
1
0
125
1
0
126
1
0
120
2
0
107
2
0
115
2
0
114
0
0
115
5
0
110
181
0
123
220
0
132
189
0
127
193
0
138
185
0
141
210
0
42
231
0
19
223
0
34
225
0
33
213
0
31
234
0
30
255
0
31
246
0
33
250
0
29
242
0
13
242
0
103
255
0
151
255
0
128
255
0
132
254
0
151
244
0
63
255
0
9
255
0
35
255
0
34
250
0
38
243
0
11
255
0
0
255
0
0
255
0
0
253
0
0
245
0
45
255
0
78
255
0
65
255
0
65
254
0
31
242
0
160
181
0
185
99
0
108
121
0
130
122
0
131
100
0
115
141
0
147
230
0
219
216
0
210
211
0
207
253
0
208
146
0
200
0
0
215
0
0
216
6
0
214
0
0
210
17
0
211
69
0
241
62
0
245
61
0
243
50
0
245
61
0
230
129
0
238
128
0
249
118
0
244
141
0
255
112
0
223
0
0
104
0
0
112
1
0
120
1
0
121
1
0
115
3
0
101
1
0
107
1
0
107
0
0
107
3
0
102
170
0
118
209
0
127
179
0
120
184
0
131
176
0
135
200
0
37
218
0
17
212
0
32
214
0
30
202
0
28
221
0
28
244
0
30
236
0
32
239
0
28
231
0
14
231
0
100
248
0
143
244
0
121
246
0
125
243
0
145
232
0
58
243
0
9
243
0
33
246
0
31
238
0
35
230
0
11
245
0
0
244
0
1
246
0
0
238
0
0
231
0
43
245
0
72
245
0
59
247
0
59
241
0
23
233
0
158
180
0
184
96
0
107
121
0
129
122
0
130
99
0
113
140
0
146
230
0
220
215
0
210
210
0
207
252
0
208
143
0
198
0
0
214
0
0
216
5
0
213
0
0
210
18
0
210
69
0
239
63
0
244
62
0
241
51
0
242
59
0
229
128
0
238
127
0
246
119
0
242
141
0
255
111
0
222
0
0
103
0
0
110
1
0
119
1
0
120
2
0
114
3
0
101
1
0
107
1
0
107
0
0
107
3
0
103
172
0
117
209
0
125
178
0
118
184
0
130
174
0
135
198
0
38
218
0
17
211
0
32
213
0
30
200
0
29
220
0
28
242
0
29
234
0
31
237
0
27
230
0
11
230
0
98
246
0
142
243
0
120
244
0
127
238
0
137
231
0
45
242
0
12
241
0
31
244
0
31
236
0
34
229
0
10
243
0
0
243
0
0
243
0
0
236
0
0
230
0
43
243
0
73
243
0
59
245
0
59
240
0
24
233
0
158
183
0
187
103
0
114
126
0
136
127
0
137
105
0
119
148
0
153
243
0
233
229
0
221
224
0
219
255
0
221
151
0
211
0
0
226
1
0
228
7
0
225
0
0
222
19
0
225
73
0
254
68
0
255
67
0
255
57
0
255
64
0
243
135
0
249
135
0
255
125
0
255
149
0
255
117
0
230
0
0
112
0
0
116
1
0
125
1
0
126
2
0
120
2
0
107
2
0
115
2
0
114
0
0
115
5
0
110
182
0
123
222
0
132
190
0
127
194
0
138
184
0
141
210
0
43
232
0
18
224
0
33
227
0
32
213
0
32
235
0
30
255
0
30
247
0
32
251
0
28
243
0
13
243
0
103
255
0
150
255
0
127
255
0
136
249
0
144
245
0
44
255
0
13
255
0
34
255
0
34
251
0
37
244
0
10
255
0
0
255
0
0
255
0
0
252
0
0
246
0
45
255
0
77
255
0
65
255
0
64
254
0
33
242
0
160
183
0
187
103
0
114
124
0
133
126
0
135
104
0
118
146
0
151
238
0
226
225
0
216
219
0
214
255
0
215
150
0
206
0
0
222
1
0
224
6
0
222
0
0
218
19
0
220
70
0
252
67
0
255
65
0
255
57
0
255
63
0
238
132
0
246
133
0
255
123
0
254
145
0
255
115
0
228
0
0
109
0
0
115
1
0
123
1
0
124
2
0
118
2
0
104
2
0
111
2
0
112
0
0
113
5
0
108
178
0
121
216
0
129
185
0
124
189
0
135
180
0
139
206
0
43
227
0
18
220
0
33
222
0
33
208
0
31
231
0
30
252
0
30
242
0
32
245
0
28
237
0
13
238
0
100
255
0
147
255
0
124
255
0
132
248
0
143
242
0
46
255
0
13
255
0
34
255
0
33
248
0
37
239
0
10
255
0
0
255
0
0
255
0
0
249
0
0
241
0
44
255
0
76
255
0
64
255
0
63
252
0
31
240
0
159
183
0
187
103
0
115
125
0
136
127
0
137
105
0
120
148
0
153
242
0
231
228
0
220
223
0
217
255
0
218
152
0
209
0
0
226
1
0
226
6
0
224
0
0
220
19
0
224
72
0
255
68
0
255
66
0
255
57
0
255
64
0
241
134
0
248
134
0
255
125
0
255
148
0
255
117
0
231
0
0
111
0
0
116
1
0
124
1
0
125
2
0
120
2
0
106
2
0
114
2
0
114
0
0
115
5
0
110
181
0
123
220
0
131
188
0
126
193
0
137
183
0
141
209
0
42
230
0
19
223
0
34
225
0
34
212
0
31
233
0
30
255
0
31
245
0
32
249
0
28
241
0
13
241
0
103
255
0
150
255
0
127
255
0
134
251
0
144
245
0
47
255
0
13
255
0
35
255
0
34
251
0
37
243
0
10
255
0
0
255
0
0
255
0
0
252
0
0
245
0
45
255
0
78
255
0
65
255
0
65
254
0
32
242
0
159
182
0
186
100
0
111
123
0
133
125
0
134
102
0
116
144
0
149
236
0
225
223
0
215
217
0
213
254
0
213
148
0
204
0
0
220
1
0
222
6
0
220
0
0
216
18
0
219
72
0
246
66
0
249
64
0
248
54
0
249
62
0
236
132
0
243
131
0
251
121
0
249
145
0
255
115
0
226
0
0
108
0
0
114
1
0
122
1
0
123
1
0
117
2
0
103
2
0
112
2
0
110
0
0
111
5
0
107
177
0
121
215
0
129
184
0
124
188
0
136
179
0
137
205
0
40
224
0
17
218
0
32
220
0
31
207
0
30
227
0
29
248
0
30
239
0
32
242
0
27
236
0
13
236
0
100
250
0
146
248
0
125
249
0
133
243
0
141
240
0
45
250
0
12
248
0
34
250
0
33
243
0
35
236
0
10
250
0
0
250
0
0
250
0
0
245
0
0
237
0
44
249
0
76
249
0
63
249
0
63
245
0
29
238
0
159
181
0
183
97
0
107
121
0
128
121
0
129
99
0
113
138
0
145
227
0
217
213
0
207
207
0
205
252
0
205
143
0
196
0
0
212
1
0
213
6
0
212
0
0
208
17
0
208
68
0
238
62
0
243
61
0
239
51
0
241
60
0
228
126
0
237
124
0
246
115
0
241
138
0
255
110
0
220
0
0
102
0
0
110
3
0
117
3
0
119
2
0
114
2
0
99
2
0
105
2
0
105
0
0
106
4
0
101
169
0
114
206
0
123
177
0
118
182
0
128
173
0
132
197
0
35
215
0
15
209
0
30
210
0
28
198
0
27
218
0
28
240
0
29
232
0
32
236
0
28
229
0
14
228
0
95
245
0
137
240
0
118
244
0
125
235
0
132
232
0
45
245
0
13
241
0
31
245
0
29
236
0
34
227
0
11
244
0
0
242
0
3
244
0
1
237
0
0
228
0
41
241
0
72
241
0
58
243
0
58
239
0
24
232
0
158
183
0
187
103
0
114
126
0
136
127
0
136
105
0
119
147
0
153
243
0
230
229
0
220
223
0
217
255
0
218
151
0
209
0
0
224
1
0
226
6
0
225
0
0
220
18
0
222
72
0
253
67
0
255
65
0
255
56
0
255
63
0
241
134
0
248
133
0
255
124
0
255
148
0
255
117
0
229
0
0
110
0
0
115
3
0
124
3
0
125
3
0
120
3
0
106
1
0
112
1
0
112
0
0
114
5
0
108
180
0
123
219
0
132
188
0
126
194
0
136
183
0
142
208
0
40
229
0
19
222
0
34
224
0
32
211
0
31
232
0
30
254
0
32
247
0
32
251
0
29
243
0
13
242
0
103
255
0
149
254
0
126
255
0
134
250
0
144
245
0
46
255
0
12
255
0
33
255
0
33
249
0
37
241
0
12
255
0
0
254
0
1
255
0
1
250
0
0
243
0
44
255
0
77
255
0
63
255
0
62
252
0
30
239
0
159
183
0
187
103
0
114
124
0
134
126
0
136
105
0
118
146
0
151
239
0
228
226
0
218
221
0
215
255
0
216
151
0
207
0
0
222
1
0
224
6
0
223
0
0
219
19
0
221
71
0
253
67
0
255
65
0
255
56
0
255
63
0
239
133
0
247
133
0
255
123
0
255
146
0
255
116
0
229
0
0
110
0
0
114
1
0
123
1
0
124
2
0
118
2
0
106
2
0
113
2
0
113
0
0
114
5
0
110
180
0
123
218
0
131
187
0
126
190
0
136
181
0
141
206
0
43
228
0
18
221
0
33
223
0
33
209
0
31
231
0
30
253
0
30
243
0
31
246
0
27
238
0
12
239
0
101
255
0
149
255
0
125
255
0
134
249
0
143
243
0
47
255
0
14
255
0
37
255
0
37
248
0
41
240
0
11
255
0
0
255
0
0
255
0
0
249
0
0
243
0
44
255
0
77
255
0
64
255
0
64
253
0
31
241
0
159
184
0
188
104
0
116
125
0
136
127
0
137
106
0
119
148
0
153
242
0
232
228
0
221
223
0
219
255
0
220
152
0
210
0
0
225
0
0
228
0
0
226
0
0
221
14
0
223
75
0
255
69
0
255
66
0
255
57
0
255
64
0
242
135
0
249
135
0
255
125
0
255
149
0
255
118
0
231
0
0
112
0
0
116
1
0
125
1
0
127
1
0
120
0
0
101
0
0
110
0
0
110
0
0
110
0
0
105
180
0
119
220
0
128
187
0
124
191
0
135
182
0
137
210
0
41
232
0
19
225
0
33
227
0
33
213
0
31
234
0
30
255
0
30
246
0
33
250
0
29
243
0
12
242
0
103
255
0
151
255
0
127
255
0
136
251
0
149
246
0
36
255
0
0
255
0
20
255
0
18
250
0
19
243
0
4
255
0
0
255
0
0
255
0
0
252
0
0
245
0
45
255
0
78
255
0
65
255
0
64
254
0
32
241
0
160
181
0
184
99
0
109
122
0
131
124
0
131
102
0
115
143
0
148
235
0
224
221
0
215
216
0
211
255
0
213
134
0
202
0
0
214
0
0
216
0
0
214
0
0
210
1
0
213
72
0
245
67
0
247
63
0
245
53
0
246
62
0
234
130
0
241
129
0
248
121
0
245
144
0
255
114
0
224
0
0
107
0
0
112
1
0
120
1
0
126
0
0
114
0
0
78
0
0
84
0
0
86
0
0
85
0
0
77
161
0
94
204
0
104
169
0
98
174
0
109
164
0
114
201
0
32
225
0
20
216
0
32
218
0
31
206
0
30
225
0
29
246
0
30
239
0
32
242
0
28
234
0
14
234
0
99
248
0
143
246
0
121
248
0
131
242
0
140
237
0
31
249
0
0
247
0
1
249
0
3
241
0
10
232
0
2
248
0
0
247
0
0
248
0
0
242
0
0
234
0
43
247
0
75
247
0
60
249
0
61
244
0
28
236
0
159
180
0
184
98
0
107
121
0
128
123
0
129
99
0
113
140
0
145
228
0
216
215
0
208
212
0
206
224
0
202
190
0
204
157
0
230
164
0
230
164
0
229
176
0
227
133
0
223
43
0
236
57
0
241
62
0
238
51
0
240
60
0
229
128
0
237
126
0
243
118
0
239
140
0
255
110
0
221
0
0
103
0
0
110
2
0
120
0
0
109
22
0
113
156
0
188
175
0
200
163
0
192
161
0
194
166
0
193
216
0
199
227
0
201
217
0
195
221
0
206
215
0
208
202
0
50
211
0
6
210
0
32
211
0
29
199
0
29
218
0
29
241
0
30
232
0
30
235
0
27
229
0
13
229
0
97
243
0
140
240
0
120
242
0
121
238
0
105
232
0
162
241
0
202
239
0
197
242
0
201
236
0
212
227
0
69
241
0
0
241
0
1
243
0
0
236
0
0
229
0
42
242
0
72
241
0
59
243
0
59
238
0
24
233
0
158
183
0
189
103
0
115
126
0
137
128
0
137
105
0
119
148
0
153
243
0
232
229
0
221
227
0
220
216
0
214
237
0
220
255
0
255
255
0
255
255
0
255
255
0
255
214
0
247
32
0
249
58
0
255
68
0
255
56
0
255
63
0
241
135
0
248
135
0
255
126
0
255
150
0
255
118
0
231
0
0
112
0
0
117
1
0
128
0
0
108
37
0
122
255
0
255
255
0
255
255
0
255
255
0
255
255
0
255
255
0
255
255
0
255
255
0
255
255
0
255
255
0
255
221
0
63
221
0
0
225
0
35
226
0
33
213
0
32
234
0
30
255
0
31
246
0
32
250
0
28
243
0
11
242
0
103
255
0
151
255
0
130
255
0
128
254
0
101
245
0
214
254
0
255
255
0
255
255
0
255
251
0
255
245
0
93
255
0
0
255
0
0
255
0
0
251
0
0
245
0
45
255
0
78
255
0
65
255
0
65
253
0
31
241
0
160
183
0
187
103
0
114
124
0
134
126
0
136
104
0
118
146
0
151
239
0
228
226
0
218
224
0
216
220
0
209
220
0
215
254
0
255
255
0
255
255
0
255
255
0
255
188
0
240
36
0
248
60
0
255
67
0
255
58
0
255
64
0
239
132
0
247
132
0
255
123
0
255
146
0
255
115
0
228
0
0
109
0
0
114
1
0
125
0
0
109
28
0
119
235
0
242
255
0
255
255
0
255
255
0
255
255
0
255
255
0
255
255
0
255
255
0
255
255
0
255
249
0
255
215
0
57
219
0
2
221
0
35
223
0
33
209
0
32
231
0
30
252
0
30
242
0
32
246
0
28
237
0
12
238
0
102
255
0
149
255
0
128
255
0
128
253
0
103
242
0
194
252
0
255
255
0
255
255
0
255
249
0
255
240
0
85
255
0
0
255
0
0
255
0
0
249
0
0
242
0
44
255
0
76
255
0
65
255
0
65
253
0
31
241
0
159
183
0
187
104
0
115
125
0
135
126
0
137
105
0
119
147
0
152
241
0
229
227
0
219
225
0
217
222
0
211
221
0
216
253
0
254
255
0
255
255
0
255
255
0
255
187
0
241
28
0
250
54
0
255
63
0
255
50
0
255
59
0
241
136
0
249
134
0
255
124
0
255
148
0
255
117
0
230
0
0
111
0
0
115
1
0
126
0
0
111
30
0
120
236
0
242
255
0
255
255
0
255
255
0
255
255
0
255
255
0
255
255
0
255
255
0
255
255
0
255
250
0
255
219
0
57
222
0
2
225
0
36
225
0
33
212
0
31
233
0
31
255
0
32
247
0
33
251
0
30
243
0
15
241
0
99
255
0
143
255
0
123
255
0
123
255
0
96
241
0
190
252
0
255
255
0
255
255
0
255
249
0
255
241
0
78
255
0
0
255
0
0
255
0
0
251
0
0
244
0
40
255
0
80
255
0
64
255
0
64
254
0
32
241
0
161
182
0
187
101
0
111
123
0
134
125
0
136
105
0
117
144
0
147
233
0
219
217
0
207
215
0
205
209
0
198
213
0
206
254
0
254
255
0
255
255
0
255
255
0
255
177
0
238
0
0
242
17
0
251
28
0
250
11
0
251
29
0
236
132
0
239
130
0
247
119
0
245
143
0
255
113
0
222
0
0
107
0
0
113
1
0
124
0
0
107
30
0
118
235
0
242
255
0
255
255
0
255
255
0
255
255
0
255
255
0
255
255
0
255
255
0
255
255
0
255
250
0
255
210
0
58
210
0
0
214
0
32
215
0
29
203
0
28
221
0
29
245
0
31
237
0
32
241
0
30
234
0
14
232
0
86
248
0
127
245
0
103
246
0
104
241
0
74
235
0
184
254
0
255
255
0
255
255
0
255
250
0
255
231
0
76
244
0
0
246
0
0
248
0
0
240
0
0
232
0
34
246
0
77
245
0
58
248
0
58
242
0
25
233
0
158
180
0
184
96
0
105
119
0
128
122
0
130
95
0
107
142
0
147
242
0
239
232
0
230
229
0
227
224
0
222
231
0
230
255
0
255
255
0
255
255
0
255
255
0
255
227
0
244
158
0
232
169
0
237
171
0
238
176
0
238
157
0
224
116
0
237
118
0
244
118
0
240
139
0
255
110
0
220
0
0
103
0
0
109
4
0
120
0
0
102
30
0
113
237
0
241
255
0
255
255
0
255
255
0
255
255
0
255
255
0
255
255
0
255
255
0
255
255
0
255
250
0
255
208
0
59
207
0
1
213
0
32
213
0
30
200
0
29
221
0
28
240
0
29
233
0
31
236
0
22
228
0
1
228
0
163
245
0
228
242
0
210
242
0
212
240
0
204
247
0
235
255
0
255
255
0
255
255
0
255
254
0
255
241
0
206
241
0
175
242
0
189
245
0
191
238
0
195
231
0
90
243
0
33
241
0
64
245
0
61
240
0
26
235
0
158
182
0
186
103
0
113
124
0
133
128
0
136
98
0
110
153
0
161
255
0
255
255
0
255
255
0
255
255
0
255
255
0
255
255
0
255
255
0
255
255
0
255
254
0
254
255
0
255
255
0
254
255
0
252
255
0
253
255
0
253
245
0
239
111
0
249
121
0
255
127
0
255
148
0
255
118
0
231
0
0
110
0
0
114
3
0
126
0
0
109
30
0
119
236
0
243
255
0
255
255
0
255
255
0
255
255
0
255
255
0
255
255
0
255
255
0
255
255
0
255
249
0
255
218
0
58
223
0
2
226
0
36
226
0
33
213
0
31
234
0
30
255
0
30
247
0
32
250
0
21
243
0
0
242
0
198
255
0
255
255
0
255
255
0
255
255
0
255
255
0
255
255
0
255
255
0
255
255
0
255
255
0
255
255
0
255
255
0
255
255
0
255
255
0
255
252
0
255
245
0
118
255
0
18
255
0
70
255
0
66
254
0
31
242
0
159
183
0
187
104
0
114
126
0
136
129
0
140
101
0
111
151
0
157
255
0
255
255
0
255
255
0
255
255
0
255
255
0
255
255
0
255
255
0
255
255
0
255
255
0
255
255
0
255
255
0
255
255
0
255
255
0
255
255
0
255
226
0
243
112
0
247
122
0
255
126
0
254
147
0
255
117
0
229
0
0
111
0
0
116
2
0
126
0
0
110
29
0
120
235
0
242
255
0
255
255
0
255
255
0
255
255
0
255
255
0
255
255
0
255
255
0
255
255
0
255
249
0
255
216
0
58
218
0
2
222
0
38
223
0
35
209
0
34
231
0
33
253
0
33
242
0
35
246
0
26
239
0
0
239
0
185
255
0
255
255
0
255
255
0
255
255
0
255
255
0
255
255
0
255
255
0
255
255
0
255
255
0
255
255
0
255
255
0
255
255
0
255
255
0
255
249
0
255
241
0
109
255
0
27
255
0
71
255
0
67
252
0
33
240
0
161
181
0
185
100
0
112
124
0
135
127
0
137
97
0
107
150
0
157
255
0
255
255
0
255
255
0
255
255
0
255
255
0
255
255
0
255
255
0
255
255
0
255
255
0
255
255
0
255
255
0
255
255
0
255
255
0
255
255
0
255
224
0
240
105
0
249
115
0
255
120
0
255
141
0
255
110
0
230
0
0
108
0
0
113
0
0
124
0
0
108
24
0
118
235
0
242
255
0
255
255
0
255
255
0
255
255
0
255
255
0
255
255
0
255
255
0
255
255
0
255
249
0
255
215
0
48
219
0
0
222
0
21
223
0
19
209
0
15
233
0
14
255
0
15
244
0
19
248
0
9
241
0
0
239
0
182
255
0
255
255
0
255
255
0
255
255
0
255
255
0
255
255
0
255
255
0
255
255
0
255
255
0
255
255
0
255
255
0
255
255
0
255
255
0
255
248
0
255
242
0
99
255
0
11
255
0
57
255
0
53
253
0
16
241
0
154
166
0
172
78
0
90
103
0
113
105
0
116
72
0
85
137
0
147
255
0
255
255
0
255
255
0
255
255
0
255
255
0
255
255
0
255
255
0
255
255
0
255
255
0
255
255
0
255
255
0
255
255
0
255
255
0
255
255
0
255
216
0
239
86
0
243
98
0
251
102
0
250
128
0
255
91
0
222
0
0
86
0
0
91
0
0
103
0
0
83
8
0
97
230
0
240
255
0
255
255
0
255
255
0
255
255
0
255
255
0
255
255
0
255
255
0
255
255
0
255
248
0
253
207
0
49
209
0
0
213
0
9
214
0
8
201
0
6
225
0
7
248
0
7
238
0
7
242
0
0
234
0
0
236
0
179
255
0
255
255
0
255
255
0
255
255
0
255
255
0
255
255
0
255
255
0
255
255
0
255
255
0
255
255
0
255
255
0
255
255
0
255
255
0
255
250
0
255
236
0
93
247
0
0
250
0
41
251
0
35
247
0
0
235
0
146
214
0
214
174
0
178
186
0
191
187
0
192
172
0
177
202
0
204
255
0
255
255
0
255
255
0
255
255
0
255
255
0
255
255
0
255
255
0
255
255
0
255
255
0
255
255
0
255
255
0
255
255
0
255
255
0
255
255
0
255
242
0
247
201
0
235
205
0
238
206
0
236
219
0
248
201
0
230
143
0
179
144
0
182
148
0
186
138
0
178
152
0
185
243
0
248
255
0
255
255
0
255
255
0
255
255
0
255
255
0
255
255
0
255
255
0
255
255
0
255
252
0
254
236
0
200
236
0
184
238
0
198
239
0
198
236
0
198
239
0
201
242
0
199
241
0
197
241
0
193
237
0
182
246
0
234
255
0
255
255
0
255
255
0
255
255
0
255
255
0
255
255
0
255
255
0
255
255
0
255
255
0
255
255
0
255
255
0
255
255
0
255
255
0
255
255
0
255
240
0
217
237
0
191
242
0
204
242
0
201
239
0
191
243
0
229
