P3
72 72
255
0
0
0
0
0
0
0
0
0
0
0
0
0
0
0
0
0
0
0
0
0
0
0
0
0
0
0
0
0
0
0
0
0
0
0
0
0
0
0
0
0
0
0
0
0
0
0
0
0
0
0
0
0
0
0
0
0
0
0
0
0
0
0
0
0
0
0
0
0
0
0
0
0
0
0
21
11
15
124
36
84
121
31
78
113
29
71
113
30
71
112
33
71
113
19
76
114
13
74
113
17
74
118
14
74
119
20
79
48
21
74
33
14
68
44
16
72
43
14
66
50
20
69
37
23
108
27
14
111
30
16
106
30
15
114
39
22
125
14
12
32
0
0
0
0
0
0
0
0
0
0
0
0
0
0
0
0
0
0
0
0
0
0
0
0
0
0
0
0
0
0
0
0
0
0
0
0
0
0
0
0
0
0
0
0
0
0
0
0
0
0
0
0
0
0
0
0
0
0
0
0
0
0
0
0
0
0
0
0
0
0
0
0
0
0
0
0
0
0
0
0
0
0
0
0
0
0
0
0
0
0
0
0
0
0
0
0
0
0
0
0
0
0
0
0
0
0
0
0
0
0
0
0
0
0
0
0
0
0
0
0
0
0
0
0
0
0
0
0
0
0
0
0
0
0
0
0
0
0
0
0
0
0
0
0
0
0
0
0
0
0
44
19
30
255
46
167
255
37
163
255
37
152
255
38
149
255
44
159
255
12
175
255
1
164
255
5
164
255
2
165
255
12
171
86
13
155
45
2
143
82
4
151
76
2
139
85
11
136
54
15
247
30
3
255
38
4
255
36
3
255
51
12
255
23
15
65
0
0
0
0
0
0
0
0
0
0
0
0
0
0
0
0
0
0
0
0
0
0
0
0
0
0
0
0
0
0
0
0
0
0
0
0
0
0
0
0
0
0
0
0
0
0
0
0
0
0
0
0
0
0
0
0
0
0
0
0
0
0
0
0
0
0
0
0
0
0
0
0
0
0
0
0
0
0
0
0
0
0
0
0
0
0
0
0
0
0
0
0
0
0
0
0
0
0
0
0
0
0
0
0
0
0
0
0
0
0
0
0
0
0
0
0
0
0
0
0
0
0
0
0
0
0
0
0
0
0
0
0
0
0
0
0
0
0
0
0
0
0
0
0
0
0
0
0
0
0
37
16
26
255
40
147
255
29
141
255
30
133
255
31
132
255
38
138
255
9
151
255
0
144
255
0
145
255
0
143
254
8
148
75
10
134
36
0
126
68
0
131
63
0
120
73
6
115
47
11
216
26
0
240
33
0
223
31
0
235
44
8
255
21
13
59
0
0
0
0
0
0
0
0
0
0
0
0
0
0
0
0
0
0
0
0
0
0
0
0
0
0
0
0
0
0
0
0
0
0
0
0
0
0
0
0
0
0
0
0
0
0
0
0
0
0
0
0
0
0
0
0
0
0
0
0
0
0
0
0
0
0
0
0
0
0
0
0
0
0
0
0
0
0
0
0
0
0
0
0
0
0
0
0
0
0
0
0
0
0
0
0
0
0
0
0
0
0
0
0
0
0
0
0
0
0
0
0
0
0
0
0
0
0
0
0
0
0
0
0
0
0
0
0
0
0
0
0
0
0
0
0
0
0
0
0
0
0
0
0
0
0
0
0
0
0
38
15
25
255
40
145
255
30
139
254
31
132
254
32
130
253
38
136
253
10
149
253
0
141
253
0
142
255
0
141
250
8
145
75
10
132
37
0
124
68
0
129
63
0
119
73
7
115
48
11
211
26
0
235
33
0
219
31
0
230
45
9
253
20
12
60
0
0
0
0
0
0
0
0
0
0
0
0
0
0
0
0
0
0
0
0
0
0
0
0
0
0
0
0
0
0
0
0
0
0
0
0
0
0
0
0
0
0
0
0
0
0
0
0
0
0
0
0
0
0
0
0
0
0
0
0
0
0
0
0
0
0
0
0
0
0
0
0
0
0
0
0
0
0
0
0
0
0
0
0
0
0
0
0
0
0
0
0
0
0
0
0
0
0
0
0
0
0
0
0
0
0
0
0
0
0
0
0
0
0
0
0
0
0
0
2
0
0
0
0
0
1
0
0
2
0
0
1
0
0
1
0
0
0
0
0
1
0
0
2
0
0
2
0
0
0
26
14
29
254
42
147
255
33
140
252
32
132
253
33
131
253
39
137
253
11
150
253
0
144
254
2
144
255
1
143
251
11
148
76
13
134
38
0
124
69
2
132
64
1
120
74
9
114
49
13
216
28
1
238
35
2
220
33
1
236
47
10
255
22
14
33
0
0
0
0
1
0
0
2
0
0
1
0
0
0
0
1
0
0
1
0
0
2
0
0
2
0
0
0
0
0
0
1
0
0
0
0
0
0
0
0
0
0
0
0
0
0
0
0
0
0
0
0
0
0
0
0
0
0
0
0
0
0
0
0
0
0
0
0
0
0
0
0
0
0
0
0
0
0
0
0
0
0
0
0
0
0
0
0
0
0
0
0
0
0
0
0
0
0
0
0
0
0
0
0
0
0
0
0
0
0
0
0
0
0
0
0
0
0
0
0
30
22
11
102
67
18
89
57
13
84
54
14
90
60
13
87
58
19
59
24
18
59
24
16
63
27
18
43
23
0
88
39
36
255
52
153
255
42
145
253
43
137
253
44
135
254
51
142
253
21
156
253
7
151
254
14
150
255
10
150
252
24
155
87
25
141
49
10
133
79
15
137
74
11
128
82
22
124
60
28
220
41
12
241
47
14
225
45
11
234
57
23
243
34
27
127
11
12
84
19
16
97
18
14
97
20
16
100
19
26
72
14
26
53
16
25
61
14
25
64
18
31
78
11
15
31
0
0
0
0
0
0
0
0
0
0
0
0
0
0
0
0
0
0
0
0
0
0
0
0
0
0
0
0
0
0
0
0
0
0
0
0
0
0
0
0
0
0
0
0
0
0
0
0
0
0
0
0
0
0
0
0
0
0
0
0
0
0
0
0
0
0
0
0
0
0
0
0
0
0
0
0
0
0
0
0
0
0
0
0
0
0
0
0
0
0
77
53
17
255
163
12
238
142
3
227
136
4
242
153
4
230
140
23
146
37
13
149
38
4
159
48
6
133
42
0
160
50
28
255
40
146
255
30
141
254
34
133
254
35
131
253
40
137
253
12
150
253
1
143
253
4
144
255
3
144
250
12
148
78
13
133
39
3
125
70
4
129
65
3
119
75
11
117
50
15
214
29
3
237
36
4
222
34
3
221
47
12
222
26
16
255
6
4
255
17
5
255
13
3
255
22
10
255
22
47
184
4
45
132
5
40
156
4
40
156
7
50
184
17
28
72
2
0
0
0
0
0
0
0
0
0
0
0
0
0
0
0
0
0
0
0
0
0
0
0
0
0
0
0
0
0
0
0
0
0
0
0
0
0
0
0
0
0
0
0
0
0
0
0
0
0
0
0
0
0
0
0
0
0
0
0
0
0
0
0
0
0
0
0
0
0
0
0
0
0
0
0
0
0
0
0
0
0
0
0
0
0
0
0
0
0
67
45
14
224
135
6
200
117
0
192
112
0
203
126
0
195
118
15
123
28
7
124
27
0
133
35
0
110
31
0
140
43
26
255
38
145
255
28
139
254
30
132
254
32
131
253
38
136
253
10
149
253
0
142
253
0
142
255
0
141
250
8
146
75
9
133
36
0
124
68
0
129
64
0
119
73
6
115
47
11
212
25
0
237
32
0
222
30
0
222
45
8
223
23
13
228
0
0
230
10
0
227
7
0
232
16
4
248
15
37
155
0
34
107
0
30
129
0
30
129
0
38
154
13
23
62
3
0
0
0
0
0
0
0
0
0
0
0
0
0
0
0
0
0
0
0
0
0
0
0
0
0
0
0
0
0
0
0
0
0
0
0
0
0
0
0
0
0
0
0
0
0
0
0
0
0
0
0
0
0
0
0
0
0
0
0
0
0
0
0
0
0
0
0
0
0
0
0
0
0
0
0
0
0
0
0
0
0
0
0
0
0
0
0
0
0
67
45
15
219
133
7
196
115
0
188
111
0
198
123
0
191
116
16
122
31
8
121
28
0
131
36
0
108
31
0
139
44
26
255
40
145
255
29
140
254
32
132
254
33
131
253
39
137
253
11
150
253
0
143
253
0
144
255
0
142
250
9
146
76
11
133
39
0
125
69
0
130
65
0
120
74
7
116
48
13
213
27
0
237
34
0
222
32
0
222
46
10
224
24
15
224
2
0
224
12
0
222
9
0
226
17
4
241
16
38
152
0
35
106
0
31
128
0
32
127
2
40
152
13
23
62
2
0
0
0
0
0
0
0
0
0
0
0
0
0
0
0
0
0
0
0
0
0
0
0
0
0
0
0
0
0
0
0
0
0
0
0
0
0
0
0
0
0
0
0
0
0
0
0
0
0
0
0
0
0
0
0
0
0
0
0
0
0
0
0
0
0
0
0
0
0
0
0
0
0
0
0
0
0
0
0
0
0
0
0
0
0
0
0
0
0
41
17
8
223
135
6
197
116
0
187
109
0
199
123
0
192
115
13
121
27
6
121
24
0
130
32
0
106
27
0
137
40
24
255
36
144
255
26
139
254
29
130
254
30
129
253
36
135
253
9
148
253
0
140
253
1
142
255
0
140
250
7
145
73
8
132
34
0
123
65
0
128
61
0
117
72
7
114
45
9
213
24
0
236
31
0
221
28
0
222
41
7
224
22
11
225
1
0
225
8
0
223
5
0
227
12
3
243
13
34
152
0
32
105
0
27
126
0
27
127
2
37
156
9
13
39
0
0
0
0
0
0
0
0
0
0
0
0
0
0
0
0
0
0
0
0
0
0
0
0
0
0
0
0
0
0
0
0
0
0
0
0
0
0
0
0
0
0
0
0
0
0
0
0
0
0
0
0
0
0
0
0
0
0
0
0
0
0
0
0
0
0
0
0
0
0
0
0
0
0
0
39
38
19
102
101
33
91
91
22
90
90
23
80
88
24
125
106
33
212
127
19
199
121
13
194
118
15
205
132
15
197
125
27
128
40
19
129
39
10
138
47
15
115
42
0
145
55
34
255
50
153
255
39
145
254
42
138
254
43
137
253
50
141
253
21
156
253
8
149
254
14
149
255
11
150
251
23
154
84
24
139
48
10
131
78
14
137
72
11
126
82
20
121
59
24
219
39
13
238
45
14
224
43
12
225
56
22
227
36
26
227
14
12
226
23
14
224
19
11
228
27
16
244
27
49
158
11
46
114
14
42
135
12
42
134
15
43
143
27
48
112
17
38
83
14
37
90
13
38
91
20
46
100
13
19
35
0
0
0
0
0
0
0
0
0
0
0
0
0
0
0
0
0
0
0
0
0
0
0
0
0
0
0
0
0
0
0
0
0
0
0
0
0
0
0
0
0
0
0
0
0
0
0
0
0
0
0
0
0
0
0
0
0
0
0
0
109
110
30
255
255
49
255
255
39
255
255
39
255
255
44
255
236
42
184
97
9
189
109
7
192
116
9
202
127
8
193
120
20
124
33
13
125
31
4
134
40
8
111
36
0
141
49
29
255
45
147
255
35
142
254
38
134
254
38
132
253
43
138
253
14
152
253
3
147
254
7
147
255
5
146
251
15
150
80
17
136
42
5
127
73
8
133
67
6
121
76
14
118
51
18
217
32
6
238
39
8
223
37
6
225
49
14
227
30
18
226
7
6
224
16
8
224
12
5
228
19
10
241
19
41
154
5
39
110
8
35
131
7
34
127
10
26
103
20
79
217
11
97
255
8
84
255
7
86
255
16
106
255
20
44
98
1
0
0
0
0
0
0
0
0
0
0
0
0
0
0
0
0
0
0
0
0
0
0
0
0
0
0
0
0
0
0
0
0
0
0
0
0
0
0
0
0
0
0
0
0
0
0
0
0
0
0
0
0
0
0
0
0
0
0
0
94
95
23
255
255
37
255
255
30
255
255
31
255
255
35
240
219
32
180
94
0
186
105
0
188
111
0
197
122
0
190
115
12
120
27
6
120
24
0
130
33
0
106
28
0
137
40
24
255
35
144
255
27
139
254
30
131
254
30
129
253
36
136
253
8
148
253
0
140
253
0
141
255
0
140
250
6
144
73
8
131
34
0
123
66
0
128
61
0
118
71
6
114
45
10
212
24
0
236
31
0
221
29
0
222
42
6
223
21
11
225
0
0
224
9
0
222
5
0
227
13
3
242
12
34
153
0
32
105
0
28
126
0
27
123
1
19
103
9
65
198
0
79
252
0
68
222
0
70
233
3
86
255
15
37
88
1
0
0
0
0
0
0
0
0
0
0
0
0
0
0
0
0
0
0
0
0
0
0
0
0
0
0
0
0
0
0
0
0
0
0
0
0
0
0
0
0
0
0
0
0
0
0
0
0
0
0
0
0
0
0
0
0
0
0
0
93
95
24
255
255
39
255
255
31
249
254
32
255
255
36
236
216
34
184
98
2
188
107
0
190
113
0
199
123
0
192
116
16
120
31
7
118
27
0
129
35
0
105
31
0
136
42
26
255
38
143
255
29
138
254
31
131
254
32
128
254
38
134
254
11
150
253
0
143
253
0
143
255
0
142
250
10
147
75
10
133
38
0
125
69
0
130
65
0
120
74
7
115
48
13
213
27
0
237
34
0
222
32
0
223
46
10
224
24
15
225
1
0
225
12
0
223
9
0
227
17
5
244
15
37
152
0
35
103
0
30
126
0
30
121
2
23
103
12
65
191
1
77
244
0
66
213
0
68
222
6
84
255
15
38
88
0
0
0
0
0
0
0
0
0
0
0
0
0
0
0
0
0
0
0
0
0
0
0
0
0
0
0
0
0
0
0
0
0
0
0
0
0
0
0
0
0
0
0
0
2
0
0
0
0
0
0
0
0
0
0
0
0
0
0
0
94
75
19
255
255
38
255
255
31
248
254
31
255
255
35
236
217
33
182
97
2
188
106
0
190
113
1
197
124
0
193
117
14
144
33
7
147
32
0
154
41
1
130
36
0
164
49
30
255
42
168
255
32
163
255
35
151
255
36
153
255
42
155
254
9
147
251
0
140
252
0
143
255
0
142
250
8
146
75
10
132
36
0
124
68
1
129
63
0
118
72
8
114
46
11
214
25
0
237
32
1
222
30
0
223
44
9
224
23
12
224
1
0
224
10
1
222
7
0
225
14
4
239
14
41
169
0
41
132
1
34
152
0
34
148
3
25
128
12
78
226
2
94
255
0
79
255
0
83
255
7
102
255
15
28
77
0
0
0
0
0
0
0
0
0
0
0
0
0
0
0
0
0
1
0
0
0
0
0
0
0
0
0
0
0
0
0
0
0
0
0
0
0
0
0
0
0
0
0
0
2
13
29
15
25
78
26
20
71
21
22
71
21
0
59
17
105
134
41
255
255
49
255
255
43
249
254
43
255
255
48
238
218
47
188
105
17
194
116
12
194
120
16
210
133
14
196
125
28
109
36
22
110
33
13
121
43
17
104
38
5
127
51
37
195
45
132
195
35
126
195
38
120
185
38
115
199
45
126
250
22
157
254
9
152
254
14
150
255
10
149
251
24
154
86
25
139
48
10
130
79
16
137
73
11
126
83
20
122
59
25
219
40
11
238
47
15
224
44
11
226
56
23
226
37
26
226
15
11
225
23
15
224
21
10
229
26
17
245
29
46
143
12
42
95
15
39
120
13
38
115
16
33
103
28
69
166
16
78
198
13
70
195
12
71
197
20
76
188
30
60
108
13
48
70
14
44
69
14
44
70
17
53
79
11
21
29
0
0
1
0
0
0
0
0
0
0
0
0
0
0
0
0
0
0
0
0
0
0
0
0
0
0
0
0
0
0
32
111
35
52
255
60
38
255
46
43
255
48
0
255
46
110
255
54
255
255
35
254
254
33
249
254
36
255
255
39
236
217
37
183
98
9
189
109
6
187
113
7
220
130
6
185
117
21
0
9
14
0
0
6
0
5
7
0
4
5
0
11
12
0
8
2
0
4
0
0
5
0
0
4
0
28
12
21
238
14
159
255
6
158
253
7
143
255
5
143
250
14
148
77
15
135
40
5
126
71
7
132
66
5
122
76
13
117
50
16
215
30
5
237
37
7
222
35
5
223
48
13
225
27
17
226
6
5
225
15
7
222
11
5
234
18
12
255
19
14
63
5
4
0
6
5
0
6
5
0
9
7
0
16
8
0
6
1
0
6
2
0
6
1
0
9
0
0
20
110
158
7
199
255
6
167
255
6
170
255
13
204
255
17
76
107
0
0
0
0
0
0
0
0
0
0
0
0
0
0
0
0
0
0
0
0
0
0
0
0
0
0
0
0
0
0
25
100
28
42
255
52
29
255
38
34
255
39
0
255
39
104
255
47
255
255
29
254
254
29
249
254
31
255
255
34
236
216
31
183
96
1
188
106
0
187
112
0
216
126
0
187
115
14
4
6
5
0
0
0
0
0
0
0
0
0
5
10
10
0
5
1
0
0
0
0
0
0
0
0
0
30
7
21
242
9
159
255
0
154
253
0
140
255
0
142
250
7
145
74
9
132
36
0
124
67
0
129
63
0
118
72
6
114
46
10
212
25
0
237
32
0
222
30
0
222
44
7
224
21
12
225
0
0
225
10
0
223
6
0
232
13
6
255
13
11
64
0
0
0
0
0
0
0
0
0
1
0
0
10
8
2
0
0
0
0
0
0
0
0
0
2
0
0
14
99
150
0
183
255
0
150
255
0
153
255
4
184
255
12
68
99
0
0
0
0
0
0
0
0
0
0
0
0
0
0
0
0
0
0
0
0
0
0
0
0
0
0
0
0
0
0
25
94
27
43
255
52
31
255
39
35
255
41
0
255
39
104
255
48
255
255
33
254
254
32
249
254
33
255
255
37
235
216
35
178
95
2
183
104
0
183
110
0
210
124
0
184
114
17
10
9
8
0
0
0
0
0
0
0
0
0
15
15
15
11
10
10
0
0
0
0
0
0
0
0
0
38
10
26
243
12
157
255
0
151
253
0
137
255
0
139
252
11
144
78
12
134
38
0
126
69
0
131
66
0
120
74
8
117
49
13
213
28
0
237
35
0
222
33
0
223
47
10
224
24
15
221
3
0
219
13
0
217
9
0
227
16
8
255
17
16
68
0
0
0
0
0
0
0
0
0
3
3
3
14
14
14
1
1
1
0
0
0
0
0
0
5
0
0
18
93
145
2
168
255
0
139
255
0
140
255
6
170
255
13
64
93
0
0
0
0
0
0
0
0
0
0
0
0
0
0
0
0
0
0
0
0
0
0
0
0
0
0
0
0
0
0
24
95
27
38
255
47
26
255
34
30
255
35
0
255
34
103
255
44
255
255
29
254
254
27
249
254
29
255
255
32
245
221
31
217
114
0
224
127
0
221
131
0
255
152
0
215
133
13
5
5
6
0
0
0
0
0
0
0
0
0
10
10
10
6
6
6
0
0
0
0
0
0
0
0
0
44
7
26
255
7
184
255
0
184
255
0
165
255
0
168
255
6
171
74
8
133
29
0
118
66
0
128
61
0
115
71
6
113
44
9
213
23
0
236
30
0
221
28
0
220
41
6
219
22
10
255
1
0
255
10
0
255
7
0
255
14
5
255
12
10
77
0
0
0
0
0
0
0
0
0
2
2
2
8
8
8
0
0
0
0
0
0
0
0
0
1
0
0
12
108
162
1
205
255
0
169
255
0
173
255
3
206
255
11
74
108
0
0
0
0
0
0
0
0
0
0
0
0
0
0
0
0
0
0
0
0
0
0
0
0
0
0
0
0
0
0
28
95
30
54
255
62
40
255
48
45
255
49
3
255
49
111
254
58
255
255
40
254
254
40
249
254
43
255
255
46
232
215
43
159
84
16
167
96
11
167
103
14
194
118
12
165
111
27
16
17
20
6
7
11
13
13
13
11
11
11
24
24
24
20
20
20
11
11
11
14
13
14
3
11
5
46
21
32
204
23
146
208
12
142
202
13
129
204
10
127
206
21
133
84
21
138
51
10
132
76
14
135
72
10
124
81
19
123
56
23
218
38
10
239
44
13
224
42
11
227
54
21
232
33
25
203
11
13
187
20
14
195
17
12
200
25
20
208
26
24
68
11
12
2
13
13
14
12
12
12
14
14
14
24
24
24
15
15
15
13
13
13
11
11
10
17
5
2
28
95
133
13
156
213
13
130
202
12
133
205
20
161
214
18
61
86
0
0
0
0
0
0
0
0
0
0
0
0
0
0
0
0
0
0
0
0
0
0
0
0
0
0
0
0
0
0
27
95
32
53
255
60
39
255
46
44
253
48
3
253
46
110
253
55
255
254
40
254
254
38
250
255
41
255
255
43
186
190
42
0
0
13
0
0
9
0
0
12
0
0
11
7
12
25
13
15
17
8
8
8
10
10
10
9
9
9
23
23
23
18
18
18
8
8
8
10
10
10
7
8
7
10
19
14
7
21
7
4
8
0
0
10
0
0
7
0
10
20
8
71
20
129
78
7
149
69
11
134
69
7
125
79
17
120
56
22
218
37
8
240
43
11
223
42
8
238
54
19
253
28
22
48
5
9
0
9
11
0
7
9
0
16
17
6
23
22
14
9
9
8
10
10
10
9
9
9
12
12
12
22
22
22
11
11
11
9
9
9
8
8
8
18
14
12
28
15
15
9
0
7
9
0
0
8
0
2
17
3
10
17
10
7
0
0
1
0
0
0
0
0
0
0
0
0
0
0
0
0
0
0
0
0
0
0
0
0
0
0
0
0
0
0
24
95
28
39
255
48
26
255
34
31
254
36
0
254
35
104
255
44
255
255
30
254
254
28
250
255
29
255
255
31
186
188
30
0
0
0
0
0
0
0
0
0
0
0
0
3
5
12
5
5
5
0
0
0
0
0
0
0
0
0
11
11
11
6
6
6
0
0
0
0
0
0
0
0
0
5
8
7
0
8
1
0
0
0
0
0
0
0
0
0
0
7
4
64
9
127
69
0
141
61
0
124
61
0
117
71
6
113
46
10
214
24
0
237
31
0
219
30
0
232
43
6
255
19
10
50
0
0
0
0
0
0
0
0
0
5
5
0
11
10
8
0
0
0
0
0
0
0
0
0
1
1
1
9
9
9
0
0
0
0
0
0
0
0
0
5
6
6
12
8
5
0
0
0
0
0
0
0
0
0
3
0
0
12
9
6
0
0
0
0
0
0
0
0
0
0
0
0
0
0
0
0
0
0
0
0
0
0
0
0
0
0
0
0
0
0
25
95
28
43
255
52
30
255
38
35
255
40
0
255
40
104
255
48
255
255
32
254
254
31
250
254
33
255
255
35
188
189
33
0
0
3
0
0
0
0
0
0
0
0
0
15
14
14
7
7
7
0
0
0
0
0
0
0
0
0
15
15
15
11
11
11
0
0
0
0
0
0
0
0
0
12
11
11
13
12
13
0
0
0
0
0
0
0
0
0
11
11
13
71
12
130
70
0
141
64
0
127
65
0
120
74
8
117
49
12
213
27
0
237
34
0
221
32
0
231
46
10
252
22
14
60
0
0
0
0
0
0
0
0
0
8
8
8
14
14
15
0
0
0
0
0
0
0
0
0
3
3
3
15
15
15
1
1
1
0
0
0
0
0
0
7
7
7
18
19
19
0
0
0
0
0
0
0
0
0
6
7
7
14
15
15
0
0
0
0
0
0
0
0
0
0
0
0
0
0
0
0
0
0
0
0
0
0
0
0
0
0
0
0
0
0
24
95
27
38
255
47
26
255
33
30
255
35
0
255
34
102
255
44
255
255
29
255
254
27
250
254
31
255
255
31
187
188
27
0
0
0
0
0
0
0
0
0
0
0
0
10
10
10
5
5
5
0
0
0
0
0
0
1
1
1
6
6
6
0
0
0
0
0
0
0
0
0
0
0
0
0
0
0
0
0
0
0
0
0
0
0
0
0
0
0
0
0
0
65
4
124
70
1
143
61
0
125
61
0
117
70
6
115
44
9
213
23
0
236
30
0
220
28
0
232
41
6
252
18
10
56
0
0
0
0
0
0
0
0
0
6
5
5
9
9
9
0
0
0
0
0
0
0
0
0
2
2
2
0
0
0
0
0
0
0
0
0
0
0
0
0
0
0
0
0
0
0
0
0
0
0
0
0
0
0
0
0
0
0
0
0
1
0
0
0
0
0
0
0
0
0
0
0
0
0
0
0
0
0
0
0
0
0
0
0
0
0
0
0
0
0
28
95
33
54
255
64
40
255
48
45
253
50
2
253
49
111
253
58
255
254
42
255
254
40
250
254
42
255
255
46
192
192
45
0
0
15
3
3
11
14
14
14
13
13
13
26
26
26
19
19
19
12
12
12
15
15
15
5
5
5
22
22
22
58
58
58
59
59
59
55
55
55
54
54
54
54
54
54
54
54
54
54
54
54
54
54
55
56
60
53
60
59
59
75
19
132
73
5
144
73
15
136
72
11
127
82
20
122
58
25
218
39
11
238
45
14
222
44
11
236
57
22
255
32
24
62
7
11
0
15
14
15
11
11
11
19
19
19
26
26
26
12
12
12
14
14
14
9
9
9
7
7
7
46
46
46
66
66
66
54
54
54
54
54
54
54
54
54
54
54
54
54
54
54
55
55
55
57
55
55
65
59
58
29
42
45
5
33
36
15
36
40
14
38
42
17
45
49
12
18
20
0
0
0
0
0
0
0
0
0
0
0
0
0
0
0
26
95
30
49
255
58
36
255
42
41
254
44
1
254
44
108
254
53
255
254
37
254
254
34
249
254
36
255
255
39
190
191
38
0
0
10
1
2
7
9
9
9
8
8
8
19
19
19
14
14
14
7
7
7
10
10
10
0
0
0
47
47
47
255
255
255
255
255
255
253
253
253
253
253
253
253
253
253
253
253
253
252
252
252
252
252
253
255
255
255
254
246
253
79
41
139
40
0
111
73
9
133
67
7
120
78
15
118
52
19
217
33
7
238
39
9
222
38
7
235
51
16
254
27
19
60
4
7
0
9
9
9
7
7
7
14
14
14
19
19
19
8
8
8
9
9
9
2
2
2
5
5
5
208
208
208
255
255
255
252
252
252
253
253
253
253
253
253
253
253
253
252
252
252
253
253
253
255
254
253
255
255
255
108
213
229
0
173
199
9
190
211
8
190
211
13
223
248
22
96
106
0
0
0
0
0
0
0
0
0
0
0
0
0
0
0
24
95
27
39
255
48
26
255
34
31
255
36
0
255
35
103
255
45
255
255
30
254
254
28
249
254
30
255
255
31
187
188
28
0
0
0
0
0
0
0
0
0
0
0
0
10
10
10
4
4
4
0
0
0
0
0
0
0
0
0
38
38
38
255
255
255
255
255
255
255
255
255
255
255
255
255
255
255
255
255
255
255
255
255
255
255
255
255
255
255
255
252
255
73
36
134
32
0
104
66
0
130
62
0
117
71
5
114
45
9
213
23
0
236
31
0
219
28
0
232
42
6
252
18
10
57
0
0
0
0
0
0
0
0
0
4
4
4
9
9
9
0
0
0
0
0
0
0
0
0
0
0
0
205
205
205
255
255
255
255
255
255
255
255
255
255
255
255
255
255
255
255
255
255
255
255
255
255
255
255
255
255
255
103
210
226
0
166
194
0
186
206
0
185
206
1
217
243
14
93
103
0
0
0
0
0
0
0
0
0
0
0
0
0
0
0
27
98
29
44
255
52
31
255
39
36
255
41
0
255
40
105
255
49
255
255
33
254
254
32
249
254
34
255
255
36
188
189
34
0
0
3
0
0
0
0
0
0
0
0
0
15
15
15
7
7
7
0
0
0
0
0
0
0
0
0
37
37
37
254
254
254
255
255
255
255
255
255
255
255
255
255
255
255
255
255
255
255
255
255
255
255
255
255
255
255
250
242
251
77
37
136
39
0
110
70
0
133
66
0
121
75
8
117
49
14
213
28
0
237
35
0
221
33
0
231
47
11
252
22
15
60
0
0
0
0
0
0
0
0
0
8
8
8
15
15
15
0
0
0
0
0
0
0
0
0
0
0
0
190
190
190
255
255
255
255
255
255
255
255
255
255
255
255
255
255
255
255
255
255
255
255
255
255
255
255
255
255
255
94
193
208
0
152
177
0
169
188
0
169
188
3
198
222
16
85
94
0
0
0
0
0
0
0
0
0
0
0
0
0
0
0
13
81
18
41
255
50
26
255
36
31
255
37
0
255
36
102
255
44
255
255
28
254
254
27
250
254
30
255
255
31
187
188
28
0
0
1
0
0
0
0
0
0
0
0
0
10
10
10
4
4
4
0
0
0
0
0
0
0
0
0
35
35
35
255
255
255
255
255
255
255
255
255
255
255
255
255
255
255
255
255
255
255
255
255
255
255
255
255
255
255
250
241
252
73
35
133
34
0
106
66
0
130
61
0
117
71
5
114
46
9
212
23
0
236
30
0
219
28
0
231
42
6
253
18
10
57
0
0
0
0
0
0
0
0
0
5
5
5
9
9
9
0
0
0
0
0
0
0
0
0
0
0
0
189
189
189
255
255
255
255
255
255
255
255
255
255
255
255
255
255
255
255
255
255
255
255
255
255
255
255
255
255
255
94
194
211
0
152
179
0
171
190
0
169
190
1
199
224
12
86
95
14
18
14
26
41
26
21
31
21
21
31
21
24
21
22
36
109
39
43
255
52
36
255
44
40
255
45
1
255
44
109
254
53
255
255
39
255
254
37
251
254
40
255
255
41
190
191
38
0
0
11
2
2
7
10
10
10
9
9
9
20
20
20
15
15
15
8
8
8
11
11
11
0
0
0
41
41
41
254
254
254
255
255
255
255
255
255
255
255
255
255
255
255
255
255
255
255
255
255
255
255
255
255
255
255
250
244
252
81
39
139
43
0
113
74
11
135
69
8
123
79
16
119
53
20
215
33
8
237
40
10
221
37
8
233
52
17
254
28
19
62
5
8
0
10
10
11
8
8
8
15
15
15
19
19
19
8
8
8
10
10
10
2
2
2
0
0
0
193
193
193
255
255
255
255
255
255
255
255
255
255
255
255
255
255
255
255
255
255
255
255
255
255
255
255
255
255
255
97
197
211
0
157
181
9
175
193
8
174
193
13
204
229
17
87
96
83
116
78
162
245
152
140
233
132
138
231
131
162
224
148
118
242
112
25
255
34
39
254
44
45
253
47
2
253
45
110
254
56
255
254
43
255
254
40
249
255
42
255
255
43
192
192
43
0
0
13
2
2
8
11
11
11
10
10
10
24
24
24
17
17
17
9
9
9
13
13
13
0
0
0
43
43
43
255
255
255
255
255
255
255
255
255
255
255
255
255
255
255
255
255
255
255
255
255
255
255
255
255
255
255
250
245
251
83
41
139
46
0
115
76
14
136
72
9
124
80
18
121
56
23
219
38
9
240
44
11
224
43
9
236
55
20
254
30
23
62
5
9
0
11
11
13
9
9
9
18
18
18
25
25
25
10
10
10
11
11
11
2
2
2
0
0
0
194
194
194
255
255
255
255
255
255
255
255
255
255
255
255
255
255
255
255
255
255
255
255
255
255
255
255
255
255
255
96
198
209
0
160
184
11
175
198
9
175
198
15
205
232
24
87
97
80
122
76
163
255
150
140
255
129
138
255
129
163
255
148
111
255
107
9
255
22
27
254
34
32
254
37
0
254
36
103
254
44
255
254
27
254
254
28
250
255
30
255
255
33
188
189
29
0
0
1
0
0
0
0
0
0
0
0
0
10
10
11
5
5
5
0
0
0
0
0
0
0
0
0
36
36
36
254
254
254
255
255
255
255
255
255
255
255
255
255
255
255
255
255
255
255
255
255
255
255
255
255
255
255
250
243
251
74
37
133
34
0
108
65
0
132
60
0
119
71
5
113
46
9
214
24
0
237
31
0
220
30
0
232
43
7
252
18
11
57
0
0
0
0
0
0
0
0
0
5
5
5
11
11
11
0
0
0
0
0
0
0
0
0
0
0
0
190
190
190
255
255
255
255
255
255
255
255
255
255
255
255
255
255
255
255
255
255
255
255
255
255
255
255
255
255
255
94
194
209
0
153
179
0
170
192
0
169
192
1
200
224
15
86
95
71
111
68
152
255
141
130
244
119
128
240
118
149
238
136
107
245
104
17
255
28
30
255
38
35
255
40
0
255
40
105
255
48
255
255
32
254
254
32
250
254
34
255
255
36
189
189
32
0
0
3
0
0
0
0
0
0
0
0
0
16
16
14
8
7
7
0
0
0
0
0
0
0
0
0
37
36
36
254
254
254
255
255
255
255
255
255
255
255
255
255
255
255
255
255
255
255
255
255
255
255
255
255
255
255
250
242
252
77
37
137
38
0
110
69
0
133
65
0
121
74
8
116
49
13
212
27
0
236
34
0
220
33
0
231
46
10
254
21
14
61
0
0
0
0
0
0
0
0
0
8
7
9
14
14
15
0
0
0
0
0
0
0
0
0
0
0
0
190
190
190
255
255
255
255
255
255
255
255
255
255
255
255
255
255
255
255
255
255
255
255
255
255
255
255
255
255
255
95
195
211
0
155
179
0
172
190
0
171
190
2
201
225
14
87
96
71
112
67
151
255
140
130
244
119
128
241
118
150
238
136
107
246
102
13
255
23
26
255
33
31
255
36
0
255
34
103
255
44
255
255
29
254
254
28
250
254
30
255
255
31
183
187
27
0
0
0
0
0
0
0
0
0
0
0
0
0
1
10
0
2
5
0
0
0
0
0
0
0
0
0
30
37
40
255
255
255
255
255
255
255
255
255
255
255
255
255
255
255
255
255
255
255
255
255
255
255
255
255
255
255
249
255
255
73
37
133
34
0
104
66
0
129
61
0
116
71
6
114
45
10
213
23
0
236
31
0
220
29
0
233
42
6
255
18
10
44
0
0
0
0
0
0
0
0
0
5
5
0
9
9
6
0
0
0
0
0
0
0
0
0
0
0
0
209
209
209
255
255
255
255
255
255
255
255
255
255
255
255
255
255
255
255
255
255
255
255
255
255
255
255
255
255
255
101
196
210
0
151
179
0
171
190
0
170
190
1
199
224
14
85
96
75
112
70
156
255
146
134
246
125
132
244
125
154
240
141
116
247
109
26
255
37
39
253
46
45
253
49
3
253
48
110
254
57
255
254
41
254
254
39
250
254
41
255
255
43
190
192
44
10
8
16
11
10
12
14
14
14
14
14
13
20
21
25
15
17
18
13
12
12
15
14
16
5
1
1
54
52
51
244
245
245
246
247
248
246
245
246
241
246
242
244
248
244
253
249
253
255
246
253
254
245
252
255
250
255
249
240
252
83
43
141
45
1
114
77
15
138
72
11
125
83
19
120
57
23
218
37
11
239
44
14
223
42
11
236
55
20
251
32
23
65
9
11
5
15
13
17
12
10
17
18
18
23
24
24
20
12
12
9
14
14
14
5
5
5
6
6
6
197
197
197
253
253
253
244
244
244
245
244
244
247
243
240
249
253
252
244
254
254
245
253
253
244
253
254
252
255
255
102
199
209
1
159
183
12
175
196
12
175
195
15
204
230
21
86
96
75
112
71
157
255
148
133
246
127
131
243
126
155
240
141
115
246
109
23
255
35
37
254
45
43
254
48
2
254
46
111
253
56
255
253
41
254
254
39
249
254
40
255
255
44
238
218
45
181
98
15
188
111
11
190
117
14
201
129
12
195
123
26
126
36
19
126
36
12
131
45
15
141
37
5
127
47
20
33
35
36
30
31
32
31
30
30
23
31
25
58
35
47
238
37
163
255
31
160
253
30
146
255
35
148
249
39
153
81
15
138
46
5
130
76
15
137
71
11
126
81
18
121
55
22
217
36
11
238
44
13
223
41
11
224
53
20
228
34
23
225
11
11
218
21
14
224
17
11
232
23
18
231
24
24
52
11
12
2
13
13
15
9
9
9
8
8
8
27
27
27
36
36
36
29
29
29
30
29
28
34
28
24
37
119
176
31
172
255
30
150
254
29
151
255
39
151
255
24
172
210
5
178
182
13
173
194
11
175
195
15
205
229
21
87
96
71
112
68
152
255
141
129
244
120
127
240
118
150
239
136
106
246
102
12
255
23
26
255
33
31
255
36
0
255
35
103
255
45
255
255
29
254
254
28
249
254
30
255
255
34
242
219
31
205
107
0
210
118
0
210
123
0
223
136
0
213
126
13
134
28
6
136
27
0
138
36
0
160
40
0
134
37
6
0
0
0
0
0
0
0
0
0
0
0
0
18
0
4
239
0
145
255
0
142
253
0
127
255
0
126
249
0
132
72
4
130
34
0
124
66
0
128
62
0
117
71
5
114
45
9
212
24
0
236
31
0
222
29
0
221
42
7
220
21
11
245
0
0
253
9
0
246
6
0
255
11
5
255
10
10
46
0
0
0
0
0
0
0
0
0
5
5
5
0
0
0
0
0
0
0
0
0
0
0
0
0
0
0
0
91
159
0
159
255
0
130
255
0
130
255
0
128
255
0
163
211
0
177
178
0
168
190
0
169
190
1
200
223
14
86
96
72
112
68
153
255
141
131
245
121
129
241
119
150
239
137
109
246
105
17
255
28
30
255
38
36
255
40
0
255
40
105
255
49
255
255
32
254
254
31
249
254
34
255
255
37
235
215
34
180
96
2
184
105
0
187
111
0
195
122
0
189
115
17
120
30
8
121
28
0
125
36
1
139
37
0
128
43
15
8
8
11
0
0
0
0
0
0
0
0
0
41
12
27
245
14
162
255
0
157
253
0
143
255
0
144
250
11
148
76
11
133
38
0
125
69
0
130
66
0
120
74
8
116
48
13
212
28
0
237
35
0
222
33
0
222
47
10
224
24
16
223
2
0
221
14
0
217
10
0
237
14
8
241
14
15
42
0
0
0
0
0
0
0
0
0
7
8
8
14
14
15
0
0
0
0
0
0
0
0
0
6
0
0
17
113
172
0
173
255
0
146
255
0
147
255
6
146
255
14
169
211
0
176
178
0
170
191
0
171
191
2
201
224
15
86
96
71
112
68
151
255
140
129
245
118
127
242
118
149
240
135
107
246
101
12
255
24
26
254
35
31
254
37
0
254
36
103
254
44
255
254
30
254
254
28
249
254
29
255
255
34
236
216
32
183
95
1
188
105
0
190
112
0
199
123
0
191
115
13
120
27
6
120
25
0
124
32
0
144
34
0
124
40
10
0
3
0
0
0
0
0
0
0
0
0
0
22
5
15
242
9
158
255
0
154
254
0
139
255
0
140
250
7
145
73
9
131
35
0
122
66
0
128
61
0
117
71
5
112
47
9
213
25
0
236
32
0
221
30
0
222
42
7
224
21
11
225
0
0
225
7
0
221
4
0
241
11
7
242
11
9
34
0
0
0
0
0
0
0
0
0
5
3
0
10
5
0
0
0
0
0
0
0
0
0
0
4
0
0
13
106
163
0
170
255
0
142
253
0
143
254
4
140
255
10
167
211
0
174
178
0
169
192
0
170
193
2
200
225
15
85
96
74
112
71
158
255
147
135
245
125
133
244
124
156
240
141
115
246
108
26
255
36
40
254
46
45
254
48
2
254
48
110
253
56
255
254
42
254
254
40
249
254
41
255
255
45
238
218
45
187
104
15
194
114
10
195
120
13
204
131
11
195
124
24
127
39
17
130
37
7
133
45
11
148
46
5
129
51
20
29
18
23
26
9
17
29
11
18
19
9
12
53
20
37
238
21
163
255
10
162
254
12
147
255
9
148
252
22
152
85
22
139
46
8
131
76
13
137
71
9
126
81
18
121
57
23
220
38
10
241
44
11
226
42
9
227
55
20
228
35
23
226
12
10
225
20
13
222
17
9
240
24
18
243
25
24
52
9
10
4
12
11
17
9
10
16
19
16
14
25
22
23
9
12
28
12
13
25
9
10
22
17
4
12
27
118
173
11
175
255
10
148
253
9
149
254
16
147
255
25
171
213
11
179
184
11
174
197
9
175
197
15
206
232
22
88
97
74
112
70
158
255
146
134
244
123
132
241
123
154
239
141
112
245
108
21
255
32
35
255
42
41
255
44
1
255
44
109
255
53
255
255
38
255
254
37
249
254
38
255
255
41
237
217
39
184
100
11
190
111
7
192
116
10
202
127
9
194
120
23
124
35
14
125
33
5
134
42
9
112
38
1
144
50
33
232
44
153
230
34
146
231
38
137
224
38
134
230
44
141
252
18
152
254
7
146
253
10
145
255
7
145
252
16
150
81
17
135
41
6
127
73
11
132
68
7
121
78
15
120
52
19
217
33
8
238
39
9
224
37
7
225
50
16
226
30
20
226
9
8
224
18
10
223
14
7
227
21
12
244
22
44
156
7
41
110
9
37
135
8
35
132
11
29
116
19
74
193
8
84
234
8
76
228
7
72
226
15
60
217
22
135
245
8
160
255
9
148
255
8
147
255
13
146
255
20
170
212
9
178
180
9
172
193
8
174
192
11
204
227
18
87
96
72
112
67
152
255
140
130
245
118
128
241
117
149
239
136
106
246
102
12
255
23
26
255
34
31
255
37
0
255
35
103
255
45
255
255
29
255
254
28
249
254
29
255
255
34
236
216
31
182
95
0
186
105
0
188
111
0
198
121
0
191
114
13
120
27
6
120
24
0
130
33
0
102
27
0
140
41
27
255
40
162
255
30
156
255
33
145
255
35
147
255
40
150
255
8
147
253
0
138
253
0
141
255
0
139
250
5
144
73
7
130
34
0
122
66
0
127
61
0
116
71
5
113
45
8
212
23
0
236
30
0
221
28
0
222
42
6
223
21
11
224
0
0
224
8
0
223
4
0
224
12
2
242
12
38
168
0
37
123
0
32
143
0
32
140
0
22
120
9
72
216
0
88
255
0
76
248
0
75
249
5
65
248
12
132
254
0
155
255
0
143
255
0
143
255
2
141
255
9
167
210
0
175
177
0
169
190
0
170
190
1
199
222
13
85
95
72
112
68
152
255
141
131
245
122
129
241
120
151
239
137
109
246
105
18
255
28
30
255
38
36
255
41
0
255
40
106
255
49
255
255
33
254
254
32
249
254
34
255
255
38
236
216
35
185
99
3
189
108
0
191
114
0
199
124
0
192
117
17
123
32
9
123
29
0
133
38
1
110
33
0
139
45
26
255
39
144
255
30
137
254
32
130
254
33
129
253
40
135
253
12
151
253
0
144
253
0
144
255
0
143
250
10
147
77
12
134
39
0
126
70
0
131
66
0
121
75
8
117
49
14
213
28
0
237
35
0
222
33
0
222
47
11
224
25
16
225
3
0
225
13
0
223
10
0
227
18
5
243
17
39
152
0
36
104
0
32
127
0
32
123
2
25
104
14
67
192
2
79
244
0
69
217
0
66
218
7
57
214
16
131
244
0
160
255
0
145
255
0
145
255
6
144
255
14
168
211
0
176
179
0
170
191
0
171
192
3
201
225
16
86
96
72
112
67
151
255
140
129
245
118
128
241
118
149
239
136
106
246
102
11
255
23
26
255
33
32
255
37
0
255
34
102
255
44
255
255
29
254
254
27
248
254
29
255
255
33
236
215
30
182
94
0
186
105
0
188
110
0
198
121
0
191
114
12
120
26
5
120
24
0
129
33
0
106
28
0
137
39
24
255
35
143
255
26
138
254
28
130
254
29
129
253
35
135
253
8
148
253
0
140
253
0
141
255
0
139
250
6
143
72
7
132
33
0
123
65
0
127
61
0
117
70
5
114
45
9
212
24
0
236
31
0
221
29
0
222
42
6
224
21
11
225
0
0
224
9
0
223
5
0
227
12
2
242
12
33
152
0
31
104
0
27
126
0
26
122
0
19
104
9
65
194
0
77
245
0
66
220
0
64
221
4
55
217
11
128
244
0
157
255
0
143
255
0
143
255
2
141
255
9
166
210
0
175
177
0
169
190
0
169
190
1
199
222
13
86
95
74
112
69
155
255
145
132
245
123
131
243
122
153
239
141
112
246
107
20
255
31
35
255
40
41
255
42
1
255
43
108
254
53
255
255
37
255
254
34
249
254
36
255
255
41
237
217
40
184
100
10
190
111
8
191
116
10
202
128
9
194
121
21
125
34
14
126
32
6
135
40
9
112
36
0
141
49
31
255
44
149
255
34
143
254
36
135
254
36
133
253
44
139
252
17
151
254
5
145
254
10
145
255
7
144
252
16
149
80
16
136
40
7
128
72
9
133
67
7
122
78
15
118
53
19
216
32
8
237
38
8
223
36
7
224
50
16
225
30
21
226
8
8
226
16
9
224
13
7
227
21
12
243
21
43
156
7
39
110
9
34
132
8
34
128
11
28
109
19
72
198
9
83
247
8
73
223
7
71
223
15
62
220
21
133
244
9
161
255
8
148
255
7
148
255
14
146
255
19
170
212
8
178
180
9
172
193
7
173
194
12
203
228
19
87
95
74
112
70
158
255
147
135
245
126
133
243
126
156
240
142
115
246
110
26
255
37
40
254
46
46
254
49
2
254
49
110
253
58
255
254
42
255
254
41
249
254
43
255
255
46
238
218
46
187
104
16
193
115
12
195
119
15
204
131
13
195
124
27
128
39
19
129
38
8
137
46
14
116
42
0
145
55
33
255
50
152
255
40
145
254
43
137
254
44
136
253
49
141
252
20
157
254
7
150
254
13
149
255
10
150
252
22
155
85
23
138
47
10
129
78
14
135
72
10
125
82
20
121
57
25
219
37
12
238
44
13
223
42
11
225
55
22
227
36
25
227
14
11
226
21
14
223
18
10
227
26
15
241
26
49
157
10
46
115
12
42
135
11
41
131
15
34
112
26
78
199
15
88
246
14
77
223
11
75
224
19
66
221
27
138
245
12
163
255
14
150
255
12
150
255
19
148
255
26
171
213
12
179
183
12
174
196
10
175
197
16
206
232
23
87
97
72
112
68
152
255
141
130
244
119
128
240
119
149
239
136
106
246
102
11
255
22
25
255
34
31
255
36
0
255
35
102
255
43
255
254
29
254
254
28
248
254
30
255
255
33
236
216
30
182
95
1
187
106
0
189
111
0
198
122
0
190
114
12
120
26
6
121
23
0
130
32
0
107
28
0
138
40
24
255
35
143
255
26
138
254
30
130
254
30
129
253
35
135
253
8
148
253
0
141
253
0
142
255
0
141
250
6
145
73
8
131
34
0
123
66
0
128
61
0
117
70
5
114
44
9
213
24
0
236
31
0
221
29
0
222
41
6
224
21
11
225
0
0
224
8
0
222
5
0
226
12
2
241
12
33
151
0
32
105
0
27
127
0
26
123
1
20
104
9
64
194
0
77
244
0
67
220
0
64
221
4
54
217
11
129
245
0
157
255
0
143
255
0
143
255
3
141
255
10
167
210
0
174
176
0
168
189
0
169
189
2
199
223
14
85
96
72
112
68
153
255
141
131
245
121
129
241
119
150
239
137
109
246
106
16
255
28
30
255
38
36
255
41
0
255
39
105
255
48
255
255
33
254
254
31
249
254
33
255
255
37
236
216
34
184
98
2
188
107
0
190
113
0
199
123
0
192
117
17
122
32
9
122
28
0
132
38
0
109
32
0
139
44
27
255
40
146
255
29
141
254
32
133
254
33
131
253
40
137
253
11
150
253
0
143
253
0
143
255
0
143
250
10
147
76
11
134
38
0
125
69
0
130
65
0
120
75
8
116
49
13
213
28
0
237
35
0
222
33
0
222
46
10
223
24
15
225
3
0
225
14
0
223
9
0
227
17
5
244
16
38
155
0
36
107
0
32
129
0
31
126
2
24
108
13
68
194
1
80
246
0
70
221
0
68
222
6
58
218
16
130
245
0
159
255
0
145
255
0
145
255
6
143
255
13
168
211
0
176
178
0
170
191
0
172
192
3
201
225
15
86
96
72
112
67
151
255
140
130
244
119
128
240
118
148
239
136
106
246
102
13
255
24
26
254
34
33
254
37
0
254
36
103
255
44
255
254
30
254
254
28
248
254
30
255
255
34
236
216
30
182
95
0
187
105
0
189
111
0
198
122
0
190
115
12
120
27
6
120
24
0
130
33
0
107
28
0
137
41
24
255
37
143
255
26
138
254
29
130
254
30
129
254
36
135
253
8
148
253
0
140
253
0
141
255
0
140
250
6
145
74
8
132
35
0
123
66
0
128
62
0
117
70
6
114
45
9
213
24
0
236
32
0
221
30
0
222
42
7
224
21
11
225
0
0
224
9
0
222
5
0
226
13
3
242
13
34
152
0
33
104
0
28
127
0
27
123
1
20
104
11
65
192
0
78
246
0
67
220
0
65
221
5
56
217
12
129
244
0
156
255
0
143
255
0
143
255
2
141
255
10
167
210
0
175
177
0
168
190
0
169
190
1
200
224
13
86
95
74
112
70
156
255
147
134
245
125
133
242
124
155
241
140
114
247
108
25
255
36
39
254
45
44
254
48
2
254
47
109
253
55
255
253
40
255
254
39
249
254
41
255
255
45
238
217
44
186
102
14
193
114
10
194
118
12
205
130
10
194
123
25
126
38
17
127
36
6
137
44
11
114
41
0
143
53
32
255
48
151
255
38
143
254
40
135
254
41
134
254
48
140
252
18
154
254
5
148
254
11
148
255
8
148
252
20
153
85
21
137
46
8
128
76
12
135
71
8
124
79
17
120
55
23
218
37
9
238
43
11
223
41
9
225
53
19
227
34
22
227
11
9
225
19
11
223
16
8
227
24
13
241
24
47
155
7
44
112
11
38
134
9
38
130
12
32
110
23
74
197
12
87
246
12
77
222
9
74
224
17
65
220
25
137
244
10
162
255
11
149
254
9
149
255
17
147
255
24
170
212
10
178
183
10
173
196
8
174
196
14
205
232
22
86
97
75
112
71
159
255
148
134
246
126
133
243
125
156
240
142
115
246
109
25
255
35
40
255
45
45
255
48
3
255
47
112
254
57
255
255
41
255
254
39
250
254
42
255
255
45
237
218
45
186
103
16
192
113
11
193
119
14
204
130
13
196
123
26
127
39
17
128
38
9
136
46
13
114
41
0
144
53
33
255
49
152
255
38
145
254
41
136
254
41
135
253
49
141
252
20
154
254
6
148
254
13
148
255
10
148
252
22
152
83
22
138
46
9
130
77
14
137
71
10
125
81
18
120
57
24
217
37
11
238
44
12
223
42
11
225
55
21
226
35
25
227
13
11
226
21
12
224
18
10
228
25
16
244
25
47
157
9
44
113
12
41
135
11
37
128
17
38
118
24
79
210
13
83
243
14
79
224
11
74
224
19
64
221
26
136
245
12
164
255
12
150
255
12
150
255
19
148
255
25
172
212
12
180
182
12
174
196
10
176
196
15
205
231
22
88
97
72
112
68
152
255
141
129
245
119
128
241
118
150
239
136
107
246
102
12
255
22
26
255
34
31
255
36
0
255
34
104
255
44
255
255
29
254
254
27
248
254
30
255
255
33
236
216
30
182
95
1
187
105
0
188
111
0
198
122
0
191
115
12
120
26
6
120
23
0
130
32
0
106
27
0
138
40
25
255
35
143
255
26
139
254
29
130
254
30
129
253
36
135
253
8
148
253
0
140
253
0
141
255
0
140
250
7
145
73
8
132
33
0
123
65
0
128
61
0
117
71
6
114
45
9
212
23
0
237
31
0
222
28
0
223
42
6
223
20
11
225
0
0
225
8
0
223
4
0
227
12
3
242
12
33
152
0
31
105
0
28
128
0
23
119
6
26
111
10
69
211
0
72
242
0
68
221
0
64
221
4
54
218
11
128
245
0
157
255
0
144
255
0
143
255
3
141
255
9
167
210
0
175
178
0
169
190
0
169
191
1
199
222
13
86
95
72
112
68
152
255
141
131
245
122
129
241
120
151
239
137
109
246
104
17
255
29
30
255
39
36
255
41
0
255
40
105
255
49
255
255
33
254
254
31
249
254
33
255
255
37
236
216
35
185
98
3
188
108
0
190
113
0
198
124
0
192
117
17
123
31
9
122
29
0
132
38
1
110
33
0
140
45
27
255
40
146
255
30
140
254
32
132
254
34
131
253
40
137
253
11
151
253
0
144
253
0
143
255
0
142
250
10
147
77
12
134
39
0
126
70
0
131
66
0
120
75
8
116
49
14
212
28
0
237
35
0
222
33
0
222
47
10
224
24
15
225
3
0
225
13
0
223
10
0
227
18
5
242
17
39
155
0
36
108
0
33
131
0
29
123
7
30
112
13
71
209
0
77
242
0
72
221
0
68
222
7
58
218
16
131
245
0
159
255
0
145
255
0
145
255
6
144
255
14
168
211
0
176
179
0
170
191
0
172
192
3
201
224
15
86
96
72
112
68
152
255
140
130
245
119
128
241
118
150
239
135
107
246
102
13
255
24
27
255
35
32
255
38
0
255
37
103
255
46
255
255
29
254
254
29
249
254
31
255
255
35
236
216
31
183
95
0
187
106
0
189
111
0
198
122
0
191
115
14
121
28
7
121
26
0
130
34
0
107
29
0
138
41
24
255
37
144
255
27
139
254
30
131
254
30
130
253
37
135
253
9
149
253
0
141
253
0
141
255
0
140
250
7
145
74
8
132
35
0
124
67
0
129
62
0
118
72
5
114
46
10
213
25
0
236
32
0
221
30
0
221
43
7
224
22
12
225
0
0
224
10
0
223
6
0
227
14
3
242
14
35
152
0
32
105
0
29
128
0
26
121
4
27
111
10
68
208
0
74
242
0
70
220
0
65
221
4
55
218
12
129
245
0
158
255
0
144
255
0
143
255
3
142
255
10
167
210
0
175
177
0
169
190
0
170
190
1
200
223
13
85
96
73
112
69
155
255
144
132
245
122
130
241
121
153
239
139
111
246
106
19
255
30
32
255
40
38
255
42
1
255
42
107
255
51
255
255
35
254
254
33
249
254
35
255
255
39
237
217
36
183
99
9
189
110
6
191
116
7
201
127
6
193
119
19
123
33
12
124
29
4
134
38
6
110
35
0
140
46
29
255
41
147
255
31
141
254
35
133
254
36
132
254
42
138
253
14
152
253
3
143
253
6
145
255
5
144
250
13
148
78
15
134
40
5
126
71
7
131
67
5
119
76
14
118
50
17
215
31
6
238
37
6
223
35
5
224
48
13
225
28
17
226
7
6
225
16
7
223
13
5
228
19
9
242
19
40
155
5
38
109
7
35
130
6
31
122
12
34
114
15
73
210
5
77
243
7
73
221
5
68
222
12
60
220
19
132
245
5
160
255
5
147
255
5
146
255
10
145
255
18
169
211
6
177
179
6
171
192
6
172
192
10
203
226
17
86
96
74
112
72
158
255
148
134
244
127
134
243
126
156
240
142
117
246
110
28
255
38
42
254
48
48
254
50
3
254
50
112
253
59
255
253
43
254
254
42
249
254
43
255
255
47
238
218
47
187
106
17
193
117
12
194
121
16
204
133
14
195
126
27
129
41
18
131
38
9
140
47
14
117
45
0
145
55
35
255
50
153
255
40
145
252
43
138
252
44
136
253
51
141
253
21
156
253
7
150
253
14
150
255
9
149
251
23
154
86
25
141
49
10
132
78
15
137
73
11
127
82
21
123
58
26
220
40
11
240
46
14
225
45
11
227
57
22
228
37
25
227
15
12
226
23
16
223
19
11
227
26
16
241
27
50
160
10
46
118
15
44
137
11
40
130
20
42
123
23
82
210
10
85
242
14
80
224
10
77
226
19
69
221
28
139
244
11
164
255
13
151
252
11
151
254
18
149
255
27
172
214
14
179
183
14
173
197
12
174
197
16
207
231
23
87
97
72
112
68
152
255
141
129
244
119
128
242
119
150
240
136
108
246
102
12
255
25
26
254
35
32
254
38
0
254
37
104
253
46
255
253
31
254
254
29
249
254
30
255
255
35
237
216
33
183
96
2
188
107
0
190
112
0
199
124
0
192
116
14
121
28
7
122
27
0
131
35
0
107
30
0
138
42
26
255
38
145
255
29
140
252
31
131
252
32
130
252
38
135
252
9
149
254
0
143
254
1
143
255
0
141
250
9
147
75
11
132
36
0
123
67
1
129
61
0
119
72
7
113
47
11
215
26
0
236
33
1
221
31
0
223
44
8
224
23
13
225
1
0
223
8
1
223
4
0
226
12
4
242
13
37
152
0
33
106
1
30
129
0
26
121
5
28
111
10
71
209
0
75
243
0
70
222
0
66
222
6
56
218
14
130
243
0
158
255
1
145
254
0
144
254
5
143
255
12
167
211
0
175
178
0
169
192
0
170
193
3
200
225
16
85
96
72
112
68
152
255
141
131
245
121
129
241
119
150
239
137
109
246
104
16
255
27
29
255
37
34
255
40
0
255
39
104
255
48
255
255
33
254
254
31
249
254
32
255
255
36
236
216
34
184
98
2
188
107
0
190
113
0
199
123
0
192
116
16
122
30
8
122
28
0
132
36
0
109
31
0
139
44
26
255
39
145
255
30
141
254
32
132
254
33
131
253
39
137
253
11
149
253
0
142
253
0
142
255
0
141
250
9
145
75
10
132
37
0
124
68
0
129
65
0
119
74
7
114
49
12
212
27
0
237
34
0
222
32
0
222
46
10
224
24
15
225
2
0
225
12
0
224
9
0
228
17
5
243
16
38
154
0
35
106
0
32
130
0
28
121
6
30
112
12
70
208
0
75
241
0
70
218
0
66
218
7
57
214
15
130
244
0
159
255
0
145
255
0
145
255
6
143
255
12
168
211
0
176
178
0
170
191
0
172
191
2
201
224
14
86
96
71
112
67
151
255
139
130
245
119
128
240
118
149
239
136
107
246
102
13
255
23
27
255
34
32
255
36
0
255
35
103
255
45
255
255
30
255
255
27
255
255
29
255
255
34
241
220
32
180
93
0
186
105
0
189
111
0
198
122
0
191
114
13
120
26
6
120
24
0
130
34
0
106
28
0
137
40
24
255
35
143
255
26
139
254
29
130
254
29
128
254
36
135
255
8
154
255
0
145
255
0
145
255
0
145
255
7
150
75
8
136
35
0
127
68
0
131
64
0
120
73
5
118
45
9
214
23
0
236
30
0
222
28
0
222
42
7
224
21
11
225
0
0
225
9
0
222
5
0
226
12
3
243
13
34
152
0
32
104
0
29
128
0
24
119
4
26
106
9
72
219
0
78
255
0
73
235
0
69
237
5
61
236
12
131
251
0
156
255
0
143
255
0
143
255
3
141
255
10
167
210
0
175
177
0
169
190
0
169
191
1
199
223
14
85
95
74
112
71
156
255
146
133
246
124
131
242
124
153
239
140
112
246
107
20
255
31
34
255
40
39
255
44
0
255
42
121
255
53
255
255
41
255
255
39
255
255
41
255
255
45
254
236
42
183
99
10
188
110
8
192
117
10
202
129
9
193
121
21
125
35
14
126
32
7
134
41
10
111
37
0
141
50
31
255
45
148
255
34
143
254
37
135
254
37
129
255
43
141
255
16
177
255
4
171
255
8
169
255
6
170
255
17
178
94
19
161
51
6
151
86
9
157
81
6
146
91
15
141
54
19
223
30
7
235
39
9
223
37
7
224
49
16
225
30
20
226
9
7
225
16
8
223
13
6
227
21
11
241
21
43
156
7
39
112
9
35
134
7
31
124
13
35
115
18
83
224
6
89
255
8
83
254
6
78
252
14
68
245
23
137
253
7
160
255
8
148
255
7
148
255
13
146
255
21
170
212
8
178
180
8
172
195
6
173
194
11
204
227
19
87
96
75
112
71
157
255
148
134
246
127
132
243
126
156
240
142
115
246
110
27
255
39
40
254
47
43
255
49
31
255
53
65
192
51
98
75
25
91
87
25
91
90
26
79
85
28
122
104
32
212
129
19
198
121
14
193
119
17
204
132
15
195
126
26
127
40
18
129
37
12
137
45
16
115
42
0
145
55
34
255
50
152
255
40
145
253
44
135
255
43
146
233
49
142
99
21
67
80
8
55
92
14
63
94
12
61
89
17
62
39
18
56
28
13
54
38
15
60
34
12
49
40
21
47
53
26
205
44
12
249
45
15
223
44
13
226
56
22
226
37
25
226
14
13
225
23
15
225
20
11
228
26
16
242
26
49
158
12
46
115
15
42
135
13
42
134
17
48
150
23
42
93
14
24
53
16
27
58
13
22
54
19
16
43
28
123
186
14
174
255
14
150
254
12
151
255
19
149
255
26
172
213
13
179
183
14
173
196
12
176
196
17
206
231
22
86
97
72
112
66
152
255
140
129
244
118
127
241
118
150
238
136
107
246
102
12
255
23
26
255
34
28
255
35
39
255
41
18
154
35
0
0
0
0
0
0
0
0
0
0
0
0
41
18
8
223
136
6
197
116
0
187
109
0
199
122
0
192
115
14
120
27
7
120
24
0
129
33
0
105
28
0
137
41
24
255
35
143
255
26
138
254
30
127
255
29
147
218
35
133
0
8
0
0
0
0
0
0
0
0
0
0
0
0
0
0
0
0
0
0
0
0
0
0
0
0
0
0
6
0
34
9
192
34
0
255
30
0
220
29
0
222
42
6
223
21
10
225
0
0
224
9
0
223
5
0
227
12
3
244
13
34
152
0
32
104
0
28
125
0
29
127
1
37
154
10
14
41
1
0
0
0
0
0
0
0
0
4
0
0
10
107
162
0
171
255
0
142
255
0
143
255
4
142
255
10
166
210
0
174
177
0
168
190
0
169
190
2
199
224
14
85
95
72
112
68
152
255
141
131
245
121
129
241
119
151
239
137
109
246
104
16
255
27
29
255
37
31
255
39
35
255
46
35
171
40
1
0
0
0
0
0
0
0
0
0
0
0
67
45
15
219
133
7
195
115
0
188
111
0
197
123
0
191
116
16
123
31
8
123
29
0
132
37
0
109
32
0
140
44
27
255
40
146
255
30
141
254
32
130
255
34
146
227
39
136
20
9
13
0
0
0
0
0
0
0
0
0
0
0
0
0
0
0
0
0
0
0
0
0
0
0
0
6
7
0
40
13
198
36
0
253
34
0
220
32
0
222
46
10
223
24
15
225
3
0
225
13
0
223
9
0
227
18
4
243
17
38
153
0
36
106
0
31
127
0
32
127
2
40
152
13
23
61
3
0
0
0
0
0
0
0
0
6
0
0
15
108
170
0
169
255
0
143
255
0
144
255
6
142
255
13
168
211
0
176
179
0
170
190
0
171
190
2
201
224
14
87
96
72
112
68
151
255
140
130
245
120
129
241
118
150
238
136
108
248
103
14
255
26
28
255
36
30
255
38
33
255
44
34
172
39
2
0
1
0
0
0
0
0
0
0
0
0
68
45
14
227
137
5
201
118
0
192
113
0
205
127
0
196
119
14
119
26
6
121
24
0
131
33
0
107
29
0
138
41
25
255
37
144
255
27
140
254
30
129
255
30
144
225
37
135
19
9
13
0
0
0
0
0
0
0
0
0
0
0
0
0
0
0
0
0
0
0
0
0
0
0
0
5
7
0
36
11
198
33
0
253
30
0
219
30
0
222
43
7
224
22
12
224
0
0
223
8
0
222
4
0
225
12
2
240
14
36
156
0
36
112
0
30
132
0
31
132
0
39
159
14
23
65
3
0
0
0
0
0
0
0
0
6
0
0
14
115
177
0
180
255
0
150
255
0
150
255
4
150
255
11
169
215
0
173
175
0
169
191
0
170
191
1
200
223
14
86
94
73
112
68
154
255
144
132
245
121
130
241
119
150
240
138
111
255
108
22
255
36
38
255
48
40
255
50
46
255
57
42
186
49
1
0
1
0
0
0
0
0
0
0
0
0
78
53
17
255
164
13
238
142
4
227
136
5
244
153
4
226
139
19
123
34
16
125
34
8
136
43
10
112
41
0
142
52
33
255
40
148
255
30
142
254
33
131
255
34
148
225
40
137
20
9
13
0
0
0
0
0
0
0
0
0
0
0
0
0
0
0
0
0
0
0
0
0
0
0
0
5
7
0
45
20
197
45
8
255
41
9
223
40
6
226
52
18
227
34
21
226
10
7
224
18
10
223
14
6
225
21
12
241
23
48
169
7
46
128
10
41
152
9
42
151
14
52
181
20
29
71
1
0
0
0
0
0
0
0
0
5
0
0
24
130
179
11
200
255
9
167
255
7
169
255
15
166
255
23
177
221
9
175
178
10
172
197
7
174
197
13
205
230
22
87
97
75
113
71
159
255
150
136
245
127
133
242
125
160
255
148
113
196
108
13
88
16
23
98
25
26
101
28
31
118
33
24
73
25
0
0
0
0
0
0
0
0
0
0
0
0
28
20
11
97
64
23
86
55
18
84
54
17
79
57
17
98
64
31
139
46
18
137
41
11
137
45
15
116
41
0
145
53
35
255
52
152
255
42
146
251
44
135
255
47
153
225
50
142
18
9
14
0
0
0
0
0
0
0
0
0
0
0
0
0
0
0
0
0
0
0
0
0
0
0
0
5
7
0
47
22
196
48
12
254
42
13
223
42
9
225
55
21
226
34
24
227
15
11
226
22
14
224
19
11
233
27
17
254
27
29
92
10
20
27
13
20
45
13
20
43
15
24
51
8
11
20
0
0
0
0
0
0
0
0
0
1
0
0
14
35
49
14
55
80
13
46
66
10
43
64
17
38
60
24
144
165
12
202
222
14
172
191
10
175
194
15
206
229
20
87
97
73
113
69
152
255
142
131
244
122
127
241
119
157
255
145
102
157
94
0
0
0
0
0
0
0
0
0
0
0
0
0
0
0
0
0
0
0
0
0
0
0
0
1
1
1
0
0
0
0
0
1
0
0
3
0
0
2
0
0
2
10
1
16
144
40
6
134
32
0
128
32
0
107
28
0
137
40
24
255
40
145
255
30
141
252
33
129
255
33
146
225
39
136
19
9
12
0
0
0
0
0
0
0
0
0
0
0
0
0
0
0
0
0
0
0
0
0
0
0
0
6
7
0
37
10
197
32
0
253
29
0
219
29
0
222
42
7
224
21
12
225
0
0
225
8
0
223
5
0
234
12
6
255
13
8
57
0
0
0
0
0
0
0
0
0
0
0
0
0
0
0
0
0
0
0
0
0
0
0
0
0
0
0
0
0
0
0
0
0
0
0
0
0
0
0
3
0
0
10
125
137
0
208
237
0
166
185
0
169
189
1
200
224
13
86
96
72
111
68
151
255
141
129
245
119
126
241
115
154
255
144
104
170
98
0
0
0
0
0
0
0
0
0
0
0
0
0
0
0
0
0
0
0
0
0
0
0
0
0
0
0
0
0
0
0
0
0
0
0
0
0
0
0
0
0
0
29
15
12
143
42
8
133
35
0
129
35
1
108
33
0
138
44
26
255
38
144
255
29
139
253
31
129
255
32
145
226
38
135
20
8
13
0
0
0
0
0
0
0
0
0
0
0
0
0
0
0
0
0
0
0
0
0
0
0
0
6
7
0
39
13
197
37
0
253
33
0
217
32
0
220
46
10
221
24
15
222
2
0
222
13
0
220
9
0
229
16
8
255
16
15
70
0
0
0
0
0
0
0
0
0
0
0
0
0
0
0
0
0
0
0
0
0
0
0
0
0
0
0
0
0
0
0
0
0
0
0
0
0
0
0
6
0
0
14
131
146
0
202
228
0
166
184
0
169
188
3
198
222
15
85
94
74
115
70
155
255
143
131
250
120
128
247
118
158
255
148
105
172
98
0
0
0
0
0
0
0
0
0
0
0
0
0
0
0
0
0
0
0
0
0
0
0
0
0
0
0
0
0
0
0
0
0
0
0
0
0
0
0
0
0
0
31
15
15
150
42
6
140
34
0
135
34
0
114
31
0
145
42
25
255
37
147
255
27
142
255
30
131
255
30
147
231
37
137
20
9
13
0
0
0
0
0
0
0
0
0
0
0
0
0
0
0
0
0
0
0
0
0
0
0
0
6
8
0
40
11
207
36
0
255
33
0
234
32
0
236
46
8
240
22
13
241
0
0
240
11
0
236
7
0
246
14
6
255
16
14
73
0
0
0
0
0
0
0
0
0
0
0
0
0
0
0
0
0
0
0
0
0
0
0
0
0
0
0
0
0
0
0
0
0
0
0
0
0
0
0
7
0
0
13
140
156
0
218
244
0
177
198
0
182
202
2
214
239
14
90
101
89
131
83
177
255
165
152
255
142
150
255
139
183
255
170
118
185
108
0
0
0
0
0
0
0
0
0
0
0
0
0
0
0
0
0
0
0
0
0
0
0
0
0
0
0
0
0
0
0
0
0
0
0
0
0
0
0
0
0
0
39
18
16
169
48
12
157
40
4
153
40
5
127
37
0
164
50
33
255
44
169
255
33
164
255
36
152
255
37
172
247
44
158
25
11
15
0
0
0
0
0
0
0
0
0
0
0
0
0
0
0
0
0
0
0
0
0
0
0
0
7
8
2
48
17
206
46
6
255
42
6
246
41
5
247
54
15
249
30
19
248
7
5
248
17
6
248
13
5
255
21
14
255
19
17
76
0
0
0
0
0
0
0
0
0
0
0
0
0
0
0
0
0
0
0
0
0
0
0
0
0
0
0
0
0
0
0
0
0
0
0
0
0
0
0
5
0
0
19
149
162
8
235
255
5
191
214
4
196
220
8
230
255
20
99
109
41
58
41
81
120
77
69
106
64
68
105
63
83
121
78
53
77
51
0
0
0
0
0
0
0
0
0
0
0
0
0
0
0
0
0
0
0
0
0
0
0
0
0
0
0
0
0
0
0
0
0
0
0
0
0
0
0
0
0
0
13
9
8
54
29
20
50
25
17
49
24
19
36
22
7
54
30
25
112
33
76
111
28
73
107
30
69
117
31
77
103
33
70
12
6
7
0
0
0
0
0
0
0
0
0
0
0
0
0
0
0
0
0
0
0
0
0
0
0
0
3
3
1
19
14
55
19
13
71
17
13
57
16
12
57
19
14
57
16
14
54
13
12
56
14
13
58
14
13
62
18
18
73
9
8
21
0
0
0
0
0
0
0
0
0
0
0
0
0
0
0
0
0
0
0
0
0
0
0
0
0
0
0
0
0
0
0
0
0
0
0
0
0
0
0
0
0
0
15
37
38
18
58
64
13
46
51
13
48
54
16
58
64
12
25
26
