P3
72 72
255
0
255
255
0
255
255
0
255
255
0
255
255
0
255
255
0
255
255
0
255
255
0
255
255
0
255
255
0
255
255
0
255
255
0
255
255
0
255
255
0
255
255
0
255
255
0
255
255
0
255
255
0
255
255
0
255
255
0
255
255
0
255
255
0
255
255
0
255
255
0
255
255
0
255
255
0
244
240
0
219
171
0
224
177
0
226
184
0
225
184
0
222
184
0
236
179
0
242
181
0
238
181
0
241
181
0
235
176
0
234
181
0
241
187
0
239
183
0
241
189
0
235
186
0
232
147
0
241
144
0
239
149
0
240
141
0
233
130
0
243
223
0
255
255
0
255
255
0
255
255
0
255
255
0
255
255
0
255
255
0
255
255
0
255
255
0
255
255
0
255
255
0
255
255
0
255
255
0
255
255
0
255
255
0
255
255
0
255
255
0
255
255
0
255
255
0
255
255
0
255
255
0
255
255
0
255
255
0
255
255
0
255
255
0
255
255
0
255
255
0
255
255
0
255
255
0
255
255
0
255
255
0
255
255
0
255
255
0
255
255
0
255
255
0
255
255
0
255
255
0
255
255
0
255
255
0
255
255
0
255
255
0
255
255
0
255
255
0
255
255
0
255
255
0
255
255
0
255
255
0
255
255
0
255
255
0
255
255
0
255
255
0
236
225
0
209
88
0
218
92
0
218
103
0
217
106
0
211
96
0
243
80
0
254
91
0
250
91
0
253
90
0
243
84
0
242
100
0
253
112
0
251
104
0
253
116
0
244
119
0
240
8
0
252
0
0
251
0
0
252
0
0
243
0
0
240
190
0
255
255
0
255
255
0
255
255
0
255
255
0
255
255
0
255
255
0
255
255
0
255
255
0
255
255
0
255
255
0
255
255
0
255
255
0
255
255
0
255
255
0
255
255
0
255
255
0
255
255
0
255
255
0
255
255
0
255
255
0
255
255
0
255
255
0
255
255
0
255
255
0
255
255
0
255
255
0
255
255
0
255
255
0
255
255
0
255
255
0
255
255
0
255
255
0
255
255
0
255
255
0
255
255
0
255
255
0
255
255
0
255
255
0
255
255
0
255
255
0
255
255
0
255
255
0
255
255
0
255
255
0
255
255
0
255
255
0
255
255
0
255
255
0
255
255
0
255
255
0
239
229
0
215
108
0
226
114
0
225
122
0
224
123
0
217
117
0
246
104
0
255
111
0
255
110
0
255
112
0
247
107
0
245
121
0
255
129
0
255
124
0
255
135
0
249
140
0
244
39
0
255
15
0
255
32
0
255
20
0
247
0
0
242
196
0
255
255
0
255
255
0
255
255
0
255
255
0
255
255
0
255
255
0
255
255
0
255
255
0
255
255
0
255
255
0
255
255
0
255
255
0
255
255
0
255
255
0
255
255
0
255
255
0
255
255
0
255
255
0
255
255
0
255
255
0
255
255
0
255
255
0
255
255
0
255
255
0
255
255
0
255
255
0
255
255
0
255
255
0
255
255
0
255
255
0
255
255
0
255
255
0
255
255
0
255
255
0
255
255
0
255
255
0
255
255
0
255
255
0
255
255
0
255
255
0
255
255
0
255
255
0
255
255
0
255
255
0
255
255
0
255
255
0
255
255
0
255
255
0
255
255
0
255
255
0
240
230
0
215
110
0
225
116
0
224
123
0
223
125
0
217
119
0
245
106
0
255
114
0
255
113
0
255
114
0
247
110
0
245
123
0
255
131
0
255
126
0
255
136
0
248
140
0
244
44
0
255
20
0
255
36
0
255
25
0
246
2
0
243
195
0
255
255
0
255
255
0
255
255
0
255
255
0
255
255
0
255
255
0
255
255
0
255
255
0
255
255
0
255
255
0
255
255
0
255
255
0
255
255
0
255
255
0
255
255
0
255
255
0
255
255
0
255
255
0
255
255
0
255
255
0
255
255
0
255
255
0
255
255
0
255
255
0
255
255
0
255
255
0
255
255
0
255
255
0
255
255
0
255
255
0
255
255
0
255
255
0
255
255
0
255
255
0
255
255
0
255
255
0
255
255
0
255
255
0
255
255
0
255
253
0
255
255
0
255
254
0
255
253
0
255
254
0
255
254
0
255
255
0
255
254
0
255
253
0
255
253
0
255
255
0
241
226
0
213
108
0
222
115
0
223
123
0
222
124
0
216
118
0
244
105
0
255
111
0
253
111
0
254
112
0
244
107
0
242
121
0
255
131
0
253
123
0
254
135
0
246
141
0
242
39
0
254
17
0
253
35
0
254
19
0
245
0
0
241
222
0
255
255
0
254
255
0
253
255
0
254
255
0
255
255
0
255
255
0
255
255
0
255
255
0
255
255
0
255
255
0
254
255
0
255
255
0
255
255
0
255
255
0
255
255
0
255
255
0
255
255
0
255
255
0
255
255
0
255
255
0
255
255
0
255
255
0
255
255
0
255
255
0
255
255
0
255
255
0
255
255
0
255
255
0
255
255
0
255
255
0
255
255
0
255
255
0
255
255
0
255
255
0
255
255
0
255
255
0
255
255
0
255
255
0
255
255
0
255
255
0
233
244
0
188
237
0
198
242
0
201
241
0
195
242
0
197
236
0
231
237
0
231
239
0
228
237
0
232
255
0
216
219
0
203
102
0
213
110
0
212
118
0
211
120
0
204
113
0
234
99
0
248
104
0
241
105
0
245
105
0
231
100
0
230
114
0
245
122
0
240
118
0
244
127
0
233
131
0
227
35
0
243
14
0
241
30
0
244
21
0
232
12
0
228
128
0
243
171
0
239
158
0
241
158
0
239
155
0
229
183
0
229
202
0
230
194
0
230
191
0
224
177
0
240
224
0
255
255
0
255
255
0
255
255
0
255
255
0
255
255
0
255
255
0
255
255
0
255
255
0
255
255
0
255
255
0
255
255
0
255
255
0
255
255
0
255
255
0
255
255
0
255
255
0
255
255
0
255
255
0
255
255
0
255
255
0
255
255
0
255
255
0
255
255
0
255
255
0
255
255
0
255
255
0
255
255
0
255
255
0
255
255
0
255
255
0
202
238
0
92
243
0
113
252
0
119
251
0
102
251
0
115
232
0
218
242
0
217
251
0
207
249
0
213
255
0
205
227
0
215
109
0
225
114
0
221
122
0
220
124
0
215
118
0
243
105
0
254
112
0
251
111
0
252
111
0
243
107
0
242
122
0
252
130
0
251
126
0
252
136
0
244
138
0
240
41
0
252
18
0
251
33
0
252
34
0
243
33
0
239
0
0
251
0
0
250
0
0
252
0
0
245
0
0
208
71
0
210
123
0
215
99
0
215
99
0
205
71
0
227
183
0
255
255
0
255
255
0
255
255
0
255
255
0
255
255
0
255
255
0
255
255
0
255
255
0
255
255
0
255
255
0
255
255
0
255
255
0
255
255
0
255
255
0
255
255
0
255
255
0
255
255
0
255
255
0
255
255
0
255
255
0
255
255
0
255
255
0
255
255
0
255
255
0
255
255
0
255
255
0
255
255
0
255
255
0
255
255
0
255
255
0
210
241
0
120
249
0
138
255
0
143
255
0
129
255
0
137
240
0
227
248
0
228
255
0
220
255
0
224
255
0
212
229
0
217
110
0
227
116
0
225
123
0
223
124
0
217
119
0
245
106
0
255
113
0
255
113
0
255
114
0
247
109
0
246
122
0
255
131
0
255
126
0
255
136
0
249
140
0
244
43
0
255
18
0
255
33
0
255
33
0
247
32
0
242
27
0
255
25
0
255
28
0
255
23
0
251
7
0
218
100
0
221
148
0
225
126
0
225
126
0
217
101
0
232
193
0
255
255
0
255
255
0
255
255
0
255
255
0
255
255
0
255
255
0
255
255
0
255
255
0
255
255
0
255
255
0
255
255
0
255
255
0
255
255
0
255
255
0
255
255
0
255
255
0
255
255
0
255
255
0
255
255
0
255
255
0
255
255
0
255
255
0
255
255
0
255
255
0
255
255
0
255
255
0
255
255
0
255
255
0
255
255
0
255
255
0
210
240
0
122
248
0
140
255
0
144
255
0
132
255
0
139
239
0
224
247
0
227
255
0
219
255
0
224
255
0
211
229
0
215
110
0
226
115
0
223
123
0
222
124
0
216
118
0
244
105
0
255
112
0
255
111
0
255
113
0
246
109
0
244
122
0
255
130
0
255
125
0
255
135
0
248
139
0
242
42
0
255
18
0
255
33
0
255
33
0
245
31
0
240
31
0
255
31
0
255
33
0
255
29
0
251
14
0
217
103
0
220
149
0
224
127
0
223
128
0
215
103
0
232
193
0
255
255
0
255
255
0
255
255
0
255
255
0
255
255
0
255
255
0
255
255
0
255
255
0
255
255
0
255
255
0
255
255
0
255
255
0
255
255
0
255
255
0
255
255
0
255
255
0
255
255
0
255
255
0
255
255
0
255
255
0
255
255
0
255
255
0
255
255
0
255
255
0
255
255
0
255
255
0
255
255
0
255
255
0
255
255
0
255
255
0
238
247
0
120
249
0
139
255
0
146
255
0
132
255
0
140
242
0
228
249
0
231
255
0
223
255
0
228
255
0
215
231
0
219
111
0
229
116
0
226
125
0
225
126
0
219
120
0
246
107
0
255
115
0
254
113
0
255
115
0
248
110
0
247
123
0
255
132
0
255
127
0
255
138
0
248
141
0
246
42
0
255
19
0
255
34
0
255
33
0
248
31
0
244
30
0
255
30
0
255
32
0
255
28
0
252
12
0
221
103
0
223
150
0
228
129
0
228
128
0
218
99
0
242
216
0
255
255
0
255
255
0
255
255
0
255
255
0
255
255
0
255
255
0
255
255
0
255
255
0
255
255
0
255
255
0
255
255
0
255
255
0
255
255
0
255
255
0
255
255
0
255
255
0
255
255
0
255
255
0
255
255
0
255
255
0
255
255
0
255
255
0
255
255
0
255
255
0
255
255
0
217
236
0
154
222
0
164
233
0
165
232
0
167
231
0
149
222
0
128
236
0
134
242
0
137
240
0
123
240
0
130
228
0
215
236
0
216
245
0
208
240
0
213
255
0
200
221
0
205
102
0
216
110
0
213
117
0
212
118
0
205
114
0
234
99
0
247
106
0
241
106
0
244
105
0
232
101
0
231
116
0
245
124
0
241
118
0
244
129
0
235
134
0
231
36
0
242
17
0
241
31
0
243
30
0
233
28
0
229
28
0
243
29
0
241
31
0
244
27
0
239
11
0
206
97
0
209
141
0
213
120
0
213
121
0
212
112
0
207
143
0
217
172
0
218
165
0
217
164
0
209
155
0
236
220
0
255
255
0
255
255
0
255
255
0
255
255
0
255
255
0
255
255
0
255
255
0
255
255
0
255
255
0
255
255
0
255
255
0
255
255
0
255
255
0
255
255
0
255
255
0
255
255
0
255
255
0
255
255
0
255
255
0
255
255
0
145
225
0
0
206
0
0
216
0
0
216
0
0
211
0
19
213
0
158
246
0
146
248
0
139
246
0
128
247
0
135
235
0
222
242
0
224
251
0
215
247
0
219
255
0
206
226
0
210
108
0
220
113
0
217
121
0
217
123
0
212
117
0
241
103
0
252
108
0
248
108
0
250
109
0
240
105
0
238
119
0
250
128
0
247
122
0
249
134
0
241
137
0
237
38
0
249
17
0
247
32
0
249
30
0
241
28
0
237
29
0
249
31
0
247
31
0
250
27
0
245
14
0
214
101
0
216
145
0
220
124
0
221
128
0
229
152
0
176
38
0
158
0
0
171
0
0
169
0
0
149
0
0
211
157
0
255
255
0
255
255
0
255
255
0
255
255
0
255
255
0
255
255
0
255
255
0
255
255
0
255
255
0
255
255
0
255
255
0
255
255
0
255
255
0
255
255
0
255
255
0
255
255
0
255
255
0
255
255
0
255
255
0
255
255
0
160
232
0
0
218
0
0
225
0
0
224
0
0
220
0
36
223
0
161
255
0
150
255
0
144
255
0
133
255
0
140
243
0
228
249
0
231
255
0
222
255
0
227
255
0
215
231
0
220
111
0
228
116
0
225
124
0
225
126
0
219
119
0
247
107
0
255
115
0
255
114
0
255
115
0
249
111
0
247
124
0
255
132
0
255
127
0
255
137
0
249
141
0
245
43
0
255
19
0
255
34
0
255
33
0
249
32
0
244
30
0
255
31
0
255
33
0
255
28
0
252
13
0
221
102
0
223
150
0
227
129
0
228
132
0
236
152
0
190
57
0
176
3
0
187
33
0
185
22
0
169
0
0
218
167
0
255
255
0
255
255
0
255
255
0
255
255
0
255
255
0
255
255
0
255
255
0
255
255
0
255
255
0
255
255
0
255
255
0
255
255
0
255
255
0
255
255
0
255
255
0
255
255
0
255
255
0
255
255
0
255
255
0
255
255
0
160
231
0
0
216
0
0
224
0
1
223
0
0
219
0
39
221
0
157
253
0
148
255
0
142
255
0
132
255
0
139
239
0
224
248
0
228
255
0
220
255
0
224
255
0
213
229
0
217
112
0
226
117
0
224
124
0
223
127
0
217
121
0
244
105
0
255
112
0
255
112
0
255
113
0
245
108
0
245
122
0
255
130
0
255
125
0
255
135
0
248
140
0
242
42
0
255
18
0
255
33
0
255
32
0
245
31
0
240
30
0
255
30
0
255
32
0
255
28
0
250
11
0
218
103
0
220
152
0
225
129
0
225
134
0
232
152
0
190
64
0
178
11
0
189
42
0
187
33
0
171
0
0
217
167
0
255
255
0
255
255
0
255
255
0
255
255
0
255
255
0
255
255
0
255
255
0
255
255
0
255
255
0
255
255
0
255
255
0
255
255
0
255
255
0
255
255
0
255
253
0
255
255
0
255
255
0
255
255
0
255
255
0
255
255
0
180
236
0
0
217
0
0
224
0
1
224
0
0
220
0
38
222
0
158
253
0
149
255
0
142
254
0
131
255
0
138
241
0
222
248
0
223
255
0
214
254
0
219
255
0
206
225
0
213
87
0
223
92
0
220
104
0
219
102
0
213
100
0
246
108
0
255
115
0
255
112
0
255
113
0
247
109
0
245
123
0
255
131
0
254
126
0
255
137
0
247
141
0
244
41
0
255
18
0
254
33
0
255
32
0
246
31
0
243
31
0
255
31
0
254
33
0
255
30
0
251
16
0
214
86
0
214
123
0
221
103
0
221
107
0
230
127
0
177
29
0
161
0
0
176
0
0
172
0
0
153
0
0
227
178
0
255
255
0
255
255
0
255
255
0
255
255
0
255
255
0
255
254
0
255
255
0
255
255
0
255
255
0
255
255
0
255
255
0
255
255
0
255
255
0
255
255
0
255
253
0
226
240
0
177
229
0
184
234
0
184
234
0
196
238
0
121
214
0
0
206
0
0
212
0
1
212
0
0
207
0
37
208
0
150
238
0
139
243
0
135
239
0
122
241
0
130
227
0
219
233
0
222
242
0
212
238
0
217
250
0
204
218
0
210
123
0
220
129
0
217
135
0
217
140
0
210
129
0
233
98
0
246
103
0
241
105
0
245
106
0
231
101
0
230
116
0
245
125
0
239
118
0
244
129
0
235
133
0
230
36
0
244
17
0
240
31
0
244
29
0
232
29
0
229
29
0
244
30
0
240
31
0
245
26
0
238
10
0
209
112
0
213
160
0
216
135
0
217
140
0
222
152
0
186
89
0
177
57
0
185
60
0
184
58
0
179
67
0
195
147
0
207
185
0
211
186
0
211
185
0
202
176
0
234
226
0
255
254
0
255
255
0
255
255
0
255
255
0
255
255
0
255
255
0
255
255
0
255
255
0
255
255
0
255
255
0
144
220
0
0
195
0
0
209
0
0
207
0
0
209
0
0
201
0
0
220
0
1
222
0
1
219
0
0
216
0
38
218
0
157
246
0
146
249
0
142
248
0
125
249
0
138
234
0
246
241
0
255
249
0
250
248
0
251
250
0
244
243
0
247
253
0
251
255
0
250
255
0
251
255
0
243
234
0
241
96
0
249
97
0
248
112
0
250
112
0
241
107
0
240
120
0
250
129
0
248
123
0
250
133
0
242
138
0
239
40
0
250
18
0
248
33
0
250
32
0
242
30
0
238
29
0
250
30
0
248
33
0
250
21
0
243
0
0
241
192
0
251
255
0
250
255
0
250
255
0
248
255
0
247
255
0
254
255
0
253
255
0
254
255
0
255
255
0
145
97
0
56
0
0
88
0
0
85
0
0
51
0
0
179
148
0
255
255
0
255
255
0
255
255
0
255
255
0
255
255
0
255
255
0
255
255
0
255
255
0
255
255
0
255
255
0
155
227
0
0
203
0
0
217
0
0
216
0
0
216
0
0
208
0
0
226
0
1
226
0
1
224
0
0
221
0
39
224
0
159
254
0
149
255
0
143
255
0
129
255
0
140
241
0
249
250
0
255
255
0
255
255
0
255
255
0
245
245
0
250
254
0
255
255
0
255
255
0
255
255
0
248
234
0
246
96
0
255
101
0
255
115
0
255
113
0
248
110
0
246
123
0
255
131
0
255
126
0
255
137
0
249
141
0
245
43
0
255
18
0
255
33
0
255
33
0
248
31
0
243
30
0
255
30
0
255
32
0
255
23
0
249
0
0
244
191
0
255
255
0
255
255
0
255
255
0
255
255
0
247
253
0
255
255
0
255
255
0
255
255
0
255
255
0
156
105
0
72
0
0
105
0
0
102
0
0
71
0
0
187
156
0
255
255
0
255
255
0
255
255
0
255
255
0
255
255
0
255
255
0
255
255
0
255
255
0
255
255
0
255
255
0
161
228
0
0
203
0
0
216
0
0
214
0
0
216
0
0
207
0
0
222
0
1
223
0
1
222
0
0
218
0
39
220
0
160
253
0
151
255
0
145
255
0
131
255
0
141
238
0
246
247
0
255
255
0
255
255
0
255
255
0
240
240
0
245
245
0
255
255
0
255
255
0
255
255
0
245
229
0
243
98
0
255
104
0
255
118
0
255
116
0
244
111
0
243
121
0
255
129
0
255
124
0
255
135
0
247
138
0
242
42
0
255
18
0
255
33
0
255
32
0
245
31
0
240
34
0
255
36
0
255
38
0
255
28
0
247
0
0
239
187
0
255
255
0
255
255
0
255
255
0
252
252
0
241
241
0
254
254
0
255
255
0
255
255
0
255
255
0
162
110
0
87
0
0
116
0
0
115
0
0
85
0
0
191
162
0
255
255
0
255
255
0
255
255
0
255
255
0
255
255
0
255
255
0
255
255
0
255
255
0
255
255
0
255
255
0
160
228
0
0
208
0
0
221
0
0
220
0
0
221
0
0
211
0
0
226
0
1
228
0
1
226
0
0
223
0
34
224
0
141
255
0
128
255
0
124
255
0
103
255
0
122
242
0
250
249
0
255
255
0
255
255
0
255
255
0
245
245
0
249
249
0
255
255
0
255
255
0
255
255
0
248
229
0
248
71
0
255
71
0
255
90
0
255
87
0
249
84
0
247
122
0
255
137
0
255
127
0
255
140
0
249
142
0
246
42
0
255
19
0
255
34
0
255
35
0
249
36
0
245
0
0
255
0
0
255
0
0
255
0
0
250
0
0
245
178
0
255
255
0
255
255
0
255
255
0
253
253
0
247
247
0
255
255
0
255
255
0
255
255
0
255
255
0
147
93
0
50
0
0
86
0
0
82
0
0
49
0
0
181
147
0
255
255
0
255
255
0
255
255
0
255
255
0
255
255
0
255
255
0
255
255
0
255
255
0
255
255
0
255
255
0
160
225
0
0
193
0
0
207
0
0
206
0
0
206
0
1
197
0
0
215
0
1
215
0
1
212
0
0
209
0
40
212
0
171
239
0
159
244
0
152
241
0
137
243
0
144
228
0
238
235
0
248
244
0
242
242
0
244
244
0
231
231
0
235
235
0
244
244
0
242
241
0
244
250
0
234
223
0
232
109
0
243
113
0
242
126
0
245
128
0
234
122
0
234
117
0
245
123
0
241
120
0
245
131
0
236
132
0
232
37
0
245
16
0
242
31
0
244
28
0
234
23
0
230
52
0
242
68
0
241
60
0
243
55
0
235
47
0
231
187
0
243
253
0
242
241
0
243
243
0
241
241
0
231
231
0
240
240
0
242
242
0
244
245
0
250
253
0
160
122
0
99
42
0
125
53
0
122
50
0
94
41
0
194
169
0
255
255
0
255
255
0
255
255
0
255
255
0
255
255
0
255
255
0
255
255
0
255
255
0
255
255
0
255
255
0
160
223
0
0
195
0
0
209
0
2
207
0
2
209
0
2
200
0
1
215
0
1
217
0
0
214
0
0
212
0
65
213
0
255
242
0
255
246
0
255
243
0
255
244
0
243
230
0
240
238
0
247
247
0
245
245
0
246
246
0
232
232
0
237
237
0
247
247
0
245
245
0
247
248
0
236
241
0
234
248
0
247
255
0
245
255
0
248
255
0
235
247
0
235
126
0
248
106
0
244
121
0
248
130
0
238
135
0
233
37
0
247
15
0
244
32
0
247
17
0
236
2
0
233
207
0
246
255
0
244
255
0
246
255
0
238
249
0
233
241
0
246
247
0
245
245
0
246
246
0
243
243
0
233
233
0
244
244
0
246
246
0
247
247
0
241
243
0
240
240
0
255
248
0
255
255
0
255
253
0
252
245
0
245
248
0
255
254
0
255
255
0
255
255
0
255
255
0
255
255
0
255
255
0
255
255
0
255
255
0
255
255
0
255
255
0
160
227
0
0
207
0
0
221
0
1
219
0
1
220
0
0
211
0
0
225
0
1
227
0
0
226
0
0
224
0
67
225
0
255
255
0
255
255
0
255
255
0
255
255
0
250
243
0
250
250
0
255
255
0
255
255
0
255
255
0
244
244
0
249
249
0
255
255
0
255
255
0
255
255
0
247
248
0
247
254
0
255
255
0
255
255
0
255
255
0
248
251
0
246
128
0
255
114
0
255
131
0
255
138
0
249
142
0
245
41
0
255
18
0
255
36
0
255
23
0
249
0
0
245
205
0
255
255
0
255
255
0
255
255
0
250
255
0
245
247
0
255
255
0
255
255
0
255
255
0
254
254
0
246
246
0
255
255
0
255
255
0
255
255
0
249
249
0
247
250
0
255
255
0
255
255
0
255
255
0
255
255
0
246
249
0
255
255
0
255
255
0
255
255
0
255
255
0
255
255
0
255
255
0
255
255
0
255
255
0
255
255
0
255
255
0
160
227
0
0
203
0
0
217
0
0
215
0
0
215
0
0
207
0
0
223
0
1
224
0
1
222
0
0
220
0
66
222
0
255
252
0
255
255
0
255
255
0
255
255
0
241
241
0
248
248
0
255
255
0
255
255
0
255
255
0
240
240
0
244
244
0
255
255
0
255
255
0
255
255
0
244
244
0
243
242
0
255
255
0
255
255
0
255
255
0
244
242
0
243
125
0
255
114
0
255
128
0
255
135
0
247
138
0
243
42
0
255
18
0
255
34
0
255
24
0
245
3
0
241
195
0
255
255
0
255
255
0
255
255
0
247
247
0
241
240
0
255
255
0
255
255
0
255
255
0
252
252
0
240
240
0
254
254
0
255
255
0
255
255
0
248
248
0
236
236
0
255
255
0
255
255
0
255
255
0
248
248
0
240
240
0
255
255
0
255
255
0
255
255
0
255
255
0
255
255
0
255
255
0
255
255
0
255
255
0
255
255
0
255
255
0
160
228
0
0
208
0
0
222
0
0
220
0
0
221
0
0
211
0
0
226
0
1
228
0
1
224
0
0
224
0
67
228
0
255
255
0
255
255
0
255
255
0
255
255
0
245
245
0
250
250
0
255
255
0
255
255
0
254
254
0
249
249
0
255
255
0
255
255
0
255
255
0
255
255
0
255
255
0
255
255
0
255
255
0
255
255
0
255
255
0
255
255
0
251
131
0
254
112
0
255
130
0
255
138
0
249
140
0
246
42
0
255
19
0
255
35
0
255
23
0
249
3
0
245
199
0
255
255
0
255
255
0
255
255
0
250
250
0
246
246
0
255
255
0
255
255
0
255
255
0
253
253
0
255
255
0
255
255
0
255
255
0
255
255
0
255
255
0
255
255
0
255
255
0
255
255
0
255
255
0
255
255
0
255
255
0
255
255
0
255
255
0
255
255
0
255
255
0
255
255
0
255
255
0
255
255
0
255
255
0
255
255
0
255
255
0
160
222
0
0
191
0
0
207
0
2
205
0
2
206
0
2
197
0
1
213
0
1
215
0
1
213
0
0
209
0
63
210
0
255
240
0
252
244
0
241
241
0
242
242
0
229
229
0
236
236
0
243
243
0
240
240
0
250
250
0
233
233
0
197
197
0
196
196
0
200
200
0
201
201
0
201
201
0
201
201
0
201
201
0
201
200
0
195
202
0
196
196
0
236
123
0
250
111
0
240
119
0
244
128
0
235
133
0
230
37
0
244
17
0
241
33
0
244
19
0
233
0
0
231
193
0
244
255
0
241
240
0
244
244
0
236
236
0
229
229
0
243
243
0
241
241
0
246
246
0
248
248
0
209
209
0
189
189
0
201
201
0
201
201
0
201
201
0
201
201
0
201
201
0
200
200
0
200
200
0
196
197
0
213
210
0
222
219
0
219
215
0
217
213
0
210
206
0
237
235
0
255
255
0
255
255
0
255
255
0
255
255
0
255
255
0
160
225
0
0
197
0
0
213
0
1
211
0
1
211
0
1
202
0
1
218
0
1
221
0
1
219
0
0
216
0
64
217
0
255
245
0
253
248
0
246
246
0
247
247
0
236
236
0
241
241
0
248
248
0
245
245
0
255
255
0
208
208
0
0
0
0
0
0
0
2
2
0
2
2
0
2
2
0
2
2
0
3
3
0
3
2
0
0
0
0
9
2
0
214
116
0
255
144
0
246
122
0
248
135
0
240
137
0
236
38
0
248
17
0
246
33
0
248
20
0
239
1
0
236
195
0
248
255
0
246
246
0
248
248
0
241
241
0
236
236
0
247
247
0
246
246
0
253
253
0
250
250
0
47
47
0
0
0
0
3
3
0
2
2
0
2
2
0
2
2
0
3
3
0
2
2
0
1
2
0
0
0
0
42
26
0
82
56
0
65
44
0
65
44
0
32
7
0
159
149
0
255
255
0
255
255
0
255
255
0
255
255
0
255
255
0
160
228
0
0
207
0
0
221
0
0
219
0
0
220
0
0
210
0
0
225
0
1
227
0
1
225
0
0
224
0
67
227
0
255
255
0
255
255
0
255
255
0
255
255
0
245
245
0
251
251
0
255
255
0
255
255
0
255
255
0
217
217
0
0
0
0
0
0
0
0
0
0
0
0
0
0
0
0
0
0
0
0
0
0
0
0
0
0
0
0
3
0
0
219
121
0
255
151
0
255
125
0
255
138
0
250
141
0
246
42
0
255
19
0
255
36
0
255
23
0
249
3
0
245
198
0
255
255
0
255
255
0
255
255
0
251
251
0
246
246
0
255
255
0
255
255
0
255
255
0
255
255
0
50
50
0
0
0
0
0
0
0
0
0
0
0
0
0
0
0
0
0
0
0
0
0
0
0
0
0
0
0
0
45
29
0
89
61
0
69
49
0
70
49
0
38
12
0
162
152
0
255
255
0
255
255
0
255
255
0
255
255
0
255
255
0
157
226
0
0
203
0
0
216
0
0
214
0
0
215
0
0
206
0
0
222
0
1
223
0
1
221
0
0
219
0
66
221
0
255
252
0
255
255
0
255
255
0
255
255
0
240
240
0
248
248
0
255
255
0
255
255
0
255
255
0
218
218
0
1
1
0
0
0
0
0
0
0
0
0
0
0
0
0
0
0
0
0
0
0
0
0
0
0
0
0
13
4
0
218
119
0
255
145
0
255
122
0
255
134
0
247
138
0
241
42
0
255
18
0
255
34
0
255
24
0
244
3
0
240
195
0
255
255
0
255
255
0
255
255
0
247
247
0
240
240
0
255
255
0
255
255
0
255
255
0
255
255
0
65
65
0
0
0
0
0
0
0
0
0
0
0
0
0
0
0
0
0
0
0
0
0
0
0
0
0
0
0
0
62
47
0
103
78
0
86
67
0
86
67
0
57
33
0
170
161
0
255
255
0
255
255
0
255
255
0
255
255
0
255
255
0
174
237
0
0
205
0
0
219
0
0
218
0
0
219
0
0
211
0
0
227
0
1
228
0
1
225
0
0
224
0
67
227
0
255
254
0
255
255
0
255
255
0
255
255
0
245
245
0
251
251
0
255
255
0
255
255
0
255
255
0
220
220
0
0
0
0
0
0
0
0
0
0
0
0
0
0
0
0
0
0
0
0
0
0
0
0
0
0
0
0
14
3
0
220
122
0
255
149
0
255
125
0
255
138
0
250
141
0
246
43
0
255
19
0
255
36
0
255
24
0
249
2
0
245
198
0
255
255
0
255
255
0
255
255
0
250
250
0
246
246
0
255
255
0
255
255
0
255
255
0
255
255
0
66
66
0
0
0
0
0
0
0
0
0
0
0
0
0
0
0
0
0
0
0
0
0
0
0
0
0
0
0
0
61
44
0
103
76
0
84
65
0
86
65
0
56
31
0
169
160
0
237
241
0
214
229
0
224
234
0
224
234
0
234
233
0
146
216
0
0
203
0
0
211
0
0
210
0
0
211
0
1
202
0
0
216
0
1
218
0
1
215
0
0
214
0
64
217
0
255
244
0
253
248
0
245
245
0
246
246
0
235
235
0
240
240
0
247
247
0
244
244
0
255
255
0
214
214
0
1
1
0
0
0
0
0
0
0
0
0
0
0
0
0
0
0
0
0
0
0
0
0
0
0
0
0
11
3
0
216
116
0
255
142
0
244
120
0
247
132
0
239
136
0
235
40
0
247
18
0
245
34
0
247
22
0
238
1
0
236
193
0
247
255
0
245
244
0
247
247
0
240
240
0
236
236
0
247
247
0
245
245
0
253
253
0
255
255
0
62
62
0
0
0
0
0
0
0
0
0
0
0
0
0
0
0
0
0
0
0
0
0
0
0
0
0
0
0
0
58
44
0
98
74
0
80
62
0
81
62
0
51
26
0
168
159
0
139
177
0
10
103
0
22
123
0
24
124
0
31
107
0
13
143
0
0
221
0
1
211
0
2
208
0
2
210
0
1
199
0
1
212
0
1
215
0
0
213
0
0
212
0
63
212
0
255
242
0
253
247
0
244
244
0
245
245
0
231
231
0
238
238
0
246
246
0
242
242
0
255
255
0
212
212
0
0
0
0
0
0
0
0
0
0
0
0
0
0
0
0
0
0
0
0
0
0
0
0
0
0
0
0
10
4
0
214
116
0
255
140
0
241
119
0
246
131
0
237
134
0
232
36
0
246
15
0
244
31
0
246
19
0
235
1
0
232
193
0
246
255
0
244
242
0
246
246
0
237
237
0
230
230
0
245
245
0
244
244
0
253
253
0
255
255
0
61
61
0
0
0
0
0
0
0
0
0
0
0
0
0
0
0
0
0
0
0
0
0
0
0
0
0
0
0
0
57
46
0
95
71
0
80
57
0
80
57
0
50
23
0
168
158
0
133
179
0
0
105
0
0
126
0
0
126
0
0
107
0
0
148
0
0
233
0
1
221
0
1
218
0
1
219
0
1
211
0
1
228
0
1
227
0
0
225
0
0
222
0
66
226
0
255
254
0
255
255
0
255
255
0
255
255
0
245
244
0
250
250
0
255
255
0
255
255
0
255
255
0
219
219
0
1
1
0
0
0
0
0
0
0
0
0
0
0
0
0
0
0
0
0
0
0
0
0
0
0
0
0
12
4
0
218
122
0
255
147
0
255
123
0
255
136
0
250
142
0
246
41
0
255
18
0
255
35
0
255
23
0
248
3
0
244
198
0
255
255
0
255
255
0
255
255
0
250
250
0
244
244
0
255
255
0
255
255
0
255
255
0
255
255
0
65
65
0
0
0
0
0
0
0
0
0
0
0
0
0
0
0
0
0
0
0
0
0
0
0
0
0
0
0
0
61
46
0
102
76
0
85
63
0
86
63
0
55
31
0
169
160
0
144
187
0
0
114
0
11
136
0
15
137
0
17
119
0
10
151
0
0
227
0
0
217
0
0
215
0
0
215
0
0
207
0
0
223
0
1
223
0
1
221
0
0
219
0
66
223
0
255
252
0
255
255
0
255
255
0
255
255
0
239
241
0
248
248
0
255
255
0
255
255
0
255
255
0
219
219
0
1
1
0
0
0
0
0
0
0
0
0
0
0
0
0
0
0
0
0
0
0
0
0
0
0
0
0
13
3
0
218
118
0
255
145
0
255
122
0
255
134
0
247
139
0
242
43
0
255
19
0
255
35
0
255
24
0
245
1
0
241
194
0
255
255
0
255
255
0
255
255
0
248
246
0
241
240
0
255
255
0
255
255
0
255
255
0
255
255
0
65
65
0
0
0
0
0
0
0
0
0
0
0
0
0
0
0
0
0
0
0
0
0
0
0
0
0
0
0
0
60
44
0
100
76
0
83
65
0
84
65
0
54
30
0
168
159
0
143
188
0
0
115
0
11
136
0
14
137
0
17
119
0
9
153
0
0
232
0
0
222
0
0
219
0
0
221
0
0
211
0
0
226
0
1
227
0
1
225
0
0
224
0
68
228
0
255
255
0
255
255
0
255
255
0
255
255
0
254
245
0
253
250
0
255
255
0
255
255
0
255
255
0
218
215
0
0
0
0
0
0
0
0
0
0
0
0
0
0
0
0
0
0
0
0
0
0
0
0
0
0
0
0
0
0
0
218
122
0
255
151
0
255
126
0
255
139
0
249
141
0
245
42
0
255
19
0
255
35
0
255
22
0
249
0
0
245
211
0
255
255
0
255
255
0
255
255
0
250
255
0
246
249
0
255
255
0
255
255
0
255
255
0
255
255
0
46
46
0
0
0
0
0
0
0
0
0
0
0
0
0
0
0
0
0
0
0
0
0
0
0
0
0
0
0
0
59
45
0
104
76
0
84
65
0
85
65
0
56
31
0
170
159
0
143
185
0
0
109
0
9
130
0
11
130
0
15
114
0
8
146
0
0
218
0
2
209
0
2
206
0
2
207
0
1
198
0
1
214
0
1
216
0
1
214
0
0
212
0
63
211
0
247
239
0
245
243
0
241
241
0
241
242
0
234
230
0
238
237
0
243
243
0
241
239
0
254
254
0
203
204
0
10
10
0
8
7
0
10
9
0
9
13
0
7
11
0
6
2
0
9
2
0
10
3
0
5
0
0
15
3
0
212
114
0
254
141
0
240
117
0
244
130
0
236
135
0
232
37
0
244
16
0
241
32
0
244
19
0
235
4
0
232
190
0
244
250
0
242
238
0
245
238
0
237
232
0
231
235
0
243
246
0
241
241
0
250
250
0
249
249
0
58
58
0
2
2
0
11
11
0
11
11
0
12
15
0
2
3
0
1
1
0
2
2
0
2
1
0
0
0
0
56
46
0
96
72
0
80
59
0
80
60
0
51
25
0
169
159
0
143
184
0
0
107
0
9
128
0
12
129
0
15
114
0
9
146
0
0
220
0
1
210
0
1
207
0
1
209
0
2
199
0
2
214
0
1
216
0
1
215
0
0
211
0
37
210
0
157
240
0
144
244
0
138
241
0
126
243
0
132
229
0
219
236
0
219
243
0
210
240
0
218
250
0
208
235
0
220
219
0
224
223
0
225
225
0
224
230
0
220
208
0
218
92
0
224
95
0
225
109
0
220
107
0
216
102
0
240
117
0
250
125
0
240
118
0
244
129
0
237
134
0
233
38
0
244
17
0
242
32
0
244
31
0
235
27
0
232
30
0
244
37
0
241
31
0
244
23
0
237
24
0
231
203
0
243
253
0
242
240
0
246
246
0
247
247
0
228
228
0
219
219
0
226
226
0
226
227
0
227
231
0
136
79
0
83
0
0
105
1
0
104
0
0
104
0
0
83
45
0
77
73
0
82
61
0
80
60
0
50
26
0
168
159
0
143
187
0
0
114
0
11
135
0
15
137
0
16
119
0
9
153
0
0
232
0
0
222
0
0
219
0
0
220
0
0
210
0
0
226
0
1
227
0
1
225
0
0
221
0
36
224
0
148
255
0
137
255
0
132
255
0
119
255
0
129
242
0
227
249
0
228
255
0
219
255
0
215
255
0
218
249
0
255
255
0
255
255
0
255
255
0
255
255
0
255
251
0
255
110
0
255
113
0
255
128
0
255
129
0
255
123
0
251
125
0
255
131
0
255
127
0
255
138
0
250
141
0
246
43
0
255
19
0
255
33
0
255
34
0
248
35
0
244
10
0
255
2
0
255
9
0
255
0
0
250
0
0
245
209
0
255
255
0
255
255
0
255
255
0
250
250
0
255
255
0
255
255
0
255
255
0
255
255
0
255
255
0
164
96
0
96
0
0
125
0
0
125
0
0
127
0
0
92
44
0
78
77
0
87
65
0
86
65
0
55
32
0
169
159
0
143
187
0
0
114
0
10
134
0
14
136
0
16
118
0
9
150
0
0
227
0
0
217
0
0
215
0
0
215
0
0
206
0
0
223
0
1
224
0
1
221
0
0
218
0
40
221
0
159
253
0
150
255
0
144
255
0
133
255
0
140
238
0
225
247
0
227
255
0
219
254
0
218
255
0
212
240
0
247
244
0
255
255
0
255
255
0
255
255
0
243
228
0
241
93
0
255
98
0
255
112
0
255
111
0
244
107
0
244
122
0
255
130
0
255
125
0
255
135
0
247
139
0
242
43
0
255
18
0
255
33
0
255
33
0
245
31
0
239
32
0
255
34
0
255
38
0
255
18
0
247
14
0
240
213
0
255
255
0
255
255
0
255
255
0
247
247
0
241
240
0
255
255
0
255
255
0
255
255
0
255
255
0
142
83
0
82
0
0
109
0
0
108
0
0
109
0
0
86
44
0
79
77
0
85
64
0
84
64
0
54
31
0
169
159
0
143
187
0
0
115
0
10
137
0
13
137
0
15
120
0
9
154
0
0
231
0
1
220
0
1
218
0
1
219
0
1
211
0
1
225
0
1
227
0
1
226
0
0
221
0
39
223
0
160
254
0
150
255
0
143
255
0
132
255
0
140
242
0
228
249
0
230
255
0
223
255
0
221
255
0
215
245
0
252
255
0
255
255
0
255
255
0
255
255
0
250
240
0
246
97
0
255
101
0
255
116
0
255
115
0
248
110
0
246
124
0
255
133
0
255
127
0
255
138
0
250
143
0
246
42
0
255
19
0
255
34
0
255
33
0
248
31
0
244
30
0
255
30
0
255
34
0
255
14
0
248
13
0
246
221
0
255
255
0
255
255
0
255
255
0
252
255
0
250
255
0
255
255
0
255
255
0
255
255
0
255
255
0
149
92
0
85
0
0
113
2
0
112
1
0
115
0
0
88
44
0
81
77
0
86
63
0
85
62
0
55
30
0
170
159
0
143
184
0
0
108
0
10
130
0
11
131
0
15
114
0
9
147
0
0
219
0
1
209
0
1
207
0
1
207
0
2
199
0
1
213
0
1
215
0
1
214
0
0
210
0
37
210
0
151
240
0
141
245
0
135
242
0
124
244
0
131
231
0
216
238
0
218
248
0
210
244
0
209
250
0
204
235
0
237
232
0
246
238
0
244
237
0
246
243
0
235
218
0
234
92
0
245
93
0
243
108
0
246
107
0
233
103
0
233
116
0
247
124
0
242
118
0
246
129
0
237
134
0
232
35
0
245
14
0
244
29
0
246
28
0
235
27
0
232
29
0
245
30
0
242
33
0
246
15
0
237
12
0
231
203
0
245
251
0
244
238
0
245
239
0
239
241
0
233
232
0
243
227
0
242
230
0
245
233
0
251
243
0
137
82
0
80
0
0
107
2
0
106
1
0
108
0
0
84
42
0
76
71
0
81
58
0
80
58
0
49
23
0
167
158
0
143
185
0
0
109
0
11
132
0
14
132
0
16
114
0
10
147
0
0
223
0
0
213
0
0
211
0
0
211
0
0
202
0
0
217
0
1
218
0
1
217
0
0
214
0
38
216
0
155
244
0
144
248
0
139
245
0
128
246
0
135
232
0
220
241
0
222
250
0
213
246
0
217
254
0
205
222
0
211
102
0
221
109
0
217
118
0
217
121
0
211
114
0
237
103
0
248
109
0
245
110
0
248
110
0
239
105
0
238
120
0
249
128
0
244
123
0
248
134
0
240
135
0
236
38
0
247
17
0
246
31
0
248
30
0
239
29
0
235
29
0
247
31
0
245
32
0
248
28
0
243
11
0
211
99
0
214
145
0
218
120
0
220
123
0
226
139
0
181
62
0
171
21
0
179
27
0
183
29
0
195
38
0
120
10
0
95
0
0
107
0
0
108
0
0
109
0
0
85
43
0
77
75
0
83
62
0
81
63
0
51
28
0
168
159
0
143
188
0
0
115
0
10
137
0
14
138
0
16
119
0
9
153
0
0
232
0
0
221
0
0
218
0
0
220
0
0
210
0
0
226
0
1
227
0
1
226
0
0
221
0
39
224
0
160
255
0
150
255
0
144
255
0
134
255
0
141
242
0
228
249
0
231
255
0
222
255
0
228
255
0
214
228
0
215
93
0
225
99
0
222
110
0
220
108
0
215
105
0
247
108
0
255
117
0
255
114
0
255
116
0
250
111
0
248
125
0
255
133
0
255
128
0
255
139
0
250
142
0
247
43
0
255
19
0
255
34
0
255
33
0
249
32
0
244
31
0
255
31
0
255
32
0
255
31
0
253
13
0
217
87
0
218
132
0
223
112
0
223
115
0
233
135
0
183
39
0
167
0
0
179
7
0
180
6
0
190
7
0
123
1
0
100
0
0
112
0
0
112
0
0
114
0
0
88
45
0
80
78
0
86
65
0
85
65
0
56
33
0
170
160
0
143
187
0
0
114
0
10
133
0
14
135
0
16
118
0
9
150
0
0
227
0
0
217
0
0
214
0
0
215
0
0
206
0
0
222
0
1
223
0
1
221
0
0
217
0
39
220
0
156
252
0
147
255
0
141
255
0
131
255
0
138
238
0
223
246
0
226
255
0
217
254
0
222
255
0
210
229
0
216
111
0
225
118
0
223
125
0
222
126
0
215
120
0
243
104
0
255
111
0
255
111
0
255
112
0
245
108
0
243
121
0
255
129
0
255
124
0
255
134
0
247
138
0
241
42
0
255
18
0
255
33
0
255
33
0
244
31
0
239
30
0
255
30
0
255
32
0
255
28
0
250
12
0
216
103
0
219
151
0
223
128
0
223
132
0
230
151
0
188
63
0
176
11
0
186
38
0
189
37
0
198
41
0
124
11
0
95
0
0
110
0
0
110
0
0
111
0
0
87
44
0
79
76
0
85
64
0
84
63
0
54
30
0
169
159
0
143
188
0
0
115
0
10
137
0
14
137
0
16
119
0
9
153
0
0
232
0
0
222
0
0
218
0
0
221
0
0
211
0
0
226
0
1
228
0
1
226
0
0
222
0
40
225
0
161
255
0
150
255
0
145
255
0
134
255
0
141
243
0
229
250
0
231
255
0
222
255
0
227
255
0
216
231
0
220
112
0
229
117
0
227
125
0
226
126
0
220
120
0
247
107
0
255
115
0
255
114
0
255
116
0
249
112
0
248
123
0
255
132
0
255
128
0
255
138
0
250
141
0
246
43
0
255
19
0
255
34
0
255
33
0
249
31
0
244
30
0
255
31
0
255
32
0
255
28
0
253
13
0
222
103
0
224
151
0
228
129
0
229
133
0
236
151
0
190
61
0
178
10
0
189
35
0
191
34
0
200
38
0
127
11
0
98
0
0
112
0
0
112
0
0
114
0
0
89
45
0
80
78
0
86
65
0
86
65
0
56
33
0
169
160
0
143
186
0
0
110
0
10
132
0
12
133
0
16
114
0
9
148
0
0
224
0
0
215
0
0
213
0
0
212
0
1
202
0
0
218
0
1
221
0
1
219
0
0
214
0
38
215
0
155
245
0
144
247
0
139
245
0
127
246
0
134
234
0
221
241
0
223
249
0
215
246
0
219
255
0
206
224
0
211
106
0
221
112
0
219
120
0
219
122
0
211
116
0
238
104
0
250
110
0
245
110
0
248
111
0
239
106
0
239
119
0
248
127
0
246
122
0
248
133
0
240
137
0
236
39
0
247
18
0
247
32
0
248
31
0
239
30
0
234
29
0
247
29
0
246
31
0
248
28
0
243
12
0
212
99
0
216
145
0
221
123
0
221
127
0
227
146
0
183
57
0
172
8
0
182
32
0
184
32
0
193
35
0
122
11
0
94
0
0
107
0
0
107
0
0
109
0
0
85
43
0
77
75
0
83
62
0
82
61
0
52
27
0
168
160
0
143
185
0
0
108
0
10
129
0
12
129
0
15
113
0
9
145
0
0
218
0
1
209
0
1
206
0
1
206
0
2
197
0
1
213
0
1
214
0
1
212
0
0
209
0
37
209
0
151
239
0
140
243
0
136
240
0
124
242
0
131
228
0
216
236
0
217
247
0
209
241
0
213
255
0
200
222
0
205
103
0
215
110
0
212
118
0
211
119
0
206
114
0
235
98
0
248
105
0
242
106
0
245
105
0
233
100
0
232
117
0
245
126
0
241
120
0
245
130
0
235
134
0
230
36
0
243
17
0
242
32
0
244
30
0
233
28
0
230
28
0
244
29
0
241
32
0
245
28
0
240
14
0
206
98
0
209
140
0
213
120
0
214
124
0
221
143
0
177
56
0
167
9
0
178
32
0
180
31
0
189
34
0
117
10
0
92
0
0
105
0
0
105
0
0
107
0
0
84
42
0
76
72
0
81
59
0
80
58
0
49
23
0
168
158
0
143
187
0
0
114
0
11
136
0
15
136
0
16
119
0
9
153
0
0
233
0
0
221
0
0
219
0
0
220
0
0
212
0
1
226
0
1
227
0
1
225
0
0
222
0
39
225
0
160
254
0
149
255
0
144
255
0
133
255
0
141
243
0
229
249
0
232
255
0
223
255
0
227
255
0
215
231
0
220
112
0
229
117
0
225
125
0
225
126
0
220
120
0
247
107
0
255
114
0
255
113
0
255
114
0
249
110
0
247
124
0
255
132
0
255
127
0
255
138
0
250
141
0
246
42
0
255
19
0
255
34
0
255
33
0
249
31
0
244
30
0
255
31
0
255
33
0
255
29
0
253
14
0
222
104
0
223
150
0
228
128
0
229
132
0
235
151
0
191
61
0
178
11
0
188
35
0
191
34
0
201
38
0
126
10
0
98
0
0
112
0
0
112
0
0
114
0
0
88
45
0
81
79
0
87
66
0
86
66
0
56
32
0
170
159
0
143
187
0
0
114
0
10
134
0
14
136
0
16
118
0
9
149
0
0
227
0
0
217
0
0
214
0
0
216
0
0
207
0
0
222
0
1
224
0
1
222
0
0
218
0
39
221
0
157
253
0
148
255
0
142
255
0
132
255
0
138
238
0
223
246
0
227
255
0
217
255
0
223
255
0
211
228
0
215
109
0
226
114
0
223
122
0
222
124
0
215
118
0
244
105
0
255
112
0
255
112
0
255
112
0
245
108
0
244
121
0
255
130
0
255
125
0
255
135
0
247
139
0
242
42
0
255
18
0
255
33
0
255
33
0
245
32
0
240
30
0
255
30
0
255
32
0
255
28
0
250
11
0
217
100
0
219
148
0
223
126
0
224
129
0
231
147
0
187
61
0
175
9
0
185
34
0
187
33
0
197
37
0
125
10
0
96
0
0
110
0
0
110
0
0
112
0
0
87
44
0
79
77
0
85
64
0
83
63
0
54
30
0
169
159
0
143
188
0
0
115
0
11
136
0
15
137
0
16
119
0
9
153
0
0
231
0
1
221
0
1
218
0
1
219
0
0
211
0
1
225
0
1
227
0
1
225
0
0
221
0
39
225
0
160
255
0
150
255
0
144
255
0
133
255
0
140
243
0
228
249
0
231
255
0
222
255
0
227
255
0
214
231
0
218
112
0
229
117
0
226
125
0
225
126
0
219
120
0
247
107
0
255
115
0
255
114
0
255
115
0
249
110
0
247
123
0
255
132
0
255
127
0
255
138
0
249
141
0
246
42
0
255
19
0
255
34
0
255
33
0
248
31
0
244
30
0
255
31
0
255
33
0
255
29
0
252
13
0
221
103
0
222
151
0
227
128
0
228
132
0
235
151
0
190
63
0
177
9
0
188
35
0
190
34
0
199
38
0
126
11
0
99
0
0
112
0
0
112
0
0
114
0
0
88
45
0
80
78
0
87
65
0
86
65
0
55
31
0
169
160
0
143
185
0
0
108
0
10
130
0
13
131
0
14
115
0
8
147
0
0
219
0
1
210
0
1
207
0
1
208
0
2
200
0
2
215
0
1
216
0
1
214
0
0
210
0
38
211
0
153
241
0
141
245
0
137
243
0
125
245
0
132
230
0
217
238
0
219
249
0
211
244
0
214
255
0
202
223
0
207
104
0
217
112
0
215
120
0
214
121
0
207
115
0
237
101
0
250
107
0
244
107
0
247
107
0
235
102
0
234
118
0
247
127
0
243
120
0
247
131
0
238
135
0
232
37
0
246
17
0
244
32
0
246
30
0
236
28
0
233
28
0
246
30
0
244
32
0
247
28
0
242
14
0
208
100
0
211
143
0
217
121
0
217
125
0
223
145
0
181
58
0
168
9
0
178
33
0
181
31
0
190
35
0
118
11
0
93
0
0
106
1
0
106
0
0
108
0
0
85
43
0
77
72
0
82
59
0
81
59
0
50
23
0
169
158
0
143
184
0
0
107
0
9
129
0
12
130
0
15
113
0
9
146
0
0
220
0
0
210
0
0
207
0
0
208
0
1
198
0
0
214
0
1
216
0
1
213
0
0
210
0
37
210
0
152
239
0
142
244
0
136
241
0
125
242
0
132
229
0
216
238
0
217
246
0
209
242
0
214
255
0
202
222
0
206
103
0
217
110
0
214
119
0
214
120
0
206
114
0
235
101
0
249
107
0
242
107
0
245
107
0
233
103
0
233
117
0
246
125
0
241
118
0
245
130
0
237
135
0
231
38
0
244
17
0
243
32
0
244
30
0
234
29
0
230
28
0
244
29
0
243
31
0
245
27
0
239
11
0
208
98
0
211
142
0
214
120
0
218
127
0
217
137
0
176
45
0
172
12
0
176
31
0
181
31
0
191
34
0
119
10
0
91
0
0
105
0
0
105
0
0
107
0
0
83
43
0
75
73
0
81
59
0
79
59
0
50
24
0
167
158
0
143
187
0
0
114
0
10
136
0
14
137
0
16
119
0
9
153
0
0
233
0
0
221
0
0
219
0
0
221
0
0
211
0
0
226
0
1
228
0
1
225
0
0
222
0
39
225
0
160
254
0
150
255
0
144
255
0
133
255
0
140
243
0
229
249
0
232
255
0
223
255
0
228
255
0
215
230
0
220
112
0
229
116
0
226
125
0
225
126
0
219
120
0
247
107
0
255
115
0
255
114
0
255
115
0
248
110
0
247
123
0
255
132
0
255
127
0
255
138
0
249
141
0
246
43
0
255
18
0
255
33
0
255
32
0
249
32
0
244
30
0
255
30
0
255
32
0
255
28
0
252
13
0
222
103
0
224
150
0
227
127
0
232
136
0
229
144
0
186
44
0
183
13
0
187
34
0
191
34
0
201
37
0
127
10
0
98
0
0
111
0
0
112
0
0
114
0
0
88
45
0
80
77
0
86
65
0
86
64
0
56
33
0
169
160
0
143
187
0
0
114
0
10
133
0
14
135
0
16
118
0
9
151
0
0
226
0
0
216
0
0
214
0
0
215
0
0
206
0
0
222
0
1
224
0
1
222
0
0
218
0
39
220
0
157
252
0
147
255
0
142
255
0
131
255
0
138
238
0
224
246
0
226
255
0
217
254
0
222
255
0
210
228
0
215
109
0
225
115
0
223
123
0
221
124
0
215
118
0
244
104
0
255
111
0
255
112
0
255
113
0
245
108
0
243
121
0
255
129
0
255
124
0
255
135
0
247
139
0
241
43
0
255
18
0
255
33
0
255
33
0
245
31
0
240
30
0
255
30
0
255
32
0
255
28
0
250
13
0
216
100
0
219
147
0
222
124
0
226
132
0
225
143
0
184
46
0
178
13
0
183
34
0
187
33
0
197
37
0
124
10
0
96
0
0
110
0
0
110
0
0
111
0
0
87
44
0
79
76
0
85
64
0
83
63
0
54
31
0
169
159
0
143
187
0
0
115
0
10
136
0
14
137
0
16
120
0
9
153
0
0
231
0
0
220
0
0
217
0
0
218
0
0
209
0
0
226
0
1
226
0
1
224
0
0
220
0
39
224
0
160
255
0
149
255
0
144
255
0
133
255
0
140
241
0
227
248
0
229
255
0
221
255
0
226
255
0
214
231
0
218
111
0
228
116
0
225
124
0
225
125
0
218
120
0
246
106
0
255
114
0
255
114
0
255
115
0
248
110
0
247
123
0
255
131
0
255
126
0
255
137
0
250
141
0
245
42
0
255
19
0
255
34
0
255
34
0
248
31
0
243
30
0
255
31
0
255
32
0
255
28
0
252
13
0
220
103
0
223
150
0
226
127
0
229
134
0
228
144
0
187
47
0
181
13
0
185
35
0
190
34
0
200
37
0
126
10
0
97
0
0
111
0
0
112
0
0
113
0
0
88
45
0
80
78
0
86
65
0
85
65
0
55
32
0
170
159
0
143
186
0
0
111
0
10
133
0
14
134
0
16
116
0
9
149
0
0
225
0
0
215
0
0
213
0
0
213
0
0
204
0
0
220
0
1
222
0
1
220
0
0
216
0
38
219
0
156
246
0
145
249
0
139
248
0
128
249
0
136
236
0
222
243
0
226
251
0
217
249
0
220
255
0
209
226
0
214
108
0
224
114
0
220
122
0
219
123
0
213
117
0
241
103
0
252
112
0
249
110
0
250
111
0
242
107
0
240
121
0
250
129
0
248
124
0
250
136
0
241
137
0
238
40
0
249
17
0
249
32
0
250
31
0
242
30
0
238
29
0
249
30
0
248
32
0
250
27
0
246
13
0
215
100
0
217
146
0
220
125
0
224
133
0
221
141
0
182
45
0
178
12
0
182
34
0
187
33
0
195
35
0
123
10
0
95
0
0
108
0
0
109
0
0
110
0
0
86
44
0
78
76
0
84
63
0
83
63
0
52
29
0
169
159
0
143
183
0
0
107
0
11
128
0
12
129
0
15
113
0
9
145
0
0
217
0
1
207
0
1
205
0
1
205
0
2
196
0
2
212
0
1
213
0
1
212
0
0
208
0
37
208
0
149
238
0
138
243
0
134
239
0
122
241
0
129
228
0
214
237
0
217
246
0
208
241
0
210
255
0
200
220
0
205
102
0
215
110
0
212
117
0
211
119
0
204
114
0
234
99
0
248
105
0
241
105
0
246
106
0
232
101
0
230
114
0
245
123
0
240
118
0
244
128
0
234
132
0
229
35
0
244
15
0
241
30
0
244
28
0
233
27
0
230
28
0
243
29
0
239
32
0
244
28
0
239
14
0
205
95
0
209
137
0
211
118
0
215
125
0
213
132
0
173
45
0
170
13
0
175
31
0
178
29
0
186
34
0
116
11
0
91
0
0
104
3
0
104
1
0
106
0
0
83
41
0
76
72
0
82
58
0
81
58
0
48
24
0
168
158
0
143
187
0
0
114
0
11
136
0
13
136
0
15
119
0
9
153
0
0
230
0
1
220
0
1
217
0
1
218
0
2
209
0
2
224
0
1
226
0
1
225
0
0
220
0
39
222
0
159
253
0
148
255
0
143
255
0
131
255
0
139
241
0
227
248
0
228
255
0
220
255
0
225
255
0
213
229
0
217
110
0
226
115
0
224
124
0
223
125
0
217
120
0
246
106
0
255
112
0
254
112
0
255
114
0
246
108
0
244
123
0
255
132
0
254
126
0
255
136
0
248
142
0
244
40
0
255
19
0
254
34
0
255
32
0
247
31
0
242
30
0
255
32
0
254
32
0
255
29
0
251
13
0
218
103
0
222
149
0
225
126
0
229
134
0
227
144
0
184
46
0
180
12
0
185
33
0
189
33
0
199
37
0
125
12
0
97
0
0
110
1
0
111
1
0
112
0
0
88
44
0
80
77
0
86
63
0
85
62
0
55
30
0
170
159
0
143
187
0
0
114
0
10
134
0
14
136
0
16
118
0
9
151
0
0
228
0
0
218
0
0
215
0
0
216
0
0
207
0
0
222
0
1
224
0
1
223
0
0
219
0
39
221
0
157
253
0
148
255
0
142
255
0
132
255
0
139
239
0
225
247
0
227
255
0
219
255
0
224
255
0
211
229
0
216
110
0
225
114
0
223
123
0
222
124
0
216
118
0
244
106
0
255
113
0
255
113
0
255
114
0
246
110
0
245
123
0
255
131
0
255
126
0
255
136
0
248
141
0
243
43
0
255
18
0
255
33
0
255
33
0
245
31
0
240
30
0
255
30
0
255
31
0
255
27
0
250
12
0
217
101
0
220
149
0
223
125
0
227
134
0
225
143
0
185
47
0
180
14
0
185
37
0
189
37
0
198
41
0
125
11
0
96
0
0
110
0
0
110
0
0
112
0
0
87
44
0
79
77
0
85
64
0
83
64
0
54
31
0
169
159
0
143
188
0
0
116
0
10
136
0
15
137
0
16
119
0
9
153
0
0
232
0
0
221
0
0
219
0
0
220
0
0
210
0
0
225
0
0
228
0
0
226
0
0
221
0
35
223
0
162
255
0
150
255
0
144
255
0
133
255
0
141
242
0
229
249
0
231
255
0
221
255
0
227
255
0
215
231
0
220
112
0
229
116
0
226
125
0
226
127
0
219
120
0
247
101
0
255
110
0
255
110
0
255
110
0
248
105
0
247
119
0
255
128
0
255
124
0
255
135
0
250
137
0
246
41
0
255
19
0
255
33
0
255
33
0
248
31
0
244
30
0
255
30
0
255
33
0
255
29
0
252
12
0
221
103
0
223
151
0
226
127
0
231
136
0
229
149
0
183
36
0
177
0
0
182
20
0
186
18
0
194
19
0
124
4
0
99
0
0
112
0
0
112
0
0
114
0
0
88
45
0
80
78
0
86
65
0
86
64
0
56
32
0
170
160
0
143
184
0
0
109
0
9
131
0
13
131
0
16
115
0
9
148
0
0
224
0
0
215
0
0
211
0
0
213
0
0
202
0
0
214
0
0
216
0
0
214
0
0
210
0
19
213
0
156
245
0
145
247
0
138
245
0
126
246
0
134
234
0
220
241
0
223
248
0
214
245
0
218
255
0
205
224
0
210
107
0
221
112
0
218
120
0
218
126
0
212
114
0
239
78
0
251
84
0
247
86
0
249
85
0
238
77
0
236
94
0
249
104
0
246
98
0
249
109
0
240
114
0
236
32
0
248
20
0
246
32
0
248
31
0
239
30
0
235
29
0
248
30
0
247
32
0
249
28
0
244
14
0
212
99
0
216
143
0
220
121
0
224
131
0
220
140
0
172
31
0
166
0
0
172
1
0
177
3
0
187
10
0
118
2
0
95
0
0
107
0
0
107
0
0
109
0
0
85
43
0
77
75
0
83
60
0
82
61
0
51
28
0
168
159
0
143
184
0
0
107
0
9
128
0
12
129
0
15
113
0
9
145
0
0
216
0
1
208
0
0
206
0
0
202
0
63
204
0
180
230
0
168
230
0
165
229
0
170
227
0
151
223
0
126
236
0
134
241
0
136
238
0
123
240
0
129
229
0
215
237
0
218
243
0
210
239
0
213
255
0
200
221
0
205
103
0
215
110
0
211
120
0
212
109
0
206
113
0
234
188
0
247
200
0
241
192
0
243
194
0
238
193
0
237
199
0
242
201
0
240
195
0
243
206
0
234
208
0
229
50
0
243
6
0
240
32
0
242
29
0
233
29
0
230
29
0
242
30
0
240
30
0
244
27
0
239
13
0
206
97
0
209
140
0
213
120
0
213
121
0
207
105
0
213
162
0
231
202
0
228
197
0
233
201
0
239
212
0
132
69
0
81
0
0
105
1
0
104
0
0
106
0
0
83
42
0
76
72
0
82
59
0
79
59
0
49
24
0
169
158
0
143
189
0
0
115
0
11
137
0
14
137
0
17
119
0
9
153
0
0
232
0
0
221
0
0
220
0
0
214
0
101
220
0
255
255
0
255
255
0
255
255
0
255
255
0
237
247
0
119
249
0
139
255
0
146
255
0
133
255
0
140
241
0
228
248
0
231
255
0
222
255
0
227
255
0
214
231
0
220
112
0
229
117
0
225
128
0
226
108
0
220
122
0
247
255
0
255
255
0
255
255
0
255
255
0
255
255
0
255
255
0
255
255
0
255
255
0
255
255
0
249
255
0
246
63
0
255
0
0
255
35
0
255
33
0
249
32
0
245
30
0
255
31
0
255
32
0
255
28
0
252
11
0
221
103
0
223
151
0
227
130
0
226
128
0
218
101
0
241
214
0
255
255
0
255
255
0
255
255
0
255
255
0
148
93
0
84
0
0
113
0
0
112
0
0
113
0
0
89
45
0
81
78
0
87
65
0
86
65
0
56
31
0
170
160
0
143
187
0
0
114
0
10
134
0
14
136
0
16
118
0
9
151
0
0
228
0
0
218
0
0
216
0
0
209
0
84
215
0
255
255
0
255
255
0
255
255
0
255
255
0
210
240
0
122
248
0
140
255
0
144
255
0
132
255
0
139
239
0
224
247
0
226
255
0
218
255
0
223
255
0
211
228
0
215
109
0
225
114
0
223
125
0
221
109
0
216
119
0
246
242
0
255
255
0
255
255
0
255
255
0
255
255
0
255
255
0
255
255
0
255
255
0
255
255
0
248
255
0
242
57
0
255
2
0
255
35
0
255
33
0
245
32
0
240
30
0
255
30
0
255
32
0
255
28
0
251
12
0
217
102
0
219
149
0
224
128
0
223
128
0
215
103
0
232
194
0
255
255
0
255
255
0
255
255
0
255
255
0
147
85
0
86
0
0
112
0
0
111
0
0
113
0
0
87
44
0
79
76
0
85
65
0
84
65
0
54
31
0
168
159
0
143
187
0
0
115
0
10
135
0
14
137
0
17
119
0
7
152
0
0
229
0
0
219
0
0
217
0
0
211
0
83
216
0
255
254
0
255
255
0
255
255
0
255
255
0
210
241
0
118
250
0
137
255
0
142
255
0
128
255
0
136
241
0
229
249
0
231
255
0
222
255
0
226
255
0
214
230
0
218
111
0
228
115
0
225
126
0
225
111
0
218
120
0
246
242
0
255
255
0
255
255
0
255
255
0
255
255
0
255
255
0
255
255
0
255
255
0
255
255
0
248
255
0
244
57
0
255
2
0
255
36
0
255
33
0
248
31
0
243
31
0
255
32
0
255
33
0
255
30
0
253
15
0
219
99
0
219
143
0
225
123
0
224
123
0
216
96
0
232
190
0
255
255
0
255
255
0
255
255
0
255
255
0
140
78
0
75
0
0
105
0
0
105
0
0
105
0
0
86
40
0
82
80
0
86
64
0
85
64
0
55
32
0
169
161
0
143
187
0
0
111
0
10
134
0
14
136
0
15
117
0
0
147
0
0
219
0
0
207
0
0
205
0
0
198
0
69
206
0
255
254
0
255
255
0
255
255
0
255
255
0
202
238
0
91
242
0
113
251
0
119
250
0
102
251
0
116
236
0
221
239
0
221
247
0
212
245
0
214
255
0
203
222
0
215
107
0
225
113
0
222
124
0
221
107
0
215
118
0
246
242
0
255
255
0
255
255
0
255
255
0
255
255
0
255
255
0
255
255
0
255
255
0
255
255
0
248
255
0
235
58
0
247
0
0
246
32
0
249
29
0
237
28
0
234
29
0
248
31
0
245
32
0
249
30
0
243
14
0
207
86
0
209
127
0
214
103
0
213
104
0
203
74
0
226
184
0
255
255
0
255
255
0
255
255
0
255
255
0
125
76
0
55
0
0
88
0
0
86
0
0
89
0
0
78
34
0
80
77
0
83
58
0
81
58
0
50
25
0
168
158
0
142
184
0
0
105
0
10
128
0
13
130
0
0
107
0
59
147
0
167
239
0
157
230
0
154
227
0
137
222
0
182
230
0
255
255
0
255
255
0
255
255
0
255
255
0
235
244
0
191
232
0
200
237
0
201
238
0
198
238
0
191
224
0
209
237
0
214
244
0
210
240
0
214
255
0
202
220
0
203
103
0
213
109
0
211
120
0
208
102
0
205
113
0
246
241
0
255
255
0
255
255
0
255
255
0
255
255
0
255
255
0
255
255
0
255
255
0
255
255
0
248
255
0
233
59
0
243
1
0
242
32
0
246
30
0
234
29
0
231
28
0
244
29
0
241
31
0
244
22
0
238
1
0
226
163
0
235
228
0
235
210
0
235
212
0
231
204
0
244
235
0
255
255
0
255
255
0
255
255
0
255
255
0
220
206
0
200
175
0
209
189
0
212
191
0
217
195
0
111
90
0
53
33
0
83
64
0
80
61
0
49
26
0
168
158
0
142
186
0
0
113
0
11
133
0
14
136
0
0
110
0
98
161
0
255
255
0
255
255
0
255
255
0
255
255
0
255
255
0
255
255
0
255
255
0
255
255
0
254
254
0
255
255
0
255
254
0
255
252
0
255
253
0
255
253
0
254
239
0
215
249
0
223
255
0
223
255
0
227
255
0
215
231
0
215
110
0
225
114
0
222
126
0
222
109
0
216
119
0
246
243
0
255
255
0
255
255
0
255
255
0
255
255
0
255
255
0
255
255
0
255
255
0
255
255
0
248
255
0
245
58
0
255
2
0
255
36
0
255
33
0
248
31
0
243
30
0
255
30
0
255
32
0
255
21
0
249
0
0
247
198
0
255
255
0
255
255
0
255
255
0
255
255
0
255
255
0
255
255
0
255
255
0
255
255
0
255
255
0
255
255
0
255
255
0
255
255
0
255
255
0
255
255
0
130
118
0
47
18
0
89
70
0
86
66
0
55
31
0
169
159
0
144
187
0
0
114
0
10
136
0
14
140
0
0
111
0
85
157
0
255
255
0
255
255
0
255
255
0
255
255
0
255
255
0
255
255
0
255
255
0
255
255
0
255
255
0
255
255
0
255
255
0
255
255
0
255
255
0
255
255
0
240
243
0
213
247
0
220
255
0
220
254
0
222
255
0
211
229
0
217
111
0
226
116
0
224
126
0
223
110
0
217
120
0
247
242
0
255
255
0
255
255
0
255
255
0
255
255
0
255
255
0
255
255
0
255
255
0
255
255
0
248
255
0
242
58
0
255
2
0
255
38
0
255
35
0
245
34
0
240
33
0
255
33
0
255
35
0
255
26
0
247
0
0
240
185
0
255
255
0
255
255
0
255
255
0
255
255
0
255
255
0
255
255
0
255
255
0
255
255
0
255
255
0
255
255
0
255
255
0
255
255
0
255
255
0
255
255
0
124
109
0
53
27
0
89
71
0
86
67
0
57
33
0
170
161
0
140
185
0
0
112
0
5
135
0
8
137
0
0
107
0
83
157
0
255
255
0
255
255
0
255
255
0
255
255
0
255
255
0
255
255
0
255
255
0
255
255
0
255
255
0
255
255
0
255
255
0
255
255
0
255
255
0
255
255
0
240
240
0
213
249
0
221
255
0
221
255
0
224
255
0
213
230
0
218
108
0
228
113
0
225
124
0
225
108
0
218
118
0
246
242
0
255
255
0
255
255
0
255
255
0
255
255
0
255
255
0
255
255
0
255
255
0
255
255
0
247
255
0
244
48
0
255
0
0
255
21
0
255
19
0
247
15
0
242
14
0
255
15
0
255
19
0
255
9
0
249
0
0
241
182
0
255
255
0
255
255
0
255
255
0
255
255
0
255
255
0
255
255
0
255
255
0
255
255
0
255
255
0
255
255
0
255
255
0
255
255
0
255
255
0
255
255
0
115
99
0
37
11
0
78
57
0
73
53
0
41
16
0
165
154
0
124
172
0
0
90
0
0
113
0
0
116
0
0
85
0
70
147
0
255
255
0
255
255
0
255
255
0
255
255
0
255
255
0
255
255
0
255
255
0
255
255
0
255
255
0
255
255
0
255
255
0
255
255
0
255
255
0
255
255
0
237
239
0
207
243
0
215
251
0
215
250
0
218
255
0
205
222
0
211
86
0
222
91
0
219
103
0
218
83
0
211
97
0
244
240
0
255
255
0
255
255
0
255
255
0
255
255
0
255
255
0
255
255
0
255
255
0
255
255
0
247
253
0
238
49
0
249
0
0
249
9
0
250
8
0
240
6
0
236
7
0
250
7
0
249
7
0
250
0
0
241
0
0
238
179
0
255
255
0
255
255
0
255
255
0
255
255
0
255
255
0
255
255
0
255
255
0
255
255
0
255
255
0
255
255
0
255
255
0
255
255
0
255
255
0
255
255
0
106
93
0
20
0
0
64
41
0
59
35
0
25
0
0
156
146
0
197
214
0
135
178
0
149
191
0
150
192
0
134
177
0
178
204
0
255
255
0
255
255
0
255
255
0
255
255
0
255
255
0
255
255
0
255
255
0
255
255
0
255
255
0
255
255
0
255
255
0
255
255
0
255
255
0
255
255
0
246
247
0
226
235
0
230
238
0
231
236
0
233
248
0
225
230
0
222
179
0
227
182
0
225
186
0
224
178
0
222
185
0
249
248
0
255
255
0
255
255
0
255
255
0
255
255
0
255
255
0
255
255
0
255
255
0
255
255
0
252
254
0
241
200
0
242
184
0
242
198
0
243
198
0
241
198
0
241
201
0
243
199
0
242
197
0
242
193
0
237
182
0
247
234
0
255
255
0
255
255
0
255
255
0
255
255
0
255
255
0
255
255
0
255
255
0
255
255
0
255
255
0
255
255
0
255
255
0
255
255
0
255
255
0
255
255
0
218
217
0
197
191
0
209
204
0
207
201
0
197
191
0
230
229
