P3
72 72
255
0
0
0
0
0
0
0
0
0
0
0
0
0
0
0
0
0
0
0
0
0
0
0
0
0
0
0
0
0
0
0
0
0
0
0
0
0
0
0
0
0
0
0
0
0
0
0
0
0
0
0
0
0
0
0
0
0
0
0
0
0
0
0
0
0
0
0
0
0
0
0
0
0
0
0
0
0
0
0
0
0
0
0
0
0
0
0
0
0
0
0
0
0
0
0
0
0
0
0
0
0
0
0
0
0
0
0
0
0
0
0
0
0
0
0
0
0
0
0
0
0
0
0
0
0
0
0
0
0
0
0
0
0
0
0
0
0
0
0
0
0
0
0
0
0
0
0
0
0
0
0
0
0
0
0
0
0
0
0
0
0
0
0
0
0
0
0
0
0
0
0
0
0
0
0
0
0
0
0
0
0
0
0
0
0
0
0
0
0
0
0
0
0
0
0
0
0
0
0
0
0
0
0
0
0
0
0
0
0
0
0
0
0
0
0
0
0
0
0
0
0
0
0
0
0
0
0
0
0
0
0
0
0
0
0
0
0
0
0
0
0
0
0
0
0
0
0
0
0
0
0
0
0
0
0
0
0
0
0
0
0
0
0
0
0
0
0
0
0
0
0
0
0
0
0
0
0
0
0
0
0
0
0
0
0
0
0
0
0
0
0
0
0
0
0
0
0
0
0
0
0
0
0
0
0
0
0
0
0
0
0
0
0
0
0
0
0
0
0
0
0
0
0
0
0
0
0
0
0
0
0
0
0
0
0
0
0
0
0
0
0
0
0
0
0
0
0
0
0
0
0
0
0
0
0
0
0
0
0
0
0
0
0
0
0
0
0
0
0
0
0
0
0
0
0
0
0
0
0
0
0
0
0
0
0
0
0
0
0
0
0
0
0
0
0
0
0
0
0
0
0
0
0
0
0
0
0
0
0
0
0
0
0
0
0
0
0
0
0
0
0
0
0
0
0
0
0
0
0
0
0
0
0
0
0
0
0
0
0
0
0
0
0
0
0
0
0
0
0
0
0
0
0
0
0
0
0
0
0
0
0
0
0
0
0
0
0
0
0
0
0
0
0
0
0
0
0
0
0
0
0
0
0
0
0
0
0
0
0
0
0
0
0
0
0
0
0
0
0
0
0
0
0
0
0
0
0
0
0
0
0
0
0
0
0
0
0
0
0
0
0
0
0
0
0
0
0
0
0
0
0
0
0
0
0
0
0
0
0
0
0
0
0
0
0
0
0
0
0
0
0
0
0
0
0
0
0
0
0
0
0
0
0
0
0
0
0
0
0
0
0
0
0
0
0
0
0
0
0
0
0
0
0
0
0
0
0
0
0
0
0
0
0
0
0
0
0
0
0
0
0
0
0
0
0
0
0
0
0
0
0
0
0
0
0
0
0
0
0
0
0
0
0
0
0
0
0
0
0
0
0
0
0
0
0
0
0
0
0
0
0
0
0
0
0
0
0
0
0
0
0
0
0
0
0
0
0
0
0
0
0
0
0
0
0
0
0
0
0
0
0
0
0
0
0
0
0
0
0
0
0
0
0
0
0
0
0
0
0
0
0
0
0
0
0
0
0
0
0
0
0
0
0
0
0
0
0
0
0
0
0
0
0
0
0
0
0
0
0
0
0
0
0
0
0
0
0
0
0
0
0
0
0
0
0
0
0
0
0
0
0
0
0
0
0
0
0
0
0
0
0
0
0
0
0
0
0
0
0
0
0
0
0
0
0
0
0
0
0
0
0
0
0
0
0
0
0
0
0
0
4
5
0
32
57
0
59
107
0
27
49
0
0
0
0
0
0
0
0
0
0
0
0
0
0
0
0
0
0
0
0
0
0
0
0
0
0
0
0
0
0
0
0
0
0
0
0
0
0
0
0
0
0
0
0
0
0
0
0
0
0
0
0
0
0
0
0
0
0
0
0
0
0
0
0
0
0
0
0
0
0
0
0
0
0
0
0
0
0
0
0
0
0
0
0
0
0
0
0
0
0
0
0
0
0
0
0
0
0
0
0
0
0
0
0
0
0
0
0
0
0
0
0
0
0
0
0
0
0
0
0
0
0
0
0
0
0
0
0
0
0
0
0
0
0
0
0
0
0
0
0
0
0
0
0
0
0
0
0
0
0
0
0
0
0
0
0
0
0
0
0
0
0
0
0
0
0
0
0
0
0
0
0
0
0
0
0
0
0
0
0
0
0
0
0
0
0
0
0
0
0
0
0
0
0
0
0
0
0
0
25
43
0
71
132
0
98
186
0
111
212
0
139
255
0
66
124
0
0
0
0
0
0
0
0
0
0
0
0
0
0
0
0
0
0
0
0
0
0
0
0
0
0
0
0
0
0
0
0
0
0
0
0
0
0
0
0
0
0
0
0
0
0
0
0
0
0
0
0
0
0
0
0
0
0
0
0
0
0
0
0
0
0
0
0
0
0
0
0
0
0
0
0
0
0
0
0
0
0
0
0
0
0
0
0
0
0
0
0
0
0
0
0
0
0
0
0
0
0
0
0
0
0
0
0
0
0
0
0
0
0
0
0
0
0
0
0
0
0
0
0
0
0
0
0
0
0
0
0
0
0
0
0
0
0
0
0
0
0
0
0
0
0
0
0
0
0
0
0
0
0
0
0
0
0
0
0
0
0
0
0
0
0
0
0
0
0
0
0
0
0
0
0
0
0
0
0
0
0
0
0
0
0
0
0
0
0
0
0
0
11
17
0
77
143
0
115
221
0
118
229
0
105
205
0
96
187
0
115
223
0
61
114
0
0
0
0
0
0
0
0
0
0
0
0
0
0
0
0
0
0
0
0
0
0
0
0
0
0
0
0
0
0
0
0
0
0
0
0
0
0
0
0
0
0
0
0
0
0
0
0
0
0
0
0
0
0
0
0
0
0
0
0
0
0
0
0
0
0
0
0
0
0
0
0
0
0
0
0
0
0
0
0
0
0
0
0
0
0
0
0
0
0
0
0
0
0
0
0
0
0
0
0
0
0
0
0
0
0
0
0
0
0
0
0
0
0
0
0
0
0
0
0
0
0
0
0
0
0
0
0
0
0
0
0
0
0
0
0
0
0
0
0
0
0
0
0
0
0
0
0
0
0
0
0
0
0
0
0
0
0
0
0
0
0
0
0
0
0
0
0
0
0
0
0
0
0
0
0
0
0
0
0
0
0
0
0
0
0
0
0
0
0
37
64
0
108
206
0
121
235
0
100
195
0
94
182
0
96
187
0
95
184
0
117
227
0
57
107
0
0
0
0
0
0
0
0
0
0
0
0
0
0
0
0
0
0
0
0
0
0
0
0
0
0
0
0
0
0
0
0
0
0
0
0
0
0
0
0
0
0
0
0
0
0
0
0
0
0
0
0
0
0
0
0
0
0
0
0
0
0
0
0
0
0
0
0
0
0
0
0
0
0
0
0
0
0
0
0
0
0
0
0
0
0
0
0
0
0
0
0
0
0
0
0
0
0
0
0
0
0
0
0
0
0
0
0
0
0
0
0
0
0
0
0
0
0
0
0
0
0
0
0
0
0
0
0
0
0
0
0
0
0
0
0
0
0
0
0
0
0
0
0
0
0
0
0
0
0
0
0
0
0
0
0
0
0
0
0
0
0
0
0
0
0
0
0
0
0
0
0
0
0
0
0
0
0
0
0
0
0
0
0
0
0
0
54
96
0
125
239
0
107
211
0
93
180
0
97
187
0
97
189
0
97
188
0
95
186
0
117
225
0
45
82
0
0
0
0
0
0
0
0
0
0
0
0
0
0
0
0
0
0
0
0
0
0
0
0
0
0
0
0
0
0
0
0
0
0
0
0
0
0
0
0
0
0
0
0
0
0
0
0
0
0
0
0
0
0
0
0
0
0
0
0
0
0
0
0
0
0
0
0
0
0
0
0
0
0
0
0
0
0
0
0
0
0
0
0
0
0
0
0
0
0
0
0
0
0
0
0
0
0
0
0
0
0
0
0
0
0
0
0
0
0
0
0
0
0
0
0
0
0
0
0
0
0
0
0
0
0
0
0
0
0
0
0
0
0
0
0
0
0
0
0
0
0
0
0
0
0
0
0
0
0
0
0
0
0
0
0
0
0
0
0
0
0
0
0
0
0
0
0
0
0
0
0
0
0
0
0
0
0
0
0
0
0
0
0
49
87
0
127
244
0
100
198
0
94
182
0
97
189
0
97
188
0
97
188
0
97
188
0
99
194
0
110
211
0
20
34
0
0
0
0
0
0
0
0
0
0
0
0
0
0
0
0
0
0
0
0
0
0
0
0
0
0
0
0
0
0
0
0
0
0
0
0
0
0
0
0
0
0
0
0
0
0
0
0
0
0
0
0
0
0
0
0
0
0
0
0
0
0
0
0
0
0
0
0
0
0
0
0
0
0
0
0
0
0
0
0
0
0
0
0
0
0
0
0
0
0
0
0
0
0
0
0
0
0
0
0
0
0
0
0
0
0
0
0
0
0
0
0
0
0
0
0
0
0
0
0
0
0
0
0
0
0
0
0
0
0
0
0
0
0
0
0
0
0
0
0
0
0
0
0
0
0
0
0
0
0
0
0
0
0
0
0
0
0
0
0
0
0
0
0
0
0
0
0
0
0
0
0
0
0
0
0
0
0
0
0
0
27
47
0
122
235
0
102
200
0
94
183
0
97
189
0
97
188
0
97
188
0
97
188
0
95
185
0
111
218
0
92
173
0
0
0
0
0
0
0
0
0
0
0
0
0
0
0
0
0
0
0
0
0
0
0
0
0
0
0
0
0
0
0
0
0
0
0
0
0
0
0
0
0
0
0
0
0
0
0
0
0
0
0
0
0
0
0
0
0
0
0
0
0
0
0
0
0
0
0
0
0
0
0
0
0
0
0
0
0
0
0
0
0
0
0
0
0
0
0
0
0
0
0
0
0
0
0
0
0
0
0
0
0
0
0
0
0
0
0
0
0
0
0
0
0
0
0
0
0
0
0
0
0
0
0
0
0
0
0
0
0
0
0
0
0
0
0
0
0
0
0
0
0
0
0
0
0
0
0
0
0
0
0
0
0
0
0
0
0
0
0
0
0
0
0
0
0
0
0
0
0
0
0
0
0
0
0
0
0
0
0
0
0
2
2
0
99
187
0
111
218
0
93
181
0
97
188
0
97
188
0
97
188
0
97
188
0
97
188
0
93
182
0
122
234
0
54
99
0
0
0
0
0
0
0
0
0
0
0
0
0
0
0
0
0
0
0
0
0
0
0
0
0
0
0
0
0
0
0
0
0
0
0
0
0
0
0
0
0
0
0
0
0
0
0
0
0
0
0
0
0
0
0
0
0
0
0
0
0
0
0
0
0
0
0
0
0
0
0
0
0
0
0
0
0
0
0
0
0
0
0
0
0
0
0
0
0
0
0
0
0
0
0
0
0
0
0
0
0
0
0
0
0
0
0
0
0
0
0
0
0
0
0
0
0
0
0
0
0
0
0
0
0
0
0
0
0
0
0
0
0
0
0
0
0
0
0
0
0
0
0
0
0
0
0
0
0
0
0
0
0
0
0
0
0
0
0
0
0
0
0
0
0
0
0
0
0
0
0
0
0
0
0
0
0
0
0
0
0
56
102
0
122
238
0
94
182
0
97
189
0
97
188
0
97
188
0
97
188
0
97
188
0
96
185
0
104
206
0
104
199
0
8
11
0
0
0
0
0
0
0
0
0
0
0
0
0
0
0
0
0
0
0
0
0
0
0
0
0
0
0
0
0
0
0
0
0
0
0
0
0
0
0
0
0
0
0
0
0
0
0
0
0
0
0
0
0
0
0
0
0
0
0
0
0
0
0
0
0
0
0
0
0
0
0
0
0
0
0
0
0
0
0
0
0
0
0
0
0
0
0
0
0
0
0
0
0
0
0
0
0
0
0
0
0
0
0
0
0
0
0
0
0
0
0
0
0
0
0
0
0
0
0
0
0
0
0
0
0
0
0
0
0
0
0
0
0
0
0
0
0
0
0
0
0
0
0
0
0
0
0
0
0
0
0
0
0
0
0
0
0
0
0
0
0
0
0
0
0
0
0
0
0
0
0
0
0
0
0
0
0
0
5
8
0
104
199
0
106
209
0
96
185
0
97
188
0
97
188
0
97
188
0
97
188
0
97
188
0
94
182
0
124
241
0
51
94
0
0
0
0
0
0
0
0
0
0
0
0
0
0
0
0
0
0
0
0
0
0
0
0
0
0
0
0
0
0
0
0
0
0
0
0
0
0
0
0
0
0
0
0
0
0
0
0
0
0
0
0
0
0
0
0
0
0
0
0
0
0
0
0
0
0
0
0
0
0
0
0
0
0
0
0
0
0
0
0
0
0
0
0
0
0
0
0
0
0
0
0
0
0
0
0
0
0
0
0
0
0
0
0
0
0
0
0
0
0
0
0
0
0
0
0
0
0
0
0
0
0
0
0
0
0
0
0
0
0
0
0
0
0
0
0
0
0
0
0
0
0
0
0
0
0
0
0
0
0
0
0
0
0
0
0
0
0
0
0
0
0
0
0
0
0
0
0
0
0
0
0
0
0
0
0
0
0
0
0
0
45
82
0
120
231
0
94
183
0
97
188
0
97
188
0
97
188
0
97
188
0
97
189
0
92
179
0
118
231
0
93
173
0
0
0
0
0
0
0
0
0
0
0
0
0
0
0
0
0
0
0
0
0
0
0
0
0
0
0
0
0
0
0
0
0
0
0
0
0
0
0
0
0
0
0
0
0
0
0
0
0
0
0
0
0
0
0
0
0
0
0
0
0
0
0
0
0
0
0
0
0
0
0
0
0
0
0
0
0
0
0
0
0
0
0
0
0
0
0
0
0
0
0
0
0
0
0
0
0
0
0
0
0
0
0
0
0
0
0
0
0
0
0
0
0
0
0
0
0
0
0
0
0
0
0
0
0
0
0
0
0
0
0
0
0
0
0
0
0
0
0
0
0
0
0
0
0
0
0
0
0
0
0
0
0
0
0
0
0
0
0
0
0
0
0
0
0
0
0
0
0
0
0
0
0
0
0
0
0
0
0
0
0
0
0
0
78
146
0
114
221
0
95
185
0
97
188
0
97
188
0
97
188
0
97
189
0
92
179
0
111
218
0
113
213
0
14
23
0
0
0
0
0
0
0
0
0
0
0
0
0
0
0
0
0
0
0
0
0
0
0
0
0
0
0
0
0
0
0
0
0
0
0
0
0
0
0
0
0
0
0
0
0
0
0
0
0
0
0
0
0
0
0
0
0
0
0
0
0
0
0
0
0
0
0
0
0
0
0
0
0
0
0
0
0
0
0
0
0
0
0
0
0
0
0
0
0
0
0
0
0
0
0
0
0
0
0
0
0
0
0
0
0
0
0
0
0
0
0
0
0
0
0
0
0
0
0
0
0
0
0
0
0
0
0
0
0
0
0
0
0
0
0
0
0
0
0
0
0
0
0
0
0
0
0
0
0
0
0
0
0
0
0
0
0
0
0
0
0
0
0
0
0
0
0
0
0
0
0
0
0
0
0
0
0
0
0
0
0
2
1
0
94
180
0
106
206
0
97
187
0
97
188
0
97
188
0
96
186
0
93
180
0
115
226
0
114
217
0
21
38
0
0
0
0
0
0
0
0
0
0
0
0
0
0
0
0
0
0
0
0
0
0
0
0
0
0
0
0
0
0
0
0
0
0
0
0
0
0
0
0
0
0
0
0
0
0
0
0
0
0
0
0
0
0
0
0
0
0
0
0
0
0
0
0
0
0
0
0
0
0
0
0
0
0
0
0
0
0
0
0
0
0
0
0
0
0
0
0
0
0
0
0
0
0
0
0
0
0
0
0
0
0
0
0
0
0
0
0
0
0
0
0
0
0
0
0
0
0
0
0
0
0
0
0
0
0
0
0
0
0
0
0
0
0
0
0
0
0
0
0
0
0
0
0
0
0
0
0
0
0
0
0
0
0
0
0
0
0
0
0
0
0
0
0
0
0
0
0
0
0
0
0
0
0
0
0
0
0
0
0
0
0
0
0
16
25
0
101
193
0
102
198
0
97
187
0
96
185
0
94
182
0
101
199
0
123
238
0
101
190
0
18
32
0
0
0
0
0
0
0
0
0
0
0
0
0
0
0
0
0
0
0
0
0
0
0
0
0
0
0
0
0
0
0
0
0
0
0
0
0
0
0
0
0
0
0
0
0
0
0
0
0
0
0
0
0
0
0
0
0
0
0
0
0
0
0
0
0
0
0
0
0
0
0
0
0
0
0
0
0
0
0
0
0
0
0
0
0
0
0
0
0
0
0
0
0
0
0
0
0
0
0
0
0
0
0
0
0
0
0
0
0
0
0
0
0
0
0
0
0
0
0
0
0
0
0
0
0
0
0
0
0
0
0
0
0
0
0
0
0
0
0
0
0
0
0
0
0
0
0
0
0
0
0
0
0
0
0
0
0
0
0
0
0
0
0
0
0
0
0
0
0
0
0
0
0
0
0
0
0
0
0
0
0
0
0
0
0
0
0
24
41
0
105
202
0
100
196
0
100
195
0
109
213
0
120
234
0
110
211
0
67
123
0
1
0
0
0
0
0
0
0
0
0
0
0
0
0
0
0
0
0
0
0
0
0
0
0
0
0
0
0
0
0
0
0
0
0
0
0
0
0
0
0
0
0
0
0
0
0
0
0
0
0
0
0
0
0
0
0
0
0
0
0
0
0
0
0
0
0
0
0
0
0
0
0
0
0
0
0
0
0
0
0
0
0
0
0
0
0
0
0
0
0
0
0
0
0
0
0
0
0
0
0
0
0
0
0
0
0
0
0
0
0
0
0
0
0
0
0
0
0
0
0
0
0
0
0
0
0
0
0
0
0
0
0
0
0
0
0
0
0
0
0
0
0
0
0
0
0
0
0
0
0
0
0
0
10
15
0
34
62
0
50
91
0
56
104
0
55
104
0
50
91
0
36
65
0
14
22
0
0
0
0
0
0
0
0
0
0
0
0
0
0
0
0
14
21
0
117
220
0
121
234
0
109
208
0
96
180
0
63
118
0
18
29
0
0
0
0
0
0
0
0
0
0
0
0
0
11
17
0
34
58
0
47
86
0
54
101
0
57
106
0
54
100
0
43
78
0
23
39
0
0
0
0
0
0
0
0
0
0
0
0
0
0
0
0
0
0
0
0
0
0
0
0
0
0
0
0
0
0
0
0
0
0
0
0
0
0
0
0
0
0
0
0
0
0
0
0
0
0
0
0
0
0
0
0
0
0
0
0
0
0
0
0
0
0
0
0
0
0
0
0
0
0
0
0
0
0
0
0
0
0
0
0
0
0
0
0
0
0
0
0
0
0
0
0
0
0
0
0
0
0
0
0
0
0
0
0
0
0
0
0
0
0
0
43
76
0
81
153
0
105
199
0
113
219
0
117
226
0
116
226
0
116
226
0
117
225
0
114
219
0
106
202
0
88
164
0
55
101
0
22
36
0
0
0
0
0
0
0
0
0
0
34
60
0
38
67
0
18
30
0
0
0
0
0
0
0
0
0
0
0
0
0
16
24
0
52
93
0
85
159
0
104
199
0
113
217
0
117
224
0
117
226
0
117
226
0
117
226
0
115
223
0
111
211
0
96
181
0
61
114
0
19
32
0
0
0
0
0
0
0
0
0
0
0
0
0
0
0
0
0
0
0
0
0
0
0
0
0
0
0
0
0
0
0
0
0
0
0
0
0
0
0
0
0
0
0
0
0
0
0
0
0
0
0
0
0
0
0
0
0
0
0
0
0
0
0
0
0
0
0
0
0
0
0
0
0
0
0
0
0
0
0
0
0
0
0
0
0
0
0
0
0
0
0
0
0
0
0
0
0
0
0
0
40
71
0
95
180
0
119
228
0
116
226
0
103
202
0
97
189
0
95
185
0
95
185
0
95
185
0
95
185
0
97
189
0
102
199
0
112
220
0
119
231
0
108
206
0
84
159
0
50
94
0
20
35
0
0
0
0
0
0
0
0
0
0
0
0
0
10
15
0
43
77
0
77
144
0
105
199
0
120
230
0
113
222
0
103
201
0
97
190
0
95
186
0
95
185
0
95
185
0
95
185
0
96
186
0
99
194
0
109
214
0
120
234
0
110
210
0
70
131
0
9
11
0
0
0
0
0
0
0
0
0
0
0
0
0
0
0
0
0
0
0
0
0
0
0
0
0
0
0
0
0
0
0
0
0
0
0
0
0
0
0
0
0
0
0
0
0
0
0
0
0
0
0
0
0
0
0
0
0
0
0
0
0
0
0
0
0
0
0
0
0
0
0
0
0
0
0
0
0
0
0
0
0
0
0
0
0
0
0
0
4
4
0
80
149
0
122
235
0
109
216
0
95
186
0
95
184
0
96
187
0
97
188
0
97
188
0
97
188
0
97
188
0
97
188
0
97
188
0
97
187
0
95
185
0
95
184
0
99
194
0
112
217
0
118
228
0
109
208
0
94
177
0
80
152
0
78
145
0
87
164
0
103
195
0
116
224
0
115
222
0
101
198
0
95
185
0
95
185
0
97
187
0
97
188
0
97
188
0
97
188
0
97
188
0
97
188
0
97
188
0
97
188
0
96
185
0
94
183
0
100
197
0
121
236
0
108
205
0
36
65
0
0
0
0
0
0
0
0
0
0
0
0
0
0
0
0
0
0
0
0
0
0
0
0
0
0
0
0
0
0
0
0
0
0
0
0
0
0
0
0
0
0
0
0
0
0
0
0
0
0
0
0
0
0
0
0
0
0
0
0
0
0
0
0
0
0
0
0
0
0
0
0
0
0
0
0
0
0
0
0
0
0
16
27
0
101
190
0
121
236
0
96
189
0
94
183
0
97
188
0
97
188
0
97
188
0
97
188
0
97
188
0
97
188
0
97
188
0
97
188
0
97
188
0
97
188
0
97
188
0
97
188
0
97
188
0
96
185
0
95
184
0
100
195
0
107
209
0
113
219
0
114
221
0
110
215
0
103
201
0
96
186
0
95
184
0
97
188
0
97
188
0
97
188
0
97
188
0
97
188
0
97
188
0
97
188
0
97
188
0
97
188
0
97
188
0
97
188
0
97
188
0
97
188
0
97
187
0
93
180
0
108
213
0
123
236
0
60
108
0
0
0
0
0
0
0
0
0
0
0
0
0
0
0
0
0
0
0
0
0
0
0
0
0
0
0
0
0
0
0
0
0
0
0
0
0
0
0
0
0
0
0
0
0
0
0
0
0
0
0
0
0
0
0
0
0
0
0
0
0
0
0
0
0
0
0
0
0
0
0
0
0
0
0
0
18
30
0
112
212
0
115
226
0
92
180
0
97
187
0
97
188
0
97
188
0
97
188
0
97
188
0
97
188
0
97
188
0
97
188
0
97
188
0
97
188
0
97
188
0
97
188
0
97
188
0
97
188
0
97
188
0
97
188
0
97
188
0
97
188
0
96
186
0
96
185
0
96
185
0
96
186
0
97
187
0
97
188
0
97
188
0
97
188
0
97
188
0
97
188
0
97
188
0
97
188
0
97
188
0
97
188
0
97
188
0
97
188
0
97
188
0
97
188
0
97
188
0
97
188
0
97
188
0
97
189
0
94
182
0
100
195
0
126
244
0
64
119
0
0
0
0
0
0
0
0
0
0
0
0
0
0
0
0
0
0
0
0
0
0
0
0
0
0
0
0
0
0
0
0
0
0
0
0
0
0
0
0
0
0
0
0
0
0
0
0
0
0
0
0
0
0
0
0
0
0
0
0
0
0
0
0
0
0
0
0
0
0
13
16
0
110
202
0
116
222
0
95
179
0
100
188
0
100
188
0
100
188
0
100
188
0
99
188
0
99
188
0
99
188
0
99
188
0
99
188
0
99
188
0
99
188
0
99
188
0
99
188
0
99
188
0
99
188
0
99
188
0
99
188
0
99
188
0
99
188
0
99
188
0
99
188
0
99
188
0
99
188
0
99
188
0
99
188
0
99
188
0
99
188
0
99
188
0
99
188
0
99
188
0
99
188
0
99
188
0
99
188
0
99
188
0
99
188
0
99
188
0
99
188
0
99
188
0
99
188
0
99
188
0
99
188
0
100
188
0
98
185
0
95
186
0
127
248
0
75
139
0
1
1
0
0
0
0
0
0
0
0
0
0
0
0
0
0
0
0
0
0
0
0
0
0
0
0
0
0
0
0
0
0
0
0
0
0
0
0
0
0
0
0
0
0
0
0
0
0
0
0
0
0
0
0
0
0
0
0
0
0
0
0
0
0
0
0
62
172
0
90
232
0
64
180
0
69
189
0
69
188
0
69
188
0
69
188
0
69
189
0
70
189
0
70
189
0
70
189
0
70
189
0
70
189
0
70
189
0
70
189
0
70
189
0
70
189
0
70
189
0
70
189
0
70
189
0
70
189
0
70
189
0
70
189
0
70
189
0
70
189
0
70
189
0
70
189
0
70
189
0
70
189
0
70
189
0
70
189
0
70
189
0
70
189
0
70
189
0
70
189
0
70
189
0
70
189
0
70
189
0
70
189
0
70
189
0
70
189
0
70
189
0
70
189
0
70
189
0
70
189
0
70
189
0
64
181
0
97
207
0
124
235
0
81
150
0
3
2
0
0
0
0
0
0
0
0
0
0
0
0
0
0
0
0
0
0
0
0
0
0
0
0
0
0
0
0
0
0
0
0
0
0
0
0
0
0
0
0
0
0
0
0
0
0
0
0
0
0
0
0
0
0
0
0
0
0
0
0
0
80
103
0
161
240
0
129
181
0
132
187
0
132
187
0
132
187
0
132
187
0
132
187
0
132
186
0
132
186
0
132
186
0
132
186
0
132
186
0
132
186
0
132
186
0
132
186
0
132
186
0
132
186
0
132
186
0
132
186
0
132
186
0
132
186
0
132
186
0
132
186
0
132
186
0
132
186
0
132
186
0
132
186
0
132
186
0
132
186
0
132
186
0
132
186
0
132
186
0
132
186
0
132
186
0
132
186
0
132
186
0
132
187
0
132
187
0
132
187
0
132
187
0
132
187
0
132
187
0
132
187
0
132
187
0
132
187
0
130
179
0
164
219
0
131
207
0
36
60
0
0
0
0
0
0
0
0
0
0
0
0
0
0
0
0
0
0
0
0
0
0
0
0
0
0
0
0
0
0
0
0
0
0
0
0
0
0
0
0
0
0
0
0
0
0
0
0
0
0
0
0
0
0
0
0
0
0
0
0
0
0
0
0
30
27
0
255
214
0
255
193
0
255
182
0
255
184
0
255
184
0
255
184
0
255
184
0
255
184
0
255
183
0
255
184
0
255
184
0
255
184
0
255
184
0
255
184
0
255
184
0
255
184
0
255
184
0
255
184
0
255
184
0
255
184
0
255
184
0
255
184
0
255
184
0
255
184
0
255
184
0
255
184
0
255
184
0
255
184
0
255
184
0
255
184
0
255
184
0
255
184
0
255
184
0
255
184
0
255
184
0
255
184
0
255
184
0
255
183
0
255
183
0
255
183
0
255
183
0
255
183
0
255
183
0
255
183
0
255
184
0
255
176
0
255
217
0
240
190
0
42
24
0
0
0
0
0
0
0
0
0
0
0
0
0
0
0
0
0
0
0
0
0
0
0
0
0
0
0
0
0
0
0
0
0
0
0
0
0
0
0
0
0
0
0
0
0
0
0
0
0
0
0
0
0
0
0
0
0
0
0
0
0
0
0
0
0
0
0
159
133
0
255
229
0
255
177
0
255
184
0
255
184
0
255
184
0
255
184
0
255
184
0
255
184
0
255
184
0
255
184
0
255
184
0
255
184
0
255
184
0
255
184
0
255
184
0
255
184
0
255
184
0
255
184
0
255
184
0
255
184
0
255
184
0
255
184
0
255
184
0
255
184
0
255
184
0
255
184
0
255
184
0
255
184
0
255
184
0
255
184
0
255
184
0
255
184
0
255
184
0
255
184
0
255
184
0
255
184
0
255
184
0
255
184
0
255
184
0
255
184
0
255
184
0
255
184
0
255
184
0
255
184
0
255
178
0
255
209
0
235
203
0
23
19
0
0
0
0
0
0
0
0
0
0
0
0
0
0
0
0
0
0
0
0
0
0
0
0
0
0
0
0
0
0
0
0
0
0
0
0
0
0
0
0
0
0
0
0
0
0
0
0
0
0
0
0
0
0
0
0
0
0
0
0
0
0
0
0
0
0
0
20
19
0
252
205
0
255
196
0
252
183
0
252
184
0
252
184
0
252
184
0
252
184
0
252
184
0
252
184
0
252
184
0
252
184
0
252
184
0
252
184
0
252
184
0
252
184
0
252
184
0
252
184
0
252
184
0
252
184
0
252
184
0
252
184
0
252
184
0
252
184
0
252
184
0
252
184
0
252
184
0
252
184
0
252
184
0
252
184
0
252
184
0
252
184
0
252
184
0
252
184
0
252
184
0
252
184
0
252
184
0
252
184
0
252
184
0
252
184
0
252
184
0
252
184
0
252
184
0
252
184
0
252
184
0
251
183
0
255
189
0
255
220
0
47
41
0
0
0
0
0
0
0
0
0
0
0
0
0
0
0
0
0
0
0
0
0
0
0
0
0
0
0
0
0
0
0
0
0
0
0
0
0
0
0
0
0
0
0
0
0
0
0
0
0
0
0
0
0
0
0
0
0
0
0
0
0
0
0
0
0
0
0
0
0
0
104
88
0
255
227
0
254
179
0
252
184
0
252
184
0
252
184
0
252
184
0
252
184
0
252
184
0
252
184
0
252
184
0
252
184
0
252
184
0
252
184
0
252
184
0
252
184
0
252
184
0
252
184
0
252
184
0
252
184
0
252
184
0
252
184
0
252
184
0
252
184
0
252
184
0
252
184
0
252
184
0
252
184
0
252
184
0
252
184
0
252
184
0
252
184
0
252
184
0
252
184
0
252
184
0
252
184
0
252
184
0
252
184
0
252
184
0
252
184
0
252
184
0
252
184
0
252
184
0
252
184
0
252
184
0
254
178
0
255
227
0
140
115
0
0
0
0
0
0
0
0
0
0
0
0
0
0
0
0
0
0
0
0
0
0
0
0
0
0
0
0
0
0
0
0
0
0
0
0
0
0
0
0
0
0
0
0
0
0
0
0
0
0
0
0
0
0
0
0
0
0
0
0
0
0
0
0
0
0
0
0
0
0
0
0
0
177
146
0
255
215
0
252
181
0
252
184
0
252
184
0
252
184
0
252
184
0
252
184
0
252
184
0
252
184
0
252
184
0
252
184
0
252
184
0
252
184
0
252
184
0
252
184
0
252
184
0
252
184
0
252
184
0
252
184
0
252
184
0
252
184
0
252
184
0
252
184
0
252
184
0
252
184
0
252
184
0
252
184
0
252
184
0
252
184
0
252
184
0
252
184
0
252
184
0
252
184
0
252
184
0
252
184
0
252
184
0
252
184
0
252
184
0
252
184
0
252
184
0
252
184
0
252
184
0
252
184
0
251
183
0
255
198
0
243
200
0
9
9
0
0
0
0
0
0
0
0
0
0
0
0
0
0
0
0
0
0
0
0
0
0
0
0
0
0
0
0
0
0
0
0
0
0
0
0
0
0
0
0
0
0
0
0
0
0
0
0
0
0
0
0
0
0
0
0
0
0
0
0
0
0
0
0
0
0
0
0
0
0
6
4
0
232
179
0
255
200
0
252
183
0
252
183
0
252
183
0
252
183
0
252
183
0
252
183
0
252
183
0
252
183
0
252
183
0
252
183
0
252
183
0
252
183
0
252
183
0
252
183
0
252
183
0
252
183
0
252
183
0
252
183
0
252
183
0
252
183
0
252
183
0
252
183
0
252
183
0
252
183
0
252
183
0
252
183
0
252
183
0
252
183
0
252
183
0
252
183
0
252
183
0
252
183
0
252
183
0
252
183
0
252
183
0
252
183
0
252
183
0
252
183
0
252
183
0
252
183
0
252
183
0
252
184
0
252
180
0
255
224
0
148
121
0
0
0
0
0
0
0
0
0
0
0
0
0
0
0
0
0
0
0
0
0
0
0
0
0
0
0
0
0
0
0
0
0
0
0
0
0
0
0
0
0
0
0
0
0
0
0
0
0
0
0
0
0
0
0
0
0
0
0
0
0
0
0
0
0
0
0
0
0
0
0
0
0
51
48
0
255
211
0
255
195
0
253
191
0
253
191
0
253
191
0
253
191
0
253
191
0
253
191
0
253
191
0
253
191
0
253
191
0
253
191
0
253
191
0
253
191
0
253
191
0
253
191
0
253
191
0
253
191
0
253
191
0
253
191
0
253
191
0
253
191
0
253
191
0
253
191
0
253
191
0
253
191
0
253
191
0
253
191
0
253
191
0
253
191
0
253
191
0
253
191
0
253
191
0
253
191
0
253
191
0
253
191
0
253
191
0
253
191
0
253
191
0
253
191
0
253
191
0
253
191
0
253
191
0
253
191
0
255
193
0
255
220
0
66
56
0
0
0
0
0
0
0
0
0
0
0
0
0
0
0
0
0
0
0
0
0
0
0
0
0
0
0
0
0
0
0
0
0
0
0
0
0
0
0
0
0
0
0
0
0
0
0
0
0
0
0
0
0
0
0
0
0
0
0
0
0
0
0
0
0
0
0
0
0
0
0
0
0
83
69
0
255
210
0
255
178
0
251
178
0
251
178
0
251
178
0
251
178
0
251
178
0
251
178
0
251
178
0
251
178
0
251
178
0
251
178
0
251
178
0
251
178
0
251
178
0
251
178
0
251
178
0
251
178
0
251
178
0
251
178
0
251
178
0
251
178
0
251
178
0
251
178
0
251
178
0
251
178
0
251
178
0
251
178
0
251
178
0
251
178
0
251
178
0
251
178
0
251
178
0
251
178
0
251
178
0
251
178
0
251
178
0
251
178
0
251
178
0
251
178
0
251
178
0
251
178
0
251
178
0
251
177
0
255
192
0
238
176
0
12
10
0
0
0
0
0
0
0
0
0
0
0
0
0
0
0
0
0
0
0
0
0
0
0
0
0
0
0
0
0
0
0
0
0
0
0
0
0
0
0
0
0
0
0
0
0
0
0
0
0
0
0
0
0
0
0
0
0
0
0
0
0
0
0
0
0
0
0
0
0
0
0
0
0
108
60
0
255
149
0
247
124
0
245
124
0
245
124
0
245
124
0
245
124
0
245
124
0
245
124
0
245
124
0
245
124
0
245
124
0
245
124
0
245
124
0
245
124
0
245
124
0
245
124
0
245
124
0
245
124
0
245
124
0
245
124
0
245
124
0
245
124
0
245
124
0
245
124
0
245
124
0
245
124
0
245
124
0
245
124
0
245
124
0
245
124
0
245
124
0
245
124
0
245
124
0
245
124
0
245
124
0
245
124
0
245
124
0
245
124
0
245
124
0
245
124
0
245
124
0
245
124
0
245
124
0
244
123
0
255
141
0
194
108
0
0
0
0
0
0
0
0
0
0
0
0
0
0
0
0
0
0
0
0
0
0
0
0
0
0
0
0
0
0
0
0
0
0
0
0
0
0
0
0
0
0
0
0
0
0
0
0
0
0
0
0
0
0
0
0
0
0
0
0
0
0
0
0
0
0
0
0
0
0
0
0
0
0
0
0
130
75
0
255
152
0
246
126
0
246
128
0
246
128
0
246
128
0
246
128
0
246
128
0
246
128
0
246
128
0
246
128
0
246
128
0
246
128
0
246
128
0
246
128
0
246
128
0
246
128
0
246
128
0
246
128
0
246
128
0
246
128
0
246
128
0
246
128
0
246
128
0
246
128
0
246
128
0
246
128
0
246
128
0
246
128
0
246
128
0
246
128
0
246
128
0
246
128
0
246
128
0
246
128
0
246
128
0
246
128
0
246
128
0
246
128
0
246
128
0
246
128
0
246
128
0
246
128
0
246
128
0
245
127
0
255
146
0
177
102
0
0
0
0
0
0
0
0
0
0
0
0
0
0
0
0
0
0
0
0
0
0
0
0
0
0
0
0
0
0
0
0
0
0
0
0
0
0
0
0
0
0
0
0
0
0
0
0
0
0
0
0
0
0
0
0
0
0
0
0
0
0
0
0
0
0
0
0
0
0
0
0
0
0
0
0
135
79
0
255
156
0
246
128
0
246
130
0
246
130
0
246
130
0
246
130
0
246
130
0
246
130
0
246
130
0
246
130
0
246
130
0
246
130
0
246
130
0
246
130
0
246
130
0
246
130
0
246
130
0
246
130
0
246
130
0
246
130
0
246
130
0
246
130
0
246
130
0
246
130
0
246
130
0
246
130
0
246
130
0
246
130
0
246
130
0
246
130
0
246
130
0
246
130
0
246
130
0
246
130
0
246
130
0
246
130
0
246
130
0
246
130
0
246
130
0
246
130
0
246
130
0
246
130
0
246
130
0
245
129
0
255
149
0
174
101
0
0
0
0
0
0
0
0
0
0
0
0
0
0
0
0
0
0
0
0
0
0
0
0
0
0
0
0
0
0
0
0
0
0
0
0
0
0
0
0
0
0
0
0
0
0
0
0
0
0
0
0
0
0
0
0
0
0
0
0
0
0
0
0
0
0
0
0
0
0
0
0
0
0
0
0
136
78
0
255
156
0
246
129
0
246
130
0
246
130
0
246
130
0
246
130
0
246
130
0
246
130
0
246
130
0
246
130
0
246
130
0
246
130
0
246
130
0
246
130
0
246
130
0
246
130
0
246
130
0
246
130
0
246
130
0
246
130
0
246
130
0
246
130
0
246
130
0
246
130
0
246
130
0
246
130
0
246
130
0
246
130
0
246
130
0
246
130
0
246
130
0
246
130
0
246
130
0
246
130
0
246
130
0
246
130
0
246
130
0
246
130
0
246
130
0
246
130
0
246
130
0
246
130
0
246
130
0
246
129
0
255
148
0
181
107
0
0
0
0
0
0
0
0
0
0
0
0
0
0
0
0
0
0
0
0
0
0
0
0
0
0
0
0
0
0
0
0
0
0
0
0
0
0
0
0
0
0
0
0
0
0
0
0
0
0
0
0
0
0
0
0
0
0
0
0
0
0
0
0
0
0
0
0
0
0
0
0
0
0
0
0
133
77
0
255
155
0
246
129
0
246
130
0
246
130
0
246
130
0
246
130
0
246
130
0
246
130
0
246
130
0
246
130
0
246
130
0
246
130
0
246
130
0
246
130
0
246
130
0
246
130
0
246
130
0
246
130
0
246
130
0
246
130
0
246
130
0
246
130
0
246
130
0
246
130
0
246
130
0
246
130
0
246
130
0
246
130
0
246
130
0
246
130
0
246
130
0
246
130
0
246
130
0
246
130
0
246
130
0
246
130
0
246
130
0
246
130
0
246
130
0
246
130
0
246
130
0
246
130
0
246
130
0
246
129
0
255
145
0
206
118
0
0
0
0
0
0
0
0
0
0
0
0
0
0
0
0
0
0
0
0
0
0
0
0
0
0
0
0
0
0
0
0
0
0
0
0
0
0
0
0
0
0
0
0
0
0
0
0
0
0
0
0
0
0
0
0
0
0
0
0
0
0
0
0
0
0
0
0
0
0
0
0
0
0
0
0
116
66
0
255
155
0
246
129
0
246
130
0
246
130
0
246
130
0
246
130
0
246
130
0
246
130
0
246
130
0
246
130
0
246
130
0
246
130
0
246
130
0
246
130
0
246
130
0
246
130
0
246
130
0
246
130
0
246
130
0
246
130
0
246
130
0
246
130
0
246
130
0
246
130
0
246
130
0
246
130
0
246
130
0
246
130
0
246
130
0
246
130
0
246
130
0
246
130
0
246
130
0
246
130
0
246
130
0
246
130
0
246
130
0
246
130
0
246
130
0
246
130
0
246
130
0
246
130
0
246
130
0
245
130
0
255
136
0
249
135
0
26
17
0
0
0
0
0
0
0
0
0
0
0
0
0
0
0
0
0
0
0
0
0
0
0
0
0
0
0
0
0
0
0
0
0
0
0
0
0
0
0
0
0
0
0
0
0
0
0
0
0
0
0
0
0
0
0
0
0
0
0
0
0
0
0
0
0
0
0
0
0
0
0
0
0
92
55
0
255
160
0
252
135
0
248
135
0
248
135
0
248
135
0
248
135
0
248
135
0
248
135
0
248
135
0
248
135
0
248
135
0
248
135
0
248
135
0
248
135
0
248
135
0
248
135
0
248
135
0
248
135
0
248
135
0
248
135
0
248
135
0
248
135
0
248
135
0
248
135
0
248
135
0
248
135
0
248
135
0
248
135
0
248
135
0
248
135
0
248
135
0
248
135
0
248
135
0
248
135
0
248
135
0
248
135
0
248
135
0
248
135
0
248
135
0
248
135
0
248
135
0
248
135
0
248
135
0
247
135
0
252
134
0
255
162
0
86
56
0
0
0
0
0
0
0
0
0
0
0
0
0
0
0
0
0
0
0
0
0
0
0
0
0
0
0
0
0
0
0
0
0
0
0
0
0
0
0
0
0
0
0
0
0
0
0
0
0
0
0
0
0
0
0
0
0
0
0
0
0
0
0
0
0
0
0
0
0
0
0
0
0
72
44
0
255
153
0
254
136
0
248
134
0
248
134
0
248
134
0
248
134
0
248
134
0
248
134
0
247
134
0
247
134
0
247
134
0
247
134
0
247
134
0
247
134
0
247
134
0
247
134
0
247
134
0
247
134
0
247
134
0
247
134
0
247
134
0
247
134
0
247
134
0
247
134
0
247
134
0
247
134
0
247
134
0
247
134
0
247
134
0
247
134
0
247
134
0
247
134
0
247
134
0
247
134
0
247
134
0
247
134
0
247
134
0
247
134
0
247
134
0
247
134
0
247
134
0
247
134
0
247
134
0
247
134
0
245
132
0
255
160
0
171
106
0
0
0
0
0
0
0
0
0
0
0
0
0
0
0
0
0
0
0
0
0
0
0
0
0
0
0
0
0
0
0
0
0
0
0
0
0
0
0
0
0
0
0
0
0
0
0
0
0
0
0
0
0
0
0
0
0
0
0
0
0
0
0
0
0
0
0
0
0
0
0
0
0
36
13
0
237
65
0
234
62
0
224
60
0
224
60
0
224
60
0
224
60
0
224
60
0
224
60
0
224
61
0
224
61
0
224
61
0
224
61
0
224
61
0
224
61
0
224
61
0
224
61
0
224
61
0
224
61
0
224
61
0
224
61
0
224
61
0
224
61
0
224
61
0
224
61
0
224
61
0
224
61
0
224
61
0
224
61
0
224
61
0
224
61
0
224
61
0
224
61
0
224
61
0
224
61
0
224
61
0
224
61
0
224
61
0
224
61
0
224
61
0
224
61
0
224
61
0
224
61
0
224
61
0
224
61
0
223
61
0
234
61
0
249
75
0
30
12
0
0
0
0
0
0
0
0
0
0
0
0
0
0
0
0
0
0
0
0
0
0
0
0
0
0
0
0
0
0
0
0
0
0
0
0
0
0
0
0
0
0
0
0
0
0
0
0
0
0
0
0
0
0
0
0
0
0
0
0
0
0
0
0
0
0
0
0
0
0
0
0
0
208
50
0
243
55
0
219
51
0
220
51
0
220
51
0
220
51
0
220
51
0
220
51
0
221
51
0
221
51
0
221
51
0
221
51
0
221
51
0
221
51
0
221
51
0
221
51
0
221
51
0
221
51
0
221
51
0
221
51
0
221
51
0
221
51
0
221
51
0
221
51
0
221
51
0
221
51
0
221
51
0
221
51
0
221
51
0
221
51
0
221
51
0
221
51
0
221
51
0
221
51
0
221
51
0
221
51
0
221
51
0
221
51
0
221
51
0
221
51
0
221
51
0
221
51
0
221
51
0
221
51
0
221
51
0
217
48
0
255
63
0
161
47
0
0
0
0
0
0
0
0
0
0
0
0
0
0
0
0
0
0
0
0
0
0
0
0
0
0
0
0
0
0
0
0
0
0
0
0
0
0
0
0
0
0
0
0
0
0
0
0
0
0
0
0
0
0
0
0
0
0
0
0
0
0
0
0
0
0
0
0
0
0
0
0
0
172
50
0
255
67
0
220
58
0
223
59
0
223
59
0
223
59
0
223
59
0
223
59
0
223
59
0
223
59
0
223
59
0
223
59
0
223
59
0
223
59
0
223
59
0
223
59
0
223
59
0
223
59
0
223
59
0
223
59
0
223
59
0
223
59
0
223
59
0
223
59
0
223
59
0
223
59
0
223
59
0
223
59
0
223
59
0
223
59
0
223
59
0
223
59
0
223
59
0
223
59
0
223
59
0
223
59
0
223
59
0
223
59
0
223
59
0
223
59
0
223
59
0
223
59
0
223
59
0
223
59
0
223
59
0
223
59
0
226
58
0
255
72
0
70
23
0
0
0
0
0
0
0
0
0
0
0
0
0
0
0
0
0
0
0
0
0
0
0
0
0
0
0
0
0
0
0
0
0
0
0
0
0
0
0
0
0
0
0
0
0
0
0
0
0
0
0
0
0
0
0
0
0
0
0
0
0
0
0
0
0
0
0
0
0
0
120
35
0
255
70
0
218
57
0
223
58
0
223
58
0
223
58
0
223
58
0
223
58
0
223
58
0
223
58
0
223
58
0
223
58
0
223
58
0
223
58
0
223
58
0
223
58
0
223
58
0
223
58
0
223
58
0
223
58
0
223
58
0
223
58
0
223
58
0
223
58
0
223
58
0
223
58
0
223
58
0
223
58
0
223
58
0
223
58
0
223
58
0
223
58
0
223
58
0
223
58
0
223
58
0
223
58
0
223
58
0
223
58
0
223
58
0
223
58
0
223
58
0
223
58
0
223
58
0
223
58
0
223
58
0
223
58
0
218
57
0
245
63
0
243
70
0
28
10
0
0
0
0
0
0
0
0
0
0
0
0
0
0
0
0
0
0
0
0
0
0
0
0
0
0
0
0
0
0
0
0
0
0
0
0
0
0
0
0
0
0
0
0
0
0
0
0
0
0
0
0
0
0
0
0
0
0
0
0
0
0
0
0
0
0
0
57
19
0
255
69
0
227
58
0
223
58
0
223
58
0
223
58
0
223
58
0
223
58
0
223
58
0
223
58
0
223
58
0
223
58
0
223
58
0
223
58
0
223
58
0
223
58
0
223
58
0
223
58
0
223
58
0
223
58
0
223
58
0
223
58
0
223
58
0
223
58
0
223
58
0
223
58
0
223
58
0
223
58
0
223
58
0
223
58
0
223
58
0
223
58
0
223
58
0
223
58
0
223
58
0
223
58
0
223
58
0
223
58
0
223
58
0
223
58
0
223
58
0
223
58
0
223
58
0
223
58
0
223
58
0
223
58
0
223
58
0
217
56
0
255
65
0
229
66
0
32
12
0
0
0
0
0
0
0
0
0
0
0
0
0
0
0
0
0
0
0
0
0
0
0
0
0
0
0
0
0
0
0
0
0
0
0
0
0
0
0
0
0
0
0
0
0
0
0
0
0
0
0
0
0
0
0
0
0
0
0
0
0
0
0
0
2
2
0
218
61
0
247
63
0
221
57
0
223
58
0
223
58
0
223
58
0
223
58
0
223
58
0
223
58
0
223
58
0
223
58
0
223
58
0
223
58
0
223
58
0
223
58
0
223
58
0
223
58
0
223
58
0
223
58
0
223
58
0
223
58
0
223
58
0
223
58
0
223
58
0
223
58
0
223
58
0
223
58
0
223
58
0
223
58
0
223
58
0
223
58
0
223
58
0
223
58
0
223
58
0
223
58
0
223
58
0
223
58
0
223
58
0
223
58
0
223
58
0
223
58
0
223
58
0
223
58
0
223
58
0
223
58
0
223
58
0
223
58
0
216
55
0
255
67
0
232
67
0
70
23
0
0
0
0
0
0
0
0
0
0
0
0
0
0
0
0
0
0
0
0
0
0
0
0
0
0
0
0
0
0
0
0
0
0
0
0
0
0
0
0
0
0
0
0
0
0
0
0
0
0
0
0
0
0
0
0
0
0
0
0
0
0
0
0
148
43
0
255
71
0
220
57
0
224
58
0
224
58
0
224
58
0
224
58
0
224
58
0
224
58
0
224
58
0
224
58
0
224
58
0
224
58
0
224
58
0
224
58
0
224
58
0
224
58
0
224
58
0
224
58
0
224
58
0
224
58
0
224
58
0
224
58
0
224
58
0
224
58
0
224
58
0
224
58
0
224
58
0
224
58
0
224
58
0
224
58
0
224
58
0
224
58
0
224
58
0
224
58
0
224
58
0
224
58
0
224
58
0
224
58
0
224
58
0
224
58
0
224
58
0
224
58
0
224
58
0
224
58
0
224
58
0
224
58
0
225
58
0
218
55
0
246
63
0
255
72
0
155
47
0
28
10
0
0
0
0
0
0
0
0
0
0
0
0
0
0
0
0
0
0
0
0
0
0
0
0
0
0
0
0
0
0
0
0
0
0
0
0
0
0
0
0
0
0
0
0
0
0
0
0
0
0
0
0
0
0
0
0
0
0
61
21
0
255
70
0
239
57
0
234
58
0
234
58
0
234
58
0
234
58
0
234
58
0
234
58
0
234
58
0
234
58
0
234
58
0
234
58
0
234
58
0
234
58
0
234
58
0
234
57
0
234
57
0
234
57
0
234
57
0
234
57
0
234
57
0
234
57
0
234
57
0
234
57
0
234
57
0
234
57
0
234
57
0
234
57
0
234
57
0
234
57
0
234
57
0
234
57
0
234
57
0
234
57
0
234
57
0
234
57
0
234
57
0
234
57
0
234
57
0
234
57
0
234
57
0
234
57
0
234
57
0
234
57
0
234
58
0
234
58
0
234
58
0
235
58
0
230
56
0
241
58
0
255
70
0
248
67
0
136
43
0
0
0
0
0
0
0
0
0
0
0
0
0
0
0
0
0
0
0
0
0
0
0
0
0
0
0
0
0
0
0
0
0
0
0
0
0
0
0
0
0
0
0
0
0
0
0
0
0
0
0
0
0
0
0
0
1
0
155
59
0
186
67
0
163
60
0
165
60
0
165
60
0
165
60
0
165
60
0
165
60
0
165
60
0
165
60
0
165
60
0
165
60
0
165
60
0
165
60
0
165
60
0
165
60
0
165
60
0
165
60
0
165
60
0
165
60
0
165
60
0
165
60
0
165
60
0
165
60
0
165
60
0
165
60
0
165
60
0
165
60
0
165
60
0
165
60
0
165
60
0
165
60
0
165
60
0
165
60
0
165
60
0
165
60
0
165
60
0
165
60
0
165
60
0
165
60
0
165
60
0
165
60
0
165
60
0
165
60
0
165
60
0
165
60
0
165
60
0
165
60
0
165
61
0
164
60
0
156
56
0
214
79
0
138
51
0
0
0
0
0
0
0
0
0
0
0
0
0
0
0
0
0
0
0
0
0
0
0
0
0
0
0
0
0
0
0
0
0
0
0
0
0
0
0
0
0
0
0
0
0
0
0
0
0
0
0
0
0
0
0
0
0
0
69
38
0
173
77
0
132
60
0
137
62
0
137
62
0
137
62
0
137
62
0
137
62
0
137
62
0
137
62
0
137
62
0
137
62
0
137
62
0
137
62
0
137
62
0
137
62
0
137
62
0
137
62
0
137
62
0
137
62
0
137
62
0
137
62
0
137
62
0
137
62
0
137
62
0
137
62
0
137
62
0
137
62
0
137
62
0
137
62
0
137
62
0
137
62
0
137
62
0
137
62
0
137
62
0
137
62
0
137
62
0
137
62
0
137
62
0
137
62
0
137
62
0
137
62
0
137
62
0
137
62
0
137
62
0
137
62
0
137
62
0
137
62
0
137
62
0
136
62
0
145
64
0
151
70
0
5
8
0
0
0
0
0
0
0
0
0
0
0
0
0
0
0
0
0
0
0
0
0
0
0
0
0
0
0
0
0
0
0
0
0
0
0
0
0
0
0
0
0
0
0
0
0
0
0
0
0
0
0
0
0
0
0
0
0
0
11
6
0
165
69
0
164
64
0
150
60
0
151
61
0
151
61
0
151
61
0
151
61
0
151
61
0
151
61
0
151
61
0
151
61
0
151
61
0
151
61
0
151
61
0
151
61
0
151
61
0
151
61
0
151
61
0
151
61
0
151
61
0
151
61
0
151
61
0
151
61
0
151
61
0
151
61
0
151
61
0
151
61
0
151
61
0
151
61
0
151
61
0
151
61
0
151
61
0
151
61
0
151
61
0
151
61
0
151
61
0
151
61
0
151
61
0
151
61
0
151
61
0
151
61
0
151
61
0
151
61
0
151
61
0
151
61
0
151
61
0
151
61
0
151
61
0
145
59
0
187
74
0
100
43
0
0
0
0
0
0
0
0
0
0
0
0
0
0
0
0
0
0
0
0
0
0
0
0
0
0
0
0
0
0
0
0
0
0
0
0
0
0
0
0
0
0
0
0
0
0
0
0
0
0
0
0
0
0
0
0
0
0
0
0
0
0
0
0
95
42
0
188
77
0
145
59
0
150
61
0
150
61
0
150
61
0
150
61
0
150
61
0
150
61
0
150
61
0
150
61
0
150
61
0
150
61
0
150
61
0
150
61
0
150
61
0
150
61
0
150
61
0
150
61
0
150
61
0
150
61
0
150
61
0
150
61
0
150
61
0
150
61
0
150
61
0
150
61
0
150
61
0
150
61
0
150
61
0
150
61
0
150
61
0
150
61
0
150
61
0
150
61
0
150
61
0
150
61
0
150
61
0
150
61
0
150
61
0
150
61
0
150
61
0
150
61
0
150
61
0
150
61
0
150
61
0
150
61
0
149
60
0
159
64
0
173
73
0
19
10
0
0
0
0
0
0
0
0
0
0
0
0
0
0
0
0
0
0
0
0
0
0
0
0
0
0
0
0
0
0
0
0
0
0
0
0
0
0
0
0
0
0
0
0
0
0
0
0
0
0
0
0
0
0
0
0
0
0
0
0
0
0
0
0
12
7
0
165
70
0
160
64
0
149
61
0
150
61
0
150
61
0
150
61
0
150
61
0
150
61
0
150
61
0
150
61
0
150
61
0
150
61
0
150
61
0
150
61
0
150
61
0
150
61
0
150
61
0
150
61
0
150
61
0
150
61
0
150
61
0
150
61
0
150
61
0
150
61
0
150
61
0
150
61
0
150
61
0
150
61
0
150
61
0
150
61
0
150
61
0
150
61
0
150
61
0
150
61
0
150
61
0
150
61
0
150
61
0
150
61
0
150
61
0
150
61
0
150
61
0
150
61
0
150
61
0
150
61
0
150
61
0
150
61
0
144
59
0
190
77
0
94
42
0
0
0
0
0
0
0
0
0
0
0
0
0
0
0
0
0
0
0
0
0
0
0
0
0
0
0
0
0
0
0
0
0
0
0
0
0
0
0
0
0
0
0
0
0
0
0
0
0
0
0
0
0
0
0
0
0
0
0
0
0
0
0
0
0
0
0
0
0
0
85
38
0
189
76
0
145
58
0
151
61
0
150
61
0
150
61
0
150
61
0
150
61
0
150
61
0
150
61
0
150
61
0
150
61
0
150
61
0
150
61
0
150
61
0
150
61
0
150
61
0
150
61
0
150
61
0
150
61
0
150
61
0
150
61
0
150
61
0
150
61
0
150
61
0
150
61
0
150
61
0
150
61
0
150
61
0
150
61
0
150
61
0
150
61
0
150
61
0
150
61
0
150
61
0
150
61
0
150
61
0
150
61
0
150
61
0
150
61
0
150
61
0
150
61
0
150
61
0
150
61
0
150
61
0
147
60
0
166
66
0
160
68
0
7
4
0
0
0
0
0
0
0
0
0
0
0
0
0
0
0
0
0
0
0
0
0
0
0
0
0
0
0
0
0
0
0
0
0
0
0
0
0
0
0
0
0
0
0
0
0
0
0
0
0
0
0
0
0
0
0
0
0
0
0
0
0
0
0
0
0
0
0
0
0
0
2
3
0
156
67
0
172
69
0
144
61
0
149
62
0
149
62
0
149
62
0
149
62
0
149
62
0
149
62
0
149
62
0
149
62
0
149
62
0
149
62
0
149
62
0
149
62
0
149
62
0
148
62
0
149
62
0
149
62
0
149
62
0
149
62
0
149
62
0
149
62
0
149
62
0
149
62
0
149
62
0
149
62
0
149
62
0
149
62
0
149
62
0
149
62
0
149
62
0
149
62
0
149
62
0
149
62
0
149
62
0
149
62
0
148
62
0
148
62
0
148
62
0
148
62
0
148
62
0
148
62
0
148
62
0
147
60
0
191
78
0
59
28
0
0
0
0
0
0
0
0
0
0
0
0
0
0
0
0
0
0
0
0
0
0
0
0
0
0
0
0
0
0
0
0
0
0
0
0
0
0
0
0
0
0
0
0
0
0
0
0
0
0
0
0
0
0
0
0
0
0
0
0
0
0
0
0
0
0
0
0
0
0
0
0
0
0
0
0
50
26
0
200
69
0
183
36
0
179
40
0
179
40
0
179
40
0
179
40
0
179
40
0
179
40
0
179
40
0
179
40
0
179
40
0
179
40
0
179
40
0
179
40
0
179
41
0
179
40
0
179
40
0
179
40
0
179
40
0
179
40
0
179
40
0
179
40
0
179
40
0
179
40
0
179
40
0
179
40
0
179
40
0
179
40
0
179
40
0
179
40
0
179
40
0
179
40
0
179
40
0
179
40
0
179
40
0
179
40
0
180
40
0
179
41
0
179
41
0
179
41
0
179
41
0
179
41
0
178
35
0
208
57
0
125
55
0
0
0
0
0
0
0
0
0
0
0
0
0
0
0
0
0
0
0
0
0
0
0
0
0
0
0
0
0
0
0
0
0
0
0
0
0
0
0
0
0
0
0
0
0
0
0
0
0
0
0
0
0
0
0
0
0
0
0
0
0
0
0
0
0
0
0
0
0
0
0
0
0
0
0
0
0
0
0
0
0
0
60
85
0
78
152
0
69
113
0
70
120
0
70
119
0
70
119
0
70
119
0
70
119
0
70
119
0
70
119
0
70
119
0
70
119
0
70
119
0
70
119
0
70
120
0
70
120
0
70
120
0
70
120
0
70
120
0
70
120
0
70
120
0
70
120
0
70
120
0
70
120
0
70
120
0
70
120
0
70
120
0
70
120
0
70
120
0
70
120
0
70
120
0
70
120
0
70
120
0
70
120
0
70
120
0
70
120
0
70
120
0
70
120
0
70
120
0
70
120
0
70
120
0
70
116
0
70
133
0
82
134
0
13
9
0
0
0
0
0
0
0
0
0
0
0
0
0
0
0
0
0
0
0
0
0
0
0
0
0
0
0
0
0
0
0
0
0
0
0
0
0
0
0
0
0
0
0
0
0
0
0
0
0
0
0
0
0
0
0
0
0
0
0
0
0
0
0
0
0
0
0
0
0
0
0
0
0
0
0
0
0
0
0
0
0
0
0
27
0
0
196
0
0
199
0
0
174
0
0
179
0
0
178
0
0
178
0
0
178
0
0
178
0
0
178
0
0
178
0
0
178
0
0
178
0
0
178
0
0
178
0
0
178
0
0
178
0
0
178
0
0
178
0
0
178
0
0
178
0
0
178
0
0
178
0
0
178
0
0
178
0
0
178
0
0
178
0
0
178
0
0
178
0
0
178
0
0
178
0
0
178
0
0
178
0
0
178
0
0
178
0
0
178
0
0
178
0
0
178
0
0
178
0
0
178
0
0
178
0
0
178
0
0
222
0
0
87
0
0
0
0
0
0
0
0
0
0
0
0
0
0
0
0
0
0
0
0
0
0
0
0
0
0
0
0
0
0
0
0
0
0
0
0
0
0
0
0
0
0
0
0
0
0
0
0
0
0
0
0
0
0
0
0
0
0
0
0
0
0
0
0
0
0
0
0
0
0
0
0
0
0
0
0
0
0
0
0
0
0
0
0
0
1
0
0
11
43
0
6
195
0
0
162
0
0
153
0
0
156
0
0
156
0
0
156
0
0
156
0
0
156
0
0
156
0
0
156
0
0
156
0
0
156
0
0
156
0
0
155
0
0
155
0
0
155
0
0
155
0
0
155
0
0
155
0
0
155
0
0
155
0
0
155
0
0
155
0
0
155
0
0
155
0
0
155
0
0
155
0
0
155
0
0
155
0
0
155
0
0
155
0
0
155
0
0
155
0
0
155
0
0
155
0
0
156
0
0
156
0
0
156
0
0
149
0
1
198
0
11
112
0
4
0
0
0
0
0
0
0
0
0
0
0
0
0
0
0
0
0
0
0
0
0
0
0
0
0
0
0
0
0
0
0
0
0
0
0
0
0
0
0
0
0
0
0
0
0
0
0
0
0
0
0
0
0
0
0
0
0
0
0
0
0
0
0
0
0
0
0
0
0
0
0
0
0
0
0
0
0
0
0
0
0
0
0
0
0
0
0
0
0
1
0
0
12
86
0
3
205
0
0
156
0
0
156
0
0
157
0
0
157
0
0
157
0
0
157
0
0
157
0
0
157
0
0
157
0
0
157
0
0
157
0
0
157
0
0
157
0
0
157
0
0
157
0
0
157
0
0
157
0
0
157
0
0
157
0
0
157
0
0
157
0
0
157
0
0
157
0
0
157
0
0
157
0
0
157
0
0
157
0
0
157
0
0
157
0
0
157
0
0
157
0
0
157
0
0
157
0
0
157
0
0
158
0
0
149
0
0
189
0
11
152
0
6
0
0
0
0
0
0
0
0
0
0
0
0
0
0
0
0
0
0
0
0
0
0
0
0
0
0
0
0
0
0
0
0
0
0
0
0
0
0
0
0
0
0
0
0
0
0
0
0
0
0
0
0
0
0
0
0
0
0
0
0
0
0
0
0
0
0
0
0
0
0
0
0
0
0
0
0
0
0
0
0
0
0
0
0
0
0
0
0
0
0
0
0
0
0
0
3
0
0
12
113
0
2
204
0
0
154
0
0
155
0
0
157
0
0
157
0
0
157
0
0
157
0
0
157
0
0
157
0
0
157
0
0
157
0
0
157
0
0
157
0
0
157
0
0
156
0
0
154
0
0
156
0
0
160
0
0
161
0
0
159
0
0
155
0
0
155
0
0
156
0
0
157
0
0
157
0
0
157
0
0
157
0
0
157
0
0
157
0
0
157
0
0
157
0
0
157
0
0
157
0
0
157
0
0
149
0
0
186
0
9
174
0
8
16
0
0
0
0
0
0
0
0
0
0
0
0
0
0
0
0
0
0
0
0
0
0
0
0
0
0
0
0
0
0
0
0
0
0
0
0
0
0
0
0
0
0
0
0
0
0
0
0
0
0
0
0
0
0
0
0
0
0
0
0
0
0
0
0
0
0
0
0
0
0
0
0
0
0
0
0
0
0
0
0
0
0
0
0
0
0
0
0
0
0
0
0
0
0
0
0
0
0
0
0
5
0
0
11
123
0
2
203
0
0
158
0
0
153
0
0
158
0
0
157
0
0
157
0
0
157
0
0
157
0
0
157
0
0
157
0
0
155
0
0
153
0
0
163
0
0
179
0
1
189
0
3
185
0
4
179
0
3
177
0
4
180
0
3
187
0
1
189
0
0
175
0
0
158
0
0
153
0
0
156
0
0
157
0
0
157
0
0
157
0
0
157
0
0
157
0
0
158
0
0
156
0
0
151
0
0
188
0
9
175
0
9
26
0
0
0
0
0
0
0
0
0
0
0
0
0
0
0
0
0
0
0
0
0
0
0
0
0
0
0
0
0
0
0
0
0
0
0
0
0
0
0
0
0
0
0
0
0
0
0
0
0
0
0
0
0
0
0
0
0
0
0
0
0
0
0
0
0
0
0
0
0
0
0
0
0
0
0
0
0
0
0
0
0
0
0
0
0
0
0
0
0
0
0
0
0
0
0
0
0
0
0
0
0
0
0
0
0
0
4
0
0
12
109
0
5
201
0
0
178
0
0
152
0
0
154
0
0
156
0
0
156
0
0
156
0
0
154
0
0
153
0
0
174
0
1
194
0
6
170
0
7
129
0
8
86
0
7
64
0
7
48
0
6
42
0
7
51
0
8
68
0
9
98
0
8
142
0
5
181
0
0
190
0
0
164
0
0
152
0
0
155
0
0
156
0
0
156
0
0
156
0
0
151
0
0
163
0
2
200
0
11
158
0
8
21
0
0
0
0
0
0
0
0
0
0
0
0
0
0
0
0
0
0
0
0
0
0
0
0
0
0
0
0
0
0
0
0
0
0
0
0
0
0
0
0
0
0
0
0
0
0
0
0
0
0
0
0
0
0
0
0
0
0
0
0
0
0
0
0
0
0
0
0
0
0
0
0
0
0
0
0
0
0
0
0
0
0
0
0
0
0
0
0
0
0
0
0
0
0
0
0
0
0
0
0
0
0
0
0
0
0
0
0
0
0
0
0
3
0
0
11
64
0
9
166
0
3
195
0
0
183
0
0
172
0
0
171
0
0
174
0
0
186
0
3
193
0
9
163
0
11
96
0
7
27
0
3
0
0
1
0
0
0
0
0
0
0
0
0
0
0
0
0
0
0
0
0
1
0
0
5
0
0
8
50
0
9
123
0
6
180
0
2
193
0
0
180
0
0
173
0
0
171
0
0
177
0
1
193
0
7
186
0
11
110
0
6
0
0
0
0
0
0
0
0
0
0
0
0
0
0
0
0
0
0
0
0
0
0
0
0
0
0
0
0
0
0
0
0
0
0
0
0
0
0
0
0
0
0
0
0
0
0
0
0
0
0
0
0
0
0
0
0
0
0
0
0
0
0
0
0
0
0
0
0
0
0
0
0
0
0
0
0
0
0
0
0
0
0
0
0
0
0
0
0
0
0
0
0
0
0
0
0
0
0
0
0
0
0
0
0
0
0
0
0
0
0
0
0
0
0
0
0
0
0
0
0
0
0
7
2
0
10
76
0
9
127
0
6
149
0
4
150
0
7
146
0
8
121
0
8
71
0
7
5
0
1
0
0
0
0
0
0
0
0
0
0
0
0
0
0
0
0
0
0
0
0
0
0
0
0
0
0
0
0
0
0
0
0
0
0
0
3
0
0
8
31
0
10
92
0
8
135
0
6
149
0
6
150
0
6
140
0
9
101
0
9
34
0
2
0
0
0
0
0
0
0
0
0
0
0
0
0
0
0
0
0
0
0
0
0
0
0
0
0
0
0
0
0
0
0
0
0
0
0
0
0
0
0
0
0
0
0
0
0
0
0
0
0
0
0
0
0
0
0
0
0
0
0
0
0
0
0
0
0
0
0
0
0
0
0
0
0
0
0
0
0
0
0
0
0
0
0
0
0
0
0
0
0
0
0
0
0
0
0
0
0
0
0
0
0
0
0
0
0
0
0
0
0
0
0
0
0
0
0
0
0
0
0
0
0
0
0
0
0
0
0
0
0
0
0
3
0
0
5
1
0
4
4
0
5
0
0
2
0
0
0
0
0
0
0
0
0
0
0
0
0
0
0
0
0
0
0
0
0
0
0
0
0
0
0
0
0
0
0
0
0
0
0
0
0
0
0
0
0
0
0
0
0
0
0
0
0
0
1
0
0
3
0
0
5
1
0
5
4
0
3
0
0
1
0
0
0
0
0
0
0
0
0
0
0
0
0
0
0
0
0
0
0
0
0
0
0
0
0
0
0
0
0
0
0
0
0
0
0
0
0
0
0
0
0
0
0
0
0
0
0
0
0
0
0
0
0
0
0
0
0
0
0
0
0
0
0
0
0
0
0
0
0
0
0
0
0
0
0
0
0
0
0
0
0
0
0
0
0
0
0
0
0
0
0
0
0
0
0
0
0
0
0
0
0
0
0
0
0
0
0
0
0
0
0
0
0
0
0
0
0
0
0
0
0
0
0
0
0
0
0
0
0
0
0
0
0
0
0
0
0
0
0
0
0
0
0
0
0
0
0
0
0
0
0
0
0
0
0
0
0
0
0
0
0
0
0
0
0
0
0
0
0
0
0
0
0
0
0
0
0
0
0
0
0
0
0
0
0
0
0
0
0
0
0
0
0
0
0
0
0
0
0
0
0
0
0
0
0
0
0
0
0
0
0
0
0
0
0
0
0
0
0
0
0
0
0
0
0
0
0
0
0
0
0
0
0
0
0
0
0
0
0
0
0
0
0
0
0
0
0
0
0
0
0
0
0
0
0
0
0
0
0
0
0
0
0
0
0
0
0
0
0
0
0
0
0
0
0
0
0
0
0
0
0
0
0
0
0
0
0
0
0
0
0
0
0
0
0
0
0
0
0
0
0
0
0
0
0
0
0
0
0
0
0
0
0
0
0
0
0
0
0
0
0
0
0
0
0
0
0
0
0
0
0
0
0
0
0
0
0
0
0
0
0
0
0
0
0
0
0
0
0
0
0
0
0
0
0
0
0
0
0
0
0
0
0
0
0
0
0
0
0
0
0
0
0
0
0
0
0
0
0
0
0
0
0
0
0
0
0
0
0
0
0
0
0
0
0
0
0
0
0
0
0
0
0
0
0
0
0
0
0
0
0
0
0
0
0
0
0
0
0
0
0
0
0
0
0
0
0
0
0
0
0
0
0
0
0
0
0
0
0
0
0
0
0
0
0
0
0
0
0
0
0
0
0
0
0
0
0
0
0
0
0
0
0
0
0
0
0
0
0
0
0
0
0
0
0
0
0
0
0
0
0
0
0
0
0
0
0
0
0
0
0
0
0
0
0
0
0
0
0
0
0
0
0
0
0
0
0
0
0
0
0
0
0
0
0
0
0
0
0
0
0
0
0
0
0
0
0
0
0
0
0
0
0
0
0
0
0
0
0
0
0
0
0
0
0
0
0
0
0
0
0
0
0
0
0
0
0
0
0
0
0
0
0
0
0
0
0
0
0
0
0
0
0
0
0
0
0
0
0
0
0
0
0
0
0
0
0
0
0
0
0
0
0
0
0
0
0
0
0
0
0
0
0
0
0
0
0
0
0
0
0
0
0
0
0
0
0
0
0
0
0
0
0
0
0
0
0
0
0
0
0
0
0
0
0
0
0
0
0
0
0
0
0
0
0
0
0
0
0
0
0
0
0
0
0
0
0
0
0
0
0
0
0
0
0
0
0
0
0
0
0
0
0
0
0
0
0
0
0
0
0
0
0
0
0
0
0
0
0
0
0
0
0
0
0
0
0
0
0
0
0
0
0
0
0
0
0
0
0
0
0
0
0
0
0
0
