P3
72 72
255
0
0
0
0
0
0
0
0
0
0
0
0
0
0
0
0
0
0
0
0
0
0
0
0
0
0
0
0
0
0
0
0
0
0
0
0
0
0
0
0
0
0
0
0
0
0
0
0
0
0
0
0
0
0
0
0
0
0
0
0
0
0
0
0
0
0
0
0
0
0
0
0
0
0
0
0
0
0
0
0
0
0
0
0
0
0
0
0
0
0
0
0
0
0
0
0
0
0
0
0
0
0
0
0
0
0
0
0
0
0
0
0
0
0
0
0
0
0
0
0
0
0
0
0
0
0
0
0
0
0
0
0
0
0
0
0
0
0
0
0
0
0
0
0
0
0
0
0
0
0
0
0
0
0
0
0
0
0
0
0
0
0
0
0
0
0
0
0
0
0
0
0
0
0
0
0
0
0
0
0
0
0
0
0
0
0
0
0
0
0
0
0
0
0
0
0
0
0
0
0
0
0
0
0
0
0
0
0
0
0
0
0
0
0
0
0
0
0
0
0
0
0
0
0
0
0
0
0
0
0
0
0
0
0
0
0
0
0
0
0
0
0
0
0
0
0
0
0
0
0
0
0
0
0
0
0
0
0
0
0
0
0
0
0
0
0
0
0
0
0
0
0
0
0
0
0
0
0
0
0
0
0
0
0
0
0
0
0
0
0
0
0
0
0
0
0
0
0
0
0
0
0
0
0
0
0
0
0
0
0
0
0
0
0
0
0
0
0
0
0
0
0
0
0
0
0
0
0
0
0
0
0
0
0
0
0
0
0
0
0
0
0
0
0
0
0
0
0
0
0
0
0
0
0
0
0
0
0
0
0
0
0
0
0
0
0
0
0
0
0
0
0
0
0
0
0
0
0
0
0
0
0
0
0
0
0
0
0
0
0
0
0
0
0
0
0
0
0
0
0
0
0
0
0
0
0
0
0
0
0
0
0
0
0
0
0
0
0
0
0
0
0
0
0
0
0
0
0
0
0
0
0
0
0
0
0
0
0
0
0
0
0
0
0
0
0
0
0
0
0
0
0
0
0
0
0
0
0
0
0
0
0
0
0
0
0
0
0
0
0
0
0
0
0
0
0
0
0
0
0
0
0
0
0
0
0
0
0
0
0
0
0
0
0
0
0
0
0
0
0
0
0
0
0
0
0
0
0
0
0
0
0
0
0
0
0
0
0
0
0
0
0
0
0
0
0
0
0
0
0
0
0
0
0
0
0
0
0
0
0
0
0
0
0
0
0
0
0
0
0
0
0
0
0
0
0
0
0
0
0
0
0
0
0
0
0
0
0
0
0
0
0
0
0
0
0
0
0
0
0
0
0
0
0
0
0
0
0
0
0
0
0
0
0
0
0
0
0
0
0
0
0
0
0
0
0
0
0
0
0
0
0
0
0
0
0
0
0
0
0
0
0
0
0
0
0
0
0
0
0
0
0
0
0
0
0
0
0
0
0
0
0
0
0
0
0
0
0
0
0
0
0
0
0
0
0
0
0
0
0
0
0
0
0
0
0
0
0
0
0
0
0
0
0
0
0
0
0
0
0
0
0
0
0
0
0
0
0
0
0
0
0
0
0
0
0
0
0
0
0
0
0
0
0
0
0
0
0
0
0
0
0
0
0
0
0
0
0
0
0
0
0
0
0
0
0
0
0
0
0
0
0
0
0
0
0
0
0
0
0
0
0
0
0
0
0
0
0
0
0
0
0
0
0
0
0
0
0
0
0
0
0
0
0
0
0
0
0
0
0
0
0
0
0
0
0
0
0
0
0
0
0
0
30
54
22
30
54
22
30
54
22
0
0
0
0
0
0
0
0
0
0
0
0
0
0
0
0
0
0
0
0
0
0
0
0
0
0
0
0
0
0
0
0
0
0
0
0
0
0
0
0
0
0
0
0
0
0
0
0
0
0
0
0
0
0
0
0
0
0
0
0
0
0
0
0
0
0
0
0
0
0
0
0
0
0
0
0
0
0
0
0
0
0
0
0
0
0
0
0
0
0
0
0
0
0
0
0
0
0
0
0
0
0
0
0
0
0
0
0
0
0
0
0
0
0
0
0
0
0
0
0
0
0
0
0
0
0
0
0
0
0
0
0
0
0
0
0
0
0
0
0
0
0
0
0
0
0
0
0
0
0
0
0
0
0
0
0
0
0
0
0
0
0
0
0
0
0
0
0
0
0
0
0
0
0
0
0
0
0
0
0
0
0
0
0
0
0
0
0
0
0
0
0
0
0
0
0
0
0
32
58
24
32
58
24
32
58
24
83
155
59
83
155
59
83
155
59
0
0
0
0
0
0
0
0
0
0
0
0
0
0
0
0
0
0
0
0
0
0
0
0
0
0
0
0
0
0
0
0
0
0
0
0
0
0
0
0
0
0
0
0
0
0
0
0
0
0
0
0
0
0
0
0
0
0
0
0
0
0
0
0
0
0
0
0
0
0
0
0
0
0
0
0
0
0
0
0
0
0
0
0
0
0
0
0
0
0
0
0
0
0
0
0
0
0
0
0
0
0
0
0
0
0
0
0
0
0
0
0
0
0
0
0
0
0
0
0
0
0
0
0
0
0
0
0
0
0
0
0
0
0
0
0
0
0
0
0
0
0
0
0
0
0
0
0
0
0
0
0
0
0
0
0
0
0
0
0
0
0
0
0
0
0
0
0
0
0
0
0
0
0
0
0
0
0
0
0
0
0
0
0
0
0
0
0
0
3
5
3
3
5
3
3
5
3
77
150
56
77
150
56
77
150
56
70
136
49
70
136
49
70
136
49
0
0
0
0
0
0
0
0
0
0
0
0
0
0
0
0
0
0
0
0
0
0
0
0
0
0
0
0
0
0
0
0
0
0
0
0
0
0
0
0
0
0
0
0
0
0
0
0
0
0
0
0
0
0
0
0
0
0
0
0
0
0
0
0
0
0
0
0
0
0
0
0
0
0
0
0
0
0
0
0
0
0
0
0
0
0
0
0
0
0
0
0
0
0
0
0
0
0
0
0
0
0
0
0
0
0
0
0
0
0
0
0
0
0
0
0
0
0
0
0
0
0
0
0
0
0
0
0
0
0
0
0
0
0
0
0
0
0
0
0
0
0
0
0
0
0
0
0
0
0
0
0
0
0
0
0
0
0
0
0
0
0
0
0
0
0
0
0
0
0
0
0
0
0
0
0
0
0
0
0
0
0
0
0
0
0
0
0
0
48
90
35
48
90
35
48
90
35
64
125
45
64
125
45
64
125
45
70
137
50
70
137
50
70
137
50
0
0
0
0
0
0
0
0
0
0
0
0
0
0
0
0
0
0
0
0
0
0
0
0
0
0
0
0
0
0
0
0
0
0
0
0
0
0
0
0
0
0
0
0
0
0
0
0
0
0
0
0
0
0
0
0
0
0
0
0
0
0
0
0
0
0
0
0
0
0
0
0
0
0
0
0
0
0
0
0
0
0
0
0
0
0
0
0
0
0
0
0
0
0
0
0
0
0
0
0
0
0
0
0
0
0
0
0
0
0
0
0
0
0
0
0
0
0
0
0
0
0
0
0
0
0
0
0
0
0
0
0
0
0
0
0
0
0
0
0
0
0
0
0
0
0
0
0
0
0
0
0
0
0
0
0
0
0
0
0
0
0
0
0
0
0
0
0
0
0
0
0
0
0
0
0
0
0
0
0
0
0
0
0
0
0
0
0
0
77
150
55
77
150
55
77
150
55
64
125
46
64
125
46
64
125
46
70
137
50
70
137
50
70
137
50
0
0
0
0
0
0
0
0
0
0
0
0
0
0
0
0
0
0
0
0
0
0
0
0
0
0
0
0
0
0
0
0
0
0
0
0
0
0
0
0
0
0
0
0
0
0
0
0
0
0
0
0
0
0
0
0
0
0
0
0
0
0
0
0
0
0
0
0
0
0
0
0
0
0
0
0
0
0
0
0
0
0
0
0
0
0
0
0
0
0
0
0
0
0
0
0
0
0
0
0
0
0
0
0
0
0
0
0
0
0
0
0
0
0
0
0
0
0
0
0
0
0
0
0
0
0
0
0
0
0
0
0
0
0
0
0
0
0
0
0
0
0
0
0
0
0
0
0
0
0
0
0
0
0
0
0
0
0
0
0
0
0
0
0
0
0
0
0
0
0
0
0
0
0
0
0
0
0
0
0
16
29
12
16
29
12
16
29
12
64
126
46
64
126
46
64
126
46
64
125
46
64
125
46
64
125
46
69
135
49
69
135
49
69
135
49
0
0
0
0
0
0
0
0
0
0
0
0
0
0
0
0
0
0
0
0
0
0
0
0
0
0
0
0
0
0
0
0
0
0
0
0
0
0
0
0
0
0
0
0
0
0
0
0
0
0
0
0
0
0
0
0
0
0
0
0
0
0
0
0
0
0
0
0
0
0
0
0
0
0
0
0
0
0
0
0
0
0
0
0
0
0
0
0
0
0
0
0
0
0
0
0
0
0
0
0
0
0
0
0
0
0
0
0
0
0
0
0
0
0
0
0
0
0
0
0
0
0
0
0
0
0
0
0
0
0
0
0
0
0
0
0
0
0
0
0
0
0
0
0
0
0
0
0
0
0
0
0
0
0
0
0
0
0
0
0
0
0
0
0
0
0
0
0
0
0
0
0
0
0
0
0
0
0
0
0
49
94
37
49
94
37
49
94
37
63
124
45
63
124
45
63
124
45
64
125
46
64
125
46
64
125
46
67
130
48
67
130
48
67
130
48
0
0
0
0
0
0
0
0
0
0
0
0
0
0
0
0
0
0
0
0
0
0
0
0
0
0
0
0
0
0
0
0
0
0
0
0
0
0
0
0
0
0
0
0
0
0
0
0
0
0
0
0
0
0
0
0
0
0
0
0
0
0
0
0
0
0
0
0
0
0
0
0
0
0
0
0
0
0
0
0
0
0
0
0
0
0
0
0
0
0
0
0
0
0
0
0
0
0
0
0
0
0
0
0
0
0
0
0
0
0
0
0
0
0
0
0
0
0
0
0
0
0
0
0
0
0
0
0
0
0
0
0
0
0
0
0
0
0
0
0
0
0
0
0
0
0
0
0
0
0
0
0
0
0
0
0
0
0
0
0
0
0
0
0
0
0
0
0
0
0
0
0
0
0
0
0
0
0
0
0
70
135
50
70
135
50
70
135
50
64
125
46
64
125
46
64
125
46
64
125
46
64
125
46
64
125
46
58
111
42
58
111
42
58
111
42
0
0
0
0
0
0
0
0
0
0
0
0
0
0
0
0
0
0
0
0
0
0
0
0
0
0
0
0
0
0
0
0
0
0
0
0
0
0
0
0
0
0
0
0
0
0
0
0
0
0
0
0
0
0
0
0
0
0
0
0
0
0
0
0
0
0
0
0
0
0
0
0
0
0
0
0
0
0
0
0
0
0
0
0
0
0
0
0
0
0
0
0
0
0
0
0
0
0
0
0
0
0
0
0
0
0
0
0
0
0
0
0
0
0
0
0
0
0
0
0
0
0
0
0
0
0
0
0
0
0
0
0
0
0
0
0
0
0
0
0
0
0
0
0
0
0
0
0
0
0
0
0
0
0
0
0
0
0
0
0
0
0
0
0
0
0
0
0
0
0
0
0
0
0
0
0
0
0
0
0
72
140
51
72
140
51
72
140
51
64
125
46
64
125
46
64
125
46
64
124
46
64
124
46
64
124
46
37
70
27
37
70
27
37
70
27
0
0
0
0
0
0
0
0
0
0
0
0
0
0
0
0
0
0
0
0
0
0
0
0
0
0
0
0
0
0
0
0
0
0
0
0
0
0
0
0
0
0
0
0
0
0
0
0
0
0
0
0
0
0
0
0
0
0
0
0
0
0
0
0
0
0
0
0
0
0
0
0
0
0
0
0
0
0
0
0
0
0
0
0
0
0
0
0
0
0
0
0
0
0
0
0
0
0
0
0
0
0
0
0
0
0
0
0
0
0
0
0
0
0
0
0
0
0
0
0
0
0
0
0
0
0
0
0
0
0
0
0
0
0
0
0
0
0
0
0
0
0
0
0
0
0
0
0
0
0
0
0
0
0
0
0
0
0
0
0
0
0
0
0
0
0
0
0
0
0
0
1
2
1
1
2
1
1
2
1
67
131
47
67
131
47
67
131
47
64
125
46
64
125
46
64
125
46
63
123
45
63
123
45
63
123
45
17
31
13
17
31
13
17
31
13
0
0
0
0
0
0
0
0
0
0
0
0
0
0
0
0
0
0
0
0
0
0
0
0
0
0
0
0
0
0
0
0
0
0
0
0
0
0
0
0
0
0
0
0
0
0
0
0
0
0
0
0
0
0
0
0
0
0
0
0
0
0
0
0
0
0
0
0
0
0
0
0
0
0
0
0
0
0
0
0
0
0
0
0
0
0
0
0
0
0
0
0
0
0
0
0
0
0
0
0
0
0
0
0
0
0
0
0
0
0
0
0
0
0
0
0
0
0
0
0
0
0
0
0
0
0
0
0
0
0
0
0
0
0
0
0
0
0
0
0
0
0
0
0
0
0
0
0
0
0
0
0
0
0
0
0
0
0
0
0
0
0
0
0
0
0
0
0
0
0
0
15
27
11
15
27
11
15
27
11
63
123
45
63
123
45
63
123
45
64
125
46
64
125
46
64
125
46
70
136
49
70
136
49
70
136
49
0
0
0
0
0
0
0
0
0
0
0
0
0
0
0
0
0
0
0
0
0
0
0
0
0
0
0
0
0
0
0
0
0
0
0
0
0
0
0
0
0
0
0
0
0
0
0
0
0
0
0
0
0
0
0
0
0
0
0
0
0
0
0
0
0
0
0
0
0
0
0
0
0
0
0
0
0
0
0
0
0
0
0
0
0
0
0
0
0
0
0
0
0
0
0
0
0
0
0
0
0
0
0
0
0
0
0
0
0
0
0
0
0
0
0
0
0
0
0
0
0
0
0
0
0
0
0
0
0
0
0
0
0
0
0
0
0
0
0
0
0
0
0
0
0
0
0
0
0
0
0
0
0
0
0
0
0
0
0
0
0
0
0
0
0
0
0
0
0
0
0
0
0
0
0
0
0
0
0
0
26
48
19
26
48
19
26
48
19
64
124
45
64
124
45
64
124
45
64
125
46
64
125
46
64
125
46
74
143
53
74
143
53
74
143
53
0
0
0
0
0
0
0
0
0
0
0
0
0
0
0
0
0
0
0
0
0
0
0
0
0
0
0
0
0
0
0
0
0
0
0
0
0
0
0
0
0
0
0
0
0
0
0
0
0
0
0
0
0
0
0
0
0
0
0
0
0
0
0
0
0
0
0
0
0
0
0
0
0
0
0
0
0
0
0
0
0
0
0
0
0
0
0
0
0
0
0
0
0
0
0
0
0
0
0
0
0
0
0
0
0
0
0
0
0
0
0
0
0
0
0
0
0
0
0
0
0
0
0
0
0
0
0
0
0
0
0
0
0
0
0
0
0
0
0
0
0
0
0
0
0
0
0
0
0
0
0
0
0
0
0
0
0
0
0
0
0
0
0
0
0
0
0
0
0
0
0
0
0
0
0
0
0
0
0
0
32
60
23
32
60
23
32
60
23
64
125
46
64
125
46
64
125
46
63
122
45
63
122
45
63
122
45
45
85
33
45
85
33
45
85
33
0
0
0
0
0
0
0
0
0
0
0
0
0
0
0
0
0
0
0
0
0
0
0
0
0
0
0
0
0
0
0
0
0
0
0
0
0
0
0
0
0
0
0
0
0
0
0
0
0
0
0
0
0
0
0
0
0
0
0
0
0
0
0
0
0
0
0
0
0
0
0
0
0
0
0
0
0
0
0
0
0
0
0
0
0
0
0
0
0
0
0
0
0
0
0
0
0
0
0
0
0
0
0
0
0
0
0
0
0
0
0
0
0
0
0
0
0
0
0
0
0
0
0
0
0
0
0
0
0
0
0
0
0
0
0
0
0
0
0
0
0
0
0
0
0
0
0
0
0
0
0
0
0
0
0
0
0
0
0
0
0
0
0
0
0
0
0
0
0
0
0
0
0
0
0
0
0
0
0
0
39
72
29
39
72
29
39
72
29
64
124
45
64
124
45
64
124
45
74
145
52
74
145
52
74
145
52
6
10
5
6
10
5
6
10
5
0
0
0
0
0
0
0
0
0
0
0
0
0
0
0
0
0
0
0
0
0
0
0
0
0
0
0
0
0
0
0
0
0
0
0
0
0
0
0
0
0
0
0
0
0
0
0
0
0
0
0
0
0
0
0
0
0
0
0
0
0
0
0
0
0
0
0
0
0
0
0
0
0
0
0
0
0
0
0
0
0
0
0
0
0
0
0
0
0
0
0
0
0
0
0
0
0
0
0
0
0
0
0
0
0
0
0
0
0
0
0
0
0
0
0
0
0
0
0
0
0
0
0
0
0
0
0
0
0
0
0
0
0
0
0
0
0
0
0
0
0
0
0
0
0
0
0
0
0
0
0
0
0
0
0
0
0
0
0
0
0
0
0
0
0
0
0
0
0
0
0
0
0
0
0
0
0
0
0
0
43
81
32
43
81
32
43
81
32
69
136
49
69
136
49
69
136
49
59
111
43
59
111
43
59
111
43
0
0
0
0
0
0
0
0
0
0
0
0
0
0
0
0
0
0
0
0
0
0
0
0
0
0
0
0
0
0
0
0
0
0
0
0
0
0
0
0
0
0
0
0
0
0
0
0
0
0
0
0
0
0
0
0
0
0
0
0
0
0
0
0
0
0
0
0
0
0
0
0
0
0
0
0
0
0
0
0
0
0
0
0
0
0
0
0
0
0
0
0
0
0
0
0
0
0
0
0
0
0
0
0
0
0
0
0
0
0
0
0
0
0
0
0
0
0
0
0
0
0
0
0
0
0
0
0
0
0
0
0
0
0
0
0
0
0
0
0
0
0
0
0
0
0
0
0
0
0
0
0
0
28
51
21
28
51
21
28
51
21
35
65
26
35
65
26
35
65
26
4
7
4
4
7
4
4
7
4
0
0
0
0
0
0
0
0
0
43
80
32
43
80
32
43
80
32
68
129
50
68
129
50
68
129
50
6
9
5
6
9
5
6
9
5
0
0
0
0
0
0
0
0
0
27
48
20
27
48
20
27
48
20
37
68
27
37
68
27
37
68
27
7
13
6
7
13
6
7
13
6
0
0
0
0
0
0
0
0
0
0
0
0
0
0
0
0
0
0
0
0
0
0
0
0
0
0
0
0
0
0
0
0
0
0
0
0
0
0
0
0
0
0
0
0
0
0
0
0
0
0
0
0
0
0
0
0
0
0
0
0
0
0
0
0
0
0
0
0
0
0
0
0
0
0
0
0
0
0
0
0
0
0
0
0
0
0
0
0
0
0
0
0
0
0
0
0
0
0
0
0
0
0
0
0
0
0
0
0
41
76
30
41
76
30
41
76
30
76
148
55
76
148
55
76
148
55
77
150
55
77
150
55
77
150
55
64
122
46
64
122
46
64
122
46
7
12
5
7
12
5
7
12
5
11
20
9
11
20
9
11
20
9
6
10
4
6
10
4
6
10
4
0
0
0
0
0
0
0
0
0
45
84
33
45
84
33
45
84
33
76
147
54
76
147
54
76
147
54
78
150
55
78
150
55
78
150
55
69
130
50
69
130
50
69
130
50
6
10
5
6
10
5
6
10
5
0
0
0
0
0
0
0
0
0
0
0
0
0
0
0
0
0
0
0
0
0
0
0
0
0
0
0
0
0
0
0
0
0
0
0
0
0
0
0
0
0
0
0
0
0
0
0
0
0
0
0
0
0
0
0
0
0
0
0
0
0
0
0
0
0
0
0
0
0
0
0
0
0
0
0
0
0
0
0
0
0
0
0
0
0
0
0
0
0
0
13
23
10
13
23
10
13
23
10
78
151
55
78
151
55
78
151
55
64
124
45
64
124
45
64
124
45
63
123
45
63
123
45
63
123
45
71
139
50
71
139
50
71
139
50
64
121
46
64
121
46
64
121
46
6
11
5
6
11
5
6
11
5
0
0
0
0
0
0
0
0
0
40
73
29
40
73
29
40
73
29
77
150
55
77
150
55
77
150
55
64
125
45
64
125
45
64
125
45
63
123
45
63
123
45
63
123
45
69
136
49
69
136
49
69
136
49
60
113
44
60
113
44
60
113
44
0
0
0
0
0
0
0
0
0
0
0
0
0
0
0
0
0
0
0
0
0
0
0
0
0
0
0
0
0
0
0
0
0
0
0
0
0
0
0
0
0
0
0
0
0
0
0
0
0
0
0
0
0
0
0
0
0
0
0
0
0
0
0
0
0
0
0
0
0
0
0
0
0
0
0
0
0
0
0
0
0
0
0
0
0
0
0
0
0
0
67
128
49
67
128
49
67
128
49
63
123
45
63
123
45
63
123
45
64
125
46
64
125
46
64
125
46
64
125
46
64
125
46
64
125
46
64
124
45
64
124
45
64
124
45
70
137
49
70
137
49
70
137
49
67
128
49
67
128
49
67
128
49
55
103
39
55
103
39
55
103
39
77
148
54
77
148
54
77
148
54
63
123
45
63
123
45
63
123
45
64
125
46
64
125
46
64
125
46
64
125
46
64
125
46
64
125
46
64
124
45
64
124
45
64
124
45
73
144
52
73
144
52
73
144
52
12
21
9
12
21
9
12
21
9
0
0
0
0
0
0
0
0
0
0
0
0
0
0
0
0
0
0
0
0
0
0
0
0
0
0
0
0
0
0
0
0
0
0
0
0
0
0
0
0
0
0
0
0
0
0
0
0
0
0
0
0
0
0
0
0
0
0
0
0
0
0
0
0
0
0
0
0
0
0
0
0
5
9
4
5
9
4
5
9
4
72
141
51
72
141
51
72
141
51
64
125
46
64
125
46
64
125
46
64
125
46
64
125
46
64
125
46
64
125
46
64
125
46
64
125
46
64
125
46
64
125
46
64
125
46
64
124
45
64
124
45
64
124
45
69
134
48
69
134
48
69
134
48
74
145
52
74
145
52
74
145
52
63
123
45
63
123
45
63
123
45
64
125
46
64
125
46
64
125
46
64
125
46
64
125
46
64
125
46
64
125
46
64
125
46
64
125
46
64
125
46
64
125
46
64
125
46
63
122
45
63
122
45
63
122
45
61
114
45
61
114
45
61
114
45
0
0
0
0
0
0
0
0
0
0
0
0
0
0
0
0
0
0
0
0
0
0
0
0
0
0
0
0
0
0
0
0
0
0
0
0
0
0
0
0
0
0
0
0
0
0
0
0
0
0
0
0
0
0
0
0
0
0
0
0
0
0
0
0
0
0
0
0
0
0
0
0
43
80
32
43
80
32
43
80
32
63
122
45
63
122
45
63
122
45
64
125
46
64
125
46
64
125
46
64
125
46
64
125
46
64
125
46
64
125
46
64
125
46
64
125
46
64
125
46
64
125
46
64
125
46
64
125
46
64
125
46
64
125
46
64
124
46
64
124
46
64
124
46
64
123
45
64
123
45
64
123
45
64
125
46
64
125
46
64
125
46
64
125
46
64
125
46
64
125
46
64
125
46
64
125
46
64
125
46
64
125
46
64
125
46
64
125
46
64
125
46
64
125
46
64
125
46
64
125
46
64
125
46
64
125
46
75
146
53
75
146
53
75
146
53
0
0
0
0
0
0
0
0
0
0
0
0
0
0
0
0
0
0
0
0
0
0
0
0
0
0
0
0
0
0
0
0
0
0
0
0
0
0
0
0
0
0
0
0
0
0
0
0
0
0
0
0
0
0
0
0
0
0
0
0
0
0
0
0
0
0
0
0
0
0
0
0
75
141
52
75
141
52
75
141
52
66
125
46
66
125
46
66
125
46
66
125
46
66
125
46
66
125
46
66
125
46
66
125
46
66
125
46
66
125
46
66
125
46
66
125
46
66
125
46
66
125
46
66
125
46
66
125
46
66
125
46
66
125
46
66
125
46
66
125
46
66
125
46
66
125
46
66
125
46
66
125
46
66
125
46
66
125
46
66
125
46
66
125
46
66
125
46
66
125
46
66
125
46
66
125
46
66
125
46
66
125
45
66
125
45
66
125
45
66
125
45
66
125
45
66
125
45
66
125
45
66
125
45
66
125
45
64
123
44
64
123
44
64
123
44
25
46
19
25
46
19
25
46
19
0
0
0
0
0
0
0
0
0
0
0
0
0
0
0
0
0
0
0
0
0
0
0
0
0
0
0
0
0
0
0
0
0
0
0
0
0
0
0
0
0
0
0
0
0
0
0
0
0
0
0
0
0
0
0
0
1
0
0
1
0
0
1
51
137
53
51
137
53
51
137
53
46
125
50
46
125
50
46
125
50
46
126
50
46
126
50
46
126
50
46
126
50
46
126
50
46
126
50
46
126
50
46
126
50
46
126
50
46
126
50
46
126
50
46
126
50
46
126
50
46
126
50
46
126
50
46
126
50
46
126
50
46
126
50
46
126
50
46
126
50
46
126
50
46
126
50
46
126
50
46
126
50
46
126
50
46
126
50
46
126
50
46
126
50
46
126
50
46
126
50
46
126
50
46
126
50
46
126
50
46
126
50
46
126
50
46
126
50
46
126
50
46
126
50
46
126
50
53
129
50
53
129
50
53
129
50
28
50
21
28
50
21
28
50
21
0
0
0
0
0
0
0
0
0
0
0
0
0
0
0
0
0
0
0
0
0
0
0
0
0
0
0
0
0
0
0
0
0
0
0
0
0
0
0
0
0
0
0
0
0
0
0
0
0
0
0
0
0
0
26
34
12
26
34
12
26
34
12
87
122
40
87
122
40
87
122
40
88
124
41
88
124
41
88
124
41
88
124
41
88
124
41
88
124
41
88
124
40
88
124
40
88
124
40
88
124
40
88
124
40
88
124
40
88
124
40
88
124
40
88
124
40
88
124
40
88
124
40
88
124
40
88
124
40
88
124
40
88
124
40
88
124
40
88
124
40
88
124
40
88
124
40
88
124
40
88
124
40
88
124
40
88
124
40
88
124
40
88
124
40
88
124
40
88
124
40
88
124
41
88
124
41
88
124
41
88
124
41
88
124
41
88
124
41
88
124
41
88
124
41
88
124
41
98
142
47
98
142
47
98
142
47
0
0
0
0
0
0
0
0
0
0
0
0
0
0
0
0
0
0
0
0
0
0
0
0
0
0
0
0
0
0
0
0
0
0
0
0
0
0
0
0
0
0
0
0
0
0
0
0
0
0
0
0
0
0
0
0
0
0
0
0
0
0
0
95
80
19
95
80
19
95
80
19
170
122
22
170
122
22
170
122
22
170
122
22
170
122
22
170
122
22
170
122
22
170
122
22
170
122
22
170
122
22
170
122
22
170
122
22
170
122
22
170
122
22
170
122
22
170
122
22
170
122
22
170
122
22
170
122
22
170
122
22
170
122
22
170
122
22
170
122
22
170
122
22
170
122
22
170
122
22
170
122
22
170
122
22
170
122
22
170
122
22
170
122
22
170
122
22
170
122
22
170
122
22
170
122
22
170
122
22
170
122
22
170
122
22
170
122
22
170
122
22
170
122
22
170
122
22
170
120
22
170
120
22
170
120
22
94
71
15
94
71
15
94
71
15
0
0
0
0
0
0
0
0
0
0
0
0
0
0
0
0
0
0
0
0
0
0
0
0
0
0
0
0
0
0
0
0
0
0
0
0
0
0
0
0
0
0
0
0
0
0
0
0
0
0
0
0
0
0
0
0
0
0
0
0
0
0
0
138
120
27
138
120
27
138
120
27
170
122
25
170
122
25
170
122
25
170
122
25
170
122
25
170
122
25
170
122
26
170
122
26
170
122
26
170
122
26
170
122
26
170
122
26
170
122
26
170
122
26
170
122
26
170
122
26
170
122
26
170
122
26
170
122
26
170
122
26
170
122
26
170
122
26
170
122
26
170
122
26
170
122
26
170
122
26
170
122
26
170
122
26
170
122
26
170
122
26
170
122
26
170
122
26
170
122
26
170
122
26
170
122
26
170
122
26
170
122
26
170
122
26
170
122
26
170
122
26
170
122
26
170
122
26
170
129
27
170
129
27
170
129
27
7
6
2
7
6
2
7
6
2
0
0
0
0
0
0
0
0
0
0
0
0
0
0
0
0
0
0
0
0
0
0
0
0
0
0
0
0
0
0
0
0
0
0
0
0
0
0
0
0
0
0
0
0
0
0
0
0
0
0
0
0
0
0
0
0
0
0
0
0
0
0
0
169
133
28
169
133
28
169
133
28
168
122
26
168
122
26
168
122
26
168
122
26
168
122
26
168
122
26
168
122
26
168
122
26
168
122
26
168
122
26
168
122
26
168
122
26
168
122
26
168
122
26
168
122
26
168
122
26
168
122
26
168
122
26
168
122
26
168
122
26
168
122
26
168
122
26
168
122
26
168
122
26
168
122
26
168
122
26
168
122
26
168
122
26
168
122
26
168
122
26
168
122
26
168
122
26
168
122
26
168
122
26
168
122
26
168
122
26
168
122
26
168
122
26
168
122
26
168
122
26
168
122
26
168
122
26
170
136
29
170
136
29
170
136
29
0
0
0
0
0
0
0
0
0
0
0
0
0
0
0
0
0
0
0
0
0
0
0
0
0
0
0
0
0
0
0
0
0
0
0
0
0
0
0
0
0
0
0
0
0
0
0
0
0
0
0
0
0
0
0
0
0
0
0
0
0
0
0
0
0
0
0
0
0
0
0
0
169
135
28
169
135
28
169
135
28
168
122
26
168
122
26
168
122
26
168
122
26
168
122
26
168
122
26
168
122
26
168
122
26
168
122
26
168
122
26
168
122
26
168
122
26
168
122
26
168
122
26
168
122
26
168
122
26
168
122
26
168
122
26
168
122
26
168
122
26
168
122
26
168
122
26
168
122
26
168
122
26
168
122
26
168
122
26
168
122
26
168
122
26
168
122
26
168
122
26
168
122
26
168
122
26
168
122
26
168
122
26
168
122
26
168
122
26
168
122
26
168
122
26
168
122
26
168
122
26
168
122
26
168
122
26
131
114
26
131
114
26
131
114
26
0
0
0
0
0
0
0
0
0
0
0
0
0
0
0
0
0
0
0
0
0
0
0
0
0
0
0
0
0
0
0
0
0
0
0
0
0
0
0
0
0
0
0
0
0
0
0
0
0
0
0
0
0
0
0
0
0
0
0
0
0
0
0
0
0
0
0
0
0
0
0
0
169
132
27
169
132
27
169
132
27
168
122
26
168
122
26
168
122
26
168
122
26
168
122
26
168
122
26
168
122
26
168
122
26
168
122
26
168
122
26
168
122
26
168
122
26
168
122
26
168
122
26
168
122
26
168
122
26
168
122
26
168
122
26
168
122
26
168
122
26
168
122
26
168
122
26
168
122
26
168
122
26
168
122
26
168
122
26
168
122
26
168
122
26
168
122
26
168
122
26
168
122
26
168
122
26
168
122
26
168
122
26
168
122
26
168
122
26
168
122
26
168
122
26
168
122
26
167
122
26
167
122
26
167
122
26
84
69
17
84
69
17
84
69
17
0
0
0
0
0
0
0
0
0
0
0
0
0
0
0
0
0
0
0
0
0
0
0
0
0
0
0
0
0
0
0
0
0
0
0
0
0
0
0
0
0
0
0
0
0
0
0
0
0
0
0
0
0
0
0
0
0
0
0
0
0
0
0
2
1
1
2
1
1
2
1
1
169
127
26
169
127
26
169
127
26
168
122
26
168
122
26
168
122
26
168
122
26
168
122
26
168
122
26
168
122
26
168
122
26
168
122
26
168
122
26
168
122
26
168
122
26
168
122
26
168
122
26
168
122
26
168
122
26
168
122
26
168
122
26
168
122
26
168
122
26
168
122
26
168
122
26
168
122
26
168
122
26
168
122
26
168
122
26
168
122
26
168
122
26
168
122
26
168
122
26
168
122
26
168
122
26
168
122
26
168
122
26
168
122
26
168
122
26
168
122
26
168
122
26
168
122
26
168
121
25
168
121
25
168
121
25
49
40
10
49
40
10
49
40
10
0
0
0
0
0
0
0
0
0
0
0
0
0
0
0
0
0
0
0
0
0
0
0
0
0
0
0
0
0
0
0
0
0
0
0
0
0
0
0
0
0
0
0
0
0
0
0
0
0
0
0
0
0
0
0
0
0
0
0
0
0
0
0
17
16
4
17
16
4
17
16
4
169
128
26
169
128
26
169
128
26
168
127
26
168
127
26
168
127
26
168
127
26
168
127
26
168
127
26
168
127
26
168
127
26
168
127
26
168
127
26
168
127
26
168
127
26
168
127
26
168
127
26
168
127
26
168
127
26
168
127
26
168
127
26
168
127
26
168
127
26
168
127
26
168
127
26
168
127
26
168
127
26
168
127
26
168
127
26
168
127
26
168
127
26
168
127
26
168
127
26
168
127
26
168
127
26
168
127
26
168
127
26
168
127
26
168
127
26
168
127
26
168
127
26
168
127
26
169
128
27
169
128
27
169
128
27
22
18
5
22
18
5
22
18
5
0
0
0
0
0
0
0
0
0
0
0
0
0
0
0
0
0
0
0
0
0
0
0
0
0
0
0
0
0
0
0
0
0
0
0
0
0
0
0
0
0
0
0
0
0
0
0
0
0
0
0
0
0
0
0
0
0
0
0
0
0
0
0
27
23
5
27
23
5
27
23
5
168
118
25
168
118
25
168
118
25
167
118
25
167
118
25
167
118
25
167
118
25
167
118
25
167
118
25
167
118
25
167
118
25
167
118
25
167
118
25
167
118
25
167
118
25
167
118
25
167
118
25
167
118
25
167
118
25
167
118
25
167
118
25
167
118
25
167
118
25
167
118
25
167
118
25
167
118
25
167
118
25
167
118
25
167
118
25
167
118
25
167
118
25
167
118
25
167
118
25
167
118
25
167
118
25
167
118
25
167
118
25
167
118
25
167
118
25
167
118
25
167
118
25
167
118
25
168
123
25
168
123
25
168
123
25
4
3
2
4
3
2
4
3
2
0
0
0
0
0
0
0
0
0
0
0
0
0
0
0
0
0
0
0
0
0
0
0
0
0
0
0
0
0
0
0
0
0
0
0
0
0
0
0
0
0
0
0
0
0
0
0
0
0
0
0
0
0
0
0
0
0
0
0
0
0
0
0
36
20
6
36
20
6
36
20
6
164
82
20
164
82
20
164
82
20
163
82
20
163
82
20
163
82
20
163
82
20
163
82
20
163
82
20
163
82
20
163
82
20
163
82
20
163
82
20
163
82
20
163
82
20
163
82
20
163
82
20
163
82
20
163
82
20
163
82
20
163
82
20
163
82
20
163
82
20
163
82
20
163
82
20
163
82
20
163
82
20
163
82
20
163
82
20
163
82
20
163
82
20
163
82
20
163
82
20
163
82
20
163
82
20
163
82
20
163
82
20
163
82
20
163
82
20
163
82
20
163
82
20
163
82
20
166
88
21
166
88
21
166
88
21
0
0
0
0
0
0
0
0
0
0
0
0
0
0
0
0
0
0
0
0
0
0
0
0
0
0
0
0
0
0
0
0
0
0
0
0
0
0
0
0
0
0
0
0
0
0
0
0
0
0
0
0
0
0
0
0
0
0
0
0
0
0
0
0
0
0
0
0
0
0
0
0
43
25
8
43
25
8
43
25
8
164
84
20
164
84
20
164
84
20
164
85
20
164
85
20
164
85
20
164
85
20
164
85
20
164
85
20
164
85
20
164
85
20
164
85
20
164
85
20
164
85
20
164
85
20
164
85
20
164
85
20
164
85
20
164
85
20
164
85
20
164
85
20
164
85
20
164
85
20
164
85
20
164
85
20
164
85
20
164
85
20
164
85
20
164
85
20
164
85
20
164
85
20
164
85
20
164
85
20
164
85
20
164
85
20
164
85
20
164
85
20
164
85
20
164
85
20
164
85
20
164
85
20
164
85
20
166
91
21
166
91
21
166
91
21
0
0
0
0
0
0
0
0
0
0
0
0
0
0
0
0
0
0
0
0
0
0
0
0
0
0
0
0
0
0
0
0
0
0
0
0
0
0
0
0
0
0
0
0
0
0
0
0
0
0
0
0
0
0
0
0
0
0
0
0
0
0
0
0
0
0
0
0
0
0
0
0
45
26
7
45
26
7
45
26
7
164
86
20
164
86
20
164
86
20
164
86
20
164
86
20
164
86
20
164
86
20
164
86
20
164
86
20
164
86
20
164
86
20
164
86
20
164
86
20
164
86
20
164
86
20
164
86
20
164
86
20
164
86
20
164
86
20
164
86
20
164
86
20
164
86
20
164
86
20
164
86
20
164
86
20
164
86
20
164
86
20
164
86
20
164
86
20
164
86
20
164
86
20
164
86
20
164
86
20
164
86
20
164
86
20
164
86
20
164
86
20
164
86
20
164
86
20
164
86
20
164
86
20
164
86
20
166
92
21
166
92
21
166
92
21
0
0
0
0
0
0
0
0
0
0
0
0
0
0
0
0
0
0
0
0
0
0
0
0
0
0
0
0
0
0
0
0
0
0
0
0
0
0
0
0
0
0
0
0
0
0
0
0
0
0
0
0
0
0
0
0
0
0
0
0
0
0
0
0
0
0
0
0
0
0
0
0
45
26
6
45
26
6
45
26
6
164
86
20
164
86
20
164
86
20
164
86
20
164
86
20
164
86
20
164
86
20
164
86
20
164
86
20
164
86
20
164
86
20
164
86
20
164
86
20
164
86
20
164
86
20
164
86
20
164
86
20
164
86
20
164
86
20
164
86
20
164
86
20
164
86
20
164
86
20
164
86
20
164
86
20
164
86
20
164
86
20
164
86
20
164
86
20
164
86
20
164
86
20
164
86
20
164
86
20
164
86
20
164
86
20
164
86
20
164
86
20
164
86
20
164
86
20
164
86
20
164
86
20
164
86
20
167
92
21
167
92
21
167
92
21
0
0
0
0
0
0
0
0
0
0
0
0
0
0
0
0
0
0
0
0
0
0
0
0
0
0
0
0
0
0
0
0
0
0
0
0
0
0
0
0
0
0
0
0
0
0
0
0
0
0
0
0
0
0
0
0
0
0
0
0
0
0
0
0
0
0
0
0
0
0
0
0
44
25
8
44
25
8
44
25
8
164
86
20
164
86
20
164
86
20
164
86
20
164
86
20
164
86
20
164
86
20
164
86
20
164
86
20
164
86
20
164
86
20
164
86
20
164
86
20
164
86
20
164
86
20
164
86
20
164
86
20
164
86
20
164
86
20
164
86
20
164
86
20
164
86
20
164
86
20
164
86
20
164
86
20
164
86
20
164
86
20
164
86
20
164
86
20
164
86
20
164
86
20
164
86
20
164
86
20
164
86
20
164
86
20
164
86
20
164
86
20
164
86
20
164
86
20
164
86
20
164
86
20
164
86
20
167
91
21
167
91
21
167
91
21
0
0
0
0
0
0
0
0
0
0
0
0
0
0
0
0
0
0
0
0
0
0
0
0
0
0
0
0
0
0
0
0
0
0
0
0
0
0
0
0
0
0
0
0
0
0
0
0
0
0
0
0
0
0
0
0
0
0
0
0
0
0
0
0
0
0
0
0
0
0
0
0
38
22
7
38
22
7
38
22
7
164
86
20
164
86
20
164
86
20
164
86
20
164
86
20
164
86
20
164
86
20
164
86
20
164
86
20
164
86
20
164
86
20
164
86
20
164
86
20
164
86
20
164
86
20
164
86
20
164
86
20
164
86
20
164
86
20
164
86
20
164
86
20
164
86
20
164
86
20
164
86
20
164
86
20
164
86
20
164
86
20
164
86
20
164
86
20
164
86
20
164
86
20
164
86
20
164
86
20
164
86
20
164
86
20
164
86
20
164
86
20
164
86
20
164
86
20
164
86
20
164
86
20
164
86
20
166
88
20
166
88
20
166
88
20
8
5
3
8
5
3
8
5
3
0
0
0
0
0
0
0
0
0
0
0
0
0
0
0
0
0
0
0
0
0
0
0
0
0
0
0
0
0
0
0
0
0
0
0
0
0
0
0
0
0
0
0
0
0
0
0
0
0
0
0
0
0
0
0
0
0
0
0
0
0
0
0
30
18
5
30
18
5
30
18
5
166
90
19
166
90
19
166
90
19
165
90
19
165
90
19
165
90
19
165
90
19
165
90
19
165
90
19
165
90
19
165
90
19
165
90
19
165
90
19
165
90
19
165
90
19
165
90
19
165
90
19
165
90
19
165
90
19
165
90
19
165
90
19
165
90
19
165
90
19
165
90
19
165
90
19
165
90
19
165
90
19
165
90
19
165
90
19
165
90
19
165
90
19
165
90
19
165
90
19
165
90
19
165
90
19
165
90
19
165
90
19
165
90
19
165
90
19
165
90
19
165
90
19
165
90
19
166
89
19
166
89
19
166
89
19
28
18
4
28
18
4
28
18
4
0
0
0
0
0
0
0
0
0
0
0
0
0
0
0
0
0
0
0
0
0
0
0
0
0
0
0
0
0
0
0
0
0
0
0
0
0
0
0
0
0
0
0
0
0
0
0
0
0
0
0
0
0
0
0
0
0
0
0
0
0
0
0
24
14
4
24
14
4
24
14
4
167
90
19
167
90
19
167
90
19
165
89
19
165
89
19
165
89
19
165
89
19
165
89
19
165
89
19
164
89
19
164
89
19
164
89
19
164
89
19
164
89
19
164
89
19
164
89
19
164
89
19
164
89
19
164
89
19
164
89
19
164
89
19
164
89
19
164
89
19
164
89
19
164
89
19
164
89
19
164
89
19
164
89
19
164
89
19
164
89
19
164
89
19
164
89
19
164
89
19
164
89
19
164
89
19
164
89
19
164
89
19
164
89
19
164
89
19
164
89
19
164
89
19
164
89
19
164
88
19
164
88
19
164
88
19
57
35
8
57
35
8
57
35
8
0
0
0
0
0
0
0
0
0
0
0
0
0
0
0
0
0
0
0
0
0
0
0
0
0
0
0
0
0
0
0
0
0
0
0
0
0
0
0
0
0
0
0
0
0
0
0
0
0
0
0
0
0
0
0
0
0
0
0
0
0
0
0
12
4
5
12
4
5
12
4
5
152
40
41
152
40
41
152
40
41
149
40
40
149
40
40
149
40
40
149
40
41
149
40
41
149
40
41
149
40
41
149
40
41
149
40
41
149
40
41
149
40
41
149
40
41
149
40
41
149
40
41
149
40
41
149
40
41
149
40
41
149
40
41
149
40
41
149
40
41
149
40
41
149
40
41
149
40
41
149
40
41
149
40
41
149
40
41
149
40
41
149
40
41
149
40
41
149
40
41
149
40
41
149
40
41
149
40
41
149
40
41
149
40
41
149
40
41
149
40
41
149
40
41
149
40
41
149
40
41
149
40
41
149
40
41
93
29
27
93
29
27
93
29
27
0
0
0
0
0
0
0
0
0
0
0
0
0
0
0
0
0
0
0
0
0
0
0
0
0
0
0
0
0
0
0
0
0
0
0
0
0
0
0
0
0
0
0
0
0
0
0
0
0
0
0
0
0
0
0
0
0
0
0
0
0
0
0
0
0
1
0
0
1
0
0
1
154
35
45
154
35
45
154
35
45
146
34
43
146
34
43
146
34
43
147
34
43
147
34
43
147
34
43
147
34
44
147
34
44
147
34
44
147
34
44
147
34
44
147
34
44
147
34
44
147
34
44
147
34
44
147
34
44
147
34
44
147
34
44
147
34
44
147
34
44
147
34
44
147
34
44
147
34
44
147
34
44
147
34
44
147
34
44
147
34
44
147
34
44
147
34
44
147
34
44
147
34
44
147
34
44
147
34
44
147
34
44
147
34
44
147
34
44
147
34
44
147
34
44
147
34
44
147
34
44
147
34
44
147
34
44
138
36
42
138
36
42
138
36
42
0
0
0
0
0
0
0
0
0
0
0
0
0
0
0
0
0
0
0
0
0
0
0
0
0
0
0
0
0
0
0
0
0
0
0
0
0
0
0
0
0
0
0
0
0
0
0
0
0
0
0
0
0
0
0
0
0
0
0
0
0
0
0
0
0
0
0
0
0
0
0
0
158
41
43
158
41
43
158
41
43
148
39
41
148
39
41
148
39
41
148
39
41
148
39
41
148
39
41
148
39
41
148
39
41
148
39
41
148
39
41
148
39
41
148
39
41
148
39
41
148
39
41
148
39
41
148
39
41
148
39
41
148
39
41
148
39
41
148
39
41
148
39
41
148
39
41
148
39
41
148
39
41
148
39
41
148
39
41
148
39
41
148
39
41
148
39
41
148
39
41
148
39
41
148
39
41
148
39
41
148
39
41
148
39
41
148
39
41
148
39
41
148
39
41
148
39
41
148
39
41
148
39
41
148
39
41
160
43
46
160
43
46
160
43
46
0
0
0
0
0
0
0
0
0
0
0
0
0
0
0
0
0
0
0
0
0
0
0
0
0
0
0
0
0
0
0
0
0
0
0
0
0
0
0
0
0
0
0
0
0
0
0
0
0
0
0
0
0
0
0
0
0
0
0
0
0
0
0
0
0
0
0
0
0
0
0
0
157
42
45
157
42
45
157
42
45
148
38
41
148
38
41
148
38
41
148
38
41
148
38
41
148
38
41
148
38
41
148
38
41
148
38
41
148
38
41
148
38
41
148
38
41
148
38
41
148
38
41
148
38
41
148
38
41
148
38
41
148
38
41
148
38
41
148
38
41
148
38
41
148
38
41
148
38
41
148
38
41
148
38
41
148
38
41
148
38
41
148
38
41
148
38
41
148
38
41
148
38
41
148
38
41
148
38
41
148
38
41
148
38
41
148
38
41
148
38
41
148
38
41
148
38
41
148
38
41
148
38
41
148
38
41
154
40
42
154
40
42
154
40
42
9
3
3
9
3
3
9
3
3
0
0
0
0
0
0
0
0
0
0
0
0
0
0
0
0
0
0
0
0
0
0
0
0
0
0
0
0
0
0
0
0
0
0
0
0
0
0
0
0
0
0
0
0
0
0
0
0
0
0
0
0
0
0
0
0
0
0
0
0
0
0
0
160
42
45
160
42
45
160
42
45
148
38
41
148
38
41
148
38
41
148
38
41
148
38
41
148
38
41
148
38
41
148
38
41
148
38
41
148
38
41
148
38
41
148
38
41
148
38
41
148
38
41
148
38
41
148
38
41
148
38
41
148
38
41
148
38
41
148
38
41
148
38
41
148
38
41
148
38
41
148
38
41
148
38
41
148
38
41
148
38
41
148
38
41
148
38
41
148
38
41
148
38
41
148
38
41
148
38
41
148
38
41
148
38
41
148
38
41
148
38
41
148
38
41
148
38
41
148
38
41
148
38
41
148
38
41
146
38
40
146
38
40
146
38
40
87
26
27
87
26
27
87
26
27
0
0
0
0
0
0
0
0
0
0
0
0
0
0
0
0
0
0
0
0
0
0
0
0
0
0
0
0
0
0
0
0
0
0
0
0
0
0
0
0
0
0
0
0
0
0
0
0
0
0
0
0
0
0
0
0
0
0
0
0
0
0
0
155
41
44
155
41
44
155
41
44
148
38
41
148
38
41
148
38
41
148
38
41
148
38
41
148
38
41
148
38
41
148
38
41
148
38
41
148
38
41
148
38
41
148
38
41
148
38
41
148
38
41
148
38
41
148
38
41
148
38
41
148
38
41
148
38
41
148
38
41
148
38
41
148
38
41
148
38
41
148
38
41
148
38
41
148
38
41
148
38
41
148
38
41
148
38
41
148
38
41
148
38
41
148
38
41
148
38
41
148
38
41
148
38
41
148
38
41
148
38
41
148
38
41
148
38
41
148
38
41
148
38
41
148
38
41
148
38
41
148
38
41
148
38
41
162
44
47
162
44
47
162
44
47
0
0
0
0
0
0
0
0
0
0
0
0
0
0
0
0
0
0
0
0
0
0
0
0
0
0
0
0
0
0
0
0
0
0
0
0
0
0
0
0
0
0
0
0
0
0
0
0
0
0
0
0
0
0
0
0
0
0
0
0
0
0
0
134
38
40
134
38
40
134
38
40
149
38
40
149
38
40
149
38
40
149
38
40
149
38
40
149
38
40
149
38
40
149
38
40
149
38
40
149
38
40
149
38
40
149
38
40
149
38
40
149
38
40
149
38
40
149
38
40
149
38
40
149
38
40
149
38
40
149
38
40
149
38
40
149
38
40
149
38
40
149
38
40
149
38
40
149
38
40
149
38
40
149
38
40
149
38
40
149
38
40
149
38
40
149
38
40
149
38
40
149
38
40
149
38
40
149
38
40
149
38
40
149
38
40
149
38
40
149
38
40
149
38
40
149
38
40
149
38
40
149
38
40
149
38
40
154
39
41
154
39
41
154
39
41
61
19
18
61
19
18
61
19
18
0
0
0
0
0
0
0
0
0
0
0
0
0
0
0
0
0
0
0
0
0
0
0
0
0
0
0
0
0
0
0
0
0
0
0
0
0
0
0
0
0
0
0
0
0
0
0
0
0
0
0
0
0
0
105
30
29
105
30
29
105
30
29
156
38
32
156
38
32
156
38
32
156
38
32
156
38
32
156
38
32
156
38
32
156
38
32
156
38
32
156
38
32
156
38
32
156
38
32
156
38
32
156
38
32
156
38
32
156
38
32
156
38
32
156
38
32
156
38
32
156
38
32
156
38
32
156
38
32
156
38
32
156
38
32
156
38
32
156
38
32
156
38
32
156
38
32
156
38
32
156
38
32
156
38
32
156
38
32
156
38
32
156
38
32
156
38
32
156
38
32
156
38
32
156
38
32
156
38
32
156
38
32
156
38
32
156
38
32
156
38
32
156
38
32
156
38
32
155
38
31
155
38
31
155
38
31
167
45
39
167
45
39
167
45
39
0
0
0
0
0
0
0
0
0
0
0
0
0
0
0
0
0
0
0
0
0
0
0
0
0
0
0
0
0
0
0
0
0
0
0
0
0
0
0
0
0
0
0
0
0
0
0
0
0
0
0
0
0
0
51
20
42
51
20
42
51
20
42
109
40
88
109
40
88
109
40
88
110
40
88
110
40
88
110
40
88
110
40
88
110
40
88
110
40
88
110
40
88
110
40
88
110
40
88
110
40
88
110
40
88
110
40
88
110
40
88
110
40
88
110
40
88
110
40
88
110
40
88
110
40
88
110
40
88
110
40
88
110
40
88
110
40
88
110
40
88
110
40
88
110
40
88
110
40
88
110
40
88
110
40
88
110
40
88
110
40
88
110
40
88
110
40
88
110
40
88
110
40
88
110
40
88
110
40
88
110
40
88
110
40
88
110
40
88
110
40
88
110
40
88
110
40
88
110
40
88
110
40
88
110
40
88
123
45
97
123
45
97
123
45
97
0
0
0
0
0
0
0
0
0
0
0
0
0
0
0
0
0
0
0
0
0
0
0
0
0
0
0
0
0
0
0
0
0
0
0
0
0
0
0
0
0
0
0
0
0
0
0
0
0
0
0
0
0
0
23
12
32
23
12
32
23
12
32
89
40
109
89
40
109
89
40
109
91
41
110
91
41
110
91
41
110
91
41
110
91
41
110
91
41
110
91
41
110
91
41
110
91
41
110
91
41
110
91
41
110
91
41
110
91
41
110
91
41
110
91
41
110
91
41
110
91
41
110
91
41
110
91
41
110
91
41
110
91
41
110
91
41
110
91
41
110
91
41
110
91
41
110
91
41
110
91
41
110
91
41
110
91
41
110
91
41
110
91
41
110
91
41
110
91
41
110
91
41
110
91
41
110
91
41
110
91
41
110
91
41
110
91
41
110
91
41
110
91
41
110
91
41
110
91
41
110
91
41
110
91
41
110
98
44
119
98
44
119
98
44
119
0
0
0
0
0
0
0
0
0
0
0
0
0
0
0
0
0
0
0
0
0
0
0
0
0
0
0
0
0
0
0
0
0
0
0
0
0
0
0
0
0
0
0
0
0
0
0
0
0
0
0
0
0
0
3
2
3
3
2
3
3
2
3
104
41
103
104
41
103
104
41
103
100
40
100
100
40
100
100
40
100
100
40
100
100
40
100
100
40
100
100
40
100
100
40
100
100
40
100
100
40
100
100
40
100
100
40
100
100
40
100
100
40
100
100
40
100
100
40
100
100
40
100
100
40
100
100
40
100
100
40
100
100
40
100
100
40
100
100
40
100
100
40
100
100
40
100
100
40
100
100
40
100
100
40
100
100
40
100
100
40
100
100
40
100
100
40
100
100
40
100
100
40
100
100
40
100
100
40
100
100
40
100
100
40
100
100
40
100
100
40
100
100
40
100
100
40
100
100
40
100
100
40
100
100
40
100
95
39
94
95
39
94
95
39
94
0
0
0
0
0
0
0
0
0
0
0
0
0
0
0
0
0
0
0
0
0
0
0
0
0
0
0
0
0
0
0
0
0
0
0
0
0
0
0
0
0
0
0
0
0
0
0
0
0
0
0
0
0
0
0
0
0
0
0
0
0
0
0
111
45
112
111
45
112
111
45
112
100
40
100
100
40
100
100
40
100
100
40
100
100
40
100
100
40
100
100
40
100
100
40
100
100
40
100
100
40
100
100
40
100
100
40
100
100
40
100
100
40
100
100
40
100
100
40
100
100
40
100
100
40
100
100
40
100
100
40
100
100
40
100
100
40
100
100
40
100
100
40
100
100
40
100
100
40
100
100
40
100
100
40
100
100
40
100
100
40
100
100
40
100
100
40
100
100
40
100
100
40
100
100
40
100
100
40
100
100
40
100
100
40
100
100
40
100
100
40
100
100
40
100
100
40
100
99
40
100
99
40
100
99
40
100
64
27
64
64
27
64
64
27
64
0
0
0
0
0
0
0
0
0
0
0
0
0
0
0
0
0
0
0
0
0
0
0
0
0
0
0
0
0
0
0
0
0
0
0
0
0
0
0
0
0
0
0
0
0
0
0
0
0
0
0
0
0
0
0
0
0
0
0
0
0
0
0
108
44
109
108
44
109
108
44
109
100
40
100
100
40
100
100
40
100
100
40
100
100
40
100
100
40
100
100
40
100
100
40
100
100
40
100
100
40
100
100
40
100
100
40
100
100
40
100
100
40
100
100
40
100
100
40
100
100
40
100
100
40
100
100
40
100
100
40
100
100
40
100
100
40
100
100
40
100
100
40
100
100
40
100
100
40
100
100
40
100
100
40
100
100
40
100
100
40
100
100
40
100
100
40
100
100
40
100
100
40
100
100
40
100
100
40
100
100
40
100
100
40
100
100
40
100
100
40
100
100
40
100
100
40
100
98
40
99
98
40
99
98
40
99
31
14
31
31
14
31
31
14
31
0
0
0
0
0
0
0
0
0
0
0
0
0
0
0
0
0
0
0
0
0
0
0
0
0
0
0
0
0
0
0
0
0
0
0
0
0
0
0
0
0
0
0
0
0
0
0
0
0
0
0
0
0
0
0
0
0
0
0
0
0
0
0
91
38
91
91
38
91
91
38
91
100
40
100
100
40
100
100
40
100
100
40
100
100
40
100
100
40
100
100
40
100
100
40
100
100
40
100
100
40
100
100
40
100
100
40
100
100
40
100
100
40
100
100
40
100
100
40
100
100
40
100
100
40
100
100
40
100
100
40
100
100
40
100
100
40
100
100
40
100
100
40
100
100
40
100
100
40
100
100
40
100
100
40
100
100
40
100
100
40
100
100
40
100
100
40
100
100
40
100
100
40
100
100
40
100
100
40
100
100
40
100
100
40
100
100
40
100
100
40
100
100
40
100
100
40
100
104
42
105
104
42
105
104
42
105
2
1
2
2
1
2
2
1
2
0
0
0
0
0
0
0
0
0
0
0
0
0
0
0
0
0
0
0
0
0
0
0
0
0
0
0
0
0
0
0
0
0
0
0
0
0
0
0
0
0
0
0
0
0
0
0
0
0
0
0
0
0
0
0
0
0
0
0
0
0
0
0
52
23
53
52
23
53
52
23
53
97
41
99
97
41
99
97
41
99
99
41
101
99
41
101
99
41
101
99
41
101
99
41
101
99
41
101
99
41
101
99
41
101
99
41
101
99
41
101
99
41
101
99
41
101
99
41
101
99
41
101
99
41
101
99
41
101
99
41
101
99
41
101
99
41
101
99
41
101
99
41
101
99
41
101
99
41
101
99
41
101
99
41
101
99
41
101
99
41
101
99
41
101
99
41
101
99
41
101
99
41
101
99
41
101
99
41
101
98
41
101
98
41
101
98
41
101
98
41
101
98
41
101
98
41
101
112
46
113
112
46
113
112
46
113
0
0
0
0
0
0
0
0
0
0
0
0
0
0
0
0
0
0
0
0
0
0
0
0
0
0
0
0
0
0
0
0
0
0
0
0
0
0
0
0
0
0
0
0
0
0
0
0
0
0
0
0
0
0
0
0
0
0
0
0
0
0
0
0
0
0
0
0
0
0
0
0
16
8
17
16
8
17
16
8
17
120
25
90
120
25
90
120
25
90
119
26
91
119
26
91
119
26
91
119
26
91
119
26
91
119
26
91
119
26
91
119
26
91
119
26
91
119
27
91
119
27
91
119
27
91
119
26
90
119
26
90
119
26
90
119
26
90
119
26
90
119
26
90
119
26
90
119
26
90
119
26
90
119
26
90
119
26
90
119
26
90
119
26
90
119
26
90
119
26
90
119
26
90
119
26
90
119
26
90
119
26
90
119
26
90
119
26
90
119
27
90
119
27
90
119
27
90
119
27
90
119
27
90
119
27
90
111
37
101
111
37
101
111
37
101
0
0
0
0
0
0
0
0
0
0
0
0
0
0
0
0
0
0
0
0
0
0
0
0
0
0
0
0
0
0
0
0
0
0
0
0
0
0
0
0
0
0
0
0
0
0
0
0
0
0
0
0
0
0
0
0
0
0
0
0
0
0
0
0
0
0
0
0
0
0
0
0
0
0
0
0
0
0
0
0
0
49
88
140
49
88
140
49
88
140
46
79
129
46
79
129
46
79
129
46
79
129
46
79
129
46
79
129
46
79
129
46
79
129
46
79
129
46
79
129
46
79
129
46
79
129
46
80
128
46
80
128
46
80
128
46
80
128
46
80
128
46
80
128
46
80
128
46
80
128
46
80
128
46
80
128
46
80
128
46
80
128
46
80
128
46
80
128
46
80
128
46
80
128
46
80
128
46
80
128
46
80
128
46
80
128
46
80
128
46
80
128
46
80
128
46
80
128
46
78
127
46
78
127
46
78
127
31
47
75
31
47
75
31
47
75
0
0
0
0
0
0
0
0
0
0
0
0
0
0
0
0
0
0
0
0
0
0
0
0
0
0
0
0
0
0
0
0
0
0
0
0
0
0
0
0
0
0
0
0
0
0
0
0
0
0
0
0
0
0
0
0
0
0
0
0
0
0
0
0
0
0
0
0
0
0
0
0
0
0
0
0
0
0
0
0
0
0
131
166
0
131
166
0
131
166
0
119
157
0
119
157
0
119
157
0
118
156
0
118
156
0
118
156
0
118
156
0
118
156
0
118
156
0
118
156
0
118
156
0
118
156
0
118
157
0
118
157
0
118
157
0
118
157
0
118
157
0
118
157
0
118
157
0
118
157
0
118
157
0
118
157
0
118
157
0
118
157
0
118
157
0
118
157
0
118
157
0
118
157
0
118
157
0
118
157
0
118
157
0
118
157
0
118
157
0
118
157
0
118
157
0
118
157
0
118
157
0
118
157
0
118
157
0
29
32
0
29
32
0
29
32
0
0
0
0
0
0
0
0
0
0
0
0
0
0
0
0
0
0
0
0
0
0
0
0
0
0
0
0
0
0
0
0
0
0
0
0
0
0
0
0
0
0
0
0
0
0
0
0
0
0
0
0
0
0
0
0
0
0
0
0
0
0
0
0
0
0
0
0
0
0
0
0
0
0
0
0
0
0
0
0
0
5
79
104
5
79
104
5
79
104
0
103
145
0
103
145
0
103
145
0
104
146
0
104
146
0
104
146
0
104
146
0
104
146
0
104
146
0
104
146
0
104
146
0
104
146
0
103
146
0
103
146
0
103
146
0
103
146
0
103
146
0
103
146
0
103
146
0
103
146
0
103
146
0
103
146
0
103
146
0
103
146
0
103
146
0
103
146
0
103
146
0
103
146
0
103
146
0
103
146
0
103
146
0
103
146
0
103
146
0
104
146
0
104
146
0
104
146
0
115
156
0
115
156
0
115
156
1
0
0
1
0
0
1
0
0
0
0
0
0
0
0
0
0
0
0
0
0
0
0
0
0
0
0
0
0
0
0
0
0
0
0
0
0
0
0
0
0
0
0
0
0
0
0
0
0
0
0
0
0
0
0
0
0
0
0
0
0
0
0
0
0
0
0
0
0
0
0
0
0
0
0
0
0
0
0
0
0
0
0
0
0
0
0
0
0
0
4
28
38
4
28
38
4
28
38
0
104
147
0
104
147
0
104
147
0
104
146
0
104
146
0
104
146
0
104
146
0
104
146
0
104
146
0
104
146
0
104
146
0
104
146
0
104
146
0
104
146
0
104
146
0
104
146
0
104
146
0
104
146
0
104
146
0
104
146
0
104
146
0
104
146
0
104
146
0
104
146
0
104
146
0
104
146
0
104
146
0
104
146
0
104
146
0
104
146
0
104
146
0
104
146
0
104
146
0
105
146
0
105
146
0
105
146
3
113
152
3
113
152
3
113
152
0
0
0
0
0
0
0
0
0
0
0
0
0
0
0
0
0
0
0
0
0
0
0
0
0
0
0
0
0
0
0
0
0
0
0
0
0
0
0
0
0
0
0
0
0
0
0
0
0
0
0
0
0
0
0
0
0
0
0
0
0
0
0
0
0
0
0
0
0
0
0
0
0
0
0
0
0
0
0
0
0
0
0
0
0
0
0
0
0
0
1
0
0
1
0
0
1
0
0
0
119
158
0
119
158
0
119
158
0
104
146
0
104
146
0
104
146
0
104
146
0
104
146
0
104
146
0
104
146
0
104
146
0
104
146
0
104
146
0
104
146
0
104
146
0
103
145
0
103
145
0
103
145
0
106
150
0
106
150
0
106
150
0
103
145
0
103
145
0
103
145
0
104
146
0
104
146
0
104
146
0
104
146
0
104
146
0
104
146
0
104
146
0
104
146
0
104
146
0
102
144
0
102
144
0
102
144
5
63
83
5
63
83
5
63
83
0
0
0
0
0
0
0
0
0
0
0
0
0
0
0
0
0
0
0
0
0
0
0
0
0
0
0
0
0
0
0
0
0
0
0
0
0
0
0
0
0
0
0
0
0
0
0
0
0
0
0
0
0
0
0
0
0
0
0
0
0
0
0
0
0
0
0
0
0
0
0
0
0
0
0
0
0
0
0
0
0
0
0
0
0
0
0
0
0
0
0
0
0
0
0
0
0
0
0
4
108
137
4
108
137
4
108
137
0
103
145
0
103
145
0
103
145
0
104
146
0
104
146
0
104
146
0
104
146
0
104
146
0
104
146
0
105
148
0
105
148
0
105
148
1
124
170
1
124
170
1
124
170
2
119
165
2
119
165
2
119
165
0
121
166
0
121
166
0
121
166
0
103
144
0
103
144
0
103
144
0
104
146
0
104
146
0
104
146
0
105
147
0
105
147
0
105
147
0
113
156
0
113
156
0
113
156
3
8
10
3
8
10
3
8
10
0
0
0
0
0
0
0
0
0
0
0
0
0
0
0
0
0
0
0
0
0
0
0
0
0
0
0
0
0
0
0
0
0
0
0
0
0
0
0
0
0
0
0
0
0
0
0
0
0
0
0
0
0
0
0
0
0
0
0
0
0
0
0
0
0
0
0
0
0
0
0
0
0
0
0
0
0
0
0
0
0
0
0
0
0
0
0
0
0
0
0
0
0
0
0
0
0
0
0
5
36
47
5
36
47
5
36
47
0
110
154
0
110
154
0
110
154
0
104
146
0
104
146
0
104
146
0
102
144
0
102
144
0
102
144
2
121
163
2
121
163
2
121
163
5
50
68
5
50
68
5
50
68
4
31
42
4
31
42
4
31
42
5
80
109
5
80
109
5
80
109
0
118
161
0
118
161
0
118
161
0
103
145
0
103
145
0
103
145
0
102
144
0
102
144
0
102
144
4
119
155
4
119
155
4
119
155
0
0
0
0
0
0
0
0
0
0
0
0
0
0
0
0
0
0
0
0
0
0
0
0
0
0
0
0
0
0
0
0
0
0
0
0
0
0
0
0
0
0
0
0
0
0
0
0
0
0
0
0
0
0
0
0
0
0
0
0
0
0
0
0
0
0
0
0
0
0
0
0
0
0
0
0
0
0
0
0
0
0
0
0
0
0
0
0
0
0
0
0
0
0
0
0
0
0
0
0
0
0
0
0
0
0
0
0
1
0
0
1
0
0
1
0
0
4
120
156
4
120
156
4
120
156
0
114
161
0
114
161
0
114
161
1
126
170
1
126
170
1
126
170
6
41
56
6
41
56
6
41
56
0
0
0
0
0
0
0
0
0
0
0
0
0
0
0
0
0
0
2
0
0
2
0
0
2
0
0
5
101
136
5
101
136
5
101
136
0
117
164
0
117
164
0
117
164
0
123
167
0
123
167
0
123
167
5
36
47
5
36
47
5
36
47
0
0
0
0
0
0
0
0
0
0
0
0
0
0
0
0
0
0
0
0
0
0
0
0
0
0
0
0
0
0
0
0
0
0
0
0
0
0
0
0
0
0
0
0
0
0
0
0
0
0
0
0
0
0
0
0
0
0
0
0
0
0
0
0
0
0
0
0
0
0
0
0
0
0
0
0
0
0
0
0
0
0
0
0
0
0
0
0
0
0
0
0
0
0
0
0
0
0
0
0
0
0
0
0
0
0
0
0
0
0
0
0
0
0
0
0
0
5
26
34
5
26
34
5
26
34
3
99
139
3
99
139
3
99
139
5
64
83
5
64
83
5
64
83
0
0
0
0
0
0
0
0
0
0
0
0
0
0
0
0
0
0
0
0
0
0
0
0
0
0
0
0
0
0
0
0
0
0
0
0
3
10
13
3
10
13
3
10
13
4
94
128
4
94
128
4
94
128
5
80
108
5
80
108
5
80
108
0
0
0
0
0
0
0
0
0
0
0
0
0
0
0
0
0
0
0
0
0
0
0
0
0
0
0
0
0
0
0
0
0
0
0
0
0
0
0
0
0
0
0
0
0
0
0
0
0
0
0
0
0
0
0
0
0
0
0
0
0
0
0
0
0
0
0
0
0
0
0
0
0
0
0
0
0
0
0
0
0
0
0
0
0
0
0
0
0
0
0
0
0
0
0
0
0
0
0
0
0
0
0
0
0
0
0
0
0
0
0
0
0
0
0
0
0
0
0
0
0
0
0
0
0
0
0
0
0
0
0
0
0
0
0
3
1
1
3
1
1
3
1
1
0
0
0
0
0
0
0
0
0
0
0
0
0
0
0
0
0
0
0
0
0
0
0
0
0
0
0
0
0
0
0
0
0
0
0
0
0
0
0
0
0
0
0
0
0
0
0
0
0
0
0
0
0
0
2
0
0
2
0
0
2
0
0
1
0
0
1
0
0
1
0
0
0
0
0
0
0
0
0
0
0
0
0
0
0
0
0
0
0
0
0
0
0
0
0
0
0
0
0
0
0
0
0
0
0
0
0
0
0
0
0
0
0
0
0
0
0
0
0
0
0
0
0
0
0
0
0
0
0
0
0
0
0
0
0
0
0
0
0
0
0
0
0
0
0
0
0
0
0
0
0
0
0
0
0
0
0
0
0
0
0
0
0
0
0
0
0
0
0
0
0
0
0
0
0
0
0
0
0
0
0
0
0
0
0
0
0
0
0
0
0
0
0
0
0
0
0
0
0
0
0
0
0
0
0
0
0
0
0
0
0
0
0
0
0
0
0
0
0
0
0
0
0
0
0
0
0
0
0
0
0
0
0
0
0
0
0
0
0
0
0
0
0
0
0
0
0
0
0
0
0
0
0
0
0
0
0
0
0
0
0
0
0
0
0
0
0
0
0
0
0
0
0
0
0
0
0
0
0
0
0
0
0
0
0
0
0
0
0
0
0
0
0
0
0
0
0
0
0
0
0
0
0
0
0
0
0
0
0
0
0
0
0
0
0
0
0
0
0
0
0
0
0
0
0
0
0
0
0
0
0
0
0
0
0
0
0
0
0
0
0
0
0
0
0
0
0
0
0
0
0
0
0
0
0
0
0
0
0
0
0
0
0
0
0
0
0
0
0
0
0
0
0
0
0
0
0
0
0
0
0
0
0
0
0
0
0
0
0
0
0
0
0
0
0
0
0
0
0
0
0
0
0
0
0
0
0
0
0
0
0
0
0
0
0
0
0
0
0
0
0
0
0
0
0
0
0
0
0
0
0
0
0
0
0
0
0
0
0
0
0
0
0
0
0
0
0
0
0
0
0
0
0
0
0
0
0
0
0
0
0
0
0
0
0
0
0
0
0
0
0
0
0
0
0
0
0
0
0
0
0
0
0
0
0
0
0
0
0
0
0
0
0
0
0
0
0
0
0
0
0
0
0
0
0
0
0
0
0
0
0
0
0
0
0
0
0
0
0
0
0
0
0
0
0
0
0
0
0
0
0
0
0
0
0
0
0
0
0
0
0
0
0
0
0
0
0
0
0
0
0
0
0
0
0
0
0
0
0
0
0
0
0
0
0
0
0
0
0
0
0
0
0
0
0
0
0
0
0
0
0
0
0
0
0
0
0
0
0
0
0
0
0
0
0
0
0
0
0
0
0
0
0
0
0
0
0
0
0
0
0
0
0
0
0
0
0
0
0
0
0
0
0
0
0
0
0
0
0
0
0
0
0
0
0
0
0
0
0
0
0
0
0
0
0
0
0
0
0
0
0
0
0
0
0
0
0
0
0
0
0
0
0
0
0
0
0
0
0
0
0
0
0
0
0
0
0
0
0
0
0
0
0
0
0
0
0
0
0
0
0
0
0
0
0
0
0
0
0
0
0
0
0
0
0
0
0
0
0
0
0
0
0
0
0
0
0
0
0
0
0
0
0
0
0
0
0
0
0
0
0
0
0
0
0
0
0
0
0
0
0
0
0
0
0
0
0
0
0
0
0
0
0
0
0
0
0
0
0
0
0
0
0
0
0
0
0
0
0
0
0
0
0
0
0
0
0
0
0
0
0
0
0
