P3
72 72
255
0
0
0
0
0
0
0
0
0
0
0
0
0
0
0
0
0
0
0
0
0
0
0
0
0
0
0
0
0
0
0
0
0
0
0
0
0
0
0
0
0
0
0
0
0
0
0
0
0
0
0
0
0
0
0
0
0
0
0
0
0
0
0
0
0
0
0
0
0
0
0
0
0
0
0
0
0
0
0
0
0
0
0
0
0
0
0
0
0
0
0
0
0
0
0
0
0
0
0
0
0
0
0
0
0
0
0
0
0
0
0
0
0
0
0
0
0
0
0
0
0
0
0
0
0
0
0
0
0
0
0
0
0
0
0
0
0
0
0
0
0
0
0
0
0
0
0
0
0
0
0
0
0
0
0
0
0
0
0
0
0
0
0
0
0
0
0
0
0
0
0
0
0
0
0
0
0
0
0
0
0
0
0
0
0
0
0
0
0
0
0
0
0
0
0
0
0
0
0
0
0
0
0
0
0
0
0
0
0
0
0
0
0
0
0
0
0
0
0
0
0
0
0
0
0
0
0
0
0
0
0
0
0
0
0
0
0
0
0
0
0
0
0
0
0
0
0
0
0
0
0
0
0
0
0
0
0
0
0
0
0
0
0
0
0
0
0
0
0
0
0
0
0
0
0
0
0
0
0
0
0
0
0
0
0
0
0
0
0
0
0
0
0
0
0
0
0
0
0
0
0
0
0
0
0
0
0
0
0
0
0
0
0
0
0
0
0
0
0
0
0
0
0
0
0
0
0
0
0
0
0
0
0
0
0
0
0
0
0
0
0
0
0
0
0
0
0
0
0
0
0
0
0
0
0
0
0
0
0
0
0
0
0
0
0
0
0
0
0
0
0
0
0
0
0
0
0
0
0
0
0
0
0
0
0
0
0
0
0
0
0
0
0
0
0
0
0
0
0
0
0
0
0
0
0
0
0
0
0
0
0
0
0
0
0
0
0
0
0
0
0
0
0
0
0
0
0
0
0
0
0
0
0
0
0
0
0
0
0
0
0
0
0
0
0
0
0
0
0
0
0
0
0
0
0
0
0
0
0
0
0
0
0
0
0
0
0
0
0
0
0
0
0
0
0
0
0
0
0
0
0
0
0
0
0
0
0
0
0
0
0
0
0
0
0
0
0
0
0
0
0
0
0
0
0
0
0
0
0
0
0
0
0
0
0
0
0
0
0
0
0
0
0
0
0
0
0
0
0
0
0
0
0
0
0
0
0
0
0
0
0
0
0
0
0
0
0
0
0
0
0
0
0
0
0
0
0
0
0
0
0
0
0
0
0
0
0
0
0
0
0
0
0
0
0
0
0
0
0
0
0
0
0
0
0
0
0
0
0
0
0
0
0
0
0
0
0
0
0
0
0
0
0
0
0
0
0
0
0
0
0
0
0
0
0
0
0
0
0
0
0
0
0
0
0
0
0
0
0
0
0
0
0
0
0
0
0
0
0
0
0
0
0
0
0
0
0
0
0
0
0
0
0
0
0
0
0
0
0
0
0
0
0
0
0
0
0
0
0
0
0
0
0
0
0
0
0
0
0
0
0
0
0
0
0
0
0
0
0
0
0
0
0
0
0
0
0
0
0
0
0
0
0
0
0
0
0
0
0
0
0
0
0
0
0
0
0
0
0
0
27
49
22
59
107
43
32
57
25
4
5
5
0
0
0
0
0
0
0
0
0
0
0
0
0
0
0
0
0
0
0
0
0
0
0
0
0
0
0
0
0
0
0
0
0
0
0
0
0
0
0
0
0
0
0
0
0
0
0
0
0
0
0
0
0
0
0
0
0
0
0
0
0
0
0
0
0
0
0
0
0
0
0
0
0
0
0
0
0
0
0
0
0
0
0
0
0
0
0
0
0
0
0
0
0
0
0
0
0
0
0
0
0
0
0
0
0
0
0
0
0
0
0
0
0
0
0
0
0
0
0
0
0
0
0
0
0
0
0
0
0
0
0
0
0
0
0
0
0
0
0
0
0
0
0
0
0
0
0
0
0
0
0
0
0
0
0
0
0
0
0
0
0
0
0
0
0
0
0
0
0
0
0
0
0
0
0
0
0
0
0
0
0
0
0
0
0
0
0
0
0
0
0
0
0
0
0
0
0
0
0
0
0
0
0
0
66
124
49
139
255
99
111
212
80
98
186
71
71
132
53
25
43
20
0
0
0
0
0
0
0
0
0
0
0
0
0
0
0
0
0
0
0
0
0
0
0
0
0
0
0
0
0
0
0
0
0
0
0
0
0
0
0
0
0
0
0
0
0
0
0
0
0
0
0
0
0
0
0
0
0
0
0
0
0
0
0
0
0
0
0
0
0
0
0
0
0
0
0
0
0
0
0
0
0
0
0
0
0
0
0
0
0
0
0
0
0
0
0
0
0
0
0
0
0
0
0
0
0
0
0
0
0
0
0
0
0
0
0
0
0
0
0
0
0
0
0
0
0
0
0
0
0
0
0
0
0
0
0
0
0
0
0
0
0
0
0
0
0
0
0
0
0
0
0
0
0
0
0
0
0
0
0
0
0
0
0
0
0
0
0
0
0
0
0
0
0
0
0
0
0
0
0
0
0
0
0
0
0
0
0
0
0
0
0
0
0
0
0
0
0
0
61
114
45
115
223
81
96
187
68
105
205
74
118
229
84
115
221
84
77
143
59
11
17
10
0
0
0
0
0
0
0
0
0
0
0
0
0
0
0
0
0
0
0
0
0
0
0
0
0
0
0
0
0
0
0
0
0
0
0
0
0
0
0
0
0
0
0
0
0
0
0
0
0
0
0
0
0
0
0
0
0
0
0
0
0
0
0
0
0
0
0
0
0
0
0
0
0
0
0
0
0
0
0
0
0
0
0
0
0
0
0
0
0
0
0
0
0
0
0
0
0
0
0
0
0
0
0
0
0
0
0
0
0
0
0
0
0
0
0
0
0
0
0
0
0
0
0
0
0
0
0
0
0
0
0
0
0
0
0
0
0
0
0
0
0
0
0
0
0
0
0
0
0
0
0
0
0
0
0
0
0
0
0
0
0
0
0
0
0
0
0
0
0
0
0
0
0
0
0
0
0
0
0
0
0
0
0
0
0
0
0
0
0
0
0
0
57
107
43
117
227
84
95
184
68
96
187
69
94
182
67
100
195
70
121
235
86
108
206
79
37
64
28
0
0
0
0
0
0
0
0
0
0
0
0
0
0
0
0
0
0
0
0
0
0
0
0
0
0
0
0
0
0
0
0
0
0
0
0
0
0
0
0
0
0
0
0
0
0
0
0
0
0
0
0
0
0
0
0
0
0
0
0
0
0
0
0
0
0
0
0
0
0
0
0
0
0
0
0
0
0
0
0
0
0
0
0
0
0
0
0
0
0
0
0
0
0
0
0
0
0
0
0
0
0
0
0
0
0
0
0
0
0
0
0
0
0
0
0
0
0
0
0
0
0
0
0
0
0
0
0
0
0
0
0
0
0
0
0
0
0
0
0
0
0
0
0
0
0
0
0
0
0
0
0
0
0
0
0
0
0
0
0
0
0
0
0
0
0
0
0
0
0
0
0
0
0
0
0
0
0
0
0
0
0
0
0
0
0
0
0
0
45
82
34
117
225
84
95
186
68
97
188
69
97
189
69
97
187
69
93
180
65
107
211
75
125
239
90
54
96
41
0
0
0
0
0
0
0
0
0
0
0
0
0
0
0
0
0
0
0
0
0
0
0
0
0
0
0
0
0
0
0
0
0
0
0
0
0
0
0
0
0
0
0
0
0
0
0
0
0
0
0
0
0
0
0
0
0
0
0
0
0
0
0
0
0
0
0
0
0
0
0
0
0
0
0
0
0
0
0
0
0
0
0
0
0
0
0
0
0
0
0
0
0
0
0
0
0
0
0
0
0
0
0
0
0
0
0
0
0
0
0
0
0
0
0
0
0
0
0
0
0
0
0
0
0
0
0
0
0
0
0
0
0
0
0
0
0
0
0
0
0
0
0
0
0
0
0
0
0
0
0
0
0
0
0
0
0
0
0
0
0
0
0
0
0
0
0
0
0
0
0
0
0
0
0
0
0
0
0
0
0
0
0
0
0
0
20
34
16
110
211
79
99
194
70
97
188
69
97
188
69
97
188
69
97
189
69
94
182
67
100
198
71
127
244
91
49
87
38
0
0
0
0
0
0
0
0
0
0
0
0
0
0
0
0
0
0
0
0
0
0
0
0
0
0
0
0
0
0
0
0
0
0
0
0
0
0
0
0
0
0
0
0
0
0
0
0
0
0
0
0
0
0
0
0
0
0
0
0
0
0
0
0
0
0
0
0
0
0
0
0
0
0
0
0
0
0
0
0
0
0
0
0
0
0
0
0
0
0
0
0
0
0
0
0
0
0
0
0
0
0
0
0
0
0
0
0
0
0
0
0
0
0
0
0
0
0
0
0
0
0
0
0
0
0
0
0
0
0
0
0
0
0
0
0
0
0
0
0
0
0
0
0
0
0
0
0
0
0
0
0
0
0
0
0
0
0
0
0
0
0
0
0
0
0
0
0
0
0
0
0
0
0
0
0
0
0
0
0
0
0
0
0
0
0
92
173
68
111
218
78
95
185
68
97
188
69
97
188
69
97
188
69
97
189
69
94
183
68
102
200
72
122
235
89
27
47
22
0
0
0
0
0
0
0
0
0
0
0
0
0
0
0
0
0
0
0
0
0
0
0
0
0
0
0
0
0
0
0
0
0
0
0
0
0
0
0
0
0
0
0
0
0
0
0
0
0
0
0
0
0
0
0
0
0
0
0
0
0
0
0
0
0
0
0
0
0
0
0
0
0
0
0
0
0
0
0
0
0
0
0
0
0
0
0
0
0
0
0
0
0
0
0
0
0
0
0
0
0
0
0
0
0
0
0
0
0
0
0
0
0
0
0
0
0
0
0
0
0
0
0
0
0
0
0
0
0
0
0
0
0
0
0
0
0
0
0
0
0
0
0
0
0
0
0
0
0
0
0
0
0
0
0
0
0
0
0
0
0
0
0
0
0
0
0
0
0
0
0
0
0
0
0
0
0
0
0
0
0
0
0
54
99
41
122
234
86
93
182
67
97
188
69
97
188
69
97
188
69
97
188
69
97
188
69
93
181
67
111
218
78
99
187
72
2
2
4
0
0
0
0
0
0
0
0
0
0
0
0
0
0
0
0
0
0
0
0
0
0
0
0
0
0
0
0
0
0
0
0
0
0
0
0
0
0
0
0
0
0
0
0
0
0
0
0
0
0
0
0
0
0
0
0
0
0
0
0
0
0
0
0
0
0
0
0
0
0
0
0
0
0
0
0
0
0
0
0
0
0
0
0
0
0
0
0
0
0
0
0
0
0
0
0
0
0
0
0
0
0
0
0
0
0
0
0
0
0
0
0
0
0
0
0
0
0
0
0
0
0
0
0
0
0
0
0
0
0
0
0
0
0
0
0
0
0
0
0
0
0
0
0
0
0
0
0
0
0
0
0
0
0
0
0
0
0
0
0
0
0
0
0
0
0
0
0
0
0
0
0
0
0
0
0
0
0
0
0
8
11
6
104
199
75
104
206
74
96
185
69
97
188
69
97
188
69
97
188
69
97
188
69
97
189
69
94
182
66
122
238
87
56
102
43
0
0
0
0
0
0
0
0
0
0
0
0
0
0
0
0
0
0
0
0
0
0
0
0
0
0
0
0
0
0
0
0
0
0
0
0
0
0
0
0
0
0
0
0
0
0
0
0
0
0
0
0
0
0
0
0
0
0
0
0
0
0
0
0
0
0
0
0
0
0
0
0
0
0
0
0
0
0
0
0
0
0
0
0
0
0
0
0
0
0
0
0
0
0
0
0
0
0
0
0
0
0
0
0
0
0
0
0
0
0
0
0
0
0
0
0
0
0
0
0
0
0
0
0
0
0
0
0
0
0
0
0
0
0
0
0
0
0
0
0
0
0
0
0
0
0
0
0
0
0
0
0
0
0
0
0
0
0
0
0
0
0
0
0
0
0
0
0
0
0
0
0
0
0
0
0
0
0
0
0
0
0
0
51
94
39
124
241
89
94
182
66
97
188
69
97
188
69
97
188
69
97
188
69
97
188
69
96
185
68
106
209
75
104
199
75
5
8
5
0
0
0
0
0
0
0
0
0
0
0
0
0
0
0
0
0
0
0
0
0
0
0
0
0
0
0
0
0
0
0
0
0
0
0
0
0
0
0
0
0
0
0
0
0
0
0
0
0
0
0
0
0
0
0
0
0
0
0
0
0
0
0
0
0
0
0
0
0
0
0
0
0
0
0
0
0
0
0
0
0
0
0
0
0
0
0
0
0
0
0
0
0
0
0
0
0
0
0
0
0
0
0
0
0
0
0
0
0
0
0
0
0
0
0
0
0
0
0
0
0
0
0
0
0
0
0
0
0
0
0
0
0
0
0
0
0
0
0
0
0
0
0
0
0
0
0
0
0
0
0
0
0
0
0
0
0
0
0
0
0
0
0
0
0
0
0
0
0
0
0
0
0
0
0
0
0
0
0
0
0
0
0
93
173
69
118
231
83
92
179
65
97
189
69
97
188
69
97
188
69
97
188
69
97
188
69
94
183
67
120
231
86
45
82
34
0
0
0
0
0
0
0
0
0
0
0
0
0
0
0
0
0
0
0
0
0
0
0
0
0
0
0
0
0
0
0
0
0
0
0
0
0
0
0
0
0
0
0
0
0
0
0
0
0
0
0
0
0
0
0
0
0
0
0
0
0
0
0
0
0
0
0
0
0
0
0
0
0
0
0
0
0
0
0
0
0
0
0
0
0
0
0
0
0
0
0
0
0
0
0
0
0
0
0
0
0
0
0
0
0
0
0
0
0
0
0
0
0
0
0
0
0
0
0
0
0
0
0
0
0
0
0
0
0
0
0
0
0
0
0
0
0
0
0
0
0
0
0
0
0
0
0
0
0
0
0
0
0
0
0
0
0
0
0
0
0
0
0
0
0
0
0
0
0
0
0
0
0
0
0
0
0
0
0
0
0
0
0
14
23
12
113
213
83
111
218
78
92
179
66
97
189
69
97
188
69
97
188
69
97
188
69
95
185
68
114
221
80
78
146
59
0
0
0
0
0
0
0
0
0
0
0
0
0
0
0
0
0
0
0
0
0
0
0
0
0
0
0
0
0
0
0
0
0
0
0
0
0
0
0
0
0
0
0
0
0
0
0
0
0
0
0
0
0
0
0
0
0
0
0
0
0
0
0
0
0
0
0
0
0
0
0
0
0
0
0
0
0
0
0
0
0
0
0
0
0
0
0
0
0
0
0
0
0
0
0
0
0
0
0
0
0
0
0
0
0
0
0
0
0
0
0
0
0
0
0
0
0
0
0
0
0
0
0
0
0
0
0
0
0
0
0
0
0
0
0
0
0
0
0
0
0
0
0
0
0
0
0
0
0
0
0
0
0
0
0
0
0
0
0
0
0
0
0
0
0
0
0
0
0
0
0
0
0
0
0
0
0
0
0
0
0
0
0
0
0
0
21
38
17
114
217
83
115
226
81
93
180
66
96
186
69
97
188
69
97
188
69
97
187
69
106
206
75
94
180
68
2
1
2
0
0
0
0
0
0
0
0
0
0
0
0
0
0
0
0
0
0
0
0
0
0
0
0
0
0
0
0
0
0
0
0
0
0
0
0
0
0
0
0
0
0
0
0
0
0
0
0
0
0
0
0
0
0
0
0
0
0
0
0
0
0
0
0
0
0
0
0
0
0
0
0
0
0
0
0
0
0
0
0
0
0
0
0
0
0
0
0
0
0
0
0
0
0
0
0
0
0
0
0
0
0
0
0
0
0
0
0
0
0
0
0
0
0
0
0
0
0
0
0
0
0
0
0
0
0
0
0
0
0
0
0
0
0
0
0
0
0
0
0
0
0
0
0
0
0
0
0
0
0
0
0
0
0
0
0
0
0
0
0
0
0
0
0
0
0
0
0
0
0
0
0
0
0
0
0
0
0
0
0
0
0
0
0
0
0
18
32
15
101
190
74
123
238
87
101
199
71
94
182
66
96
185
68
97
187
69
102
198
72
101
193
74
16
25
14
0
0
0
0
0
0
0
0
0
0
0
0
0
0
0
0
0
0
0
0
0
0
0
0
0
0
0
0
0
0
0
0
0
0
0
0
0
0
0
0
0
0
0
0
0
0
0
0
0
0
0
0
0
0
0
0
0
0
0
0
0
0
0
0
0
0
0
0
0
0
0
0
0
0
0
0
0
0
0
0
0
0
0
0
0
0
0
0
0
0
0
0
0
0
0
0
0
0
0
0
0
0
0
0
0
0
0
0
0
0
0
0
0
0
0
0
0
0
0
0
0
0
0
0
0
0
0
0
0
0
0
0
0
0
0
0
0
0
0
0
0
0
0
0
0
0
0
0
0
0
0
0
0
0
0
0
0
0
0
0
0
0
0
0
0
0
0
0
0
0
0
0
0
0
0
0
0
0
0
0
0
0
0
0
0
0
0
0
0
1
0
2
67
123
50
110
211
80
120
234
86
109
213
77
100
195
70
100
196
70
105
202
77
24
41
19
0
0
0
0
0
0
0
0
0
0
0
0
0
0
0
0
0
0
0
0
0
0
0
0
0
0
0
0
0
0
0
0
0
0
0
0
0
0
0
0
0
0
0
0
0
0
0
0
0
0
0
0
0
0
0
0
0
0
0
0
0
0
0
0
0
0
0
0
0
0
0
0
0
0
0
0
0
0
0
0
0
0
0
0
0
0
0
0
0
0
0
0
0
0
0
0
0
0
0
0
0
0
0
0
0
0
0
0
0
0
0
0
0
0
0
0
0
0
0
0
0
0
0
0
0
0
0
0
0
0
0
0
0
0
0
0
0
0
0
0
0
0
0
0
0
0
0
0
0
0
0
0
0
0
0
0
0
0
0
23
39
19
43
78
33
54
100
39
57
106
42
54
101
40
47
86
36
34
58
25
11
17
9
0
0
0
0
0
0
0
0
0
0
0
0
18
29
15
63
118
48
96
180
71
109
208
79
121
234
85
117
220
85
14
21
13
0
0
0
0
0
0
0
0
0
0
0
0
0
0
0
14
22
12
36
65
28
50
91
37
55
104
41
56
104
42
50
91
37
34
62
27
10
15
9
0
0
0
0
0
0
0
0
0
0
0
0
0
0
0
0
0
0
0
0
0
0
0
0
0
0
0
0
0
0
0
0
0
0
0
0
0
0
0
0
0
0
0
0
0
0
0
0
0
0
0
0
0
0
0
0
0
0
0
0
0
0
0
0
0
0
0
0
0
0
0
0
0
0
0
0
0
0
0
0
0
0
0
0
0
0
0
0
0
0
0
0
0
0
0
0
0
0
0
0
0
0
0
0
0
0
0
0
0
0
0
19
32
16
61
114
46
96
181
71
111
211
80
115
223
82
117
226
83
117
226
83
117
226
83
117
224
83
113
217
81
104
199
76
85
159
62
52
93
39
16
24
12
0
0
0
0
0
0
0
0
0
0
0
0
18
30
14
38
67
28
34
60
27
0
0
0
0
0
0
0
0
0
22
36
17
55
101
42
88
164
64
106
202
76
114
219
81
117
225
83
116
226
83
116
226
83
117
226
84
113
219
82
105
199
76
81
153
60
43
76
32
0
0
0
0
0
0
0
0
0
0
0
0
0
0
0
0
0
0
0
0
0
0
0
0
0
0
0
0
0
0
0
0
0
0
0
0
0
0
0
0
0
0
0
0
0
0
0
0
0
0
0
0
0
0
0
0
0
0
0
0
0
0
0
0
0
0
0
0
0
0
0
0
0
0
0
0
0
0
0
0
0
0
0
0
0
0
0
0
0
0
0
0
0
0
0
0
0
0
0
9
11
9
70
131
53
110
210
80
120
234
86
109
214
77
99
194
70
96
186
67
95
185
68
95
185
68
95
185
68
95
186
68
97
190
69
103
201
73
113
222
80
120
230
86
105
199
76
77
144
56
43
77
32
10
15
9
0
0
0
0
0
0
0
0
0
0
0
0
20
35
17
50
94
37
84
159
62
108
206
78
119
231
86
112
220
79
102
199
72
97
189
68
95
185
67
95
185
68
95
185
68
95
185
67
97
189
69
103
202
73
116
226
82
119
228
85
95
180
69
40
71
30
0
0
0
0
0
0
0
0
0
0
0
0
0
0
0
0
0
0
0
0
0
0
0
0
0
0
0
0
0
0
0
0
0
0
0
0
0
0
0
0
0
0
0
0
0
0
0
0
0
0
0
0
0
0
0
0
0
0
0
0
0
0
0
0
0
0
0
0
0
0
0
0
0
0
0
0
0
0
0
0
0
0
0
0
0
0
0
0
0
0
36
65
28
108
205
79
121
236
86
100
197
71
94
183
67
96
185
68
97
188
69
97
188
69
97
188
69
97
188
69
97
188
69
97
188
69
97
188
69
97
187
69
95
185
68
95
185
67
101
198
71
115
222
81
116
224
83
103
195
74
87
164
63
78
145
56
80
152
59
94
177
69
109
208
79
118
228
84
112
217
78
99
194
70
95
184
67
95
185
68
97
187
69
97
188
69
97
188
69
97
188
69
97
188
69
97
188
69
97
188
69
96
187
69
95
184
68
95
186
67
109
216
77
122
235
88
80
149
60
4
4
4
0
0
0
0
0
0
0
0
0
0
0
0
0
0
0
0
0
0
0
0
0
0
0
0
0
0
0
0
0
0
0
0
0
0
0
0
0
0
0
0
0
0
0
0
0
0
0
0
0
0
0
0
0
0
0
0
0
0
0
0
0
0
0
0
0
0
0
0
0
0
0
0
0
0
0
0
0
0
0
0
0
60
108
46
123
236
89
108
213
76
93
180
66
97
187
69
97
188
69
97
188
69
97
188
69
97
188
69
97
188
69
97
188
69
97
188
69
97
188
69
97
188
69
97
188
69
97
188
69
97
188
69
97
188
69
95
184
68
96
186
68
103
201
73
110
215
77
114
221
80
113
219
79
107
209
75
100
195
71
95
184
67
96
185
68
97
188
69
97
188
69
97
188
69
97
188
69
97
188
69
97
188
69
97
188
69
97
188
69
97
188
69
97
188
69
97
188
69
97
188
69
97
188
69
94
183
67
96
189
68
121
236
86
101
190
75
16
27
13
0
0
0
0
0
0
0
0
0
0
0
0
0
0
0
0
0
0
0
0
0
0
0
0
0
0
0
0
0
0
0
0
0
0
0
0
0
0
0
0
0
0
0
0
0
0
0
0
0
0
0
0
0
0
0
0
0
0
0
0
0
0
0
0
0
0
0
0
0
0
0
0
0
0
0
64
119
49
126
244
90
100
195
69
94
182
67
97
189
69
97
188
69
97
188
69
97
188
69
97
188
69
97
188
69
97
188
69
97
188
69
97
188
69
97
188
69
97
188
69
97
188
69
97
188
69
97
188
69
97
188
69
97
188
69
97
188
69
97
187
69
96
186
68
96
185
68
96
185
68
96
186
69
97
188
69
97
188
69
97
188
69
97
188
69
97
188
69
97
188
69
97
188
69
97
188
69
97
188
69
97
188
69
97
188
69
97
188
69
97
188
69
97
188
69
97
188
69
97
188
69
97
188
69
97
187
69
92
180
66
115
226
81
112
212
82
18
30
14
0
0
0
0
0
0
0
0
0
0
0
0
0
0
0
0
0
0
0
0
0
0
0
0
0
0
0
0
0
0
0
0
0
0
0
0
0
0
0
0
0
0
0
0
0
0
0
0
0
0
0
0
0
0
0
0
0
0
0
0
0
0
0
0
0
0
1
1
1
75
139
56
127
248
90
95
186
66
98
185
68
100
188
69
99
188
68
99
188
68
99
188
68
99
188
68
99
188
68
99
188
68
99
188
68
99
188
68
99
188
68
99
188
69
99
188
69
99
188
69
99
188
69
99
188
69
99
188
69
99
188
69
99
188
69
99
188
69
99
188
69
99
188
69
99
188
69
99
188
69
99
188
69
99
188
69
99
188
69
99
188
69
99
188
69
99
188
69
99
188
69
99
188
69
99
188
69
99
188
69
99
188
69
99
188
69
99
188
69
99
188
69
99
188
69
100
188
69
100
188
69
100
188
69
100
188
69
95
179
65
116
222
80
110
202
78
13
16
8
0
0
0
0
0
0
0
0
0
0
0
0
0
0
0
0
0
0
0
0
0
0
0
0
0
0
0
0
0
0
0
0
0
0
0
0
0
0
0
0
0
0
0
0
0
0
0
0
0
0
0
0
0
0
0
0
0
0
0
0
0
0
0
3
2
3
81
150
61
124
235
87
97
207
77
64
181
73
70
189
75
70
189
75
70
189
75
70
189
75
70
189
75
70
189
75
70
189
75
70
189
75
70
189
75
70
189
75
70
189
75
70
189
75
70
189
75
70
189
75
70
189
75
70
189
75
70
189
75
70
189
75
70
189
75
70
189
75
70
189
75
70
189
75
70
189
75
70
189
75
70
189
75
70
189
75
70
189
75
70
189
75
70
189
75
70
189
75
70
189
75
70
189
75
70
189
75
70
189
75
70
189
75
70
189
75
70
189
75
70
189
75
69
189
75
69
188
75
69
188
75
69
188
75
69
189
75
64
180
72
90
232
89
62
172
75
0
0
5
0
0
0
0
0
0
0
0
0
0
0
0
0
0
0
0
0
0
0
0
0
0
0
0
0
0
0
0
0
0
0
0
0
0
0
0
0
0
0
0
0
0
0
0
0
0
0
0
0
0
0
0
0
0
0
0
0
0
0
0
0
0
0
0
0
0
36
60
27
131
207
75
164
219
67
130
179
60
132
187
62
132
187
62
132
187
62
132
187
62
132
187
62
132
187
62
132
187
62
132
187
62
132
187
62
132
186
61
132
186
61
132
186
61
132
186
61
132
186
61
132
186
61
132
186
61
132
186
61
132
186
61
132
186
61
132
186
61
132
186
61
132
186
61
132
186
61
132
186
61
132
186
61
132
186
61
132
186
61
132
186
61
132
186
61
132
186
61
132
186
61
132
186
61
132
186
61
132
186
61
132
186
61
132
186
61
132
186
61
132
186
62
132
187
62
132
187
62
132
187
62
132
187
62
132
187
62
129
181
59
161
240
79
80
103
38
0
0
0
0
0
0
0
0
0
0
0
0
0
0
0
0
0
0
0
0
0
0
0
0
0
0
0
0
0
0
0
0
0
0
0
0
0
0
0
0
0
0
0
0
0
0
0
0
0
0
0
0
0
0
0
0
0
0
0
0
0
0
0
0
0
0
0
0
0
42
24
6
240
190
40
255
217
39
255
176
32
255
184
34
255
183
34
255
183
34
255
183
34
255
183
34
255
183
34
255
183
34
255
183
34
255
184
34
255
184
34
255
184
34
255
184
34
255
184
34
255
184
34
255
184
34
255
184
34
255
184
34
255
184
34
255
184
34
255
184
34
255
184
34
255
184
34
255
184
34
255
184
34
255
184
34
255
184
34
255
184
34
255
184
34
255
184
34
255
184
34
255
184
34
255
184
34
255
184
34
255
184
34
255
184
34
255
184
34
255
183
34
255
184
33
255
184
33
255
184
33
255
184
33
255
184
33
255
182
33
255
193
33
255
214
47
30
27
11
0
0
0
0
0
0
0
0
0
0
0
0
0
0
0
0
0
0
0
0
0
0
0
0
0
0
0
0
0
0
0
0
0
0
0
0
0
0
0
0
0
0
0
0
0
0
0
0
0
0
0
0
0
0
0
0
0
0
0
0
0
0
0
0
0
0
0
0
0
23
19
7
235
203
46
255
209
43
255
178
38
255
184
39
255
184
39
255
184
39
255
184
39
255
184
39
255
184
39
255
184
39
255
184
39
255
184
39
255
184
39
255
184
39
255
184
39
255
184
39
255
184
39
255
184
39
255
184
39
255
184
39
255
184
39
255
184
39
255
184
39
255
184
39
255
184
39
255
184
39
255
184
39
255
184
39
255
184
39
255
184
39
255
184
39
255
184
39
255
184
39
255
184
39
255
184
39
255
184
39
255
184
39
255
184
39
255
184
39
255
184
38
255
184
38
255
184
38
255
184
38
255
184
38
255
184
39
255
177
37
255
229
48
159
133
33
0
0
0
0
0
0
0
0
0
0
0
0
0
0
0
0
0
0
0
0
0
0
0
0
0
0
0
0
0
0
0
0
0
0
0
0
0
0
0
0
0
0
0
0
0
0
0
0
0
0
0
0
0
0
0
0
0
0
0
0
0
0
0
0
0
0
0
0
0
0
0
0
47
41
15
255
220
48
255
189
39
251
183
39
252
184
39
252
184
39
252
184
39
252
184
39
252
184
39
252
184
39
252
184
39
252
184
39
252
184
39
252
184
39
252
184
39
252
184
39
252
184
39
252
184
39
252
184
39
252
184
39
252
184
39
252
184
39
252
184
39
252
184
39
252
184
39
252
184
39
252
184
39
252
184
39
252
184
39
252
184
39
252
184
39
252
184
39
252
184
39
252
184
39
252
184
39
252
184
39
252
184
39
252
184
39
252
184
39
252
184
39
252
184
39
252
184
39
252
184
39
252
184
39
252
184
39
252
183
39
255
196
39
252
205
46
20
19
8
0
0
0
0
0
0
0
0
0
0
0
0
0
0
0
0
0
0
0
0
0
0
0
0
0
0
0
0
0
0
0
0
0
0
0
0
0
0
0
0
0
0
0
0
0
0
0
0
0
0
0
0
0
0
0
0
0
0
0
0
0
0
0
0
0
0
0
0
0
0
0
0
140
115
30
255
227
48
254
178
38
252
184
39
252
184
39
252
184
39
252
184
39
252
184
39
252
184
39
252
184
39
252
184
39
252
184
39
252
184
39
252
184
39
252
184
39
252
184
39
252
184
39
252
184
39
252
184
39
252
184
39
252
184
39
252
184
39
252
184
39
252
184
39
252
184
39
252
184
39
252
184
39
252
184
39
252
184
39
252
184
39
252
184
39
252
184
39
252
184
39
252
184
39
252
184
39
252
184
39
252
184
39
252
184
39
252
184
39
252
184
39
252
184
39
252
184
39
252
184
39
252
184
39
252
184
39
254
179
38
255
227
48
104
88
23
0
0
0
0
0
0
0
0
0
0
0
0
0
0
0
0
0
0
0
0
0
0
0
0
0
0
0
0
0
0
0
0
0
0
0
0
0
0
0
0
0
0
0
0
0
0
0
0
0
0
0
0
0
0
0
0
0
0
0
0
0
0
0
0
0
0
0
0
0
0
0
0
9
9
5
243
200
46
255
198
40
251
183
39
252
184
39
252
184
39
252
184
39
252
184
39
252
184
39
252
184
39
252
184
39
252
184
39
252
184
39
252
184
39
252
184
39
252
184
39
252
184
39
252
184
39
252
184
39
252
184
39
252
184
39
252
184
39
252
184
39
252
184
39
252
184
39
252
184
39
252
184
39
252
184
39
252
184
39
252
184
39
252
184
39
252
184
39
252
184
39
252
184
39
252
184
39
252
184
39
252
184
39
252
184
39
252
184
39
252
184
39
252
184
39
252
184
39
252
184
39
252
184
39
252
184
39
252
181
39
255
215
44
177
146
36
0
0
0
0
0
0
0
0
0
0
0
0
0
0
0
0
0
0
0
0
0
0
0
0
0
0
0
0
0
0
0
0
0
0
0
0
0
0
0
0
0
0
0
0
0
0
0
0
0
0
0
0
0
0
0
0
0
0
0
0
0
0
0
0
0
0
0
0
0
0
0
0
0
0
0
148
121
30
255
224
47
252
180
38
252
184
39
252
183
39
252
183
39
252
183
39
252
183
39
252
183
39
252
183
39
252
183
39
252
183
39
252
183
39
252
183
39
252
183
39
252
183
39
252
183
39
252
183
39
252
183
39
252
183
39
252
183
39
252
183
39
252
183
39
252
183
39
252
183
39
252
183
39
252
183
39
252
183
39
252
183
39
252
183
39
252
183
39
252
183
39
252
183
39
252
183
39
252
183
39
252
183
39
252
183
39
252
183
39
252
183
39
252
183
39
252
183
39
252
183
39
252
183
39
252
183
39
252
183
39
255
200
40
232
179
42
6
4
5
0
0
0
0
0
0
0
0
0
0
0
0
0
0
0
0
0
0
0
0
0
0
0
0
0
0
0
0
0
0
0
0
0
0
0
0
0
0
0
0
0
0
0
0
0
0
0
0
0
0
0
0
0
0
0
0
0
0
0
0
0
0
0
0
0
0
0
0
0
0
0
0
66
56
15
255
220
49
255
193
41
253
191
40
253
191
40
253
191
40
253
191
40
253
191
40
253
191
40
253
191
40
253
191
40
253
191
40
253
191
40
253
191
40
253
191
40
253
191
40
253
191
40
253
191
40
253
191
40
253
191
40
253
191
40
253
191
40
253
191
40
253
191
40
253
191
40
253
191
40
253
191
40
253
191
40
253
191
40
253
191
40
253
191
40
253
191
40
253
191
40
253
191
40
253
191
40
253
191
40
253
191
40
253
191
40
253
191
40
253
191
40
253
191
40
253
191
40
253
191
40
253
191
40
253
191
40
255
195
40
255
211
46
51
48
14
0
0
0
0
0
0
0
0
0
0
0
0
0
0
0
0
0
0
0
0
0
0
0
0
0
0
0
0
0
0
0
0
0
0
0
0
0
0
0
0
0
0
0
0
0
0
0
0
0
0
0
0
0
0
0
0
0
0
0
0
0
0
0
0
0
0
0
0
0
0
0
0
12
10
7
238
176
41
255
192
39
251
177
38
251
178
38
251
178
38
251
178
38
251
178
38
251
178
38
251
178
38
251
178
38
251
178
38
251
178
38
251
178
38
251
178
38
251
178
38
251
178
38
251
178
38
251
178
38
251
178
38
251
178
38
251
178
38
251
178
38
251
178
38
251
178
38
251
178
38
251
178
38
251
178
38
251
178
38
251
178
38
251
178
38
251
178
38
251
178
38
251
178
38
251
178
38
251
178
38
251
178
38
251
178
38
251
178
38
251
178
38
251
178
38
251
178
38
251
178
38
251
178
38
251
178
38
255
178
38
255
210
45
83
69
17
0
0
0
0
0
0
0
0
0
0
0
0
0
0
0
0
0
0
0
0
0
0
0
0
0
0
0
0
0
0
0
0
0
0
0
0
0
0
0
0
0
0
0
0
0
0
0
0
0
0
0
0
0
0
0
0
0
0
0
0
0
0
0
0
0
0
0
0
0
0
0
0
0
0
0
194
108
28
255
141
33
244
123
30
245
124
30
245
124
30
245
124
30
245
124
30
245
124
30
245
124
30
245
124
30
245
124
30
245
124
30
245
124
30
245
124
30
245
124
30
245
124
30
245
124
30
245
124
30
245
124
30
245
124
30
245
124
30
245
124
30
245
124
30
245
124
30
245
124
30
245
124
30
245
124
30
245
124
30
245
124
30
245
124
30
245
124
30
245
124
30
245
124
30
245
124
30
245
124
30
245
124
30
245
124
30
245
124
30
245
124
30
245
124
30
245
124
30
245
124
30
245
124
30
245
124
30
247
124
30
255
149
36
108
60
19
0
0
0
0
0
0
0
0
0
0
0
0
0
0
0
0
0
0
0
0
0
0
0
0
0
0
0
0
0
0
0
0
0
0
0
0
0
0
0
0
0
0
0
0
0
0
0
0
0
0
0
0
0
0
0
0
0
0
0
0
0
0
0
0
0
0
0
0
0
0
0
0
0
0
0
177
102
28
255
146
34
245
127
31
246
128
31
246
128
31
246
128
31
246
128
31
246
128
31
246
128
31
246
128
31
246
128
31
246
128
31
246
128
31
246
128
31
246
128
31
246
128
31
246
128
31
246
128
31
246
128
31
246
128
31
246
128
31
246
128
31
246
128
31
246
128
31
246
128
31
246
128
31
246
128
31
246
128
31
246
128
31
246
128
31
246
128
31
246
128
31
246
128
31
246
128
31
246
128
31
246
128
31
246
128
31
246
128
31
246
128
31
246
128
31
246
128
31
246
128
31
246
128
31
246
128
31
246
126
30
255
152
37
130
75
24
0
0
0
0
0
0
0
0
0
0
0
0
0
0
0
0
0
0
0
0
0
0
0
0
0
0
0
0
0
0
0
0
0
0
0
0
0
0
0
0
0
0
0
0
0
0
0
0
0
0
0
0
0
0
0
0
0
0
0
0
0
0
0
0
0
0
0
0
0
0
0
0
0
0
0
174
101
29
255
149
34
245
129
31
246
130
31
246
130
31
246
130
31
246
130
31
246
130
31
246
130
31
246
130
31
246
130
31
246
130
31
246
130
31
246
130
31
246
130
31
246
130
31
246
130
31
246
130
31
246
130
31
246
130
31
246
130
31
246
130
31
246
130
31
246
130
31
246
130
31
246
130
31
246
130
31
246
130
31
246
130
31
246
130
31
246
130
31
246
130
31
246
130
31
246
130
31
246
130
31
246
130
31
246
130
31
246
130
31
246
130
31
246
130
31
246
130
31
246
130
31
246
130
31
246
130
31
246
128
30
255
156
37
135
79
22
0
0
0
0
0
0
0
0
0
0
0
0
0
0
0
0
0
0
0
0
0
0
0
0
0
0
0
0
0
0
0
0
0
0
0
0
0
0
0
0
0
0
0
0
0
0
0
0
0
0
0
0
0
0
0
0
0
0
0
0
0
0
0
0
0
0
0
0
0
0
0
0
0
0
0
181
107
30
255
148
34
246
129
31
246
130
31
246
130
31
246
130
31
246
130
31
246
130
31
246
130
31
246
130
31
246
130
31
246
130
31
246
130
31
246
130
31
246
130
31
246
130
31
246
130
31
246
130
31
246
130
31
246
130
31
246
130
31
246
130
31
246
130
31
246
130
31
246
130
31
246
130
31
246
130
31
246
130
31
246
130
31
246
130
31
246
130
31
246
130
31
246
130
31
246
130
31
246
130
31
246
130
31
246
130
31
246
130
31
246
130
31
246
130
31
246
130
31
246
130
31
246
130
31
246
130
31
246
129
31
255
156
37
136
78
20
0
0
0
0
0
0
0
0
0
0
0
0
0
0
0
0
0
0
0
0
0
0
0
0
0
0
0
0
0
0
0
0
0
0
0
0
0
0
0
0
0
0
0
0
0
0
0
0
0
0
0
0
0
0
0
0
0
0
0
0
0
0
0
0
0
0
0
0
0
0
0
0
0
0
1
206
118
31
255
145
34
246
129
31
246
130
31
246
130
31
246
130
31
246
130
31
246
130
31
246
130
31
246
130
31
246
130
31
246
130
31
246
130
31
246
130
31
246
130
31
246
130
31
246
130
31
246
130
31
246
130
31
246
130
31
246
130
31
246
130
31
246
130
31
246
130
31
246
130
31
246
130
31
246
130
31
246
130
31
246
130
31
246
130
31
246
130
31
246
130
31
246
130
31
246
130
31
246
130
31
246
130
31
246
130
31
246
130
31
246
130
31
246
130
31
246
130
31
246
130
31
246
130
31
246
130
31
246
129
30
255
155
37
133
77
24
0
0
0
0
0
0
0
0
0
0
0
0
0
0
0
0
0
0
0
0
0
0
0
0
0
0
0
0
0
0
0
0
0
0
0
0
0
0
0
0
0
0
0
0
0
0
0
0
0
0
0
0
0
0
0
0
0
0
0
0
0
0
0
0
0
0
0
0
0
0
0
0
26
17
9
249
135
35
255
136
31
245
130
31
246
130
31
246
130
31
246
130
31
246
130
31
246
130
31
246
130
31
246
130
31
246
130
31
246
130
31
246
130
31
246
130
31
246
130
31
246
130
31
246
130
31
246
130
31
246
130
31
246
130
31
246
130
31
246
130
31
246
130
31
246
130
31
246
130
31
246
130
31
246
130
31
246
130
31
246
130
31
246
130
31
246
130
31
246
130
31
246
130
31
246
130
31
246
130
31
246
130
31
246
130
31
246
130
31
246
130
31
246
130
31
246
130
31
246
130
31
246
130
31
246
130
31
246
129
31
255
155
37
116
66
21
0
0
0
0
0
0
0
0
0
0
0
0
0
0
0
0
0
0
0
0
0
0
0
0
0
0
0
0
0
0
0
0
0
0
0
0
0
0
0
0
0
0
0
0
0
0
0
0
0
0
0
0
0
0
0
0
0
0
0
0
0
0
0
0
0
0
0
0
0
0
0
0
86
56
14
255
162
36
252
134
28
247
135
29
248
135
29
248
135
29
248
135
29
248
135
29
248
135
29
248
135
29
248
135
29
248
135
29
248
135
29
248
135
29
248
135
29
248
135
29
248
135
29
248
135
29
248
135
29
248
135
29
248
135
29
248
135
29
248
135
29
248
135
29
248
135
29
248
135
29
248
135
29
248
135
29
248
135
29
248
135
29
248
135
29
248
135
29
248
135
29
248
135
29
248
135
29
248
135
29
248
135
29
248
135
29
248
135
29
248
135
29
248
135
29
248
135
29
248
135
29
248
135
29
248
135
29
252
135
29
255
160
35
92
55
17
0
0
0
0
0
0
0
0
0
0
0
0
0
0
0
0
0
0
0
0
0
0
0
0
0
0
0
0
0
0
0
0
0
0
0
0
0
0
0
0
0
0
0
0
0
0
0
0
0
0
0
0
0
0
0
0
0
0
0
0
0
0
0
0
0
0
0
0
0
0
0
0
171
106
26
255
160
34
245
132
29
247
134
29
247
134
29
247
134
29
247
134
29
247
134
29
247
134
29
247
134
29
247
134
29
247
134
29
247
134
29
247
134
29
247
134
29
247
134
29
247
134
29
247
134
29
247
134
29
247
134
29
247
134
29
247
134
29
247
134
29
247
134
29
247
134
29
247
134
29
247
134
29
247
134
29
247
134
29
247
134
29
247
134
29
247
134
29
247
134
29
247
134
29
247
134
29
247
134
29
247
134
29
247
134
29
247
134
29
248
134
30
248
134
29
248
134
29
248
134
29
248
134
29
248
134
29
254
136
29
255
153
37
72
44
14
0
0
0
0
0
0
0
0
0
0
0
0
0
0
0
0
0
0
0
0
0
0
0
0
0
0
0
0
0
0
0
0
0
0
0
0
0
0
0
0
0
0
0
0
0
0
0
0
0
0
0
0
0
0
0
0
0
0
0
0
0
0
0
0
0
0
0
0
0
30
12
12
249
75
71
234
61
63
223
61
62
224
61
62
224
61
62
224
61
62
224
61
62
224
61
62
224
61
62
224
61
62
224
61
62
224
61
62
224
61
62
224
61
62
224
61
62
224
61
62
224
61
62
224
61
62
224
61
62
224
61
62
224
61
62
224
61
62
224
61
62
224
61
62
224
61
62
224
61
62
224
61
62
224
61
62
224
61
62
224
61
62
224
61
62
224
61
62
224
61
62
224
61
62
224
61
62
224
61
62
224
61
62
224
61
62
224
61
62
224
60
61
224
60
61
224
60
61
224
60
61
224
60
61
224
60
61
234
62
63
237
65
68
36
13
15
0
0
0
0
0
0
0
0
0
0
0
0
0
0
0
0
0
0
0
0
0
0
0
0
0
0
0
0
0
0
0
0
0
0
0
0
0
0
0
0
0
0
0
0
0
0
0
0
0
0
0
0
0
0
0
0
0
0
0
0
0
0
0
0
0
0
0
0
0
161
47
50
255
63
77
217
48
64
221
51
66
221
51
66
221
51
66
221
51
66
221
51
66
221
51
66
221
51
66
221
51
66
221
51
66
221
51
66
221
51
66
221
51
66
221
51
66
221
51
66
221
51
66
221
51
66
221
51
66
221
51
66
221
51
66
221
51
66
221
51
66
221
51
66
221
51
66
221
51
66
221
51
66
221
51
66
221
51
66
221
51
66
221
51
66
221
51
66
221
51
66
221
51
66
221
51
66
221
51
66
221
51
66
221
51
66
221
51
66
220
51
65
220
51
65
220
51
65
220
51
65
220
51
65
219
51
65
243
55
70
208
50
64
0
0
3
0
0
0
0
0
0
0
0
0
0
0
0
0
0
0
0
0
0
0
0
0
0
0
0
0
0
0
0
0
0
0
0
0
0
0
0
0
0
0
0
0
0
0
0
0
0
0
0
0
0
0
0
0
0
0
0
0
0
0
0
0
0
0
0
0
0
70
23
26
255
72
78
226
58
61
223
59
62
223
59
62
223
59
62
223
59
62
223
59
62
223
59
62
223
59
62
223
59
62
223
59
62
223
59
62
223
59
62
223
59
62
223
59
62
223
59
62
223
59
62
223
59
62
223
59
62
223
59
62
223
59
62
223
59
62
223
59
62
223
59
62
223
59
62
223
59
62
223
59
62
223
59
62
223
59
62
223
59
62
223
59
62
223
59
62
223
59
62
223
59
62
223
59
62
223
59
62
223
59
62
223
59
62
223
59
62
223
59
62
223
59
62
223
59
62
223
59
62
223
59
62
223
59
62
220
58
61
255
67
70
172
50
51
0
0
0
0
0
0
0
0
0
0
0
0
0
0
0
0
0
0
0
0
0
0
0
0
0
0
0
0
0
0
0
0
0
0
0
0
0
0
0
0
0
0
0
0
0
0
0
0
0
0
0
0
0
0
0
0
0
0
0
0
0
0
0
0
0
0
28
10
11
243
70
73
245
63
68
218
57
60
223
58
62
223
58
62
223
58
62
223
58
62
223
58
62
223
58
62
223
58
62
223
58
62
223
58
62
223
58
62
223
58
62
223
58
62
223
58
62
223
58
62
223
58
62
223
58
62
223
58
62
223
58
62
223
58
62
223
58
62
223
58
62
223
58
62
223
58
62
223
58
62
223
58
62
223
58
62
223
58
62
223
58
62
223
58
62
223
58
62
223
58
62
223
58
62
223
58
62
223
58
62
223
58
62
223
58
62
223
58
62
223
58
62
223
58
62
223
58
62
223
58
62
223
58
62
223
58
62
218
57
61
255
70
75
120
35
37
0
0
0
0
0
0
0
0
0
0
0
0
0
0
0
0
0
0
0
0
0
0
0
0
0
0
0
0
0
0
0
0
0
0
0
0
0
0
0
0
0
0
0
0
0
0
0
0
0
0
0
0
0
0
0
0
0
0
0
0
0
0
0
32
12
13
229
66
70
255
65
70
217
56
59
223
58
62
223
58
62
223
58
62
223
58
62
223
58
62
223
58
62
223
58
62
223
58
62
223
58
62
223
58
62
223
58
62
223
58
62
223
58
62
223
58
62
223
58
62
223
58
62
223
58
62
223
58
62
223
58
62
223
58
62
223
58
62
223
58
62
223
58
62
223
58
62
223
58
62
223
58
62
223
58
62
223
58
62
223
58
62
223
58
62
223
58
62
223
58
62
223
58
62
223
58
62
223
58
62
223
58
62
223
58
62
223
58
62
223
58
62
223
58
62
223
58
62
223
58
62
223
58
62
223
58
62
227
58
62
255
69
74
57
19
21
0
0
0
0
0
0
0
0
0
0
0
0
0
0
0
0
0
0
0
0
0
0
0
0
0
0
0
0
0
0
0
0
0
0
0
0
0
0
0
0
0
0
0
0
0
0
0
0
0
0
0
0
0
0
0
0
0
0
0
0
70
23
25
232
67
71
255
67
71
216
55
59
223
58
62
223
58
62
223
58
62
223
58
62
223
58
62
223
58
62
223
58
62
223
58
62
223
58
62
223
58
62
223
58
62
223
58
62
223
58
62
223
58
62
223
58
62
223
58
62
223
58
62
223
58
62
223
58
62
223
58
62
223
58
62
223
58
62
223
58
62
223
58
62
223
58
62
223
58
62
223
58
62
223
58
62
223
58
62
223
58
62
223
58
62
223
58
62
223
58
62
223
58
62
223
58
62
223
58
62
223
58
62
223
58
62
223
58
62
223
58
62
223
58
62
223
58
62
223
58
62
223
58
62
221
57
62
247
63
68
218
61
64
2
2
2
0
0
0
0
0
0
0
0
0
0
0
0
0
0
0
0
0
0
0
0
0
0
0
0
0
0
0
0
0
0
0
0
0
0
0
0
0
0
0
0
0
0
0
0
0
0
0
0
0
0
0
0
0
0
28
10
8
155
47
47
255
72
75
246
63
65
218
55
58
225
58
61
224
58
61
224
58
61
224
58
60
224
58
60
224
58
60
224
58
60
224
58
60
224
58
60
224
58
60
224
58
60
224
58
60
224
58
60
224
58
60
224
58
60
224
58
60
224
58
60
224
58
60
224
58
60
224
58
60
224
58
60
224
58
60
224
58
60
224
58
60
224
58
60
224
58
60
224
58
60
224
58
60
224
58
60
224
58
60
224
58
60
224
58
60
224
58
60
224
58
60
224
58
60
224
58
60
224
58
60
224
58
60
224
58
60
224
58
60
224
58
60
224
58
60
224
58
60
224
58
60
224
58
60
220
57
58
255
71
74
148
43
46
0
0
0
0
0
0
0
0
0
0
0
0
0
0
0
0
0
0
0
0
0
0
0
0
0
0
0
0
0
0
0
0
0
0
0
0
0
0
0
0
0
0
0
0
0
0
0
0
0
0
0
0
0
0
136
43
42
248
67
56
255
70
61
241
58
48
230
56
47
235
58
48
234
58
48
234
58
48
234
58
48
234
57
48
234
57
48
234
57
48
234
57
48
234
57
48
234
57
48
234
57
48
234
57
48
234
57
48
234
57
48
234
57
48
234
57
48
234
57
48
234
57
48
234
57
48
234
57
48
234
57
48
234
57
48
234
57
48
234
57
48
234
57
48
234
57
48
234
57
48
234
57
48
234
57
48
234
57
48
234
57
48
234
57
48
234
57
48
234
58
49
234
58
49
234
58
49
234
58
49
234
58
49
234
58
49
234
58
49
234
58
49
234
58
49
234
58
49
234
58
49
234
58
49
234
58
49
239
57
45
255
70
65
61
21
22
0
0
0
0
0
0
0
0
0
0
0
0
0
0
0
0
0
0
0
0
0
0
0
0
0
0
0
0
0
0
0
0
0
0
0
0
0
0
0
0
0
0
0
0
0
0
0
0
0
0
0
0
0
0
138
51
92
214
79
167
156
56
126
164
60
132
165
61
132
165
60
132
165
60
132
165
60
132
165
60
132
165
60
132
165
60
132
165
60
132
165
60
132
165
60
132
165
60
132
165
60
132
165
60
132
165
60
132
165
60
132
165
60
132
165
60
132
165
60
132
165
60
132
165
60
132
165
60
132
165
60
132
165
60
132
165
60
132
165
60
132
165
60
132
165
60
132
165
60
132
165
60
132
165
60
132
165
60
132
165
60
132
165
60
132
165
60
132
165
60
132
165
60
133
165
60
133
165
60
133
165
60
133
165
60
133
165
60
133
165
60
133
165
60
133
165
60
133
165
60
133
165
60
133
163
60
132
186
67
149
155
59
125
0
1
1
0
0
0
0
0
0
0
0
0
0
0
0
0
0
0
0
0
0
0
0
0
0
0
0
0
0
0
0
0
0
0
0
0
0
0
0
0
0
0
0
0
0
0
0
0
0
0
0
0
0
0
0
0
0
5
8
25
151
70
184
145
64
174
136
62
166
137
62
166
137
62
166
137
62
166
137
62
166
137
62
166
137
62
166
137
62
166
137
62
166
137
62
166
137
62
166
137
62
166
137
62
166
137
62
166
137
62
166
137
62
166
137
62
166
137
62
166
137
62
166
137
62
166
137
62
166
137
62
166
137
62
166
137
62
166
137
62
166
137
62
166
137
62
166
137
62
166
137
62
166
137
62
166
137
62
166
137
62
166
137
62
166
137
62
166
137
62
166
137
62
166
137
62
166
137
62
166
137
62
166
137
62
166
137
62
166
137
62
166
137
62
166
137
62
166
137
62
166
137
62
166
137
62
167
132
60
161
173
77
204
69
38
97
0
0
0
0
0
0
0
0
0
0
0
0
0
0
0
0
0
0
0
0
0
0
0
0
0
0
0
0
0
0
0
0
0
0
0
0
0
0
0
0
0
0
0
0
0
0
0
0
0
0
0
0
0
0
0
0
0
0
0
0
100
43
98
187
74
185
145
59
144
151
61
150
151
61
150
151
61
150
151
61
150
151
61
150
151
61
150
151
61
150
151
61
150
151
61
150
151
61
150
151
61
150
151
61
150
151
61
150
151
61
150
151
61
150
151
61
150
151
61
150
151
61
150
151
61
150
151
61
150
151
61
150
151
61
150
151
61
150
151
61
150
151
61
150
151
61
150
151
61
150
151
61
150
151
61
150
151
61
150
151
61
150
151
61
150
151
61
150
151
61
150
151
61
150
151
61
150
151
61
150
151
61
150
151
61
150
151
61
150
151
61
150
151
61
150
151
61
150
151
61
150
151
61
150
150
60
148
164
64
162
165
69
164
11
6
9
0
0
0
0
0
0
0
0
0
0
0
0
0
0
0
0
0
0
0
0
0
0
0
0
0
0
0
0
0
0
0
0
0
0
0
0
0
0
0
0
0
0
0
0
0
0
0
0
0
0
0
0
0
0
0
0
0
0
0
0
19
10
19
173
73
174
159
64
160
149
60
150
150
61
151
150
61
151
150
61
151
150
61
151
150
61
151
150
61
151
150
61
151
150
61
151
150
61
151
150
61
151
150
61
151
150
61
151
150
61
151
150
61
151
150
61
151
150
61
151
150
61
151
150
61
151
150
61
151
150
61
151
150
61
151
150
61
151
150
61
151
150
61
151
150
61
151
150
61
151
150
61
151
150
61
151
150
61
151
150
61
151
150
61
151
150
61
151
150
61
151
150
61
151
150
61
151
150
61
151
150
61
151
150
61
151
150
61
151
150
61
151
150
61
151
150
61
151
150
61
151
150
61
151
145
59
146
188
77
190
95
42
96
0
0
0
0
0
0
0
0
0
0
0
0
0
0
0
0
0
0
0
0
0
0
0
0
0
0
0
0
0
0
0
0
0
0
0
0
0
0
0
0
0
0
0
0
0
0
0
0
0
0
0
0
0
0
0
0
0
0
0
0
0
0
0
0
0
0
94
42
95
190
77
191
144
59
146
150
61
151
150
61
151
150
61
151
150
61
151
150
61
151
150
61
151
150
61
151
150
61
151
150
61
151
150
61
151
150
61
151
150
61
151
150
61
151
150
61
151
150
61
151
150
61
151
150
61
151
150
61
151
150
61
151
150
61
151
150
61
151
150
61
151
150
61
151
150
61
151
150
61
151
150
61
151
150
61
151
150
61
151
150
61
151
150
61
151
150
61
151
150
61
151
150
61
151
150
61
151
150
61
151
150
61
151
150
61
151
150
61
151
150
61
151
150
61
151
150
61
151
150
61
151
150
61
151
149
61
150
160
64
162
165
70
165
12
7
11
0
0
0
0
0
0
0
0
0
0
0
0
0
0
0
0
0
0
0
0
0
0
0
0
0
0
0
0
0
0
0
0
0
0
0
0
0
0
0
0
0
0
0
0
0
0
0
0
0
0
0
0
0
0
0
0
0
0
0
0
0
0
0
0
0
0
7
4
7
160
68
161
166
66
167
147
60
148
150
61
151
150
61
151
150
61
151
150
61
151
150
61
151
150
61
151
150
61
151
150
61
151
150
61
151
150
61
151
150
61
151
150
61
151
150
61
151
150
61
151
150
61
151
150
61
151
150
61
151
150
61
151
150
61
151
150
61
151
150
61
151
150
61
151
150
61
151
150
61
151
150
61
151
150
61
151
150
61
151
150
61
151
150
61
151
150
61
151
150
61
151
150
61
151
150
61
151
150
61
151
150
61
151
150
61
151
150
61
151
150
61
151
150
61
151
150
61
151
150
61
151
151
61
151
145
58
145
189
76
190
85
38
85
0
0
0
0
0
0
0
0
0
0
0
0
0
0
0
0
0
0
0
0
0
0
0
0
0
0
0
0
0
0
0
0
0
0
0
0
0
0
0
0
0
0
0
0
0
0
0
0
0
0
0
0
0
0
0
0
0
0
0
0
0
0
0
0
0
0
0
0
0
0
0
0
59
28
59
191
78
191
147
60
150
148
62
152
148
62
152
148
62
152
148
62
152
148
62
152
148
62
152
148
62
152
149
62
152
149
62
152
149
62
152
149
62
152
149
62
152
149
62
152
149
62
152
149
62
152
149
62
152
149
62
152
149
62
152
149
62
152
149
62
152
149
62
152
149
62
152
149
62
152
149
62
152
149
62
152
149
62
152
149
62
152
148
62
152
149
62
152
149
62
152
149
62
152
149
62
152
149
62
152
149
62
152
149
62
152
149
62
152
149
62
152
149
62
152
149
62
152
149
62
152
149
62
152
144
61
147
172
69
173
156
67
156
2
3
3
0
0
0
0
0
0
0
0
0
0
0
0
0
0
0
0
0
0
0
0
0
0
0
0
0
0
0
0
0
0
0
0
0
0
0
0
0
0
0
0
0
0
0
0
0
0
0
0
0
0
0
0
0
0
0
0
0
0
0
0
0
0
0
0
0
0
0
0
0
0
0
0
0
0
0
125
55
128
208
57
175
178
35
129
179
41
136
179
41
136
179
41
136
179
41
136
179
41
136
180
40
136
179
40
136
179
40
136
179
40
136
179
40
136
179
40
136
179
40
136
179
40
136
179
40
136
179
40
136
179
40
136
179
40
136
179
40
136
179
40
136
179
40
136
179
40
136
179
40
136
179
40
136
179
40
136
179
40
136
179
40
136
179
40
137
179
41
137
179
40
137
179
40
137
179
40
137
179
40
137
179
40
137
179
40
137
179
40
137
179
40
137
179
40
137
179
40
137
179
40
137
179
40
136
183
36
136
200
69
184
50
26
53
0
0
0
0
0
0
0
0
0
0
0
0
0
0
0
0
0
0
0
0
0
0
0
0
0
0
0
0
0
0
0
0
0
0
0
0
0
0
0
0
0
0
0
0
0
0
0
0
0
0
0
0
0
0
0
0
0
0
0
0
0
0
0
0
0
0
0
0
0
0
0
0
0
0
0
0
0
0
13
9
16
82
134
211
70
133
211
70
116
189
70
120
194
70
120
193
70
120
193
70
120
193
70
120
193
70
120
193
70
120
193
70
120
193
70
120
193
70
120
193
70
120
193
70
120
193
70
120
193
70
120
193
70
120
193
70
120
193
70
120
193
70
120
193
70
120
193
70
120
193
70
120
193
70
120
193
70
120
193
70
120
193
70
120
193
70
120
194
70
120
194
70
119
194
70
119
194
70
119
194
70
119
194
70
119
194
70
119
194
70
119
194
70
119
194
70
119
194
70
119
194
70
120
194
69
113
187
78
152
233
60
85
135
0
0
0
0
0
0
0
0
0
0
0
0
0
0
0
0
0
0
0
0
0
0
0
0
0
0
0
0
0
0
0
0
0
0
0
0
0
0
0
0
0
0
0
0
0
0
0
0
0
0
0
0
0
0
0
0
0
0
0
0
0
0
0
0
0
0
0
0
0
0
0
0
0
0
0
0
0
0
0
0
0
0
0
0
0
87
98
0
222
255
0
178
238
0
178
235
0
178
236
0
178
236
0
178
236
0
178
236
0
178
236
0
178
236
0
178
236
0
178
236
0
178
236
0
178
236
0
178
236
0
178
236
0
178
236
0
178
236
0
178
236
0
178
236
0
178
236
0
178
236
0
178
236
0
178
236
0
178
236
0
178
236
0
178
236
0
178
236
0
178
235
0
178
235
0
178
235
0
178
235
0
178
235
0
178
235
0
178
235
0
178
235
0
178
235
0
178
235
0
178
235
0
179
236
0
174
230
0
199
255
0
196
243
0
27
22
0
0
0
0
0
0
0
0
0
0
0
0
0
0
0
0
0
0
0
0
0
0
0
0
0
0
0
0
0
0
0
0
0
0
0
0
0
0
0
0
0
0
0
0
0
0
0
0
0
0
0
0
0
0
0
0
0
0
0
0
0
0
0
0
0
0
0
0
0
0
0
0
0
0
0
0
0
0
0
0
0
0
0
0
4
0
0
11
112
149
1
198
255
0
149
213
0
156
219
0
156
219
0
156
219
0
155
219
0
155
219
0
155
219
0
155
219
0
155
219
0
155
219
0
155
219
0
155
219
0
155
219
0
155
219
0
155
219
0
155
219
0
155
219
0
155
219
0
155
219
0
155
219
0
155
219
0
155
219
0
155
219
0
155
219
0
155
219
0
155
219
0
156
219
0
156
219
0
156
219
0
156
219
0
156
219
0
156
219
0
156
219
0
156
219
0
156
219
0
156
219
0
153
216
0
162
229
6
195
255
11
43
58
1
0
0
0
0
0
0
0
0
0
0
0
0
0
0
0
0
0
0
0
0
0
0
0
0
0
0
0
0
0
0
0
0
0
0
0
0
0
0
0
0
0
0
0
0
0
0
0
0
0
0
0
0
0
0
0
0
0
0
0
0
0
0
0
0
0
0
0
0
0
0
0
0
0
0
0
0
0
0
0
0
0
0
0
0
0
0
0
0
0
6
0
0
11
152
203
0
189
255
0
149
212
0
158
220
0
157
220
0
157
220
0
157
220
0
157
220
0
157
220
0
157
220
0
157
220
0
157
220
0
157
220
0
157
220
0
157
220
0
157
220
0
157
220
0
157
220
0
157
220
0
157
220
0
157
220
0
157
220
0
157
220
0
157
220
0
157
220
0
157
220
0
157
220
0
157
220
0
157
220
0
157
220
0
157
220
0
157
220
0
157
220
0
157
220
0
157
220
0
157
220
0
156
219
0
156
222
3
205
255
12
86
114
1
0
0
0
0
0
0
0
0
0
0
0
0
0
0
0
0
0
0
0
0
0
0
0
0
0
0
0
0
0
0
0
0
0
0
0
0
0
0
0
0
0
0
0
0
0
0
0
0
0
0
0
0
0
0
0
0
0
0
0
0
0
0
0
0
0
0
0
0
0
0
0
0
0
0
0
0
0
0
0
0
0
0
0
0
0
0
0
0
0
0
0
0
0
0
0
8
16
20
9
174
229
0
186
255
0
149
213
0
157
220
0
157
220
0
157
220
0
157
220
0
157
220
0
157
220
0
157
220
0
157
220
0
157
220
0
157
220
0
157
220
0
156
219
0
155
216
0
155
219
0
159
224
0
161
226
0
160
224
0
156
220
0
154
216
0
156
218
0
157
220
0
157
220
0
157
220
0
157
220
0
157
220
0
157
220
0
157
220
0
157
220
0
157
220
0
157
220
0
157
220
0
155
218
0
154
220
2
204
255
12
113
147
3
0
0
0
0
0
0
0
0
0
0
0
0
0
0
0
0
0
0
0
0
0
0
0
0
0
0
0
0
0
0
0
0
0
0
0
0
0
0
0
0
0
0
0
0
0
0
0
0
0
0
0
0
0
0
0
0
0
0
0
0
0
0
0
0
0
0
0
0
0
0
0
0
0
0
0
0
0
0
0
0
0
0
0
0
0
0
0
0
0
0
0
0
0
0
0
0
0
0
0
0
0
9
26
31
9
175
231
0
188
255
0
151
215
0
156
218
0
158
221
0
157
220
0
157
220
0
157
220
0
157
220
0
157
221
0
156
219
0
153
215
0
158
223
0
175
245
1
189
255
3
187
255
4
180
250
3
177
247
4
179
249
3
185
255
1
189
255
0
179
251
0
163
229
0
153
215
0
155
218
0
157
220
0
157
220
0
157
220
0
157
220
0
157
220
0
157
220
0
158
220
0
153
216
0
158
225
2
203
255
11
123
158
5
0
0
0
0
0
0
0
0
0
0
0
0
0
0
0
0
0
0
0
0
0
0
0
0
0
0
0
0
0
0
0
0
0
0
0
0
0
0
0
0
0
0
0
0
0
0
0
0
0
0
0
0
0
0
0
0
0
0
0
0
0
0
0
0
0
0
0
0
0
0
0
0
0
0
0
0
0
0
0
0
0
0
0
0
0
0
0
0
0
0
0
0
0
0
0
0
0
0
0
0
0
0
0
0
0
0
0
8
21
26
11
158
210
2
200
255
0
163
231
0
151
214
0
156
219
0
156
219
0
156
219
0
155
218
0
152
214
0
164
230
0
190
255
5
181
249
8
142
195
9
98
133
8
68
93
7
51
68
6
42
58
7
48
65
7
64
87
8
86
119
7
129
176
6
170
236
1
194
255
0
174
241
0
153
218
0
154
216
0
156
219
0
156
219
0
156
219
0
154
217
0
152
217
0
178
246
5
201
255
12
109
141
4
0
0
0
0
0
0
0
0
0
0
0
0
0
0
0
0
0
0
0
0
0
0
0
0
0
0
0
0
0
0
0
0
0
0
0
0
0
0
0
0
0
0
0
0
0
0
0
0
0
0
0
0
0
0
0
0
0
0
0
0
0
0
0
0
0
0
0
0
0
0
0
0
0
0
0
0
0
0
0
0
0
0
0
0
0
0
0
0
0
0
0
0
0
0
0
0
0
0
0
0
0
0
0
0
0
0
0
0
0
0
0
0
0
6
0
0
11
110
143
7
186
253
1
193
255
0
177
246
0
171
241
0
173
243
0
180
250
2
193
255
6
180
245
9
123
164
8
50
67
5
0
0
1
0
0
0
0
0
0
0
0
0
0
0
0
0
0
0
0
0
1
0
0
3
0
0
7
27
37
11
96
131
9
163
217
3
193
255
0
186
255
0
174
243
0
171
241
0
172
242
0
183
254
3
195
255
9
166
215
11
64
83
3
0
0
0
0
0
0
0
0
0
0
0
0
0
0
0
0
0
0
0
0
0
0
0
0
0
0
0
0
0
0
0
0
0
0
0
0
0
0
0
0
0
0
0
0
0
0
0
0
0
0
0
0
0
0
0
0
0
0
0
0
0
0
0
0
0
0
0
0
0
0
0
0
0
0
0
0
0
0
0
0
0
0
0
0
0
0
0
0
0
0
0
0
0
0
0
0
0
0
0
0
0
0
0
0
0
0
0
0
0
0
0
0
0
0
0
0
0
0
0
2
0
0
9
34
43
9
101
137
6
140
189
6
150
210
6
149
207
8
135
179
10
92
124
8
31
39
3
0
0
0
0
0
0
0
0
0
0
0
0
0
0
0
0
0
0
0
0
0
0
0
0
0
0
0
0
0
0
0
0
0
0
0
1
0
0
7
5
6
8
71
90
8
121
160
7
146
201
4
150
210
6
149
207
9
127
169
10
76
98
7
2
4
0
0
0
0
0
0
0
0
0
0
0
0
0
0
0
0
0
0
0
0
0
0
0
0
0
0
0
0
0
0
0
0
0
0
0
0
0
0
0
0
0
0
0
0
0
0
0
0
0
0
0
0
0
0
0
0
0
0
0
0
0
0
0
0
0
0
0
0
0
0
0
0
0
0
0
0
0
0
0
0
0
0
0
0
0
0
0
0
0
0
0
0
0
0
0
0
0
0
0
0
0
0
0
0
0
0
0
0
0
0
0
0
0
0
0
0
0
0
0
0
0
0
0
0
0
0
0
0
0
1
0
0
3
0
0
5
4
4
5
1
1
3
0
0
1
0
0
0
0
0
0
0
0
0
0
0
0
0
0
0
0
0
0
0
0
0
0
0
0
0
0
0
0
0
0
0
0
0
0
0
0
0
0
0
0
0
0
0
0
0
0
0
0
0
0
2
0
0
5
0
0
4
4
5
5
1
0
3
0
0
0
0
0
0
0
0
0
0
0
0
0
0
0
0
0
0
0
0
0
0
0
0
0
0
0
0
0
0
0
0
0
0
0
0
0
0
0
0
0
0
0
0
0
0
0
0
0
0
0
0
0
0
0
0
0
0
0
0
0
0
0
0
0
0
0
0
0
0
0
0
0
0
0
0
0
0
0
0
0
0
0
0
0
0
0
0
0
0
0
0
0
0
0
0
0
0
0
0
0
0
0
0
0
0
0
0
0
0
0
0
0
0
0
0
0
0
0
0
0
0
0
0
0
0
0
0
0
0
0
0
0
0
0
0
0
0
0
0
0
0
0
0
0
0
0
0
0
0
0
0
0
0
0
0
0
0
0
0
0
0
0
0
0
0
0
0
0
0
0
0
0
0
0
0
0
0
0
0
0
0
0
0
0
0
0
0
0
0
0
0
0
0
0
0
0
0
0
0
0
0
0
0
0
0
0
0
0
0
0
0
0
0
0
0
0
0
0
0
0
0
0
0
0
0
0
0
0
0
0
0
0
0
0
0
0
0
0
0
0
0
0
0
0
0
0
0
0
0
0
0
0
0
0
0
0
0
0
0
0
0
0
0
0
0
0
0
0
0
0
0
0
0
0
0
0
0
0
0
0
0
0
0
0
0
0
0
0
0
0
0
0
0
0
0
0
0
0
0
0
0
0
0
0
0
0
0
0
0
0
0
0
0
0
0
0
0
0
0
0
0
0
0
0
0
0
0
0
0
0
0
0
0
0
0
0
0
0
0
0
0
0
0
0
0
0
0
0
0
0
0
0
0
0
0
0
0
0
0
0
0
0
0
0
0
0
0
0
0
0
0
0
0
0
0
0
0
0
0
0
0
0
0
0
0
0
0
0
0
0
0
0
0
0
0
0
0
0
0
0
0
0
0
0
0
0
0
0
0
0
0
0
0
0
0
0
0
0
0
0
0
0
0
0
0
0
0
0
0
0
0
0
0
0
0
0
0
0
0
0
0
0
0
0
0
0
0
0
0
0
0
0
0
0
0
0
0
0
0
0
0
0
0
0
0
0
0
0
0
0
0
0
0
0
0
0
0
0
0
0
0
0
0
0
0
0
0
0
0
0
0
0
0
0
0
0
0
0
0
0
0
0
0
0
0
0
0
0
0
0
0
0
0
0
0
0
0
0
0
0
0
0
0
0
0
0
0
0
0
0
0
0
0
0
0
0
0
0
0
0
0
0
0
0
0
0
0
0
0
0
0
0
0
0
0
0
0
0
0
0
0
0
0
0
0
0
0
0
0
0
0
0
0
0
0
0
0
0
0
0
0
0
0
0
0
0
0
0
0
0
0
0
0
0
0
0
0
0
0
0
0
0
0
0
0
0
0
0
0
0
0
0
0
0
0
0
0
0
0
0
0
0
0
0
0
0
0
0
0
0
0
0
0
0
0
0
0
0
0
0
0
0
0
0
0
0
0
0
0
0
0
0
0
0
0
0
0
0
0
0
0
0
0
0
0
0
0
0
0
0
0
0
0
0
0
0
0
0
0
0
0
0
0
0
0
0
0
0
0
0
0
0
0
0
0
0
0
0
0
0
0
0
0
0
0
0
0
0
0
0
0
0
0
0
0
0
0
0
