P3
72 72
255
0
0
0
0
0
0
0
0
0
0
0
0
0
0
0
0
0
0
0
0
0
0
0
0
0
0
0
0
0
0
0
0
0
0
0
0
0
0
0
0
0
0
0
0
0
0
0
0
0
0
0
0
0
0
0
0
0
0
0
0
0
0
0
0
0
0
0
0
0
0
0
0
0
0
0
0
0
0
0
0
0
0
0
0
0
0
0
0
0
0
0
0
0
0
0
0
0
0
0
0
0
0
0
0
0
0
0
0
0
0
0
0
0
0
0
0
0
0
0
0
0
0
0
0
0
0
0
0
0
0
0
0
0
0
0
0
0
0
0
0
0
0
0
0
0
0
0
0
0
0
0
0
0
0
0
0
0
0
0
0
0
0
0
0
0
0
0
0
0
0
0
0
0
0
0
0
0
0
0
0
0
0
0
0
0
0
0
0
0
0
0
0
0
0
0
0
0
0
0
0
0
0
0
0
0
0
0
0
0
0
0
0
0
0
0
0
0
0
0
0
0
0
0
0
0
0
0
0
0
0
0
0
0
0
0
0
0
0
0
0
0
0
0
0
0
0
0
0
0
0
0
0
0
0
0
0
0
0
0
0
0
0
0
0
0
0
0
0
0
0
0
0
0
0
0
0
0
0
0
0
0
0
0
0
0
0
0
0
0
0
0
0
0
0
0
0
0
0
0
0
0
0
0
0
0
0
0
0
0
0
0
0
0
0
0
0
0
0
0
0
0
0
0
0
0
0
0
0
0
0
0
0
0
0
0
0
0
0
0
0
0
0
0
0
0
0
0
0
0
0
0
0
0
0
0
0
0
0
0
0
0
0
0
0
0
0
0
0
0
0
0
0
0
0
0
0
0
0
0
0
0
0
0
0
0
0
0
0
0
0
0
0
0
0
0
0
0
0
0
0
0
0
0
0
0
0
0
0
0
0
0
0
0
0
0
0
0
0
0
0
0
0
0
0
0
0
0
0
0
0
0
0
0
0
0
0
0
0
0
0
0
0
0
0
0
0
0
0
0
0
0
0
0
0
0
0
0
0
0
0
0
0
0
0
0
0
0
0
0
0
0
0
0
0
0
0
0
0
0
0
0
0
0
0
0
0
0
0
0
0
0
0
0
0
0
0
0
0
0
0
0
0
0
0
0
0
0
0
0
0
0
0
0
0
0
0
0
0
0
0
0
0
0
0
0
0
0
0
0
0
0
0
0
0
0
0
0
0
0
0
0
0
0
0
0
0
0
0
0
0
0
0
0
0
0
0
0
0
0
0
0
0
0
0
0
0
0
0
0
0
0
0
0
0
0
0
0
0
0
0
0
0
0
0
0
0
0
0
0
0
0
0
0
0
0
0
0
0
0
0
0
0
0
0
0
0
0
0
0
0
0
0
0
0
0
0
0
0
0
0
0
0
0
0
0
0
0
0
0
0
0
0
0
0
0
0
0
0
0
0
0
0
0
0
0
0
0
0
0
0
0
0
0
0
0
0
0
0
0
0
0
0
0
0
0
0
0
0
0
0
0
0
0
0
0
0
0
0
0
0
0
0
0
0
0
0
0
0
0
0
0
0
0
0
0
0
0
0
0
0
0
0
0
0
0
0
0
0
0
0
0
0
0
0
0
0
0
0
0
0
0
0
0
0
0
0
0
0
0
0
0
0
0
0
0
0
0
0
0
0
0
0
0
0
0
0
0
0
0
0
0
0
0
0
0
0
0
0
0
0
0
0
0
0
0
0
0
0
0
0
0
0
0
0
0
0
0
0
0
0
4
0
5
32
0
25
59
0
43
27
0
22
0
0
0
0
0
0
0
0
0
0
0
0
0
0
0
0
0
0
0
0
0
0
0
0
0
0
0
0
0
0
0
0
0
0
0
0
0
0
0
0
0
0
0
0
0
0
0
0
0
0
0
0
0
0
0
0
0
0
0
0
0
0
0
0
0
0
0
0
0
0
0
0
0
0
0
0
0
0
0
0
0
0
0
0
0
0
0
0
0
0
0
0
0
0
0
0
0
0
0
0
0
0
0
0
0
0
0
0
0
0
0
0
0
0
0
0
0
0
0
0
0
0
0
0
0
0
0
0
0
0
0
0
0
0
0
0
0
0
0
0
0
0
0
0
0
0
0
0
0
0
0
0
0
0
0
0
0
0
0
0
0
0
0
0
0
0
0
0
0
0
0
0
0
0
0
0
0
0
0
0
0
0
0
0
0
0
0
0
0
0
0
0
0
0
0
0
0
0
25
0
20
71
0
53
98
0
71
111
0
80
139
0
99
66
0
49
0
0
0
0
0
0
0
0
0
0
0
0
0
0
0
0
0
0
0
0
0
0
0
0
0
0
0
0
0
0
0
0
0
0
0
0
0
0
0
0
0
0
0
0
0
0
0
0
0
0
0
0
0
0
0
0
0
0
0
0
0
0
0
0
0
0
0
0
0
0
0
0
0
0
0
0
0
0
0
0
0
0
0
0
0
0
0
0
0
0
0
0
0
0
0
0
0
0
0
0
0
0
0
0
0
0
0
0
0
0
0
0
0
0
0
0
0
0
0
0
0
0
0
0
0
0
0
0
0
0
0
0
0
0
0
0
0
0
0
0
0
0
0
0
0
0
0
0
0
0
0
0
0
0
0
0
0
0
0
0
0
0
0
0
0
0
0
0
0
0
0
0
0
0
0
0
0
0
0
0
0
0
0
0
0
0
0
0
0
0
0
0
11
0
10
77
0
59
115
0
84
118
0
84
105
0
74
96
0
68
115
0
81
61
0
45
0
0
0
0
0
0
0
0
0
0
0
0
0
0
0
0
0
0
0
0
0
0
0
0
0
0
0
0
0
0
0
0
0
0
0
0
0
0
0
0
0
0
0
0
0
0
0
0
0
0
0
0
0
0
0
0
0
0
0
0
0
0
0
0
0
0
0
0
0
0
0
0
0
0
0
0
0
0
0
0
0
0
0
0
0
0
0
0
0
0
0
0
0
0
0
0
0
0
0
0
0
0
0
0
0
0
0
0
0
0
0
0
0
0
0
0
0
0
0
0
0
0
0
0
0
0
0
0
0
0
0
0
0
0
0
0
0
0
0
0
0
0
0
0
0
0
0
0
0
0
0
0
0
0
0
0
0
0
0
0
0
0
0
0
0
0
0
0
0
0
0
0
0
0
0
0
0
0
0
0
0
0
0
0
0
0
0
0
0
37
0
28
108
0
79
121
0
86
100
0
70
94
0
67
96
0
69
95
0
68
117
0
84
57
0
43
0
0
0
0
0
0
0
0
0
0
0
0
0
0
0
0
0
0
0
0
0
0
0
0
0
0
0
0
0
0
0
0
0
0
0
0
0
0
0
0
0
0
0
0
0
0
0
0
0
0
0
0
0
0
0
0
0
0
0
0
0
0
0
0
0
0
0
0
0
0
0
0
0
0
0
0
0
0
0
0
0
0
0
0
0
0
0
0
0
0
0
0
0
0
0
0
0
0
0
0
0
0
0
0
0
0
0
0
0
0
0
0
0
0
0
0
0
0
0
0
0
0
0
0
0
0
0
0
0
0
0
0
0
0
0
0
0
0
0
0
0
0
0
0
0
0
0
0
0
0
0
0
0
0
0
0
0
0
0
0
0
0
0
0
0
0
0
0
0
0
0
0
0
0
0
0
0
0
0
0
0
0
0
0
0
0
54
0
41
125
0
90
107
0
75
93
0
65
97
0
69
97
0
69
97
0
69
95
0
68
117
0
84
45
0
34
0
0
0
0
0
0
0
0
0
0
0
0
0
0
0
0
0
0
0
0
0
0
0
0
0
0
0
0
0
0
0
0
0
0
0
0
0
0
0
0
0
0
0
0
0
0
0
0
0
0
0
0
0
0
0
0
0
0
0
0
0
0
0
0
0
0
0
0
0
0
0
0
0
0
0
0
0
0
0
0
0
0
0
0
0
0
0
0
0
0
0
0
0
0
0
0
0
0
0
0
0
0
0
0
0
0
0
0
0
0
0
0
0
0
0
0
0
0
0
0
0
0
0
0
0
0
0
0
0
0
0
0
0
0
0
0
0
0
0
0
0
0
0
0
0
0
0
0
0
0
0
0
0
0
0
0
0
0
0
0
0
0
0
0
0
0
0
0
0
0
0
0
0
0
0
0
0
0
0
0
0
0
0
49
0
38
127
0
91
100
0
71
94
0
67
97
0
69
97
0
69
97
0
69
97
0
69
99
0
70
110
0
79
20
0
16
0
0
0
0
0
0
0
0
0
0
0
0
0
0
0
0
0
0
0
0
0
0
0
0
0
0
0
0
0
0
0
0
0
0
0
0
0
0
0
0
0
0
0
0
0
0
0
0
0
0
0
0
0
0
0
0
0
0
0
0
0
0
0
0
0
0
0
0
0
0
0
0
0
0
0
0
0
0
0
0
0
0
0
0
0
0
0
0
0
0
0
0
0
0
0
0
0
0
0
0
0
0
0
0
0
0
0
0
0
0
0
0
0
0
0
0
0
0
0
0
0
0
0
0
0
0
0
0
0
0
0
0
0
0
0
0
0
0
0
0
0
0
0
0
0
0
0
0
0
0
0
0
0
0
0
0
0
0
0
0
0
0
0
0
0
0
0
0
0
0
0
0
0
0
0
0
0
0
0
0
27
0
22
122
0
89
102
0
72
94
0
68
97
0
69
97
0
69
97
0
69
97
0
69
95
0
68
111
0
78
92
0
68
0
0
0
0
0
0
0
0
0
0
0
0
0
0
0
0
0
0
0
0
0
0
0
0
0
0
0
0
0
0
0
0
0
0
0
0
0
0
0
0
0
0
0
0
0
0
0
0
0
0
0
0
0
0
0
0
0
0
0
0
0
0
0
0
0
0
0
0
0
0
0
0
0
0
0
0
0
0
0
0
0
0
0
0
0
0
0
0
0
0
0
0
0
0
0
0
0
0
0
0
0
0
0
0
0
0
0
0
0
0
0
0
0
0
0
0
0
0
0
0
0
0
0
0
0
0
0
0
0
0
0
0
0
0
0
0
0
0
0
0
0
0
0
0
0
0
0
0
0
0
0
0
0
0
0
0
0
0
0
0
0
0
0
0
0
0
0
0
0
0
0
0
0
0
0
0
0
0
0
0
2
0
4
99
0
72
111
0
78
93
0
67
97
0
69
97
0
69
97
0
69
97
0
69
97
0
69
93
0
67
122
0
86
54
0
41
0
0
0
0
0
0
0
0
0
0
0
0
0
0
0
0
0
0
0
0
0
0
0
0
0
0
0
0
0
0
0
0
0
0
0
0
0
0
0
0
0
0
0
0
0
0
0
0
0
0
0
0
0
0
0
0
0
0
0
0
0
0
0
0
0
0
0
0
0
0
0
0
0
0
0
0
0
0
0
0
0
0
0
0
0
0
0
0
0
0
0
0
0
0
0
0
0
0
0
0
0
0
0
0
0
0
0
0
0
0
0
0
0
0
0
0
0
0
0
0
0
0
0
0
0
0
0
0
0
0
0
0
0
0
0
0
0
0
0
0
0
0
0
0
0
0
0
0
0
0
0
0
0
0
0
0
0
0
0
0
0
0
0
0
0
0
0
0
0
0
0
0
0
0
0
0
0
0
0
0
56
0
43
122
0
87
94
0
66
97
0
69
97
0
69
97
0
69
97
0
69
97
0
69
96
0
69
104
0
74
104
0
75
8
0
6
0
0
0
0
0
0
0
0
0
0
0
0
0
0
0
0
0
0
0
0
0
0
0
0
0
0
0
0
0
0
0
0
0
0
0
0
0
0
0
0
0
0
0
0
0
0
0
0
0
0
0
0
0
0
0
0
0
0
0
0
0
0
0
0
0
0
0
0
0
0
0
0
0
0
0
0
0
0
0
0
0
0
0
0
0
0
0
0
0
0
0
0
0
0
0
0
0
0
0
0
0
0
0
0
0
0
0
0
0
0
0
0
0
0
0
0
0
0
0
0
0
0
0
0
0
0
0
0
0
0
0
0
0
0
0
0
0
0
0
0
0
0
0
0
0
0
0
0
0
0
0
0
0
0
0
0
0
0
0
0
0
0
0
0
0
0
0
0
0
0
0
0
0
0
0
0
0
5
0
5
104
0
75
106
0
75
96
0
68
97
0
69
97
0
69
97
0
69
97
0
69
97
0
69
94
0
66
124
0
89
51
0
39
0
0
0
0
0
0
0
0
0
0
0
0
0
0
0
0
0
0
0
0
0
0
0
0
0
0
0
0
0
0
0
0
0
0
0
0
0
0
0
0
0
0
0
0
0
0
0
0
0
0
0
0
0
0
0
0
0
0
0
0
0
0
0
0
0
0
0
0
0
0
0
0
0
0
0
0
0
0
0
0
0
0
0
0
0
0
0
0
0
0
0
0
0
0
0
0
0
0
0
0
0
0
0
0
0
0
0
0
0
0
0
0
0
0
0
0
0
0
0
0
0
0
0
0
0
0
0
0
0
0
0
0
0
0
0
0
0
0
0
0
0
0
0
0
0
0
0
0
0
0
0
0
0
0
0
0
0
0
0
0
0
0
0
0
0
0
0
0
0
0
0
0
0
0
0
0
0
0
0
0
45
0
34
120
0
86
94
0
67
97
0
69
97
0
69
97
0
69
97
0
69
97
0
69
92
0
65
118
0
83
93
0
69
0
0
0
0
0
0
0
0
0
0
0
0
0
0
0
0
0
0
0
0
0
0
0
0
0
0
0
0
0
0
0
0
0
0
0
0
0
0
0
0
0
0
0
0
0
0
0
0
0
0
0
0
0
0
0
0
0
0
0
0
0
0
0
0
0
0
0
0
0
0
0
0
0
0
0
0
0
0
0
0
0
0
0
0
0
0
0
0
0
0
0
0
0
0
0
0
0
0
0
0
0
0
0
0
0
0
0
0
0
0
0
0
0
0
0
0
0
0
0
0
0
0
0
0
0
0
0
0
0
0
0
0
0
0
0
0
0
0
0
0
0
0
0
0
0
0
0
0
0
0
0
0
0
0
0
0
0
0
0
0
0
0
0
0
0
0
0
0
0
0
0
0
0
0
0
0
0
0
0
0
0
0
0
78
0
59
114
0
80
95
0
68
97
0
69
97
0
69
97
0
69
97
0
69
92
0
66
111
0
78
113
0
83
14
0
12
0
0
0
0
0
0
0
0
0
0
0
0
0
0
0
0
0
0
0
0
0
0
0
0
0
0
0
0
0
0
0
0
0
0
0
0
0
0
0
0
0
0
0
0
0
0
0
0
0
0
0
0
0
0
0
0
0
0
0
0
0
0
0
0
0
0
0
0
0
0
0
0
0
0
0
0
0
0
0
0
0
0
0
0
0
0
0
0
0
0
0
0
0
0
0
0
0
0
0
0
0
0
0
0
0
0
0
0
0
0
0
0
0
0
0
0
0
0
0
0
0
0
0
0
0
0
0
0
0
0
0
0
0
0
0
0
0
0
0
0
0
0
0
0
0
0
0
0
0
0
0
0
0
0
0
0
0
0
0
0
0
0
0
0
0
0
0
0
0
0
0
0
0
0
0
0
0
0
0
0
2
0
2
94
0
68
106
0
75
97
0
69
97
0
69
97
0
69
96
0
69
93
0
66
115
0
81
114
0
83
21
0
17
0
0
0
0
0
0
0
0
0
0
0
0
0
0
0
0
0
0
0
0
0
0
0
0
0
0
0
0
0
0
0
0
0
0
0
0
0
0
0
0
0
0
0
0
0
0
0
0
0
0
0
0
0
0
0
0
0
0
0
0
0
0
0
0
0
0
0
0
0
0
0
0
0
0
0
0
0
0
0
0
0
0
0
0
0
0
0
0
0
0
0
0
0
0
0
0
0
0
0
0
0
0
0
0
0
0
0
0
0
0
0
0
0
0
0
0
0
0
0
0
0
0
0
0
0
0
0
0
0
0
0
0
0
0
0
0
0
0
0
0
0
0
0
0
0
0
0
0
0
0
0
0
0
0
0
0
0
0
0
0
0
0
0
0
0
0
0
0
0
0
0
0
0
0
0
0
0
0
0
0
0
0
0
16
0
14
101
0
74
102
0
72
97
0
69
96
0
68
94
0
66
101
0
71
123
0
87
101
0
74
18
0
15
0
0
0
0
0
0
0
0
0
0
0
0
0
0
0
0
0
0
0
0
0
0
0
0
0
0
0
0
0
0
0
0
0
0
0
0
0
0
0
0
0
0
0
0
0
0
0
0
0
0
0
0
0
0
0
0
0
0
0
0
0
0
0
0
0
0
0
0
0
0
0
0
0
0
0
0
0
0
0
0
0
0
0
0
0
0
0
0
0
0
0
0
0
0
0
0
0
0
0
0
0
0
0
0
0
0
0
0
0
0
0
0
0
0
0
0
0
0
0
0
0
0
0
0
0
0
0
0
0
0
0
0
0
0
0
0
0
0
0
0
0
0
0
0
0
0
0
0
0
0
0
0
0
0
0
0
0
0
0
0
0
0
0
0
0
0
0
0
0
0
0
0
0
0
0
0
0
0
0
0
0
0
0
0
0
0
24
0
19
105
0
77
100
0
70
100
0
70
109
0
77
120
0
86
110
0
80
67
0
50
1
0
2
0
0
0
0
0
0
0
0
0
0
0
0
0
0
0
0
0
0
0
0
0
0
0
0
0
0
0
0
0
0
0
0
0
0
0
0
0
0
0
0
0
0
0
0
0
0
0
0
0
0
0
0
0
0
0
0
0
0
0
0
0
0
0
0
0
0
0
0
0
0
0
0
0
0
0
0
0
0
0
0
0
0
0
0
0
0
0
0
0
0
0
0
0
0
0
0
0
0
0
0
0
0
0
0
0
0
0
0
0
0
0
0
0
0
0
0
0
0
0
0
0
0
0
0
0
0
0
0
0
0
0
0
0
0
0
0
0
0
0
0
0
0
0
0
0
0
0
0
0
0
10
0
9
34
0
27
50
0
37
56
0
42
55
0
41
50
0
37
36
0
28
14
0
12
0
0
0
0
0
0
0
0
0
0
0
0
0
0
0
14
0
13
117
0
85
121
0
85
109
0
79
96
0
71
63
0
48
18
0
15
0
0
0
0
0
0
0
0
0
0
0
0
11
0
9
34
0
25
47
0
36
54
0
40
57
0
42
54
0
39
43
0
33
23
0
19
0
0
0
0
0
0
0
0
0
0
0
0
0
0
0
0
0
0
0
0
0
0
0
0
0
0
0
0
0
0
0
0
0
0
0
0
0
0
0
0
0
0
0
0
0
0
0
0
0
0
0
0
0
0
0
0
0
0
0
0
0
0
0
0
0
0
0
0
0
0
0
0
0
0
0
0
0
0
0
0
0
0
0
0
0
0
0
0
0
0
0
0
0
0
0
0
0
0
0
0
0
0
0
0
0
0
0
0
0
0
0
0
0
0
43
0
32
81
0
60
105
0
76
113
0
82
117
0
84
116
0
83
116
0
83
117
0
83
114
0
81
106
0
76
88
0
64
55
0
42
22
0
17
0
0
0
0
0
0
0
0
0
34
0
27
38
0
28
18
0
14
0
0
0
0
0
0
0
0
0
0
0
0
16
0
12
52
0
39
85
0
62
104
0
76
113
0
81
117
0
83
117
0
83
117
0
83
117
0
83
115
0
82
111
0
80
96
0
71
61
0
46
19
0
16
0
0
0
0
0
0
0
0
0
0
0
0
0
0
0
0
0
0
0
0
0
0
0
0
0
0
0
0
0
0
0
0
0
0
0
0
0
0
0
0
0
0
0
0
0
0
0
0
0
0
0
0
0
0
0
0
0
0
0
0
0
0
0
0
0
0
0
0
0
0
0
0
0
0
0
0
0
0
0
0
0
0
0
0
0
0
0
0
0
0
0
0
0
0
0
0
0
0
0
40
0
30
95
0
69
119
0
85
116
0
82
103
0
73
97
0
69
95
0
67
95
0
68
95
0
68
95
0
67
97
0
68
102
0
72
112
0
79
119
0
86
108
0
78
84
0
62
50
0
37
20
0
17
0
0
0
0
0
0
0
0
0
0
0
0
10
0
9
43
0
32
77
0
56
105
0
76
120
0
86
113
0
80
103
0
73
97
0
69
95
0
68
95
0
68
95
0
68
95
0
68
96
0
67
99
0
70
109
0
77
120
0
86
110
0
80
70
0
53
9
0
9
0
0
0
0
0
0
0
0
0
0
0
0
0
0
0
0
0
0
0
0
0
0
0
0
0
0
0
0
0
0
0
0
0
0
0
0
0
0
0
0
0
0
0
0
0
0
0
0
0
0
0
0
0
0
0
0
0
0
0
0
0
0
0
0
0
0
0
0
0
0
0
0
0
0
0
0
0
0
0
0
0
0
0
0
0
0
0
4
0
4
80
0
60
122
0
88
109
0
77
95
0
67
95
0
68
96
0
69
97
0
69
97
0
69
97
0
69
97
0
69
97
0
69
97
0
69
97
0
69
95
0
68
95
0
67
99
0
70
112
0
78
118
0
84
109
0
79
94
0
69
80
0
59
78
0
56
87
0
63
103
0
74
116
0
83
115
0
81
101
0
71
95
0
67
95
0
68
97
0
69
97
0
69
97
0
69
97
0
69
97
0
69
97
0
69
97
0
69
97
0
69
96
0
68
94
0
67
100
0
71
121
0
86
108
0
79
36
0
28
0
0
0
0
0
0
0
0
0
0
0
0
0
0
0
0
0
0
0
0
0
0
0
0
0
0
0
0
0
0
0
0
0
0
0
0
0
0
0
0
0
0
0
0
0
0
0
0
0
0
0
0
0
0
0
0
0
0
0
0
0
0
0
0
0
0
0
0
0
0
0
0
0
0
0
0
0
0
0
0
0
16
0
13
101
0
75
121
0
86
96
0
68
94
0
67
97
0
69
97
0
69
97
0
69
97
0
69
97
0
69
97
0
69
97
0
69
97
0
69
97
0
69
97
0
69
97
0
69
97
0
69
97
0
69
96
0
68
95
0
67
100
0
71
107
0
75
113
0
79
114
0
80
110
0
77
103
0
73
96
0
68
95
0
68
97
0
69
97
0
69
97
0
69
97
0
69
97
0
69
97
0
69
97
0
69
97
0
69
97
0
69
97
0
69
97
0
69
97
0
69
97
0
69
97
0
69
93
0
66
108
0
76
123
0
89
60
0
46
0
0
0
0
0
0
0
0
0
0
0
0
0
0
0
0
0
0
0
0
0
0
0
0
0
0
0
0
0
0
0
0
0
0
0
0
0
0
0
0
0
0
0
0
0
0
0
0
0
0
0
0
0
0
0
0
0
0
0
0
0
0
0
0
0
0
0
0
0
0
0
0
0
0
0
18
0
14
112
0
82
115
0
81
92
0
66
97
0
69
97
0
69
97
0
69
97
0
69
97
0
69
97
0
69
97
0
69
97
0
69
97
0
69
97
0
69
97
0
69
97
0
69
97
0
69
97
0
69
97
0
69
97
0
69
97
0
69
97
0
69
96
0
69
96
0
68
96
0
68
96
0
68
97
0
69
97
0
69
97
0
69
97
0
69
97
0
69
97
0
69
97
0
69
97
0
69
97
0
69
97
0
69
97
0
69
97
0
69
97
0
69
97
0
69
97
0
69
97
0
69
97
0
69
97
0
69
94
0
67
100
0
69
126
0
90
64
0
49
0
0
0
0
0
0
0
0
0
0
0
0
0
0
0
0
0
0
0
0
0
0
0
0
0
0
0
0
0
0
0
0
0
0
0
0
0
0
0
0
0
0
0
0
0
0
0
0
0
0
0
0
0
0
0
0
0
0
0
0
0
0
0
0
0
0
0
0
0
13
0
8
110
0
78
116
0
80
95
0
65
100
0
69
100
0
69
100
0
69
100
0
69
99
0
69
99
0
69
99
0
69
99
0
69
99
0
69
99
0
69
99
0
69
99
0
69
99
0
69
99
0
69
99
0
69
99
0
69
99
0
69
99
0
69
99
0
69
99
0
69
99
0
69
99
0
69
99
0
69
99
0
69
99
0
69
99
0
69
99
0
69
99
0
69
99
0
69
99
0
69
99
0
69
99
0
69
99
0
68
99
0
68
99
0
68
99
0
68
99
0
68
99
0
68
99
0
68
99
0
68
99
0
68
100
0
69
98
0
68
95
0
66
127
0
90
75
0
56
1
0
1
0
0
0
0
0
0
0
0
0
0
0
0
0
0
0
0
0
0
0
0
0
0
0
0
0
0
0
0
0
0
0
0
0
0
0
0
0
0
0
0
0
0
0
0
0
0
0
0
0
0
0
0
0
0
0
0
0
0
0
0
0
0
5
62
0
75
90
0
89
64
0
72
69
0
75
69
0
75
69
0
75
69
0
75
69
0
75
70
0
75
70
0
75
70
0
75
70
0
75
70
0
75
70
0
75
70
0
75
70
0
75
70
0
75
70
0
75
70
0
75
70
0
75
70
0
75
70
0
75
70
0
75
70
0
75
70
0
75
70
0
75
70
0
75
70
0
75
70
0
75
70
0
75
70
0
75
70
0
75
70
0
75
70
0
75
70
0
75
70
0
75
70
0
75
70
0
75
70
0
75
70
0
75
70
0
75
70
0
75
70
0
75
70
0
75
70
0
75
70
0
75
64
0
73
97
0
77
124
0
87
81
0
61
3
0
3
0
0
0
0
0
0
0
0
0
0
0
0
0
0
0
0
0
0
0
0
0
0
0
0
0
0
0
0
0
0
0
0
0
0
0
0
0
0
0
0
0
0
0
0
0
0
0
0
0
0
0
0
0
0
0
0
0
0
0
0
80
0
38
161
0
79
129
0
59
132
0
62
132
0
62
132
0
62
132
0
62
132
0
62
132
0
62
132
0
61
132
0
61
132
0
61
132
0
61
132
0
61
132
0
61
132
0
61
132
0
61
132
0
61
132
0
61
132
0
61
132
0
61
132
0
61
132
0
61
132
0
61
132
0
61
132
0
61
132
0
61
132
0
61
132
0
61
132
0
61
132
0
61
132
0
61
132
0
61
132
0
61
132
0
61
132
0
61
132
0
61
132
0
62
132
0
62
132
0
62
132
0
62
132
0
62
132
0
62
132
0
62
132
0
62
132
0
62
130
0
60
164
0
67
131
0
75
36
0
27
0
0
0
0
0
0
0
0
0
0
0
0
0
0
0
0
0
0
0
0
0
0
0
0
0
0
0
0
0
0
0
0
0
0
0
0
0
0
0
0
0
0
0
0
0
0
0
0
0
0
0
0
0
0
0
0
0
0
0
0
0
0
0
30
0
11
255
0
47
255
0
33
255
0
33
255
0
33
255
0
33
255
0
33
255
0
33
255
0
33
255
0
34
255
0
34
255
0
34
255
0
34
255
0
34
255
0
34
255
0
34
255
0
34
255
0
34
255
0
34
255
0
34
255
0
34
255
0
34
255
0
34
255
0
34
255
0
34
255
0
34
255
0
34
255
0
34
255
0
34
255
0
34
255
0
34
255
0
34
255
0
34
255
0
34
255
0
34
255
0
34
255
0
34
255
0
34
255
0
34
255
0
34
255
0
34
255
0
34
255
0
34
255
0
34
255
0
34
255
0
34
255
0
32
255
0
39
240
0
40
42
0
6
0
0
0
0
0
0
0
0
0
0
0
0
0
0
0
0
0
0
0
0
0
0
0
0
0
0
0
0
0
0
0
0
0
0
0
0
0
0
0
0
0
0
0
0
0
0
0
0
0
0
0
0
0
0
0
0
0
0
0
0
0
0
0
0
0
0
159
0
33
255
0
48
255
0
37
255
0
39
255
0
38
255
0
38
255
0
38
255
0
38
255
0
38
255
0
39
255
0
39
255
0
39
255
0
39
255
0
39
255
0
39
255
0
39
255
0
39
255
0
39
255
0
39
255
0
39
255
0
39
255
0
39
255
0
39
255
0
39
255
0
39
255
0
39
255
0
39
255
0
39
255
0
39
255
0
39
255
0
39
255
0
39
255
0
39
255
0
39
255
0
39
255
0
39
255
0
39
255
0
39
255
0
39
255
0
39
255
0
39
255
0
39
255
0
39
255
0
39
255
0
39
255
0
38
255
0
43
235
0
46
23
0
7
0
0
0
0
0
0
0
0
0
0
0
0
0
0
0
0
0
0
0
0
0
0
0
0
0
0
0
0
0
0
0
0
0
0
0
0
0
0
0
0
0
0
0
0
0
0
0
0
0
0
0
0
0
0
0
0
0
0
0
0
0
0
0
0
0
0
20
0
8
252
0
46
255
0
39
252
0
39
252
0
39
252
0
39
252
0
39
252
0
39
252
0
39
252
0
39
252
0
39
252
0
39
252
0
39
252
0
39
252
0
39
252
0
39
252
0
39
252
0
39
252
0
39
252
0
39
252
0
39
252
0
39
252
0
39
252
0
39
252
0
39
252
0
39
252
0
39
252
0
39
252
0
39
252
0
39
252
0
39
252
0
39
252
0
39
252
0
39
252
0
39
252
0
39
252
0
39
252
0
39
252
0
39
252
0
39
252
0
39
252
0
39
252
0
39
252
0
39
252
0
39
251
0
39
255
0
39
255
0
48
47
0
15
0
0
0
0
0
0
0
0
0
0
0
0
0
0
0
0
0
0
0
0
0
0
0
0
0
0
0
0
0
0
0
0
0
0
0
0
0
0
0
0
0
0
0
0
0
0
0
0
0
0
0
0
0
0
0
0
0
0
0
0
0
0
0
0
0
0
0
0
0
104
0
23
255
0
48
254
0
38
252
0
39
252
0
39
252
0
39
252
0
39
252
0
39
252
0
39
252
0
39
252
0
39
252
0
39
252
0
39
252
0
39
252
0
39
252
0
39
252
0
39
252
0
39
252
0
39
252
0
39
252
0
39
252
0
39
252
0
39
252
0
39
252
0
39
252
0
39
252
0
39
252
0
39
252
0
39
252
0
39
252
0
39
252
0
39
252
0
39
252
0
39
252
0
39
252
0
39
252
0
39
252
0
39
252
0
39
252
0
39
252
0
39
252
0
39
252
0
39
252
0
39
252
0
39
254
0
38
255
0
48
140
0
30
0
0
0
0
0
0
0
0
0
0
0
0
0
0
0
0
0
0
0
0
0
0
0
0
0
0
0
0
0
0
0
0
0
0
0
0
0
0
0
0
0
0
0
0
0
0
0
0
0
0
0
0
0
0
0
0
0
0
0
0
0
0
0
0
0
0
0
0
0
0
0
0
177
0
36
255
0
44
252
0
39
252
0
39
252
0
39
252
0
39
252
0
39
252
0
39
252
0
39
252
0
39
252
0
39
252
0
39
252
0
39
252
0
39
252
0
39
252
0
39
252
0
39
252
0
39
252
0
39
252
0
39
252
0
39
252
0
39
252
0
39
252
0
39
252
0
39
252
0
39
252
0
39
252
0
39
252
0
39
252
0
39
252
0
39
252
0
39
252
0
39
252
0
39
252
0
39
252
0
39
252
0
39
252
0
39
252
0
39
252
0
39
252
0
39
252
0
39
252
0
39
252
0
39
251
0
39
255
0
40
243
0
46
9
0
5
0
0
0
0
0
0
0
0
0
0
0
0
0
0
0
0
0
0
0
0
0
0
0
0
0
0
0
0
0
0
0
0
0
0
0
0
0
0
0
0
0
0
0
0
0
0
0
0
0
0
0
0
0
0
0
0
0
0
0
0
0
0
0
0
0
0
0
0
0
6
0
5
232
0
42
255
0
40
252
0
39
252
0
39
252
0
39
252
0
39
252
0
39
252
0
39
252
0
39
252
0
39
252
0
39
252
0
39
252
0
39
252
0
39
252
0
39
252
0
39
252
0
39
252
0
39
252
0
39
252
0
39
252
0
39
252
0
39
252
0
39
252
0
39
252
0
39
252
0
39
252
0
39
252
0
39
252
0
39
252
0
39
252
0
39
252
0
39
252
0
39
252
0
39
252
0
39
252
0
39
252
0
39
252
0
39
252
0
39
252
0
39
252
0
39
252
0
39
252
0
39
252
0
39
252
0
38
255
0
47
148
0
30
0
0
0
0
0
0
0
0
0
0
0
0
0
0
0
0
0
0
0
0
0
0
0
0
0
0
0
0
0
0
0
0
0
0
0
0
0
0
0
0
0
0
0
0
0
0
0
0
0
0
0
0
0
0
0
0
0
0
0
0
0
0
0
0
0
0
0
0
0
0
0
0
51
0
14
255
0
46
255
0
40
253
0
40
253
0
40
253
0
40
253
0
40
253
0
40
253
0
40
253
0
40
253
0
40
253
0
40
253
0
40
253
0
40
253
0
40
253
0
40
253
0
40
253
0
40
253
0
40
253
0
40
253
0
40
253
0
40
253
0
40
253
0
40
253
0
40
253
0
40
253
0
40
253
0
40
253
0
40
253
0
40
253
0
40
253
0
40
253
0
40
253
0
40
253
0
40
253
0
40
253
0
40
253
0
40
253
0
40
253
0
40
253
0
40
253
0
40
253
0
40
253
0
40
253
0
40
255
0
41
255
0
49
66
0
15
0
0
0
0
0
0
0
0
0
0
0
0
0
0
0
0
0
0
0
0
0
0
0
0
0
0
0
0
0
0
0
0
0
0
0
0
0
0
0
0
0
0
0
0
0
0
0
0
0
0
0
0
0
0
0
0
0
0
0
0
0
0
0
0
0
0
0
0
0
0
0
0
83
0
17
255
0
45
255
0
38
251
0
38
251
0
38
251
0
38
251
0
38
251
0
38
251
0
38
251
0
38
251
0
38
251
0
38
251
0
38
251
0
38
251
0
38
251
0
38
251
0
38
251
0
38
251
0
38
251
0
38
251
0
38
251
0
38
251
0
38
251
0
38
251
0
38
251
0
38
251
0
38
251
0
38
251
0
38
251
0
38
251
0
38
251
0
38
251
0
38
251
0
38
251
0
38
251
0
38
251
0
38
251
0
38
251
0
38
251
0
38
251
0
38
251
0
38
251
0
38
251
0
38
251
0
38
255
0
39
238
0
41
12
0
7
0
0
0
0
0
0
0
0
0
0
0
0
0
0
0
0
0
0
0
0
0
0
0
0
0
0
0
0
0
0
0
0
0
0
0
0
0
0
0
0
0
0
0
0
0
0
0
0
0
0
0
0
0
0
0
0
0
0
0
0
0
0
0
0
0
0
0
0
0
0
0
0
108
0
19
255
0
36
247
0
30
245
0
30
245
0
30
245
0
30
245
0
30
245
0
30
245
0
30
245
0
30
245
0
30
245
0
30
245
0
30
245
0
30
245
0
30
245
0
30
245
0
30
245
0
30
245
0
30
245
0
30
245
0
30
245
0
30
245
0
30
245
0
30
245
0
30
245
0
30
245
0
30
245
0
30
245
0
30
245
0
30
245
0
30
245
0
30
245
0
30
245
0
30
245
0
30
245
0
30
245
0
30
245
0
30
245
0
30
245
0
30
245
0
30
245
0
30
245
0
30
245
0
30
244
0
30
255
0
33
194
0
28
0
0
0
0
0
0
0
0
0
0
0
0
0
0
0
0
0
0
0
0
0
0
0
0
0
0
0
0
0
0
0
0
0
0
0
0
0
0
0
0
0
0
0
0
0
0
0
0
0
0
0
0
0
0
0
0
0
0
0
0
0
0
0
0
0
0
0
0
0
0
0
0
0
0
0
130
0
24
255
0
37
246
0
30
246
0
31
246
0
31
246
0
31
246
0
31
246
0
31
246
0
31
246
0
31
246
0
31
246
0
31
246
0
31
246
0
31
246
0
31
246
0
31
246
0
31
246
0
31
246
0
31
246
0
31
246
0
31
246
0
31
246
0
31
246
0
31
246
0
31
246
0
31
246
0
31
246
0
31
246
0
31
246
0
31
246
0
31
246
0
31
246
0
31
246
0
31
246
0
31
246
0
31
246
0
31
246
0
31
246
0
31
246
0
31
246
0
31
246
0
31
246
0
31
246
0
31
245
0
31
255
0
34
177
0
28
0
0
0
0
0
0
0
0
0
0
0
0
0
0
0
0
0
0
0
0
0
0
0
0
0
0
0
0
0
0
0
0
0
0
0
0
0
0
0
0
0
0
0
0
0
0
0
0
0
0
0
0
0
0
0
0
0
0
0
0
0
0
0
0
0
0
0
0
0
0
0
0
0
0
0
135
0
22
255
0
37
246
0
30
246
0
31
246
0
31
246
0
31
246
0
31
246
0
31
246
0
31
246
0
31
246
0
31
246
0
31
246
0
31
246
0
31
246
0
31
246
0
31
246
0
31
246
0
31
246
0
31
246
0
31
246
0
31
246
0
31
246
0
31
246
0
31
246
0
31
246
0
31
246
0
31
246
0
31
246
0
31
246
0
31
246
0
31
246
0
31
246
0
31
246
0
31
246
0
31
246
0
31
246
0
31
246
0
31
246
0
31
246
0
31
246
0
31
246
0
31
246
0
31
246
0
31
245
0
31
255
0
34
174
0
29
0
0
0
0
0
0
0
0
0
0
0
0
0
0
0
0
0
0
0
0
0
0
0
0
0
0
0
0
0
0
0
0
0
0
0
0
0
0
0
0
0
0
0
0
0
0
0
0
0
0
0
0
0
0
0
0
0
0
0
0
0
0
0
0
0
0
0
0
0
0
0
0
0
0
0
136
0
20
255
0
37
246
0
31
246
0
31
246
0
31
246
0
31
246
0
31
246
0
31
246
0
31
246
0
31
246
0
31
246
0
31
246
0
31
246
0
31
246
0
31
246
0
31
246
0
31
246
0
31
246
0
31
246
0
31
246
0
31
246
0
31
246
0
31
246
0
31
246
0
31
246
0
31
246
0
31
246
0
31
246
0
31
246
0
31
246
0
31
246
0
31
246
0
31
246
0
31
246
0
31
246
0
31
246
0
31
246
0
31
246
0
31
246
0
31
246
0
31
246
0
31
246
0
31
246
0
31
246
0
31
255
0
34
181
0
30
0
0
0
0
0
0
0
0
0
0
0
0
0
0
0
0
0
0
0
0
0
0
0
0
0
0
0
0
0
0
0
0
0
0
0
0
0
0
0
0
0
0
0
0
0
0
0
0
0
0
0
0
0
0
0
0
0
0
0
0
0
0
0
0
0
0
0
0
0
0
0
0
0
0
0
133
0
24
255
0
37
246
0
30
246
0
31
246
0
31
246
0
31
246
0
31
246
0
31
246
0
31
246
0
31
246
0
31
246
0
31
246
0
31
246
0
31
246
0
31
246
0
31
246
0
31
246
0
31
246
0
31
246
0
31
246
0
31
246
0
31
246
0
31
246
0
31
246
0
31
246
0
31
246
0
31
246
0
31
246
0
31
246
0
31
246
0
31
246
0
31
246
0
31
246
0
31
246
0
31
246
0
31
246
0
31
246
0
31
246
0
31
246
0
31
246
0
31
246
0
31
246
0
31
246
0
31
246
0
31
255
0
34
206
0
31
0
0
1
0
0
0
0
0
0
0
0
0
0
0
0
0
0
0
0
0
0
0
0
0
0
0
0
0
0
0
0
0
0
0
0
0
0
0
0
0
0
0
0
0
0
0
0
0
0
0
0
0
0
0
0
0
0
0
0
0
0
0
0
0
0
0
0
0
0
0
0
0
0
0
0
116
0
21
255
0
37
246
0
31
246
0
31
246
0
31
246
0
31
246
0
31
246
0
31
246
0
31
246
0
31
246
0
31
246
0
31
246
0
31
246
0
31
246
0
31
246
0
31
246
0
31
246
0
31
246
0
31
246
0
31
246
0
31
246
0
31
246
0
31
246
0
31
246
0
31
246
0
31
246
0
31
246
0
31
246
0
31
246
0
31
246
0
31
246
0
31
246
0
31
246
0
31
246
0
31
246
0
31
246
0
31
246
0
31
246
0
31
246
0
31
246
0
31
246
0
31
246
0
31
246
0
31
245
0
31
255
0
31
249
0
35
26
0
9
0
0
0
0
0
0
0
0
0
0
0
0
0
0
0
0
0
0
0
0
0
0
0
0
0
0
0
0
0
0
0
0
0
0
0
0
0
0
0
0
0
0
0
0
0
0
0
0
0
0
0
0
0
0
0
0
0
0
0
0
0
0
0
0
0
0
0
0
0
0
0
0
92
0
17
255
0
35
252
0
29
248
0
29
248
0
29
248
0
29
248
0
29
248
0
29
248
0
29
248
0
29
248
0
29
248
0
29
248
0
29
248
0
29
248
0
29
248
0
29
248
0
29
248
0
29
248
0
29
248
0
29
248
0
29
248
0
29
248
0
29
248
0
29
248
0
29
248
0
29
248
0
29
248
0
29
248
0
29
248
0
29
248
0
29
248
0
29
248
0
29
248
0
29
248
0
29
248
0
29
248
0
29
248
0
29
248
0
29
248
0
29
248
0
29
248
0
29
248
0
29
248
0
29
247
0
29
252
0
28
255
0
36
86
0
14
0
0
0
0
0
0
0
0
0
0
0
0
0
0
0
0
0
0
0
0
0
0
0
0
0
0
0
0
0
0
0
0
0
0
0
0
0
0
0
0
0
0
0
0
0
0
0
0
0
0
0
0
0
0
0
0
0
0
0
0
0
0
0
0
0
0
0
0
0
0
0
0
72
0
14
255
0
37
254
0
29
248
0
29
248
0
29
248
0
29
248
0
29
248
0
29
248
0
30
247
0
29
247
0
29
247
0
29
247
0
29
247
0
29
247
0
29
247
0
29
247
0
29
247
0
29
247
0
29
247
0
29
247
0
29
247
0
29
247
0
29
247
0
29
247
0
29
247
0
29
247
0
29
247
0
29
247
0
29
247
0
29
247
0
29
247
0
29
247
0
29
247
0
29
247
0
29
247
0
29
247
0
29
247
0
29
247
0
29
247
0
29
247
0
29
247
0
29
247
0
29
247
0
29
247
0
29
245
0
29
255
0
34
171
0
26
0
0
0
0
0
0
0
0
0
0
0
0
0
0
0
0
0
0
0
0
0
0
0
0
0
0
0
0
0
0
0
0
0
0
0
0
0
0
0
0
0
0
0
0
0
0
0
0
0
0
0
0
0
0
0
0
0
0
0
0
0
0
0
0
0
0
0
0
0
0
0
0
36
0
15
237
0
68
234
0
63
224
0
61
224
0
61
224
0
61
224
0
61
224
0
61
224
0
61
224
0
62
224
0
62
224
0
62
224
0
62
224
0
62
224
0
62
224
0
62
224
0
62
224
0
62
224
0
62
224
0
62
224
0
62
224
0
62
224
0
62
224
0
62
224
0
62
224
0
62
224
0
62
224
0
62
224
0
62
224
0
62
224
0
62
224
0
62
224
0
62
224
0
62
224
0
62
224
0
62
224
0
62
224
0
62
224
0
62
224
0
62
224
0
62
224
0
62
224
0
62
224
0
62
224
0
62
223
0
62
234
0
63
249
0
71
30
0
12
0
0
0
0
0
0
0
0
0
0
0
0
0
0
0
0
0
0
0
0
0
0
0
0
0
0
0
0
0
0
0
0
0
0
0
0
0
0
0
0
0
0
0
0
0
0
0
0
0
0
0
0
0
0
0
0
0
0
0
0
0
0
0
0
0
0
0
0
0
0
0
3
208
0
64
243
0
70
219
0
65
220
0
65
220
0
65
220
0
65
220
0
65
220
0
65
221
0
66
221
0
66
221
0
66
221
0
66
221
0
66
221
0
66
221
0
66
221
0
66
221
0
66
221
0
66
221
0
66
221
0
66
221
0
66
221
0
66
221
0
66
221
0
66
221
0
66
221
0
66
221
0
66
221
0
66
221
0
66
221
0
66
221
0
66
221
0
66
221
0
66
221
0
66
221
0
66
221
0
66
221
0
66
221
0
66
221
0
66
221
0
66
221
0
66
221
0
66
221
0
66
221
0
66
221
0
66
217
0
64
255
0
77
161
0
50
0
0
0
0
0
0
0
0
0
0
0
0
0
0
0
0
0
0
0
0
0
0
0
0
0
0
0
0
0
0
0
0
0
0
0
0
0
0
0
0
0
0
0
0
0
0
0
0
0
0
0
0
0
0
0
0
0
0
0
0
0
0
0
0
0
0
0
0
0
0
0
0
172
0
51
255
0
70
220
0
61
223
0
62
223
0
62
223
0
62
223
0
62
223
0
62
223
0
62
223
0
62
223
0
62
223
0
62
223
0
62
223
0
62
223
0
62
223
0
62
223
0
62
223
0
62
223
0
62
223
0
62
223
0
62
223
0
62
223
0
62
223
0
62
223
0
62
223
0
62
223
0
62
223
0
62
223
0
62
223
0
62
223
0
62
223
0
62
223
0
62
223
0
62
223
0
62
223
0
62
223
0
62
223
0
62
223
0
62
223
0
62
223
0
62
223
0
62
223
0
62
223
0
62
223
0
62
223
0
62
226
0
61
255
0
78
70
0
26
0
0
0
0
0
0
0
0
0
0
0
0
0
0
0
0
0
0
0
0
0
0
0
0
0
0
0
0
0
0
0
0
0
0
0
0
0
0
0
0
0
0
0
0
0
0
0
0
0
0
0
0
0
0
0
0
0
0
0
0
0
0
0
0
0
0
0
0
0
120
0
37
255
0
75
218
0
61
223
0
62
223
0
62
223
0
62
223
0
62
223
0
62
223
0
62
223
0
62
223
0
62
223
0
62
223
0
62
223
0
62
223
0
62
223
0
62
223
0
62
223
0
62
223
0
62
223
0
62
223
0
62
223
0
62
223
0
62
223
0
62
223
0
62
223
0
62
223
0
62
223
0
62
223
0
62
223
0
62
223
0
62
223
0
62
223
0
62
223
0
62
223
0
62
223
0
62
223
0
62
223
0
62
223
0
62
223
0
62
223
0
62
223
0
62
223
0
62
223
0
62
223
0
62
223
0
62
218
0
60
245
0
68
243
0
73
28
0
11
0
0
0
0
0
0
0
0
0
0
0
0
0
0
0
0
0
0
0
0
0
0
0
0
0
0
0
0
0
0
0
0
0
0
0
0
0
0
0
0
0
0
0
0
0
0
0
0
0
0
0
0
0
0
0
0
0
0
0
0
0
0
0
0
0
0
57
0
21
255
0
74
227
0
62
223
0
62
223
0
62
223
0
62
223
0
62
223
0
62
223
0
62
223
0
62
223
0
62
223
0
62
223
0
62
223
0
62
223
0
62
223
0
62
223
0
62
223
0
62
223
0
62
223
0
62
223
0
62
223
0
62
223
0
62
223
0
62
223
0
62
223
0
62
223
0
62
223
0
62
223
0
62
223
0
62
223
0
62
223
0
62
223
0
62
223
0
62
223
0
62
223
0
62
223
0
62
223
0
62
223
0
62
223
0
62
223
0
62
223
0
62
223
0
62
223
0
62
223
0
62
223
0
62
223
0
62
217
0
59
255
0
70
229
0
70
32
0
13
0
0
0
0
0
0
0
0
0
0
0
0
0
0
0
0
0
0
0
0
0
0
0
0
0
0
0
0
0
0
0
0
0
0
0
0
0
0
0
0
0
0
0
0
0
0
0
0
0
0
0
0
0
0
0
0
0
0
0
0
0
0
0
2
0
2
218
0
64
247
0
68
221
0
62
223
0
62
223
0
62
223
0
62
223
0
62
223
0
62
223
0
62
223
0
62
223
0
62
223
0
62
223
0
62
223
0
62
223
0
62
223
0
62
223
0
62
223
0
62
223
0
62
223
0
62
223
0
62
223
0
62
223
0
62
223
0
62
223
0
62
223
0
62
223
0
62
223
0
62
223
0
62
223
0
62
223
0
62
223
0
62
223
0
62
223
0
62
223
0
62
223
0
62
223
0
62
223
0
62
223
0
62
223
0
62
223
0
62
223
0
62
223
0
62
223
0
62
223
0
62
223
0
62
223
0
62
216
0
59
255
0
71
232
0
71
70
0
25
0
0
0
0
0
0
0
0
0
0
0
0
0
0
0
0
0
0
0
0
0
0
0
0
0
0
0
0
0
0
0
0
0
0
0
0
0
0
0
0
0
0
0
0
0
0
0
0
0
0
0
0
0
0
0
0
0
0
0
0
0
0
0
148
0
46
255
0
74
220
0
58
224
0
60
224
0
60
224
0
60
224
0
60
224
0
60
224
0
60
224
0
60
224
0
60
224
0
60
224
0
60
224
0
60
224
0
60
224
0
60
224
0
60
224
0
60
224
0
60
224
0
60
224
0
60
224
0
60
224
0
60
224
0
60
224
0
60
224
0
60
224
0
60
224
0
60
224
0
60
224
0
60
224
0
60
224
0
60
224
0
60
224
0
60
224
0
60
224
0
60
224
0
60
224
0
60
224
0
60
224
0
60
224
0
60
224
0
60
224
0
60
224
0
60
224
0
60
224
0
61
224
0
61
225
0
61
218
0
58
246
0
65
255
0
75
155
0
47
28
0
8
0
0
0
0
0
0
0
0
0
0
0
0
0
0
0
0
0
0
0
0
0
0
0
0
0
0
0
0
0
0
0
0
0
0
0
0
0
0
0
0
0
0
0
0
0
0
0
0
0
0
0
0
0
0
0
0
0
61
0
22
255
0
65
239
0
45
234
0
49
234
0
49
234
0
49
234
0
49
234
0
49
234
0
49
234
0
49
234
0
49
234
0
49
234
0
49
234
0
49
234
0
49
234
0
49
234
0
48
234
0
48
234
0
48
234
0
48
234
0
48
234
0
48
234
0
48
234
0
48
234
0
48
234
0
48
234
0
48
234
0
48
234
0
48
234
0
48
234
0
48
234
0
48
234
0
48
234
0
48
234
0
48
234
0
48
234
0
48
234
0
48
234
0
48
234
0
48
234
0
48
234
0
48
234
0
48
234
0
48
234
0
48
234
0
48
234
0
48
234
0
48
235
0
48
230
0
47
241
0
48
255
0
61
248
0
56
136
0
42
0
0
0
0
0
0
0
0
0
0
0
0
0
0
0
0
0
0
0
0
0
0
0
0
0
0
0
0
0
0
0
0
0
0
0
0
0
0
0
0
0
0
0
0
0
0
0
0
0
0
0
0
0
0
0
0
1
155
0
125
186
0
149
163
0
132
165
0
133
165
0
133
165
0
133
165
0
133
165
0
133
165
0
133
165
0
133
165
0
133
165
0
133
165
0
133
165
0
133
165
0
132
165
0
132
165
0
132
165
0
132
165
0
132
165
0
132
165
0
132
165
0
132
165
0
132
165
0
132
165
0
132
165
0
132
165
0
132
165
0
132
165
0
132
165
0
132
165
0
132
165
0
132
165
0
132
165
0
132
165
0
132
165
0
132
165
0
132
165
0
132
165
0
132
165
0
132
165
0
132
165
0
132
165
0
132
165
0
132
165
0
132
165
0
132
165
0
132
165
0
132
165
0
132
164
0
132
156
0
126
214
0
167
138
0
92
0
0
0
0
0
0
0
0
0
0
0
0
0
0
0
0
0
0
0
0
0
0
0
0
0
0
0
0
0
0
0
0
0
0
0
0
0
0
0
0
0
0
0
0
0
0
0
0
0
0
0
0
0
0
0
0
0
69
0
97
173
0
204
132
0
161
137
0
167
137
0
166
137
0
166
137
0
166
137
0
166
137
0
166
137
0
166
137
0
166
137
0
166
137
0
166
137
0
166
137
0
166
137
0
166
137
0
166
137
0
166
137
0
166
137
0
166
137
0
166
137
0
166
137
0
166
137
0
166
137
0
166
137
0
166
137
0
166
137
0
166
137
0
166
137
0
166
137
0
166
137
0
166
137
0
166
137
0
166
137
0
166
137
0
166
137
0
166
137
0
166
137
0
166
137
0
166
137
0
166
137
0
166
137
0
166
137
0
166
137
0
166
137
0
166
137
0
166
137
0
166
137
0
166
136
0
166
145
0
174
151
0
184
5
0
25
0
0
0
0
0
0
0
0
0
0
0
0
0
0
0
0
0
0
0
0
0
0
0
0
0
0
0
0
0
0
0
0
0
0
0
0
0
0
0
0
0
0
0
0
0
0
0
0
0
0
0
0
0
0
0
0
0
11
0
9
165
0
164
164
0
162
150
0
148
151
0
150
151
0
150
151
0
150
151
0
150
151
0
150
151
0
150
151
0
150
151
0
150
151
0
150
151
0
150
151
0
150
151
0
150
151
0
150
151
0
150
151
0
150
151
0
150
151
0
150
151
0
150
151
0
150
151
0
150
151
0
150
151
0
150
151
0
150
151
0
150
151
0
150
151
0
150
151
0
150
151
0
150
151
0
150
151
0
150
151
0
150
151
0
150
151
0
150
151
0
150
151
0
150
151
0
150
151
0
150
151
0
150
151
0
150
151
0
150
151
0
150
151
0
150
151
0
150
151
0
150
151
0
150
145
0
144
187
0
185
100
0
98
0
0
0
0
0
0
0
0
0
0
0
0
0
0
0
0
0
0
0
0
0
0
0
0
0
0
0
0
0
0
0
0
0
0
0
0
0
0
0
0
0
0
0
0
0
0
0
0
0
0
0
0
0
0
0
0
0
0
0
0
0
0
0
95
0
96
188
0
190
145
0
146
150
0
151
150
0
151
150
0
151
150
0
151
150
0
151
150
0
151
150
0
151
150
0
151
150
0
151
150
0
151
150
0
151
150
0
151
150
0
151
150
0
151
150
0
151
150
0
151
150
0
151
150
0
151
150
0
151
150
0
151
150
0
151
150
0
151
150
0
151
150
0
151
150
0
151
150
0
151
150
0
151
150
0
151
150
0
151
150
0
151
150
0
151
150
0
151
150
0
151
150
0
151
150
0
151
150
0
151
150
0
151
150
0
151
150
0
151
150
0
151
150
0
151
150
0
151
150
0
151
150
0
151
149
0
150
159
0
160
173
0
174
19
0
19
0
0
0
0
0
0
0
0
0
0
0
0
0
0
0
0
0
0
0
0
0
0
0
0
0
0
0
0
0
0
0
0
0
0
0
0
0
0
0
0
0
0
0
0
0
0
0
0
0
0
0
0
0
0
0
0
0
0
0
0
0
0
0
12
0
11
165
0
165
160
0
162
149
0
150
150
0
151
150
0
151
150
0
151
150
0
151
150
0
151
150
0
151
150
0
151
150
0
151
150
0
151
150
0
151
150
0
151
150
0
151
150
0
151
150
0
151
150
0
151
150
0
151
150
0
151
150
0
151
150
0
151
150
0
151
150
0
151
150
0
151
150
0
151
150
0
151
150
0
151
150
0
151
150
0
151
150
0
151
150
0
151
150
0
151
150
0
151
150
0
151
150
0
151
150
0
151
150
0
151
150
0
151
150
0
151
150
0
151
150
0
151
150
0
151
150
0
151
150
0
151
150
0
151
144
0
146
190
0
191
94
0
95
0
0
0
0
0
0
0
0
0
0
0
0
0
0
0
0
0
0
0
0
0
0
0
0
0
0
0
0
0
0
0
0
0
0
0
0
0
0
0
0
0
0
0
0
0
0
0
0
0
0
0
0
0
0
0
0
0
0
0
0
0
0
0
0
0
0
0
0
0
85
0
85
189
0
190
145
0
145
151
0
151
150
0
151
150
0
151
150
0
151
150
0
151
150
0
151
150
0
151
150
0
151
150
0
151
150
0
151
150
0
151
150
0
151
150
0
151
150
0
151
150
0
151
150
0
151
150
0
151
150
0
151
150
0
151
150
0
151
150
0
151
150
0
151
150
0
151
150
0
151
150
0
151
150
0
151
150
0
151
150
0
151
150
0
151
150
0
151
150
0
151
150
0
151
150
0
151
150
0
151
150
0
151
150
0
151
150
0
151
150
0
151
150
0
151
150
0
151
150
0
151
150
0
151
147
0
148
166
0
167
160
0
161
7
0
7
0
0
0
0
0
0
0
0
0
0
0
0
0
0
0
0
0
0
0
0
0
0
0
0
0
0
0
0
0
0
0
0
0
0
0
0
0
0
0
0
0
0
0
0
0
0
0
0
0
0
0
0
0
0
0
0
0
0
0
0
0
0
0
0
0
0
0
0
0
2
0
3
156
0
156
172
0
173
144
0
147
149
0
152
149
0
152
149
0
152
149
0
152
149
0
152
149
0
152
149
0
152
149
0
152
149
0
152
149
0
152
149
0
152
149
0
152
149
0
152
148
0
152
149
0
152
149
0
152
149
0
152
149
0
152
149
0
152
149
0
152
149
0
152
149
0
152
149
0
152
149
0
152
149
0
152
149
0
152
149
0
152
149
0
152
149
0
152
149
0
152
149
0
152
149
0
152
149
0
152
149
0
152
148
0
152
148
0
152
148
0
152
148
0
152
148
0
152
148
0
152
148
0
152
147
0
150
191
0
191
59
0
59
0
0
0
0
0
0
0
0
0
0
0
0
0
0
0
0
0
0
0
0
0
0
0
0
0
0
0
0
0
0
0
0
0
0
0
0
0
0
0
0
0
0
0
0
0
0
0
0
0
0
0
0
0
0
0
0
0
0
0
0
0
0
0
0
0
0
0
0
0
0
0
0
0
0
0
50
0
53
200
0
184
183
0
136
179
0
136
179
0
137
179
0
137
179
0
137
179
0
137
179
0
137
179
0
137
179
0
137
179
0
137
179
0
137
179
0
137
179
0
137
179
0
137
179
0
137
179
0
136
179
0
136
179
0
136
179
0
136
179
0
136
179
0
136
179
0
136
179
0
136
179
0
136
179
0
136
179
0
136
179
0
136
179
0
136
179
0
136
179
0
136
179
0
136
179
0
136
179
0
136
179
0
136
179
0
136
180
0
136
179
0
136
179
0
136
179
0
136
179
0
136
179
0
136
178
0
129
208
0
175
125
0
128
0
0
0
0
0
0
0
0
0
0
0
0
0
0
0
0
0
0
0
0
0
0
0
0
0
0
0
0
0
0
0
0
0
0
0
0
0
0
0
0
0
0
0
0
0
0
0
0
0
0
0
0
0
0
0
0
0
0
0
0
0
0
0
0
0
0
0
0
0
0
0
0
0
0
0
0
0
0
0
0
0
60
0
135
78
0
233
69
0
187
70
0
194
70
0
194
70
0
194
70
0
194
70
0
194
70
0
194
70
0
194
70
0
194
70
0
194
70
0
194
70
0
194
70
0
194
70
0
194
70
0
193
70
0
193
70
0
193
70
0
193
70
0
193
70
0
193
70
0
193
70
0
193
70
0
193
70
0
193
70
0
193
70
0
193
70
0
193
70
0
193
70
0
193
70
0
193
70
0
193
70
0
193
70
0
193
70
0
193
70
0
193
70
0
193
70
0
193
70
0
193
70
0
194
70
0
189
70
0
211
82
0
211
13
0
16
0
0
0
0
0
0
0
0
0
0
0
0
0
0
0
0
0
0
0
0
0
0
0
0
0
0
0
0
0
0
0
0
0
0
0
0
0
0
0
0
0
0
0
0
0
0
0
0
0
0
0
0
0
0
0
0
0
0
0
0
0
0
0
0
0
0
0
0
0
0
0
0
0
0
0
0
0
0
0
0
0
0
0
22
0
0
243
0
0
255
0
0
230
0
0
236
0
0
235
0
0
235
0
0
235
0
0
235
0
0
235
0
0
235
0
0
235
0
0
235
0
0
235
0
0
235
0
0
235
0
0
236
0
0
236
0
0
236
0
0
236
0
0
236
0
0
236
0
0
236
0
0
236
0
0
236
0
0
236
0
0
236
0
0
236
0
0
236
0
0
236
0
0
236
0
0
236
0
0
236
0
0
236
0
0
236
0
0
236
0
0
236
0
0
236
0
0
236
0
0
236
0
0
235
0
0
238
0
0
255
0
0
98
0
0
0
0
0
0
0
0
0
0
0
0
0
0
0
0
0
0
0
0
0
0
0
0
0
0
0
0
0
0
0
0
0
0
0
0
0
0
0
0
0
0
0
0
0
0
0
0
0
0
0
0
0
0
0
0
0
0
0
0
0
0
0
0
0
0
0
0
0
0
0
0
0
0
0
0
0
0
0
0
0
0
0
0
1
0
0
11
0
58
6
0
255
0
0
229
0
0
216
0
0
219
0
0
219
0
0
219
0
0
219
0
0
219
0
0
219
0
0
219
0
0
219
0
0
219
0
0
219
0
0
219
0
0
219
0
0
219
0
0
219
0
0
219
0
0
219
0
0
219
0
0
219
0
0
219
0
0
219
0
0
219
0
0
219
0
0
219
0
0
219
0
0
219
0
0
219
0
0
219
0
0
219
0
0
219
0
0
219
0
0
219
0
0
219
0
0
219
0
0
219
0
0
219
0
0
213
1
0
255
11
0
149
4
0
0
0
0
0
0
0
0
0
0
0
0
0
0
0
0
0
0
0
0
0
0
0
0
0
0
0
0
0
0
0
0
0
0
0
0
0
0
0
0
0
0
0
0
0
0
0
0
0
0
0
0
0
0
0
0
0
0
0
0
0
0
0
0
0
0
0
0
0
0
0
0
0
0
0
0
0
0
0
0
0
0
0
0
0
0
0
0
0
1
0
0
12
0
114
3
0
255
0
0
222
0
0
219
0
0
220
0
0
220
0
0
220
0
0
220
0
0
220
0
0
220
0
0
220
0
0
220
0
0
220
0
0
220
0
0
220
0
0
220
0
0
220
0
0
220
0
0
220
0
0
220
0
0
220
0
0
220
0
0
220
0
0
220
0
0
220
0
0
220
0
0
220
0
0
220
0
0
220
0
0
220
0
0
220
0
0
220
0
0
220
0
0
220
0
0
220
0
0
220
0
0
220
0
0
212
0
0
255
11
0
203
6
0
0
0
0
0
0
0
0
0
0
0
0
0
0
0
0
0
0
0
0
0
0
0
0
0
0
0
0
0
0
0
0
0
0
0
0
0
0
0
0
0
0
0
0
0
0
0
0
0
0
0
0
0
0
0
0
0
0
0
0
0
0
0
0
0
0
0
0
0
0
0
0
0
0
0
0
0
0
0
0
0
0
0
0
0
0
0
0
0
0
0
0
0
0
0
3
0
0
12
0
147
2
0
255
0
0
220
0
0
218
0
0
220
0
0
220
0
0
220
0
0
220
0
0
220
0
0
220
0
0
220
0
0
220
0
0
220
0
0
220
0
0
220
0
0
218
0
0
216
0
0
220
0
0
224
0
0
226
0
0
224
0
0
219
0
0
216
0
0
219
0
0
220
0
0
220
0
0
220
0
0
220
0
0
220
0
0
220
0
0
220
0
0
220
0
0
220
0
0
220
0
0
220
0
0
213
0
0
255
9
0
229
8
0
20
0
0
0
0
0
0
0
0
0
0
0
0
0
0
0
0
0
0
0
0
0
0
0
0
0
0
0
0
0
0
0
0
0
0
0
0
0
0
0
0
0
0
0
0
0
0
0
0
0
0
0
0
0
0
0
0
0
0
0
0
0
0
0
0
0
0
0
0
0
0
0
0
0
0
0
0
0
0
0
0
0
0
0
0
0
0
0
0
0
0
0
0
0
0
0
0
0
0
0
5
0
0
11
0
158
2
0
255
0
0
225
0
0
216
0
0
220
0
0
220
0
0
220
0
0
220
0
0
220
0
0
220
0
0
220
0
0
218
0
0
215
0
0
229
0
0
251
1
0
255
3
0
255
4
0
249
3
0
247
4
0
250
3
0
255
1
0
255
0
0
245
0
0
223
0
0
215
0
0
219
0
0
221
0
0
220
0
0
220
0
0
220
0
0
220
0
0
221
0
0
218
0
0
215
0
0
255
9
0
231
9
0
31
0
0
0
0
0
0
0
0
0
0
0
0
0
0
0
0
0
0
0
0
0
0
0
0
0
0
0
0
0
0
0
0
0
0
0
0
0
0
0
0
0
0
0
0
0
0
0
0
0
0
0
0
0
0
0
0
0
0
0
0
0
0
0
0
0
0
0
0
0
0
0
0
0
0
0
0
0
0
0
0
0
0
0
0
0
0
0
0
0
0
0
0
0
0
0
0
0
0
0
0
0
0
0
0
0
4
0
0
12
0
141
5
0
255
0
0
246
0
0
217
0
0
217
0
0
219
0
0
219
0
0
219
0
0
216
0
0
218
0
0
241
1
0
255
6
0
236
7
0
176
8
0
119
7
0
87
7
0
65
6
0
58
7
0
68
8
0
93
9
0
133
8
0
195
5
0
249
0
0
255
0
0
230
0
0
214
0
0
218
0
0
219
0
0
219
0
0
219
0
0
214
0
0
231
2
0
255
11
0
210
8
0
26
0
0
0
0
0
0
0
0
0
0
0
0
0
0
0
0
0
0
0
0
0
0
0
0
0
0
0
0
0
0
0
0
0
0
0
0
0
0
0
0
0
0
0
0
0
0
0
0
0
0
0
0
0
0
0
0
0
0
0
0
0
0
0
0
0
0
0
0
0
0
0
0
0
0
0
0
0
0
0
0
0
0
0
0
0
0
0
0
0
0
0
0
0
0
0
0
0
0
0
0
0
0
0
0
0
0
0
0
0
0
0
3
0
0
11
0
83
9
0
215
3
0
255
0
0
254
0
0
242
0
0
241
0
0
243
0
0
255
3
0
255
9
0
217
11
0
131
7
0
37
3
0
0
1
0
0
0
0
0
0
0
0
0
0
0
0
0
0
0
0
0
1
0
0
5
0
0
8
0
67
9
0
164
6
0
245
2
0
255
0
0
250
0
0
243
0
0
241
0
0
246
1
0
255
7
0
253
11
0
143
6
0
0
0
0
0
0
0
0
0
0
0
0
0
0
0
0
0
0
0
0
0
0
0
0
0
0
0
0
0
0
0
0
0
0
0
0
0
0
0
0
0
0
0
0
0
0
0
0
0
0
0
0
0
0
0
0
0
0
0
0
0
0
0
0
0
0
0
0
0
0
0
0
0
0
0
0
0
0
0
0
0
0
0
0
0
0
0
0
0
0
0
0
0
0
0
0
0
0
0
0
0
0
0
0
0
0
0
0
0
0
0
0
0
0
0
0
0
0
0
0
0
0
7
0
4
10
0
98
9
0
169
6
0
207
4
0
210
7
0
201
8
0
160
8
0
90
7
0
6
1
0
0
0
0
0
0
0
0
0
0
0
0
0
0
0
0
0
0
0
0
0
0
0
0
0
0
0
0
0
0
0
0
0
0
0
3
0
0
8
0
39
10
0
124
8
0
179
6
0
207
6
0
210
6
0
189
9
0
137
9
0
43
2
0
0
0
0
0
0
0
0
0
0
0
0
0
0
0
0
0
0
0
0
0
0
0
0
0
0
0
0
0
0
0
0
0
0
0
0
0
0
0
0
0
0
0
0
0
0
0
0
0
0
0
0
0
0
0
0
0
0
0
0
0
0
0
0
0
0
0
0
0
0
0
0
0
0
0
0
0
0
0
0
0
0
0
0
0
0
0
0
0
0
0
0
0
0
0
0
0
0
0
0
0
0
0
0
0
0
0
0
0
0
0
0
0
0
0
0
0
0
0
0
0
0
0
0
0
0
0
0
0
0
0
3
0
0
5
0
0
4
0
5
5
0
0
2
0
0
0
0
0
0
0
0
0
0
0
0
0
0
0
0
0
0
0
0
0
0
0
0
0
0
0
0
0
0
0
0
0
0
0
0
0
0
0
0
0
0
0
0
0
0
0
0
0
0
1
0
0
3
0
0
5
0
1
5
0
4
3
0
0
1
0
0
0
0
0
0
0
0
0
0
0
0
0
0
0
0
0
0
0
0
0
0
0
0
0
0
0
0
0
0
0
0
0
0
0
0
0
0
0
0
0
0
0
0
0
0
0
0
0
0
0
0
0
0
0
0
0
0
0
0
0
0
0
0
0
0
0
0
0
0
0
0
0
0
0
0
0
0
0
0
0
0
0
0
0
0
0
0
0
0
0
0
0
0
0
0
0
0
0
0
0
0
0
0
0
0
0
0
0
0
0
0
0
0
0
0
0
0
0
0
0
0
0
0
0
0
0
0
0
0
0
0
0
0
0
0
0
0
0
0
0
0
0
0
0
0
0
0
0
0
0
0
0
0
0
0
0
0
0
0
0
0
0
0
0
0
0
0
0
0
0
0
0
0
0
0
0
0
0
0
0
0
0
0
0
0
0
0
0
0
0
0
0
0
0
0
0
0
0
0
0
0
0
0
0
0
0
0
0
0
0
0
0
0
0
0
0
0
0
0
0
0
0
0
0
0
0
0
0
0
0
0
0
0
0
0
0
0
0
0
0
0
0
0
0
0
0
0
0
0
0
0
0
0
0
0
0
0
0
0
0
0
0
0
0
0
0
0
0
0
0
0
0
0
0
0
0
0
0
0
0
0
0
0
0
0
0
0
0
0
0
0
0
0
0
0
0
0
0
0
0
0
0
0
0
0
0
0
0
0
0
0
0
0
0
0
0
0
0
0
0
0
0
0
0
0
0
0
0
0
0
0
0
0
0
0
0
0
0
0
0
0
0
0
0
0
0
0
0
0
0
0
0
0
0
0
0
0
0
0
0
0
0
0
0
0
0
0
0
0
0
0
0
0
0
0
0
0
0
0
0
0
0
0
0
0
0
0
0
0
0
0
0
0
0
0
0
0
0
0
0
0
0
0
0
0
0
0
0
0
0
0
0
0
0
0
0
0
0
0
0
0
0
0
0
0
0
0
0
0
0
0
0
0
0
0
0
0
0
0
0
0
0
0
0
0
0
0
0
0
0
0
0
0
0
0
0
0
0
0
0
0
0
0
0
0
0
0
0
0
0
0
0
0
0
0
0
0
0
0
0
0
0
0
0
0
0
0
0
0
0
0
0
0
0
0
0
0
0
0
0
0
0
0
0
0
0
0
0
0
0
0
0
0
0
0
0
0
0
0
0
0
0
0
0
0
0
0
0
0
0
0
0
0
0
0
0
0
0
0
0
0
0
0
0
0
0
0
0
0
0
0
0
0
0
0
0
0
0
0
0
0
0
0
0
0
0
0
0
0
0
0
0
0
0
0
0
0
0
0
0
0
0
0
0
0
0
0
0
0
0
0
0
0
0
0
0
0
0
0
0
0
0
0
0
0
0
0
0
0
0
0
0
0
0
0
0
0
0
0
0
0
0
0
0
0
0
0
0
0
0
0
0
0
0
0
0
0
0
0
0
0
0
0
0
0
0
0
0
0
0
0
0
0
0
0
0
0
0
0
0
0
0
0
0
0
0
0
0
0
0
0
0
0
0
0
0
0
0
0
0
0
0
0
0
0
0
0
0
0
0
0
0
0
0
0
0
0
0
0
0
0
0
0
0
0
0
0
0
0
0
0
0
0
0
0
