P3
72 72
255
0
0
0
0
0
0
0
0
0
0
0
0
0
0
0
0
0
0
0
0
0
0
0
0
0
0
0
0
0
0
0
0
0
0
0
0
0
0
0
0
0
0
0
0
0
0
0
0
0
0
0
0
0
0
0
0
0
0
0
0
0
0
0
0
0
0
0
0
0
0
0
0
0
0
0
0
0
0
0
0
0
0
0
0
0
0
0
0
0
0
0
0
0
0
0
0
0
0
0
0
0
0
0
0
0
0
0
0
0
0
0
0
0
0
0
0
0
0
0
0
0
0
0
0
0
0
0
0
0
0
0
0
0
0
0
0
0
0
0
0
0
0
0
0
0
0
0
0
0
0
0
0
0
0
0
0
0
0
0
0
0
0
0
0
0
0
0
0
0
0
0
0
0
0
0
0
0
0
0
0
0
0
0
0
0
0
0
0
0
0
0
0
0
0
0
0
0
0
0
0
0
0
0
0
0
0
0
0
0
0
0
0
0
0
0
0
0
0
0
0
0
0
0
0
0
0
0
0
0
0
0
0
0
0
0
0
0
0
0
0
0
0
0
0
0
0
0
0
0
0
0
0
0
0
0
0
0
0
0
0
0
0
0
0
0
0
0
0
0
0
0
0
0
0
0
0
0
0
0
0
0
0
0
0
0
0
0
0
0
0
0
0
0
0
0
0
0
0
0
0
0
0
0
0
0
0
0
0
0
0
0
0
0
0
0
0
0
0
0
0
0
0
0
0
0
0
0
0
0
0
0
0
0
0
0
0
0
0
0
0
0
0
0
0
0
0
0
0
0
0
0
0
0
0
0
0
0
0
0
0
0
0
0
0
0
0
0
0
0
0
0
0
0
0
0
0
0
0
0
0
0
0
0
0
0
0
0
0
0
0
0
0
0
0
0
0
0
0
0
0
0
0
0
0
0
0
0
0
0
0
0
0
0
0
0
0
0
0
0
0
0
0
0
0
0
0
0
0
0
0
0
0
0
0
0
0
0
0
0
0
0
0
0
0
0
0
0
0
0
0
0
0
0
0
0
0
0
0
0
0
0
0
0
0
0
0
0
0
0
0
0
0
0
0
0
0
0
0
0
0
0
0
0
0
0
0
0
0
0
0
0
0
0
0
0
0
0
0
0
0
0
0
0
0
0
0
0
0
0
0
0
0
0
0
0
0
0
0
0
0
0
0
0
0
0
0
0
0
0
0
0
0
0
0
0
0
0
0
0
0
0
0
0
0
0
0
0
0
0
0
0
0
0
0
0
0
0
0
0
0
0
0
0
0
0
0
0
0
0
0
0
0
0
0
0
0
0
0
0
0
0
0
0
0
0
0
0
0
0
0
0
0
0
0
0
0
0
0
0
0
0
0
0
0
0
0
0
0
0
0
0
0
0
0
0
0
0
0
0
0
0
0
0
0
0
0
0
0
0
0
0
0
0
0
0
0
0
0
0
0
0
0
0
0
0
0
0
0
0
0
0
0
0
0
0
0
0
0
0
0
0
0
0
0
0
0
0
0
0
0
0
0
0
0
0
0
0
0
0
0
0
0
0
0
0
0
0
0
0
0
0
0
0
0
0
0
0
0
0
0
0
0
0
0
0
0
0
0
0
0
0
0
0
0
0
0
0
0
0
0
0
0
0
0
0
0
0
0
0
0
0
0
0
0
0
0
0
0
0
0
0
0
0
0
0
0
0
0
0
0
0
0
0
0
0
0
0
0
0
0
0
0
0
0
0
0
0
0
0
0
0
0
0
0
0
0
0
0
0
0
0
5
5
0
57
25
0
107
43
0
49
22
0
0
0
0
0
0
0
0
0
0
0
0
0
0
0
0
0
0
0
0
0
0
0
0
0
0
0
0
0
0
0
0
0
0
0
0
0
0
0
0
0
0
0
0
0
0
0
0
0
0
0
0
0
0
0
0
0
0
0
0
0
0
0
0
0
0
0
0
0
0
0
0
0
0
0
0
0
0
0
0
0
0
0
0
0
0
0
0
0
0
0
0
0
0
0
0
0
0
0
0
0
0
0
0
0
0
0
0
0
0
0
0
0
0
0
0
0
0
0
0
0
0
0
0
0
0
0
0
0
0
0
0
0
0
0
0
0
0
0
0
0
0
0
0
0
0
0
0
0
0
0
0
0
0
0
0
0
0
0
0
0
0
0
0
0
0
0
0
0
0
0
0
0
0
0
0
0
0
0
0
0
0
0
0
0
0
0
0
0
0
0
0
0
0
0
0
0
0
0
43
20
0
132
53
0
186
71
0
212
80
0
255
99
0
124
49
0
0
0
0
0
0
0
0
0
0
0
0
0
0
0
0
0
0
0
0
0
0
0
0
0
0
0
0
0
0
0
0
0
0
0
0
0
0
0
0
0
0
0
0
0
0
0
0
0
0
0
0
0
0
0
0
0
0
0
0
0
0
0
0
0
0
0
0
0
0
0
0
0
0
0
0
0
0
0
0
0
0
0
0
0
0
0
0
0
0
0
0
0
0
0
0
0
0
0
0
0
0
0
0
0
0
0
0
0
0
0
0
0
0
0
0
0
0
0
0
0
0
0
0
0
0
0
0
0
0
0
0
0
0
0
0
0
0
0
0
0
0
0
0
0
0
0
0
0
0
0
0
0
0
0
0
0
0
0
0
0
0
0
0
0
0
0
0
0
0
0
0
0
0
0
0
0
0
0
0
0
0
0
0
0
0
0
0
0
0
0
0
0
17
10
0
143
59
0
221
84
0
229
84
0
205
74
0
187
68
0
223
81
0
114
45
0
0
0
0
0
0
0
0
0
0
0
0
0
0
0
0
0
0
0
0
0
0
0
0
0
0
0
0
0
0
0
0
0
0
0
0
0
0
0
0
0
0
0
0
0
0
0
0
0
0
0
0
0
0
0
0
0
0
0
0
0
0
0
0
0
0
0
0
0
0
0
0
0
0
0
0
0
0
0
0
0
0
0
0
0
0
0
0
0
0
0
0
0
0
0
0
0
0
0
0
0
0
0
0
0
0
0
0
0
0
0
0
0
0
0
0
0
0
0
0
0
0
0
0
0
0
0
0
0
0
0
0
0
0
0
0
0
0
0
0
0
0
0
0
0
0
0
0
0
0
0
0
0
0
0
0
0
0
0
0
0
0
0
0
0
0
0
0
0
0
0
0
0
0
0
0
0
0
0
0
0
0
0
0
0
0
0
0
0
0
64
28
0
206
79
0
235
86
0
195
70
0
182
67
0
187
69
0
184
68
0
227
84
0
107
43
0
0
0
0
0
0
0
0
0
0
0
0
0
0
0
0
0
0
0
0
0
0
0
0
0
0
0
0
0
0
0
0
0
0
0
0
0
0
0
0
0
0
0
0
0
0
0
0
0
0
0
0
0
0
0
0
0
0
0
0
0
0
0
0
0
0
0
0
0
0
0
0
0
0
0
0
0
0
0
0
0
0
0
0
0
0
0
0
0
0
0
0
0
0
0
0
0
0
0
0
0
0
0
0
0
0
0
0
0
0
0
0
0
0
0
0
0
0
0
0
0
0
0
0
0
0
0
0
0
0
0
0
0
0
0
0
0
0
0
0
0
0
0
0
0
0
0
0
0
0
0
0
0
0
0
0
0
0
0
0
0
0
0
0
0
0
0
0
0
0
0
0
0
0
0
0
0
0
0
0
0
0
0
0
0
0
0
96
41
0
239
90
0
211
75
0
180
65
0
187
69
0
189
69
0
188
69
0
186
68
0
225
84
0
82
34
0
0
0
0
0
0
0
0
0
0
0
0
0
0
0
0
0
0
0
0
0
0
0
0
0
0
0
0
0
0
0
0
0
0
0
0
0
0
0
0
0
0
0
0
0
0
0
0
0
0
0
0
0
0
0
0
0
0
0
0
0
0
0
0
0
0
0
0
0
0
0
0
0
0
0
0
0
0
0
0
0
0
0
0
0
0
0
0
0
0
0
0
0
0
0
0
0
0
0
0
0
0
0
0
0
0
0
0
0
0
0
0
0
0
0
0
0
0
0
0
0
0
0
0
0
0
0
0
0
0
0
0
0
0
0
0
0
0
0
0
0
0
0
0
0
0
0
0
0
0
0
0
0
0
0
0
0
0
0
0
0
0
0
0
0
0
0
0
0
0
0
0
0
0
0
0
0
0
0
0
0
0
0
0
87
38
0
244
91
0
198
71
0
182
67
0
189
69
0
188
69
0
188
69
0
188
69
0
194
70
0
211
79
0
34
16
0
0
0
0
0
0
0
0
0
0
0
0
0
0
0
0
0
0
0
0
0
0
0
0
0
0
0
0
0
0
0
0
0
0
0
0
0
0
0
0
0
0
0
0
0
0
0
0
0
0
0
0
0
0
0
0
0
0
0
0
0
0
0
0
0
0
0
0
0
0
0
0
0
0
0
0
0
0
0
0
0
0
0
0
0
0
0
0
0
0
0
0
0
0
0
0
0
0
0
0
0
0
0
0
0
0
0
0
0
0
0
0
0
0
0
0
0
0
0
0
0
0
0
0
0
0
0
0
0
0
0
0
0
0
0
0
0
0
0
0
0
0
0
0
0
0
0
0
0
0
0
0
0
0
0
0
0
0
0
0
0
0
0
0
0
0
0
0
0
0
0
0
0
0
0
0
0
0
0
0
0
47
22
0
235
89
0
200
72
0
183
68
0
189
69
0
188
69
0
188
69
0
188
69
0
185
68
0
218
78
0
173
68
0
0
0
0
0
0
0
0
0
0
0
0
0
0
0
0
0
0
0
0
0
0
0
0
0
0
0
0
0
0
0
0
0
0
0
0
0
0
0
0
0
0
0
0
0
0
0
0
0
0
0
0
0
0
0
0
0
0
0
0
0
0
0
0
0
0
0
0
0
0
0
0
0
0
0
0
0
0
0
0
0
0
0
0
0
0
0
0
0
0
0
0
0
0
0
0
0
0
0
0
0
0
0
0
0
0
0
0
0
0
0
0
0
0
0
0
0
0
0
0
0
0
0
0
0
0
0
0
0
0
0
0
0
0
0
0
0
0
0
0
0
0
0
0
0
0
0
0
0
0
0
0
0
0
0
0
0
0
0
0
0
0
0
0
0
0
0
0
0
0
0
0
0
0
0
0
0
0
0
0
0
2
4
0
187
72
0
218
78
0
181
67
0
188
69
0
188
69
0
188
69
0
188
69
0
188
69
0
182
67
0
234
86
0
99
41
0
0
0
0
0
0
0
0
0
0
0
0
0
0
0
0
0
0
0
0
0
0
0
0
0
0
0
0
0
0
0
0
0
0
0
0
0
0
0
0
0
0
0
0
0
0
0
0
0
0
0
0
0
0
0
0
0
0
0
0
0
0
0
0
0
0
0
0
0
0
0
0
0
0
0
0
0
0
0
0
0
0
0
0
0
0
0
0
0
0
0
0
0
0
0
0
0
0
0
0
0
0
0
0
0
0
0
0
0
0
0
0
0
0
0
0
0
0
0
0
0
0
0
0
0
0
0
0
0
0
0
0
0
0
0
0
0
0
0
0
0
0
0
0
0
0
0
0
0
0
0
0
0
0
0
0
0
0
0
0
0
0
0
0
0
0
0
0
0
0
0
0
0
0
0
0
0
0
0
0
0
102
43
0
238
87
0
182
66
0
189
69
0
188
69
0
188
69
0
188
69
0
188
69
0
185
69
0
206
74
0
199
75
0
11
6
0
0
0
0
0
0
0
0
0
0
0
0
0
0
0
0
0
0
0
0
0
0
0
0
0
0
0
0
0
0
0
0
0
0
0
0
0
0
0
0
0
0
0
0
0
0
0
0
0
0
0
0
0
0
0
0
0
0
0
0
0
0
0
0
0
0
0
0
0
0
0
0
0
0
0
0
0
0
0
0
0
0
0
0
0
0
0
0
0
0
0
0
0
0
0
0
0
0
0
0
0
0
0
0
0
0
0
0
0
0
0
0
0
0
0
0
0
0
0
0
0
0
0
0
0
0
0
0
0
0
0
0
0
0
0
0
0
0
0
0
0
0
0
0
0
0
0
0
0
0
0
0
0
0
0
0
0
0
0
0
0
0
0
0
0
0
0
0
0
0
0
0
0
0
0
0
0
0
8
5
0
199
75
0
209
75
0
185
68
0
188
69
0
188
69
0
188
69
0
188
69
0
188
69
0
182
66
0
241
89
0
94
39
0
0
0
0
0
0
0
0
0
0
0
0
0
0
0
0
0
0
0
0
0
0
0
0
0
0
0
0
0
0
0
0
0
0
0
0
0
0
0
0
0
0
0
0
0
0
0
0
0
0
0
0
0
0
0
0
0
0
0
0
0
0
0
0
0
0
0
0
0
0
0
0
0
0
0
0
0
0
0
0
0
0
0
0
0
0
0
0
0
0
0
0
0
0
0
0
0
0
0
0
0
0
0
0
0
0
0
0
0
0
0
0
0
0
0
0
0
0
0
0
0
0
0
0
0
0
0
0
0
0
0
0
0
0
0
0
0
0
0
0
0
0
0
0
0
0
0
0
0
0
0
0
0
0
0
0
0
0
0
0
0
0
0
0
0
0
0
0
0
0
0
0
0
0
0
0
0
0
0
0
0
82
34
0
231
86
0
183
67
0
188
69
0
188
69
0
188
69
0
188
69
0
189
69
0
179
65
0
231
83
0
173
69
0
0
0
0
0
0
0
0
0
0
0
0
0
0
0
0
0
0
0
0
0
0
0
0
0
0
0
0
0
0
0
0
0
0
0
0
0
0
0
0
0
0
0
0
0
0
0
0
0
0
0
0
0
0
0
0
0
0
0
0
0
0
0
0
0
0
0
0
0
0
0
0
0
0
0
0
0
0
0
0
0
0
0
0
0
0
0
0
0
0
0
0
0
0
0
0
0
0
0
0
0
0
0
0
0
0
0
0
0
0
0
0
0
0
0
0
0
0
0
0
0
0
0
0
0
0
0
0
0
0
0
0
0
0
0
0
0
0
0
0
0
0
0
0
0
0
0
0
0
0
0
0
0
0
0
0
0
0
0
0
0
0
0
0
0
0
0
0
0
0
0
0
0
0
0
0
0
0
0
0
0
0
0
0
146
59
0
221
80
0
185
68
0
188
69
0
188
69
0
188
69
0
189
69
0
179
66
0
218
78
0
213
83
0
23
12
0
0
0
0
0
0
0
0
0
0
0
0
0
0
0
0
0
0
0
0
0
0
0
0
0
0
0
0
0
0
0
0
0
0
0
0
0
0
0
0
0
0
0
0
0
0
0
0
0
0
0
0
0
0
0
0
0
0
0
0
0
0
0
0
0
0
0
0
0
0
0
0
0
0
0
0
0
0
0
0
0
0
0
0
0
0
0
0
0
0
0
0
0
0
0
0
0
0
0
0
0
0
0
0
0
0
0
0
0
0
0
0
0
0
0
0
0
0
0
0
0
0
0
0
0
0
0
0
0
0
0
0
0
0
0
0
0
0
0
0
0
0
0
0
0
0
0
0
0
0
0
0
0
0
0
0
0
0
0
0
0
0
0
0
0
0
0
0
0
0
0
0
0
0
0
0
0
0
0
0
0
1
2
0
180
68
0
206
75
0
187
69
0
188
69
0
188
69
0
186
69
0
180
66
0
226
81
0
217
83
0
38
17
0
0
0
0
0
0
0
0
0
0
0
0
0
0
0
0
0
0
0
0
0
0
0
0
0
0
0
0
0
0
0
0
0
0
0
0
0
0
0
0
0
0
0
0
0
0
0
0
0
0
0
0
0
0
0
0
0
0
0
0
0
0
0
0
0
0
0
0
0
0
0
0
0
0
0
0
0
0
0
0
0
0
0
0
0
0
0
0
0
0
0
0
0
0
0
0
0
0
0
0
0
0
0
0
0
0
0
0
0
0
0
0
0
0
0
0
0
0
0
0
0
0
0
0
0
0
0
0
0
0
0
0
0
0
0
0
0
0
0
0
0
0
0
0
0
0
0
0
0
0
0
0
0
0
0
0
0
0
0
0
0
0
0
0
0
0
0
0
0
0
0
0
0
0
0
0
0
0
0
0
0
0
0
0
25
14
0
193
74
0
198
72
0
187
69
0
185
68
0
182
66
0
199
71
0
238
87
0
190
74
0
32
15
0
0
0
0
0
0
0
0
0
0
0
0
0
0
0
0
0
0
0
0
0
0
0
0
0
0
0
0
0
0
0
0
0
0
0
0
0
0
0
0
0
0
0
0
0
0
0
0
0
0
0
0
0
0
0
0
0
0
0
0
0
0
0
0
0
0
0
0
0
0
0
0
0
0
0
0
0
0
0
0
0
0
0
0
0
0
0
0
0
0
0
0
0
0
0
0
0
0
0
0
0
0
0
0
0
0
0
0
0
0
0
0
0
0
0
0
0
0
0
0
0
0
0
0
0
0
0
0
0
0
0
0
0
0
0
0
0
0
0
0
0
0
0
0
0
0
0
0
0
0
0
0
0
0
0
0
0
0
0
0
0
0
0
0
0
0
0
0
0
0
0
0
0
0
0
0
0
0
0
0
0
0
0
0
0
0
0
41
19
0
202
77
0
196
70
0
195
70
0
213
77
0
234
86
0
211
80
0
123
50
0
0
2
0
0
0
0
0
0
0
0
0
0
0
0
0
0
0
0
0
0
0
0
0
0
0
0
0
0
0
0
0
0
0
0
0
0
0
0
0
0
0
0
0
0
0
0
0
0
0
0
0
0
0
0
0
0
0
0
0
0
0
0
0
0
0
0
0
0
0
0
0
0
0
0
0
0
0
0
0
0
0
0
0
0
0
0
0
0
0
0
0
0
0
0
0
0
0
0
0
0
0
0
0
0
0
0
0
0
0
0
0
0
0
0
0
0
0
0
0
0
0
0
0
0
0
0
0
0
0
0
0
0
0
0
0
0
0
0
0
0
0
0
0
0
0
0
0
0
0
0
0
0
0
15
9
0
62
27
0
91
37
0
104
42
0
104
41
0
91
37
0
65
28
0
22
12
0
0
0
0
0
0
0
0
0
0
0
0
0
0
0
0
21
13
0
220
85
0
234
85
0
208
79
0
180
71
0
118
48
0
29
15
0
0
0
0
0
0
0
0
0
0
0
0
0
17
9
0
58
25
0
86
36
0
101
40
0
106
42
0
100
39
0
78
33
0
39
19
0
0
0
0
0
0
0
0
0
0
0
0
0
0
0
0
0
0
0
0
0
0
0
0
0
0
0
0
0
0
0
0
0
0
0
0
0
0
0
0
0
0
0
0
0
0
0
0
0
0
0
0
0
0
0
0
0
0
0
0
0
0
0
0
0
0
0
0
0
0
0
0
0
0
0
0
0
0
0
0
0
0
0
0
0
0
0
0
0
0
0
0
0
0
0
0
0
0
0
0
0
0
0
0
0
0
0
0
0
0
0
0
0
0
0
76
32
0
153
60
0
199
76
0
219
82
0
226
84
0
226
83
0
226
83
0
225
83
0
219
81
0
202
76
0
164
64
0
101
42
0
36
17
0
0
0
0
0
0
0
0
0
0
60
27
0
67
28
0
30
14
0
0
0
0
0
0
0
0
0
0
0
0
0
24
12
0
93
39
0
159
62
0
199
76
0
217
81
0
224
83
0
226
83
0
226
83
0
226
83
0
223
82
0
211
80
0
181
71
0
114
46
0
32
16
0
0
0
0
0
0
0
0
0
0
0
0
0
0
0
0
0
0
0
0
0
0
0
0
0
0
0
0
0
0
0
0
0
0
0
0
0
0
0
0
0
0
0
0
0
0
0
0
0
0
0
0
0
0
0
0
0
0
0
0
0
0
0
0
0
0
0
0
0
0
0
0
0
0
0
0
0
0
0
0
0
0
0
0
0
0
0
0
0
0
0
0
0
0
0
0
0
0
0
0
71
30
0
180
69
0
228
85
0
226
82
0
202
73
0
189
69
0
185
67
0
185
68
0
185
68
0
185
67
0
189
68
0
199
72
0
220
79
0
231
86
0
206
78
0
159
62
0
94
37
0
35
17
0
0
0
0
0
0
0
0
0
0
0
0
0
15
9
0
77
32
0
144
56
0
199
76
0
230
86
0
222
80
0
201
73
0
190
69
0
186
68
0
185
68
0
185
68
0
185
68
0
186
67
0
194
70
0
214
77
0
234
86
0
210
80
0
131
53
0
11
9
0
0
0
0
0
0
0
0
0
0
0
0
0
0
0
0
0
0
0
0
0
0
0
0
0
0
0
0
0
0
0
0
0
0
0
0
0
0
0
0
0
0
0
0
0
0
0
0
0
0
0
0
0
0
0
0
0
0
0
0
0
0
0
0
0
0
0
0
0
0
0
0
0
0
0
0
0
0
0
0
0
0
0
0
0
0
0
0
4
4
0
149
60
0
235
88
0
216
77
0
186
67
0
184
68
0
187
69
0
188
69
0
188
69
0
188
69
0
188
69
0
188
69
0
188
69
0
187
69
0
185
68
0
184
67
0
194
70
0
217
78
0
228
84
0
208
79
0
177
69
0
152
59
0
145
56
0
164
63
0
195
74
0
224
83
0
222
81
0
198
71
0
185
67
0
185
68
0
187
69
0
188
69
0
188
69
0
188
69
0
188
69
0
188
69
0
188
69
0
188
69
0
185
68
0
183
67
0
197
71
0
236
86
0
205
79
0
65
28
0
0
0
0
0
0
0
0
0
0
0
0
0
0
0
0
0
0
0
0
0
0
0
0
0
0
0
0
0
0
0
0
0
0
0
0
0
0
0
0
0
0
0
0
0
0
0
0
0
0
0
0
0
0
0
0
0
0
0
0
0
0
0
0
0
0
0
0
0
0
0
0
0
0
0
0
0
0
0
0
0
0
27
13
0
190
75
0
236
86
0
189
68
0
183
67
0
188
69
0
188
69
0
188
69
0
188
69
0
188
69
0
188
69
0
188
69
0
188
69
0
188
69
0
188
69
0
188
69
0
188
69
0
188
69
0
185
68
0
184
67
0
195
71
0
209
75
0
219
79
0
221
80
0
215
77
0
201
73
0
186
68
0
184
68
0
188
69
0
188
69
0
188
69
0
188
69
0
188
69
0
188
69
0
188
69
0
188
69
0
188
69
0
188
69
0
188
69
0
188
69
0
188
69
0
187
69
0
180
66
0
213
76
0
236
89
0
108
46
0
0
0
0
0
0
0
0
0
0
0
0
0
0
0
0
0
0
0
0
0
0
0
0
0
0
0
0
0
0
0
0
0
0
0
0
0
0
0
0
0
0
0
0
0
0
0
0
0
0
0
0
0
0
0
0
0
0
0
0
0
0
0
0
0
0
0
0
0
0
0
0
0
0
0
0
30
14
0
212
82
0
226
81
0
180
66
0
187
69
0
188
69
0
188
69
0
188
69
0
188
69
0
188
69
0
188
69
0
188
69
0
188
69
0
188
69
0
188
69
0
188
69
0
188
69
0
188
69
0
188
69
0
188
69
0
188
69
0
188
69
0
186
69
0
185
68
0
185
68
0
186
68
0
187
69
0
188
69
0
188
69
0
188
69
0
188
69
0
188
69
0
188
69
0
188
69
0
188
69
0
188
69
0
188
69
0
188
69
0
188
69
0
188
69
0
188
69
0
188
69
0
188
69
0
189
69
0
182
67
0
195
69
0
244
90
0
119
49
0
0
0
0
0
0
0
0
0
0
0
0
0
0
0
0
0
0
0
0
0
0
0
0
0
0
0
0
0
0
0
0
0
0
0
0
0
0
0
0
0
0
0
0
0
0
0
0
0
0
0
0
0
0
0
0
0
0
0
0
0
0
0
0
0
0
0
0
0
0
16
8
0
202
78
0
222
80
0
179
65
0
188
69
0
188
69
0
188
69
0
188
69
0
188
69
0
188
69
0
188
69
0
188
69
0
188
69
0
188
69
0
188
69
0
188
69
0
188
69
0
188
69
0
188
69
0
188
69
0
188
69
0
188
69
0
188
69
0
188
69
0
188
69
0
188
69
0
188
69
0
188
69
0
188
69
0
188
69
0
188
69
0
188
69
0
188
69
0
188
69
0
188
69
0
188
69
0
188
68
0
188
68
0
188
68
0
188
68
0
188
68
0
188
68
0
188
68
0
188
68
0
188
68
0
188
69
0
185
68
0
186
66
0
248
90
0
139
56
0
1
1
0
0
0
0
0
0
0
0
0
0
0
0
0
0
0
0
0
0
0
0
0
0
0
0
0
0
0
0
0
0
0
0
0
0
0
0
0
0
0
0
0
0
0
0
0
0
0
0
0
0
0
0
0
0
0
0
0
0
0
0
0
0
5
0
172
75
0
232
89
0
180
72
0
189
75
0
188
75
0
188
75
0
188
75
0
189
75
0
189
75
0
189
75
0
189
75
0
189
75
0
189
75
0
189
75
0
189
75
0
189
75
0
189
75
0
189
75
0
189
75
0
189
75
0
189
75
0
189
75
0
189
75
0
189
75
0
189
75
0
189
75
0
189
75
0
189
75
0
189
75
0
189
75
0
189
75
0
189
75
0
189
75
0
189
75
0
189
75
0
189
75
0
189
75
0
189
75
0
189
75
0
189
75
0
189
75
0
189
75
0
189
75
0
189
75
0
189
75
0
189
75
0
181
73
0
207
77
0
235
87
0
150
61
0
2
3
0
0
0
0
0
0
0
0
0
0
0
0
0
0
0
0
0
0
0
0
0
0
0
0
0
0
0
0
0
0
0
0
0
0
0
0
0
0
0
0
0
0
0
0
0
0
0
0
0
0
0
0
0
0
0
0
0
0
0
0
0
103
38
0
240
79
0
181
59
0
187
62
0
187
62
0
187
62
0
187
62
0
187
62
0
186
62
0
186
61
0
186
61
0
186
61
0
186
61
0
186
61
0
186
61
0
186
61
0
186
61
0
186
61
0
186
61
0
186
61
0
186
61
0
186
61
0
186
61
0
186
61
0
186
61
0
186
61
0
186
61
0
186
61
0
186
61
0
186
61
0
186
61
0
186
61
0
186
61
0
186
61
0
186
61
0
186
61
0
186
61
0
187
62
0
187
62
0
187
62
0
187
62
0
187
62
0
187
62
0
187
62
0
187
62
0
187
62
0
179
60
0
219
67
0
207
75
0
60
27
0
0
0
0
0
0
0
0
0
0
0
0
0
0
0
0
0
0
0
0
0
0
0
0
0
0
0
0
0
0
0
0
0
0
0
0
0
0
0
0
0
0
0
0
0
0
0
0
0
0
0
0
0
0
0
0
0
0
0
0
0
0
0
0
27
11
0
214
47
0
193
33
0
182
33
0
184
33
0
184
33
0
184
33
0
184
33
0
184
33
0
183
34
0
184
34
0
184
34
0
184
34
0
184
34
0
184
34
0
184
34
0
184
34
0
184
34
0
184
34
0
184
34
0
184
34
0
184
34
0
184
34
0
184
34
0
184
34
0
184
34
0
184
34
0
184
34
0
184
34
0
184
34
0
184
34
0
184
34
0
184
34
0
184
34
0
184
34
0
184
34
0
184
34
0
184
34
0
183
34
0
183
34
0
183
34
0
183
34
0
183
34
0
183
34
0
183
34
0
184
34
0
176
32
0
217
39
0
190
40
0
24
6
0
0
0
0
0
0
0
0
0
0
0
0
0
0
0
0
0
0
0
0
0
0
0
0
0
0
0
0
0
0
0
0
0
0
0
0
0
0
0
0
0
0
0
0
0
0
0
0
0
0
0
0
0
0
0
0
0
0
0
0
0
0
0
0
0
0
0
133
33
0
229
48
0
177
37
0
184
39
0
184
38
0
184
38
0
184
38
0
184
38
0
184
38
0
184
39
0
184
39
0
184
39
0
184
39
0
184
39
0
184
39
0
184
39
0
184
39
0
184
39
0
184
39
0
184
39
0
184
39
0
184
39
0
184
39
0
184
39
0
184
39
0
184
39
0
184
39
0
184
39
0
184
39
0
184
39
0
184
39
0
184
39
0
184
39
0
184
39
0
184
39
0
184
39
0
184
39
0
184
39
0
184
39
0
184
39
0
184
39
0
184
39
0
184
39
0
184
39
0
184
39
0
178
38
0
209
43
0
203
46
0
19
7
0
0
0
0
0
0
0
0
0
0
0
0
0
0
0
0
0
0
0
0
0
0
0
0
0
0
0
0
0
0
0
0
0
0
0
0
0
0
0
0
0
0
0
0
0
0
0
0
0
0
0
0
0
0
0
0
0
0
0
0
0
0
0
0
0
0
0
19
8
0
205
46
0
196
39
0
183
39
0
184
39
0
184
39
0
184
39
0
184
39
0
184
39
0
184
39
0
184
39
0
184
39
0
184
39
0
184
39
0
184
39
0
184
39
0
184
39
0
184
39
0
184
39
0
184
39
0
184
39
0
184
39
0
184
39
0
184
39
0
184
39
0
184
39
0
184
39
0
184
39
0
184
39
0
184
39
0
184
39
0
184
39
0
184
39
0
184
39
0
184
39
0
184
39
0
184
39
0
184
39
0
184
39
0
184
39
0
184
39
0
184
39
0
184
39
0
184
39
0
184
39
0
183
39
0
189
39
0
220
48
0
41
15
0
0
0
0
0
0
0
0
0
0
0
0
0
0
0
0
0
0
0
0
0
0
0
0
0
0
0
0
0
0
0
0
0
0
0
0
0
0
0
0
0
0
0
0
0
0
0
0
0
0
0
0
0
0
0
0
0
0
0
0
0
0
0
0
0
0
0
0
0
0
88
23
0
227
48
0
179
38
0
184
39
0
184
39
0
184
39
0
184
39
0
184
39
0
184
39
0
184
39
0
184
39
0
184
39
0
184
39
0
184
39
0
184
39
0
184
39
0
184
39
0
184
39
0
184
39
0
184
39
0
184
39
0
184
39
0
184
39
0
184
39
0
184
39
0
184
39
0
184
39
0
184
39
0
184
39
0
184
39
0
184
39
0
184
39
0
184
39
0
184
39
0
184
39
0
184
39
0
184
39
0
184
39
0
184
39
0
184
39
0
184
39
0
184
39
0
184
39
0
184
39
0
184
39
0
178
38
0
227
48
0
115
30
0
0
0
0
0
0
0
0
0
0
0
0
0
0
0
0
0
0
0
0
0
0
0
0
0
0
0
0
0
0
0
0
0
0
0
0
0
0
0
0
0
0
0
0
0
0
0
0
0
0
0
0
0
0
0
0
0
0
0
0
0
0
0
0
0
0
0
0
0
0
0
0
0
146
36
0
215
44
0
181
39
0
184
39
0
184
39
0
184
39
0
184
39
0
184
39
0
184
39
0
184
39
0
184
39
0
184
39
0
184
39
0
184
39
0
184
39
0
184
39
0
184
39
0
184
39
0
184
39
0
184
39
0
184
39
0
184
39
0
184
39
0
184
39
0
184
39
0
184
39
0
184
39
0
184
39
0
184
39
0
184
39
0
184
39
0
184
39
0
184
39
0
184
39
0
184
39
0
184
39
0
184
39
0
184
39
0
184
39
0
184
39
0
184
39
0
184
39
0
184
39
0
184
39
0
183
39
0
198
40
0
200
46
0
9
5
0
0
0
0
0
0
0
0
0
0
0
0
0
0
0
0
0
0
0
0
0
0
0
0
0
0
0
0
0
0
0
0
0
0
0
0
0
0
0
0
0
0
0
0
0
0
0
0
0
0
0
0
0
0
0
0
0
0
0
0
0
0
0
0
0
0
0
0
0
0
4
5
0
179
42
0
200
40
0
183
39
0
183
39
0
183
39
0
183
39
0
183
39
0
183
39
0
183
39
0
183
39
0
183
39
0
183
39
0
183
39
0
183
39
0
183
39
0
183
39
0
183
39
0
183
39
0
183
39
0
183
39
0
183
39
0
183
39
0
183
39
0
183
39
0
183
39
0
183
39
0
183
39
0
183
39
0
183
39
0
183
39
0
183
39
0
183
39
0
183
39
0
183
39
0
183
39
0
183
39
0
183
39
0
183
39
0
183
39
0
183
39
0
183
39
0
183
39
0
183
39
0
184
39
0
180
38
0
224
47
0
121
30
0
0
0
0
0
0
0
0
0
0
0
0
0
0
0
0
0
0
0
0
0
0
0
0
0
0
0
0
0
0
0
0
0
0
0
0
0
0
0
0
0
0
0
0
0
0
0
0
0
0
0
0
0
0
0
0
0
0
0
0
0
0
0
0
0
0
0
0
0
0
0
0
0
48
14
0
211
46
0
195
40
0
191
40
0
191
40
0
191
40
0
191
40
0
191
40
0
191
40
0
191
40
0
191
40
0
191
40
0
191
40
0
191
40
0
191
40
0
191
40
0
191
40
0
191
40
0
191
40
0
191
40
0
191
40
0
191
40
0
191
40
0
191
40
0
191
40
0
191
40
0
191
40
0
191
40
0
191
40
0
191
40
0
191
40
0
191
40
0
191
40
0
191
40
0
191
40
0
191
40
0
191
40
0
191
40
0
191
40
0
191
40
0
191
40
0
191
40
0
191
40
0
191
40
0
191
40
0
193
41
0
220
49
0
56
15
0
0
0
0
0
0
0
0
0
0
0
0
0
0
0
0
0
0
0
0
0
0
0
0
0
0
0
0
0
0
0
0
0
0
0
0
0
0
0
0
0
0
0
0
0
0
0
0
0
0
0
0
0
0
0
0
0
0
0
0
0
0
0
0
0
0
0
0
0
0
0
0
0
69
17
0
210
45
0
178
38
0
178
38
0
178
38
0
178
38
0
178
38
0
178
38
0
178
38
0
178
38
0
178
38
0
178
38
0
178
38
0
178
38
0
178
38
0
178
38
0
178
38
0
178
38
0
178
38
0
178
38
0
178
38
0
178
38
0
178
38
0
178
38
0
178
38
0
178
38
0
178
38
0
178
38
0
178
38
0
178
38
0
178
38
0
178
38
0
178
38
0
178
38
0
178
38
0
178
38
0
178
38
0
178
38
0
178
38
0
178
38
0
178
38
0
178
38
0
178
38
0
178
38
0
177
38
0
192
39
0
176
41
0
10
7
0
0
0
0
0
0
0
0
0
0
0
0
0
0
0
0
0
0
0
0
0
0
0
0
0
0
0
0
0
0
0
0
0
0
0
0
0
0
0
0
0
0
0
0
0
0
0
0
0
0
0
0
0
0
0
0
0
0
0
0
0
0
0
0
0
0
0
0
0
0
0
0
0
60
19
0
149
36
0
124
30
0
124
30
0
124
30
0
124
30
0
124
30
0
124
30
0
124
30
0
124
30
0
124
30
0
124
30
0
124
30
0
124
30
0
124
30
0
124
30
0
124
30
0
124
30
0
124
30
0
124
30
0
124
30
0
124
30
0
124
30
0
124
30
0
124
30
0
124
30
0
124
30
0
124
30
0
124
30
0
124
30
0
124
30
0
124
30
0
124
30
0
124
30
0
124
30
0
124
30
0
124
30
0
124
30
0
124
30
0
124
30
0
124
30
0
124
30
0
124
30
0
124
30
0
123
30
0
141
33
0
108
28
0
0
0
0
0
0
0
0
0
0
0
0
0
0
0
0
0
0
0
0
0
0
0
0
0
0
0
0
0
0
0
0
0
0
0
0
0
0
0
0
0
0
0
0
0
0
0
0
0
0
0
0
0
0
0
0
0
0
0
0
0
0
0
0
0
0
0
0
0
0
0
0
0
0
0
0
75
24
0
152
37
0
126
30
0
128
31
0
128
31
0
128
31
0
128
31
0
128
31
0
128
31
0
128
31
0
128
31
0
128
31
0
128
31
0
128
31
0
128
31
0
128
31
0
128
31
0
128
31
0
128
31
0
128
31
0
128
31
0
128
31
0
128
31
0
128
31
0
128
31
0
128
31
0
128
31
0
128
31
0
128
31
0
128
31
0
128
31
0
128
31
0
128
31
0
128
31
0
128
31
0
128
31
0
128
31
0
128
31
0
128
31
0
128
31
0
128
31
0
128
31
0
128
31
0
128
31
0
127
31
0
146
34
0
102
28
0
0
0
0
0
0
0
0
0
0
0
0
0
0
0
0
0
0
0
0
0
0
0
0
0
0
0
0
0
0
0
0
0
0
0
0
0
0
0
0
0
0
0
0
0
0
0
0
0
0
0
0
0
0
0
0
0
0
0
0
0
0
0
0
0
0
0
0
0
0
0
0
0
0
0
0
79
22
0
156
37
0
128
30
0
130
31
0
130
31
0
130
31
0
130
31
0
130
31
0
130
31
0
130
31
0
130
31
0
130
31
0
130
31
0
130
31
0
130
31
0
130
31
0
130
31
0
130
31
0
130
31
0
130
31
0
130
31
0
130
31
0
130
31
0
130
31
0
130
31
0
130
31
0
130
31
0
130
31
0
130
31
0
130
31
0
130
31
0
130
31
0
130
31
0
130
31
0
130
31
0
130
31
0
130
31
0
130
31
0
130
31
0
130
31
0
130
31
0
130
31
0
130
31
0
130
31
0
129
31
0
149
34
0
101
29
0
0
0
0
0
0
0
0
0
0
0
0
0
0
0
0
0
0
0
0
0
0
0
0
0
0
0
0
0
0
0
0
0
0
0
0
0
0
0
0
0
0
0
0
0
0
0
0
0
0
0
0
0
0
0
0
0
0
0
0
0
0
0
0
0
0
0
0
0
0
0
0
0
0
0
0
78
20
0
156
37
0
129
31
0
130
31
0
130
31
0
130
31
0
130
31
0
130
31
0
130
31
0
130
31
0
130
31
0
130
31
0
130
31
0
130
31
0
130
31
0
130
31
0
130
31
0
130
31
0
130
31
0
130
31
0
130
31
0
130
31
0
130
31
0
130
31
0
130
31
0
130
31
0
130
31
0
130
31
0
130
31
0
130
31
0
130
31
0
130
31
0
130
31
0
130
31
0
130
31
0
130
31
0
130
31
0
130
31
0
130
31
0
130
31
0
130
31
0
130
31
0
130
31
0
130
31
0
129
31
0
148
34
0
107
30
0
0
0
0
0
0
0
0
0
0
0
0
0
0
0
0
0
0
0
0
0
0
0
0
0
0
0
0
0
0
0
0
0
0
0
0
0
0
0
0
0
0
0
0
0
0
0
0
0
0
0
0
0
0
0
0
0
0
0
0
0
0
0
0
0
0
0
0
0
0
0
0
0
0
0
0
77
24
0
155
37
0
129
30
0
130
31
0
130
31
0
130
31
0
130
31
0
130
31
0
130
31
0
130
31
0
130
31
0
130
31
0
130
31
0
130
31
0
130
31
0
130
31
0
130
31
0
130
31
0
130
31
0
130
31
0
130
31
0
130
31
0
130
31
0
130
31
0
130
31
0
130
31
0
130
31
0
130
31
0
130
31
0
130
31
0
130
31
0
130
31
0
130
31
0
130
31
0
130
31
0
130
31
0
130
31
0
130
31
0
130
31
0
130
31
0
130
31
0
130
31
0
130
31
0
130
31
0
129
31
0
145
34
0
118
31
0
0
1
0
0
0
0
0
0
0
0
0
0
0
0
0
0
0
0
0
0
0
0
0
0
0
0
0
0
0
0
0
0
0
0
0
0
0
0
0
0
0
0
0
0
0
0
0
0
0
0
0
0
0
0
0
0
0
0
0
0
0
0
0
0
0
0
0
0
0
0
0
0
0
0
0
66
21
0
155
37
0
129
31
0
130
31
0
130
31
0
130
31
0
130
31
0
130
31
0
130
31
0
130
31
0
130
31
0
130
31
0
130
31
0
130
31
0
130
31
0
130
31
0
130
31
0
130
31
0
130
31
0
130
31
0
130
31
0
130
31
0
130
31
0
130
31
0
130
31
0
130
31
0
130
31
0
130
31
0
130
31
0
130
31
0
130
31
0
130
31
0
130
31
0
130
31
0
130
31
0
130
31
0
130
31
0
130
31
0
130
31
0
130
31
0
130
31
0
130
31
0
130
31
0
130
31
0
130
31
0
136
31
0
135
35
0
17
9
0
0
0
0
0
0
0
0
0
0
0
0
0
0
0
0
0
0
0
0
0
0
0
0
0
0
0
0
0
0
0
0
0
0
0
0
0
0
0
0
0
0
0
0
0
0
0
0
0
0
0
0
0
0
0
0
0
0
0
0
0
0
0
0
0
0
0
0
0
0
0
0
0
55
17
0
160
35
0
135
29
0
135
29
0
135
29
0
135
29
0
135
29
0
135
29
0
135
29
0
135
29
0
135
29
0
135
29
0
135
29
0
135
29
0
135
29
0
135
29
0
135
29
0
135
29
0
135
29
0
135
29
0
135
29
0
135
29
0
135
29
0
135
29
0
135
29
0
135
29
0
135
29
0
135
29
0
135
29
0
135
29
0
135
29
0
135
29
0
135
29
0
135
29
0
135
29
0
135
29
0
135
29
0
135
29
0
135
29
0
135
29
0
135
29
0
135
29
0
135
29
0
135
29
0
135
29
0
134
28
0
162
36
0
56
14
0
0
0
0
0
0
0
0
0
0
0
0
0
0
0
0
0
0
0
0
0
0
0
0
0
0
0
0
0
0
0
0
0
0
0
0
0
0
0
0
0
0
0
0
0
0
0
0
0
0
0
0
0
0
0
0
0
0
0
0
0
0
0
0
0
0
0
0
0
0
0
0
0
44
14
0
153
37
0
136
29
0
134
29
0
134
29
0
134
29
0
134
29
0
134
29
0
134
30
0
134
29
0
134
29
0
134
29
0
134
29
0
134
29
0
134
29
0
134
29
0
134
29
0
134
29
0
134
29
0
134
29
0
134
29
0
134
29
0
134
29
0
134
29
0
134
29
0
134
29
0
134
29
0
134
29
0
134
29
0
134
29
0
134
29
0
134
29
0
134
29
0
134
29
0
134
29
0
134
29
0
134
29
0
134
29
0
134
29
0
134
29
0
134
29
0
134
29
0
134
29
0
134
29
0
134
29
0
132
29
0
160
34
0
106
26
0
0
0
0
0
0
0
0
0
0
0
0
0
0
0
0
0
0
0
0
0
0
0
0
0
0
0
0
0
0
0
0
0
0
0
0
0
0
0
0
0
0
0
0
0
0
0
0
0
0
0
0
0
0
0
0
0
0
0
0
0
0
0
0
0
0
0
0
0
0
0
0
0
13
15
0
65
68
0
62
63
0
60
61
0
60
61
0
60
61
0
60
61
0
60
61
0
60
61
0
61
62
0
61
62
0
61
62
0
61
62
0
61
62
0
61
62
0
61
62
0
61
62
0
61
62
0
61
62
0
61
62
0
61
62
0
61
62
0
61
62
0
61
62
0
61
62
0
61
62
0
61
62
0
61
62
0
61
62
0
61
62
0
61
62
0
61
62
0
61
62
0
61
62
0
61
62
0
61
62
0
61
62
0
61
62
0
61
62
0
61
62
0
61
62
0
61
62
0
61
62
0
61
62
0
61
62
0
61
62
0
61
63
0
75
71
0
12
12
0
0
0
0
0
0
0
0
0
0
0
0
0
0
0
0
0
0
0
0
0
0
0
0
0
0
0
0
0
0
0
0
0
0
0
0
0
0
0
0
0
0
0
0
0
0
0
0
0
0
0
0
0
0
0
0
0
0
0
0
0
0
0
0
0
0
0
0
0
0
0
3
0
50
64
0
55
70
0
51
65
0
51
65
0
51
65
0
51
65
0
51
65
0
51
65
0
51
66
0
51
66
0
51
66
0
51
66
0
51
66
0
51
66
0
51
66
0
51
66
0
51
66
0
51
66
0
51
66
0
51
66
0
51
66
0
51
66
0
51
66
0
51
66
0
51
66
0
51
66
0
51
66
0
51
66
0
51
66
0
51
66
0
51
66
0
51
66
0
51
66
0
51
66
0
51
66
0
51
66
0
51
66
0
51
66
0
51
66
0
51
66
0
51
66
0
51
66
0
51
66
0
51
66
0
51
66
0
48
64
0
63
77
0
47
50
0
0
0
0
0
0
0
0
0
0
0
0
0
0
0
0
0
0
0
0
0
0
0
0
0
0
0
0
0
0
0
0
0
0
0
0
0
0
0
0
0
0
0
0
0
0
0
0
0
0
0
0
0
0
0
0
0
0
0
0
0
0
0
0
0
0
0
0
0
0
0
0
0
50
51
0
67
70
0
58
61
0
59
62
0
59
62
0
59
62
0
59
62
0
59
62
0
59
62
0
59
62
0
59
62
0
59
62
0
59
62
0
59
62
0
59
62
0
59
62
0
59
62
0
59
62
0
59
62
0
59
62
0
59
62
0
59
62
0
59
62
0
59
62
0
59
62
0
59
62
0
59
62
0
59
62
0
59
62
0
59
62
0
59
62
0
59
62
0
59
62
0
59
62
0
59
62
0
59
62
0
59
62
0
59
62
0
59
62
0
59
62
0
59
62
0
59
62
0
59
62
0
59
62
0
59
62
0
59
62
0
58
61
0
72
78
0
23
26
0
0
0
0
0
0
0
0
0
0
0
0
0
0
0
0
0
0
0
0
0
0
0
0
0
0
0
0
0
0
0
0
0
0
0
0
0
0
0
0
0
0
0
0
0
0
0
0
0
0
0
0
0
0
0
0
0
0
0
0
0
0
0
0
0
0
0
0
0
0
35
37
0
70
75
0
57
61
0
58
62
0
58
62
0
58
62
0
58
62
0
58
62
0
58
62
0
58
62
0
58
62
0
58
62
0
58
62
0
58
62
0
58
62
0
58
62
0
58
62
0
58
62
0
58
62
0
58
62
0
58
62
0
58
62
0
58
62
0
58
62
0
58
62
0
58
62
0
58
62
0
58
62
0
58
62
0
58
62
0
58
62
0
58
62
0
58
62
0
58
62
0
58
62
0
58
62
0
58
62
0
58
62
0
58
62
0
58
62
0
58
62
0
58
62
0
58
62
0
58
62
0
58
62
0
58
62
0
57
60
0
63
68
0
70
73
0
10
11
0
0
0
0
0
0
0
0
0
0
0
0
0
0
0
0
0
0
0
0
0
0
0
0
0
0
0
0
0
0
0
0
0
0
0
0
0
0
0
0
0
0
0
0
0
0
0
0
0
0
0
0
0
0
0
0
0
0
0
0
0
0
0
0
0
0
0
19
21
0
69
74
0
58
62
0
58
62
0
58
62
0
58
62
0
58
62
0
58
62
0
58
62
0
58
62
0
58
62
0
58
62
0
58
62
0
58
62
0
58
62
0
58
62
0
58
62
0
58
62
0
58
62
0
58
62
0
58
62
0
58
62
0
58
62
0
58
62
0
58
62
0
58
62
0
58
62
0
58
62
0
58
62
0
58
62
0
58
62
0
58
62
0
58
62
0
58
62
0
58
62
0
58
62
0
58
62
0
58
62
0
58
62
0
58
62
0
58
62
0
58
62
0
58
62
0
58
62
0
58
62
0
58
62
0
58
62
0
56
59
0
65
70
0
66
70
0
12
13
0
0
0
0
0
0
0
0
0
0
0
0
0
0
0
0
0
0
0
0
0
0
0
0
0
0
0
0
0
0
0
0
0
0
0
0
0
0
0
0
0
0
0
0
0
0
0
0
0
0
0
0
0
0
0
0
0
0
0
0
0
0
0
0
2
2
0
61
64
0
63
68
0
57
62
0
58
62
0
58
62
0
58
62
0
58
62
0
58
62
0
58
62
0
58
62
0
58
62
0
58
62
0
58
62
0
58
62
0
58
62
0
58
62
0
58
62
0
58
62
0
58
62
0
58
62
0
58
62
0
58
62
0
58
62
0
58
62
0
58
62
0
58
62
0
58
62
0
58
62
0
58
62
0
58
62
0
58
62
0
58
62
0
58
62
0
58
62
0
58
62
0
58
62
0
58
62
0
58
62
0
58
62
0
58
62
0
58
62
0
58
62
0
58
62
0
58
62
0
58
62
0
58
62
0
58
62
0
55
59
0
67
71
0
67
71
0
23
25
0
0
0
0
0
0
0
0
0
0
0
0
0
0
0
0
0
0
0
0
0
0
0
0
0
0
0
0
0
0
0
0
0
0
0
0
0
0
0
0
0
0
0
0
0
0
0
0
0
0
0
0
0
0
0
0
0
0
0
0
0
0
0
0
43
46
0
71
74
0
57
58
0
58
60
0
58
60
0
58
60
0
58
60
0
58
60
0
58
60
0
58
60
0
58
60
0
58
60
0
58
60
0
58
60
0
58
60
0
58
60
0
58
60
0
58
60
0
58
60
0
58
60
0
58
60
0
58
60
0
58
60
0
58
60
0
58
60
0
58
60
0
58
60
0
58
60
0
58
60
0
58
60
0
58
60
0
58
60
0
58
60
0
58
60
0
58
60
0
58
60
0
58
60
0
58
60
0
58
60
0
58
60
0
58
60
0
58
60
0
58
60
0
58
60
0
58
60
0
58
61
0
58
61
0
58
61
0
55
58
0
63
65
0
72
75
0
47
47
0
10
8
0
0
0
0
0
0
0
0
0
0
0
0
0
0
0
0
0
0
0
0
0
0
0
0
0
0
0
0
0
0
0
0
0
0
0
0
0
0
0
0
0
0
0
0
0
0
0
0
0
0
0
0
0
0
0
0
0
0
21
22
0
70
65
0
57
45
0
58
49
0
58
49
0
58
49
0
58
49
0
58
49
0
58
49
0
58
49
0
58
49
0
58
49
0
58
49
0
58
49
0
58
49
0
58
49
0
57
48
0
57
48
0
57
48
0
57
48
0
57
48
0
57
48
0
57
48
0
57
48
0
57
48
0
57
48
0
57
48
0
57
48
0
57
48
0
57
48
0
57
48
0
57
48
0
57
48
0
57
48
0
57
48
0
57
48
0
57
48
0
57
48
0
57
48
0
57
48
0
57
48
0
57
48
0
57
48
0
57
48
0
57
48
0
58
48
0
58
48
0
58
48
0
58
48
0
56
47
0
58
48
0
70
61
0
67
56
0
43
42
0
0
0
0
0
0
0
0
0
0
0
0
0
0
0
0
0
0
0
0
0
0
0
0
0
0
0
0
0
0
0
0
0
0
0
0
0
0
0
0
0
0
0
0
0
0
0
0
0
0
0
0
0
0
0
1
1
0
59
125
0
67
149
0
60
132
0
60
133
0
60
133
0
60
133
0
60
133
0
60
133
0
60
133
0
60
133
0
60
133
0
60
133
0
60
133
0
60
133
0
60
132
0
60
132
0
60
132
0
60
132
0
60
132
0
60
132
0
60
132
0
60
132
0
60
132
0
60
132
0
60
132
0
60
132
0
60
132
0
60
132
0
60
132
0
60
132
0
60
132
0
60
132
0
60
132
0
60
132
0
60
132
0
60
132
0
60
132
0
60
132
0
60
132
0
60
132
0
60
132
0
60
132
0
60
132
0
60
132
0
60
132
0
60
132
0
60
132
0
60
132
0
61
132
0
60
132
0
56
126
0
79
167
0
51
92
0
0
0
0
0
0
0
0
0
0
0
0
0
0
0
0
0
0
0
0
0
0
0
0
0
0
0
0
0
0
0
0
0
0
0
0
0
0
0
0
0
0
0
0
0
0
0
0
0
0
0
0
0
0
0
0
0
0
38
97
0
77
204
0
60
161
0
62
167
0
62
166
0
62
166
0
62
166
0
62
166
0
62
166
0
62
166
0
62
166
0
62
166
0
62
166
0
62
166
0
62
166
0
62
166
0
62
166
0
62
166
0
62
166
0
62
166
0
62
166
0
62
166
0
62
166
0
62
166
0
62
166
0
62
166
0
62
166
0
62
166
0
62
166
0
62
166
0
62
166
0
62
166
0
62
166
0
62
166
0
62
166
0
62
166
0
62
166
0
62
166
0
62
166
0
62
166
0
62
166
0
62
166
0
62
166
0
62
166
0
62
166
0
62
166
0
62
166
0
62
166
0
62
166
0
62
166
0
64
174
0
70
184
0
8
25
0
0
0
0
0
0
0
0
0
0
0
0
0
0
0
0
0
0
0
0
0
0
0
0
0
0
0
0
0
0
0
0
0
0
0
0
0
0
0
0
0
0
0
0
0
0
0
0
0
0
0
0
0
0
0
0
0
0
6
9
0
69
164
0
64
162
0
60
148
0
61
150
0
61
150
0
61
150
0
61
150
0
61
150
0
61
150
0
61
150
0
61
150
0
61
150
0
61
150
0
61
150
0
61
150
0
61
150
0
61
150
0
61
150
0
61
150
0
61
150
0
61
150
0
61
150
0
61
150
0
61
150
0
61
150
0
61
150
0
61
150
0
61
150
0
61
150
0
61
150
0
61
150
0
61
150
0
61
150
0
61
150
0
61
150
0
61
150
0
61
150
0
61
150
0
61
150
0
61
150
0
61
150
0
61
150
0
61
150
0
61
150
0
61
150
0
61
150
0
61
150
0
61
150
0
59
144
0
74
185
0
43
98
0
0
0
0
0
0
0
0
0
0
0
0
0
0
0
0
0
0
0
0
0
0
0
0
0
0
0
0
0
0
0
0
0
0
0
0
0
0
0
0
0
0
0
0
0
0
0
0
0
0
0
0
0
0
0
0
0
0
0
0
0
0
0
0
42
96
0
77
190
0
59
146
0
61
151
0
61
151
0
61
151
0
61
151
0
61
151
0
61
151
0
61
151
0
61
151
0
61
151
0
61
151
0
61
151
0
61
151
0
61
151
0
61
151
0
61
151
0
61
151
0
61
151
0
61
151
0
61
151
0
61
151
0
61
151
0
61
151
0
61
151
0
61
151
0
61
151
0
61
151
0
61
151
0
61
151
0
61
151
0
61
151
0
61
151
0
61
151
0
61
151
0
61
151
0
61
151
0
61
151
0
61
151
0
61
151
0
61
151
0
61
151
0
61
151
0
61
151
0
61
151
0
61
151
0
60
150
0
64
160
0
73
174
0
10
19
0
0
0
0
0
0
0
0
0
0
0
0
0
0
0
0
0
0
0
0
0
0
0
0
0
0
0
0
0
0
0
0
0
0
0
0
0
0
0
0
0
0
0
0
0
0
0
0
0
0
0
0
0
0
0
0
0
0
0
0
0
0
0
0
7
11
0
70
165
0
64
162
0
61
150
0
61
151
0
61
151
0
61
151
0
61
151
0
61
151
0
61
151
0
61
151
0
61
151
0
61
151
0
61
151
0
61
151
0
61
151
0
61
151
0
61
151
0
61
151
0
61
151
0
61
151
0
61
151
0
61
151
0
61
151
0
61
151
0
61
151
0
61
151
0
61
151
0
61
151
0
61
151
0
61
151
0
61
151
0
61
151
0
61
151
0
61
151
0
61
151
0
61
151
0
61
151
0
61
151
0
61
151
0
61
151
0
61
151
0
61
151
0
61
151
0
61
151
0
61
151
0
61
151
0
59
146
0
77
191
0
42
95
0
0
0
0
0
0
0
0
0
0
0
0
0
0
0
0
0
0
0
0
0
0
0
0
0
0
0
0
0
0
0
0
0
0
0
0
0
0
0
0
0
0
0
0
0
0
0
0
0
0
0
0
0
0
0
0
0
0
0
0
0
0
0
0
0
0
0
0
0
0
38
85
0
76
190
0
58
145
0
61
151
0
61
151
0
61
151
0
61
151
0
61
151
0
61
151
0
61
151
0
61
151
0
61
151
0
61
151
0
61
151
0
61
151
0
61
151
0
61
151
0
61
151
0
61
151
0
61
151
0
61
151
0
61
151
0
61
151
0
61
151
0
61
151
0
61
151
0
61
151
0
61
151
0
61
151
0
61
151
0
61
151
0
61
151
0
61
151
0
61
151
0
61
151
0
61
151
0
61
151
0
61
151
0
61
151
0
61
151
0
61
151
0
61
151
0
61
151
0
61
151
0
61
151
0
60
148
0
66
167
0
68
161
0
4
7
0
0
0
0
0
0
0
0
0
0
0
0
0
0
0
0
0
0
0
0
0
0
0
0
0
0
0
0
0
0
0
0
0
0
0
0
0
0
0
0
0
0
0
0
0
0
0
0
0
0
0
0
0
0
0
0
0
0
0
0
0
0
0
0
0
0
0
0
0
0
3
3
0
67
156
0
69
173
0
61
147
0
62
152
0
62
152
0
62
152
0
62
152
0
62
152
0
62
152
0
62
152
0
62
152
0
62
152
0
62
152
0
62
152
0
62
152
0
62
152
0
62
152
0
62
152
0
62
152
0
62
152
0
62
152
0
62
152
0
62
152
0
62
152
0
62
152
0
62
152
0
62
152
0
62
152
0
62
152
0
62
152
0
62
152
0
62
152
0
62
152
0
62
152
0
62
152
0
62
152
0
62
152
0
62
152
0
62
152
0
62
152
0
62
152
0
62
152
0
62
152
0
62
152
0
60
150
0
78
191
0
28
59
0
0
0
0
0
0
0
0
0
0
0
0
0
0
0
0
0
0
0
0
0
0
0
0
0
0
0
0
0
0
0
0
0
0
0
0
0
0
0
0
0
0
0
0
0
0
0
0
0
0
0
0
0
0
0
0
0
0
0
0
0
0
0
0
0
0
0
0
0
0
0
0
0
0
0
0
26
53
0
69
184
0
36
136
0
40
136
0
40
137
0
40
137
0
40
137
0
40
137
0
40
137
0
40
137
0
40
137
0
40
137
0
40
137
0
40
137
0
40
137
0
41
137
0
40
137
0
40
136
0
40
136
0
40
136
0
40
136
0
40
136
0
40
136
0
40
136
0
40
136
0
40
136
0
40
136
0
40
136
0
40
136
0
40
136
0
40
136
0
40
136
0
40
136
0
40
136
0
40
136
0
40
136
0
40
136
0
40
136
0
41
136
0
41
136
0
41
136
0
41
136
0
41
136
0
35
129
0
57
175
0
55
128
0
0
0
0
0
0
0
0
0
0
0
0
0
0
0
0
0
0
0
0
0
0
0
0
0
0
0
0
0
0
0
0
0
0
0
0
0
0
0
0
0
0
0
0
0
0
0
0
0
0
0
0
0
0
0
0
0
0
0
0
0
0
0
0
0
0
0
0
0
0
0
0
0
0
0
0
0
0
0
0
0
0
85
135
0
152
233
0
113
187
0
120
194
0
119
194
0
119
194
0
119
194
0
119
194
0
119
194
0
119
194
0
119
194
0
119
194
0
119
194
0
119
194
0
120
194
0
120
194
0
120
193
0
120
193
0
120
193
0
120
193
0
120
193
0
120
193
0
120
193
0
120
193
0
120
193
0
120
193
0
120
193
0
120
193
0
120
193
0
120
193
0
120
193
0
120
193
0
120
193
0
120
193
0
120
193
0
120
193
0
120
193
0
120
193
0
120
193
0
120
193
0
120
194
0
116
189
0
133
211
0
134
211
0
9
16
0
0
0
0
0
0
0
0
0
0
0
0
0
0
0
0
0
0
0
0
0
0
0
0
0
0
0
0
0
0
0
0
0
0
0
0
0
0
0
0
0
0
0
0
0
0
0
0
0
0
0
0
0
0
0
0
0
0
0
0
0
0
0
0
0
0
0
0
0
0
0
0
0
0
0
0
0
0
0
0
0
0
27
22
0
196
243
0
199
255
0
174
230
0
179
236
0
178
235
0
178
235
0
178
235
0
178
235
0
178
235
0
178
235
0
178
235
0
178
235
0
178
235
0
178
235
0
178
235
0
178
236
0
178
236
0
178
236
0
178
236
0
178
236
0
178
236
0
178
236
0
178
236
0
178
236
0
178
236
0
178
236
0
178
236
0
178
236
0
178
236
0
178
236
0
178
236
0
178
236
0
178
236
0
178
236
0
178
236
0
178
236
0
178
236
0
178
236
0
178
236
0
178
235
0
178
238
0
222
255
0
87
98
0
0
0
0
0
0
0
0
0
0
0
0
0
0
0
0
0
0
0
0
0
0
0
0
0
0
0
0
0
0
0
0
0
0
0
0
0
0
0
0
0
0
0
0
0
0
0
0
0
0
0
0
0
0
0
0
0
0
0
0
0
0
0
0
0
0
0
0
0
0
0
0
0
0
0
0
0
0
0
0
0
0
0
0
0
0
0
0
43
58
0
195
255
0
162
229
0
153
216
0
156
219
0
156
219
0
156
219
0
156
219
0
156
219
0
156
219
0
156
219
0
156
219
0
156
219
0
156
219
0
155
219
0
155
219
0
155
219
0
155
219
0
155
219
0
155
219
0
155
219
0
155
219
0
155
219
0
155
219
0
155
219
0
155
219
0
155
219
0
155
219
0
155
219
0
155
219
0
155
219
0
155
219
0
155
219
0
155
219
0
155
219
0
155
219
0
156
219
0
156
219
0
156
219
0
149
213
0
198
255
0
112
149
0
0
0
0
0
0
0
0
0
0
0
0
0
0
0
0
0
0
0
0
0
0
0
0
0
0
0
0
0
0
0
0
0
0
0
0
0
0
0
0
0
0
0
0
0
0
0
0
0
0
0
0
0
0
0
0
0
0
0
0
0
0
0
0
0
0
0
0
0
0
0
0
0
0
0
0
0
0
0
0
0
0
0
0
0
0
0
0
0
0
0
0
0
0
86
114
0
205
255
0
156
222
0
156
219
0
157
220
0
157
220
0
157
220
0
157
220
0
157
220
0
157
220
0
157
220
0
157
220
0
157
220
0
157
220
0
157
220
0
157
220
0
157
220
0
157
220
0
157
220
0
157
220
0
157
220
0
157
220
0
157
220
0
157
220
0
157
220
0
157
220
0
157
220
0
157
220
0
157
220
0
157
220
0
157
220
0
157
220
0
157
220
0
157
220
0
157
220
0
157
220
0
158
220
0
149
212
0
189
255
0
152
203
0
0
0
0
0
0
0
0
0
0
0
0
0
0
0
0
0
0
0
0
0
0
0
0
0
0
0
0
0
0
0
0
0
0
0
0
0
0
0
0
0
0
0
0
0
0
0
0
0
0
0
0
0
0
0
0
0
0
0
0
0
0
0
0
0
0
0
0
0
0
0
0
0
0
0
0
0
0
0
0
0
0
0
0
0
0
0
0
0
0
0
0
0
0
0
0
0
0
0
0
113
147
0
204
255
0
154
220
0
155
218
0
157
220
0
157
220
0
157
220
0
157
220
0
157
220
0
157
220
0
157
220
0
157
220
0
157
220
0
157
220
0
157
220
0
156
218
0
154
216
0
156
220
0
160
224
0
161
226
0
159
224
0
155
219
0
155
216
0
156
219
0
157
220
0
157
220
0
157
220
0
157
220
0
157
220
0
157
220
0
157
220
0
157
220
0
157
220
0
157
220
0
157
220
0
149
213
0
186
255
0
174
229
0
16
20
0
0
0
0
0
0
0
0
0
0
0
0
0
0
0
0
0
0
0
0
0
0
0
0
0
0
0
0
0
0
0
0
0
0
0
0
0
0
0
0
0
0
0
0
0
0
0
0
0
0
0
0
0
0
0
0
0
0
0
0
0
0
0
0
0
0
0
0
0
0
0
0
0
0
0
0
0
0
0
0
0
0
0
0
0
0
0
0
0
0
0
0
0
0
0
0
0
0
0
0
0
0
0
123
158
0
203
255
0
158
225
0
153
216
0
158
220
0
157
220
0
157
220
0
157
220
0
157
220
0
157
220
0
157
220
0
155
218
0
153
215
0
163
229
0
179
251
0
189
255
0
185
255
0
179
249
0
177
247
0
180
250
0
187
255
0
189
255
0
175
245
0
158
223
0
153
215
0
156
219
0
157
221
0
157
220
0
157
220
0
157
220
0
157
220
0
158
221
0
156
218
0
151
215
0
188
255
0
175
231
0
26
31
0
0
0
0
0
0
0
0
0
0
0
0
0
0
0
0
0
0
0
0
0
0
0
0
0
0
0
0
0
0
0
0
0
0
0
0
0
0
0
0
0
0
0
0
0
0
0
0
0
0
0
0
0
0
0
0
0
0
0
0
0
0
0
0
0
0
0
0
0
0
0
0
0
0
0
0
0
0
0
0
0
0
0
0
0
0
0
0
0
0
0
0
0
0
0
0
0
0
0
0
0
0
0
0
0
0
0
0
0
109
141
0
201
255
0
178
246
0
152
217
0
154
217
0
156
219
0
156
219
0
156
219
0
154
216
0
153
218
0
174
241
0
194
255
0
170
236
0
129
176
0
86
119
0
64
87
0
48
65
0
42
58
0
51
68
0
68
93
0
98
133
0
142
195
0
181
249
0
190
255
0
164
230
0
152
214
0
155
218
0
156
219
0
156
219
0
156
219
0
151
214
0
163
231
0
200
255
0
158
210
0
21
26
0
0
0
0
0
0
0
0
0
0
0
0
0
0
0
0
0
0
0
0
0
0
0
0
0
0
0
0
0
0
0
0
0
0
0
0
0
0
0
0
0
0
0
0
0
0
0
0
0
0
0
0
0
0
0
0
0
0
0
0
0
0
0
0
0
0
0
0
0
0
0
0
0
0
0
0
0
0
0
0
0
0
0
0
0
0
0
0
0
0
0
0
0
0
0
0
0
0
0
0
0
0
0
0
0
0
0
0
0
0
0
0
0
0
0
64
83
0
166
215
0
195
255
0
183
254
0
172
242
0
171
241
0
174
243
0
186
255
0
193
255
0
163
217
0
96
131
0
27
37
0
0
0
0
0
0
0
0
0
0
0
0
0
0
0
0
0
0
0
0
0
0
0
0
0
0
0
0
50
67
0
123
164
0
180
245
0
193
255
0
180
250
0
173
243
0
171
241
0
177
246
0
193
255
0
186
253
0
110
143
0
0
0
0
0
0
0
0
0
0
0
0
0
0
0
0
0
0
0
0
0
0
0
0
0
0
0
0
0
0
0
0
0
0
0
0
0
0
0
0
0
0
0
0
0
0
0
0
0
0
0
0
0
0
0
0
0
0
0
0
0
0
0
0
0
0
0
0
0
0
0
0
0
0
0
0
0
0
0
0
0
0
0
0
0
0
0
0
0
0
0
0
0
0
0
0
0
0
0
0
0
0
0
0
0
0
0
0
0
0
0
0
0
0
0
0
0
0
0
0
0
0
0
0
2
4
0
76
98
0
127
169
0
149
207
0
150
210
0
146
201
0
121
160
0
71
90
0
5
6
0
0
0
0
0
0
0
0
0
0
0
0
0
0
0
0
0
0
0
0
0
0
0
0
0
0
0
0
0
0
0
0
0
0
0
0
0
0
0
0
31
39
0
92
124
0
135
179
0
149
207
0
150
210
0
140
189
0
101
137
0
34
43
0
0
0
0
0
0
0
0
0
0
0
0
0
0
0
0
0
0
0
0
0
0
0
0
0
0
0
0
0
0
0
0
0
0
0
0
0
0
0
0
0
0
0
0
0
0
0
0
0
0
0
0
0
0
0
0
0
0
0
0
0
0
0
0
0
0
0
0
0
0
0
0
0
0
0
0
0
0
0
0
0
0
0
0
0
0
0
0
0
0
0
0
0
0
0
0
0
0
0
0
0
0
0
0
0
0
0
0
0
0
0
0
0
0
0
0
0
0
0
0
0
0
0
0
0
0
0
0
0
0
0
0
0
0
0
0
1
0
0
4
5
0
0
0
0
0
0
0
0
0
0
0
0
0
0
0
0
0
0
0
0
0
0
0
0
0
0
0
0
0
0
0
0
0
0
0
0
0
0
0
0
0
0
0
0
0
0
0
0
0
0
0
0
0
0
0
0
0
0
0
0
0
1
1
0
4
4
0
0
0
0
0
0
0
0
0
0
0
0
0
0
0
0
0
0
0
0
0
0
0
0
0
0
0
0
0
0
0
0
0
0
0
0
0
0
0
0
0
0
0
0
0
0
0
0
0
0
0
0
0
0
0
0
0
0
0
0
0
0
0
0
0
0
0
0
0
0
0
0
0
0
0
0
0
0
0
0
0
0
0
0
0
0
0
0
0
0
0
0
0
0
0
0
0
0
0
0
0
0
0
0
0
0
0
0
0
0
0
0
0
0
0
0
0
0
0
0
0
0
0
0
0
0
0
0
0
0
0
0
0
0
0
0
0
0
0
0
0
0
0
0
0
0
0
0
0
0
0
0
0
0
0
0
0
0
0
0
0
0
0
0
0
0
0
0
0
0
0
0
0
0
0
0
0
0
0
0
0
0
0
0
0
0
0
0
0
0
0
0
0
0
0
0
0
0
0
0
0
0
0
0
0
0
0
0
0
0
0
0
0
0
0
0
0
0
0
0
0
0
0
0
0
0
0
0
0
0
0
0
0
0
0
0
0
0
0
0
0
0
0
0
0
0
0
0
0
0
0
0
0
0
0
0
0
0
0
0
0
0
0
0
0
0
0
0
0
0
0
0
0
0
0
0
0
0
0
0
0
0
0
0
0
0
0
0
0
0
0
0
0
0
0
0
0
0
0
0
0
0
0
0
0
0
0
0
0
0
0
0
0
0
0
0
0
0
0
0
0
0
0
0
0
0
0
0
0
0
0
0
0
0
0
0
0
0
0
0
0
0
0
0
0
0
0
0
0
0
0
0
0
0
0
0
0
0
0
0
0
0
0
0
0
0
0
0
0
0
0
0
0
0
0
0
0
0
0
0
0
0
0
0
0
0
0
0
0
0
0
0
0
0
0
0
0
0
0
0
0
0
0
0
0
0
0
0
0
0
0
0
0
0
0
0
0
0
0
0
0
0
0
0
0
0
0
0
0
0
0
0
0
0
0
0
0
0
0
0
0
0
0
0
0
0
0
0
0
0
0
0
0
0
0
0
0
0
0
0
0
0
0
0
0
0
0
0
0
0
0
0
0
0
0
0
0
0
0
0
0
0
0
0
0
0
0
0
0
0
0
0
0
0
0
0
0
0
0
0
0
0
0
0
0
0
0
0
0
0
0
0
0
0
0
0
0
0
0
0
0
0
0
0
0
0
0
0
0
0
0
0
0
0
0
0
0
0
0
0
0
0
0
0
0
0
0
0
0
0
0
0
0
0
0
0
0
0
0
0
0
0
0
0
0
0
0
0
0
0
0
0
0
0
0
0
0
0
0
0
0
0
0
0
0
0
0
0
0
0
0
0
0
0
0
0
0
0
0
0
0
0
0
0
0
0
0
0
0
0
0
0
0
0
0
0
0
0
0
0
0
0
0
0
0
0
0
0
0
0
0
0
0
0
0
0
0
0
0
0
0
0
0
0
0
0
0
0
0
0
0
0
0
0
0
0
0
0
0
0
0
0
0
0
0
0
0
0
0
0
0
0
0
0
0
0
0
0
0
0
0
0
0
0
0
0
0
0
0
0
0
0
0
0
0
0
0
0
0
0
0
0
0
0
0
0
0
0
0
0
0
0
0
0
0
0
0
0
0
0
