P3
72 72
255
0
0
0
0
0
0
0
0
0
0
0
0
0
0
0
252
229
0
248
194
0
244
165
0
243
152
0
243
152
0
243
153
0
243
153
0
243
153
0
243
153
0
243
153
0
243
153
0
243
153
0
243
153
0
243
153
0
243
153
0
243
153
0
243
153
0
243
153
0
243
153
0
243
153
0
243
153
0
243
153
0
243
153
0
243
153
0
243
153
0
243
153
0
243
153
0
243
153
0
243
153
0
243
153
0
243
153
0
243
153
0
243
153
0
243
153
0
243
153
0
243
153
0
243
153
0
243
153
0
243
153
0
243
153
0
243
153
0
243
153
0
243
153
0
243
153
0
243
153
0
243
153
0
243
153
0
243
153
0
243
153
0
243
153
0
243
153
0
243
153
0
243
153
0
243
153
0
243
153
0
243
153
0
243
153
0
243
152
0
243
151
0
244
163
0
247
191
0
252
226
0
0
0
0
0
0
0
0
0
0
0
0
0
0
0
0
0
0
0
0
0
0
0
0
0
254
244
0
246
180
0
242
145
0
242
145
0
242
145
0
242
145
0
242
145
0
242
145
0
242
145
0
242
145
0
242
145
0
242
145
0
242
145
0
242
145
0
242
145
0
242
145
0
242
145
0
242
145
0
242
145
0
242
145
0
242
145
0
242
145
0
242
145
0
242
145
0
242
145
0
242
145
0
242
145
0
242
145
0
242
145
0
242
145
0
242
145
0
242
145
0
242
145
0
242
145
0
242
145
0
242
145
0
242
145
0
242
145
0
242
145
0
242
145
0
242
145
0
242
145
0
242
145
0
242
145
0
242
145
0
242
145
0
242
145
0
242
145
0
242
145
0
242
145
0
242
145
0
242
145
0
242
145
0
242
145
0
242
145
0
242
145
0
242
145
0
242
145
0
242
145
0
242
145
0
242
145
0
242
145
0
242
145
0
242
145
0
246
176
0
253
240
0
0
0
0
0
0
0
0
0
0
0
0
0
0
0
0
253
237
0
243
155
0
242
143
0
242
143
0
242
143
0
242
143
0
242
143
0
242
143
0
242
143
0
242
143
0
242
143
0
242
143
0
242
143
0
242
143
0
242
143
0
242
143
0
242
143
0
242
143
0
242
143
0
242
143
0
242
143
0
242
143
0
242
143
0
242
143
0
242
143
0
242
143
0
242
143
0
242
143
0
242
143
0
242
143
0
242
143
0
242
143
0
242
143
0
242
143
0
242
143
0
242
143
0
242
143
0
242
143
0
242
143
0
242
143
0
242
143
0
242
143
0
242
143
0
242
143
0
242
143
0
242
143
0
242
143
0
242
143
0
242
143
0
242
143
0
242
143
0
242
143
0
242
143
0
242
143
0
242
143
0
242
143
0
242
143
0
242
143
0
242
143
0
242
143
0
242
143
0
242
143
0
242
143
0
242
143
0
242
143
0
242
143
0
243
151
0
252
232
0
0
0
0
0
0
0
0
0
0
34
33
0
243
150
0
242
143
0
242
143
0
242
143
0
242
143
0
242
143
0
242
143
0
242
143
0
242
143
0
242
143
0
242
143
0
242
143
0
242
143
0
242
143
0
242
143
0
242
143
0
242
143
0
242
143
0
242
143
0
242
143
0
242
143
0
242
143
0
242
143
0
242
143
0
242
143
0
242
143
0
242
143
0
242
143
0
242
143
0
242
143
0
242
143
0
242
143
0
242
143
0
242
143
0
242
143
0
242
143
0
242
143
0
242
143
0
242
143
0
242
143
0
242
143
0
242
143
0
242
143
0
242
143
0
242
143
0
242
143
0
242
143
0
242
143
0
242
143
0
242
143
0
242
143
0
242
143
0
242
143
0
242
143
0
242
143
0
242
143
0
242
143
0
242
143
0
242
143
0
242
143
0
242
143
0
242
143
0
242
143
0
242
143
0
242
143
0
242
143
0
242
143
0
242
145
0
254
243
0
0
0
0
0
0
0
246
176
0
242
142
0
242
142
0
242
142
0
242
142
0
242
142
0
242
142
0
242
142
0
242
142
0
242
142
0
242
142
0
242
142
0
242
142
0
242
142
0
242
142
0
242
142
0
242
142
0
242
142
0
242
142
0
242
142
0
242
142
0
242
142
0
242
142
0
242
142
0
242
142
0
242
142
0
242
142
0
242
142
0
242
142
0
242
142
0
242
142
0
242
142
0
242
142
0
242
142
0
242
142
0
242
142
0
242
142
0
242
142
0
242
142
0
242
142
0
242
142
0
242
142
0
242
142
0
242
142
0
242
142
0
242
142
0
242
142
0
242
142
0
242
142
0
242
142
0
242
142
0
242
142
0
242
142
0
242
142
0
242
142
0
242
142
0
242
142
0
242
142
0
242
142
0
242
142
0
242
142
0
242
142
0
242
142
0
242
142
0
242
142
0
242
142
0
242
142
0
242
142
0
242
142
0
245
167
0
0
0
0
252
232
0
242
142
0
242
142
0
242
142
0
242
142
0
242
142
0
242
142
0
242
142
0
242
142
0
242
142
0
242
142
0
242
142
0
242
142
0
242
142
0
242
142
0
242
142
0
242
142
0
242
142
0
242
142
0
242
142
0
242
142
0
242
142
0
242
142
0
242
142
0
242
142
0
242
142
0
242
142
0
242
142
0
242
142
0
242
142
0
242
142
0
242
142
0
242
142
0
242
142
0
242
142
0
242
142
0
242
142
0
242
142
0
242
142
0
242
142
0
242
142
0
242
142
0
242
142
0
242
142
0
242
142
0
242
142
0
242
142
0
242
142
0
242
142
0
242
142
0
242
142
0
242
142
0
242
142
0
242
142
0
242
142
0
242
142
0
242
142
0
242
142
0
242
142
0
242
142
0
242
142
0
242
142
0
242
142
0
242
142
0
242
142
0
242
142
0
242
142
0
242
142
0
242
142
0
242
142
0
242
142
0
251
224
0
248
191
0
242
142
0
242
142
0
242
142
0
242
142
0
242
142
0
242
142
0
242
142
0
242
142
0
242
142
0
242
142
0
242
142
0
242
142
0
242
142
0
242
142
0
242
142
0
242
142
0
242
142
0
242
142
0
242
142
0
242
142
0
242
142
0
242
142
0
242
142
0
242
142
0
242
142
0
242
142
0
242
142
0
242
142
0
242
142
0
242
142
0
242
142
0
242
142
0
242
142
0
242
142
0
242
142
0
242
142
0
242
142
0
242
142
0
242
142
0
242
142
0
242
142
0
242
142
0
242
142
0
242
142
0
242
142
0
242
142
0
242
142
0
242
142
0
242
142
0
242
142
0
242
142
0
242
142
0
242
142
0
242
142
0
242
142
0
242
142
0
242
142
0
242
142
0
242
142
0
242
142
0
242
142
0
242
142
0
242
142
0
242
142
0
242
142
0
242
142
0
242
142
0
242
142
0
242
142
0
242
142
0
246
178
0
244
160
0
242
141
0
242
141
0
242
141
0
242
141
0
242
141
0
242
141
0
242
141
0
242
141
0
242
141
0
242
141
0
242
141
0
242
141
0
242
141
0
242
141
0
242
141
0
242
141
0
242
141
0
242
141
0
242
141
0
242
141
0
242
141
0
242
141
0
242
141
0
242
141
0
242
141
0
242
141
0
242
141
0
242
141
0
242
141
0
242
141
0
242
141
0
242
141
0
242
141
0
242
141
0
242
141
0
242
141
0
242
141
0
242
141
0
242
141
0
242
141
0
242
141
0
242
141
0
242
141
0
242
141
0
242
141
0
242
141
0
242
141
0
242
141
0
242
141
0
242
141
0
242
141
0
242
141
0
242
141
0
242
141
0
242
141
0
242
141
0
242
141
0
242
141
0
242
141
0
242
141
0
242
141
0
242
141
0
242
141
0
242
141
0
242
141
0
242
141
0
242
141
0
242
141
0
242
141
0
242
141
0
243
153
0
242
146
0
241
140
0
241
140
0
241
140
0
241
140
0
241
140
0
241
140
0
241
140
0
241
140
0
241
140
0
241
140
0
241
140
0
241
140
0
241
140
0
241
140
0
241
140
0
241
140
0
241
140
0
241
140
0
241
140
0
241
140
0
241
140
0
241
140
0
241
140
0
241
140
0
241
140
0
241
140
0
241
140
0
241
140
0
241
140
0
241
140
0
241
140
0
241
140
0
241
140
0
241
140
0
241
140
0
241
140
0
241
140
0
241
140
0
241
140
0
241
140
0
241
140
0
241
140
0
241
140
0
241
140
0
241
140
0
241
140
0
241
140
0
241
140
0
241
140
0
241
140
0
241
140
0
241
140
0
241
140
0
241
140
0
241
140
0
241
140
0
241
140
0
241
140
0
241
140
0
241
140
0
241
140
0
241
140
0
241
140
0
241
140
0
241
140
0
241
140
0
241
140
0
241
140
0
241
140
0
241
140
0
242
148
0
242
146
0
241
139
0
241
139
0
241
139
0
241
139
0
241
139
0
241
139
0
241
139
0
241
139
0
241
139
0
241
139
0
241
139
0
241
139
0
241
139
0
241
139
0
241
139
0
241
139
0
241
139
0
241
139
0
241
139
0
241
139
0
241
139
0
241
139
0
241
139
0
241
139
0
241
139
0
241
139
0
241
139
0
241
139
0
241
139
0
241
139
0
241
139
0
241
139
0
241
139
0
241
139
0
241
139
0
241
139
0
241
139
0
241
139
0
241
139
0
241
139
0
241
139
0
241
139
0
241
139
0
241
139
0
241
139
0
241
139
0
241
139
0
241
139
0
241
139
0
241
139
0
241
139
0
241
139
0
241
139
0
241
139
0
241
139
0
241
139
0
241
139
0
241
139
0
241
139
0
241
139
0
241
139
0
241
139
0
241
139
0
241
139
0
241
139
0
241
139
0
241
139
0
241
139
0
241
139
0
241
139
0
242
147
0
242
147
0
241
139
0
241
139
0
241
139
0
241
139
0
241
139
0
241
139
0
241
139
0
241
139
0
241
139
0
241
139
0
241
139
0
241
139
0
241
139
0
241
139
0
241
139
0
241
139
0
241
139
0
241
139
0
241
139
0
241
139
0
241
139
0
241
139
0
241
139
0
241
139
0
241
139
0
241
139
0
241
139
0
241
139
0
241
139
0
241
139
0
241
139
0
241
139
0
241
139
0
241
139
0
241
139
0
241
139
0
241
139
0
241
139
0
241
139
0
241
139
0
241
139
0
241
139
0
241
139
0
241
139
0
241
139
0
241
139
0
241
139
0
241
139
0
241
139
0
241
139
0
241
139
0
241
139
0
241
139
0
241
139
0
241
139
0
241
139
0
241
139
0
241
139
0
241
139
0
241
139
0
241
139
0
241
139
0
241
139
0
241
139
0
241
139
0
241
139
0
241
139
0
241
139
0
241
139
0
241
139
0
242
147
0
242
145
0
241
137
0
241
137
0
241
137
0
241
137
0
241
137
0
241
137
0
241
137
0
241
137
0
241
137
0
241
137
0
241
137
0
241
137
0
241
137
0
241
137
0
241
137
0
241
137
0
241
137
0
241
137
0
241
137
0
241
137
0
241
137
0
241
137
0
241
137
0
241
137
0
241
137
0
241
137
0
241
137
0
241
137
0
241
137
0
241
137
0
241
137
0
241
137
0
241
137
0
241
137
0
241
137
0
241
137
0
241
137
0
241
137
0
241
137
0
241
137
0
241
137
0
241
137
0
241
137
0
241
137
0
241
137
0
241
137
0
241
137
0
241
137
0
241
137
0
241
137
0
241
137
0
241
137
0
241
137
0
241
137
0
241
137
0
241
137
0
241
137
0
241
137
0
241
137
0
241
137
0
241
137
0
241
137
0
241
137
0
241
137
0
241
137
0
241
137
0
241
137
0
241
137
0
241
137
0
241
137
0
242
145
0
242
145
0
241
137
0
241
137
0
241
137
0
241
137
0
241
137
0
241
137
0
241
137
0
241
137
0
241
137
0
241
137
0
241
137
0
241
137
0
241
137
0
241
137
0
241
137
0
241
137
0
241
137
0
241
137
0
241
137
0
241
137
0
241
137
0
241
137
0
241
137
0
241
137
0
241
137
0
241
137
0
241
137
0
241
137
0
241
137
0
241
137
0
241
137
0
241
137
0
241
137
0
241
137
0
241
137
0
241
137
0
241
137
0
241
137
0
241
137
0
241
137
0
241
137
0
241
137
0
241
137
0
241
137
0
241
137
0
241
137
0
241
137
0
241
137
0
241
137
0
241
137
0
241
137
0
241
137
0
241
137
0
241
137
0
241
137
0
241
137
0
241
137
0
241
137
0
241
137
0
241
137
0
241
137
0
241
137
0
241
137
0
241
137
0
241
137
0
241
137
0
241
137
0
241
137
0
241
137
0
241
137
0
242
145
0
242
145
0
241
137
0
241
137
0
241
137
0
241
137
0
241
137
0
241
137
0
241
137
0
241
137
0
241
137
0
241
137
0
241
137
0
241
137
0
241
137
0
241
137
0
241
137
0
241
137
0
241
137
0
241
137
0
241
137
0
241
137
0
241
137
0
241
137
0
241
137
0
241
137
0
241
137
0
241
137
0
241
137
0
241
137
0
241
137
0
241
137
0
241
137
0
241
137
0
241
137
0
241
137
0
241
137
0
241
137
0
241
137
0
241
137
0
241
137
0
241
137
0
241
137
0
241
137
0
241
137
0
241
137
0
241
137
0
241
137
0
241
137
0
241
137
0
241
137
0
241
137
0
241
137
0
241
137
0
241
137
0
241
137
0
241
137
0
241
137
0
241
137
0
241
137
0
241
137
0
241
137
0
241
137
0
241
137
0
241
137
0
241
137
0
241
137
0
241
137
0
241
137
0
241
137
0
241
137
0
241
137
0
242
145
0
242
145
0
241
137
0
241
137
0
241
137
0
241
137
0
241
137
0
241
137
0
241
137
0
241
137
0
241
137
0
241
137
0
241
137
0
241
137
0
241
137
0
241
137
0
241
137
0
241
137
0
241
137
0
241
137
0
241
137
0
241
137
0
241
137
0
241
137
0
241
137
0
241
137
0
241
137
0
241
137
0
241
137
0
241
137
0
241
137
0
241
137
0
241
137
0
241
137
0
241
137
0
241
137
0
241
137
0
241
137
0
241
137
0
241
137
0
241
137
0
241
137
0
241
137
0
241
137
0
241
137
0
241
137
0
241
137
0
241
137
0
241
137
0
241
137
0
241
137
0
241
137
0
241
137
0
241
137
0
241
137
0
241
137
0
241
137
0
241
137
0
241
137
0
241
137
0
241
137
0
241
137
0
241
137
0
241
137
0
241
137
0
241
137
0
241
137
0
241
137
0
241
137
0
241
137
0
241
137
0
241
137
0
242
145
0
242
144
0
241
136
0
241
136
0
241
136
0
241
136
0
241
136
0
241
135
0
241
135
0
241
137
0
241
137
0
241
136
0
241
135
0
241
136
0
241
136
0
241
136
0
241
136
0
241
136
0
241
136
0
241
136
0
241
136
0
241
135
0
241
136
0
241
137
0
241
137
0
241
137
0
241
136
0
241
135
0
241
136
0
241
136
0
241
136
0
241
136
0
241
136
0
241
136
0
241
136
0
241
136
0
241
136
0
241
136
0
241
136
0
241
136
0
241
136
0
241
136
0
241
136
0
241
136
0
241
136
0
241
136
0
241
136
0
241
136
0
241
136
0
241
136
0
241
136
0
241
136
0
241
136
0
241
136
0
241
136
0
241
136
0
241
136
0
241
136
0
241
136
0
241
136
0
241
136
0
241
136
0
241
136
0
241
136
0
241
136
0
241
136
0
241
136
0
241
136
0
241
136
0
241
136
0
241
136
0
241
136
0
242
144
0
242
143
0
241
134
0
241
134
0
241
134
0
241
134
0
241
134
0
241
136
0
241
134
0
239
121
0
239
114
0
239
122
0
241
136
0
241
135
0
241
134
0
241
134
0
241
134
0
241
134
0
241
134
0
241
134
0
241
134
0
241
136
0
241
134
0
239
119
0
238
111
0
238
112
0
240
128
0
241
138
0
241
134
0
241
134
0
241
134
0
241
134
0
241
134
0
241
134
0
241
134
0
241
134
0
241
134
0
241
134
0
241
134
0
241
134
0
241
134
0
241
134
0
241
134
0
241
134
0
241
134
0
241
134
0
241
134
0
241
134
0
241
134
0
241
134
0
241
134
0
241
134
0
241
134
0
241
134
0
241
134
0
241
134
0
241
134
0
241
134
0
241
134
0
241
134
0
241
134
0
241
134
0
241
134
0
241
134
0
241
134
0
241
134
0
241
134
0
241
134
0
241
134
0
241
134
0
241
134
0
241
134
0
242
143
0
242
143
0
241
134
0
241
134
0
241
134
0
241
134
0
241
137
0
240
128
0
239
115
0
242
143
0
243
156
0
242
141
0
238
114
0
241
132
0
241
135
0
241
134
0
241
134
0
241
134
0
241
134
0
241
134
0
241
137
0
240
127
0
239
115
0
242
145
0
246
183
0
246
179
0
240
125
0
239
116
0
241
138
0
241
134
0
241
134
0
241
134
0
241
134
0
241
134
0
241
134
0
241
134
0
241
134
0
241
134
0
241
134
0
241
134
0
241
134
0
241
134
0
241
134
0
241
134
0
241
134
0
241
134
0
241
134
0
241
134
0
241
134
0
241
134
0
241
134
0
241
134
0
241
134
0
241
134
0
241
134
0
241
134
0
241
134
0
241
134
0
241
134
0
241
134
0
241
134
0
241
134
0
241
134
0
241
134
0
241
134
0
241
134
0
241
134
0
241
134
0
241
134
0
241
134
0
241
134
0
241
134
0
242
143
0
241
142
0
240
133
0
240
133
0
240
133
0
240
134
0
239
128
0
238
115
0
248
203
0
255
255
0
255
255
0
255
254
0
246
177
0
237
105
0
240
135
0
240
133
0
240
133
0
240
133
0
240
133
0
240
134
0
239
129
0
238
115
0
249
205
0
255
255
0
255
255
0
255
255
0
252
232
0
240
130
0
237
111
0
240
137
0
240
133
0
240
133
0
240
133
0
240
133
0
240
133
0
240
133
0
240
133
0
240
133
0
240
133
0
240
133
0
240
133
0
240
133
0
240
133
0
240
133
0
240
133
0
240
133
0
240
133
0
240
133
0
240
133
0
240
133
0
240
133
0
240
133
0
240
133
0
240
133
0
240
133
0
240
133
0
240
133
0
240
133
0
240
133
0
240
133
0
240
133
0
240
133
0
240
133
0
240
133
0
240
133
0
240
133
0
240
133
0
240
133
0
240
133
0
240
133
0
240
133
0
240
133
0
241
142
0
241
142
0
240
133
0
240
133
0
240
133
0
240
137
0
236
104
0
246
183
0
255
255
0
255
255
0
255
255
0
255
255
0
255
255
0
243
156
0
237
106
0
240
137
0
240
133
0
240
133
0
240
133
0
240
137
0
236
104
0
244
169
0
255
255
0
255
255
0
255
255
0
255
255
0
255
255
0
253
244
0
239
127
0
237
116
0
240
136
0
240
133
0
240
133
0
240
133
0
240
133
0
240
133
0
240
133
0
240
133
0
240
133
0
240
133
0
240
133
0
240
133
0
240
133
0
240
133
0
240
133
0
240
133
0
240
133
0
240
133
0
240
133
0
240
133
0
240
133
0
240
133
0
240
133
0
240
133
0
240
133
0
240
133
0
240
133
0
240
133
0
240
133
0
240
133
0
240
133
0
240
133
0
240
133
0
240
133
0
240
133
0
240
133
0
240
133
0
240
133
0
240
133
0
240
133
0
240
133
0
240
133
0
241
142
0
241
142
0
240
133
0
240
133
0
240
134
0
239
121
0
239
125
0
254
250
0
255
255
0
255
255
0
255
255
0
255
255
0
255
255
0
254
248
0
239
120
0
239
120
0
240
134
0
240
133
0
240
133
0
239
128
0
238
115
0
253
236
0
255
255
0
255
255
0
255
255
0
255
255
0
255
255
0
255
255
0
252
229
0
238
110
0
240
130
0
240
133
0
240
133
0
240
133
0
240
133
0
240
133
0
240
133
0
240
133
0
240
133
0
240
133
0
240
133
0
240
133
0
240
133
0
240
133
0
240
133
0
240
132
0
240
133
0
240
134
0
240
133
0
240
133
0
240
132
0
240
133
0
240
133
0
240
132
0
240
133
0
240
133
0
240
133
0
240
133
0
240
133
0
240
133
0
240
133
0
240
133
0
240
133
0
240
133
0
240
133
0
240
133
0
240
133
0
240
133
0
240
133
0
240
133
0
240
133
0
240
133
0
241
142
0
241
141
0
240
132
0
240
132
0
240
134
0
237
104
0
247
188
0
255
255
0
255
255
0
255
255
0
255
255
0
255
255
0
255
255
0
255
255
0
249
208
0
236
102
0
240
134
0
240
132
0
240
135
0
236
104
0
244
169
0
255
255
0
255
255
0
255
255
0
255
255
0
255
255
0
255
255
0
255
255
0
255
255
0
244
166
0
237
104
0
240
135
0
240
132
0
240
132
0
240
132
0
240
132
0
240
132
0
240
132
0
240
132
0
240
132
0
240
132
0
240
132
0
240
132
0
240
132
0
240
132
0
240
134
0
240
130
0
238
113
0
237
107
0
237
109
0
238
110
0
237
108
0
239
125
0
240
135
0
240
130
0
240
128
0
240
131
0
240
133
0
240
133
0
240
132
0
240
132
0
240
132
0
240
132
0
240
132
0
240
132
0
240
132
0
240
132
0
240
132
0
240
132
0
240
132
0
240
132
0
240
132
0
241
141
0
241
140
0
240
131
0
240
132
0
240
126
0
239
119
0
254
244
0
255
255
0
255
255
0
255
255
0
255
255
0
255
255
0
255
255
0
255
255
0
255
255
0
241
144
0
237
109
0
240
135
0
240
128
0
237
111
0
252
230
0
255
255
0
255
255
0
255
255
0
255
255
0
255
255
0
255
255
0
255
255
0
255
255
0
252
229
0
237
109
0
240
129
0
240
131
0
240
131
0
240
131
0
240
131
0
240
131
0
240
131
0
240
131
0
240
131
0
240
131
0
240
131
0
240
131
0
240
131
0
240
134
0
239
125
0
237
112
0
243
156
0
247
189
0
248
200
0
249
207
0
247
190
0
239
122
0
236
101
0
238
115
0
239
119
0
237
110
0
237
107
0
238
114
0
239
126
0
240
134
0
240
131
0
240
131
0
240
131
0
240
131
0
240
131
0
240
131
0
240
131
0
240
131
0
240
131
0
240
131
0
240
131
0
241
140
0
241
140
0
240
130
0
240
135
0
237
103
0
244
154
0
255
255
0
255
255
0
255
255
0
255
255
0
255
255
0
255
255
0
255
255
0
255
255
0
255
255
0
251
218
0
236
99
0
240
132
0
238
111
0
242
148
0
255
255
0
255
255
0
255
255
0
255
255
0
255
255
0
255
255
0
255
255
0
255
255
0
255
255
0
255
255
0
243
153
0
237
108
0
240
133
0
240
131
0
240
131
0
240
131
0
240
131
0
240
131
0
240
131
0
240
131
0
240
131
0
240
131
0
240
131
0
240
131
0
239
128
0
237
107
0
249
204
0
255
255
0
255
255
0
255
255
0
255
255
0
255
255
0
252
234
0
248
197
0
251
218
0
252
226
0
250
210
0
247
185
0
241
141
0
239
119
0
237
106
0
240
131
0
240
133
0
240
131
0
240
131
0
240
131
0
240
131
0
240
131
0
240
131
0
240
131
0
240
131
0
240
131
0
241
140
0
241
138
0
240
131
0
239
122
0
237
103
0
252
228
0
255
255
0
255
255
0
255
255
0
255
255
0
255
255
0
255
255
0
255
255
0
255
255
0
255
255
0
255
255
0
244
164
0
235
84
0
235
86
0
249
207
0
255
255
0
255
255
0
255
255
0
255
255
0
255
255
0
255
255
0
255
255
0
255
255
0
255
255
0
255
255
0
251
215
0
237
103
0
240
131
0
240
129
0
240
129
0
240
129
0
240
129
0
240
129
0
240
129
0
240
129
0
240
129
0
240
129
0
240
129
0
240
132
0
237
105
0
243
157
0
255
255
0
255
255
0
255
255
0
255
255
0
255
255
0
255
255
0
255
255
0
255
255
0
255
255
0
255
255
0
255
255
0
255
255
0
255
255
0
252
230
0
244
165
0
237
108
0
240
129
0
240
130
0
240
129
0
240
129
0
240
129
0
240
129
0
240
129
0
240
129
0
240
129
0
240
129
0
241
138
0
241
139
0
240
130
0
236
93
0
248
195
0
255
255
0
255
255
0
255
255
0
255
255
0
255
255
0
255
255
0
255
255
0
255
255
0
255
255
0
255
255
0
255
255
0
255
255
0
243
150
0
244
160
0
255
255
0
255
255
0
255
255
0
255
255
0
255
255
0
255
255
0
255
255
0
255
255
0
255
255
0
255
255
0
255
255
0
255
255
0
241
139
0
238
112
0
240
130
0
240
129
0
240
129
0
240
129
0
240
129
0
240
129
0
240
129
0
240
129
0
240
129
0
240
129
0
240
121
0
240
123
0
254
244
0
255
255
0
255
255
0
255
255
0
255
255
0
255
255
0
255
255
0
255
255
0
255
255
0
255
255
0
255
255
0
255
255
0
255
255
0
255
255
0
255
255
0
255
255
0
244
167
0
237
103
0
240
131
0
240
129
0
240
129
0
240
129
0
240
129
0
240
129
0
240
129
0
240
129
0
240
129
0
241
138
0
241
141
0
235
93
0
244
161
0
255
255
0
255
255
0
255
255
0
255
255
0
255
255
0
255
255
0
255
255
0
255
255
0
255
255
0
255
255
0
255
255
0
255
255
0
255
255
0
255
255
0
255
255
0
255
255
0
255
255
0
255
255
0
255
255
0
255
255
0
255
255
0
255
255
0
255
255
0
255
255
0
255
255
0
255
255
0
255
255
0
248
190
0
236
98
0
240
131
0
240
128
0
240
128
0
240
128
0
240
128
0
240
128
0
240
128
0
240
128
0
240
128
0
240
129
0
239
117
0
240
130
0
255
253
0
255
255
0
255
255
0
255
255
0
255
255
0
255
255
0
255
255
0
255
255
0
255
255
0
255
255
0
255
255
0
255
255
0
255
255
0
255
255
0
255
255
0
255
255
0
253
243
0
239
119
0
239
122
0
240
128
0
240
128
0
240
128
0
240
128
0
240
128
0
240
128
0
240
128
0
240
128
0
241
137
0
237
102
0
241
140
0
255
255
0
255
255
0
255
255
0
255
255
0
255
255
0
255
255
0
255
255
0
255
255
0
255
255
0
255
255
0
255
255
0
255
255
0
255
255
0
255
255
0
255
255
0
255
255
0
255
255
0
255
255
0
255
255
0
255
255
0
255
255
0
255
255
0
255
255
0
255
255
0
255
255
0
255
255
0
255
255
0
255
255
0
253
240
0
238
110
0
239
119
0
240
130
0
240
128
0
240
128
0
240
128
0
240
128
0
240
128
0
240
128
0
240
128
0
240
129
0
238
110
0
242
144
0
255
254
0
255
255
0
255
255
0
255
255
0
255
255
0
255
255
0
255
255
0
255
255
0
255
255
0
255
255
0
255
255
0
255
255
0
255
255
0
255
255
0
255
255
0
255
255
0
255
255
0
242
141
0
238
111
0
240
129
0
240
128
0
240
128
0
240
128
0
240
128
0
240
128
0
240
128
0
240
128
0
241
137
0
244
163
0
255
254
0
255
255
0
255
255
0
255
255
0
255
255
0
255
255
0
255
255
0
255
255
0
255
255
0
255
255
0
255
255
0
255
255
0
255
255
0
255
255
0
255
255
0
255
255
0
255
255
0
255
255
0
255
255
0
255
255
0
255
255
0
255
255
0
255
255
0
255
255
0
255
255
0
255
255
0
255
255
0
255
255
0
255
255
0
255
255
0
247
185
0
235
93
0
239
130
0
239
127
0
239
127
0
239
127
0
239
127
0
239
127
0
239
127
0
239
127
0
239
129
0
236
102
0
245
171
0
255
255
0
255
255
0
255
255
0
255
255
0
255
255
0
255
255
0
255
255
0
255
255
0
255
255
0
255
255
0
255
255
0
255
255
0
255
255
0
255
251
0
251
222
0
254
251
0
253
241
0
238
120
0
238
121
0
239
127
0
239
127
0
239
127
0
239
127
0
239
127
0
239
127
0
239
127
0
239
127
0
240
136
0
255
255
0
255
255
0
255
255
0
255
255
0
255
255
0
255
255
0
255
255
0
255
255
0
255
255
0
255
255
0
255
255
0
255
255
0
255
255
0
255
255
0
255
255
0
255
255
0
255
255
0
255
255
0
255
255
0
255
255
0
255
255
0
255
255
0
255
255
0
255
255
0
255
255
0
255
255
0
255
255
0
255
255
0
255
255
0
255
255
0
255
255
0
255
255
0
240
140
0
234
88
0
239
128
0
239
130
0
239
127
0
239
127
0
239
127
0
239
127
0
239
127
0
239
130
0
235
98
0
247
191
0
255
255
0
255
255
0
255
255
0
255
255
0
255
255
0
255
255
0
255
255
0
255
255
0
255
255
0
255
255
0
252
233
0
249
209
0
245
178
0
239
127
0
237
110
0
239
132
0
241
145
0
239
126
0
239
126
0
239
127
0
239
127
0
239
127
0
239
127
0
239
127
0
239
127
0
239
127
0
239
127
0
240
136
0
255
255
0
255
255
0
255
255
0
255
255
0
255
255
0
255
255
0
255
255
0
255
255
0
255
255
0
255
255
0
255
255
0
255
255
0
255
255
0
255
255
0
255
255
0
255
255
0
255
255
0
255
255
0
255
255
0
255
255
0
255
255
0
255
255
0
255
255
0
255
255
0
255
255
0
255
255
0
255
255
0
255
255
0
255
255
0
255
255
0
255
255
0
255
255
0
254
246
0
241
145
0
235
95
0
236
101
0
238
121
0
239
128
0
239
128
0
239
127
0
239
129
0
238
120
0
237
111
0
253
240
0
255
255
0
255
255
0
255
255
0
255
255
0
255
255
0
255
255
0
255
255
0
255
255
0
252
235
0
241
143
0
237
113
0
236
104
0
236
100
0
237
113
0
239
125
0
237
114
0
237
109
0
239
127
0
239
127
0
239
126
0
239
126
0
239
126
0
239
126
0
239
126
0
239
126
0
239
126
0
239
126
0
240
135
0
255
255
0
255
255
0
255
255
0
255
255
0
255
255
0
255
255
0
255
255
0
255
255
0
255
255
0
255
255
0
255
255
0
255
255
0
255
255
0
255
255
0
255
255
0
255
255
0
255
255
0
255
255
0
255
255
0
255
255
0
255
255
0
255
255
0
255
255
0
255
255
0
255
255
0
255
255
0
255
255
0
255
255
0
255
255
0
255
255
0
255
255
0
255
255
0
255
255
0
255
255
0
249
204
0
242
145
0
237
112
0
235
96
0
236
104
0
237
108
0
236
106
0
233
75
0
244
167
0
255
255
0
255
255
0
255
255
0
255
255
0
255
255
0
255
255
0
255
255
0
255
255
0
255
252
0
240
133
0
234
84
0
238
121
0
239
125
0
239
126
0
239
126
0
239
125
0
239
126
0
239
126
0
239
125
0
239
125
0
239
125
0
239
125
0
239
125
0
239
125
0
239
125
0
239
125
0
239
125
0
239
125
0
240
134
0
255
255
0
255
255
0
255
255
0
255
255
0
255
255
0
255
255
0
255
255
0
255
255
0
255
255
0
255
255
0
255
255
0
255
255
0
255
255
0
255
255
0
255
255
0
255
255
0
255
255
0
255
255
0
255
255
0
255
255
0
255
255
0
255
255
0
255
255
0
255
255
0
255
255
0
255
255
0
255
255
0
255
255
0
255
255
0
255
255
0
255
255
0
255
255
0
255
255
0
255
255
0
255
255
0
255
255
0
252
231
0
247
188
0
242
147
0
241
137
0
241
139
0
244
166
0
255
252
0
255
255
0
255
255
0
255
255
0
255
255
0
255
255
0
255
255
0
255
255
0
255
255
0
251
223
0
236
100
0
239
124
0
239
124
0
239
124
0
239
124
0
239
124
0
239
124
0
239
124
0
239
124
0
239
124
0
239
124
0
239
124
0
239
124
0
239
124
0
239
124
0
239
124
0
239
124
0
239
124
0
239
124
0
240
133
0
255
255
0
255
255
0
255
255
0
255
255
0
255
255
0
255
255
0
255
255
0
255
255
0
255
255
0
255
255
0
255
255
0
255
255
0
255
255
0
255
255
0
255
255
0
255
255
0
255
255
0
255
255
0
255
255
0
255
255
0
255
255
0
255
255
0
255
255
0
255
255
0
255
255
0
255
255
0
255
255
0
255
255
0
255
255
0
255
255
0
255
255
0
255
255
0
255
255
0
255
255
0
255
255
0
255
255
0
255
255
0
255
255
0
255
255
0
255
255
0
255
255
0
255
255
0
255
255
0
255
255
0
255
255
0
255
255
0
255
255
0
255
255
0
255
255
0
255
255
0
255
255
0
248
196
0
236
96
0
239
125
0
239
124
0
239
124
0
239
124
0
239
124
0
239
124
0
239
124
0
239
124
0
239
124
0
239
124
0
239
124
0
239
124
0
239
124
0
239
124
0
239
124
0
239
124
0
239
124
0
239
124
0
240
133
0
255
255
0
255
255
0
255
255
0
255
255
0
255
255
0
255
255
0
255
255
0
255
255
0
255
255
0
255
255
0
255
255
0
255
255
0
255
255
0
255
255
0
255
255
0
255
255
0
255
255
0
255
255
0
255
255
0
255
255
0
255
255
0
255
255
0
255
255
0
255
255
0
255
255
0
255
255
0
255
255
0
255
255
0
255
255
0
255
255
0
255
255
0
255
255
0
255
255
0
255
255
0
255
255
0
255
255
0
255
255
0
255
255
0
255
255
0
255
255
0
255
255
0
255
255
0
255
255
0
255
255
0
255
255
0
255
255
0
255
255
0
255
255
0
255
255
0
255
255
0
255
255
0
242
144
0
236
103
0
239
126
0
239
124
0
239
124
0
239
124
0
239
124
0
239
124
0
239
124
0
239
124
0
239
124
0
239
124
0
239
124
0
239
124
0
239
124
0
239
124
0
239
124
0
239
124
0
239
124
0
239
124
0
240
133
0
255
255
0
255
255
0
255
255
0
255
255
0
255
255
0
255
255
0
255
255
0
255
255
0
255
255
0
255
255
0
255
255
0
255
255
0
255
255
0
255
255
0
255
255
0
255
255
0
255
255
0
255
255
0
255
255
0
255
255
0
255
255
0
255
255
0
255
255
0
255
255
0
255
255
0
255
255
0
255
255
0
255
255
0
255
255
0
255
255
0
255
255
0
255
255
0
255
255
0
255
255
0
255
255
0
255
255
0
255
255
0
255
255
0
255
255
0
255
255
0
255
255
0
255
255
0
255
255
0
255
255
0
255
255
0
255
255
0
255
255
0
255
255
0
255
255
0
255
255
0
250
217
0
235
96
0
239
123
0
239
123
0
239
123
0
239
123
0
239
123
0
239
123
0
239
123
0
239
123
0
239
123
0
239
123
0
239
123
0
239
123
0
239
123
0
239
123
0
239
123
0
239
123
0
239
123
0
239
123
0
239
123
0
240
132
0
255
255
0
255
255
0
255
255
0
255
255
0
255
255
0
255
255
0
255
255
0
255
255
0
255
255
0
255
255
0
255
255
0
255
255
0
255
255
0
255
255
0
255
255
0
255
255
0
255
255
0
255
255
0
255
255
0
255
255
0
255
255
0
255
255
0
255
255
0
255
255
0
255
255
0
255
255
0
255
255
0
255
255
0
255
255
0
255
255
0
255
255
0
255
255
0
255
255
0
255
255
0
255
255
0
255
255
0
255
255
0
255
255
0
255
255
0
255
255
0
255
255
0
255
255
0
255
255
0
255
255
0
255
255
0
255
255
0
255
255
0
255
255
0
255
255
0
255
255
0
239
124
0
236
103
0
239
125
0
239
122
0
239
122
0
239
122
0
239
122
0
239
122
0
239
122
0
239
122
0
239
122
0
239
122
0
239
122
0
239
122
0
239
122
0
239
122
0
239
122
0
239
122
0
239
122
0
239
122
0
239
122
0
240
131
0
255
255
0
255
255
0
255
255
0
255
255
0
255
255
0
255
255
0
255
255
0
255
255
0
255
255
0
255
255
0
255
255
0
255
255
0
255
255
0
255
255
0
255
255
0
255
255
0
255
255
0
255
255
0
255
255
0
255
255
0
255
255
0
255
255
0
255
255
0
255
255
0
255
255
0
255
255
0
255
255
0
255
255
0
255
255
0
255
255
0
255
255
0
255
255
0
255
255
0
255
255
0
255
255
0
255
255
0
255
255
0
255
255
0
255
255
0
255
255
0
255
255
0
255
255
0
255
255
0
255
255
0
255
255
0
255
255
0
255
255
0
255
255
0
255
255
0
244
161
0
235
90
0
240
126
0
239
121
0
239
122
0
239
122
0
239
122
0
239
122
0
239
122
0
239
122
0
239
122
0
239
122
0
239
122
0
239
122
0
239
122
0
239
122
0
239
122
0
239
122
0
239
122
0
239
122
0
239
122
0
239
122
0
240
131
0
255
255
0
255
255
0
255
255
0
255
255
0
255
255
0
255
255
0
255
255
0
255
255
0
255
255
0
255
255
0
255
255
0
255
255
0
255
255
0
255
255
0
255
255
0
255
255
0
255
255
0
255
255
0
255
255
0
255
255
0
255
255
0
255
255
0
255
255
0
255
255
0
255
255
0
255
255
0
255
255
0
255
255
0
255
255
0
255
255
0
255
255
0
255
255
0
255
255
0
255
255
0
255
255
0
255
255
0
255
255
0
255
255
0
255
255
0
255
255
0
255
255
0
255
255
0
255
255
0
255
255
0
255
255
0
255
255
0
255
255
0
255
255
0
244
170
0
234
88
0
238
120
0
239
121
0
239
120
0
239
120
0
239
120
0
239
120
0
239
120
0
239
120
0
239
120
0
239
120
0
239
120
0
239
120
0
239
120
0
239
120
0
239
120
0
239
120
0
239
120
0
239
120
0
239
120
0
239
120
0
239
120
0
240
130
0
255
255
0
255
255
0
255
255
0
255
255
0
255
255
0
255
255
0
255
255
0
255
255
0
255
255
0
255
255
0
255
255
0
255
255
0
255
255
0
255
255
0
255
255
0
255
255
0
255
255
0
255
255
0
255
255
0
255
255
0
255
255
0
255
255
0
255
255
0
255
255
0
255
255
0
255
255
0
255
255
0
255
255
0
255
255
0
255
255
0
255
255
0
255
255
0
255
255
0
255
255
0
255
255
0
255
255
0
255
255
0
255
255
0
255
255
0
255
255
0
255
255
0
255
255
0
255
255
0
255
255
0
255
255
0
255
255
0
254
250
0
242
150
0
233
87
0
237
118
0
238
122
0
238
120
0
238
120
0
238
120
0
238
120
0
238
120
0
238
120
0
238
120
0
238
120
0
238
120
0
238
120
0
238
120
0
238
120
0
238
120
0
238
120
0
238
120
0
238
120
0
238
120
0
238
120
0
238
120
0
238
120
0
239
130
0
255
255
0
255
255
0
255
255
0
255
255
0
250
214
0
241
132
0
245
171
0
255
255
0
255
255
0
255
255
0
255
255
0
255
255
0
255
255
0
255
255
0
255
255
0
255
255
0
255
255
0
255
255
0
255
255
0
255
255
0
255
255
0
255
255
0
255
255
0
255
255
0
255
255
0
255
255
0
255
255
0
255
255
0
255
255
0
255
255
0
255
255
0
255
255
0
255
255
0
255
255
0
255
255
0
255
255
0
255
255
0
255
255
0
255
255
0
255
255
0
255
255
0
255
255
0
255
255
0
255
255
0
255
255
0
248
198
0
238
120
0
234
88
0
238
120
0
238
121
0
238
119
0
238
119
0
238
119
0
238
119
0
238
119
0
238
119
0
238
119
0
238
119
0
238
119
0
238
119
0
238
119
0
238
119
0
238
119
0
238
119
0
238
119
0
238
119
0
238
119
0
238
119
0
238
119
0
238
119
0
238
119
0
239
129
0
255
255
0
255
255
0
255
255
0
255
247
0
241
129
0
239
117
0
238
114
0
243
155
0
252
231
0
255
255
0
255
255
0
255
255
0
255
255
0
255
255
0
255
255
0
255
255
0
255
255
0
255
255
0
255
255
0
255
255
0
255
255
0
255
255
0
255
255
0
255
255
0
255
255
0
255
255
0
255
255
0
255
255
0
255
255
0
255
255
0
255
255
0
255
255
0
255
255
0
255
255
0
253
239
0
249
205
0
250
213
0
250
219
0
251
227
0
253
235
0
252
232
0
250
217
0
248
197
0
245
168
0
239
127
0
234
91
0
236
103
0
238
123
0
238
120
0
238
119
0
238
119
0
238
119
0
238
119
0
238
119
0
238
119
0
238
119
0
238
119
0
238
119
0
238
119
0
238
119
0
238
119
0
238
119
0
238
119
0
238
119
0
238
119
0
238
119
0
238
119
0
238
119
0
238
119
0
238
119
0
238
119
0
239
129
0
255
255
0
255
255
0
255
255
0
251
220
0
240
119
0
242
144
0
242
145
0
240
124
0
240
128
0
244
166
0
249
204
0
253
244
0
255
255
0
255
255
0
255
255
0
255
255
0
255
255
0
255
255
0
255
255
0
255
255
0
255
255
0
255
255
0
255
255
0
255
255
0
255
255
0
255
255
0
255
255
0
255
255
0
255
255
0
255
255
0
255
255
0
255
255
0
255
255
0
255
255
0
247
193
0
232
72
0
236
99
0
236
103
0
237
108
0
237
114
0
238
111
0
236
101
0
235
93
0
235
92
0
236
103
0
238
120
0
238
121
0
238
118
0
238
119
0
238
119
0
238
119
0
238
119
0
238
119
0
238
119
0
238
119
0
238
119
0
238
119
0
238
119
0
238
119
0
238
119
0
238
119
0
238
119
0
238
119
0
238
119
0
238
119
0
238
119
0
238
119
0
238
119
0
238
119
0
238
119
0
238
119
0
239
129
0
255
255
0
255
255
0
255
255
0
244
165
0
239
119
0
241
141
0
241
139
0
241
142
0
240
135
0
239
120
0
238
116
0
240
136
0
244
162
0
246
182
0
249
205
0
252
232
0
254
249
0
255
255
0
255
255
0
254
249
0
255
255
0
255
255
0
255
255
0
255
255
0
255
251
0
246
176
0
242
140
0
249
199
0
255
255
0
255
255
0
255
255
0
255
255
0
255
255
0
255
255
0
249
205
0
235
94
0
238
115
0
238
115
0
237
113
0
237
111
0
237
112
0
238
115
0
238
118
0
238
119
0
238
119
0
238
118
0
238
118
0
238
118
0
238
118
0
238
118
0
238
118
0
238
118
0
238
118
0
238
118
0
238
118
0
238
118
0
238
118
0
238
118
0
238
118
0
238
118
0
238
118
0
238
118
0
238
118
0
238
118
0
238
118
0
238
118
0
238
118
0
238
118
0
238
118
0
238
118
0
238
118
0
239
128
0
255
255
0
255
255
0
251
217
0
238
110
0
241
136
0
241
137
0
241
137
0
241
137
0
241
138
0
241
139
0
241
139
0
240
129
0
239
119
0
238
115
0
238
115
0
240
128
0
241
141
0
242
147
0
239
125
0
248
191
0
255
255
0
255
255
0
255
255
0
254
249
0
242
144
0
238
112
0
240
125
0
239
113
0
246
171
0
255
255
0
255
255
0
255
255
0
255
255
0
255
255
0
249
204
0
235
94
0
238
116
0
238
117
0
238
117
0
238
117
0
238
117
0
238
117
0
238
117
0
238
117
0
238
117
0
238
117
0
238
117
0
238
117
0
238
117
0
238
117
0
238
117
0
238
117
0
238
117
0
238
117
0
238
117
0
238
117
0
238
117
0
238
117
0
238
117
0
238
117
0
238
117
0
238
117
0
238
117
0
238
117
0
238
117
0
238
117
0
238
117
0
238
117
0
238
117
0
238
117
0
238
117
0
239
127
0
255
255
0
254
244
0
240
125
0
240
123
0
241
138
0
241
135
0
241
136
0
241
136
0
241
136
0
241
136
0
241
135
0
241
136
0
241
137
0
241
137
0
241
136
0
241
131
0
240
128
0
238
105
0
241
130
0
254
243
0
255
255
0
255
255
0
255
255
0
244
167
0
238
109
0
242
144
0
242
144
0
241
141
0
238
109
0
244
161
0
255
255
0
255
255
0
255
255
0
255
255
0
249
201
0
235
90
0
238
116
0
238
116
0
238
116
0
238
116
0
238
116
0
238
116
0
238
116
0
238
116
0
238
116
0
238
116
0
238
116
0
238
116
0
238
116
0
238
116
0
238
116
0
238
116
0
238
116
0
238
116
0
238
116
0
238
116
0
238
116
0
238
116
0
238
116
0
238
116
0
238
116
0
238
116
0
238
116
0
238
116
0
238
116
0
238
116
0
238
116
0
238
116
0
238
116
0
238
116
0
238
116
0
239
126
0
255
255
0
241
143
0
238
109
0
241
138
0
241
133
0
241
134
0
241
134
0
241
134
0
241
134
0
241
134
0
241
134
0
241
134
0
241
134
0
241
134
0
241
133
0
241
134
0
241
135
0
238
109
0
251
221
0
255
255
0
255
255
0
255
255
0
251
220
0
237
110
0
241
137
0
241
138
0
241
138
0
241
139
0
241
140
0
237
103
0
246
178
0
255
255
0
255
255
0
255
255
0
251
224
0
236
101
0
238
112
0
238
115
0
238
116
0
238
116
0
238
116
0
238
116
0
238
116
0
238
116
0
238
116
0
238
116
0
238
116
0
238
116
0
238
116
0
238
116
0
238
116
0
238
116
0
238
116
0
238
116
0
238
116
0
238
116
0
238
116
0
238
116
0
238
116
0
238
116
0
238
116
0
238
116
0
238
116
0
238
116
0
238
116
0
238
116
0
238
116
0
238
116
0
238
116
0
238
116
0
238
116
0
239
126
0
247
185
0
236
99
0
240
137
0
240
133
0
240
133
0
240
133
0
240
133
0
240
133
0
240
133
0
240
133
0
240
133
0
240
133
0
240
133
0
240
133
0
240
133
0
240
134
0
238
117
0
241
142
0
255
255
0
255
255
0
255
255
0
255
255
0
242
147
0
239
117
0
241
139
0
241
136
0
241
136
0
241
136
0
241
137
0
240
135
0
238
106
0
251
220
0
255
255
0
255
255
0
255
255
0
239
128
0
235
97
0
238
116
0
238
114
0
238
114
0
238
114
0
238
114
0
238
114
0
238
114
0
238
114
0
238
114
0
238
114
0
238
114
0
238
114
0
238
114
0
238
114
0
238
114
0
238
114
0
238
114
0
238
114
0
238
114
0
238
114
0
238
114
0
238
114
0
238
114
0
238
114
0
238
114
0
238
114
0
238
114
0
238
114
0
238
114
0
238
114
0
238
114
0
238
114
0
238
114
0
238
114
0
239
124
0
240
130
0
240
127
0
240
132
0
240
130
0
240
130
0
240
130
0
240
130
0
240
130
0
240
130
0
240
130
0
240
130
0
240
130
0
240
130
0
240
130
0
240
130
0
240
133
0
237
102
0
247
181
0
255
255
0
255
255
0
255
255
0
249
203
0
237
104
0
241
137
0
241
135
0
241
135
0
241
135
0
241
135
0
241
134
0
241
138
0
238
111
0
243
152
0
255
255
0
255
255
0
255
255
0
240
141
0
234
90
0
237
116
0
237
114
0
237
114
0
237
114
0
237
114
0
237
114
0
237
114
0
237
114
0
237
114
0
237
114
0
237
114
0
237
114
0
237
114
0
237
114
0
237
114
0
237
114
0
237
114
0
237
114
0
237
114
0
237
114
0
237
114
0
237
114
0
237
114
0
237
114
0
237
114
0
237
114
0
237
114
0
237
114
0
237
114
0
237
114
0
237
114
0
237
114
0
237
114
0
237
114
0
238
124
0
241
134
0
240
130
0
240
128
0
240
128
0
240
128
0
240
128
0
240
128
0
240
128
0
240
128
0
240
128
0
240
128
0
240
128
0
240
128
0
240
128
0
240
128
0
240
127
0
238
108
0
252
227
0
255
255
0
255
255
0
254
245
0
238
120
0
239
121
0
240
134
0
240
133
0
240
133
0
240
133
0
240
133
0
240
133
0
240
132
0
240
131
0
238
112
0
252
232
0
255
255
0
255
255
0
242
148
0
234
86
0
237
115
0
237
113
0
237
113
0
237
113
0
237
113
0
237
113
0
237
113
0
237
113
0
237
113
0
237
113
0
237
113
0
237
113
0
237
113
0
237
113
0
237
113
0
237
113
0
237
113
0
237
113
0
237
113
0
237
113
0
237
113
0
237
113
0
237
113
0
237
113
0
237
113
0
237
113
0
237
113
0
237
113
0
237
113
0
237
113
0
237
113
0
237
113
0
237
113
0
237
113
0
238
123
0
240
136
0
239
126
0
239
127
0
239
127
0
239
127
0
239
127
0
239
127
0
239
127
0
239
127
0
239
127
0
239
127
0
239
127
0
239
127
0
239
126
0
239
130
0
236
105
0
240
134
0
255
255
0
255
255
0
255
255
0
244
164
0
236
100
0
240
135
0
240
130
0
240
130
0
240
130
0
240
130
0
240
130
0
240
130
0
240
130
0
240
133
0
237
103
0
246
179
0
255
255
0
255
255
0
248
195
0
233
81
0
237
115
0
237
112
0
237
112
0
237
112
0
237
112
0
237
112
0
237
112
0
237
112
0
237
112
0
237
112
0
237
112
0
237
112
0
237
112
0
237
112
0
237
112
0
237
112
0
237
112
0
237
112
0
237
112
0
237
112
0
237
112
0
237
112
0
237
112
0
237
112
0
237
112
0
237
112
0
237
112
0
237
112
0
237
112
0
237
112
0
237
112
0
237
112
0
237
112
0
237
112
0
238
122
0
240
134
0
239
125
0
239
125
0
239
125
0
239
125
0
239
125
0
239
125
0
239
125
0
239
125
0
239
125
0
239
125
0
239
125
0
239
125
0
239
125
0
238
123
0
235
92
0
249
208
0
255
255
0
255
255
0
252
227
0
237
105
0
239
125
0
240
128
0
240
128
0
240
128
0
240
128
0
240
128
0
240
128
0
240
128
0
240
128
0
240
130
0
238
111
0
241
138
0
255
255
0
255
255
0
255
251
0
237
107
0
234
91
0
237
115
0
237
111
0
237
112
0
237
112
0
237
112
0
237
112
0
237
112
0
237
112
0
237
112
0
237
112
0
237
112
0
237
112
0
237
112
0
237
112
0
237
112
0
237
112
0
237
112
0
237
112
0
237
112
0
237
112
0
237
112
0
237
112
0
237
112
0
237
112
0
237
112
0
237
112
0
237
112
0
237
112
0
237
112
0
237
112
0
237
112
0
237
112
0
237
112
0
238
122
0
240
133
0
239
124
0
239
124
0
239
124
0
239
124
0
239
124
0
239
124
0
239
124
0
239
124
0
239
124
0
239
124
0
239
124
0
239
124
0
239
124
0
236
100
0
245
172
0
255
255
0
255
255
0
255
255
0
246
180
0
235
95
0
239
130
0
239
126
0
239
126
0
239
126
0
239
126
0
239
126
0
239
126
0
239
126
0
239
126
0
239
126
0
239
124
0
237
111
0
251
226
0
255
255
0
255
255
0
249
200
0
233
82
0
237
110
0
237
111
0
237
111
0
237
111
0
237
111
0
237
111
0
237
111
0
237
111
0
237
111
0
237
111
0
237
111
0
237
111
0
237
111
0
237
111
0
237
111
0
237
111
0
237
111
0
237
111
0
237
111
0
237
111
0
237
111
0
237
111
0
237
111
0
237
111
0
237
111
0
237
111
0
237
111
0
237
111
0
237
111
0
237
111
0
237
111
0
237
111
0
237
111
0
238
121
0
240
130
0
239
121
0
239
121
0
239
121
0
239
121
0
239
121
0
239
121
0
239
121
0
239
121
0
239
121
0
239
121
0
239
121
0
239
121
0
238
116
0
237
109
0
253
240
0
255
255
0
255
255
0
255
255
0
241
140
0
236
105
0
239
126
0
239
124
0
239
124
0
239
124
0
239
124
0
239
124
0
239
124
0
239
124
0
239
124
0
239
124
0
239
125
0
235
95
0
247
195
0
255
255
0
255
255
0
255
255
0
242
155
0
234
85
0
237
111
0
237
110
0
237
110
0
237
110
0
237
110
0
237
110
0
237
110
0
237
110
0
237
110
0
237
110
0
237
110
0
237
110
0
237
110
0
237
110
0
237
110
0
237
110
0
237
110
0
237
110
0
237
110
0
237
110
0
237
110
0
237
110
0
237
110
0
237
110
0
237
110
0
237
110
0
237
110
0
237
110
0
237
110
0
237
110
0
237
110
0
237
110
0
238
120
0
239
129
0
238
119
0
238
119
0
238
119
0
238
119
0
238
119
0
238
119
0
238
119
0
238
119
0
238
119
0
238
119
0
238
119
0
238
119
0
237
114
0
237
109
0
252
227
0
255
255
0
255
255
0
251
220
0
236
98
0
239
121
0
239
122
0
239
122
0
239
122
0
239
122
0
239
122
0
239
122
0
239
122
0
239
122
0
239
122
0
239
122
0
239
124
0
236
96
0
245
167
0
255
255
0
255
255
0
255
255
0
244
169
0
234
80
0
237
110
0
237
109
0
237
109
0
237
109
0
237
109
0
237
109
0
237
109
0
237
109
0
237
109
0
237
109
0
237
109
0
237
109
0
237
109
0
237
109
0
237
109
0
237
109
0
237
109
0
237
109
0
237
109
0
237
109
0
237
109
0
237
109
0
237
109
0
237
109
0
237
109
0
237
109
0
237
109
0
237
109
0
237
109
0
237
109
0
237
109
0
237
109
0
238
119
0
239
128
0
238
118
0
238
118
0
238
118
0
238
118
0
238
118
0
238
118
0
238
118
0
238
118
0
238
118
0
238
118
0
238
118
0
238
117
0
238
117
0
236
98
0
250
215
0
255
255
0
253
242
0
237
109
0
237
104
0
238
122
0
238
120
0
238
120
0
238
120
0
238
120
0
238
120
0
238
120
0
238
120
0
238
120
0
238
120
0
238
120
0
238
120
0
237
109
0
237
113
0
254
251
0
255
255
0
255
255
0
245
171
0
232
80
0
236
111
0
236
109
0
236
109
0
236
109
0
236
109
0
236
109
0
236
109
0
236
109
0
236
109
0
236
109
0
236
109
0
236
109
0
236
109
0
236
109
0
236
109
0
236
109
0
236
109
0
236
109
0
236
109
0
236
109
0
236
109
0
236
109
0
236
109
0
236
109
0
236
109
0
236
109
0
236
109
0
236
109
0
236
109
0
236
109
0
236
109
0
236
109
0
237
119
0
239
126
0
238
116
0
238
116
0
238
116
0
238
116
0
238
116
0
238
116
0
238
116
0
238
116
0
238
116
0
238
116
0
238
116
0
238
116
0
237
105
0
237
112
0
253
243
0
255
255
0
242
152
0
233
83
0
238
124
0
238
118
0
238
118
0
238
118
0
238
118
0
238
118
0
238
118
0
238
118
0
238
118
0
238
118
0
238
118
0
238
118
0
238
118
0
238
123
0
234
92
0
242
147
0
255
255
0
255
255
0
248
203
0
233
83
0
236
108
0
236
109
0
236
109
0
236
109
0
236
109
0
236
109
0
236
109
0
236
109
0
236
109
0
236
109
0
236
109
0
236
109
0
236
109
0
236
109
0
236
109
0
236
109
0
236
109
0
236
109
0
236
109
0
236
109
0
236
109
0
236
109
0
236
109
0
236
109
0
236
109
0
236
109
0
236
109
0
236
109
0
236
109
0
236
109
0
236
109
0
236
109
0
237
119
0
238
123
0
237
113
0
237
113
0
237
113
0
237
113
0
237
113
0
237
113
0
237
113
0
237
113
0
237
113
0
237
113
0
237
113
0
237
115
0
233
86
0
242
160
0
255
255
0
252
228
0
235
93
0
237
112
0
238
116
0
238
116
0
238
116
0
238
116
0
238
116
0
238
116
0
238
116
0
238
116
0
238
116
0
238
116
0
238
116
0
238
116
0
238
116
0
238
116
0
238
117
0
233
77
0
248
200
0
255
255
0
252
236
0
235
98
0
235
101
0
236
108
0
236
108
0
236
108
0
236
108
0
236
108
0
236
108
0
236
108
0
236
108
0
236
108
0
236
108
0
236
108
0
236
108
0
236
108
0
236
108
0
236
108
0
236
108
0
236
108
0
236
108
0
236
108
0
236
108
0
236
108
0
236
108
0
236
108
0
236
108
0
236
108
0
236
108
0
236
108
0
236
108
0
236
108
0
236
108
0
236
108
0
237
118
0
238
121
0
237
111
0
237
111
0
237
111
0
237
111
0
237
111
0
237
111
0
237
111
0
237
111
0
237
111
0
237
111
0
237
111
0
237
112
0
234
81
0
247
191
0
255
255
0
245
172
0
233
82
0
237
116
0
237
113
0
237
113
0
237
113
0
237
113
0
237
113
0
237
113
0
237
113
0
237
113
0
237
113
0
237
113
0
237
113
0
237
113
0
237
113
0
237
113
0
237
116
0
234
92
0
237
121
0
255
255
0
255
255
0
238
120
0
234
88
0
236
108
0
236
107
0
236
107
0
236
107
0
236
107
0
236
107
0
236
107
0
236
107
0
236
107
0
236
107
0
236
107
0
236
107
0
236
107
0
236
107
0
236
107
0
236
107
0
236
107
0
236
107
0
236
107
0
236
107
0
236
107
0
236
107
0
236
107
0
236
107
0
236
107
0
236
107
0
236
107
0
236
107
0
236
107
0
236
107
0
236
107
0
237
117
0
237
109
0
237
109
0
237
109
0
237
109
0
237
109
0
237
109
0
237
109
0
237
109
0
237
109
0
237
109
0
237
109
0
237
109
0
237
108
0
234
88
0
250
213
0
255
255
0
243
160
0
234
84
0
237
112
0
237
110
0
237
110
0
237
110
0
237
110
0
237
110
0
237
110
0
237
110
0
237
110
0
237
110
0
237
110
0
237
110
0
237
110
0
237
110
0
237
110
0
237
110
0
237
110
0
234
84
0
251
217
0
255
255
0
244
166
0
232
71
0
236
110
0
236
106
0
236
106
0
236
106
0
236
106
0
236
106
0
236
106
0
236
106
0
236
106
0
236
106
0
236
106
0
236
106
0
236
106
0
236
106
0
236
106
0
236
106
0
236
106
0
236
106
0
236
106
0
236
106
0
236
106
0
236
106
0
236
106
0
236
106
0
236
106
0
236
106
0
236
106
0
236
106
0
236
106
0
236
106
0
236
106
0
237
117
0
241
150
0
237
116
0
236
108
0
236
108
0
236
108
0
236
108
0
236
108
0
236
108
0
236
108
0
236
108
0
236
108
0
236
108
0
235
98
0
235
106
0
254
249
0
255
255
0
240
137
0
233
85
0
237
111
0
237
109
0
237
109
0
237
109
0
237
109
0
237
109
0
237
109
0
237
109
0
237
109
0
237
109
0
237
109
0
237
109
0
237
109
0
237
109
0
237
109
0
237
109
0
237
113
0
232
78
0
241
146
0
255
255
0
251
223
0
233
81
0
236
103
0
236
106
0
236
105
0
236
105
0
236
105
0
236
105
0
236
105
0
236
105
0
236
105
0
236
105
0
236
105
0
236
106
0
236
107
0
237
111
0
238
124
0
240
134
0
240
137
0
239
131
0
237
117
0
236
105
0
236
105
0
236
105
0
236
105
0
236
106
0
236
106
0
236
106
0
236
106
0
236
106
0
236
106
0
236
106
0
236
106
0
237
117
0
0
0
0
68
65
0
249
207
0
245
179
0
240
140
0
237
111
0
236
105
0
236
105
0
236
105
0
236
105
0
236
105
0
236
107
0
233
87
0
240
134
0
255
255
0
254
251
0
244
166
0
244
170
0
247
190
0
247
196
0
247
193
0
244
168
0
238
121
0
236
107
0
236
107
0
236
107
0
236
107
0
236
107
0
236
107
0
236
107
0
236
107
0
236
107
0
236
107
0
236
107
0
236
108
0
235
100
0
233
92
0
252
235
0
255
255
0
239
131
0
233
80
0
237
114
0
241
146
0
246
181
0
247
195
0
249
204
0
250
215
0
251
222
0
251
226
0
252
229
0
252
231
0
252
234
0
253
236
0
169
162
0
0
0
0
0
0
0
0
0
0
0
0
0
0
0
0
252
228
0
248
202
0
246
183
0
241
147
0
237
112
0
236
104
0
236
104
0
236
104
0
236
104
0
236
104
0
236
104
0
236
104
0
236
104
0
0
0
0
0
0
0
0
0
0
0
0
0
0
0
0
34
32
0
252
230
0
249
209
0
248
200
0
248
202
0
249
211
0
251
225
0
252
233
0
34
33
0
0
0
0
0
0
0
0
0
0
0
0
0
0
0
0
0
0
0
0
0
0
0
0
0
0
0
0
248
201
0
242
150
0
240
137
0
240
137
0
240
137
0
240
138
0
241
141
0
241
144
0
241
146
0
242
148
0
242
151
0
242
153
0
243
159
0
241
144
0
250
217
0
255
255
0
251
228
0
249
211
0
0
0
0
0
0
0
0
0
0
0
0
0
0
0
0
0
0
0
0
0
0
0
0
0
0
0
0
0
0
0
0
0
0
0
0
0
0
0
0
0
0
0
0
0
0
0
0
0
0
0
0
0
0
0
0
0
0
0
0
0
0
0
0
0
0
0
0
0
0
251
222
0
246
180
0
242
150
0
240
140
0
240
137
0
240
137
0
241
141
0
244
166
0
0
0
0
0
0
0
0
0
0
0
0
0
0
0
0
0
0
0
0
0
0
0
0
0
0
0
0
0
0
0
0
0
0
0
0
0
0
0
0
0
0
0
0
0
0
0
0
0
0
0
0
0
0
0
0
0
0
0
0
0
0
0
0
0
0
0
0
0
0
0
0
0
0
0
0
0
0
0
0
0
0
0
0
0
0
0
0
0
0
0
0
0
0
0
0
0
0
0
0
0
0
0
0
0
0
0
0
0
0
0
0
0
0
0
0
0
0
0
0
0
0
0
0
0
0
0
0
0
0
0
0
0
0
0
0
0
0
0
0
0
0
0
0
0
0
0
0
0
0
0
0
0
0
0
0
0
0
0
0
0
0
0
0
0
0
0
0
0
0
0
0
0
0
0
0
0
0
0
0
0
0
0
0
0
0
0
0
0
0
0
0
0
0
0
0
0
0
0
0
0
0
0
0
0
0
0
0
0
0
0
0
0
0
0
0
0
0
0
0
0
0
0
0
0
0
0
0
0
0
0
0
0
0
0
0
0
0
0
0
0
0
0
0
0
0
0
0
0
0
0
0
0
0
0
0
0
0
0
0
0
0
0
0
0
0
0
0
0
0
0
0
0
0
0
0
0
0
0
0
0
0
0
0
0
0
0
0
0
0
0
0
0
0
0
0
0
0
0
0
0
0
0
0
0
0
0
0
0
0
0
0
0
0
0
0
0
0
0
0
0
0
0
0
0
0
0
0
0
0
0
0
0
0
0
0
0
0
0
0
0
0
0
0
0
0
0
0
0
0
0
0
0
0
0
0
0
0
0
0
0
0
0
0
0
0
0
0
0
0
0
0
0
0
0
0
0
0
0
0
0
0
0
0
0
0
0
0
0
0
0
0
0
0
0
0
0
0
0
0
0
0
0
0
0
0
0
0
0
0
0
0
0
0
0
0
0
0
0
0
0
0
0
0
0
0
0
0
0
0
0
0
0
0
0
0
0
0
0
0
0
0
0
0
0
0
0
0
0
0
0
0
0
0
0
0
0
0
0
0
0
0
0
0
0
0
0
0
0
0
0
0
0
0
0
0
0
0
0
0
0
0
0
0
0
0
0
0
0
0
0
0
0
0
0
0
0
0
0
0
0
0
0
0
0
0
0
0
0
0
0
0
0
0
0
0
0
0
0
0
0
0
0
0
0
0
0
0
0
0
0
0
0
0
0
0
0
0
0
0
0
0
0
0
0
0
0
0
0
0
0
0
0
0
0
0
0
0
0
0
0
0
0
0
0
0
0
0
0
0
0
0
0
0
0
0
0
0
0
0
0
0
0
0
0
0
0
0
0
0
0
0
0
0
0
0
0
0
0
0
0
0
0
0
0
0
0
0
0
0
0
0
0
0
0
0
0
0
0
0
0
0
0
0
0
0
0
0
0
0
0
0
0
0
0
0
0
0
0
0
0
0
0
0
0
0
0
0
0
0
0
0
0
0
0
0
0
0
0
0
0
0
0
0
0
0
0
0
0
0
0
0
0
0
0
0
0
0
0
0
0
0
0
0
0
0
0
0
0
0
0
0
0
0
0
0
0
0
0
0
0
0
0
0
0
0
0
0
0
0
0
0
0
0
0
0
0
0
0
0
0
0
0
0
0
0
0
0
0
0
0
0
0
0
0
0
0
0
0
0
0
0
0
0
0
0
0
0
0
0
0
0
0
0
0
0
0
0
0
0
0
0
0
0
0
0
0
0
0
0
0
0
0
0
0
0
0
0
0
0
0
0
0
0
0
0
0
0
0
0
0
0
0
0
0
0
0
0
0
0
0
0
0
0
0
0
0
0
0
0
0
0
0
0
0
0
0
0
0
0
0
0
0
0
0
0
0
0
0
0
0
0
0
0
0
0
0
0
0
0
0
0
0
0
0
0
0
0
0
0
0
0
0
0
0
0
0
0
0
0
0
0
0
0
0
0
0
0
0
0
0
0
0
0
0
0
0
0
0
0
0
0
0
0
0
0
0
0
0
0
0
0
0
0
0
0
0
0
0
0
0
0
0
0
0
0
0
0
0
0
0
0
0
0
0
0
0
0
0
0
0
0
0
0
0
0
0
0
0
0
0
0
0
0
0
0
0
0
0
0
0
0
0
0
0
0
0
0
0
0
0
0
0
0
0
0
0
0
0
0
0
0
0
0
0
0
0
0
0
0
0
0
0
0
0
0
0
0
0
0
0
0
0
0
0
0
0
0
0
0
0
0
0
0
0
0
0
0
0
0
0
0
0
0
0
0
0
0
0
0
0
0
0
0
0
0
0
0
0
0
0
0
0
0
0
0
0
0
0
0
0
0
0
0
0
0
0
0
0
0
0
0
0
0
0
0
0
0
0
0
0
0
0
0
0
0
0
0
0
0
0
0
0
0
0
0
0
0
0
0
0
0
0
0
0
0
0
0
0
0
0
0
0
0
0
0
0
0
0
0
0
0
0
0
0
0
0
0
0
0
0
0
0
0
0
0
0
0
0
0
0
0
0
0
0
0
0
0
0
0
0
0
0
0
0
0
0
0
0
0
0
0
0
0
0
0
0
0
0
0
0
0
0
0
0
0
0
0
0
0
0
0
0
0
0
0
0
0
0
0
0
0
0
0
0
0
0
0
0
0
0
0
0
0
0
0
0
0
0
0
0
0
0
0
0
0
0
0
0
0
0
0
0
0
0
0
0
0
0
0
0
0
0
0
0
0
0
0
0
0
0
0
0
0
0
0
0
0
0
0
0
0
0
0
0
0
0
0
0
0
0
0
0
0
0
0
0
0
0
0
0
0
0
0
0
0
0
0
0
0
0
0
0
0
0
0
0
0
0
0
0
0
0
0
0
0
0
0
0
0
0
0
0
0
0
0
0
0
0
0
0
0
0
0
0
0
0
0
0
0
0
0
0
0
0
0
0
0
0
0
0
0
0
0
0
0
0
0
0
0
0
0
0
0
0
0
0
0
0
0
0
0
0
0
0
0
0
0
0
0
0
0
0
0
0
0
0
0
0
0
0
0
0
0
0
0
0
0
0
0
0
0
0
0
0
0
0
0
0
0
0
0
0
0
0
0
0
0
0
0
0
0
0
0
0
0
0
0
0
0
0
0
0
0
0
0
0
0
0
0
0
0
0
0
0
0
0
0
0
0
0
0
0
0
0
0
0
0
0
0
0
0
0
0
0
0
0
0
0
0
0
0
0
0
0
0
0
0
0
0
0
0
0
0
0
0
0
0
0
0
0
0
0
0
0
0
0
0
0
0
0
0
0
0
0
0
0
0
0
0
0
0
0
0
0
0
0
0
0
0
0
0
0
0
0
0
0
0
0
0
0
0
0
0
0
0
0
0
0
0
0
0
0
0
0
0
0
0
0
0
0
0
0
0
0
0
0
0
0
0
0
0
0
0
0
0
0
0
0
0
0
0
0
0
0
0
0
0
0
0
0
0
0
0
0
0
0
0
0
0
0
0
0
0
0
0
0
0
0
0
0
0
0
0
0
0
0
0
0
0
0
0
0
0
0
0
0
0
0
0
0
0
0
0
0
0
0
0
0
0
0
0
0
0
0
0
0
0
0
0
0
0
0
0
0
0
0
0
0
0
0
0
0
0
0
0
0
0
0
0
0
0
0
0
0
0
0
0
0
0
0
0
0
0
0
0
0
0
0
0
0
0
0
0
0
0
0
0
0
0
0
0
0
0
0
0
0
0
0
0
0
0
0
0
0
0
0
0
0
0
0
0
0
0
0
0
0
0
0
0
0
0
0
0
0
0
0
0
0
0
0
0
0
0
0
0
0
0
0
0
0
0
0
0
0
0
0
0
0
0
0
0
0
0
0
0
0
0
0
0
0
0
0
0
0
0
0
0
0
0
0
0
0
0
0
0
0
0
0
0
0
0
0
0
0
0
0
0
0
0
0
0
0
0
0
0
0
0
0
0
0
0
0
0
0
0
0
0
0
0
0
0
0
0
0
0
0
0
0
0
0
0
0
0
0
0
0
0
0
0
0
0
0
0
0
0
0
0
0
0
0
0
0
0
0
0
0
0
0
0
0
0
0
0
0
0
0
0
0
0
0
0
0
0
0
0
0
0
0
0
0
0
0
0
0
0
0
0
0
0
0
0
0
0
0
0
0
0
0
0
0
0
0
0
0
0
0
0
0
0
0
0
0
0
0
0
0
0
0
0
0
0
0
0
0
0
0
0
0
0
0
0
0
0
0
0
0
0
0
0
0
0
0
0
0
0
0
0
0
0
0
0
0
0
0
0
0
0
0
0
0
0
0
0
0
0
0
0
0
0
0
0
0
0
0
0
0
0
0
0
0
0
0
0
0
0
0
0
0
0
0
0
0
0
0
0
0
0
0
0
0
0
0
0
0
