P3
72 72
255
0
0
0
0
0
0
0
0
0
0
0
0
0
0
0
0
0
0
164
119
55
164
119
55
164
119
55
162
101
15
162
101
15
162
101
15
162
102
16
162
102
16
162
102
16
162
102
16
162
102
16
162
102
16
162
102
16
162
102
16
162
102
16
162
102
16
162
102
16
162
102
16
162
102
16
162
102
16
162
102
16
162
102
16
162
102
16
162
102
16
162
102
16
162
102
16
162
102
16
162
102
16
162
102
16
162
102
16
162
102
16
162
102
16
162
102
16
162
102
16
162
102
16
162
102
16
162
102
16
162
102
16
162
102
16
162
102
16
162
102
16
162
102
16
162
102
16
162
102
16
162
102
16
162
102
16
162
102
16
162
102
16
162
102
16
162
102
16
162
102
16
162
102
16
162
102
16
162
102
16
162
102
16
162
102
16
162
102
16
162
104
22
162
104
22
162
104
22
84
75
63
84
75
63
84
75
63
0
0
0
0
0
0
0
0
0
0
0
0
0
0
0
0
0
0
166
141
105
166
141
105
166
141
105
161
96
4
161
96
4
161
96
4
161
96
4
161
96
4
161
96
4
161
96
4
161
96
4
161
96
4
161
96
4
161
96
4
161
96
4
161
96
4
161
96
4
161
96
4
161
96
4
161
96
4
161
96
4
161
96
4
161
96
4
161
96
4
161
96
4
161
96
4
161
96
4
161
96
4
161
96
4
161
96
4
161
96
4
161
96
4
161
96
4
161
96
4
161
96
4
161
96
4
161
96
4
161
96
4
161
96
4
161
96
4
161
96
4
161
96
4
161
96
4
161
96
4
161
96
4
161
96
4
161
96
4
161
96
4
161
96
4
161
96
4
161
96
4
161
96
4
161
96
4
161
96
4
161
96
4
161
96
4
161
96
4
161
96
4
161
96
4
161
96
4
161
96
4
161
96
4
161
96
4
162
107
27
162
107
27
162
107
27
0
0
0
0
0
0
0
0
0
0
0
0
0
0
0
0
0
0
161
99
12
161
99
12
161
99
12
161
95
4
161
95
4
161
95
4
161
95
4
161
95
4
161
95
4
161
95
4
161
95
4
161
95
4
161
95
4
161
95
4
161
95
4
161
95
4
161
95
4
161
95
4
161
95
4
161
95
4
161
95
4
161
95
4
161
95
4
161
95
4
161
95
4
161
95
4
161
95
4
161
95
4
161
95
4
161
95
4
161
95
4
161
95
4
161
95
4
161
95
4
161
95
4
161
95
4
161
95
4
161
95
4
161
95
4
161
95
4
161
95
4
161
95
4
161
95
4
161
95
4
161
95
4
161
95
4
161
95
4
161
95
4
161
95
4
161
95
4
161
95
4
161
95
4
161
95
4
161
95
4
161
95
4
161
95
4
161
95
4
161
95
4
161
95
4
161
95
4
161
95
4
161
95
4
161
95
4
161
95
4
161
95
4
161
95
4
84
77
67
84
77
67
84
77
67
11
11
10
11
11
10
11
11
10
161
95
4
161
95
4
161
95
4
161
95
4
161
95
4
161
95
4
161
95
4
161
95
4
161
95
4
161
95
4
161
95
4
161
95
4
161
95
4
161
95
4
161
95
4
161
95
4
161
95
4
161
95
4
161
95
4
161
95
4
161
95
4
161
95
4
161
95
4
161
95
4
161
95
4
161
95
4
161
95
4
161
95
4
161
95
4
161
95
4
161
95
4
161
95
4
161
95
4
161
95
4
161
95
4
161
95
4
161
95
4
161
95
4
161
95
4
161
95
4
161
95
4
161
95
4
161
95
4
161
95
4
161
95
4
161
95
4
161
95
4
161
95
4
161
95
4
161
95
4
161
95
4
161
95
4
161
95
4
161
95
4
161
95
4
161
95
4
161
95
4
161
95
4
161
95
4
161
95
4
161
95
4
161
95
4
161
95
4
161
95
4
161
95
4
161
95
4
165
129
80
165
129
80
165
129
80
82
58
26
82
58
26
82
58
26
161
94
4
161
94
4
161
94
4
161
94
4
161
94
4
161
94
4
161
94
4
161
94
4
161
94
4
161
94
4
161
94
4
161
94
4
161
94
4
161
94
4
161
94
4
161
94
4
161
94
4
161
94
4
161
94
4
161
94
4
161
94
4
161
94
4
161
94
4
161
94
4
161
94
4
161
94
4
161
94
4
161
94
4
161
94
4
161
94
4
161
94
4
161
94
4
161
94
4
161
94
4
161
94
4
161
94
4
161
94
4
161
94
4
161
94
4
161
94
4
161
94
4
161
94
4
161
94
4
161
94
4
161
94
4
161
94
4
161
94
4
161
94
4
161
94
4
161
94
4
161
94
4
161
94
4
161
94
4
161
94
4
161
94
4
161
94
4
161
94
4
161
94
4
161
94
4
161
94
4
161
94
4
161
94
4
161
94
4
161
94
4
161
94
4
161
94
4
162
103
22
162
103
22
162
103
22
164
124
70
164
124
70
164
124
70
161
94
4
161
94
4
161
94
4
161
94
4
161
94
4
161
94
4
161
94
4
161
94
4
161
94
4
161
94
4
161
94
4
161
94
4
161
94
4
161
94
4
161
94
4
161
94
4
161
94
4
161
94
4
161
94
4
161
94
4
161
94
4
161
94
4
161
94
4
161
94
4
161
94
4
161
94
4
161
94
4
161
94
4
161
94
4
161
94
4
161
94
4
161
94
4
161
94
4
161
94
4
161
94
4
161
94
4
161
94
4
161
94
4
161
94
4
161
94
4
161
94
4
161
94
4
161
94
4
161
94
4
161
94
4
161
94
4
161
94
4
161
94
4
161
94
4
161
94
4
161
94
4
161
94
4
161
94
4
161
94
4
161
94
4
161
94
4
161
94
4
161
94
4
161
94
4
161
94
4
161
94
4
161
94
4
161
94
4
161
94
4
161
94
4
161
94
4
161
94
4
161
94
4
161
94
4
163
111
40
163
111
40
163
111
40
161
94
4
161
94
4
161
94
4
161
94
4
161
94
4
161
94
4
161
94
4
161
94
4
161
94
4
161
94
4
161
94
4
161
94
4
161
94
4
161
94
4
161
94
4
161
94
4
161
94
4
161
94
4
161
94
4
161
94
4
161
94
4
161
94
4
161
94
4
161
94
4
161
94
4
161
94
4
161
94
4
161
94
4
161
94
4
161
94
4
161
94
4
161
94
4
161
94
4
161
94
4
161
94
4
161
94
4
161
94
4
161
94
4
161
94
4
161
94
4
161
94
4
161
94
4
161
94
4
161
94
4
161
94
4
161
94
4
161
94
4
161
94
4
161
94
4
161
94
4
161
94
4
161
94
4
161
94
4
161
94
4
161
94
4
161
94
4
161
94
4
161
94
4
161
94
4
161
94
4
161
94
4
161
94
4
161
94
4
161
94
4
161
94
4
161
94
4
161
94
4
161
94
4
161
94
4
162
100
18
162
100
18
162
100
18
161
94
4
161
94
4
161
94
4
161
94
4
161
94
4
161
94
4
161
94
4
161
94
4
161
94
4
161
94
4
161
94
4
161
94
4
161
94
4
161
94
4
161
94
4
161
94
4
161
94
4
161
94
4
161
94
4
161
94
4
161
94
4
161
94
4
161
94
4
161
94
4
161
94
4
161
94
4
161
94
4
161
94
4
161
94
4
161
94
4
161
94
4
161
94
4
161
94
4
161
94
4
161
94
4
161
94
4
161
94
4
161
94
4
161
94
4
161
94
4
161
94
4
161
94
4
161
94
4
161
94
4
161
94
4
161
94
4
161
94
4
161
94
4
161
94
4
161
94
4
161
94
4
161
94
4
161
94
4
161
94
4
161
94
4
161
94
4
161
94
4
161
94
4
161
94
4
161
94
4
161
94
4
161
94
4
161
94
4
161
94
4
161
94
4
161
94
4
161
94
4
161
94
4
161
94
4
161
95
8
161
95
8
161
95
8
160
93
4
160
93
4
160
93
4
160
93
4
160
93
4
160
93
4
160
93
4
160
93
4
160
93
4
160
93
4
160
93
4
160
93
4
160
93
4
160
93
4
160
93
4
160
93
4
160
93
4
160
93
4
160
93
4
160
93
4
160
93
4
160
93
4
160
93
4
160
93
4
160
93
4
160
93
4
160
93
4
160
93
4
160
93
4
160
93
4
160
93
4
160
93
4
160
93
4
160
93
4
160
93
4
160
93
4
160
93
4
160
93
4
160
93
4
160
93
4
160
93
4
160
93
4
160
93
4
160
93
4
160
93
4
160
93
4
160
93
4
160
93
4
160
93
4
160
93
4
160
93
4
160
93
4
160
93
4
160
93
4
160
93
4
160
93
4
160
93
4
160
93
4
160
93
4
160
93
4
160
93
4
160
93
4
160
93
4
160
93
4
160
93
4
160
93
4
160
93
4
160
93
4
160
93
4
161
95
9
161
95
9
161
95
9
160
92
4
160
92
4
160
92
4
160
92
4
160
92
4
160
92
4
160
92
4
160
92
4
160
92
4
160
92
4
160
92
4
160
92
4
160
92
4
160
92
4
160
92
4
160
92
4
160
92
4
160
92
4
160
92
4
160
92
4
160
92
4
160
92
4
160
92
4
160
92
4
160
92
4
160
92
4
160
92
4
160
92
4
160
92
4
160
92
4
160
92
4
160
92
4
160
92
4
160
92
4
160
92
4
160
92
4
160
92
4
160
92
4
160
92
4
160
92
4
160
92
4
160
92
4
160
92
4
160
92
4
160
92
4
160
92
4
160
92
4
160
92
4
160
92
4
160
92
4
160
92
4
160
92
4
160
92
4
160
92
4
160
92
4
160
92
4
160
92
4
160
92
4
160
92
4
160
92
4
160
92
4
160
92
4
160
92
4
160
92
4
160
92
4
160
92
4
160
92
4
160
92
4
160
92
4
161
95
10
161
95
10
161
95
10
160
92
4
160
92
4
160
92
4
160
92
4
160
92
4
160
92
4
160
92
4
160
92
4
160
92
4
160
92
4
160
92
4
160
92
4
160
92
4
160
92
4
160
92
4
160
92
4
160
92
4
160
92
4
160
92
4
160
92
4
160
92
4
160
92
4
160
92
4
160
92
4
160
92
4
160
92
4
160
92
4
160
92
4
160
92
4
160
92
4
160
92
4
160
92
4
160
92
4
160
92
4
160
92
4
160
92
4
160
92
4
160
92
4
160
92
4
160
92
4
160
92
4
160
92
4
160
92
4
160
92
4
160
92
4
160
92
4
160
92
4
160
92
4
160
92
4
160
92
4
160
92
4
160
92
4
160
92
4
160
92
4
160
92
4
160
92
4
160
92
4
160
92
4
160
92
4
160
92
4
160
92
4
160
92
4
160
92
4
160
92
4
160
92
4
160
92
4
160
92
4
160
92
4
160
92
4
161
94
10
161
94
10
161
94
10
160
91
4
160
91
4
160
91
4
160
91
4
160
91
4
160
91
4
160
91
4
160
91
4
160
91
4
160
91
4
160
91
4
160
91
4
160
91
4
160
91
4
160
91
4
160
91
4
160
91
4
160
91
4
160
91
4
160
91
4
160
91
4
160
91
4
160
91
4
160
91
4
160
91
4
160
91
4
160
91
4
160
91
4
160
91
4
160
91
4
160
91
4
160
91
4
160
91
4
160
91
4
160
91
4
160
91
4
160
91
4
160
91
4
160
91
4
160
91
4
160
91
4
160
91
4
160
91
4
160
91
4
160
91
4
160
91
4
160
91
4
160
91
4
160
91
4
160
91
4
160
91
4
160
91
4
160
91
4
160
91
4
160
91
4
160
91
4
160
91
4
160
91
4
160
91
4
160
91
4
160
91
4
160
91
4
160
91
4
160
91
4
160
91
4
160
91
4
160
91
4
160
91
4
160
91
4
161
94
10
161
94
10
161
94
10
160
91
4
160
91
4
160
91
4
160
91
4
160
91
4
160
91
4
160
91
4
160
91
4
160
91
4
160
91
4
160
91
4
160
91
4
160
91
4
160
91
4
160
91
4
160
91
4
160
91
4
160
91
4
160
91
4
160
91
4
160
91
4
160
91
4
160
91
4
160
91
4
160
91
4
160
91
4
160
91
4
160
91
4
160
91
4
160
91
4
160
91
4
160
91
4
160
91
4
160
91
4
160
91
4
160
91
4
160
91
4
160
91
4
160
91
4
160
91
4
160
91
4
160
91
4
160
91
4
160
91
4
160
91
4
160
91
4
160
91
4
160
91
4
160
91
4
160
91
4
160
91
4
160
91
4
160
91
4
160
91
4
160
91
4
160
91
4
160
91
4
160
91
4
160
91
4
160
91
4
160
91
4
160
91
4
160
91
4
160
91
4
160
91
4
160
91
4
160
91
4
160
91
4
160
91
4
161
94
10
161
94
10
161
94
10
160
91
4
160
91
4
160
91
4
160
91
4
160
91
4
160
91
4
160
91
4
160
91
4
160
91
4
160
91
4
160
91
4
160
91
4
160
91
4
160
91
4
160
91
4
160
91
4
160
91
4
160
91
4
160
91
4
160
91
4
160
91
4
160
91
4
160
91
4
160
91
4
160
91
4
160
91
4
160
91
4
160
91
4
160
91
4
160
91
4
160
91
4
160
91
4
160
91
4
160
91
4
160
91
4
160
91
4
160
91
4
160
91
4
160
91
4
160
91
4
160
91
4
160
91
4
160
91
4
160
91
4
160
91
4
160
91
4
160
91
4
160
91
4
160
91
4
160
91
4
160
91
4
160
91
4
160
91
4
160
91
4
160
91
4
160
91
4
160
91
4
160
91
4
160
91
4
160
91
4
160
91
4
160
91
4
160
91
4
160
91
4
160
91
4
160
91
4
160
91
4
160
91
4
160
91
4
161
94
10
161
94
10
161
94
10
160
91
4
160
91
4
160
91
4
160
91
4
160
91
4
160
91
4
160
91
4
160
91
4
160
91
4
160
91
4
160
91
4
160
91
4
160
91
4
160
91
4
160
91
4
160
91
4
160
91
4
160
91
4
160
91
4
160
91
4
160
91
4
160
91
4
160
91
4
160
91
4
160
91
4
160
91
4
160
91
4
160
91
4
160
91
4
160
91
4
160
91
4
160
91
4
160
91
4
160
91
4
160
91
4
160
91
4
160
91
4
160
91
4
160
91
4
160
91
4
160
91
4
160
91
4
160
91
4
160
91
4
160
91
4
160
91
4
160
91
4
160
91
4
160
91
4
160
91
4
160
91
4
160
91
4
160
91
4
160
91
4
160
91
4
160
91
4
160
91
4
160
91
4
160
91
4
160
91
4
160
91
4
160
91
4
160
91
4
160
91
4
160
91
4
160
91
4
160
91
4
160
91
4
160
91
4
161
93
10
161
93
10
161
93
10
160
90
4
160
90
4
160
90
4
160
90
4
160
90
4
160
90
4
160
91
4
160
91
4
160
91
4
160
90
4
160
90
4
160
90
4
160
90
4
160
90
4
160
90
4
160
90
4
160
90
4
160
90
4
160
91
4
160
91
4
160
91
4
160
91
4
160
91
4
160
91
4
160
90
4
160
90
4
160
90
4
160
90
4
160
90
4
160
90
4
160
90
4
160
90
4
160
90
4
160
90
4
160
90
4
160
90
4
160
90
4
160
90
4
160
90
4
160
90
4
160
90
4
160
90
4
160
90
4
160
90
4
160
90
4
160
90
4
160
90
4
160
90
4
160
90
4
160
90
4
160
90
4
160
90
4
160
90
4
160
90
4
160
90
4
160
90
4
160
90
4
160
90
4
160
90
4
160
90
4
160
90
4
160
90
4
160
90
4
160
90
4
160
90
4
160
90
4
160
90
4
160
90
4
160
90
4
161
92
10
161
92
10
161
92
10
160
89
4
160
89
4
160
89
4
160
90
2
160
90
2
160
90
2
159
78
0
159
78
0
159
78
0
160
89
4
160
89
4
160
89
4
160
89
4
160
89
4
160
89
4
160
89
4
160
89
4
160
89
4
160
84
0
160
84
0
160
84
0
159
80
0
159
80
0
159
80
0
160
89
4
160
89
4
160
89
4
160
89
4
160
89
4
160
89
4
160
89
4
160
89
4
160
89
4
160
89
4
160
89
4
160
89
4
160
89
4
160
89
4
160
89
4
160
89
4
160
89
4
160
89
4
160
89
4
160
89
4
160
89
4
160
89
4
160
89
4
160
89
4
160
89
4
160
89
4
160
89
4
160
89
4
160
89
4
160
89
4
160
89
4
160
89
4
160
89
4
160
89
4
160
89
4
160
89
4
160
89
4
160
89
4
160
89
4
160
89
4
160
89
4
160
89
4
160
89
4
160
89
4
160
89
4
161
92
10
161
92
10
161
92
10
160
89
4
160
89
4
160
89
4
159
81
0
159
81
0
159
81
0
161
99
36
161
99
36
161
99
36
160
89
3
160
89
3
160
89
3
160
89
4
160
89
4
160
89
4
160
90
4
160
90
4
160
90
4
160
86
15
160
86
15
160
86
15
162
101
38
162
101
38
162
101
38
160
90
4
160
90
4
160
90
4
160
89
4
160
89
4
160
89
4
160
89
4
160
89
4
160
89
4
160
89
4
160
89
4
160
89
4
160
89
4
160
89
4
160
89
4
160
89
4
160
89
4
160
89
4
160
89
4
160
89
4
160
89
4
160
89
4
160
89
4
160
89
4
160
89
4
160
89
4
160
89
4
160
89
4
160
89
4
160
89
4
160
89
4
160
89
4
160
89
4
160
89
4
160
89
4
160
89
4
160
89
4
160
89
4
160
89
4
160
89
4
160
89
4
160
89
4
160
89
4
160
89
4
160
89
4
160
91
10
160
91
10
160
91
10
160
89
4
160
89
4
160
89
4
162
106
54
162
106
54
162
106
54
170
169
169
170
169
169
170
169
169
159
80
1
159
80
1
159
80
1
160
88
4
160
88
4
160
88
4
159
87
3
159
87
3
159
87
3
168
153
140
168
153
140
168
153
140
169
162
157
169
162
157
169
162
157
159
82
2
159
82
2
159
82
2
160
88
4
160
88
4
160
88
4
160
88
4
160
88
4
160
88
4
160
88
4
160
88
4
160
88
4
160
88
4
160
88
4
160
88
4
160
88
4
160
88
4
160
88
4
160
88
4
160
88
4
160
88
4
160
88
4
160
88
4
160
88
4
160
88
4
160
88
4
160
88
4
160
88
4
160
88
4
160
88
4
160
88
4
160
88
4
160
88
4
160
88
4
160
88
4
160
88
4
160
88
4
160
88
4
160
88
4
160
88
4
160
88
4
160
88
4
160
88
4
160
88
4
160
88
4
160
91
10
160
91
10
160
91
10
160
90
3
160
90
3
160
90
3
167
146
124
167
146
124
167
146
124
170
170
170
170
170
170
170
170
170
160
87
24
160
87
24
160
87
24
160
88
4
160
88
4
160
88
4
158
80
2
158
80
2
158
80
2
170
170
170
170
170
170
170
170
170
170
170
170
170
170
170
170
170
170
158
81
9
158
81
9
158
81
9
160
88
4
160
88
4
160
88
4
160
88
4
160
88
4
160
88
4
160
88
4
160
88
4
160
88
4
160
88
4
160
88
4
160
88
4
160
88
4
160
88
4
160
88
4
160
88
4
160
88
4
160
88
4
160
88
4
160
88
4
160
88
4
160
88
4
160
88
4
160
88
4
160
88
4
160
88
4
160
88
4
160
88
4
160
88
4
160
88
4
160
88
4
160
88
4
160
88
4
160
88
4
160
88
4
160
88
4
160
88
4
160
88
4
160
88
4
160
88
4
160
88
4
160
88
4
160
91
10
160
91
10
160
91
10
159
85
2
159
85
2
159
85
2
169
168
167
169
168
167
169
168
167
170
170
170
170
170
170
170
170
170
164
122
85
164
122
85
164
122
85
160
89
4
160
89
4
160
89
4
159
81
0
159
81
0
159
81
0
170
170
170
170
170
170
170
170
170
170
170
170
170
170
170
170
170
170
163
113
69
163
113
69
163
113
69
160
88
4
160
88
4
160
88
4
160
88
4
160
88
4
160
88
4
160
88
4
160
88
4
160
88
4
160
88
4
160
88
4
160
88
4
160
88
4
160
88
4
160
88
4
160
89
4
160
89
4
160
89
4
160
88
2
160
88
2
160
88
2
160
88
4
160
88
4
160
88
4
160
88
4
160
88
4
160
88
4
160
88
4
160
88
4
160
88
4
160
88
4
160
88
4
160
88
4
160
88
4
160
88
4
160
88
4
160
88
4
160
88
4
160
88
4
160
88
4
160
88
4
160
88
4
160
91
10
160
91
10
160
91
10
159
79
1
159
79
1
159
79
1
170
170
170
170
170
170
170
170
170
170
170
170
170
170
170
170
170
170
168
154
140
168
154
140
168
154
140
160
88
3
160
88
3
160
88
3
160
91
29
160
91
29
160
91
29
170
170
170
170
170
170
170
170
170
170
170
170
170
170
170
170
170
170
166
140
113
166
140
113
166
140
113
160
89
4
160
89
4
160
89
4
160
88
4
160
88
4
160
88
4
160
88
4
160
88
4
160
88
4
160
88
4
160
88
4
160
88
4
160
88
4
160
88
4
160
88
4
159
81
0
159
81
0
159
81
0
158
73
0
158
73
0
158
73
0
159
86
1
159
86
1
159
86
1
160
86
0
160
86
0
160
86
0
160
88
4
160
88
4
160
88
4
160
88
4
160
88
4
160
88
4
160
88
4
160
88
4
160
88
4
160
88
4
160
88
4
160
88
4
160
88
4
160
88
4
160
88
4
160
90
10
160
90
10
160
90
10
159
81
0
159
81
0
159
81
0
170
170
170
170
170
170
170
170
170
170
170
170
170
170
170
170
170
170
170
170
170
170
170
170
170
170
170
159
81
2
159
81
2
159
81
2
163
113
69
163
113
69
163
113
69
170
170
170
170
170
170
170
170
170
170
170
170
170
170
170
170
170
170
169
161
154
169
161
154
169
161
154
160
86
2
160
86
2
160
86
2
160
87
4
160
87
4
160
87
4
160
87
4
160
87
4
160
87
4
160
87
4
160
87
4
160
87
4
160
88
4
160
88
4
160
88
4
160
89
24
160
89
24
160
89
24
165
135
105
165
135
105
165
135
105
158
74
3
158
74
3
158
74
3
158
76
0
158
76
0
158
76
0
159
80
0
159
80
0
159
80
0
160
87
4
160
87
4
160
87
4
160
87
4
160
87
4
160
87
4
160
87
4
160
87
4
160
87
4
160
87
4
160
87
4
160
87
4
160
90
10
160
90
10
160
90
10
160
85
22
160
85
22
160
85
22
170
170
170
170
170
170
170
170
170
170
170
170
170
170
170
170
170
170
170
170
170
170
170
170
170
170
170
158
77
1
158
77
1
158
77
1
165
134
102
165
134
102
165
134
102
170
170
170
170
170
170
170
170
170
170
170
170
170
170
170
170
170
170
170
170
170
170
170
170
170
170
170
159
80
2
159
80
2
159
80
2
160
87
4
160
87
4
160
87
4
160
87
4
160
87
4
160
87
4
160
87
4
160
87
4
160
87
4
159
86
3
159
86
3
159
86
3
168
153
140
168
153
140
168
153
140
170
170
170
170
170
170
170
170
170
166
143
126
166
143
126
166
143
126
167
145
125
167
145
125
167
145
125
160
86
16
160
86
16
160
86
16
160
88
2
160
88
2
160
88
2
160
87
4
160
87
4
160
87
4
160
87
4
160
87
4
160
87
4
160
87
4
160
87
4
160
87
4
160
89
10
160
89
10
160
89
10
163
110
68
163
110
68
163
110
68
170
170
170
170
170
170
170
170
170
170
170
170
170
170
170
170
170
170
170
170
170
170
170
170
170
170
170
159
82
28
159
82
28
159
82
28
168
154
141
168
154
141
168
154
141
170
170
170
170
170
170
170
170
170
170
170
170
170
170
170
170
170
170
170
170
170
170
170
170
170
170
170
159
78
0
159
78
0
159
78
0
160
86
4
160
86
4
160
86
4
160
86
4
160
86
4
160
86
4
160
86
4
160
86
4
160
86
4
159
79
2
159
79
2
159
79
2
170
170
170
170
170
170
170
170
170
170
170
170
170
170
170
170
170
170
170
170
170
170
170
170
170
170
170
170
170
170
170
170
170
170
170
170
169
161
156
169
161
156
169
161
156
159
79
1
159
79
1
159
79
1
160
86
4
160
86
4
160
86
4
160
86
4
160
86
4
160
86
4
160
86
4
160
86
4
160
86
4
160
89
9
160
89
9
160
89
9
167
150
133
167
150
133
167
150
133
170
170
170
170
170
170
170
170
170
170
170
170
170
170
170
170
170
170
170
170
170
170
170
170
170
170
170
166
135
112
166
135
112
166
135
112
170
170
170
170
170
170
170
170
170
170
170
170
170
170
170
170
170
170
170
170
170
170
170
170
170
170
170
170
170
170
170
170
170
170
170
170
159
83
13
159
83
13
159
83
13
160
86
4
160
86
4
160
86
4
160
86
4
160
86
4
160
86
4
160
86
4
160
86
4
160
86
4
160
81
3
160
81
3
160
81
3
170
170
170
170
170
170
170
170
170
170
170
170
170
170
170
170
170
170
170
170
170
170
170
170
170
170
170
170
170
170
170
170
170
170
170
170
170
170
170
170
170
170
170
170
170
160
90
33
160
90
33
160
90
33
160
86
4
160
86
4
160
86
4
160
86
4
160
86
4
160
86
4
160
86
4
160
86
4
160
86
4
158
78
7
158
78
7
158
78
7
170
170
170
170
170
170
170
170
170
170
170
170
170
170
170
170
170
170
170
170
170
170
170
170
170
170
170
170
170
170
170
170
170
170
170
170
170
170
170
170
170
170
170
170
170
170
170
170
170
170
170
170
170
170
170
170
170
170
170
170
170
170
170
170
170
170
170
170
170
170
170
170
170
170
170
170
170
170
170
170
170
161
96
46
161
96
46
161
96
46
160
85
4
160
85
4
160
85
4
160
85
4
160
85
4
160
85
4
160
85
4
160
85
4
160
85
4
159
82
4
159
82
4
159
82
4
170
170
170
170
170
170
170
170
170
170
170
170
170
170
170
170
170
170
170
170
170
170
170
170
170
170
170
170
170
170
170
170
170
170
170
170
170
170
170
170
170
170
170
170
170
164
120
81
164
120
81
164
120
81
160
85
4
160
85
4
160
85
4
160
85
4
160
85
4
160
85
4
160
85
4
160
85
4
160
85
4
159
80
24
159
80
24
159
80
24
170
170
170
170
170
170
170
170
170
170
170
170
170
170
170
170
170
170
170
170
170
170
170
170
170
170
170
170
170
170
170
170
170
170
170
170
170
170
170
170
170
170
170
170
170
170
170
170
170
170
170
170
170
170
170
170
170
170
170
170
170
170
170
170
170
170
170
170
170
170
170
170
170
170
170
170
170
170
170
170
170
163
116
76
163
116
76
163
116
76
160
86
4
160
86
4
160
86
4
160
85
4
160
85
4
160
85
4
160
85
4
160
85
4
160
85
4
160
84
18
160
84
18
160
84
18
170
170
170
170
170
170
170
170
170
170
170
170
170
170
170
170
170
170
170
170
170
170
170
170
170
170
170
170
170
170
170
170
170
170
170
170
170
170
170
170
170
170
170
170
170
165
132
99
165
132
99
165
132
99
160
85
4
160
85
4
160
85
4
160
85
4
160
85
4
160
85
4
160
85
4
160
85
4
160
85
4
166
139
116
166
139
116
166
139
116
170
170
170
170
170
170
170
170
170
170
170
170
170
170
170
170
170
170
170
170
170
170
170
170
170
170
170
170
170
170
170
170
170
170
170
170
170
170
170
170
170
170
170
170
170
170
170
170
170
170
170
170
170
170
170
170
170
170
170
170
170
170
170
170
170
170
170
170
170
170
170
170
170
170
170
170
170
170
170
170
170
167
146
128
167
146
128
167
146
128
159
85
3
159
85
3
159
85
3
159
84
4
159
84
4
159
84
4
159
84
4
159
84
4
159
84
4
160
91
33
160
91
33
160
91
33
170
170
170
170
170
170
170
170
170
170
170
170
170
170
170
170
170
170
170
170
170
170
170
170
170
170
170
170
170
170
170
170
170
170
170
170
168
157
151
168
157
151
168
157
151
163
120
77
163
120
77
163
120
77
159
84
4
159
84
4
159
84
4
159
84
4
159
84
4
159
84
4
159
84
4
159
84
4
159
84
4
170
170
170
170
170
170
170
170
170
170
170
170
170
170
170
170
170
170
170
170
170
170
170
170
170
170
170
170
170
170
170
170
170
170
170
170
170
170
170
170
170
170
170
170
170
170
170
170
170
170
170
170
170
170
170
170
170
170
170
170
170
170
170
170
170
170
170
170
170
170
170
170
170
170
170
170
170
170
170
170
170
170
170
170
170
170
170
170
170
170
170
170
170
170
170
170
170
170
170
157
72
0
157
72
0
157
72
0
159
84
4
159
84
4
159
84
4
159
84
4
159
84
4
159
84
4
160
96
45
160
96
45
160
96
45
170
170
170
170
170
170
170
170
170
170
170
170
170
170
170
170
170
170
170
170
170
170
170
170
170
170
170
167
147
133
167
147
133
167
147
133
158
79
9
158
79
9
158
79
9
160
90
20
160
90
20
160
90
20
159
84
4
159
84
4
159
84
4
159
84
4
159
84
4
159
84
4
159
84
4
159
84
4
159
84
4
170
170
170
170
170
170
170
170
170
170
170
170
170
170
170
170
170
170
170
170
170
170
170
170
170
170
170
170
170
170
170
170
170
170
170
170
170
170
170
170
170
170
170
170
170
170
170
170
170
170
170
170
170
170
170
170
170
170
170
170
170
170
170
170
170
170
170
170
170
170
170
170
170
170
170
170
170
170
170
170
170
170
170
170
170
170
170
170
170
170
170
170
170
170
170
170
170
170
170
158
80
24
158
80
24
158
80
24
159
83
1
159
83
1
159
83
1
159
85
4
159
85
4
159
85
4
163
117
76
163
117
76
163
117
76
170
170
170
170
170
170
170
170
170
170
170
170
170
170
170
170
170
170
169
163
159
169
163
159
169
163
159
157
72
1
157
72
1
157
72
1
158
79
0
158
79
0
158
79
0
158
78
2
158
78
2
158
78
2
159
84
4
159
84
4
159
84
4
159
84
4
159
84
4
159
84
4
159
84
4
159
84
4
159
84
4
170
170
170
170
170
170
170
170
170
170
170
170
170
170
170
170
170
170
170
170
170
170
170
170
170
170
170
170
170
170
170
170
170
170
170
170
170
170
170
170
170
170
170
170
170
170
170
170
170
170
170
170
170
170
170
170
170
170
170
170
170
170
170
170
170
170
170
170
170
170
170
170
170
170
170
170
170
170
170
170
170
170
170
170
170
170
170
170
170
170
170
170
170
170
170
170
170
170
170
168
153
143
168
153
143
168
153
143
157
69
0
157
69
0
157
69
0
157
71
0
157
71
0
157
71
0
166
140
118
166
140
118
166
140
118
170
170
170
170
170
170
170
170
170
170
170
170
170
170
170
170
170
170
165
128
95
165
128
95
165
128
95
159
82
0
159
82
0
159
82
0
159
83
4
159
83
4
159
83
4
159
83
4
159
83
4
159
83
4
159
83
4
159
83
4
159
83
4
159
83
4
159
83
4
159
83
4
159
83
4
159
83
4
159
83
4
170
170
170
170
170
170
170
170
170
170
170
170
170
170
170
170
170
170
170
170
170
170
170
170
170
170
170
170
170
170
170
170
170
170
170
170
170
170
170
170
170
170
170
170
170
170
170
170
170
170
170
170
170
170
170
170
170
170
170
170
170
170
170
170
170
170
170
170
170
170
170
170
170
170
170
170
170
170
170
170
170
170
170
170
170
170
170
170
170
170
170
170
170
170
170
170
170
170
170
170
170
170
170
170
170
170
170
170
166
139
119
166
139
119
166
139
119
160
92
36
160
92
36
160
92
36
170
169
167
170
169
167
170
169
167
170
170
170
170
170
170
170
170
170
170
170
170
170
170
170
170
170
170
162
107
67
162
107
67
162
107
67
159
82
4
159
82
4
159
82
4
159
82
4
159
82
4
159
82
4
159
82
4
159
82
4
159
82
4
159
82
4
159
82
4
159
82
4
159
82
4
159
82
4
159
82
4
159
82
4
159
82
4
159
82
4
170
170
170
170
170
170
170
170
170
170
170
170
170
170
170
170
170
170
170
170
170
170
170
170
170
170
170
170
170
170
170
170
170
170
170
170
170
170
170
170
170
170
170
170
170
170
170
170
170
170
170
170
170
170
170
170
170
170
170
170
170
170
170
170
170
170
170
170
170
170
170
170
170
170
170
170
170
170
170
170
170
170
170
170
170
170
170
170
170
170
170
170
170
170
170
170
170
170
170
170
170
170
170
170
170
170
170
170
170
170
170
170
170
170
170
170
170
170
170
170
170
170
170
170
170
170
170
170
170
170
170
170
170
170
170
170
170
170
170
170
170
170
170
170
170
170
170
170
170
170
170
170
170
161
97
49
161
97
49
161
97
49
159
82
4
159
82
4
159
82
4
159
82
4
159
82
4
159
82
4
159
82
4
159
82
4
159
82
4
159
82
4
159
82
4
159
82
4
159
82
4
159
82
4
159
82
4
159
82
4
159
82
4
159
82
4
170
170
170
170
170
170
170
170
170
170
170
170
170
170
170
170
170
170
170
170
170
170
170
170
170
170
170
170
170
170
170
170
170
170
170
170
170
170
170
170
170
170
170
170
170
170
170
170
170
170
170
170
170
170
170
170
170
170
170
170
170
170
170
170
170
170
170
170
170
170
170
170
170
170
170
170
170
170
170
170
170
170
170
170
170
170
170
170
170
170
170
170
170
170
170
170
170
170
170
170
170
170
170
170
170
170
170
170
170
170
170
170
170
170
170
170
170
170
170
170
170
170
170
170
170
170
170
170
170
170
170
170
170
170
170
170
170
170
170
170
170
170
170
170
170
170
170
170
170
170
170
170
170
159
82
18
159
82
18
159
82
18
159
82
4
159
82
4
159
82
4
159
82
4
159
82
4
159
82
4
159
82
4
159
82
4
159
82
4
159
82
4
159
82
4
159
82
4
159
82
4
159
82
4
159
82
4
159
82
4
159
82
4
159
82
4
170
170
170
170
170
170
170
170
170
170
170
170
170
170
170
170
170
170
170
170
170
170
170
170
170
170
170
170
170
170
170
170
170
170
170
170
170
170
170
170
170
170
170
170
170
170
170
170
170
170
170
170
170
170
170
170
170
170
170
170
170
170
170
170
170
170
170
170
170
170
170
170
170
170
170
170
170
170
170
170
170
170
170
170
170
170
170
170
170
170
170
170
170
170
170
170
170
170
170
170
170
170
170
170
170
170
170
170
170
170
170
170
170
170
170
170
170
170
170
170
170
170
170
170
170
170
170
170
170
170
170
170
170
170
170
170
170
170
170
170
170
170
170
170
170
170
170
170
170
170
170
170
170
158
73
1
158
73
1
158
73
1
159
82
4
159
82
4
159
82
4
159
82
4
159
82
4
159
82
4
159
82
4
159
82
4
159
82
4
159
82
4
159
82
4
159
82
4
159
82
4
159
82
4
159
82
4
159
82
4
159
82
4
159
82
4
170
170
170
170
170
170
170
170
170
170
170
170
170
170
170
170
170
170
170
170
170
170
170
170
170
170
170
170
170
170
170
170
170
170
170
170
170
170
170
170
170
170
170
170
170
170
170
170
170
170
170
170
170
170
170
170
170
170
170
170
170
170
170
170
170
170
170
170
170
170
170
170
170
170
170
170
170
170
170
170
170
170
170
170
170
170
170
170
170
170
170
170
170
170
170
170
170
170
170
170
170
170
170
170
170
170
170
170
170
170
170
170
170
170
170
170
170
170
170
170
170
170
170
170
170
170
170
170
170
170
170
170
170
170
170
170
170
170
170
170
170
170
170
170
170
170
170
170
170
170
170
170
170
158
76
2
158
76
2
158
76
2
159
81
4
159
81
4
159
81
4
159
81
4
159
81
4
159
81
4
159
81
4
159
81
4
159
81
4
159
81
4
159
81
4
159
81
4
159
81
4
159
81
4
159
81
4
159
81
4
159
81
4
159
81
4
170
170
170
170
170
170
170
170
170
170
170
170
170
170
170
170
170
170
170
170
170
170
170
170
170
170
170
170
170
170
170
170
170
170
170
170
170
170
170
170
170
170
170
170
170
170
170
170
170
170
170
170
170
170
170
170
170
170
170
170
170
170
170
170
170
170
170
170
170
170
170
170
170
170
170
170
170
170
170
170
170
170
170
170
170
170
170
170
170
170
170
170
170
170
170
170
170
170
170
170
170
170
170
170
170
170
170
170
170
170
170
170
170
170
170
170
170
170
170
170
170
170
170
170
170
170
170
170
170
170
170
170
170
170
170
170
170
170
170
170
170
170
170
170
166
138
119
166
138
119
166
138
119
159
82
3
159
82
3
159
82
3
159
81
4
159
81
4
159
81
4
159
81
4
159
81
4
159
81
4
159
81
4
159
81
4
159
81
4
159
81
4
159
81
4
159
81
4
159
81
4
159
81
4
159
81
4
159
81
4
159
81
4
159
81
4
170
170
170
170
170
170
170
170
170
170
170
170
170
170
170
170
170
170
170
170
170
170
170
170
170
170
170
170
170
170
170
170
170
170
170
170
170
170
170
170
170
170
170
170
170
170
170
170
170
170
170
170
170
170
170
170
170
170
170
170
170
170
170
170
170
170
170
170
170
170
170
170
170
170
170
170
170
170
170
170
170
170
170
170
170
170
170
170
170
170
170
170
170
170
170
170
170
170
170
170
170
170
170
170
170
170
170
170
170
170
170
170
170
170
170
170
170
170
170
170
170
170
170
170
170
170
170
170
170
170
170
170
170
170
170
170
170
170
170
170
170
170
170
170
159
86
41
159
86
41
159
86
41
159
80
4
159
80
4
159
80
4
159
80
4
159
80
4
159
80
4
159
80
4
159
80
4
159
80
4
159
80
4
159
80
4
159
80
4
159
80
4
159
80
4
159
80
4
159
80
4
159
80
4
159
80
4
159
80
4
159
80
4
159
80
4
170
170
170
170
170
170
170
170
170
170
170
170
170
170
170
170
170
170
170
170
170
170
170
170
170
170
170
170
170
170
170
170
170
170
170
170
170
170
170
170
170
170
170
170
170
170
170
170
170
170
170
170
170
170
170
170
170
170
170
170
170
170
170
170
170
170
170
170
170
170
170
170
170
170
170
170
170
170
170
170
170
170
170
170
170
170
170
170
170
170
170
170
170
170
170
170
170
170
170
170
170
170
170
170
170
170
170
170
170
170
170
170
170
170
170
170
170
170
170
170
170
170
170
170
170
170
170
170
170
170
170
170
170
170
170
169
168
166
169
168
166
169
168
166
156
68
0
156
68
0
156
68
0
158
80
4
158
80
4
158
80
4
158
80
4
158
80
4
158
80
4
158
80
4
158
80
4
158
80
4
158
80
4
158
80
4
158
80
4
158
80
4
158
80
4
158
80
4
158
80
4
158
80
4
158
80
4
158
80
4
158
80
4
158
80
4
170
170
170
170
170
170
170
170
170
168
156
141
168
156
141
168
156
141
166
142
116
166
142
116
166
142
116
170
170
170
170
170
170
170
170
170
170
170
170
170
170
170
170
170
170
170
170
170
170
170
170
170
170
170
170
170
170
170
170
170
170
170
170
170
170
170
170
170
170
170
170
170
170
170
170
170
170
170
170
170
170
170
170
170
170
170
170
170
170
170
170
170
170
170
170
170
170
170
170
170
170
170
170
170
170
170
170
170
170
170
170
170
170
170
170
170
170
170
170
170
170
170
170
170
170
170
170
170
170
170
170
170
170
170
170
162
106
68
162
106
68
162
106
68
158
80
3
158
80
3
158
80
3
158
79
4
158
79
4
158
79
4
158
79
4
158
79
4
158
79
4
158
79
4
158
79
4
158
79
4
158
79
4
158
79
4
158
79
4
158
79
4
158
79
4
158
79
4
158
79
4
158
79
4
158
79
4
158
79
4
158
79
4
158
79
4
170
170
170
170
170
170
170
170
170
165
125
79
165
125
79
165
125
79
160
89
18
160
89
18
160
89
18
170
170
170
170
170
170
170
170
170
170
170
170
170
170
170
170
170
170
170
170
170
170
170
170
170
170
170
170
170
170
170
170
170
170
170
170
170
170
170
170
170
170
170
170
170
170
170
170
170
170
170
170
170
170
170
170
170
170
170
170
170
170
170
170
170
170
170
170
170
170
170
170
169
164
161
169
164
161
169
164
161
166
144
127
166
144
127
166
144
127
168
155
145
168
155
145
168
155
145
164
121
87
164
121
87
164
121
87
156
64
0
156
64
0
156
64
0
158
79
4
158
79
4
158
79
4
158
79
4
158
79
4
158
79
4
158
79
4
158
79
4
158
79
4
158
79
4
158
79
4
158
79
4
158
79
4
158
79
4
158
79
4
158
79
4
158
79
4
158
79
4
158
79
4
158
79
4
158
79
4
158
79
4
158
79
4
158
79
4
170
170
170
170
170
170
170
170
170
163
113
61
163
113
61
163
113
61
160
89
1
160
89
1
160
89
1
164
123
78
164
123
78
164
123
78
170
170
170
170
170
170
170
170
170
170
170
170
170
170
170
170
170
170
170
170
170
170
170
170
170
170
170
170
170
170
170
170
170
170
170
170
170
170
170
170
170
170
170
170
170
170
170
170
170
170
170
170
170
170
170
170
170
170
170
170
170
170
170
167
149
135
167
149
135
167
149
135
157
67
0
157
67
0
157
67
0
158
75
1
158
75
1
158
75
1
156
61
0
156
61
0
156
61
0
158
80
2
158
80
2
158
80
2
158
79
4
158
79
4
158
79
4
158
79
4
158
79
4
158
79
4
158
79
4
158
79
4
158
79
4
158
79
4
158
79
4
158
79
4
158
79
4
158
79
4
158
79
4
158
79
4
158
79
4
158
79
4
158
79
4
158
79
4
158
79
4
158
79
4
158
79
4
158
79
4
170
170
170
170
170
170
170
170
170
161
94
23
161
94
23
161
94
23
160
93
4
160
93
4
160
93
4
159
78
0
159
78
0
159
78
0
163
114
61
163
114
61
163
114
61
168
160
151
168
160
151
168
160
151
169
168
165
169
168
165
169
168
165
170
170
170
170
170
170
170
170
170
167
142
114
167
142
114
167
142
114
168
151
134
168
151
134
168
151
134
170
170
170
170
170
170
170
170
170
168
153
143
168
153
143
168
153
143
158
76
0
158
76
0
158
76
0
158
74
0
158
74
0
158
74
0
158
79
4
158
79
4
158
79
4
158
78
4
158
78
4
158
78
4
158
78
4
158
78
4
158
78
4
158
78
4
158
78
4
158
78
4
158
78
4
158
78
4
158
78
4
158
78
4
158
78
4
158
78
4
158
78
4
158
78
4
158
78
4
158
78
4
158
78
4
158
78
4
158
78
4
158
78
4
158
78
4
158
78
4
158
78
4
158
78
4
170
170
170
170
170
170
170
170
170
159
82
1
159
82
1
159
82
1
160
91
4
160
91
4
160
91
4
160
92
3
160
92
3
160
92
3
159
78
0
159
78
0
159
78
0
160
89
5
160
89
5
160
89
5
162
105
49
162
105
49
162
105
49
170
170
170
170
170
170
170
170
170
160
85
13
160
85
13
160
85
13
161
94
32
161
94
32
161
94
32
170
170
170
170
170
170
170
170
170
168
153
142
168
153
142
168
153
142
158
77
3
158
77
3
158
77
3
158
78
4
158
78
4
158
78
4
158
78
4
158
78
4
158
78
4
158
78
4
158
78
4
158
78
4
158
78
4
158
78
4
158
78
4
158
78
4
158
78
4
158
78
4
158
78
4
158
78
4
158
78
4
158
78
4
158
78
4
158
78
4
158
78
4
158
78
4
158
78
4
158
78
4
158
78
4
158
78
4
158
78
4
158
78
4
158
78
4
158
78
4
158
78
4
158
78
4
169
166
163
169
166
163
169
166
163
160
87
2
160
87
2
160
87
2
160
90
4
160
90
4
160
90
4
160
90
4
160
90
4
160
90
4
160
91
4
160
91
4
160
91
4
160
86
0
160
86
0
160
86
0
165
124
86
165
124
86
165
124
86
170
170
170
170
170
170
170
170
170
160
84
2
160
84
2
160
84
2
159
83
0
159
83
0
159
83
0
170
170
170
170
170
170
170
170
170
168
152
140
168
152
140
168
152
140
158
77
3
158
77
3
158
77
3
158
77
4
158
77
4
158
77
4
158
77
4
158
77
4
158
77
4
158
77
4
158
77
4
158
77
4
158
77
4
158
77
4
158
77
4
158
77
4
158
77
4
158
77
4
158
77
4
158
77
4
158
77
4
158
77
4
158
77
4
158
77
4
158
77
4
158
77
4
158
77
4
158
77
4
158
77
4
158
77
4
158
77
4
158
77
4
158
77
4
158
77
4
158
77
4
158
77
4
165
132
101
165
132
101
165
132
101
160
90
4
160
90
4
160
90
4
160
89
4
160
89
4
160
89
4
160
89
4
160
89
4
160
89
4
160
89
4
160
89
4
160
89
4
160
89
2
160
89
2
160
89
2
168
158
148
168
158
148
168
158
148
168
158
148
168
158
148
168
158
148
160
91
2
160
91
2
160
91
2
160
93
3
160
93
3
160
93
3
167
144
118
167
144
118
167
144
118
168
159
153
168
159
153
168
159
153
158
75
2
158
75
2
158
75
2
158
77
5
158
77
5
158
77
5
158
77
5
158
77
5
158
77
5
158
77
5
158
77
5
158
77
5
158
77
5
158
77
5
158
77
5
158
77
5
158
77
5
158
77
5
158
77
5
158
77
5
158
77
5
158
77
5
158
77
5
158
77
5
158
77
5
158
77
5
158
77
5
158
77
5
158
77
5
158
77
5
158
77
5
158
77
5
158
77
5
158
77
5
158
77
5
158
77
5
161
94
43
161
94
43
161
94
43
160
88
4
160
88
4
160
88
4
160
88
4
160
88
4
160
88
4
160
88
4
160
88
4
160
88
4
160
88
4
160
88
4
160
88
4
159
83
2
159
83
2
159
83
2
170
170
170
170
170
170
170
170
170
165
134
98
165
134
98
165
134
98
160
91
4
160
91
4
160
91
4
160
91
4
160
91
4
160
91
4
163
108
63
163
108
63
163
108
63
170
170
170
170
170
170
170
170
170
157
71
3
157
71
3
157
71
3
158
76
5
158
76
5
158
76
5
158
76
5
158
76
5
158
76
5
158
76
5
158
76
5
158
76
5
158
76
5
158
76
5
158
76
5
158
76
5
158
76
5
158
76
5
158
76
5
158
76
5
158
76
5
158
76
5
158
76
5
158
76
5
158
76
5
158
76
5
158
76
5
158
76
5
158
76
5
158
76
5
158
76
5
158
76
5
158
76
5
158
76
5
158
76
5
158
76
5
160
85
7
160
85
7
160
85
7
160
86
4
160
86
4
160
86
4
160
86
4
160
86
4
160
86
4
160
86
4
160
86
4
160
86
4
160
86
4
160
86
4
160
86
4
159
78
2
159
78
2
159
78
2
170
170
170
170
170
170
170
170
170
162
102
51
162
102
51
162
102
51
160
90
4
160
90
4
160
90
4
160
89
4
160
89
4
160
89
4
160
87
18
160
87
18
160
87
18
170
170
170
170
170
170
170
170
170
157
68
3
157
68
3
157
68
3
158
76
5
158
76
5
158
76
5
158
76
5
158
76
5
158
76
5
158
76
5
158
76
5
158
76
5
158
76
5
158
76
5
158
76
5
158
76
5
158
76
5
158
76
5
158
76
5
158
76
5
158
76
5
158
76
5
158
76
5
158
76
5
158
76
5
158
76
5
158
76
5
158
76
5
158
76
5
158
76
5
158
76
5
158
76
5
158
76
5
158
76
5
158
76
5
158
76
5
160
88
8
160
88
8
160
88
8
160
85
4
160
85
4
160
85
4
160
85
4
160
85
4
160
85
4
160
85
4
160
85
4
160
85
4
160
85
4
160
85
4
160
85
4
159
78
0
159
78
0
159
78
0
170
170
170
170
170
170
170
170
170
159
80
2
159
80
2
159
80
2
160
88
4
160
88
4
160
88
4
160
88
4
160
88
4
160
88
4
159
81
0
159
81
0
159
81
0
170
170
170
170
170
170
170
170
170
157
67
3
157
67
3
157
67
3
158
75
6
158
75
6
158
75
6
158
75
6
158
75
6
158
75
6
158
75
6
158
75
6
158
75
6
158
75
6
158
75
6
158
75
6
158
75
6
158
75
6
158
75
6
158
75
6
158
75
6
158
75
6
158
75
6
158
75
6
158
75
6
158
75
6
158
75
6
158
75
6
158
75
6
158
75
6
158
75
6
158
75
6
158
75
6
158
75
6
158
75
6
158
75
6
158
75
6
159
87
10
159
87
10
159
87
10
159
84
4
159
84
4
159
84
4
159
84
4
159
84
4
159
84
4
159
84
4
159
84
4
159
84
4
159
84
4
159
84
4
159
84
4
158
79
9
158
79
9
158
79
9
170
170
170
170
170
170
170
170
170
158
78
2
158
78
2
158
78
2
160
86
4
160
86
4
160
86
4
160
86
4
160
86
4
160
86
4
159
78
2
159
78
2
159
78
2
170
170
170
170
170
170
170
170
170
156
65
2
156
65
2
156
65
2
158
74
6
158
74
6
158
74
6
158
74
6
158
74
6
158
74
6
158
74
6
158
74
6
158
74
6
158
74
6
158
74
6
158
74
6
158
74
6
158
74
6
158
74
6
158
74
6
158
74
6
158
74
6
158
74
6
158
74
6
158
74
6
158
74
6
158
74
6
158
74
6
158
74
6
158
74
6
158
74
6
158
74
6
158
74
6
158
74
6
158
74
6
158
74
6
158
74
6
159
86
10
159
86
10
159
86
10
159
83
4
159
83
4
159
83
4
159
83
4
159
83
4
159
83
4
159
83
4
159
83
4
159
83
4
159
83
4
159
83
4
159
83
4
161
100
58
161
100
58
161
100
58
169
160
153
169
160
153
169
160
153
159
84
2
159
84
2
159
84
2
160
85
4
160
85
4
160
85
4
160
85
4
160
85
4
160
85
4
159
80
2
159
80
2
159
80
2
170
170
170
170
170
170
170
170
170
157
66
5
157
66
5
157
66
5
158
74
6
158
74
6
158
74
6
158
74
6
158
74
6
158
74
6
158
74
6
158
74
6
158
74
6
158
74
6
158
74
6
158
74
6
158
74
6
158
74
6
158
74
6
158
74
6
158
74
6
158
74
6
158
74
6
158
74
6
158
74
6
158
74
6
158
74
6
158
74
6
158
74
6
158
74
6
158
74
6
158
74
6
158
74
6
158
74
6
158
74
6
158
74
6
158
74
6
159
85
10
159
85
10
159
85
10
159
82
4
159
82
4
159
82
4
159
82
4
159
82
4
159
82
4
159
82
4
159
82
4
159
82
4
159
82
3
159
82
3
159
82
3
166
142
121
166
142
121
166
142
121
167
145
124
167
145
124
167
145
124
159
85
4
159
85
4
159
85
4
159
84
4
159
84
4
159
84
4
159
84
4
159
84
4
159
84
4
159
83
2
159
83
2
159
83
2
168
160
153
168
160
153
168
160
153
160
94
56
160
94
56
160
94
56
158
74
6
158
74
6
158
74
6
158
74
6
158
74
6
158
74
6
158
74
6
158
74
6
158
74
6
158
74
6
158
74
6
158
74
6
158
74
6
158
74
6
158
74
6
158
74
6
158
74
6
158
74
6
158
74
6
158
74
6
158
74
6
158
74
6
158
74
6
158
74
6
158
74
6
158
74
6
158
74
6
158
74
6
158
74
6
158
74
6
158
74
6
158
74
6
158
74
6
159
83
10
159
83
10
159
83
10
159
80
4
159
80
4
159
80
4
159
80
4
159
80
4
159
80
4
159
80
4
159
80
4
159
80
4
159
79
2
159
79
2
159
79
2
169
165
161
169
165
161
169
165
161
165
131
100
165
131
100
165
131
100
159
83
4
159
83
4
159
83
4
159
82
4
159
82
4
159
82
4
159
82
4
159
82
4
159
82
4
159
83
3
159
83
3
159
83
3
167
150
133
167
150
133
167
150
133
165
136
114
165
136
114
165
136
114
158
73
7
158
73
7
158
73
7
158
73
6
158
73
6
158
73
6
158
73
6
158
73
6
158
73
6
158
73
6
158
73
6
158
73
6
158
73
6
158
73
6
158
73
6
158
73
6
158
73
6
158
73
6
158
73
6
158
73
6
158
73
6
158
73
6
158
73
6
158
73
6
158
73
6
158
73
6
158
73
6
158
73
6
158
73
6
158
73
6
158
73
6
158
73
6
158
73
6
159
82
10
159
82
10
159
82
10
158
79
4
158
79
4
158
79
4
158
79
4
158
79
4
158
79
4
158
79
4
158
79
4
158
79
4
158
77
2
158
77
2
158
77
2
169
160
155
169
160
155
169
160
155
162
106
64
162
106
64
162
106
64
159
81
4
159
81
4
159
81
4
159
81
4
159
81
4
159
81
4
159
81
4
159
81
4
159
81
4
159
82
4
159
82
4
159
82
4
166
140
117
166
140
117
166
140
117
166
141
121
166
141
121
166
141
121
158
73
7
158
73
7
158
73
7
158
72
6
158
72
6
158
72
6
158
72
6
158
72
6
158
72
6
158
72
6
158
72
6
158
72
6
158
72
6
158
72
6
158
72
6
158
72
6
158
72
6
158
72
6
158
72
6
158
72
6
158
72
6
158
72
6
158
72
6
158
72
6
158
72
6
158
72
6
158
72
6
158
72
6
158
72
6
158
72
6
158
72
6
158
72
6
158
72
6
159
82
10
159
82
10
159
82
10
158
78
4
158
78
4
158
78
4
158
78
4
158
78
4
158
78
4
158
78
4
158
78
4
158
78
4
158
78
2
158
78
2
158
78
2
168
156
148
168
156
148
168
156
148
158
71
6
158
71
6
158
71
6
158
80
4
158
80
4
158
80
4
158
80
4
158
80
4
158
80
4
158
80
4
158
80
4
158
80
4
158
80
4
158
80
4
158
80
4
163
121
88
163
121
88
163
121
88
166
142
124
166
142
124
166
142
124
157
73
7
157
73
7
157
73
7
157
72
6
157
72
6
157
72
6
157
72
6
157
72
6
157
72
6
157
72
6
157
72
6
157
72
6
157
72
6
157
72
6
157
72
6
157
72
6
157
72
6
157
72
6
157
72
6
157
72
6
157
72
6
157
72
6
157
72
6
157
72
6
157
72
6
157
72
6
157
72
6
157
72
6
157
72
6
157
72
6
157
72
6
157
72
6
157
72
6
159
80
10
159
80
10
159
80
10
158
77
4
158
77
4
158
77
4
158
77
4
158
77
4
158
77
4
158
77
4
158
77
4
158
77
4
158
73
2
158
73
2
158
73
2
169
166
163
169
166
163
169
166
163
157
69
2
157
69
2
157
69
2
158
78
4
158
78
4
158
78
4
158
78
4
158
78
4
158
78
4
158
78
4
158
78
4
158
78
4
158
78
4
158
78
4
158
78
4
158
79
24
158
79
24
158
79
24
167
152
143
167
152
143
167
152
143
157
72
5
157
72
5
157
72
5
157
72
7
157
72
7
157
72
7
157
72
7
157
72
7
157
72
7
157
72
7
157
72
7
157
72
7
157
72
7
157
72
7
157
72
7
157
72
7
157
72
7
157
72
7
157
72
7
157
72
7
157
72
7
157
72
7
157
72
7
157
72
7
157
72
7
157
72
7
157
72
7
157
72
7
157
72
7
157
72
7
157
72
7
157
72
7
157
72
7
158
78
11
158
78
11
158
78
11
158
75
6
158
75
6
158
75
6
158
75
6
158
75
6
158
75
6
158
75
6
158
75
6
158
75
6
156
67
3
156
67
3
156
67
3
169
161
155
169
161
155
169
161
155
158
76
3
158
76
3
158
76
3
158
77
5
158
77
5
158
77
5
158
77
5
158
77
5
158
77
5
158
77
5
158
77
5
158
77
5
158
77
5
158
77
5
158
77
5
157
64
1
157
64
1
157
64
1
169
163
160
169
163
160
169
163
160
157
69
4
157
69
4
157
69
4
157
72
7
157
72
7
157
72
7
157
72
7
157
72
7
157
72
7
157
72
7
157
72
7
157
72
7
157
72
7
157
72
7
157
72
7
157
72
7
157
72
7
157
72
7
157
72
7
157
72
7
157
72
7
157
72
7
157
72
7
157
72
7
157
72
7
157
72
7
157
72
7
157
72
7
157
72
7
157
72
7
157
72
7
157
72
7
157
72
7
158
77
12
158
77
12
158
77
12
158
74
6
158
74
6
158
74
6
158
74
6
158
74
6
158
74
6
158
74
6
158
74
6
158
74
6
157
64
3
157
64
3
157
64
3
166
142
122
166
142
122
166
142
122
158
76
6
158
76
6
158
76
6
158
75
6
158
75
6
158
75
6
158
75
6
158
75
6
158
75
6
158
75
6
158
75
6
158
75
6
158
75
6
158
75
6
158
75
6
157
69
3
157
69
3
157
69
3
170
170
170
170
170
170
170
170
170
156
65
4
156
65
4
156
65
4
157
71
7
157
71
7
157
71
7
157
71
7
157
71
7
157
71
7
157
71
7
157
71
7
157
71
7
157
71
7
157
71
7
157
71
7
157
71
7
157
71
7
157
71
7
157
71
7
157
71
7
157
71
7
157
71
7
157
71
7
157
71
7
157
71
7
157
71
7
157
71
7
157
71
7
157
71
7
157
71
7
157
71
7
157
71
7
157
71
7
158
72
6
158
72
6
158
72
6
158
72
6
158
72
6
158
72
6
158
72
6
158
72
6
158
72
6
158
72
6
158
72
6
158
72
6
157
65
0
157
65
0
157
65
0
166
138
118
166
138
118
166
138
118
158
74
7
158
74
7
158
74
7
158
73
6
158
73
6
158
73
6
158
73
6
158
73
6
158
73
6
158
73
6
158
73
6
158
73
6
158
73
6
158
73
6
158
73
6
158
73
4
158
73
4
158
73
4
168
157
150
168
157
150
168
157
150
156
60
4
156
60
4
156
60
4
157
70
8
157
70
8
157
70
8
157
70
8
157
70
8
157
70
8
157
70
8
157
70
8
157
70
8
157
70
8
157
70
8
157
70
8
157
70
8
157
70
8
157
70
8
157
70
8
157
70
8
157
70
8
157
70
8
157
70
8
157
70
8
157
70
8
157
70
8
157
70
8
157
70
8
157
70
8
157
70
8
157
70
8
157
70
8
157
70
8
159
88
35
159
88
35
159
88
35
157
72
7
157
72
7
157
72
7
157
72
7
157
72
7
157
72
7
157
72
7
157
72
7
157
72
7
156
68
3
156
68
3
156
68
3
165
130
109
165
130
109
165
130
109
158
73
7
158
73
7
158
73
7
158
72
7
158
72
7
158
72
7
158
72
7
158
72
7
158
72
7
158
72
7
158
72
7
158
72
7
158
72
7
158
72
7
158
72
7
158
74
8
158
74
8
158
74
8
165
133
111
165
133
111
165
133
111
156
61
1
156
61
1
156
61
1
157
70
8
157
70
8
157
70
8
157
70
8
157
70
8
157
70
8
157
70
8
157
70
8
157
70
8
157
71
9
157
71
9
157
71
9
159
86
34
159
86
34
159
86
34
158
82
28
158
82
28
158
82
28
157
70
8
157
70
8
157
70
8
157
70
8
157
70
8
157
70
8
157
70
8
157
70
8
157
70
8
157
70
8
157
70
8
157
70
8
22
21
21
22
21
21
22
21
21
161
106
66
161
106
66
161
106
66
157
70
8
157
70
8
157
70
8
157
70
8
157
70
8
157
70
8
157
73
23
157
73
23
157
73
23
166
139
119
166
139
119
166
139
119
164
128
101
164
128
101
164
128
101
160
96
48
160
96
48
160
96
48
157
71
8
157
71
8
157
71
8
157
71
8
157
71
8
157
71
8
157
71
8
157
71
8
157
71
8
157
71
8
157
71
8
157
71
8
161
109
76
161
109
76
161
109
76
157
70
20
157
70
20
157
70
20
162
109
71
162
109
71
162
109
71
166
139
121
166
139
121
166
139
121
167
151
140
167
151
140
167
151
140
168
156
148
168
156
148
168
156
148
0
0
0
0
0
0
0
0
0
0
0
0
0
0
0
0
0
0
164
128
102
164
128
102
164
128
102
157
72
12
157
72
12
157
72
12
157
69
8
157
69
8
157
69
8
157
69
8
157
69
8
157
69
8
0
0
0
0
0
0
0
0
0
0
0
0
0
0
0
0
0
0
167
146
132
167
146
132
167
146
132
165
137
117
165
137
117
165
137
117
95
88
85
95
88
85
95
88
85
0
0
0
0
0
0
0
0
0
0
0
0
0
0
0
0
0
0
0
0
0
0
0
0
0
0
0
160
95
50
160
95
50
160
95
50
160
91
44
160
91
44
160
91
44
160
96
52
160
96
52
160
96
52
161
101
59
161
101
59
161
101
59
163
120
99
163
120
99
163
120
99
166
146
135
166
146
135
166
146
135
0
0
0
0
0
0
0
0
0
0
0
0
0
0
0
0
0
0
0
0
0
0
0
0
0
0
0
0
0
0
0
0
0
0
0
0
0
0
0
0
0
0
0
0
0
0
0
0
0
0
0
0
0
0
0
0
0
0
0
0
0
0
0
83
74
67
83
74
67
83
74
67
160
96
51
160
96
51
160
96
51
160
92
45
160
92
45
160
92
45
0
0
0
0
0
0
0
0
0
0
0
0
0
0
0
0
0
0
0
0
0
0
0
0
0
0
0
0
0
0
0
0
0
0
0
0
0
0
0
0
0
0
0
0
0
0
0
0
0
0
0
0
0
0
0
0
0
0
0
0
0
0
0
0
0
0
0
0
0
0
0
0
0
0
0
0
0
0
0
0
0
0
0
0
0
0
0
0
0
0
0
0
0
0
0
0
0
0
0
0
0
0
0
0
0
0
0
0
0
0
0
0
0
0
0
0
0
0
0
0
0
0
0
0
0
0
0
0
0
0
0
0
0
0
0
0
0
0
0
0
0
0
0
0
0
0
0
0
0
0
0
0
0
0
0
0
0
0
0
0
0
0
0
0
0
0
0
0
0
0
0
0
0
0
0
0
0
0
0
0
0
0
0
0
0
0
0
0
0
0
0
0
0
0
0
0
0
0
0
0
0
0
0
0
0
0
0
0
0
0
0
0
0
0
0
0
0
0
0
0
0
0
0
0
0
0
0
0
0
0
0
0
0
0
0
0
0
0
0
0
0
0
0
0
0
0
0
0
0
0
0
0
0
0
0
0
0
0
0
0
0
0
0
0
0
0
0
0
0
0
0
0
0
0
0
0
0
0
0
0
0
0
0
0
0
0
0
0
0
0
0
0
0
0
0
0
0
0
0
0
0
0
0
0
0
0
0
0
0
0
0
0
0
0
0
0
0
0
0
0
0
0
0
0
0
0
0
0
0
0
0
0
0
0
0
0
0
0
0
0
0
0
0
0
0
0
0
0
0
0
0
0
0
0
0
0
0
0
0
0
0
0
0
0
0
0
0
0
0
0
0
0
0
0
0
0
0
0
0
0
0
0
0
0
0
0
0
0
0
0
0
0
0
0
0
0
0
0
0
0
0
0
0
0
0
0
0
0
0
0
0
0
0
0
0
0
0
0
0
0
0
0
0
0
0
0
0
0
0
0
0
0
0
0
0
0
0
0
0
0
0
0
0
0
0
0
0
0
0
0
0
0
0
0
0
0
0
0
0
0
0
0
0
0
0
0
0
0
0
0
0
0
0
0
0
0
0
0
0
0
0
0
0
0
0
0
0
0
0
0
0
0
0
0
0
0
0
0
0
0
0
0
0
0
0
0
0
0
0
0
0
0
0
0
0
0
0
0
0
0
0
0
0
0
0
0
0
0
0
0
0
0
0
0
0
0
0
0
0
0
0
0
0
0
0
0
0
0
0
0
0
0
0
0
0
0
0
0
0
0
0
0
0
0
0
0
0
0
0
0
0
0
0
0
0
0
0
0
0
0
0
0
0
0
0
0
0
0
0
0
0
0
0
0
0
0
0
0
0
0
0
0
0
0
0
0
0
0
0
0
0
0
0
0
0
0
0
0
0
0
0
0
0
0
0
0
0
0
0
0
0
0
0
0
0
0
0
0
0
0
0
0
0
0
0
0
0
0
0
0
0
0
0
0
0
0
0
0
0
0
0
0
0
0
0
0
0
0
0
0
0
0
0
0
0
0
0
0
0
0
0
0
0
0
0
0
0
0
0
0
0
0
0
0
0
0
0
0
0
0
0
0
0
0
0
0
0
0
0
0
0
0
0
0
0
0
0
0
0
0
0
0
0
0
0
0
0
0
0
0
0
0
0
0
0
0
0
0
0
0
0
0
0
0
0
0
0
0
0
0
0
0
0
0
0
0
0
0
0
0
0
0
0
0
0
0
0
0
0
0
0
0
0
0
0
0
0
0
0
0
0
0
0
0
0
0
0
0
0
0
0
0
0
0
0
0
0
0
0
0
0
0
0
0
0
0
0
0
0
0
0
0
0
0
0
0
0
0
0
0
0
0
0
0
0
0
0
0
0
0
0
0
0
0
0
0
0
0
0
0
0
0
0
0
0
0
0
0
0
0
0
0
0
0
0
0
0
0
0
0
0
0
0
0
0
0
0
0
0
0
0
0
0
0
0
0
0
0
0
0
0
0
0
0
0
0
0
0
0
0
0
0
0
0
0
0
0
0
0
0
0
0
0
0
0
0
0
0
0
0
0
0
0
0
0
0
0
0
0
0
0
0
0
0
0
0
0
0
0
0
0
0
0
0
0
0
0
0
0
0
0
0
0
0
0
0
0
0
0
0
0
0
0
0
0
0
0
0
0
0
0
0
0
0
0
0
0
0
0
0
0
0
0
0
0
0
0
0
0
0
0
0
0
0
0
0
0
0
0
0
0
0
0
0
0
0
0
0
0
0
0
0
0
0
0
0
0
0
0
0
0
0
0
0
0
0
0
0
0
0
0
0
0
0
0
0
0
0
0
0
0
0
0
0
0
0
0
0
0
0
0
0
0
0
0
0
0
0
0
0
0
0
0
0
0
0
0
0
0
0
0
0
0
0
0
0
0
0
0
0
0
0
0
0
0
0
0
0
0
0
0
0
0
0
0
0
0
0
0
0
0
0
0
0
0
0
0
0
0
0
0
0
0
0
0
0
0
0
0
0
0
0
0
0
0
0
0
0
0
0
0
0
0
0
0
0
0
0
0
0
0
0
0
0
0
0
0
0
0
0
0
0
0
0
0
0
0
0
0
0
0
0
0
0
0
0
0
0
0
0
0
0
0
0
0
0
0
0
0
0
0
0
0
0
0
0
0
0
0
0
0
0
0
0
0
0
0
0
0
0
0
0
0
0
0
0
0
0
0
0
0
0
0
0
0
0
0
0
0
0
0
0
0
0
0
0
0
0
0
0
0
0
0
0
0
0
0
0
0
0
0
0
0
0
0
0
0
0
0
0
0
0
0
0
0
0
0
0
0
0
0
0
0
0
0
0
0
0
0
0
0
0
0
0
0
0
0
0
0
0
0
0
0
0
0
0
0
0
0
0
0
0
0
0
0
0
0
0
0
0
0
0
0
0
0
0
0
0
0
0
0
0
0
0
0
0
0
0
0
0
0
0
0
0
0
0
0
0
0
0
0
0
0
0
0
0
0
0
0
0
0
0
0
0
0
0
0
0
0
0
0
0
0
0
0
0
0
0
0
0
0
0
0
0
0
0
0
0
0
0
0
0
0
0
0
0
0
0
0
0
0
0
0
0
0
0
0
0
0
0
0
0
0
0
0
0
0
0
0
0
0
0
0
0
0
0
0
0
0
0
0
0
0
0
0
0
0
0
0
0
0
0
0
0
0
0
0
0
0
0
0
0
0
0
0
0
0
0
0
0
0
0
0
0
0
0
0
0
0
0
0
0
0
0
0
0
0
0
0
0
0
0
0
0
0
0
0
0
0
0
0
0
0
0
0
0
0
0
0
0
0
0
0
0
0
0
0
0
0
0
0
0
0
0
0
0
0
0
0
0
0
0
0
0
0
0
0
0
0
0
0
0
0
0
0
0
0
0
0
0
0
0
0
0
0
0
0
0
0
0
0
0
0
0
0
0
0
0
0
0
0
0
0
0
0
0
0
0
0
0
0
0
0
0
0
0
0
0
0
0
0
0
0
0
0
0
0
0
0
0
0
0
0
0
0
0
0
0
0
0
0
0
0
0
0
0
0
0
0
0
0
0
0
0
0
0
0
0
0
0
0
0
0
0
0
0
0
0
0
0
0
0
0
0
0
0
0
0
0
0
0
0
0
0
0
0
0
0
0
0
0
0
0
0
0
0
0
0
0
0
0
0
0
0
0
0
0
0
0
0
0
0
0
0
0
0
0
0
0
0
0
0
0
0
0
0
0
0
0
0
0
0
0
0
0
0
0
0
0
0
0
0
0
0
0
0
0
0
0
0
0
0
0
0
0
0
0
0
0
0
0
0
0
0
0
0
0
0
0
0
0
0
0
0
0
0
0
0
0
0
0
0
0
0
0
0
0
0
0
0
0
0
0
0
0
0
0
0
0
0
0
0
0
0
0
0
0
0
0
0
0
0
0
0
0
0
0
0
0
0
0
0
0
0
0
0
0
0
0
0
0
0
0
0
0
0
0
0
0
0
0
0
0
0
0
0
0
0
0
0
0
0
0
0
0
0
0
0
0
0
0
0
0
0
0
0
0
0
0
0
0
0
0
0
0
0
0
0
0
0
0
0
0
0
0
0
0
0
0
0
0
0
0
0
0
0
0
0
0
0
0
0
0
0
0
0
0
0
0
0
0
0
0
0
0
0
0
0
0
0
0
0
0
0
0
0
0
0
0
0
0
0
0
0
0
0
0
0
0
0
0
0
0
0
0
0
0
0
0
0
0
0
0
0
0
0
0
0
0
0
0
0
0
0
0
0
0
0
0
0
0
0
0
0
0
0
0
0
0
0
0
0
0
0
0
0
0
0
0
0
0
0
0
0
0
0
0
0
0
0
0
0
0
0
0
0
0
0
0
0
0
0
0
0
