P3
72 72
255
0
0
0
0
0
0
0
0
0
0
0
0
0
0
0
252
0
196
248
0
116
244
0
51
243
0
22
243
0
23
243
0
24
243
0
24
243
0
24
243
0
24
243
0
24
243
0
24
243
0
24
243
0
24
243
0
24
243
0
24
243
0
24
243
0
24
243
0
24
243
0
24
243
0
24
243
0
24
243
0
24
243
0
24
243
0
24
243
0
24
243
0
24
243
0
24
243
0
24
243
0
24
243
0
24
243
0
24
243
0
24
243
0
24
243
0
24
243
0
24
243
0
24
243
0
24
243
0
24
243
0
24
243
0
24
243
0
24
243
0
24
243
0
24
243
0
24
243
0
24
243
0
24
243
0
24
243
0
24
243
0
24
243
0
24
243
0
24
243
0
24
243
0
24
243
0
24
243
0
24
243
0
24
243
0
24
243
0
23
243
0
21
244
0
47
247
0
110
252
0
189
0
0
0
0
0
0
0
0
0
0
0
0
0
0
0
0
0
0
0
0
0
0
0
0
254
0
230
246
0
85
242
0
6
242
0
6
242
0
6
242
0
6
242
0
6
242
0
6
242
0
6
242
0
6
242
0
6
242
0
6
242
0
6
242
0
6
242
0
6
242
0
6
242
0
6
242
0
6
242
0
6
242
0
6
242
0
6
242
0
6
242
0
6
242
0
6
242
0
6
242
0
6
242
0
6
242
0
6
242
0
6
242
0
6
242
0
6
242
0
6
242
0
6
242
0
6
242
0
6
242
0
6
242
0
6
242
0
6
242
0
6
242
0
6
242
0
6
242
0
6
242
0
6
242
0
6
242
0
6
242
0
6
242
0
6
242
0
6
242
0
6
242
0
6
242
0
6
242
0
6
242
0
6
242
0
6
242
0
6
242
0
6
242
0
6
242
0
6
242
0
6
242
0
6
242
0
6
242
0
6
242
0
6
242
0
6
246
0
76
253
0
221
0
0
0
0
0
0
0
0
0
0
0
0
0
0
0
253
0
214
243
0
31
242
0
6
242
0
6
242
0
6
242
0
6
242
0
6
242
0
6
242
0
6
242
0
6
242
0
6
242
0
6
242
0
6
242
0
6
242
0
6
242
0
6
242
0
6
242
0
6
242
0
6
242
0
6
242
0
6
242
0
6
242
0
6
242
0
6
242
0
6
242
0
6
242
0
6
242
0
6
242
0
6
242
0
6
242
0
6
242
0
6
242
0
6
242
0
6
242
0
6
242
0
6
242
0
6
242
0
6
242
0
6
242
0
6
242
0
6
242
0
6
242
0
6
242
0
6
242
0
6
242
0
6
242
0
6
242
0
6
242
0
6
242
0
6
242
0
6
242
0
6
242
0
6
242
0
6
242
0
6
242
0
6
242
0
6
242
0
6
242
0
6
242
0
6
242
0
6
242
0
6
242
0
6
242
0
6
242
0
6
242
0
6
243
0
22
252
0
203
0
0
0
0
0
0
0
0
0
34
0
32
243
0
23
242
0
6
242
0
6
242
0
6
242
0
6
242
0
6
242
0
6
242
0
6
242
0
6
242
0
6
242
0
6
242
0
6
242
0
6
242
0
6
242
0
6
242
0
6
242
0
6
242
0
6
242
0
6
242
0
6
242
0
6
242
0
6
242
0
6
242
0
6
242
0
6
242
0
6
242
0
6
242
0
6
242
0
6
242
0
6
242
0
6
242
0
6
242
0
6
242
0
6
242
0
6
242
0
6
242
0
6
242
0
6
242
0
6
242
0
6
242
0
6
242
0
6
242
0
6
242
0
6
242
0
6
242
0
6
242
0
6
242
0
6
242
0
6
242
0
6
242
0
6
242
0
6
242
0
6
242
0
6
242
0
6
242
0
6
242
0
6
242
0
6
242
0
6
242
0
6
242
0
6
242
0
6
242
0
6
242
0
6
242
0
6
242
0
6
242
0
6
242
0
11
254
0
229
0
0
0
0
0
0
246
0
80
242
0
6
242
0
6
242
0
6
242
0
6
242
0
6
242
0
6
242
0
6
242
0
6
242
0
6
242
0
6
242
0
6
242
0
6
242
0
6
242
0
6
242
0
6
242
0
6
242
0
6
242
0
6
242
0
6
242
0
6
242
0
6
242
0
6
242
0
6
242
0
6
242
0
6
242
0
6
242
0
6
242
0
6
242
0
6
242
0
6
242
0
6
242
0
6
242
0
6
242
0
6
242
0
6
242
0
6
242
0
6
242
0
6
242
0
6
242
0
6
242
0
6
242
0
6
242
0
6
242
0
6
242
0
6
242
0
6
242
0
6
242
0
6
242
0
6
242
0
6
242
0
6
242
0
6
242
0
6
242
0
6
242
0
6
242
0
6
242
0
6
242
0
6
242
0
6
242
0
6
242
0
6
242
0
6
242
0
6
242
0
6
242
0
6
242
0
6
242
0
6
242
0
6
245
0
61
0
0
0
252
0
204
242
0
6
242
0
6
242
0
6
242
0
6
242
0
6
242
0
6
242
0
6
242
0
6
242
0
6
242
0
6
242
0
6
242
0
6
242
0
6
242
0
6
242
0
6
242
0
6
242
0
6
242
0
6
242
0
6
242
0
6
242
0
6
242
0
6
242
0
6
242
0
6
242
0
6
242
0
6
242
0
6
242
0
6
242
0
6
242
0
6
242
0
6
242
0
6
242
0
6
242
0
6
242
0
6
242
0
6
242
0
6
242
0
6
242
0
6
242
0
6
242
0
6
242
0
6
242
0
6
242
0
6
242
0
6
242
0
6
242
0
6
242
0
6
242
0
6
242
0
6
242
0
6
242
0
6
242
0
6
242
0
6
242
0
6
242
0
6
242
0
6
242
0
6
242
0
6
242
0
6
242
0
6
242
0
6
242
0
6
242
0
6
242
0
6
242
0
6
242
0
6
242
0
6
242
0
6
242
0
6
251
0
188
248
0
114
242
0
6
242
0
6
242
0
6
242
0
6
242
0
6
242
0
6
242
0
6
242
0
6
242
0
6
242
0
6
242
0
6
242
0
6
242
0
6
242
0
6
242
0
6
242
0
6
242
0
6
242
0
6
242
0
6
242
0
6
242
0
6
242
0
6
242
0
6
242
0
6
242
0
6
242
0
6
242
0
6
242
0
6
242
0
6
242
0
6
242
0
6
242
0
6
242
0
6
242
0
6
242
0
6
242
0
6
242
0
6
242
0
6
242
0
6
242
0
6
242
0
6
242
0
6
242
0
6
242
0
6
242
0
6
242
0
6
242
0
6
242
0
6
242
0
6
242
0
6
242
0
6
242
0
6
242
0
6
242
0
6
242
0
6
242
0
6
242
0
6
242
0
6
242
0
6
242
0
6
242
0
6
242
0
6
242
0
6
242
0
6
242
0
6
242
0
6
242
0
6
242
0
6
242
0
6
242
0
6
246
0
86
244
0
48
242
0
6
242
0
6
242
0
6
242
0
6
242
0
6
242
0
6
242
0
6
242
0
6
242
0
6
242
0
6
242
0
6
242
0
6
242
0
6
242
0
6
242
0
6
242
0
6
242
0
6
242
0
6
242
0
6
242
0
6
242
0
6
242
0
6
242
0
6
242
0
6
242
0
6
242
0
6
242
0
6
242
0
6
242
0
6
242
0
6
242
0
6
242
0
6
242
0
6
242
0
6
242
0
6
242
0
6
242
0
6
242
0
6
242
0
6
242
0
6
242
0
6
242
0
6
242
0
6
242
0
6
242
0
6
242
0
6
242
0
6
242
0
6
242
0
6
242
0
6
242
0
6
242
0
6
242
0
6
242
0
6
242
0
6
242
0
6
242
0
6
242
0
6
242
0
6
242
0
6
242
0
6
242
0
6
242
0
6
242
0
6
242
0
6
242
0
6
242
0
6
242
0
6
242
0
6
242
0
6
243
0
32
242
0
20
241
0
6
241
0
6
241
0
6
241
0
6
241
0
6
241
0
6
241
0
6
241
0
6
241
0
6
241
0
6
241
0
6
241
0
6
241
0
6
241
0
6
241
0
6
241
0
6
241
0
6
241
0
6
241
0
6
241
0
6
241
0
6
241
0
6
241
0
6
241
0
6
241
0
6
241
0
6
241
0
6
241
0
6
241
0
6
241
0
6
241
0
6
241
0
6
241
0
6
241
0
6
241
0
6
241
0
6
241
0
6
241
0
6
241
0
6
241
0
6
241
0
6
241
0
6
241
0
6
241
0
6
241
0
6
241
0
6
241
0
6
241
0
6
241
0
6
241
0
6
241
0
6
241
0
6
241
0
6
241
0
6
241
0
6
241
0
6
241
0
6
241
0
6
241
0
6
241
0
6
241
0
6
241
0
6
241
0
6
241
0
6
241
0
6
241
0
6
241
0
6
241
0
6
241
0
6
241
0
6
242
0
24
242
0
22
241
0
6
241
0
6
241
0
6
241
0
6
241
0
6
241
0
6
241
0
6
241
0
6
241
0
6
241
0
6
241
0
6
241
0
6
241
0
6
241
0
6
241
0
6
241
0
6
241
0
6
241
0
6
241
0
6
241
0
6
241
0
6
241
0
6
241
0
6
241
0
6
241
0
6
241
0
6
241
0
6
241
0
6
241
0
6
241
0
6
241
0
6
241
0
6
241
0
6
241
0
6
241
0
6
241
0
6
241
0
6
241
0
6
241
0
6
241
0
6
241
0
6
241
0
6
241
0
6
241
0
6
241
0
6
241
0
6
241
0
6
241
0
6
241
0
6
241
0
6
241
0
6
241
0
6
241
0
6
241
0
6
241
0
6
241
0
6
241
0
6
241
0
6
241
0
6
241
0
6
241
0
6
241
0
6
241
0
6
241
0
6
241
0
6
241
0
6
241
0
6
241
0
6
241
0
6
241
0
6
242
0
23
242
0
24
241
0
6
241
0
6
241
0
6
241
0
6
241
0
6
241
0
6
241
0
6
241
0
6
241
0
6
241
0
6
241
0
6
241
0
6
241
0
6
241
0
6
241
0
6
241
0
6
241
0
6
241
0
6
241
0
6
241
0
6
241
0
6
241
0
6
241
0
6
241
0
6
241
0
6
241
0
6
241
0
6
241
0
6
241
0
6
241
0
6
241
0
6
241
0
6
241
0
6
241
0
6
241
0
6
241
0
6
241
0
6
241
0
6
241
0
6
241
0
6
241
0
6
241
0
6
241
0
6
241
0
6
241
0
6
241
0
6
241
0
6
241
0
6
241
0
6
241
0
6
241
0
6
241
0
6
241
0
6
241
0
6
241
0
6
241
0
6
241
0
6
241
0
6
241
0
6
241
0
6
241
0
6
241
0
6
241
0
6
241
0
6
241
0
6
241
0
6
241
0
6
241
0
6
241
0
6
241
0
6
242
0
24
242
0
24
241
0
6
241
0
6
241
0
6
241
0
6
241
0
6
241
0
6
241
0
6
241
0
6
241
0
6
241
0
6
241
0
6
241
0
6
241
0
6
241
0
6
241
0
6
241
0
6
241
0
6
241
0
6
241
0
6
241
0
6
241
0
6
241
0
6
241
0
6
241
0
6
241
0
6
241
0
6
241
0
6
241
0
6
241
0
6
241
0
6
241
0
6
241
0
6
241
0
6
241
0
6
241
0
6
241
0
6
241
0
6
241
0
6
241
0
6
241
0
6
241
0
6
241
0
6
241
0
6
241
0
6
241
0
6
241
0
6
241
0
6
241
0
6
241
0
6
241
0
6
241
0
6
241
0
6
241
0
6
241
0
6
241
0
6
241
0
6
241
0
6
241
0
6
241
0
6
241
0
6
241
0
6
241
0
6
241
0
6
241
0
6
241
0
6
241
0
6
241
0
6
241
0
6
241
0
6
241
0
6
242
0
24
242
0
24
241
0
6
241
0
6
241
0
6
241
0
6
241
0
6
241
0
6
241
0
6
241
0
6
241
0
6
241
0
6
241
0
6
241
0
6
241
0
6
241
0
6
241
0
6
241
0
6
241
0
6
241
0
6
241
0
6
241
0
6
241
0
6
241
0
6
241
0
6
241
0
6
241
0
6
241
0
6
241
0
6
241
0
6
241
0
6
241
0
6
241
0
6
241
0
6
241
0
6
241
0
6
241
0
6
241
0
6
241
0
6
241
0
6
241
0
6
241
0
6
241
0
6
241
0
6
241
0
6
241
0
6
241
0
6
241
0
6
241
0
6
241
0
6
241
0
6
241
0
6
241
0
6
241
0
6
241
0
6
241
0
6
241
0
6
241
0
6
241
0
6
241
0
6
241
0
6
241
0
6
241
0
6
241
0
6
241
0
6
241
0
6
241
0
6
241
0
6
241
0
6
241
0
6
241
0
6
241
0
6
242
0
24
242
0
24
241
0
6
241
0
6
241
0
6
241
0
6
241
0
6
241
0
6
241
0
6
241
0
6
241
0
6
241
0
6
241
0
6
241
0
6
241
0
6
241
0
6
241
0
6
241
0
6
241
0
6
241
0
6
241
0
6
241
0
6
241
0
6
241
0
6
241
0
6
241
0
6
241
0
6
241
0
6
241
0
6
241
0
6
241
0
6
241
0
6
241
0
6
241
0
6
241
0
6
241
0
6
241
0
6
241
0
6
241
0
6
241
0
6
241
0
6
241
0
6
241
0
6
241
0
6
241
0
6
241
0
6
241
0
6
241
0
6
241
0
6
241
0
6
241
0
6
241
0
6
241
0
6
241
0
6
241
0
6
241
0
6
241
0
6
241
0
6
241
0
6
241
0
6
241
0
6
241
0
6
241
0
6
241
0
6
241
0
6
241
0
6
241
0
6
241
0
6
241
0
6
241
0
6
241
0
6
241
0
6
242
0
24
242
0
24
241
0
6
241
0
6
241
0
6
241
0
6
241
0
6
241
0
6
241
0
6
241
0
6
241
0
6
241
0
6
241
0
6
241
0
6
241
0
6
241
0
6
241
0
6
241
0
6
241
0
6
241
0
6
241
0
6
241
0
6
241
0
6
241
0
6
241
0
6
241
0
6
241
0
6
241
0
6
241
0
6
241
0
6
241
0
6
241
0
6
241
0
6
241
0
6
241
0
6
241
0
6
241
0
6
241
0
6
241
0
6
241
0
6
241
0
6
241
0
6
241
0
6
241
0
6
241
0
6
241
0
6
241
0
6
241
0
6
241
0
6
241
0
6
241
0
6
241
0
6
241
0
6
241
0
6
241
0
6
241
0
6
241
0
6
241
0
6
241
0
6
241
0
6
241
0
6
241
0
6
241
0
6
241
0
6
241
0
6
241
0
6
241
0
6
241
0
6
241
0
6
241
0
6
241
0
6
241
0
6
242
0
24
242
0
24
241
0
6
241
0
6
241
0
6
241
0
6
241
0
6
241
0
6
241
0
6
241
0
6
241
0
6
241
0
6
241
0
6
241
0
6
241
0
6
241
0
6
241
0
6
241
0
6
241
0
6
241
0
6
241
0
6
241
0
6
241
0
6
241
0
6
241
0
7
241
0
7
241
0
6
241
0
6
241
0
6
241
0
6
241
0
6
241
0
6
241
0
6
241
0
6
241
0
6
241
0
6
241
0
6
241
0
6
241
0
6
241
0
6
241
0
6
241
0
6
241
0
6
241
0
6
241
0
6
241
0
6
241
0
6
241
0
6
241
0
6
241
0
6
241
0
6
241
0
6
241
0
6
241
0
6
241
0
6
241
0
6
241
0
6
241
0
6
241
0
6
241
0
6
241
0
6
241
0
6
241
0
6
241
0
6
241
0
6
241
0
6
241
0
6
241
0
6
241
0
6
241
0
6
241
0
6
241
0
6
242
0
24
242
0
24
241
0
6
241
0
6
241
0
6
241
0
6
241
0
6
241
0
7
241
0
0
239
0
0
239
0
0
239
0
0
241
0
3
241
0
6
241
0
6
241
0
6
241
0
6
241
0
6
241
0
6
241
0
6
241
0
6
241
0
7
241
0
0
239
0
0
238
0
0
238
0
0
240
0
0
241
0
7
241
0
6
241
0
6
241
0
6
241
0
6
241
0
6
241
0
6
241
0
6
241
0
6
241
0
6
241
0
6
241
0
6
241
0
6
241
0
6
241
0
6
241
0
6
241
0
6
241
0
6
241
0
6
241
0
6
241
0
6
241
0
6
241
0
6
241
0
6
241
0
6
241
0
6
241
0
6
241
0
6
241
0
6
241
0
6
241
0
6
241
0
6
241
0
6
241
0
6
241
0
6
241
0
6
241
0
6
241
0
6
241
0
6
241
0
6
241
0
6
241
0
6
241
0
6
241
0
6
241
0
6
242
0
24
242
0
24
241
0
6
241
0
6
241
0
6
241
0
6
241
0
7
240
0
0
239
0
0
242
0
39
243
0
72
242
0
36
238
0
0
241
0
3
241
0
7
241
0
6
241
0
6
241
0
6
241
0
6
241
0
6
241
0
7
240
0
0
239
0
0
242
0
47
246
0
115
246
0
106
240
0
8
239
0
0
241
0
6
241
0
6
241
0
6
241
0
6
241
0
6
241
0
6
241
0
6
241
0
6
241
0
6
241
0
6
241
0
6
241
0
6
241
0
6
241
0
6
241
0
6
241
0
6
241
0
6
241
0
6
241
0
6
241
0
6
241
0
6
241
0
6
241
0
6
241
0
6
241
0
6
241
0
6
241
0
6
241
0
6
241
0
6
241
0
6
241
0
6
241
0
6
241
0
6
241
0
6
241
0
6
241
0
6
241
0
6
241
0
6
241
0
6
241
0
6
241
0
6
241
0
6
241
0
6
241
0
6
242
0
24
241
0
24
240
0
6
240
0
6
240
0
6
240
0
7
239
0
3
238
0
0
248
0
162
255
0
255
255
0
255
255
0
253
246
0
118
237
0
0
240
0
3
240
0
6
240
0
6
240
0
6
240
0
6
240
0
6
239
0
3
238
0
0
249
0
167
255
0
255
255
0
255
255
0
255
252
0
216
240
0
33
237
0
0
240
0
6
240
0
6
240
0
6
240
0
6
240
0
6
240
0
6
240
0
6
240
0
6
240
0
6
240
0
6
240
0
6
240
0
6
240
0
6
240
0
6
240
0
6
240
0
6
240
0
6
240
0
6
240
0
6
240
0
6
240
0
6
240
0
6
240
0
6
240
0
6
240
0
6
240
0
6
240
0
6
240
0
6
240
0
6
240
0
6
240
0
6
240
0
6
240
0
6
240
0
6
240
0
6
240
0
6
240
0
6
240
0
6
240
0
6
240
0
6
240
0
6
240
0
6
240
0
6
241
0
24
241
0
24
240
0
6
240
0
6
240
0
6
240
0
5
236
0
0
246
0
119
255
0
255
255
0
255
255
0
255
255
0
255
255
0
255
243
0
73
237
0
0
240
0
6
240
0
6
240
0
6
240
0
6
240
0
6
236
0
0
244
0
93
255
0
255
255
0
255
255
0
255
255
0
255
255
0
255
253
0
233
239
0
27
237
0
0
240
0
7
240
0
6
240
0
6
240
0
6
240
0
6
240
0
6
240
0
6
240
0
6
240
0
6
240
0
6
240
0
6
240
0
6
240
0
6
240
0
6
240
0
6
240
0
6
240
0
6
240
0
6
240
0
6
240
0
6
240
0
6
240
0
6
240
0
6
240
0
6
240
0
6
240
0
6
240
0
6
240
0
6
240
0
6
240
0
6
240
0
6
240
0
6
240
0
6
240
0
6
240
0
6
240
0
6
240
0
6
240
0
6
240
0
6
240
0
6
240
0
6
240
0
6
241
0
24
241
0
24
240
0
6
240
0
6
240
0
7
239
0
0
239
0
12
254
0
247
255
0
255
255
0
255
255
0
255
255
0
255
255
0
255
254
0
243
239
0
13
239
0
0
240
0
7
240
0
6
240
0
6
239
0
1
238
0
0
253
0
220
255
0
255
255
0
255
255
0
255
255
0
255
255
0
255
255
0
255
252
0
207
238
0
0
240
0
1
240
0
6
240
0
6
240
0
6
240
0
6
240
0
6
240
0
6
240
0
6
240
0
6
240
0
6
240
0
6
240
0
6
240
0
6
240
0
6
240
0
6
240
0
6
240
0
6
240
0
7
240
0
7
240
0
4
240
0
2
240
0
5
240
0
6
240
0
6
240
0
6
240
0
6
240
0
6
240
0
6
240
0
6
240
0
6
240
0
6
240
0
6
240
0
6
240
0
6
240
0
6
240
0
6
240
0
6
240
0
6
240
0
6
240
0
6
240
0
6
240
0
6
241
0
24
241
0
24
240
0
6
240
0
6
240
0
5
237
0
0
247
0
131
255
0
255
255
0
255
255
0
255
255
0
255
255
0
255
255
0
255
255
0
255
249
0
167
236
0
0
240
0
3
240
0
6
240
0
7
236
0
0
244
0
89
255
0
255
255
0
255
255
0
255
255
0
255
255
0
255
255
0
255
255
0
255
255
0
255
244
0
84
237
0
0
240
0
7
240
0
6
240
0
6
240
0
6
240
0
6
240
0
6
240
0
6
240
0
6
240
0
6
240
0
6
240
0
6
240
0
6
240
0
6
240
0
6
240
0
7
240
0
0
238
0
0
237
0
0
237
0
0
238
0
0
237
0
0
239
0
0
240
0
3
240
0
0
240
0
0
240
0
1
240
0
6
240
0
6
240
0
6
240
0
6
240
0
6
240
0
6
240
0
6
240
0
6
240
0
6
240
0
6
240
0
6
240
0
6
240
0
6
240
0
6
240
0
6
241
0
24
241
0
24
240
0
6
240
0
6
240
0
0
239
0
0
254
0
235
255
0
255
255
0
255
255
0
255
255
0
255
255
0
255
255
0
255
255
0
255
255
0
255
241
0
44
237
0
0
240
0
7
240
0
1
237
0
0
252
0
208
255
0
255
255
0
255
255
0
255
255
0
255
255
0
255
255
0
255
255
0
255
255
0
255
252
0
207
237
0
0
240
0
1
240
0
6
240
0
6
240
0
6
240
0
6
240
0
6
240
0
6
240
0
6
240
0
6
240
0
6
240
0
6
240
0
6
240
0
6
240
0
7
239
0
0
237
0
0
243
0
74
247
0
126
248
0
150
249
0
165
247
0
128
239
0
11
236
0
0
238
0
0
239
0
0
237
0
0
237
0
0
238
0
0
239
0
0
240
0
7
240
0
6
240
0
6
240
0
6
240
0
6
240
0
6
240
0
6
240
0
6
240
0
6
240
0
6
240
0
6
240
0
6
241
0
24
241
0
24
240
0
6
240
0
7
237
0
0
244
0
66
255
0
255
255
0
255
255
0
255
255
0
255
255
0
255
255
0
255
255
0
255
255
0
255
255
0
255
251
0
189
236
0
0
240
0
3
238
0
0
242
0
51
255
0
255
255
0
255
255
0
255
255
0
255
255
0
255
255
0
255
255
0
255
255
0
255
255
0
255
255
0
255
243
0
60
237
0
0
240
0
7
240
0
6
240
0
6
240
0
6
240
0
6
240
0
6
240
0
6
240
0
6
240
0
6
240
0
6
240
0
6
240
0
6
239
0
3
237
0
0
249
0
165
255
0
255
255
0
255
255
0
255
255
0
255
255
0
255
252
0
221
248
0
157
251
0
187
252
0
205
250
0
172
247
0
125
241
0
49
239
0
0
237
0
0
240
0
1
240
0
7
240
0
6
240
0
6
240
0
6
240
0
6
240
0
6
240
0
6
240
0
6
240
0
6
240
0
6
241
0
24
241
0
24
240
0
7
239
0
0
237
0
0
252
0
205
255
0
255
255
0
255
255
0
255
255
0
255
255
0
255
255
0
255
255
0
255
255
0
255
255
0
255
255
0
255
244
0
85
235
0
0
235
0
0
249
0
169
255
0
255
255
0
255
255
0
255
255
0
255
255
0
255
255
0
255
255
0
255
255
0
255
255
0
255
255
0
255
251
0
183
237
0
0
240
0
2
240
0
6
240
0
6
240
0
6
240
0
6
240
0
6
240
0
6
240
0
6
240
0
6
240
0
6
240
0
6
240
0
6
237
0
0
243
0
75
255
0
255
255
0
255
255
0
255
255
0
255
255
0
255
255
0
255
255
0
255
255
0
255
255
0
255
255
0
255
255
0
255
255
0
255
255
0
255
252
0
213
244
0
97
237
0
0
240
0
3
240
0
7
240
0
6
240
0
6
240
0
6
240
0
6
240
0
6
240
0
6
240
0
6
240
0
6
241
0
24
241
0
24
240
0
3
236
0
0
248
0
144
255
0
255
255
0
255
255
0
255
255
0
255
255
0
255
255
0
255
255
0
255
255
0
255
255
0
255
255
0
255
255
0
255
255
0
253
243
0
84
244
0
93
255
0
255
255
0
255
255
0
255
255
0
255
255
0
255
255
0
255
255
0
255
255
0
255
255
0
255
255
0
255
255
0
255
255
0
255
241
0
41
238
0
0
240
0
7
240
0
6
240
0
6
240
0
6
240
0
6
240
0
6
240
0
6
240
0
6
240
0
6
240
0
6
240
0
1
240
0
10
254
0
233
255
0
255
255
0
255
255
0
255
255
0
255
255
0
255
255
0
255
255
0
255
255
0
255
255
0
255
255
0
255
255
0
255
255
0
255
255
0
255
255
0
255
255
0
255
244
0
101
237
0
0
240
0
5
240
0
6
240
0
6
240
0
6
240
0
6
240
0
6
240
0
6
240
0
6
240
0
6
241
0
24
241
0
23
235
0
0
244
0
90
255
0
255
255
0
255
255
0
255
255
0
255
255
0
255
255
0
255
255
0
255
255
0
255
255
0
255
255
0
255
255
0
255
255
0
255
255
0
255
255
0
255
255
0
255
255
0
255
255
0
255
255
0
255
255
0
255
255
0
255
255
0
255
255
0
255
255
0
255
255
0
255
255
0
255
255
0
255
255
0
255
248
0
138
236
0
0
240
0
5
240
0
6
240
0
6
240
0
6
240
0
6
240
0
6
240
0
6
240
0
6
240
0
6
240
0
6
239
0
0
240
0
12
255
0
248
255
0
255
255
0
255
255
0
255
255
0
255
255
0
255
255
0
255
255
0
255
255
0
255
255
0
255
255
0
255
255
0
255
255
0
255
255
0
255
255
0
255
255
0
255
253
0
233
239
0
10
239
0
0
240
0
6
240
0
6
240
0
6
240
0
6
240
0
6
240
0
6
240
0
6
240
0
6
241
0
24
237
0
18
241
0
55
255
0
255
255
0
255
255
0
255
255
0
255
255
0
255
255
0
255
255
0
255
255
0
255
255
0
255
255
0
255
255
0
255
255
0
255
255
0
255
255
0
255
255
0
255
255
0
255
255
0
255
255
0
255
255
0
255
255
0
255
255
0
255
255
0
255
255
0
255
255
0
255
255
0
255
255
0
255
255
0
255
255
0
255
253
0
229
238
0
0
239
0
0
240
0
7
240
0
6
240
0
6
240
0
6
240
0
6
240
0
6
240
0
6
240
0
6
240
0
6
238
0
0
242
0
55
255
0
254
255
0
255
255
0
255
255
0
255
255
0
255
255
0
255
255
0
255
255
0
255
255
0
255
255
0
255
255
0
255
255
0
255
255
0
255
255
0
255
255
0
255
255
0
255
255
0
255
242
0
42
238
0
0
240
0
6
240
0
6
240
0
6
240
0
6
240
0
6
240
0
6
240
0
6
240
0
6
241
0
24
244
0
100
255
0
248
255
0
255
255
0
255
255
0
255
255
0
255
255
0
255
255
0
255
255
0
255
255
0
255
255
0
255
255
0
255
255
0
255
255
0
255
255
0
255
255
0
255
255
0
255
255
0
255
255
0
255
255
0
255
255
0
255
255
0
255
255
0
255
255
0
255
255
0
255
255
0
255
255
0
255
255
0
255
255
0
255
255
0
255
255
0
255
247
0
129
235
0
0
239
0
4
239
0
6
239
0
6
239
0
6
239
0
6
239
0
6
239
0
6
239
0
6
239
0
8
236
0
0
245
0
99
255
0
255
255
0
255
255
0
255
255
0
255
255
0
255
255
0
255
255
0
255
255
0
255
255
0
255
255
0
255
255
0
255
255
0
255
255
0
255
255
0
246
251
0
207
254
0
247
253
0
227
238
0
6
238
0
0
239
0
6
239
0
6
239
0
6
239
0
6
239
0
6
239
0
6
239
0
6
239
0
6
240
0
24
255
0
255
255
0
255
255
0
255
255
0
255
255
0
255
255
0
255
255
0
255
255
0
255
255
0
255
255
0
255
255
0
255
255
0
255
255
0
255
255
0
255
255
0
255
255
0
255
255
0
255
255
0
255
255
0
255
255
0
255
255
0
255
255
0
255
255
0
255
255
0
255
255
0
255
255
0
255
255
0
255
255
0
255
255
0
255
255
0
255
255
0
255
255
0
255
240
0
54
234
0
0
239
0
0
239
0
7
239
0
6
239
0
6
239
0
6
239
0
6
239
0
6
239
0
5
235
0
0
247
0
135
255
0
255
255
0
255
255
0
255
255
0
255
255
0
255
255
0
255
255
0
255
255
0
255
255
0
255
255
0
255
252
0
223
249
0
178
245
0
118
239
0
28
237
0
0
239
0
26
241
0
55
239
0
5
239
0
3
239
0
6
239
0
6
239
0
6
239
0
6
239
0
6
239
0
6
239
0
6
239
0
6
240
0
24
255
0
255
255
0
255
255
0
255
255
0
255
255
0
255
255
0
255
255
0
255
255
0
255
255
0
255
255
0
255
255
0
255
255
0
255
255
0
255
255
0
255
255
0
255
255
0
255
255
0
255
255
0
255
255
0
255
255
0
255
255
0
255
255
0
255
255
0
255
255
0
255
255
0
255
255
0
255
255
0
255
255
0
255
255
0
255
255
0
255
255
0
255
255
0
255
254
0
238
241
0
72
235
0
0
236
0
0
238
0
0
239
0
5
239
0
6
239
0
6
239
0
6
238
0
0
237
0
0
253
0
229
255
0
255
255
0
255
255
0
255
255
0
255
255
0
255
255
0
255
255
0
255
255
0
255
252
0
222
241
0
76
237
0
4
236
0
0
236
0
0
237
0
0
239
0
0
237
0
0
237
0
0
239
0
6
239
0
7
239
0
6
239
0
6
239
0
6
239
0
6
239
0
6
239
0
6
239
0
6
239
0
6
240
0
24
255
0
255
255
0
255
255
0
255
255
0
255
255
0
255
255
0
255
255
0
255
255
0
255
255
0
255
255
0
255
255
0
255
255
0
255
255
0
255
255
0
255
255
0
255
255
0
255
255
0
255
255
0
255
255
0
255
255
0
255
255
0
255
255
0
255
255
0
255
255
0
255
255
0
255
255
0
255
255
0
255
255
0
255
255
0
255
255
0
255
255
0
255
255
0
255
255
0
255
255
0
255
249
0
176
242
0
75
237
0
1
235
0
0
236
0
0
237
0
0
236
0
0
233
0
0
244
0
99
255
0
255
255
0
255
255
0
255
255
0
255
255
0
255
255
0
255
255
0
255
255
0
255
255
0
249
240
0
37
234
0
0
238
0
0
239
0
0
239
0
6
239
0
6
239
0
6
239
0
6
239
0
6
239
0
6
239
0
6
239
0
6
239
0
6
239
0
6
239
0
6
239
0
6
239
0
6
239
0
6
239
0
6
240
0
24
255
0
255
255
0
255
255
0
255
255
0
255
255
0
255
255
0
255
255
0
255
255
0
255
255
0
255
255
0
255
255
0
255
255
0
255
255
0
255
255
0
255
255
0
255
255
0
255
255
0
255
255
0
255
255
0
255
255
0
255
255
0
255
255
0
255
255
0
255
255
0
255
255
0
255
255
0
255
255
0
255
255
0
255
255
0
255
255
0
255
255
0
255
255
0
255
255
0
255
255
0
255
255
0
255
255
0
255
252
0
218
247
0
140
242
0
75
241
0
48
241
0
61
244
0
111
255
0
248
255
0
255
255
0
255
255
0
255
255
0
255
255
0
255
255
0
255
255
0
255
255
0
255
251
0
202
236
0
0
239
0
0
239
0
6
239
0
6
239
0
6
239
0
6
239
0
6
239
0
6
239
0
6
239
0
6
239
0
6
239
0
6
239
0
6
239
0
6
239
0
6
239
0
6
239
0
6
239
0
6
239
0
6
240
0
24
255
0
255
255
0
255
255
0
255
255
0
255
255
0
255
255
0
255
255
0
255
255
0
255
255
0
255
255
0
255
255
0
255
255
0
255
255
0
255
255
0
255
255
0
255
255
0
255
255
0
255
255
0
255
255
0
255
255
0
255
255
0
255
255
0
255
255
0
255
255
0
255
255
0
255
255
0
255
255
0
255
255
0
255
255
0
255
255
0
255
255
0
255
255
0
255
255
0
255
255
0
255
255
0
255
255
0
255
255
0
255
255
0
255
255
0
255
255
0
255
255
0
255
255
0
255
255
0
255
255
0
255
255
0
255
255
0
255
255
0
255
255
0
255
255
0
255
255
0
255
255
0
255
248
0
149
236
0
0
239
0
4
239
0
6
239
0
6
239
0
6
239
0
6
239
0
6
239
0
6
239
0
6
239
0
6
239
0
6
239
0
6
239
0
6
239
0
6
239
0
6
239
0
6
239
0
6
239
0
6
239
0
6
240
0
24
255
0
255
255
0
255
255
0
255
255
0
255
255
0
255
255
0
255
255
0
255
255
0
255
255
0
255
255
0
255
255
0
255
255
0
255
255
0
255
255
0
255
255
0
255
255
0
255
255
0
255
255
0
255
255
0
255
255
0
255
255
0
255
255
0
255
255
0
255
255
0
255
255
0
255
255
0
255
255
0
255
255
0
255
255
0
255
255
0
255
255
0
255
255
0
255
255
0
255
255
0
255
255
0
255
255
0
255
255
0
255
255
0
255
255
0
255
255
0
255
255
0
255
255
0
255
255
0
255
255
0
255
255
0
255
255
0
255
255
0
255
255
0
255
255
0
255
255
0
255
255
0
255
242
0
55
236
0
0
239
0
7
239
0
6
239
0
6
239
0
6
239
0
6
239
0
6
239
0
6
239
0
6
239
0
6
239
0
6
239
0
6
239
0
6
239
0
6
239
0
6
239
0
6
239
0
6
239
0
6
239
0
6
240
0
24
255
0
255
255
0
255
255
0
255
255
0
255
255
0
255
255
0
255
255
0
255
255
0
255
255
0
255
255
0
255
255
0
255
255
0
255
255
0
255
255
0
255
255
0
255
255
0
255
255
0
255
255
0
255
255
0
255
255
0
255
255
0
255
255
0
255
255
0
255
255
0
255
255
0
255
255
0
255
255
0
255
255
0
255
255
0
255
255
0
255
255
0
255
255
0
255
255
0
255
255
0
255
255
0
255
255
0
255
255
0
255
255
0
255
255
0
255
255
0
255
255
0
255
255
0
255
255
0
255
255
0
255
255
0
255
255
0
255
255
0
255
255
0
255
255
0
255
255
0
255
250
0
188
235
0
0
239
0
3
239
0
6
239
0
6
239
0
6
239
0
6
239
0
6
239
0
6
239
0
6
239
0
6
239
0
6
239
0
6
239
0
6
239
0
6
239
0
6
239
0
6
239
0
6
239
0
6
239
0
6
239
0
6
240
0
24
255
0
255
255
0
255
255
0
255
255
0
255
255
0
255
255
0
255
255
0
255
255
0
255
255
0
255
255
0
255
255
0
255
255
0
255
255
0
255
255
0
255
255
0
255
255
0
255
255
0
255
255
0
255
255
0
255
255
0
255
255
0
255
255
0
255
255
0
255
255
0
255
255
0
255
255
0
255
255
0
255
255
0
255
255
0
255
255
0
255
255
0
255
255
0
255
255
0
255
255
0
255
255
0
255
255
0
255
255
0
255
255
0
255
255
0
255
255
0
255
255
0
255
255
0
255
255
0
255
255
0
255
255
0
255
255
0
255
255
0
255
255
0
255
255
0
255
255
0
255
239
0
31
236
0
0
239
0
7
239
0
6
239
0
6
239
0
6
239
0
6
239
0
6
239
0
6
239
0
6
239
0
6
239
0
6
239
0
6
239
0
6
239
0
6
239
0
6
239
0
6
239
0
6
239
0
6
239
0
6
239
0
6
240
0
24
255
0
255
255
0
255
255
0
255
255
0
255
255
0
255
255
0
255
255
0
255
255
0
255
255
0
255
255
0
255
255
0
255
255
0
255
255
0
255
255
0
255
255
0
255
255
0
255
255
0
255
255
0
255
255
0
255
255
0
255
255
0
255
255
0
255
255
0
255
255
0
255
255
0
255
255
0
255
255
0
255
255
0
255
255
0
255
255
0
255
255
0
255
255
0
255
255
0
255
255
0
255
255
0
255
255
0
255
255
0
255
255
0
255
255
0
255
255
0
255
255
0
255
255
0
255
255
0
255
255
0
255
255
0
255
255
0
255
255
0
255
255
0
255
255
0
255
244
0
102
235
0
0
240
0
5
239
0
6
239
0
6
239
0
6
239
0
6
239
0
6
239
0
6
239
0
6
239
0
6
239
0
6
239
0
6
239
0
6
239
0
6
239
0
6
239
0
6
239
0
6
239
0
6
239
0
6
239
0
6
239
0
6
240
0
24
255
0
255
255
0
255
255
0
255
255
0
255
255
0
255
255
0
255
255
0
255
255
0
255
255
0
255
255
0
255
255
0
255
255
0
255
255
0
255
255
0
255
255
0
255
255
0
255
255
0
255
255
0
255
255
0
255
255
0
255
255
0
255
255
0
255
255
0
255
255
0
255
255
0
255
255
0
255
255
0
255
255
0
255
255
0
255
255
0
255
255
0
255
255
0
255
255
0
255
255
0
255
255
0
255
255
0
255
255
0
255
255
0
255
255
0
255
255
0
255
255
0
255
255
0
255
255
0
255
255
0
255
255
0
255
255
0
255
255
0
255
255
0
255
244
0
123
234
0
0
238
0
3
239
0
7
239
0
6
239
0
6
239
0
6
239
0
6
239
0
6
239
0
6
239
0
6
239
0
6
239
0
6
239
0
6
239
0
6
239
0
6
239
0
6
239
0
6
239
0
6
239
0
6
239
0
6
239
0
6
239
0
6
240
0
24
255
0
255
255
0
255
255
0
255
255
0
255
255
0
255
255
0
255
255
0
255
255
0
255
255
0
255
255
0
255
255
0
255
255
0
255
255
0
255
255
0
255
255
0
255
255
0
255
255
0
255
255
0
255
255
0
255
255
0
255
255
0
255
255
0
255
255
0
255
255
0
255
255
0
255
255
0
255
255
0
255
255
0
255
255
0
255
255
0
255
255
0
255
255
0
255
255
0
255
255
0
255
255
0
255
255
0
255
255
0
255
255
0
255
255
0
255
255
0
255
255
0
255
255
0
255
255
0
255
255
0
255
255
0
255
255
0
255
254
0
244
242
0
91
233
0
0
237
0
0
238
0
7
238
0
6
238
0
6
238
0
6
238
0
6
238
0
6
238
0
6
238
0
6
238
0
6
238
0
6
238
0
6
238
0
6
238
0
6
238
0
6
238
0
6
238
0
6
238
0
6
238
0
6
238
0
6
238
0
6
238
0
6
239
0
24
255
0
255
255
0
255
255
0
255
255
0
255
250
0
168
241
0
37
245
0
93
255
0
255
255
0
255
255
0
255
255
0
255
255
0
255
255
0
255
255
0
255
255
0
255
255
0
255
255
0
255
255
0
255
255
0
255
255
0
255
255
0
255
255
0
255
255
0
255
255
0
255
255
0
255
255
0
255
255
0
255
255
0
255
255
0
255
255
0
255
255
0
255
255
0
255
255
0
255
255
0
255
255
0
255
255
0
255
255
0
255
255
0
255
255
0
255
255
0
255
255
0
255
255
0
255
255
0
255
255
0
255
255
0
255
248
0
169
238
0
36
234
0
0
238
0
2
238
0
7
238
0
6
238
0
6
238
0
6
238
0
6
238
0
6
238
0
6
238
0
6
238
0
6
238
0
6
238
0
6
238
0
6
238
0
6
238
0
6
238
0
6
238
0
6
238
0
6
238
0
6
238
0
6
238
0
6
238
0
6
238
0
6
239
0
24
255
0
255
255
0
255
255
0
255
255
0
239
241
0
0
239
0
0
238
0
0
243
0
55
252
0
210
255
0
255
255
0
255
255
0
255
255
0
255
255
0
255
255
0
255
255
0
255
255
0
255
255
0
255
255
0
255
255
0
255
255
0
255
255
0
255
255
0
255
255
0
255
255
0
255
255
0
255
255
0
255
255
0
255
255
0
255
255
0
255
255
0
255
255
0
255
255
0
255
255
0
255
253
0
228
249
0
179
250
0
186
250
0
196
251
0
208
253
0
220
252
0
216
250
0
195
248
0
154
245
0
109
239
0
41
234
0
0
236
0
0
238
0
6
238
0
6
238
0
6
238
0
6
238
0
6
238
0
6
238
0
6
238
0
6
238
0
6
238
0
6
238
0
6
238
0
6
238
0
6
238
0
6
238
0
6
238
0
6
238
0
6
238
0
6
238
0
6
238
0
6
238
0
6
238
0
6
238
0
6
238
0
6
239
0
24
255
0
255
255
0
255
255
0
255
251
0
185
240
0
0
242
0
1
242
0
5
240
0
0
240
0
0
244
0
79
249
0
157
253
0
234
255
0
255
255
0
255
255
0
255
255
0
255
255
0
255
255
0
255
255
0
255
255
0
255
255
0
255
255
0
255
255
0
255
255
0
255
255
0
255
255
0
255
255
0
255
255
0
255
255
0
255
255
0
255
255
0
255
255
0
255
255
0
255
255
0
255
247
0
151
232
0
0
236
0
0
236
0
0
237
0
0
237
0
2
238
0
1
236
0
0
235
0
0
235
0
0
236
0
0
238
0
1
238
0
7
238
0
7
238
0
7
238
0
7
238
0
7
238
0
7
238
0
7
238
0
7
238
0
7
238
0
7
238
0
7
238
0
7
238
0
7
238
0
7
238
0
7
238
0
7
238
0
7
238
0
7
238
0
7
238
0
7
238
0
7
238
0
7
238
0
7
238
0
7
238
0
7
239
0
25
255
0
255
255
0
255
255
0
255
244
0
70
239
0
0
241
0
7
241
0
6
241
0
7
240
0
0
239
0
0
238
0
0
240
0
15
244
0
74
246
0
111
249
0
156
252
0
212
254
0
241
255
0
251
255
0
252
254
0
243
255
0
255
255
0
255
255
0
255
255
0
255
255
0
243
246
0
101
242
0
43
249
0
148
255
0
255
255
0
255
255
0
255
255
0
255
255
0
255
255
0
255
249
0
174
235
0
0
238
0
0
238
0
0
237
0
0
237
0
0
237
0
0
238
0
0
238
0
4
238
0
8
238
0
8
238
0
7
238
0
7
238
0
7
238
0
7
238
0
7
238
0
7
238
0
7
238
0
7
238
0
7
238
0
7
238
0
7
238
0
7
238
0
7
238
0
7
238
0
7
238
0
7
238
0
7
238
0
7
238
0
7
238
0
7
238
0
7
238
0
7
238
0
7
238
0
7
238
0
7
238
0
7
239
0
25
255
0
255
255
0
255
251
0
179
238
0
0
241
0
3
241
0
6
241
0
6
241
0
6
241
0
6
241
0
7
241
0
3
240
0
0
239
0
0
238
0
0
238
0
0
240
0
0
241
0
17
242
0
31
239
0
20
248
0
129
255
0
255
255
0
255
255
0
255
254
0
242
242
0
39
238
0
0
240
0
0
239
0
0
246
0
96
255
0
255
255
0
255
255
0
255
255
0
255
255
0
255
249
0
172
235
0
0
238
0
2
238
0
7
238
0
7
238
0
7
238
0
7
238
0
7
238
0
7
238
0
7
238
0
7
238
0
7
238
0
7
238
0
7
238
0
7
238
0
7
238
0
7
238
0
7
238
0
7
238
0
7
238
0
7
238
0
7
238
0
7
238
0
7
238
0
7
238
0
7
238
0
7
238
0
7
238
0
7
238
0
7
238
0
7
238
0
7
238
0
7
238
0
7
238
0
7
238
0
7
238
0
7
239
0
25
255
0
255
254
0
235
240
0
16
240
0
0
241
0
7
241
0
6
241
0
6
241
0
6
241
0
6
241
0
6
241
0
6
241
0
6
241
0
6
241
0
7
241
0
3
241
0
0
240
0
0
238
0
0
241
0
27
254
0
233
255
0
255
255
0
255
255
0
255
244
0
76
238
0
0
242
0
6
242
0
7
241
0
0
238
0
0
244
0
78
255
0
255
255
0
255
255
0
255
255
0
255
249
0
167
235
0
0
238
0
2
238
0
7
238
0
7
238
0
7
238
0
7
238
0
7
238
0
7
238
0
7
238
0
7
238
0
7
238
0
7
238
0
7
238
0
7
238
0
7
238
0
7
238
0
7
238
0
7
238
0
7
238
0
7
238
0
7
238
0
7
238
0
7
238
0
7
238
0
7
238
0
7
238
0
7
238
0
7
238
0
7
238
0
7
238
0
7
238
0
7
238
0
7
238
0
7
238
0
7
238
0
7
239
0
25
255
0
255
241
0
50
238
0
0
241
0
6
241
0
6
241
0
6
241
0
6
241
0
6
241
0
6
241
0
6
241
0
6
241
0
6
241
0
6
241
0
6
241
0
6
241
0
6
241
0
2
238
0
0
251
0
190
255
0
255
255
0
255
255
0
255
251
0
189
237
0
0
241
0
2
241
0
6
241
0
6
241
0
6
241
0
3
237
0
0
246
0
100
255
0
255
255
0
255
255
0
255
251
0
205
236
0
0
238
0
0
238
0
8
238
0
8
238
0
8
238
0
8
238
0
8
238
0
8
238
0
8
238
0
8
238
0
8
238
0
8
238
0
8
238
0
8
238
0
8
238
0
8
238
0
8
238
0
8
238
0
8
238
0
8
238
0
8
238
0
8
238
0
8
238
0
8
238
0
8
238
0
8
238
0
8
238
0
8
238
0
8
238
0
8
238
0
8
238
0
8
238
0
8
238
0
8
238
0
8
238
0
8
239
0
25
247
0
129
236
0
0
240
0
5
240
0
6
240
0
6
240
0
6
240
0
6
240
0
6
240
0
6
240
0
6
240
0
6
240
0
6
240
0
6
240
0
6
240
0
6
240
0
7
238
0
0
241
0
40
255
0
255
255
0
255
255
0
255
255
0
255
242
0
41
239
0
0
241
0
7
241
0
6
241
0
6
241
0
6
241
0
7
240
0
2
238
0
0
251
0
189
255
0
255
255
0
255
255
0
255
239
0
39
235
0
0
238
0
9
238
0
8
238
0
8
238
0
8
238
0
8
238
0
8
238
0
8
238
0
8
238
0
8
238
0
8
238
0
8
238
0
8
238
0
8
238
0
8
238
0
8
238
0
8
238
0
8
238
0
8
238
0
8
238
0
8
238
0
8
238
0
8
238
0
8
238
0
8
238
0
8
238
0
8
238
0
8
238
0
8
238
0
8
238
0
8
238
0
8
238
0
8
238
0
8
238
0
8
239
0
25
240
0
18
240
0
3
240
0
7
240
0
6
240
0
6
240
0
6
240
0
6
240
0
6
240
0
6
240
0
6
240
0
6
240
0
6
240
0
6
240
0
6
240
0
6
240
0
6
237
0
0
247
0
120
255
0
255
255
0
255
255
0
255
249
0
154
237
0
0
241
0
3
241
0
6
241
0
6
241
0
6
241
0
6
241
0
6
241
0
7
238
0
0
243
0
54
255
0
255
255
0
255
255
0
255
240
0
75
234
0
0
237
0
9
237
0
8
237
0
8
237
0
8
237
0
8
237
0
8
237
0
8
237
0
8
237
0
8
237
0
8
237
0
8
237
0
8
237
0
8
237
0
8
237
0
8
237
0
8
237
0
8
237
0
8
237
0
8
237
0
8
237
0
8
237
0
8
237
0
8
237
0
8
237
0
8
237
0
8
237
0
8
237
0
8
237
0
8
237
0
8
237
0
8
237
0
8
237
0
8
237
0
8
238
0
25
241
0
18
240
0
7
240
0
6
240
0
6
240
0
6
240
0
6
240
0
6
240
0
6
240
0
6
240
0
6
240
0
6
240
0
6
240
0
6
240
0
6
240
0
6
240
0
0
238
0
0
252
0
204
255
0
255
255
0
255
254
0
238
238
0
8
239
0
0
240
0
7
240
0
6
240
0
6
240
0
6
240
0
6
240
0
6
240
0
6
240
0
0
238
0
0
252
0
212
255
0
255
255
0
255
242
0
81
234
0
0
237
0
11
237
0
9
237
0
9
237
0
9
237
0
9
237
0
9
237
0
9
237
0
9
237
0
9
237
0
9
237
0
9
237
0
9
237
0
9
237
0
9
237
0
9
237
0
9
237
0
9
237
0
9
237
0
9
237
0
9
237
0
9
237
0
9
237
0
9
237
0
9
237
0
9
237
0
9
237
0
9
237
0
9
237
0
9
237
0
9
237
0
9
237
0
9
237
0
9
237
0
9
238
0
26
240
0
24
239
0
6
239
0
6
239
0
6
239
0
6
239
0
6
239
0
6
239
0
6
239
0
6
239
0
6
239
0
6
239
0
6
239
0
6
239
0
6
239
0
7
236
0
0
240
0
29
255
0
255
255
0
255
255
0
255
244
0
84
236
0
0
240
0
6
240
0
6
240
0
6
240
0
6
240
0
6
240
0
6
240
0
6
240
0
6
240
0
6
237
0
0
246
0
116
255
0
255
255
0
255
248
0
158
233
0
0
237
0
6
237
0
9
237
0
9
237
0
9
237
0
9
237
0
9
237
0
9
237
0
9
237
0
9
237
0
9
237
0
9
237
0
9
237
0
9
237
0
9
237
0
9
237
0
9
237
0
9
237
0
9
237
0
9
237
0
9
237
0
9
237
0
9
237
0
9
237
0
9
237
0
9
237
0
9
237
0
9
237
0
9
237
0
9
237
0
9
237
0
9
237
0
9
237
0
9
237
0
9
238
0
26
240
0
24
239
0
6
239
0
6
239
0
6
239
0
6
239
0
6
239
0
6
239
0
6
239
0
6
239
0
6
239
0
6
239
0
6
239
0
6
239
0
7
238
0
3
235
0
0
249
0
175
255
0
255
255
0
255
252
0
205
237
0
0
239
0
1
240
0
6
240
0
6
240
0
6
240
0
6
240
0
6
240
0
6
240
0
6
240
0
6
240
0
7
238
0
0
241
0
36
255
0
255
255
0
255
255
0
252
237
0
17
234
0
0
237
0
11
237
0
9
237
0
9
237
0
9
237
0
9
237
0
9
237
0
9
237
0
9
237
0
9
237
0
9
237
0
9
237
0
9
237
0
9
237
0
9
237
0
9
237
0
9
237
0
9
237
0
9
237
0
9
237
0
9
237
0
9
237
0
9
237
0
9
237
0
9
237
0
9
237
0
9
237
0
9
237
0
9
237
0
9
237
0
9
237
0
9
237
0
9
237
0
9
238
0
26
240
0
24
239
0
6
239
0
6
239
0
6
239
0
6
239
0
6
239
0
6
239
0
6
239
0
6
239
0
6
239
0
6
239
0
6
239
0
6
239
0
5
236
0
0
245
0
109
255
0
255
255
0
255
255
0
255
246
0
118
235
0
0
239
0
6
239
0
6
239
0
6
239
0
6
239
0
6
239
0
6
239
0
6
239
0
6
239
0
6
239
0
6
239
0
0
237
0
0
251
0
206
255
0
255
255
0
255
249
0
169
233
0
0
237
0
5
237
0
9
237
0
9
237
0
9
237
0
9
237
0
9
237
0
9
237
0
9
237
0
9
237
0
9
237
0
9
237
0
9
237
0
9
237
0
9
237
0
9
237
0
9
237
0
9
237
0
9
237
0
9
237
0
9
237
0
9
237
0
9
237
0
9
237
0
9
237
0
9
237
0
9
237
0
9
237
0
9
237
0
9
237
0
9
237
0
9
237
0
9
237
0
9
238
0
26
240
0
24
239
0
6
239
0
6
239
0
6
239
0
6
239
0
6
239
0
6
239
0
6
239
0
6
239
0
6
239
0
6
239
0
6
239
0
6
238
0
0
237
0
0
253
0
229
255
0
255
255
0
255
255
0
255
241
0
46
236
0
0
239
0
7
239
0
6
239
0
6
239
0
6
239
0
6
239
0
6
239
0
6
239
0
6
239
0
6
239
0
6
239
0
4
235
0
0
247
0
144
255
0
255
255
0
255
255
0
255
242
0
89
234
0
0
237
0
11
237
0
10
237
0
10
237
0
10
237
0
10
237
0
10
237
0
10
237
0
10
237
0
10
237
0
10
237
0
10
237
0
10
237
0
10
237
0
10
237
0
10
237
0
10
237
0
10
237
0
10
237
0
10
237
0
10
237
0
10
237
0
10
237
0
10
237
0
10
237
0
10
237
0
10
237
0
10
237
0
10
237
0
10
237
0
10
237
0
10
237
0
10
238
0
27
239
0
24
238
0
6
238
0
6
238
0
6
238
0
6
238
0
6
238
0
6
238
0
6
238
0
6
238
0
6
238
0
6
238
0
6
238
0
6
237
0
0
237
0
0
252
0
210
255
0
255
255
0
255
251
0
192
236
0
0
239
0
2
239
0
6
239
0
6
239
0
6
239
0
6
239
0
6
239
0
6
239
0
6
239
0
6
239
0
6
239
0
6
239
0
7
236
0
0
245
0
97
255
0
255
255
0
255
255
0
255
244
0
110
234
0
0
237
0
13
237
0
10
237
0
10
237
0
10
237
0
10
237
0
10
237
0
10
237
0
10
237
0
10
237
0
10
237
0
10
237
0
10
237
0
10
237
0
10
237
0
10
237
0
10
237
0
10
237
0
10
237
0
10
237
0
10
237
0
10
237
0
10
237
0
10
237
0
10
237
0
10
237
0
10
237
0
10
237
0
10
237
0
10
237
0
10
237
0
10
237
0
10
238
0
27
239
0
25
238
0
7
238
0
7
238
0
7
238
0
7
238
0
7
238
0
7
238
0
7
238
0
7
238
0
7
238
0
7
238
0
7
238
0
7
238
0
0
236
0
0
250
0
191
255
0
255
253
0
236
237
0
18
237
0
0
238
0
6
238
0
6
238
0
6
238
0
6
238
0
6
238
0
6
238
0
6
238
0
6
238
0
6
238
0
6
238
0
6
238
0
6
237
0
0
237
0
17
254
0
247
255
0
255
255
0
255
245
0
117
232
0
0
236
0
12
236
0
10
236
0
10
236
0
10
236
0
10
236
0
10
236
0
10
236
0
10
236
0
10
236
0
10
236
0
10
236
0
10
236
0
10
236
0
10
236
0
10
236
0
10
236
0
10
236
0
10
236
0
10
236
0
10
236
0
10
236
0
10
236
0
10
236
0
10
236
0
10
236
0
10
236
0
10
236
0
10
236
0
10
236
0
10
236
0
10
236
0
10
237
0
27
239
0
25
238
0
7
238
0
7
238
0
7
238
0
7
238
0
7
238
0
7
238
0
7
238
0
7
238
0
7
238
0
7
238
0
7
238
0
7
237
0
0
237
0
15
253
0
236
255
0
255
242
0
78
233
0
0
238
0
6
238
0
6
238
0
6
238
0
6
238
0
6
238
0
6
238
0
6
238
0
6
238
0
6
238
0
6
238
0
6
238
0
6
238
0
6
238
0
6
234
0
0
242
0
74
255
0
255
255
0
255
248
0
175
233
0
0
236
0
5
236
0
10
236
0
11
236
0
11
236
0
11
236
0
11
236
0
11
236
0
11
236
0
11
236
0
11
236
0
11
236
0
11
236
0
11
236
0
11
236
0
11
236
0
11
236
0
11
236
0
11
236
0
11
236
0
11
236
0
11
236
0
11
236
0
11
236
0
11
236
0
11
236
0
11
236
0
11
236
0
11
236
0
11
236
0
11
236
0
11
236
0
11
237
0
28
238
0
26
237
0
9
237
0
9
237
0
9
237
0
9
237
0
9
237
0
9
237
0
9
237
0
9
237
0
9
237
0
9
237
0
9
237
0
11
233
0
0
242
0
97
255
0
255
252
0
211
235
0
0
237
0
1
238
0
8
238
0
8
238
0
8
238
0
8
238
0
8
238
0
8
238
0
8
238
0
8
238
0
8
238
0
8
238
0
8
238
0
8
238
0
8
238
0
8
238
0
4
233
0
0
248
0
166
255
0
255
252
0
227
235
0
0
235
0
0
236
0
12
236
0
11
236
0
11
236
0
11
236
0
11
236
0
11
236
0
11
236
0
11
236
0
11
236
0
11
236
0
11
236
0
11
236
0
11
236
0
11
236
0
11
236
0
11
236
0
11
236
0
11
236
0
11
236
0
11
236
0
11
236
0
11
236
0
11
236
0
11
236
0
11
236
0
11
236
0
11
236
0
11
236
0
11
236
0
11
236
0
11
237
0
28
238
0
27
237
0
10
237
0
10
237
0
10
237
0
10
237
0
10
237
0
10
237
0
10
237
0
10
237
0
10
237
0
10
237
0
10
237
0
9
234
0
0
247
0
149
255
0
255
245
0
112
233
0
0
237
0
10
237
0
9
237
0
9
237
0
9
237
0
9
237
0
9
237
0
9
237
0
9
237
0
9
237
0
9
237
0
9
237
0
9
237
0
9
237
0
9
237
0
9
237
0
10
234
0
0
237
0
29
255
0
255
255
0
255
238
0
42
234
0
0
236
0
13
236
0
11
236
0
11
236
0
11
236
0
11
236
0
11
236
0
11
236
0
11
236
0
11
236
0
11
236
0
11
236
0
11
236
0
11
236
0
11
236
0
11
236
0
11
236
0
11
236
0
11
236
0
11
236
0
11
236
0
11
236
0
11
236
0
11
236
0
11
236
0
11
236
0
11
236
0
11
236
0
11
236
0
11
236
0
11
236
0
11
237
0
28
237
0
10
237
0
10
237
0
10
237
0
10
237
0
10
237
0
10
237
0
10
237
0
10
237
0
10
237
0
10
237
0
10
237
0
10
237
0
2
234
0
0
250
0
193
255
0
255
243
0
99
234
0
0
237
0
12
237
0
10
237
0
10
237
0
10
237
0
10
237
0
10
237
0
10
237
0
10
237
0
10
237
0
10
237
0
10
237
0
10
237
0
10
237
0
10
237
0
10
237
0
9
237
0
4
234
0
0
251
0
196
255
0
255
244
0
117
232
0
0
236
0
14
236
0
12
236
0
12
236
0
12
236
0
12
236
0
12
236
0
12
236
0
12
236
0
12
236
0
12
236
0
12
236
0
12
236
0
12
236
0
12
236
0
12
236
0
12
236
0
12
236
0
12
236
0
12
236
0
12
236
0
12
236
0
12
236
0
12
236
0
12
236
0
12
236
0
12
236
0
12
236
0
12
236
0
12
236
0
12
236
0
12
237
0
29
241
0
81
237
0
24
236
0
11
236
0
11
236
0
11
236
0
11
236
0
11
236
0
11
236
0
11
236
0
11
236
0
11
236
0
12
235
0
0
235
0
9
254
0
246
255
0
255
240
0
74
233
0
0
237
0
12
237
0
11
237
0
11
237
0
11
237
0
11
237
0
11
237
0
11
237
0
11
237
0
11
237
0
11
237
0
11
237
0
11
237
0
11
237
0
11
237
0
11
237
0
11
237
0
13
232
0
0
241
0
80
255
0
255
251
0
207
233
0
0
236
0
4
236
0
12
236
0
12
236
0
12
236
0
12
236
0
12
236
0
12
236
0
12
236
0
12
236
0
12
236
0
12
236
0
13
236
0
15
237
0
22
238
0
42
240
0
60
240
0
63
239
0
55
237
0
31
236
0
12
236
0
12
236
0
12
236
0
12
236
0
12
236
0
12
236
0
12
236
0
12
236
0
12
236
0
12
236
0
12
236
0
12
237
0
29
0
0
0
68
0
63
249
0
177
245
0
131
240
0
69
237
0
22
236
0
12
236
0
12
236
0
12
236
0
12
236
0
12
236
0
13
233
0
4
240
0
67
255
0
255
254
0
247
244
0
111
244
0
119
247
0
146
247
0
157
247
0
152
244
0
111
238
0
35
236
0
12
236
0
12
236
0
12
236
0
12
236
0
12
236
0
12
236
0
12
236
0
12
236
0
12
236
0
12
236
0
12
236
0
12
235
0
2
233
0
3
252
0
226
255
0
255
239
0
62
233
0
0
237
0
25
241
0
78
246
0
136
247
0
158
249
0
173
250
0
190
251
0
202
251
0
208
252
0
212
252
0
216
252
0
221
253
0
225
169
0
157
0
0
0
0
0
0
0
0
0
0
0
0
0
0
0
252
0
211
248
0
169
246
0
138
241
0
80
237
0
25
236
0
12
236
0
12
236
0
12
236
0
12
236
0
12
236
0
12
236
0
12
236
0
12
0
0
0
0
0
0
0
0
0
0
0
0
0
0
0
34
0
32
252
0
214
249
0
182
248
0
166
248
0
169
249
0
184
251
0
206
252
0
224
34
0
32
0
0
0
0
0
0
0
0
0
0
0
0
0
0
0
0
0
0
0
0
0
0
0
0
0
0
0
248
0
168
242
0
86
240
0
64
240
0
64
240
0
65
240
0
67
241
0
72
241
0
76
241
0
80
242
0
83
242
0
87
242
0
91
243
0
96
241
0
101
250
0
198
255
0
255
251
0
214
249
0
192
0
0
0
0
0
0
0
0
0
0
0
0
0
0
0
0
0
0
0
0
0
0
0
0
0
0
0
0
0
0
0
0
0
0
0
0
0
0
0
0
0
0
0
0
0
0
0
0
0
0
0
0
0
0
0
0
0
0
0
0
0
0
0
0
0
0
0
0
0
251
0
203
246
0
135
242
0
85
240
0
69
240
0
64
240
0
64
241
0
71
244
0
112
0
0
0
0
0
0
0
0
0
0
0
0
0
0
0
0
0
0
0
0
0
0
0
0
0
0
0
0
0
0
0
0
0
0
0
0
0
0
0
0
0
0
0
0
0
0
0
0
0
0
0
0
0
0
0
0
0
0
0
0
0
0
0
0
0
0
0
0
0
0
0
0
0
0
0
0
0
0
0
0
0
0
0
0
0
0
0
0
0
0
0
0
0
0
0
0
0
0
0
0
0
0
0
0
0
0
0
0
0
0
0
0
0
0
0
0
0
0
0
0
0
0
0
0
0
0
0
0
0
0
0
0
0
0
0
0
0
0
0
0
0
0
0
0
0
0
0
0
0
0
0
0
0
0
0
0
0
0
0
0
0
0
0
0
0
0
0
0
0
0
0
0
0
0
0
0
0
0
0
0
0
0
0
0
0
0
0
0
0
0
0
0
0
0
0
0
0
0
0
0
0
0
0
0
0
0
0
0
0
0
0
0
0
0
0
0
0
0
0
0
0
0
0
0
0
0
0
0
0
0
0
0
0
0
0
0
0
0
0
0
0
0
0
0
0
0
0
0
0
0
0
0
0
0
0
0
0
0
0
0
0
0
0
0
0
0
0
0
0
0
0
0
0
0
0
0
0
0
0
0
0
0
0
0
0
0
0
0
0
0
0
0
0
0
0
0
0
0
0
0
0
0
0
0
0
0
0
0
0
0
0
0
0
0
0
0
0
0
0
0
0
0
0
0
0
0
0
0
0
0
0
0
0
0
0
0
0
0
0
0
0
0
0
0
0
0
0
0
0
0
0
0
0
0
0
0
0
0
0
0
0
0
0
0
0
0
0
0
0
0
0
0
0
0
0
0
0
0
0
0
0
0
0
0
0
0
0
0
0
0
0
0
0
0
0
0
0
0
0
0
0
0
0
0
0
0
0
0
0
0
0
0
0
0
0
0
0
0
0
0
0
0
0
0
0
0
0
0
0
0
0
0
0
0
0
0
0
0
0
0
0
0
0
0
0
0
0
0
0
0
0
0
0
0
0
0
0
0
0
0
0
0
0
0
0
0
0
0
0
0
0
0
0
0
0
0
0
0
0
0
0
0
0
0
0
0
0
0
0
0
0
0
0
0
0
0
0
0
0
0
0
0
0
0
0
0
0
0
0
0
0
0
0
0
0
0
0
0
0
0
0
0
0
0
0
0
0
0
0
0
0
0
0
0
0
0
0
0
0
0
0
0
0
0
0
0
0
0
0
0
0
0
0
0
0
0
0
0
0
0
0
0
0
0
0
0
0
0
0
0
0
0
0
0
0
0
0
0
0
0
0
0
0
0
0
0
0
0
0
0
0
0
0
0
0
0
0
0
0
0
0
0
0
0
0
0
0
0
0
0
0
0
0
0
0
0
0
0
0
0
0
0
0
0
0
0
0
0
0
0
0
0
0
0
0
0
0
0
0
0
0
0
0
0
0
0
0
0
0
0
0
0
0
0
0
0
0
0
0
0
0
0
0
0
0
0
0
0
0
0
0
0
0
0
0
0
0
0
0
0
0
0
0
0
0
0
0
0
0
0
0
0
0
0
0
0
0
0
0
0
0
0
0
0
0
0
0
0
0
0
0
0
0
0
0
0
0
0
0
0
0
0
0
0
0
0
0
0
0
0
0
0
0
0
0
0
0
0
0
0
0
0
0
0
0
0
0
0
0
0
0
0
0
0
0
0
0
0
0
0
0
0
0
0
0
0
0
0
0
0
0
0
0
0
0
0
0
0
0
0
0
0
0
0
0
0
0
0
0
0
0
0
0
0
0
0
0
0
0
0
0
0
0
0
0
0
0
0
0
0
0
0
0
0
0
0
0
0
0
0
0
0
0
0
0
0
0
0
0
0
0
0
0
0
0
0
0
0
0
0
0
0
0
0
0
0
0
0
0
0
0
0
0
0
0
0
0
0
0
0
0
0
0
0
0
0
0
0
0
0
0
0
0
0
0
0
0
0
0
0
0
0
0
0
0
0
0
0
0
0
0
0
0
0
0
0
0
0
0
0
0
0
0
0
0
0
0
0
0
0
0
0
0
0
0
0
0
0
0
0
0
0
0
0
0
0
0
0
0
0
0
0
0
0
0
0
0
0
0
0
0
0
0
0
0
0
0
0
0
0
0
0
0
0
0
0
0
0
0
0
0
0
0
0
0
0
0
0
0
0
0
0
0
0
0
0
0
0
0
0
0
0
0
0
0
0
0
0
0
0
0
0
0
0
0
0
0
0
0
0
0
0
0
0
0
0
0
0
0
0
0
0
0
0
0
0
0
0
0
0
0
0
0
0
0
0
0
0
0
0
0
0
0
0
0
0
0
0
0
0
0
0
0
0
0
0
0
0
0
0
0
0
0
0
0
0
0
0
0
0
0
0
0
0
0
0
0
0
0
0
0
0
0
0
0
0
0
0
0
0
0
0
0
0
0
0
0
0
0
0
0
0
0
0
0
0
0
0
0
0
0
0
0
0
0
0
0
0
0
0
0
0
0
0
0
0
0
0
0
0
0
0
0
0
0
0
0
0
0
0
0
0
0
0
0
0
0
0
0
0
0
0
0
0
0
0
0
0
0
0
0
0
0
0
0
0
0
0
0
0
0
0
0
0
0
0
0
0
0
0
0
0
0
0
0
0
0
0
0
0
0
0
0
0
0
0
0
0
0
0
0
0
0
0
0
0
0
0
0
0
0
0
0
0
0
0
0
0
0
0
0
0
0
0
0
0
0
0
0
0
0
0
0
0
0
0
0
0
0
0
0
0
0
0
0
0
0
0
0
0
0
0
0
0
0
0
0
0
0
0
0
0
0
0
0
0
0
0
0
0
0
0
0
0
0
0
0
0
0
0
0
0
0
0
0
0
0
0
0
0
0
0
0
0
0
0
0
0
0
0
0
0
0
0
0
0
0
0
0
0
0
0
0
0
0
0
0
0
0
0
0
0
0
0
0
0
0
0
0
0
0
0
0
0
0
0
0
0
0
0
0
0
0
0
0
0
0
0
0
0
0
0
0
0
0
0
0
0
0
0
0
0
0
0
0
0
0
0
0
0
0
0
0
0
0
0
0
0
0
0
0
0
0
0
0
0
0
0
0
0
0
0
0
0
0
0
0
0
0
0
0
0
0
0
0
0
0
0
0
0
0
0
0
0
0
0
0
0
0
0
0
0
0
0
0
0
0
0
0
0
0
0
0
0
0
0
0
0
0
0
0
0
0
0
0
0
0
0
0
0
0
0
0
0
0
0
0
0
0
0
0
0
0
0
0
0
0
0
0
0
0
0
0
0
0
0
0
0
0
0
0
0
0
0
0
0
0
0
0
0
0
0
0
0
0
0
0
0
0
0
0
0
0
0
0
0
0
0
0
0
0
0
0
0
0
0
0
0
0
0
0
0
0
0
0
0
0
0
0
0
0
0
0
0
0
0
0
0
0
0
0
0
0
0
0
0
0
0
0
0
0
0
0
0
0
0
0
0
0
0
0
0
0
0
0
0
0
0
0
0
0
0
0
0
0
0
0
0
0
0
0
0
0
0
0
0
0
0
0
0
0
0
0
0
0
0
0
0
0
0
0
0
0
0
0
0
0
0
0
0
0
0
0
0
0
0
0
0
0
0
0
0
0
0
0
0
0
0
0
0
0
0
0
0
0
0
0
0
0
0
0
0
0
0
0
0
0
0
0
0
0
0
0
0
0
0
0
0
0
0
0
0
0
0
0
0
0
0
0
0
0
0
0
0
0
0
0
0
0
0
0
0
0
0
0
0
0
0
0
0
0
0
0
0
0
0
0
0
0
0
0
0
0
0
0
0
0
0
0
0
0
0
0
0
0
0
0
0
0
0
0
0
0
0
0
0
0
0
0
0
0
0
0
0
0
0
0
0
0
0
0
0
0
0
0
0
0
0
0
0
0
0
0
0
0
0
0
0
0
0
0
0
0
0
0
0
0
0
0
0
0
0
0
0
0
0
0
0
0
0
0
0
0
0
0
0
0
0
0
0
0
0
0
0
0
0
0
0
0
0
0
0
0
0
0
0
0
0
0
0
0
0
0
0
0
0
0
0
0
0
0
0
0
0
0
0
0
0
0
0
0
0
0
0
0
0
0
0
0
0
0
0
0
0
0
0
0
0
0
0
0
0
0
0
0
0
0
0
0
0
0
0
0
0
0
0
0
0
0
0
0
0
0
0
0
0
0
0
0
0
0
0
0
0
0
0
0
0
0
0
0
0
0
0
0
0
0
0
0
0
0
0
0
0
0
0
0
0
0
0
0
0
0
0
0
0
0
0
0
0
0
0
0
0
0
0
0
0
0
0
0
0
0
0
0
0
0
0
0
0
0
0
0
0
0
0
0
0
0
0
0
0
0
0
