P3
72 72
255
0
0
0
0
0
0
0
0
0
0
0
0
0
0
0
0
229
196
0
194
116
0
165
51
0
152
22
0
152
23
0
153
24
0
153
24
0
153
24
0
153
24
0
153
24
0
153
24
0
153
24
0
153
24
0
153
24
0
153
24
0
153
24
0
153
24
0
153
24
0
153
24
0
153
24
0
153
24
0
153
24
0
153
24
0
153
24
0
153
24
0
153
24
0
153
24
0
153
24
0
153
24
0
153
24
0
153
24
0
153
24
0
153
24
0
153
24
0
153
24
0
153
24
0
153
24
0
153
24
0
153
24
0
153
24
0
153
24
0
153
24
0
153
24
0
153
24
0
153
24
0
153
24
0
153
24
0
153
24
0
153
24
0
153
24
0
153
24
0
153
24
0
153
24
0
153
24
0
153
24
0
153
24
0
153
24
0
152
23
0
151
21
0
163
47
0
191
110
0
226
189
0
0
0
0
0
0
0
0
0
0
0
0
0
0
0
0
0
0
0
0
0
0
0
0
0
244
230
0
180
85
0
145
6
0
145
6
0
145
6
0
145
6
0
145
6
0
145
6
0
145
6
0
145
6
0
145
6
0
145
6
0
145
6
0
145
6
0
145
6
0
145
6
0
145
6
0
145
6
0
145
6
0
145
6
0
145
6
0
145
6
0
145
6
0
145
6
0
145
6
0
145
6
0
145
6
0
145
6
0
145
6
0
145
6
0
145
6
0
145
6
0
145
6
0
145
6
0
145
6
0
145
6
0
145
6
0
145
6
0
145
6
0
145
6
0
145
6
0
145
6
0
145
6
0
145
6
0
145
6
0
145
6
0
145
6
0
145
6
0
145
6
0
145
6
0
145
6
0
145
6
0
145
6
0
145
6
0
145
6
0
145
6
0
145
6
0
145
6
0
145
6
0
145
6
0
145
6
0
145
6
0
145
6
0
145
6
0
176
76
0
240
221
0
0
0
0
0
0
0
0
0
0
0
0
0
0
0
0
237
214
0
155
31
0
143
6
0
143
6
0
143
6
0
143
6
0
143
6
0
143
6
0
143
6
0
143
6
0
143
6
0
143
6
0
143
6
0
143
6
0
143
6
0
143
6
0
143
6
0
143
6
0
143
6
0
143
6
0
143
6
0
143
6
0
143
6
0
143
6
0
143
6
0
143
6
0
143
6
0
143
6
0
143
6
0
143
6
0
143
6
0
143
6
0
143
6
0
143
6
0
143
6
0
143
6
0
143
6
0
143
6
0
143
6
0
143
6
0
143
6
0
143
6
0
143
6
0
143
6
0
143
6
0
143
6
0
143
6
0
143
6
0
143
6
0
143
6
0
143
6
0
143
6
0
143
6
0
143
6
0
143
6
0
143
6
0
143
6
0
143
6
0
143
6
0
143
6
0
143
6
0
143
6
0
143
6
0
143
6
0
143
6
0
143
6
0
151
22
0
232
203
0
0
0
0
0
0
0
0
0
0
33
32
0
150
23
0
143
6
0
143
6
0
143
6
0
143
6
0
143
6
0
143
6
0
143
6
0
143
6
0
143
6
0
143
6
0
143
6
0
143
6
0
143
6
0
143
6
0
143
6
0
143
6
0
143
6
0
143
6
0
143
6
0
143
6
0
143
6
0
143
6
0
143
6
0
143
6
0
143
6
0
143
6
0
143
6
0
143
6
0
143
6
0
143
6
0
143
6
0
143
6
0
143
6
0
143
6
0
143
6
0
143
6
0
143
6
0
143
6
0
143
6
0
143
6
0
143
6
0
143
6
0
143
6
0
143
6
0
143
6
0
143
6
0
143
6
0
143
6
0
143
6
0
143
6
0
143
6
0
143
6
0
143
6
0
143
6
0
143
6
0
143
6
0
143
6
0
143
6
0
143
6
0
143
6
0
143
6
0
143
6
0
143
6
0
143
6
0
143
6
0
143
6
0
145
11
0
243
229
0
0
0
0
0
0
0
176
80
0
142
6
0
142
6
0
142
6
0
142
6
0
142
6
0
142
6
0
142
6
0
142
6
0
142
6
0
142
6
0
142
6
0
142
6
0
142
6
0
142
6
0
142
6
0
142
6
0
142
6
0
142
6
0
142
6
0
142
6
0
142
6
0
142
6
0
142
6
0
142
6
0
142
6
0
142
6
0
142
6
0
142
6
0
142
6
0
142
6
0
142
6
0
142
6
0
142
6
0
142
6
0
142
6
0
142
6
0
142
6
0
142
6
0
142
6
0
142
6
0
142
6
0
142
6
0
142
6
0
142
6
0
142
6
0
142
6
0
142
6
0
142
6
0
142
6
0
142
6
0
142
6
0
142
6
0
142
6
0
142
6
0
142
6
0
142
6
0
142
6
0
142
6
0
142
6
0
142
6
0
142
6
0
142
6
0
142
6
0
142
6
0
142
6
0
142
6
0
142
6
0
142
6
0
167
61
0
0
0
0
232
204
0
142
6
0
142
6
0
142
6
0
142
6
0
142
6
0
142
6
0
142
6
0
142
6
0
142
6
0
142
6
0
142
6
0
142
6
0
142
6
0
142
6
0
142
6
0
142
6
0
142
6
0
142
6
0
142
6
0
142
6
0
142
6
0
142
6
0
142
6
0
142
6
0
142
6
0
142
6
0
142
6
0
142
6
0
142
6
0
142
6
0
142
6
0
142
6
0
142
6
0
142
6
0
142
6
0
142
6
0
142
6
0
142
6
0
142
6
0
142
6
0
142
6
0
142
6
0
142
6
0
142
6
0
142
6
0
142
6
0
142
6
0
142
6
0
142
6
0
142
6
0
142
6
0
142
6
0
142
6
0
142
6
0
142
6
0
142
6
0
142
6
0
142
6
0
142
6
0
142
6
0
142
6
0
142
6
0
142
6
0
142
6
0
142
6
0
142
6
0
142
6
0
142
6
0
142
6
0
142
6
0
224
188
0
191
114
0
142
6
0
142
6
0
142
6
0
142
6
0
142
6
0
142
6
0
142
6
0
142
6
0
142
6
0
142
6
0
142
6
0
142
6
0
142
6
0
142
6
0
142
6
0
142
6
0
142
6
0
142
6
0
142
6
0
142
6
0
142
6
0
142
6
0
142
6
0
142
6
0
142
6
0
142
6
0
142
6
0
142
6
0
142
6
0
142
6
0
142
6
0
142
6
0
142
6
0
142
6
0
142
6
0
142
6
0
142
6
0
142
6
0
142
6
0
142
6
0
142
6
0
142
6
0
142
6
0
142
6
0
142
6
0
142
6
0
142
6
0
142
6
0
142
6
0
142
6
0
142
6
0
142
6
0
142
6
0
142
6
0
142
6
0
142
6
0
142
6
0
142
6
0
142
6
0
142
6
0
142
6
0
142
6
0
142
6
0
142
6
0
142
6
0
142
6
0
142
6
0
142
6
0
142
6
0
142
6
0
178
86
0
160
48
0
141
6
0
141
6
0
141
6
0
141
6
0
141
6
0
141
6
0
141
6
0
141
6
0
141
6
0
141
6
0
141
6
0
141
6
0
141
6
0
141
6
0
141
6
0
141
6
0
141
6
0
141
6
0
141
6
0
141
6
0
141
6
0
141
6
0
141
6
0
141
6
0
141
6
0
141
6
0
141
6
0
141
6
0
141
6
0
141
6
0
141
6
0
141
6
0
141
6
0
141
6
0
141
6
0
141
6
0
141
6
0
141
6
0
141
6
0
141
6
0
141
6
0
141
6
0
141
6
0
141
6
0
141
6
0
141
6
0
141
6
0
141
6
0
141
6
0
141
6
0
141
6
0
141
6
0
141
6
0
141
6
0
141
6
0
141
6
0
141
6
0
141
6
0
141
6
0
141
6
0
141
6
0
141
6
0
141
6
0
141
6
0
141
6
0
141
6
0
141
6
0
141
6
0
141
6
0
141
6
0
153
32
0
146
20
0
140
6
0
140
6
0
140
6
0
140
6
0
140
6
0
140
6
0
140
6
0
140
6
0
140
6
0
140
6
0
140
6
0
140
6
0
140
6
0
140
6
0
140
6
0
140
6
0
140
6
0
140
6
0
140
6
0
140
6
0
140
6
0
140
6
0
140
6
0
140
6
0
140
6
0
140
6
0
140
6
0
140
6
0
140
6
0
140
6
0
140
6
0
140
6
0
140
6
0
140
6
0
140
6
0
140
6
0
140
6
0
140
6
0
140
6
0
140
6
0
140
6
0
140
6
0
140
6
0
140
6
0
140
6
0
140
6
0
140
6
0
140
6
0
140
6
0
140
6
0
140
6
0
140
6
0
140
6
0
140
6
0
140
6
0
140
6
0
140
6
0
140
6
0
140
6
0
140
6
0
140
6
0
140
6
0
140
6
0
140
6
0
140
6
0
140
6
0
140
6
0
140
6
0
140
6
0
140
6
0
148
24
0
146
22
0
139
6
0
139
6
0
139
6
0
139
6
0
139
6
0
139
6
0
139
6
0
139
6
0
139
6
0
139
6
0
139
6
0
139
6
0
139
6
0
139
6
0
139
6
0
139
6
0
139
6
0
139
6
0
139
6
0
139
6
0
139
6
0
139
6
0
139
6
0
139
6
0
139
6
0
139
6
0
139
6
0
139
6
0
139
6
0
139
6
0
139
6
0
139
6
0
139
6
0
139
6
0
139
6
0
139
6
0
139
6
0
139
6
0
139
6
0
139
6
0
139
6
0
139
6
0
139
6
0
139
6
0
139
6
0
139
6
0
139
6
0
139
6
0
139
6
0
139
6
0
139
6
0
139
6
0
139
6
0
139
6
0
139
6
0
139
6
0
139
6
0
139
6
0
139
6
0
139
6
0
139
6
0
139
6
0
139
6
0
139
6
0
139
6
0
139
6
0
139
6
0
139
6
0
139
6
0
139
6
0
147
23
0
147
24
0
139
6
0
139
6
0
139
6
0
139
6
0
139
6
0
139
6
0
139
6
0
139
6
0
139
6
0
139
6
0
139
6
0
139
6
0
139
6
0
139
6
0
139
6
0
139
6
0
139
6
0
139
6
0
139
6
0
139
6
0
139
6
0
139
6
0
139
6
0
139
6
0
139
6
0
139
6
0
139
6
0
139
6
0
139
6
0
139
6
0
139
6
0
139
6
0
139
6
0
139
6
0
139
6
0
139
6
0
139
6
0
139
6
0
139
6
0
139
6
0
139
6
0
139
6
0
139
6
0
139
6
0
139
6
0
139
6
0
139
6
0
139
6
0
139
6
0
139
6
0
139
6
0
139
6
0
139
6
0
139
6
0
139
6
0
139
6
0
139
6
0
139
6
0
139
6
0
139
6
0
139
6
0
139
6
0
139
6
0
139
6
0
139
6
0
139
6
0
139
6
0
139
6
0
139
6
0
139
6
0
147
24
0
145
24
0
137
6
0
137
6
0
137
6
0
137
6
0
137
6
0
137
6
0
137
6
0
137
6
0
137
6
0
137
6
0
137
6
0
137
6
0
137
6
0
137
6
0
137
6
0
137
6
0
137
6
0
137
6
0
137
6
0
137
6
0
137
6
0
137
6
0
137
6
0
137
6
0
137
6
0
137
6
0
137
6
0
137
6
0
137
6
0
137
6
0
137
6
0
137
6
0
137
6
0
137
6
0
137
6
0
137
6
0
137
6
0
137
6
0
137
6
0
137
6
0
137
6
0
137
6
0
137
6
0
137
6
0
137
6
0
137
6
0
137
6
0
137
6
0
137
6
0
137
6
0
137
6
0
137
6
0
137
6
0
137
6
0
137
6
0
137
6
0
137
6
0
137
6
0
137
6
0
137
6
0
137
6
0
137
6
0
137
6
0
137
6
0
137
6
0
137
6
0
137
6
0
137
6
0
137
6
0
137
6
0
145
24
0
145
24
0
137
6
0
137
6
0
137
6
0
137
6
0
137
6
0
137
6
0
137
6
0
137
6
0
137
6
0
137
6
0
137
6
0
137
6
0
137
6
0
137
6
0
137
6
0
137
6
0
137
6
0
137
6
0
137
6
0
137
6
0
137
6
0
137
6
0
137
6
0
137
6
0
137
6
0
137
6
0
137
6
0
137
6
0
137
6
0
137
6
0
137
6
0
137
6
0
137
6
0
137
6
0
137
6
0
137
6
0
137
6
0
137
6
0
137
6
0
137
6
0
137
6
0
137
6
0
137
6
0
137
6
0
137
6
0
137
6
0
137
6
0
137
6
0
137
6
0
137
6
0
137
6
0
137
6
0
137
6
0
137
6
0
137
6
0
137
6
0
137
6
0
137
6
0
137
6
0
137
6
0
137
6
0
137
6
0
137
6
0
137
6
0
137
6
0
137
6
0
137
6
0
137
6
0
137
6
0
137
6
0
145
24
0
145
24
0
137
6
0
137
6
0
137
6
0
137
6
0
137
6
0
137
6
0
137
6
0
137
6
0
137
6
0
137
6
0
137
6
0
137
6
0
137
6
0
137
6
0
137
6
0
137
6
0
137
6
0
137
6
0
137
6
0
137
6
0
137
6
0
137
6
0
137
6
0
137
6
0
137
6
0
137
6
0
137
6
0
137
6
0
137
6
0
137
6
0
137
6
0
137
6
0
137
6
0
137
6
0
137
6
0
137
6
0
137
6
0
137
6
0
137
6
0
137
6
0
137
6
0
137
6
0
137
6
0
137
6
0
137
6
0
137
6
0
137
6
0
137
6
0
137
6
0
137
6
0
137
6
0
137
6
0
137
6
0
137
6
0
137
6
0
137
6
0
137
6
0
137
6
0
137
6
0
137
6
0
137
6
0
137
6
0
137
6
0
137
6
0
137
6
0
137
6
0
137
6
0
137
6
0
137
6
0
137
6
0
145
24
0
145
24
0
137
6
0
137
6
0
137
6
0
137
6
0
137
6
0
137
6
0
137
6
0
137
6
0
137
6
0
137
6
0
137
6
0
137
6
0
137
6
0
137
6
0
137
6
0
137
6
0
137
6
0
137
6
0
137
6
0
137
6
0
137
6
0
137
6
0
137
6
0
137
6
0
137
6
0
137
6
0
137
6
0
137
6
0
137
6
0
137
6
0
137
6
0
137
6
0
137
6
0
137
6
0
137
6
0
137
6
0
137
6
0
137
6
0
137
6
0
137
6
0
137
6
0
137
6
0
137
6
0
137
6
0
137
6
0
137
6
0
137
6
0
137
6
0
137
6
0
137
6
0
137
6
0
137
6
0
137
6
0
137
6
0
137
6
0
137
6
0
137
6
0
137
6
0
137
6
0
137
6
0
137
6
0
137
6
0
137
6
0
137
6
0
137
6
0
137
6
0
137
6
0
137
6
0
137
6
0
137
6
0
145
24
0
144
24
0
136
6
0
136
6
0
136
6
0
136
6
0
136
6
0
135
6
0
135
6
0
137
6
0
137
6
0
136
6
0
135
6
0
136
6
0
136
6
0
136
6
0
136
6
0
136
6
0
136
6
0
136
6
0
136
6
0
135
6
0
136
6
0
137
6
0
137
7
0
137
7
0
136
6
0
135
6
0
136
6
0
136
6
0
136
6
0
136
6
0
136
6
0
136
6
0
136
6
0
136
6
0
136
6
0
136
6
0
136
6
0
136
6
0
136
6
0
136
6
0
136
6
0
136
6
0
136
6
0
136
6
0
136
6
0
136
6
0
136
6
0
136
6
0
136
6
0
136
6
0
136
6
0
136
6
0
136
6
0
136
6
0
136
6
0
136
6
0
136
6
0
136
6
0
136
6
0
136
6
0
136
6
0
136
6
0
136
6
0
136
6
0
136
6
0
136
6
0
136
6
0
136
6
0
136
6
0
136
6
0
144
24
0
143
24
0
134
6
0
134
6
0
134
6
0
134
6
0
134
6
0
136
7
0
134
0
0
121
0
0
114
0
0
122
0
0
136
3
0
135
6
0
134
6
0
134
6
0
134
6
0
134
6
0
134
6
0
134
6
0
134
6
0
136
7
0
134
0
0
119
0
0
111
0
0
112
0
0
128
0
0
138
7
0
134
6
0
134
6
0
134
6
0
134
6
0
134
6
0
134
6
0
134
6
0
134
6
0
134
6
0
134
6
0
134
6
0
134
6
0
134
6
0
134
6
0
134
6
0
134
6
0
134
6
0
134
6
0
134
6
0
134
6
0
134
6
0
134
6
0
134
6
0
134
6
0
134
6
0
134
6
0
134
6
0
134
6
0
134
6
0
134
6
0
134
6
0
134
6
0
134
6
0
134
6
0
134
6
0
134
6
0
134
6
0
134
6
0
134
6
0
134
6
0
134
6
0
134
6
0
134
6
0
134
6
0
143
24
0
143
24
0
134
6
0
134
6
0
134
6
0
134
6
0
137
7
0
128
0
0
115
0
0
143
39
0
156
72
0
141
36
0
114
0
0
132
3
0
135
7
0
134
6
0
134
6
0
134
6
0
134
6
0
134
6
0
137
7
0
127
0
0
115
0
0
145
47
0
183
115
0
179
106
0
125
8
0
116
0
0
138
6
0
134
6
0
134
6
0
134
6
0
134
6
0
134
6
0
134
6
0
134
6
0
134
6
0
134
6
0
134
6
0
134
6
0
134
6
0
134
6
0
134
6
0
134
6
0
134
6
0
134
6
0
134
6
0
134
6
0
134
6
0
134
6
0
134
6
0
134
6
0
134
6
0
134
6
0
134
6
0
134
6
0
134
6
0
134
6
0
134
6
0
134
6
0
134
6
0
134
6
0
134
6
0
134
6
0
134
6
0
134
6
0
134
6
0
134
6
0
134
6
0
134
6
0
134
6
0
134
6
0
143
24
0
142
24
0
133
6
0
133
6
0
133
6
0
134
7
0
128
3
0
115
0
0
203
162
0
255
255
0
255
255
0
254
253
0
177
118
0
105
0
0
135
3
0
133
6
0
133
6
0
133
6
0
133
6
0
134
6
0
129
3
0
115
0
0
205
167
0
255
255
0
255
255
0
255
255
0
232
216
0
130
33
0
111
0
0
137
6
0
133
6
0
133
6
0
133
6
0
133
6
0
133
6
0
133
6
0
133
6
0
133
6
0
133
6
0
133
6
0
133
6
0
133
6
0
133
6
0
133
6
0
133
6
0
133
6
0
133
6
0
133
6
0
133
6
0
133
6
0
133
6
0
133
6
0
133
6
0
133
6
0
133
6
0
133
6
0
133
6
0
133
6
0
133
6
0
133
6
0
133
6
0
133
6
0
133
6
0
133
6
0
133
6
0
133
6
0
133
6
0
133
6
0
133
6
0
133
6
0
133
6
0
133
6
0
142
24
0
142
24
0
133
6
0
133
6
0
133
6
0
137
5
0
104
0
0
183
119
0
255
255
0
255
255
0
255
255
0
255
255
0
255
255
0
156
73
0
106
0
0
137
6
0
133
6
0
133
6
0
133
6
0
137
6
0
104
0
0
169
93
0
255
255
0
255
255
0
255
255
0
255
255
0
255
255
0
244
233
0
127
27
0
116
0
0
136
7
0
133
6
0
133
6
0
133
6
0
133
6
0
133
6
0
133
6
0
133
6
0
133
6
0
133
6
0
133
6
0
133
6
0
133
6
0
133
6
0
133
6
0
133
6
0
133
6
0
133
6
0
133
6
0
133
6
0
133
6
0
133
6
0
133
6
0
133
6
0
133
6
0
133
6
0
133
6
0
133
6
0
133
6
0
133
6
0
133
6
0
133
6
0
133
6
0
133
6
0
133
6
0
133
6
0
133
6
0
133
6
0
133
6
0
133
6
0
133
6
0
133
6
0
142
24
0
142
24
0
133
6
0
133
6
0
134
7
0
121
0
0
125
12
0
250
247
0
255
255
0
255
255
0
255
255
0
255
255
0
255
255
0
248
243
0
120
13
0
120
0
0
134
7
0
133
6
0
133
6
0
128
1
0
115
0
0
236
220
0
255
255
0
255
255
0
255
255
0
255
255
0
255
255
0
255
255
0
229
207
0
110
0
0
130
1
0
133
6
0
133
6
0
133
6
0
133
6
0
133
6
0
133
6
0
133
6
0
133
6
0
133
6
0
133
6
0
133
6
0
133
6
0
133
6
0
133
6
0
132
6
0
133
6
0
134
7
0
133
7
0
133
4
0
132
2
0
133
5
0
133
6
0
132
6
0
133
6
0
133
6
0
133
6
0
133
6
0
133
6
0
133
6
0
133
6
0
133
6
0
133
6
0
133
6
0
133
6
0
133
6
0
133
6
0
133
6
0
133
6
0
133
6
0
133
6
0
133
6
0
142
24
0
141
24
0
132
6
0
132
6
0
134
5
0
104
0
0
188
131
0
255
255
0
255
255
0
255
255
0
255
255
0
255
255
0
255
255
0
255
255
0
208
167
0
102
0
0
134
3
0
132
6
0
135
7
0
104
0
0
169
89
0
255
255
0
255
255
0
255
255
0
255
255
0
255
255
0
255
255
0
255
255
0
255
255
0
166
84
0
104
0
0
135
7
0
132
6
0
132
6
0
132
6
0
132
6
0
132
6
0
132
6
0
132
6
0
132
6
0
132
6
0
132
6
0
132
6
0
132
6
0
132
6
0
134
7
0
130
0
0
113
0
0
107
0
0
109
0
0
110
0
0
108
0
0
125
0
0
135
3
0
130
0
0
128
0
0
131
1
0
133
6
0
133
6
0
132
6
0
132
6
0
132
6
0
132
6
0
132
6
0
132
6
0
132
6
0
132
6
0
132
6
0
132
6
0
132
6
0
132
6
0
132
6
0
141
24
0
140
24
0
131
6
0
132
6
0
126
0
0
119
0
0
244
235
0
255
255
0
255
255
0
255
255
0
255
255
0
255
255
0
255
255
0
255
255
0
255
255
0
144
44
0
109
0
0
135
7
0
128
1
0
111
0
0
230
208
0
255
255
0
255
255
0
255
255
0
255
255
0
255
255
0
255
255
0
255
255
0
255
255
0
229
207
0
109
0
0
129
1
0
131
6
0
131
6
0
131
6
0
131
6
0
131
6
0
131
6
0
131
6
0
131
6
0
131
6
0
131
6
0
131
6
0
131
6
0
134
7
0
125
0
0
112
0
0
156
74
0
189
126
0
200
150
0
207
165
0
190
128
0
122
11
0
101
0
0
115
0
0
119
0
0
110
0
0
107
0
0
114
0
0
126
0
0
134
7
0
131
6
0
131
6
0
131
6
0
131
6
0
131
6
0
131
6
0
131
6
0
131
6
0
131
6
0
131
6
0
131
6
0
140
24
0
140
24
0
130
6
0
135
7
0
103
0
0
154
66
0
255
255
0
255
255
0
255
255
0
255
255
0
255
255
0
255
255
0
255
255
0
255
255
0
255
255
0
218
189
0
99
0
0
132
3
0
111
0
0
148
51
0
255
255
0
255
255
0
255
255
0
255
255
0
255
255
0
255
255
0
255
255
0
255
255
0
255
255
0
255
255
0
153
60
0
108
0
0
133
7
0
131
6
0
131
6
0
131
6
0
131
6
0
131
6
0
131
6
0
131
6
0
131
6
0
131
6
0
131
6
0
131
6
0
128
3
0
107
0
0
204
165
0
255
255
0
255
255
0
255
255
0
255
255
0
255
255
0
234
221
0
197
157
0
218
187
0
226
205
0
210
172
0
185
125
0
141
49
0
119
0
0
106
0
0
131
1
0
133
7
0
131
6
0
131
6
0
131
6
0
131
6
0
131
6
0
131
6
0
131
6
0
131
6
0
131
6
0
140
24
0
138
24
0
131
7
0
122
0
0
103
0
0
228
205
0
255
255
0
255
255
0
255
255
0
255
255
0
255
255
0
255
255
0
255
255
0
255
255
0
255
255
0
255
255
0
164
85
0
84
0
0
86
0
0
207
169
0
255
255
0
255
255
0
255
255
0
255
255
0
255
255
0
255
255
0
255
255
0
255
255
0
255
255
0
255
255
0
215
183
0
103
0
0
131
2
0
129
6
0
129
6
0
129
6
0
129
6
0
129
6
0
129
6
0
129
6
0
129
6
0
129
6
0
129
6
0
132
6
0
105
0
0
157
75
0
255
255
0
255
255
0
255
255
0
255
255
0
255
255
0
255
255
0
255
255
0
255
255
0
255
255
0
255
255
0
255
255
0
255
255
0
255
255
0
230
213
0
165
97
0
108
0
0
129
3
0
130
7
0
129
6
0
129
6
0
129
6
0
129
6
0
129
6
0
129
6
0
129
6
0
129
6
0
138
24
0
139
24
0
130
3
0
93
0
0
195
144
0
255
255
0
255
255
0
255
255
0
255
255
0
255
255
0
255
255
0
255
255
0
255
255
0
255
255
0
255
255
0
255
255
0
255
253
0
150
84
0
160
93
0
255
255
0
255
255
0
255
255
0
255
255
0
255
255
0
255
255
0
255
255
0
255
255
0
255
255
0
255
255
0
255
255
0
255
255
0
139
41
0
112
0
0
130
7
0
129
6
0
129
6
0
129
6
0
129
6
0
129
6
0
129
6
0
129
6
0
129
6
0
129
6
0
121
1
0
123
10
0
244
233
0
255
255
0
255
255
0
255
255
0
255
255
0
255
255
0
255
255
0
255
255
0
255
255
0
255
255
0
255
255
0
255
255
0
255
255
0
255
255
0
255
255
0
255
255
0
167
101
0
103
0
0
131
5
0
129
6
0
129
6
0
129
6
0
129
6
0
129
6
0
129
6
0
129
6
0
129
6
0
138
24
0
141
23
0
93
0
0
161
90
0
255
255
0
255
255
0
255
255
0
255
255
0
255
255
0
255
255
0
255
255
0
255
255
0
255
255
0
255
255
0
255
255
0
255
255
0
255
255
0
255
255
0
255
255
0
255
255
0
255
255
0
255
255
0
255
255
0
255
255
0
255
255
0
255
255
0
255
255
0
255
255
0
255
255
0
255
255
0
255
255
0
190
138
0
98
0
0
131
5
0
128
6
0
128
6
0
128
6
0
128
6
0
128
6
0
128
6
0
128
6
0
128
6
0
129
6
0
117
0
0
130
12
0
253
248
0
255
255
0
255
255
0
255
255
0
255
255
0
255
255
0
255
255
0
255
255
0
255
255
0
255
255
0
255
255
0
255
255
0
255
255
0
255
255
0
255
255
0
255
255
0
243
233
0
119
10
0
122
0
0
128
6
0
128
6
0
128
6
0
128
6
0
128
6
0
128
6
0
128
6
0
128
6
0
137
24
0
102
18
0
140
55
0
255
255
0
255
255
0
255
255
0
255
255
0
255
255
0
255
255
0
255
255
0
255
255
0
255
255
0
255
255
0
255
255
0
255
255
0
255
255
0
255
255
0
255
255
0
255
255
0
255
255
0
255
255
0
255
255
0
255
255
0
255
255
0
255
255
0
255
255
0
255
255
0
255
255
0
255
255
0
255
255
0
255
255
0
240
229
0
110
0
0
119
0
0
130
7
0
128
6
0
128
6
0
128
6
0
128
6
0
128
6
0
128
6
0
128
6
0
129
6
0
110
0
0
144
55
0
254
254
0
255
255
0
255
255
0
255
255
0
255
255
0
255
255
0
255
255
0
255
255
0
255
255
0
255
255
0
255
255
0
255
255
0
255
255
0
255
255
0
255
255
0
255
255
0
255
255
0
141
42
0
111
0
0
129
6
0
128
6
0
128
6
0
128
6
0
128
6
0
128
6
0
128
6
0
128
6
0
137
24
0
163
100
0
254
248
0
255
255
0
255
255
0
255
255
0
255
255
0
255
255
0
255
255
0
255
255
0
255
255
0
255
255
0
255
255
0
255
255
0
255
255
0
255
255
0
255
255
0
255
255
0
255
255
0
255
255
0
255
255
0
255
255
0
255
255
0
255
255
0
255
255
0
255
255
0
255
255
0
255
255
0
255
255
0
255
255
0
255
255
0
255
255
0
185
129
0
93
0
0
130
4
0
127
6
0
127
6
0
127
6
0
127
6
0
127
6
0
127
6
0
127
6
0
129
8
0
102
0
0
171
99
0
255
255
0
255
255
0
255
255
0
255
255
0
255
255
0
255
255
0
255
255
0
255
255
0
255
255
0
255
255
0
255
255
0
255
255
0
255
255
0
251
246
0
222
207
0
251
247
0
241
227
0
120
6
0
121
0
0
127
6
0
127
6
0
127
6
0
127
6
0
127
6
0
127
6
0
127
6
0
127
6
0
136
24
0
255
255
0
255
255
0
255
255
0
255
255
0
255
255
0
255
255
0
255
255
0
255
255
0
255
255
0
255
255
0
255
255
0
255
255
0
255
255
0
255
255
0
255
255
0
255
255
0
255
255
0
255
255
0
255
255
0
255
255
0
255
255
0
255
255
0
255
255
0
255
255
0
255
255
0
255
255
0
255
255
0
255
255
0
255
255
0
255
255
0
255
255
0
255
255
0
140
54
0
88
0
0
128
0
0
130
7
0
127
6
0
127
6
0
127
6
0
127
6
0
127
6
0
130
5
0
98
0
0
191
135
0
255
255
0
255
255
0
255
255
0
255
255
0
255
255
0
255
255
0
255
255
0
255
255
0
255
255
0
255
255
0
233
223
0
209
178
0
178
118
0
127
28
0
110
0
0
132
26
0
145
55
0
126
5
0
126
3
0
127
6
0
127
6
0
127
6
0
127
6
0
127
6
0
127
6
0
127
6
0
127
6
0
136
24
0
255
255
0
255
255
0
255
255
0
255
255
0
255
255
0
255
255
0
255
255
0
255
255
0
255
255
0
255
255
0
255
255
0
255
255
0
255
255
0
255
255
0
255
255
0
255
255
0
255
255
0
255
255
0
255
255
0
255
255
0
255
255
0
255
255
0
255
255
0
255
255
0
255
255
0
255
255
0
255
255
0
255
255
0
255
255
0
255
255
0
255
255
0
255
255
0
246
238
0
145
72
0
95
0
0
101
0
0
121
0
0
128
5
0
128
6
0
127
6
0
129
6
0
120
0
0
111
0
0
240
229
0
255
255
0
255
255
0
255
255
0
255
255
0
255
255
0
255
255
0
255
255
0
255
255
0
235
222
0
143
76
0
113
4
0
104
0
0
100
0
0
113
0
0
125
0
0
114
0
0
109
0
0
127
6
0
127
7
0
126
6
0
126
6
0
126
6
0
126
6
0
126
6
0
126
6
0
126
6
0
126
6
0
135
24
0
255
255
0
255
255
0
255
255
0
255
255
0
255
255
0
255
255
0
255
255
0
255
255
0
255
255
0
255
255
0
255
255
0
255
255
0
255
255
0
255
255
0
255
255
0
255
255
0
255
255
0
255
255
0
255
255
0
255
255
0
255
255
0
255
255
0
255
255
0
255
255
0
255
255
0
255
255
0
255
255
0
255
255
0
255
255
0
255
255
0
255
255
0
255
255
0
255
255
0
255
255
0
204
176
0
145
75
0
112
1
0
96
0
0
104
0
0
108
0
0
106
0
0
75
0
0
167
99
0
255
255
0
255
255
0
255
255
0
255
255
0
255
255
0
255
255
0
255
255
0
255
255
0
252
249
0
133
37
0
84
0
0
121
0
0
125
0
0
126
6
0
126
6
0
125
6
0
126
6
0
126
6
0
125
6
0
125
6
0
125
6
0
125
6
0
125
6
0
125
6
0
125
6
0
125
6
0
125
6
0
125
6
0
134
24
0
255
255
0
255
255
0
255
255
0
255
255
0
255
255
0
255
255
0
255
255
0
255
255
0
255
255
0
255
255
0
255
255
0
255
255
0
255
255
0
255
255
0
255
255
0
255
255
0
255
255
0
255
255
0
255
255
0
255
255
0
255
255
0
255
255
0
255
255
0
255
255
0
255
255
0
255
255
0
255
255
0
255
255
0
255
255
0
255
255
0
255
255
0
255
255
0
255
255
0
255
255
0
255
255
0
255
255
0
231
218
0
188
140
0
147
75
0
137
48
0
139
61
0
166
111
0
252
248
0
255
255
0
255
255
0
255
255
0
255
255
0
255
255
0
255
255
0
255
255
0
255
255
0
223
202
0
100
0
0
124
0
0
124
6
0
124
6
0
124
6
0
124
6
0
124
6
0
124
6
0
124
6
0
124
6
0
124
6
0
124
6
0
124
6
0
124
6
0
124
6
0
124
6
0
124
6
0
124
6
0
124
6
0
133
24
0
255
255
0
255
255
0
255
255
0
255
255
0
255
255
0
255
255
0
255
255
0
255
255
0
255
255
0
255
255
0
255
255
0
255
255
0
255
255
0
255
255
0
255
255
0
255
255
0
255
255
0
255
255
0
255
255
0
255
255
0
255
255
0
255
255
0
255
255
0
255
255
0
255
255
0
255
255
0
255
255
0
255
255
0
255
255
0
255
255
0
255
255
0
255
255
0
255
255
0
255
255
0
255
255
0
255
255
0
255
255
0
255
255
0
255
255
0
255
255
0
255
255
0
255
255
0
255
255
0
255
255
0
255
255
0
255
255
0
255
255
0
255
255
0
255
255
0
255
255
0
255
255
0
196
149
0
96
0
0
125
4
0
124
6
0
124
6
0
124
6
0
124
6
0
124
6
0
124
6
0
124
6
0
124
6
0
124
6
0
124
6
0
124
6
0
124
6
0
124
6
0
124
6
0
124
6
0
124
6
0
124
6
0
133
24
0
255
255
0
255
255
0
255
255
0
255
255
0
255
255
0
255
255
0
255
255
0
255
255
0
255
255
0
255
255
0
255
255
0
255
255
0
255
255
0
255
255
0
255
255
0
255
255
0
255
255
0
255
255
0
255
255
0
255
255
0
255
255
0
255
255
0
255
255
0
255
255
0
255
255
0
255
255
0
255
255
0
255
255
0
255
255
0
255
255
0
255
255
0
255
255
0
255
255
0
255
255
0
255
255
0
255
255
0
255
255
0
255
255
0
255
255
0
255
255
0
255
255
0
255
255
0
255
255
0
255
255
0
255
255
0
255
255
0
255
255
0
255
255
0
255
255
0
255
255
0
255
255
0
144
55
0
103
0
0
126
7
0
124
6
0
124
6
0
124
6
0
124
6
0
124
6
0
124
6
0
124
6
0
124
6
0
124
6
0
124
6
0
124
6
0
124
6
0
124
6
0
124
6
0
124
6
0
124
6
0
124
6
0
133
24
0
255
255
0
255
255
0
255
255
0
255
255
0
255
255
0
255
255
0
255
255
0
255
255
0
255
255
0
255
255
0
255
255
0
255
255
0
255
255
0
255
255
0
255
255
0
255
255
0
255
255
0
255
255
0
255
255
0
255
255
0
255
255
0
255
255
0
255
255
0
255
255
0
255
255
0
255
255
0
255
255
0
255
255
0
255
255
0
255
255
0
255
255
0
255
255
0
255
255
0
255
255
0
255
255
0
255
255
0
255
255
0
255
255
0
255
255
0
255
255
0
255
255
0
255
255
0
255
255
0
255
255
0
255
255
0
255
255
0
255
255
0
255
255
0
255
255
0
255
255
0
217
188
0
96
0
0
123
3
0
123
6
0
123
6
0
123
6
0
123
6
0
123
6
0
123
6
0
123
6
0
123
6
0
123
6
0
123
6
0
123
6
0
123
6
0
123
6
0
123
6
0
123
6
0
123
6
0
123
6
0
123
6
0
132
24
0
255
255
0
255
255
0
255
255
0
255
255
0
255
255
0
255
255
0
255
255
0
255
255
0
255
255
0
255
255
0
255
255
0
255
255
0
255
255
0
255
255
0
255
255
0
255
255
0
255
255
0
255
255
0
255
255
0
255
255
0
255
255
0
255
255
0
255
255
0
255
255
0
255
255
0
255
255
0
255
255
0
255
255
0
255
255
0
255
255
0
255
255
0
255
255
0
255
255
0
255
255
0
255
255
0
255
255
0
255
255
0
255
255
0
255
255
0
255
255
0
255
255
0
255
255
0
255
255
0
255
255
0
255
255
0
255
255
0
255
255
0
255
255
0
255
255
0
255
255
0
124
31
0
103
0
0
125
7
0
122
6
0
122
6
0
122
6
0
122
6
0
122
6
0
122
6
0
122
6
0
122
6
0
122
6
0
122
6
0
122
6
0
122
6
0
122
6
0
122
6
0
122
6
0
122
6
0
122
6
0
122
6
0
131
24
0
255
255
0
255
255
0
255
255
0
255
255
0
255
255
0
255
255
0
255
255
0
255
255
0
255
255
0
255
255
0
255
255
0
255
255
0
255
255
0
255
255
0
255
255
0
255
255
0
255
255
0
255
255
0
255
255
0
255
255
0
255
255
0
255
255
0
255
255
0
255
255
0
255
255
0
255
255
0
255
255
0
255
255
0
255
255
0
255
255
0
255
255
0
255
255
0
255
255
0
255
255
0
255
255
0
255
255
0
255
255
0
255
255
0
255
255
0
255
255
0
255
255
0
255
255
0
255
255
0
255
255
0
255
255
0
255
255
0
255
255
0
255
255
0
255
255
0
161
102
0
90
0
0
126
5
0
121
6
0
122
6
0
122
6
0
122
6
0
122
6
0
122
6
0
122
6
0
122
6
0
122
6
0
122
6
0
122
6
0
122
6
0
122
6
0
122
6
0
122
6
0
122
6
0
122
6
0
122
6
0
122
6
0
131
24
0
255
255
0
255
255
0
255
255
0
255
255
0
255
255
0
255
255
0
255
255
0
255
255
0
255
255
0
255
255
0
255
255
0
255
255
0
255
255
0
255
255
0
255
255
0
255
255
0
255
255
0
255
255
0
255
255
0
255
255
0
255
255
0
255
255
0
255
255
0
255
255
0
255
255
0
255
255
0
255
255
0
255
255
0
255
255
0
255
255
0
255
255
0
255
255
0
255
255
0
255
255
0
255
255
0
255
255
0
255
255
0
255
255
0
255
255
0
255
255
0
255
255
0
255
255
0
255
255
0
255
255
0
255
255
0
255
255
0
255
255
0
255
255
0
170
123
0
88
0
0
120
3
0
121
7
0
120
6
0
120
6
0
120
6
0
120
6
0
120
6
0
120
6
0
120
6
0
120
6
0
120
6
0
120
6
0
120
6
0
120
6
0
120
6
0
120
6
0
120
6
0
120
6
0
120
6
0
120
6
0
120
6
0
130
24
0
255
255
0
255
255
0
255
255
0
255
255
0
255
255
0
255
255
0
255
255
0
255
255
0
255
255
0
255
255
0
255
255
0
255
255
0
255
255
0
255
255
0
255
255
0
255
255
0
255
255
0
255
255
0
255
255
0
255
255
0
255
255
0
255
255
0
255
255
0
255
255
0
255
255
0
255
255
0
255
255
0
255
255
0
255
255
0
255
255
0
255
255
0
255
255
0
255
255
0
255
255
0
255
255
0
255
255
0
255
255
0
255
255
0
255
255
0
255
255
0
255
255
0
255
255
0
255
255
0
255
255
0
255
255
0
255
255
0
250
244
0
150
91
0
87
0
0
118
0
0
122
7
0
120
6
0
120
6
0
120
6
0
120
6
0
120
6
0
120
6
0
120
6
0
120
6
0
120
6
0
120
6
0
120
6
0
120
6
0
120
6
0
120
6
0
120
6
0
120
6
0
120
6
0
120
6
0
120
6
0
120
6
0
130
24
0
255
255
0
255
255
0
255
255
0
255
255
0
214
168
0
132
37
0
171
93
0
255
255
0
255
255
0
255
255
0
255
255
0
255
255
0
255
255
0
255
255
0
255
255
0
255
255
0
255
255
0
255
255
0
255
255
0
255
255
0
255
255
0
255
255
0
255
255
0
255
255
0
255
255
0
255
255
0
255
255
0
255
255
0
255
255
0
255
255
0
255
255
0
255
255
0
255
255
0
255
255
0
255
255
0
255
255
0
255
255
0
255
255
0
255
255
0
255
255
0
255
255
0
255
255
0
255
255
0
255
255
0
255
255
0
198
169
0
120
36
0
88
0
0
120
2
0
121
7
0
119
6
0
119
6
0
119
6
0
119
6
0
119
6
0
119
6
0
119
6
0
119
6
0
119
6
0
119
6
0
119
6
0
119
6
0
119
6
0
119
6
0
119
6
0
119
6
0
119
6
0
119
6
0
119
6
0
119
6
0
119
6
0
129
24
0
255
255
0
255
255
0
255
255
0
247
239
0
129
0
0
117
0
0
114
0
0
155
55
0
231
210
0
255
255
0
255
255
0
255
255
0
255
255
0
255
255
0
255
255
0
255
255
0
255
255
0
255
255
0
255
255
0
255
255
0
255
255
0
255
255
0
255
255
0
255
255
0
255
255
0
255
255
0
255
255
0
255
255
0
255
255
0
255
255
0
255
255
0
255
255
0
255
255
0
255
255
0
239
228
0
205
179
0
213
186
0
219
196
0
227
208
0
235
220
0
232
216
0
217
195
0
197
154
0
168
109
0
127
41
0
91
0
0
103
0
0
123
6
0
120
6
0
119
6
0
119
6
0
119
6
0
119
6
0
119
6
0
119
6
0
119
6
0
119
6
0
119
6
0
119
6
0
119
6
0
119
6
0
119
6
0
119
6
0
119
6
0
119
6
0
119
6
0
119
6
0
119
6
0
119
6
0
119
6
0
119
6
0
129
24
0
255
255
0
255
255
0
255
255
0
220
185
0
119
0
0
144
1
0
145
5
0
124
0
0
128
0
0
166
79
0
204
157
0
244
234
0
255
255
0
255
255
0
255
255
0
255
255
0
255
255
0
255
255
0
255
255
0
255
255
0
255
255
0
255
255
0
255
255
0
255
255
0
255
255
0
255
255
0
255
255
0
255
255
0
255
255
0
255
255
0
255
255
0
255
255
0
255
255
0
255
255
0
193
151
0
72
0
0
99
0
0
103
0
0
108
0
0
114
2
0
111
1
0
101
0
0
93
0
0
92
0
0
103
0
0
120
1
0
121
7
0
118
7
0
119
7
0
119
7
0
119
7
0
119
7
0
119
7
0
119
7
0
119
7
0
119
7
0
119
7
0
119
7
0
119
7
0
119
7
0
119
7
0
119
7
0
119
7
0
119
7
0
119
7
0
119
7
0
119
7
0
119
7
0
119
7
0
119
7
0
119
7
0
129
25
0
255
255
0
255
255
0
255
255
0
165
70
0
119
0
0
141
7
0
139
6
0
142
7
0
135
0
0
120
0
0
116
0
0
136
15
0
162
74
0
182
111
0
205
156
0
232
212
0
249
241
0
255
251
0
255
252
0
249
243
0
255
255
0
255
255
0
255
255
0
255
255
0
251
243
0
176
101
0
140
43
0
199
148
0
255
255
0
255
255
0
255
255
0
255
255
0
255
255
0
255
255
0
205
174
0
94
0
0
115
0
0
115
0
0
113
0
0
111
0
0
112
0
0
115
0
0
118
4
0
119
8
0
119
8
0
118
7
0
118
7
0
118
7
0
118
7
0
118
7
0
118
7
0
118
7
0
118
7
0
118
7
0
118
7
0
118
7
0
118
7
0
118
7
0
118
7
0
118
7
0
118
7
0
118
7
0
118
7
0
118
7
0
118
7
0
118
7
0
118
7
0
118
7
0
118
7
0
118
7
0
118
7
0
128
25
0
255
255
0
255
255
0
217
179
0
110
0
0
136
3
0
137
6
0
137
6
0
137
6
0
138
6
0
139
7
0
139
3
0
129
0
0
119
0
0
115
0
0
115
0
0
128
0
0
141
17
0
147
31
0
125
20
0
191
129
0
255
255
0
255
255
0
255
255
0
249
242
0
144
39
0
112
0
0
125
0
0
113
0
0
171
96
0
255
255
0
255
255
0
255
255
0
255
255
0
255
255
0
204
172
0
94
0
0
116
2
0
117
7
0
117
7
0
117
7
0
117
7
0
117
7
0
117
7
0
117
7
0
117
7
0
117
7
0
117
7
0
117
7
0
117
7
0
117
7
0
117
7
0
117
7
0
117
7
0
117
7
0
117
7
0
117
7
0
117
7
0
117
7
0
117
7
0
117
7
0
117
7
0
117
7
0
117
7
0
117
7
0
117
7
0
117
7
0
117
7
0
117
7
0
117
7
0
117
7
0
117
7
0
127
25
0
255
255
0
244
235
0
125
16
0
123
0
0
138
7
0
135
6
0
136
6
0
136
6
0
136
6
0
136
6
0
135
6
0
136
6
0
137
6
0
137
7
0
136
3
0
131
0
0
128
0
0
105
0
0
130
27
0
243
233
0
255
255
0
255
255
0
255
255
0
167
76
0
109
0
0
144
6
0
144
7
0
141
0
0
109
0
0
161
78
0
255
255
0
255
255
0
255
255
0
255
255
0
201
167
0
90
0
0
116
2
0
116
7
0
116
7
0
116
7
0
116
7
0
116
7
0
116
7
0
116
7
0
116
7
0
116
7
0
116
7
0
116
7
0
116
7
0
116
7
0
116
7
0
116
7
0
116
7
0
116
7
0
116
7
0
116
7
0
116
7
0
116
7
0
116
7
0
116
7
0
116
7
0
116
7
0
116
7
0
116
7
0
116
7
0
116
7
0
116
7
0
116
7
0
116
7
0
116
7
0
116
7
0
126
25
0
255
255
0
143
50
0
109
0
0
138
6
0
133
6
0
134
6
0
134
6
0
134
6
0
134
6
0
134
6
0
134
6
0
134
6
0
134
6
0
134
6
0
133
6
0
134
6
0
135
2
0
109
0
0
221
190
0
255
255
0
255
255
0
255
255
0
220
189
0
110
0
0
137
2
0
138
6
0
138
6
0
139
6
0
140
3
0
103
0
0
178
100
0
255
255
0
255
255
0
255
255
0
224
205
0
101
0
0
112
0
0
115
8
0
116
8
0
116
8
0
116
8
0
116
8
0
116
8
0
116
8
0
116
8
0
116
8
0
116
8
0
116
8
0
116
8
0
116
8
0
116
8
0
116
8
0
116
8
0
116
8
0
116
8
0
116
8
0
116
8
0
116
8
0
116
8
0
116
8
0
116
8
0
116
8
0
116
8
0
116
8
0
116
8
0
116
8
0
116
8
0
116
8
0
116
8
0
116
8
0
116
8
0
126
25
0
185
129
0
99
0
0
137
5
0
133
6
0
133
6
0
133
6
0
133
6
0
133
6
0
133
6
0
133
6
0
133
6
0
133
6
0
133
6
0
133
6
0
133
6
0
134
7
0
117
0
0
142
40
0
255
255
0
255
255
0
255
255
0
255
255
0
147
41
0
117
0
0
139
7
0
136
6
0
136
6
0
136
6
0
137
7
0
135
2
0
106
0
0
220
189
0
255
255
0
255
255
0
255
255
0
128
39
0
97
0
0
116
9
0
114
8
0
114
8
0
114
8
0
114
8
0
114
8
0
114
8
0
114
8
0
114
8
0
114
8
0
114
8
0
114
8
0
114
8
0
114
8
0
114
8
0
114
8
0
114
8
0
114
8
0
114
8
0
114
8
0
114
8
0
114
8
0
114
8
0
114
8
0
114
8
0
114
8
0
114
8
0
114
8
0
114
8
0
114
8
0
114
8
0
114
8
0
114
8
0
114
8
0
124
25
0
130
18
0
127
3
0
132
7
0
130
6
0
130
6
0
130
6
0
130
6
0
130
6
0
130
6
0
130
6
0
130
6
0
130
6
0
130
6
0
130
6
0
130
6
0
133
6
0
102
0
0
181
120
0
255
255
0
255
255
0
255
255
0
203
154
0
104
0
0
137
3
0
135
6
0
135
6
0
135
6
0
135
6
0
134
6
0
138
7
0
111
0
0
152
54
0
255
255
0
255
255
0
255
255
0
141
75
0
90
0
0
116
9
0
114
8
0
114
8
0
114
8
0
114
8
0
114
8
0
114
8
0
114
8
0
114
8
0
114
8
0
114
8
0
114
8
0
114
8
0
114
8
0
114
8
0
114
8
0
114
8
0
114
8
0
114
8
0
114
8
0
114
8
0
114
8
0
114
8
0
114
8
0
114
8
0
114
8
0
114
8
0
114
8
0
114
8
0
114
8
0
114
8
0
114
8
0
114
8
0
114
8
0
124
25
0
134
18
0
130
7
0
128
6
0
128
6
0
128
6
0
128
6
0
128
6
0
128
6
0
128
6
0
128
6
0
128
6
0
128
6
0
128
6
0
128
6
0
128
6
0
127
0
0
108
0
0
227
204
0
255
255
0
255
255
0
245
238
0
120
8
0
121
0
0
134
7
0
133
6
0
133
6
0
133
6
0
133
6
0
133
6
0
132
6
0
131
0
0
112
0
0
232
212
0
255
255
0
255
255
0
148
81
0
86
0
0
115
11
0
113
9
0
113
9
0
113
9
0
113
9
0
113
9
0
113
9
0
113
9
0
113
9
0
113
9
0
113
9
0
113
9
0
113
9
0
113
9
0
113
9
0
113
9
0
113
9
0
113
9
0
113
9
0
113
9
0
113
9
0
113
9
0
113
9
0
113
9
0
113
9
0
113
9
0
113
9
0
113
9
0
113
9
0
113
9
0
113
9
0
113
9
0
113
9
0
113
9
0
123
26
0
136
24
0
126
6
0
127
6
0
127
6
0
127
6
0
127
6
0
127
6
0
127
6
0
127
6
0
127
6
0
127
6
0
127
6
0
127
6
0
126
6
0
130
7
0
105
0
0
134
29
0
255
255
0
255
255
0
255
255
0
164
84
0
100
0
0
135
6
0
130
6
0
130
6
0
130
6
0
130
6
0
130
6
0
130
6
0
130
6
0
133
6
0
103
0
0
179
116
0
255
255
0
255
255
0
195
158
0
81
0
0
115
6
0
112
9
0
112
9
0
112
9
0
112
9
0
112
9
0
112
9
0
112
9
0
112
9
0
112
9
0
112
9
0
112
9
0
112
9
0
112
9
0
112
9
0
112
9
0
112
9
0
112
9
0
112
9
0
112
9
0
112
9
0
112
9
0
112
9
0
112
9
0
112
9
0
112
9
0
112
9
0
112
9
0
112
9
0
112
9
0
112
9
0
112
9
0
112
9
0
112
9
0
122
26
0
134
24
0
125
6
0
125
6
0
125
6
0
125
6
0
125
6
0
125
6
0
125
6
0
125
6
0
125
6
0
125
6
0
125
6
0
125
6
0
125
7
0
123
3
0
92
0
0
208
175
0
255
255
0
255
255
0
227
205
0
105
0
0
125
1
0
128
6
0
128
6
0
128
6
0
128
6
0
128
6
0
128
6
0
128
6
0
128
6
0
130
7
0
111
0
0
138
36
0
255
255
0
255
255
0
251
252
0
107
17
0
91
0
0
115
11
0
111
9
0
112
9
0
112
9
0
112
9
0
112
9
0
112
9
0
112
9
0
112
9
0
112
9
0
112
9
0
112
9
0
112
9
0
112
9
0
112
9
0
112
9
0
112
9
0
112
9
0
112
9
0
112
9
0
112
9
0
112
9
0
112
9
0
112
9
0
112
9
0
112
9
0
112
9
0
112
9
0
112
9
0
112
9
0
112
9
0
112
9
0
112
9
0
122
26
0
133
24
0
124
6
0
124
6
0
124
6
0
124
6
0
124
6
0
124
6
0
124
6
0
124
6
0
124
6
0
124
6
0
124
6
0
124
6
0
124
5
0
100
0
0
172
109
0
255
255
0
255
255
0
255
255
0
180
118
0
95
0
0
130
6
0
126
6
0
126
6
0
126
6
0
126
6
0
126
6
0
126
6
0
126
6
0
126
6
0
126
6
0
124
0
0
111
0
0
226
206
0
255
255
0
255
255
0
200
169
0
82
0
0
110
5
0
111
9
0
111
9
0
111
9
0
111
9
0
111
9
0
111
9
0
111
9
0
111
9
0
111
9
0
111
9
0
111
9
0
111
9
0
111
9
0
111
9
0
111
9
0
111
9
0
111
9
0
111
9
0
111
9
0
111
9
0
111
9
0
111
9
0
111
9
0
111
9
0
111
9
0
111
9
0
111
9
0
111
9
0
111
9
0
111
9
0
111
9
0
111
9
0
121
26
0
130
24
0
121
6
0
121
6
0
121
6
0
121
6
0
121
6
0
121
6
0
121
6
0
121
6
0
121
6
0
121
6
0
121
6
0
121
6
0
116
0
0
109
0
0
240
229
0
255
255
0
255
255
0
255
255
0
140
46
0
105
0
0
126
7
0
124
6
0
124
6
0
124
6
0
124
6
0
124
6
0
124
6
0
124
6
0
124
6
0
124
6
0
125
4
0
95
0
0
195
144
0
255
255
0
255
255
0
255
255
0
155
89
0
85
0
0
111
11
0
110
10
0
110
10
0
110
10
0
110
10
0
110
10
0
110
10
0
110
10
0
110
10
0
110
10
0
110
10
0
110
10
0
110
10
0
110
10
0
110
10
0
110
10
0
110
10
0
110
10
0
110
10
0
110
10
0
110
10
0
110
10
0
110
10
0
110
10
0
110
10
0
110
10
0
110
10
0
110
10
0
110
10
0
110
10
0
110
10
0
110
10
0
120
27
0
129
24
0
119
6
0
119
6
0
119
6
0
119
6
0
119
6
0
119
6
0
119
6
0
119
6
0
119
6
0
119
6
0
119
6
0
119
6
0
114
0
0
109
0
0
227
210
0
255
255
0
255
255
0
220
192
0
98
0
0
121
2
0
122
6
0
122
6
0
122
6
0
122
6
0
122
6
0
122
6
0
122
6
0
122
6
0
122
6
0
122
6
0
124
7
0
96
0
0
167
97
0
255
255
0
255
255
0
255
255
0
169
110
0
80
0
0
110
13
0
109
10
0
109
10
0
109
10
0
109
10
0
109
10
0
109
10
0
109
10
0
109
10
0
109
10
0
109
10
0
109
10
0
109
10
0
109
10
0
109
10
0
109
10
0
109
10
0
109
10
0
109
10
0
109
10
0
109
10
0
109
10
0
109
10
0
109
10
0
109
10
0
109
10
0
109
10
0
109
10
0
109
10
0
109
10
0
109
10
0
109
10
0
119
27
0
128
25
0
118
7
0
118
7
0
118
7
0
118
7
0
118
7
0
118
7
0
118
7
0
118
7
0
118
7
0
118
7
0
118
7
0
117
7
0
117
0
0
98
0
0
215
191
0
255
255
0
242
236
0
109
18
0
104
0
0
122
6
0
120
6
0
120
6
0
120
6
0
120
6
0
120
6
0
120
6
0
120
6
0
120
6
0
120
6
0
120
6
0
120
6
0
109
0
0
113
17
0
251
247
0
255
255
0
255
255
0
171
117
0
80
0
0
111
12
0
109
10
0
109
10
0
109
10
0
109
10
0
109
10
0
109
10
0
109
10
0
109
10
0
109
10
0
109
10
0
109
10
0
109
10
0
109
10
0
109
10
0
109
10
0
109
10
0
109
10
0
109
10
0
109
10
0
109
10
0
109
10
0
109
10
0
109
10
0
109
10
0
109
10
0
109
10
0
109
10
0
109
10
0
109
10
0
109
10
0
109
10
0
119
27
0
126
25
0
116
7
0
116
7
0
116
7
0
116
7
0
116
7
0
116
7
0
116
7
0
116
7
0
116
7
0
116
7
0
116
7
0
116
7
0
105
0
0
112
15
0
243
236
0
255
255
0
152
78
0
83
0
0
124
6
0
118
6
0
118
6
0
118
6
0
118
6
0
118
6
0
118
6
0
118
6
0
118
6
0
118
6
0
118
6
0
118
6
0
118
6
0
123
6
0
92
0
0
147
74
0
255
255
0
255
255
0
203
175
0
83
0
0
108
5
0
109
10
0
109
11
0
109
11
0
109
11
0
109
11
0
109
11
0
109
11
0
109
11
0
109
11
0
109
11
0
109
11
0
109
11
0
109
11
0
109
11
0
109
11
0
109
11
0
109
11
0
109
11
0
109
11
0
109
11
0
109
11
0
109
11
0
109
11
0
109
11
0
109
11
0
109
11
0
109
11
0
109
11
0
109
11
0
109
11
0
109
11
0
119
28
0
123
26
0
113
9
0
113
9
0
113
9
0
113
9
0
113
9
0
113
9
0
113
9
0
113
9
0
113
9
0
113
9
0
113
9
0
115
11
0
86
0
0
160
97
0
255
255
0
228
211
0
93
0
0
112
1
0
116
8
0
116
8
0
116
8
0
116
8
0
116
8
0
116
8
0
116
8
0
116
8
0
116
8
0
116
8
0
116
8
0
116
8
0
116
8
0
116
8
0
117
4
0
77
0
0
200
166
0
255
255
0
236
227
0
98
0
0
101
0
0
108
12
0
108
11
0
108
11
0
108
11
0
108
11
0
108
11
0
108
11
0
108
11
0
108
11
0
108
11
0
108
11
0
108
11
0
108
11
0
108
11
0
108
11
0
108
11
0
108
11
0
108
11
0
108
11
0
108
11
0
108
11
0
108
11
0
108
11
0
108
11
0
108
11
0
108
11
0
108
11
0
108
11
0
108
11
0
108
11
0
108
11
0
118
28
0
121
27
0
111
10
0
111
10
0
111
10
0
111
10
0
111
10
0
111
10
0
111
10
0
111
10
0
111
10
0
111
10
0
111
10
0
112
9
0
81
0
0
191
149
0
255
255
0
172
112
0
82
0
0
116
10
0
113
9
0
113
9
0
113
9
0
113
9
0
113
9
0
113
9
0
113
9
0
113
9
0
113
9
0
113
9
0
113
9
0
113
9
0
113
9
0
113
9
0
116
10
0
92
0
0
121
29
0
255
255
0
255
255
0
120
42
0
88
0
0
108
13
0
107
11
0
107
11
0
107
11
0
107
11
0
107
11
0
107
11
0
107
11
0
107
11
0
107
11
0
107
11
0
107
11
0
107
11
0
107
11
0
107
11
0
107
11
0
107
11
0
107
11
0
107
11
0
107
11
0
107
11
0
107
11
0
107
11
0
107
11
0
107
11
0
107
11
0
107
11
0
107
11
0
107
11
0
107
11
0
107
11
0
117
28
0
109
10
0
109
10
0
109
10
0
109
10
0
109
10
0
109
10
0
109
10
0
109
10
0
109
10
0
109
10
0
109
10
0
109
10
0
108
2
0
88
0
0
213
193
0
255
255
0
160
99
0
84
0
0
112
12
0
110
10
0
110
10
0
110
10
0
110
10
0
110
10
0
110
10
0
110
10
0
110
10
0
110
10
0
110
10
0
110
10
0
110
10
0
110
10
0
110
10
0
110
9
0
110
4
0
84
0
0
217
196
0
255
255
0
166
117
0
71
0
0
110
14
0
106
12
0
106
12
0
106
12
0
106
12
0
106
12
0
106
12
0
106
12
0
106
12
0
106
12
0
106
12
0
106
12
0
106
12
0
106
12
0
106
12
0
106
12
0
106
12
0
106
12
0
106
12
0
106
12
0
106
12
0
106
12
0
106
12
0
106
12
0
106
12
0
106
12
0
106
12
0
106
12
0
106
12
0
106
12
0
106
12
0
117
29
0
150
81
0
116
24
0
108
11
0
108
11
0
108
11
0
108
11
0
108
11
0
108
11
0
108
11
0
108
11
0
108
11
0
108
12
0
98
0
0
106
9
0
249
246
0
255
255
0
137
74
0
85
0
0
111
12
0
109
11
0
109
11
0
109
11
0
109
11
0
109
11
0
109
11
0
109
11
0
109
11
0
109
11
0
109
11
0
109
11
0
109
11
0
109
11
0
109
11
0
109
11
0
113
13
0
78
0
0
146
80
0
255
255
0
223
207
0
81
0
0
103
4
0
106
12
0
105
12
0
105
12
0
105
12
0
105
12
0
105
12
0
105
12
0
105
12
0
105
12
0
105
12
0
106
13
0
107
15
0
111
22
0
124
42
0
134
60
0
137
63
0
131
55
0
117
31
0
105
12
0
105
12
0
105
12
0
105
12
0
106
12
0
106
12
0
106
12
0
106
12
0
106
12
0
106
12
0
106
12
0
106
12
0
117
29
0
0
0
0
65
63
0
207
177
0
179
131
0
140
69
0
111
22
0
105
12
0
105
12
0
105
12
0
105
12
0
105
12
0
107
13
0
87
4
0
134
67
0
255
255
0
251
247
0
166
111
0
170
119
0
190
146
0
196
157
0
193
152
0
168
111
0
121
35
0
107
12
0
107
12
0
107
12
0
107
12
0
107
12
0
107
12
0
107
12
0
107
12
0
107
12
0
107
12
0
107
12
0
108
12
0
100
2
0
92
3
0
235
226
0
255
255
0
131
62
0
80
0
0
114
25
0
146
78
0
181
136
0
195
158
0
204
173
0
215
190
0
222
202
0
226
208
0
229
212
0
231
216
0
234
221
0
236
225
0
162
157
0
0
0
0
0
0
0
0
0
0
0
0
0
0
0
0
228
211
0
202
169
0
183
138
0
147
80
0
112
25
0
104
12
0
104
12
0
104
12
0
104
12
0
104
12
0
104
12
0
104
12
0
104
12
0
0
0
0
0
0
0
0
0
0
0
0
0
0
0
0
32
32
0
230
214
0
209
182
0
200
166
0
202
169
0
211
184
0
225
206
0
233
224
0
33
32
0
0
0
0
0
0
0
0
0
0
0
0
0
0
0
0
0
0
0
0
0
0
0
0
0
0
0
0
201
168
0
150
86
0
137
64
0
137
64
0
137
65
0
138
67
0
141
72
0
144
76
0
146
80
0
148
83
0
151
87
0
153
91
0
159
96
0
144
101
0
217
198
0
255
255
0
228
214
0
211
192
0
0
0
0
0
0
0
0
0
0
0
0
0
0
0
0
0
0
0
0
0
0
0
0
0
0
0
0
0
0
0
0
0
0
0
0
0
0
0
0
0
0
0
0
0
0
0
0
0
0
0
0
0
0
0
0
0
0
0
0
0
0
0
0
0
0
0
0
0
0
222
203
0
180
135
0
150
85
0
140
69
0
137
64
0
137
64
0
141
71
0
166
112
0
0
0
0
0
0
0
0
0
0
0
0
0
0
0
0
0
0
0
0
0
0
0
0
0
0
0
0
0
0
0
0
0
0
0
0
0
0
0
0
0
0
0
0
0
0
0
0
0
0
0
0
0
0
0
0
0
0
0
0
0
0
0
0
0
0
0
0
0
0
0
0
0
0
0
0
0
0
0
0
0
0
0
0
0
0
0
0
0
0
0
0
0
0
0
0
0
0
0
0
0
0
0
0
0
0
0
0
0
0
0
0
0
0
0
0
0
0
0
0
0
0
0
0
0
0
0
0
0
0
0
0
0
0
0
0
0
0
0
0
0
0
0
0
0
0
0
0
0
0
0
0
0
0
0
0
0
0
0
0
0
0
0
0
0
0
0
0
0
0
0
0
0
0
0
0
0
0
0
0
0
0
0
0
0
0
0
0
0
0
0
0
0
0
0
0
0
0
0
0
0
0
0
0
0
0
0
0
0
0
0
0
0
0
0
0
0
0
0
0
0
0
0
0
0
0
0
0
0
0
0
0
0
0
0
0
0
0
0
0
0
0
0
0
0
0
0
0
0
0
0
0
0
0
0
0
0
0
0
0
0
0
0
0
0
0
0
0
0
0
0
0
0
0
0
0
0
0
0
0
0
0
0
0
0
0
0
0
0
0
0
0
0
0
0
0
0
0
0
0
0
0
0
0
0
0
0
0
0
0
0
0
0
0
0
0
0
0
0
0
0
0
0
0
0
0
0
0
0
0
0
0
0
0
0
0
0
0
0
0
0
0
0
0
0
0
0
0
0
0
0
0
0
0
0
0
0
0
0
0
0
0
0
0
0
0
0
0
0
0
0
0
0
0
0
0
0
0
0
0
0
0
0
0
0
0
0
0
0
0
0
0
0
0
0
0
0
0
0
0
0
0
0
0
0
0
0
0
0
0
0
0
0
0
0
0
0
0
0
0
0
0
0
0
0
0
0
0
0
0
0
0
0
0
0
0
0
0
0
0
0
0
0
0
0
0
0
0
0
0
0
0
0
0
0
0
0
0
0
0
0
0
0
0
0
0
0
0
0
0
0
0
0
0
0
0
0
0
0
0
0
0
0
0
0
0
0
0
0
0
0
0
0
0
0
0
0
0
0
0
0
0
0
0
0
0
0
0
0
0
0
0
0
0
0
0
0
0
0
0
0
0
0
0
0
0
0
0
0
0
0
0
0
0
0
0
0
0
0
0
0
0
0
0
0
0
0
0
0
0
0
0
0
0
0
0
0
0
0
0
0
0
0
0
0
0
0
0
0
0
0
0
0
0
0
0
0
0
0
0
0
0
0
0
0
0
0
0
0
0
0
0
0
0
0
0
0
0
0
0
0
0
0
0
0
0
0
0
0
0
0
0
0
0
0
0
0
0
0
0
0
0
0
0
0
0
0
0
0
0
0
0
0
0
0
0
0
0
0
0
0
0
0
0
0
0
0
0
0
0
0
0
0
0
0
0
0
0
0
0
0
0
0
0
0
0
0
0
0
0
0
0
0
0
0
0
0
0
0
0
0
0
0
0
0
0
0
0
0
0
0
0
0
0
0
0
0
0
0
0
0
0
0
0
0
0
0
0
0
0
0
0
0
0
0
0
0
0
0
0
0
0
0
0
0
0
0
0
0
0
0
0
0
0
0
0
0
0
0
0
0
0
0
0
0
0
0
0
0
0
0
0
0
0
0
0
0
0
0
0
0
0
0
0
0
0
0
0
0
0
0
0
0
0
0
0
0
0
0
0
0
0
0
0
0
0
0
0
0
0
0
0
0
0
0
0
0
0
0
0
0
0
0
0
0
0
0
0
0
0
0
0
0
0
0
0
0
0
0
0
0
0
0
0
0
0
0
0
0
0
0
0
0
0
0
0
0
0
0
0
0
0
0
0
0
0
0
0
0
0
0
0
0
0
0
0
0
0
0
0
0
0
0
0
0
0
0
0
0
0
0
0
0
0
0
0
0
0
0
0
0
0
0
0
0
0
0
0
0
0
0
0
0
0
0
0
0
0
0
0
0
0
0
0
0
0
0
0
0
0
0
0
0
0
0
0
0
0
0
0
0
0
0
0
0
0
0
0
0
0
0
0
0
0
0
0
0
0
0
0
0
0
0
0
0
0
0
0
0
0
0
0
0
0
0
0
0
0
0
0
0
0
0
0
0
0
0
0
0
0
0
0
0
0
0
0
0
0
0
0
0
0
0
0
0
0
0
0
0
0
0
0
0
0
0
0
0
0
0
0
0
0
0
0
0
0
0
0
0
0
0
0
0
0
0
0
0
0
0
0
0
0
0
0
0
0
0
0
0
0
0
0
0
0
0
0
0
0
0
0
0
0
0
0
0
0
0
0
0
0
0
0
0
0
0
0
0
0
0
0
0
0
0
0
0
0
0
0
0
0
0
0
0
0
0
0
0
0
0
0
0
0
0
0
0
0
0
0
0
0
0
0
0
0
0
0
0
0
0
0
0
0
0
0
0
0
0
0
0
0
0
0
0
0
0
0
0
0
0
0
0
0
0
0
0
0
0
0
0
0
0
0
0
0
0
0
0
0
0
0
0
0
0
0
0
0
0
0
0
0
0
0
0
0
0
0
0
0
0
0
0
0
0
0
0
0
0
0
0
0
0
0
0
0
0
0
0
0
0
0
0
0
0
0
0
0
0
0
0
0
0
0
0
0
0
0
0
0
0
0
0
0
0
0
0
0
0
0
0
0
0
0
0
0
0
0
0
0
0
0
0
0
0
0
0
0
0
0
0
0
0
0
0
0
0
0
0
0
0
0
0
0
0
0
0
0
0
0
0
0
0
0
0
0
0
0
0
0
0
0
0
0
0
0
0
0
0
0
0
0
0
0
0
0
0
0
0
0
0
0
0
0
0
0
0
0
0
0
0
0
0
0
0
0
0
0
0
0
0
0
0
0
0
0
0
0
0
0
0
0
0
0
0
0
0
0
0
0
0
0
0
0
0
0
0
0
0
0
0
0
0
0
0
0
0
0
0
0
0
0
0
0
0
0
0
0
0
0
0
0
0
0
0
0
0
0
0
0
0
0
0
0
0
0
0
0
0
0
0
0
0
0
0
0
0
0
0
0
0
0
0
0
0
0
0
0
0
0
0
0
0
0
0
0
0
0
0
0
0
0
0
0
0
0
0
0
0
0
0
0
0
0
0
0
0
0
0
0
0
0
0
0
0
0
0
0
0
0
0
0
0
0
0
0
0
0
0
0
0
0
0
0
0
0
0
0
0
0
0
0
0
0
0
0
0
0
0
0
0
0
0
0
0
0
0
0
0
0
0
0
0
0
0
0
0
0
0
0
0
0
0
0
0
0
0
0
0
0
0
0
0
0
0
0
0
0
0
0
0
0
0
0
0
0
0
0
0
0
0
0
0
0
0
0
0
0
0
0
0
0
0
0
0
0
0
0
0
0
0
0
0
0
0
0
0
0
0
0
0
0
0
0
0
0
0
0
0
0
0
0
0
0
0
0
0
0
0
0
0
0
0
0
0
0
0
0
0
0
0
0
0
0
0
0
0
0
0
0
0
0
0
0
0
0
0
0
0
0
0
0
0
0
0
0
0
0
0
0
0
0
0
0
0
0
0
0
0
0
0
0
0
0
0
0
0
0
0
0
0
0
0
0
0
0
0
0
0
0
0
0
0
0
0
0
0
0
0
0
0
0
0
0
0
0
0
0
0
0
0
0
0
0
0
0
0
0
0
0
0
0
0
0
0
0
0
0
0
0
0
0
0
0
0
0
0
0
0
0
0
0
0
0
0
0
0
0
0
0
0
0
0
0
0
0
0
0
0
0
0
0
0
0
0
0
0
0
0
0
0
0
0
0
0
0
0
0
0
0
0
0
0
0
0
0
0
0
0
0
0
0
0
0
0
0
0
0
0
0
0
0
0
0
0
0
0
0
0
0
0
0
0
0
0
0
0
0
0
0
0
0
0
0
0
0
0
0
0
0
0
0
0
0
0
0
0
0
0
0
0
0
0
0
0
0
0
0
0
0
0
0
0
0
0
0
0
0
0
0
0
0
0
0
0
0
0
0
0
0
0
0
0
0
0
0
0
0
0
0
0
0
0
0
0
0
0
0
0
0
0
0
0
0
0
0
0
0
0
0
0
0
0
0
0
0
0
0
0
0
0
0
0
0
0
0
0
0
0
0
0
0
0
0
0
0
0
0
0
0
0
0
0
0
0
0
0
0
0
0
0
0
0
0
0
0
0
0
0
0
0
0
0
0
0
0
0
0
0
0
0
0
0
0
0
0
0
0
0
0
0
0
0
0
0
0
0
0
0
0
0
0
0
0
0
0
0
0
0
0
0
0
0
0
0
0
0
0
0
0
0
0
0
0
0
0
